<?xml version="1.0" standalone="no"?>
 <!DOCTYPE svg PUBLIC "-//W3C//DTD SVG 1.1//EN" 
 "http://www.w3.org/Graphics/SVG/1.1/DTD/svg11.dtd"> 
<svg
  xmlns:svg="http://www.w3.org/2000/svg"
  xmlns="http://www.w3.org/2000/svg"
  xmlns:xlink="http://www.w3.org/1999/xlink"
  xmlns:inkscape="http://www.inkscape.org/namespaces/inkscape"
  version="1.1"
  width="297.0022mm" height="210.0072mm" viewBox="0.0000 0.0000 297.0022 210.0072">
<title>SVG Image created as fpga_tile.svg date 2026-06-21T11:43:11 </title>
  <desc>Image generated by PCBNEW </desc>
<g style="fill:#000000; fill-opacity:1.0000;stroke:#000000; stroke-opacity:1.0000;
stroke-linecap:round; stroke-linejoin:round;"
 transform="translate(0 0) scale(1 1)">
</g>
<g style="fill:none; 
stroke:#C872AB; stroke-width:0.1500; stroke-opacity:1; 
stroke-linecap:round; stroke-linejoin:round;">
<path d="M177.0022 166.0072
L285.0022 166.0072
L285.0022 198.0072
L177.0022 198.0072
L177.0022 166.0072
" />
<path d="M10.0000 10.0000
L287.0022 10.0000
L287.0022 200.0072
L10.0000 200.0072
L10.0000 10.0000
" />
<path d="M12.0000 12.0000
L285.0022 12.0000
L285.0022 198.0072
L12.0000 198.0072
L12.0000 12.0000
" />
<path d="M60.0000 12.0000
L60.0000 10.0000
" />
<path d="M110.0000 12.0000
L110.0000 10.0000
" />
<path d="M160.0000 12.0000
L160.0000 10.0000
" />
<path d="M210.0000 12.0000
L210.0000 10.0000
" />
<path d="M260.0000 12.0000
L260.0000 10.0000
" />
<text x="35.0000" y="11.6500"
textLength="1.4281" font-size="1.7333" lengthAdjust="spacingAndGlyphs"
text-anchor="start" opacity="0" stroke-opacity="0">1</text>
<g class="stroked-text"><desc>1</desc>
<path d="M36.0892 11.5936
L35.3463 11.5936
" />
<path d="M35.7177 11.5936
L35.7177 10.2936
" />
<path d="M35.7177 10.2936
L35.5939 10.4793
" />
<path d="M35.5939 10.4793
L35.4701 10.6031
" />
<path d="M35.4701 10.6031
L35.3463 10.6650
" />
</g><text x="85.0000" y="11.6500"
textLength="1.4281" font-size="1.7333" lengthAdjust="spacingAndGlyphs"
text-anchor="start" opacity="0" stroke-opacity="0">2</text>
<g class="stroked-text"><desc>2</desc>
<path d="M85.3463 10.4174
L85.4082 10.3555
" />
<path d="M85.4082 10.3555
L85.5320 10.2936
" />
<path d="M85.5320 10.2936
L85.8415 10.2936
" />
<path d="M85.8415 10.2936
L85.9654 10.3555
" />
<path d="M85.9654 10.3555
L86.0273 10.4174
" />
<path d="M86.0273 10.4174
L86.0892 10.5412
" />
<path d="M86.0892 10.5412
L86.0892 10.6650
" />
<path d="M86.0892 10.6650
L86.0273 10.8507
" />
<path d="M86.0273 10.8507
L85.2844 11.5936
" />
<path d="M85.2844 11.5936
L86.0892 11.5936
" />
</g><text x="135.0000" y="11.6500"
textLength="1.4281" font-size="1.7333" lengthAdjust="spacingAndGlyphs"
text-anchor="start" opacity="0" stroke-opacity="0">3</text>
<g class="stroked-text"><desc>3</desc>
<path d="M135.2844 10.2936
L136.0892 10.2936
" />
<path d="M136.0892 10.2936
L135.6558 10.7888
" />
<path d="M135.6558 10.7888
L135.8415 10.7888
" />
<path d="M135.8415 10.7888
L135.9654 10.8507
" />
<path d="M135.9654 10.8507
L136.0273 10.9127
" />
<path d="M136.0273 10.9127
L136.0892 11.0365
" />
<path d="M136.0892 11.0365
L136.0892 11.3460
" />
<path d="M136.0892 11.3460
L136.0273 11.4698
" />
<path d="M136.0273 11.4698
L135.9654 11.5317
" />
<path d="M135.9654 11.5317
L135.8415 11.5936
" />
<path d="M135.8415 11.5936
L135.4701 11.5936
" />
<path d="M135.4701 11.5936
L135.3463 11.5317
" />
<path d="M135.3463 11.5317
L135.2844 11.4698
" />
</g><text x="185.0000" y="11.6500"
textLength="1.4281" font-size="1.7333" lengthAdjust="spacingAndGlyphs"
text-anchor="start" opacity="0" stroke-opacity="0">4</text>
<g class="stroked-text"><desc>4</desc>
<path d="M185.9654 10.7269
L185.9654 11.5936
" />
<path d="M185.6558 10.2317
L185.3463 11.1603
" />
<path d="M185.3463 11.1603
L186.1511 11.1603
" />
</g><text x="235.0000" y="11.6500"
textLength="1.4281" font-size="1.7333" lengthAdjust="spacingAndGlyphs"
text-anchor="start" opacity="0" stroke-opacity="0">5</text>
<g class="stroked-text"><desc>5</desc>
<path d="M236.0273 10.2936
L235.4082 10.2936
" />
<path d="M235.4082 10.2936
L235.3463 10.9127
" />
<path d="M235.3463 10.9127
L235.4082 10.8507
" />
<path d="M235.4082 10.8507
L235.5320 10.7888
" />
<path d="M235.5320 10.7888
L235.8415 10.7888
" />
<path d="M235.8415 10.7888
L235.9654 10.8507
" />
<path d="M235.9654 10.8507
L236.0273 10.9127
" />
<path d="M236.0273 10.9127
L236.0892 11.0365
" />
<path d="M236.0892 11.0365
L236.0892 11.3460
" />
<path d="M236.0892 11.3460
L236.0273 11.4698
" />
<path d="M236.0273 11.4698
L235.9654 11.5317
" />
<path d="M235.9654 11.5317
L235.8415 11.5936
" />
<path d="M235.8415 11.5936
L235.5320 11.5936
" />
<path d="M235.5320 11.5936
L235.4082 11.5317
" />
<path d="M235.4082 11.5317
L235.3463 11.4698
" />
</g><text x="285.0000" y="11.6500"
textLength="1.4281" font-size="1.7333" lengthAdjust="spacingAndGlyphs"
text-anchor="start" opacity="0" stroke-opacity="0">6</text>
<g class="stroked-text"><desc>6</desc>
<path d="M285.9654 10.2936
L285.7177 10.2936
" />
<path d="M285.7177 10.2936
L285.5939 10.3555
" />
<path d="M285.5939 10.3555
L285.5320 10.4174
" />
<path d="M285.5320 10.4174
L285.4082 10.6031
" />
<path d="M285.4082 10.6031
L285.3463 10.8507
" />
<path d="M285.3463 10.8507
L285.3463 11.3460
" />
<path d="M285.3463 11.3460
L285.4082 11.4698
" />
<path d="M285.4082 11.4698
L285.4701 11.5317
" />
<path d="M285.4701 11.5317
L285.5939 11.5936
" />
<path d="M285.5939 11.5936
L285.8415 11.5936
" />
<path d="M285.8415 11.5936
L285.9654 11.5317
" />
<path d="M285.9654 11.5317
L286.0273 11.4698
" />
<path d="M286.0273 11.4698
L286.0892 11.3460
" />
<path d="M286.0892 11.3460
L286.0892 11.0365
" />
<path d="M286.0892 11.0365
L286.0273 10.9127
" />
<path d="M286.0273 10.9127
L285.9654 10.8507
" />
<path d="M285.9654 10.8507
L285.8415 10.7888
" />
<path d="M285.8415 10.7888
L285.5939 10.7888
" />
<path d="M285.5939 10.7888
L285.4701 10.8507
" />
<path d="M285.4701 10.8507
L285.4082 10.9127
" />
<path d="M285.4082 10.9127
L285.3463 11.0365
" />
</g><path d="M60.0000 198.0072
L60.0000 200.0072
" />
<path d="M110.0000 198.0072
L110.0000 200.0072
" />
<path d="M160.0000 198.0072
L160.0000 200.0072
" />
<path d="M210.0000 198.0072
L210.0000 200.0072
" />
<path d="M260.0000 198.0072
L260.0000 200.0072
" />
<text x="35.0000" y="199.6572"
textLength="1.4281" font-size="1.7333" lengthAdjust="spacingAndGlyphs"
text-anchor="start" opacity="0" stroke-opacity="0">1</text>
<g class="stroked-text"><desc>1</desc>
<path d="M36.0892 199.6008
L35.3463 199.6008
" />
<path d="M35.7177 199.6008
L35.7177 198.3008
" />
<path d="M35.7177 198.3008
L35.5939 198.4865
" />
<path d="M35.5939 198.4865
L35.4701 198.6103
" />
<path d="M35.4701 198.6103
L35.3463 198.6722
" />
</g><text x="85.0000" y="199.6572"
textLength="1.4281" font-size="1.7333" lengthAdjust="spacingAndGlyphs"
text-anchor="start" opacity="0" stroke-opacity="0">2</text>
<g class="stroked-text"><desc>2</desc>
<path d="M85.3463 198.4246
L85.4082 198.3627
" />
<path d="M85.4082 198.3627
L85.5320 198.3008
" />
<path d="M85.5320 198.3008
L85.8415 198.3008
" />
<path d="M85.8415 198.3008
L85.9654 198.3627
" />
<path d="M85.9654 198.3627
L86.0273 198.4246
" />
<path d="M86.0273 198.4246
L86.0892 198.5484
" />
<path d="M86.0892 198.5484
L86.0892 198.6722
" />
<path d="M86.0892 198.6722
L86.0273 198.8579
" />
<path d="M86.0273 198.8579
L85.2844 199.6008
" />
<path d="M85.2844 199.6008
L86.0892 199.6008
" />
</g><text x="135.0000" y="199.6572"
textLength="1.4281" font-size="1.7333" lengthAdjust="spacingAndGlyphs"
text-anchor="start" opacity="0" stroke-opacity="0">3</text>
<g class="stroked-text"><desc>3</desc>
<path d="M135.2844 198.3008
L136.0892 198.3008
" />
<path d="M136.0892 198.3008
L135.6558 198.7960
" />
<path d="M135.6558 198.7960
L135.8415 198.7960
" />
<path d="M135.8415 198.7960
L135.9654 198.8579
" />
<path d="M135.9654 198.8579
L136.0273 198.9199
" />
<path d="M136.0273 198.9199
L136.0892 199.0437
" />
<path d="M136.0892 199.0437
L136.0892 199.3532
" />
<path d="M136.0892 199.3532
L136.0273 199.4770
" />
<path d="M136.0273 199.4770
L135.9654 199.5389
" />
<path d="M135.9654 199.5389
L135.8415 199.6008
" />
<path d="M135.8415 199.6008
L135.4701 199.6008
" />
<path d="M135.4701 199.6008
L135.3463 199.5389
" />
<path d="M135.3463 199.5389
L135.2844 199.4770
" />
</g><text x="185.0000" y="199.6572"
textLength="1.4281" font-size="1.7333" lengthAdjust="spacingAndGlyphs"
text-anchor="start" opacity="0" stroke-opacity="0">4</text>
<g class="stroked-text"><desc>4</desc>
<path d="M185.9654 198.7341
L185.9654 199.6008
" />
<path d="M185.6558 198.2389
L185.3463 199.1675
" />
<path d="M185.3463 199.1675
L186.1511 199.1675
" />
</g><text x="235.0000" y="199.6572"
textLength="1.4281" font-size="1.7333" lengthAdjust="spacingAndGlyphs"
text-anchor="start" opacity="0" stroke-opacity="0">5</text>
<g class="stroked-text"><desc>5</desc>
<path d="M236.0273 198.3008
L235.4082 198.3008
" />
<path d="M235.4082 198.3008
L235.3463 198.9199
" />
<path d="M235.3463 198.9199
L235.4082 198.8579
" />
<path d="M235.4082 198.8579
L235.5320 198.7960
" />
<path d="M235.5320 198.7960
L235.8415 198.7960
" />
<path d="M235.8415 198.7960
L235.9654 198.8579
" />
<path d="M235.9654 198.8579
L236.0273 198.9199
" />
<path d="M236.0273 198.9199
L236.0892 199.0437
" />
<path d="M236.0892 199.0437
L236.0892 199.3532
" />
<path d="M236.0892 199.3532
L236.0273 199.4770
" />
<path d="M236.0273 199.4770
L235.9654 199.5389
" />
<path d="M235.9654 199.5389
L235.8415 199.6008
" />
<path d="M235.8415 199.6008
L235.5320 199.6008
" />
<path d="M235.5320 199.6008
L235.4082 199.5389
" />
<path d="M235.4082 199.5389
L235.3463 199.4770
" />
</g><text x="285.0000" y="199.6572"
textLength="1.4281" font-size="1.7333" lengthAdjust="spacingAndGlyphs"
text-anchor="start" opacity="0" stroke-opacity="0">6</text>
<g class="stroked-text"><desc>6</desc>
<path d="M285.9654 198.3008
L285.7177 198.3008
" />
<path d="M285.7177 198.3008
L285.5939 198.3627
" />
<path d="M285.5939 198.3627
L285.5320 198.4246
" />
<path d="M285.5320 198.4246
L285.4082 198.6103
" />
<path d="M285.4082 198.6103
L285.3463 198.8579
" />
<path d="M285.3463 198.8579
L285.3463 199.3532
" />
<path d="M285.3463 199.3532
L285.4082 199.4770
" />
<path d="M285.4082 199.4770
L285.4701 199.5389
" />
<path d="M285.4701 199.5389
L285.5939 199.6008
" />
<path d="M285.5939 199.6008
L285.8415 199.6008
" />
<path d="M285.8415 199.6008
L285.9654 199.5389
" />
<path d="M285.9654 199.5389
L286.0273 199.4770
" />
<path d="M286.0273 199.4770
L286.0892 199.3532
" />
<path d="M286.0892 199.3532
L286.0892 199.0437
" />
<path d="M286.0892 199.0437
L286.0273 198.9199
" />
<path d="M286.0273 198.9199
L285.9654 198.8579
" />
<path d="M285.9654 198.8579
L285.8415 198.7960
" />
<path d="M285.8415 198.7960
L285.5939 198.7960
" />
<path d="M285.5939 198.7960
L285.4701 198.8579
" />
<path d="M285.4701 198.8579
L285.4082 198.9199
" />
<path d="M285.4082 198.9199
L285.3463 199.0437
" />
</g><path d="M10.0000 60.0000
L12.0000 60.0000
" />
<path d="M10.0000 110.0000
L12.0000 110.0000
" />
<path d="M10.0000 160.0000
L12.0000 160.0000
" />
<text x="11.0000" y="35.6500"
textLength="1.3043" font-size="1.7333" lengthAdjust="spacingAndGlyphs"
text-anchor="middle" opacity="0" stroke-opacity="0">A</text>
<g class="stroked-text"><desc>A</desc>
<path d="M10.6905 35.2222
L11.3095 35.2222
" />
<path d="M10.5667 35.5936
L11.0000 34.2936
" />
<path d="M11.0000 34.2936
L11.4333 35.5936
" />
</g><text x="11.0000" y="85.6500"
textLength="1.4900" font-size="1.7333" lengthAdjust="spacingAndGlyphs"
text-anchor="middle" opacity="0" stroke-opacity="0">B</text>
<g class="stroked-text"><desc>B</desc>
<path d="M11.0929 84.9127
L11.2786 84.9746
" />
<path d="M11.2786 84.9746
L11.3405 85.0365
" />
<path d="M11.3405 85.0365
L11.4024 85.1603
" />
<path d="M11.4024 85.1603
L11.4024 85.3460
" />
<path d="M11.4024 85.3460
L11.3405 85.4698
" />
<path d="M11.3405 85.4698
L11.2786 85.5317
" />
<path d="M11.2786 85.5317
L11.1548 85.5936
" />
<path d="M11.1548 85.5936
L10.6595 85.5936
" />
<path d="M10.6595 85.5936
L10.6595 84.2936
" />
<path d="M10.6595 84.2936
L11.0929 84.2936
" />
<path d="M11.0929 84.2936
L11.2167 84.3555
" />
<path d="M11.2167 84.3555
L11.2786 84.4174
" />
<path d="M11.2786 84.4174
L11.3405 84.5412
" />
<path d="M11.3405 84.5412
L11.3405 84.6650
" />
<path d="M11.3405 84.6650
L11.2786 84.7888
" />
<path d="M11.2786 84.7888
L11.2167 84.8507
" />
<path d="M11.2167 84.8507
L11.0929 84.9127
" />
<path d="M11.0929 84.9127
L10.6595 84.9127
" />
</g><text x="11.0000" y="135.6500"
textLength="1.4900" font-size="1.7333" lengthAdjust="spacingAndGlyphs"
text-anchor="middle" opacity="0" stroke-opacity="0">C</text>
<g class="stroked-text"><desc>C</desc>
<path d="M11.4024 135.4698
L11.3405 135.5317
" />
<path d="M11.3405 135.5317
L11.1548 135.5936
" />
<path d="M11.1548 135.5936
L11.0310 135.5936
" />
<path d="M11.0310 135.5936
L10.8452 135.5317
" />
<path d="M10.8452 135.5317
L10.7214 135.4079
" />
<path d="M10.7214 135.4079
L10.6595 135.2841
" />
<path d="M10.6595 135.2841
L10.5976 135.0365
" />
<path d="M10.5976 135.0365
L10.5976 134.8507
" />
<path d="M10.5976 134.8507
L10.6595 134.6031
" />
<path d="M10.6595 134.6031
L10.7214 134.4793
" />
<path d="M10.7214 134.4793
L10.8452 134.3555
" />
<path d="M10.8452 134.3555
L11.0310 134.2936
" />
<path d="M11.0310 134.2936
L11.1548 134.2936
" />
<path d="M11.1548 134.2936
L11.3405 134.3555
" />
<path d="M11.3405 134.3555
L11.4024 134.4174
" />
</g><text x="11.0000" y="185.6500"
textLength="1.4900" font-size="1.7333" lengthAdjust="spacingAndGlyphs"
text-anchor="middle" opacity="0" stroke-opacity="0">D</text>
<g class="stroked-text"><desc>D</desc>
<path d="M10.6595 185.5936
L10.6595 184.2936
" />
<path d="M10.6595 184.2936
L10.9690 184.2936
" />
<path d="M10.9690 184.2936
L11.1548 184.3555
" />
<path d="M11.1548 184.3555
L11.2786 184.4793
" />
<path d="M11.2786 184.4793
L11.3405 184.6031
" />
<path d="M11.3405 184.6031
L11.4024 184.8507
" />
<path d="M11.4024 184.8507
L11.4024 185.0365
" />
<path d="M11.4024 185.0365
L11.3405 185.2841
" />
<path d="M11.3405 185.2841
L11.2786 185.4079
" />
<path d="M11.2786 185.4079
L11.1548 185.5317
" />
<path d="M11.1548 185.5317
L10.9690 185.5936
" />
<path d="M10.9690 185.5936
L10.6595 185.5936
" />
</g><path d="M287.0022 60.0000
L285.0022 60.0000
" />
<path d="M287.0022 110.0000
L285.0022 110.0000
" />
<path d="M287.0022 160.0000
L285.0022 160.0000
" />
<text x="286.0022" y="35.6500"
textLength="1.3043" font-size="1.7333" lengthAdjust="spacingAndGlyphs"
text-anchor="middle" opacity="0" stroke-opacity="0">A</text>
<g class="stroked-text"><desc>A</desc>
<path d="M285.6927 35.2222
L286.3117 35.2222
" />
<path d="M285.5689 35.5936
L286.0022 34.2936
" />
<path d="M286.0022 34.2936
L286.4355 35.5936
" />
</g><text x="286.0022" y="85.6500"
textLength="1.4900" font-size="1.7333" lengthAdjust="spacingAndGlyphs"
text-anchor="middle" opacity="0" stroke-opacity="0">B</text>
<g class="stroked-text"><desc>B</desc>
<path d="M286.0951 84.9127
L286.2808 84.9746
" />
<path d="M286.2808 84.9746
L286.3427 85.0365
" />
<path d="M286.3427 85.0365
L286.4046 85.1603
" />
<path d="M286.4046 85.1603
L286.4046 85.3460
" />
<path d="M286.4046 85.3460
L286.3427 85.4698
" />
<path d="M286.3427 85.4698
L286.2808 85.5317
" />
<path d="M286.2808 85.5317
L286.1570 85.5936
" />
<path d="M286.1570 85.5936
L285.6617 85.5936
" />
<path d="M285.6617 85.5936
L285.6617 84.2936
" />
<path d="M285.6617 84.2936
L286.0951 84.2936
" />
<path d="M286.0951 84.2936
L286.2189 84.3555
" />
<path d="M286.2189 84.3555
L286.2808 84.4174
" />
<path d="M286.2808 84.4174
L286.3427 84.5412
" />
<path d="M286.3427 84.5412
L286.3427 84.6650
" />
<path d="M286.3427 84.6650
L286.2808 84.7888
" />
<path d="M286.2808 84.7888
L286.2189 84.8507
" />
<path d="M286.2189 84.8507
L286.0951 84.9127
" />
<path d="M286.0951 84.9127
L285.6617 84.9127
" />
</g><text x="286.0022" y="135.6500"
textLength="1.4900" font-size="1.7333" lengthAdjust="spacingAndGlyphs"
text-anchor="middle" opacity="0" stroke-opacity="0">C</text>
<g class="stroked-text"><desc>C</desc>
<path d="M286.4046 135.4698
L286.3427 135.5317
" />
<path d="M286.3427 135.5317
L286.1570 135.5936
" />
<path d="M286.1570 135.5936
L286.0332 135.5936
" />
<path d="M286.0332 135.5936
L285.8474 135.5317
" />
<path d="M285.8474 135.5317
L285.7236 135.4079
" />
<path d="M285.7236 135.4079
L285.6617 135.2841
" />
<path d="M285.6617 135.2841
L285.5998 135.0365
" />
<path d="M285.5998 135.0365
L285.5998 134.8507
" />
<path d="M285.5998 134.8507
L285.6617 134.6031
" />
<path d="M285.6617 134.6031
L285.7236 134.4793
" />
<path d="M285.7236 134.4793
L285.8474 134.3555
" />
<path d="M285.8474 134.3555
L286.0332 134.2936
" />
<path d="M286.0332 134.2936
L286.1570 134.2936
" />
<path d="M286.1570 134.2936
L286.3427 134.3555
" />
<path d="M286.3427 134.3555
L286.4046 134.4174
" />
</g><text x="286.0022" y="185.6500"
textLength="1.4900" font-size="1.7333" lengthAdjust="spacingAndGlyphs"
text-anchor="middle" opacity="0" stroke-opacity="0">D</text>
<g class="stroked-text"><desc>D</desc>
<path d="M285.6617 185.5936
L285.6617 184.2936
" />
<path d="M285.6617 184.2936
L285.9712 184.2936
" />
<path d="M285.9712 184.2936
L286.1570 184.3555
" />
<path d="M286.1570 184.3555
L286.2808 184.4793
" />
<path d="M286.2808 184.4793
L286.3427 184.6031
" />
<path d="M286.3427 184.6031
L286.4046 184.8507
" />
<path d="M286.4046 184.8507
L286.4046 185.0365
" />
<path d="M286.4046 185.0365
L286.3427 185.2841
" />
<path d="M286.3427 185.2841
L286.2808 185.4079
" />
<path d="M286.2808 185.4079
L286.1570 185.5317
" />
<path d="M286.1570 185.5317
L285.9712 185.5936
" />
<path d="M285.9712 185.5936
L285.6617 185.5936
" />
</g><text x="200.0022" y="193.8572"
textLength="7.0071" font-size="2.0000" lengthAdjust="spacingAndGlyphs"
text-anchor="start" opacity="0" stroke-opacity="0">Date: </text>
<g class="stroked-text"><desc>Date: </desc>
<path d="M200.4580 193.7933
L200.4580 192.2933
" />
<path d="M200.4580 192.2933
L200.8152 192.2933
" />
<path d="M200.8152 192.2933
L201.0295 192.3648
" />
<path d="M201.0295 192.3648
L201.1723 192.5076
" />
<path d="M201.1723 192.5076
L201.2437 192.6505
" />
<path d="M201.2437 192.6505
L201.3152 192.9362
" />
<path d="M201.3152 192.9362
L201.3152 193.1505
" />
<path d="M201.3152 193.1505
L201.2437 193.4362
" />
<path d="M201.2437 193.4362
L201.1723 193.5790
" />
<path d="M201.1723 193.5790
L201.0295 193.7219
" />
<path d="M201.0295 193.7219
L200.8152 193.7933
" />
<path d="M200.8152 193.7933
L200.4580 193.7933
" />
<path d="M202.6009 193.7933
L202.6009 193.0076
" />
<path d="M202.6009 193.0076
L202.5295 192.8648
" />
<path d="M202.5295 192.8648
L202.3866 192.7933
" />
<path d="M202.3866 192.7933
L202.1009 192.7933
" />
<path d="M202.1009 192.7933
L201.9580 192.8648
" />
<path d="M202.6009 193.7219
L202.4580 193.7933
" />
<path d="M202.4580 193.7933
L202.1009 193.7933
" />
<path d="M202.1009 193.7933
L201.9580 193.7219
" />
<path d="M201.9580 193.7219
L201.8866 193.5790
" />
<path d="M201.8866 193.5790
L201.8866 193.4362
" />
<path d="M201.8866 193.4362
L201.9580 193.2933
" />
<path d="M201.9580 193.2933
L202.1009 193.2219
" />
<path d="M202.1009 193.2219
L202.4580 193.2219
" />
<path d="M202.4580 193.2219
L202.6009 193.1505
" />
<path d="M203.1009 192.7933
L203.6723 192.7933
" />
<path d="M203.3152 192.2933
L203.3152 193.5790
" />
<path d="M203.3152 193.5790
L203.3866 193.7219
" />
<path d="M203.3866 193.7219
L203.5295 193.7933
" />
<path d="M203.5295 193.7933
L203.6723 193.7933
" />
<path d="M204.7437 193.7219
L204.6009 193.7933
" />
<path d="M204.6009 193.7933
L204.3152 193.7933
" />
<path d="M204.3152 193.7933
L204.1723 193.7219
" />
<path d="M204.1723 193.7219
L204.1009 193.5790
" />
<path d="M204.1009 193.5790
L204.1009 193.0076
" />
<path d="M204.1009 193.0076
L204.1723 192.8648
" />
<path d="M204.1723 192.8648
L204.3152 192.7933
" />
<path d="M204.3152 192.7933
L204.6009 192.7933
" />
<path d="M204.6009 192.7933
L204.7437 192.8648
" />
<path d="M204.7437 192.8648
L204.8152 193.0076
" />
<path d="M204.8152 193.0076
L204.8152 193.1505
" />
<path d="M204.8152 193.1505
L204.1009 193.2933
" />
<path d="M205.4580 193.6505
L205.5295 193.7219
" />
<path d="M205.5295 193.7219
L205.4580 193.7933
" />
<path d="M205.4580 193.7933
L205.3866 193.7219
" />
<path d="M205.3866 193.7219
L205.4580 193.6505
" />
<path d="M205.4580 193.6505
L205.4580 193.7933
" />
<path d="M205.4580 192.8648
L205.5295 192.9362
" />
<path d="M205.5295 192.9362
L205.4580 193.0076
" />
<path d="M205.4580 193.0076
L205.3866 192.9362
" />
<path d="M205.3866 192.9362
L205.4580 192.8648
" />
<path d="M205.4580 192.8648
L205.4580 193.0076
" />
</g><path d="M177.0022 194.5072
L285.0022 194.5072
" />
<text x="178.0022" y="196.6572"
textLength="22.2929" font-size="2.0000" lengthAdjust="spacingAndGlyphs"
text-anchor="start" opacity="0" stroke-opacity="0">KiCad E.D.A. 10.0.3</text>
<g class="stroked-text"><desc>KiCad E.D.A. 10.0.3</desc>
<path d="M178.4580 196.5933
L178.4580 195.0933
" />
<path d="M179.3152 196.5933
L178.6723 195.7362
" />
<path d="M179.3152 195.0933
L178.4580 195.9505
" />
<path d="M179.9580 196.5933
L179.9580 195.5933
" />
<path d="M179.9580 195.0933
L179.8866 195.1648
" />
<path d="M179.8866 195.1648
L179.9580 195.2362
" />
<path d="M179.9580 195.2362
L180.0295 195.1648
" />
<path d="M180.0295 195.1648
L179.9580 195.0933
" />
<path d="M179.9580 195.0933
L179.9580 195.2362
" />
<path d="M181.5295 196.4505
L181.4580 196.5219
" />
<path d="M181.4580 196.5219
L181.2437 196.5933
" />
<path d="M181.2437 196.5933
L181.1009 196.5933
" />
<path d="M181.1009 196.5933
L180.8866 196.5219
" />
<path d="M180.8866 196.5219
L180.7437 196.3790
" />
<path d="M180.7437 196.3790
L180.6723 196.2362
" />
<path d="M180.6723 196.2362
L180.6009 195.9505
" />
<path d="M180.6009 195.9505
L180.6009 195.7362
" />
<path d="M180.6009 195.7362
L180.6723 195.4505
" />
<path d="M180.6723 195.4505
L180.7437 195.3076
" />
<path d="M180.7437 195.3076
L180.8866 195.1648
" />
<path d="M180.8866 195.1648
L181.1009 195.0933
" />
<path d="M181.1009 195.0933
L181.2437 195.0933
" />
<path d="M181.2437 195.0933
L181.4580 195.1648
" />
<path d="M181.4580 195.1648
L181.5295 195.2362
" />
<path d="M182.8152 196.5933
L182.8152 195.8076
" />
<path d="M182.8152 195.8076
L182.7437 195.6648
" />
<path d="M182.7437 195.6648
L182.6009 195.5933
" />
<path d="M182.6009 195.5933
L182.3152 195.5933
" />
<path d="M182.3152 195.5933
L182.1723 195.6648
" />
<path d="M182.8152 196.5219
L182.6723 196.5933
" />
<path d="M182.6723 196.5933
L182.3152 196.5933
" />
<path d="M182.3152 196.5933
L182.1723 196.5219
" />
<path d="M182.1723 196.5219
L182.1009 196.3790
" />
<path d="M182.1009 196.3790
L182.1009 196.2362
" />
<path d="M182.1009 196.2362
L182.1723 196.0933
" />
<path d="M182.1723 196.0933
L182.3152 196.0219
" />
<path d="M182.3152 196.0219
L182.6723 196.0219
" />
<path d="M182.6723 196.0219
L182.8152 195.9505
" />
<path d="M184.1723 196.5933
L184.1723 195.0933
" />
<path d="M184.1723 196.5219
L184.0295 196.5933
" />
<path d="M184.0295 196.5933
L183.7437 196.5933
" />
<path d="M183.7437 196.5933
L183.6009 196.5219
" />
<path d="M183.6009 196.5219
L183.5295 196.4505
" />
<path d="M183.5295 196.4505
L183.4580 196.3076
" />
<path d="M183.4580 196.3076
L183.4580 195.8790
" />
<path d="M183.4580 195.8790
L183.5295 195.7362
" />
<path d="M183.5295 195.7362
L183.6009 195.6648
" />
<path d="M183.6009 195.6648
L183.7437 195.5933
" />
<path d="M183.7437 195.5933
L184.0295 195.5933
" />
<path d="M184.0295 195.5933
L184.1723 195.6648
" />
<path d="M186.0295 195.8076
L186.5295 195.8076
" />
<path d="M186.7437 196.5933
L186.0295 196.5933
" />
<path d="M186.0295 196.5933
L186.0295 195.0933
" />
<path d="M186.0295 195.0933
L186.7437 195.0933
" />
<path d="M187.3866 196.4505
L187.4580 196.5219
" />
<path d="M187.4580 196.5219
L187.3866 196.5933
" />
<path d="M187.3866 196.5933
L187.3152 196.5219
" />
<path d="M187.3152 196.5219
L187.3866 196.4505
" />
<path d="M187.3866 196.4505
L187.3866 196.5933
" />
<path d="M188.1009 196.5933
L188.1009 195.0933
" />
<path d="M188.1009 195.0933
L188.4580 195.0933
" />
<path d="M188.4580 195.0933
L188.6723 195.1648
" />
<path d="M188.6723 195.1648
L188.8152 195.3076
" />
<path d="M188.8152 195.3076
L188.8866 195.4505
" />
<path d="M188.8866 195.4505
L188.9580 195.7362
" />
<path d="M188.9580 195.7362
L188.9580 195.9505
" />
<path d="M188.9580 195.9505
L188.8866 196.2362
" />
<path d="M188.8866 196.2362
L188.8152 196.3790
" />
<path d="M188.8152 196.3790
L188.6723 196.5219
" />
<path d="M188.6723 196.5219
L188.4580 196.5933
" />
<path d="M188.4580 196.5933
L188.1009 196.5933
" />
<path d="M189.6009 196.4505
L189.6723 196.5219
" />
<path d="M189.6723 196.5219
L189.6009 196.5933
" />
<path d="M189.6009 196.5933
L189.5295 196.5219
" />
<path d="M189.5295 196.5219
L189.6009 196.4505
" />
<path d="M189.6009 196.4505
L189.6009 196.5933
" />
<path d="M190.2437 196.1648
L190.9580 196.1648
" />
<path d="M190.1009 196.5933
L190.6009 195.0933
" />
<path d="M190.6009 195.0933
L191.1009 196.5933
" />
<path d="M191.6009 196.4505
L191.6723 196.5219
" />
<path d="M191.6723 196.5219
L191.6009 196.5933
" />
<path d="M191.6009 196.5933
L191.5295 196.5219
" />
<path d="M191.5295 196.5219
L191.6009 196.4505
" />
<path d="M191.6009 196.4505
L191.6009 196.5933
" />
<path d="M194.2437 196.5933
L193.3866 196.5933
" />
<path d="M193.8152 196.5933
L193.8152 195.0933
" />
<path d="M193.8152 195.0933
L193.6723 195.3076
" />
<path d="M193.6723 195.3076
L193.5295 195.4505
" />
<path d="M193.5295 195.4505
L193.3866 195.5219
" />
<path d="M195.1723 195.0933
L195.3152 195.0933
" />
<path d="M195.3152 195.0933
L195.4580 195.1648
" />
<path d="M195.4580 195.1648
L195.5295 195.2362
" />
<path d="M195.5295 195.2362
L195.6009 195.3790
" />
<path d="M195.6009 195.3790
L195.6723 195.6648
" />
<path d="M195.6723 195.6648
L195.6723 196.0219
" />
<path d="M195.6723 196.0219
L195.6009 196.3076
" />
<path d="M195.6009 196.3076
L195.5295 196.4505
" />
<path d="M195.5295 196.4505
L195.4580 196.5219
" />
<path d="M195.4580 196.5219
L195.3152 196.5933
" />
<path d="M195.3152 196.5933
L195.1723 196.5933
" />
<path d="M195.1723 196.5933
L195.0295 196.5219
" />
<path d="M195.0295 196.5219
L194.9580 196.4505
" />
<path d="M194.9580 196.4505
L194.8866 196.3076
" />
<path d="M194.8866 196.3076
L194.8152 196.0219
" />
<path d="M194.8152 196.0219
L194.8152 195.6648
" />
<path d="M194.8152 195.6648
L194.8866 195.3790
" />
<path d="M194.8866 195.3790
L194.9580 195.2362
" />
<path d="M194.9580 195.2362
L195.0295 195.1648
" />
<path d="M195.0295 195.1648
L195.1723 195.0933
" />
<path d="M196.3152 196.4505
L196.3866 196.5219
" />
<path d="M196.3866 196.5219
L196.3152 196.5933
" />
<path d="M196.3152 196.5933
L196.2437 196.5219
" />
<path d="M196.2437 196.5219
L196.3152 196.4505
" />
<path d="M196.3152 196.4505
L196.3152 196.5933
" />
<path d="M197.3152 195.0933
L197.4580 195.0933
" />
<path d="M197.4580 195.0933
L197.6009 195.1648
" />
<path d="M197.6009 195.1648
L197.6723 195.2362
" />
<path d="M197.6723 195.2362
L197.7437 195.3790
" />
<path d="M197.7437 195.3790
L197.8152 195.6648
" />
<path d="M197.8152 195.6648
L197.8152 196.0219
" />
<path d="M197.8152 196.0219
L197.7437 196.3076
" />
<path d="M197.7437 196.3076
L197.6723 196.4505
" />
<path d="M197.6723 196.4505
L197.6009 196.5219
" />
<path d="M197.6009 196.5219
L197.4580 196.5933
" />
<path d="M197.4580 196.5933
L197.3152 196.5933
" />
<path d="M197.3152 196.5933
L197.1723 196.5219
" />
<path d="M197.1723 196.5219
L197.1009 196.4505
" />
<path d="M197.1009 196.4505
L197.0295 196.3076
" />
<path d="M197.0295 196.3076
L196.9580 196.0219
" />
<path d="M196.9580 196.0219
L196.9580 195.6648
" />
<path d="M196.9580 195.6648
L197.0295 195.3790
" />
<path d="M197.0295 195.3790
L197.1009 195.2362
" />
<path d="M197.1009 195.2362
L197.1723 195.1648
" />
<path d="M197.1723 195.1648
L197.3152 195.0933
" />
<path d="M198.4580 196.4505
L198.5295 196.5219
" />
<path d="M198.5295 196.5219
L198.4580 196.5933
" />
<path d="M198.4580 196.5933
L198.3866 196.5219
" />
<path d="M198.3866 196.5219
L198.4580 196.4505
" />
<path d="M198.4580 196.4505
L198.4580 196.5933
" />
<path d="M199.0295 195.0933
L199.9580 195.0933
" />
<path d="M199.9580 195.0933
L199.4580 195.6648
" />
<path d="M199.4580 195.6648
L199.6723 195.6648
" />
<path d="M199.6723 195.6648
L199.8152 195.7362
" />
<path d="M199.8152 195.7362
L199.8866 195.8076
" />
<path d="M199.8866 195.8076
L199.9580 195.9505
" />
<path d="M199.9580 195.9505
L199.9580 196.3076
" />
<path d="M199.9580 196.3076
L199.8866 196.4505
" />
<path d="M199.8866 196.4505
L199.8152 196.5219
" />
<path d="M199.8152 196.5219
L199.6723 196.5933
" />
<path d="M199.6723 196.5933
L199.2437 196.5933
" />
<path d="M199.2437 196.5933
L199.1009 196.5219
" />
<path d="M199.1009 196.5219
L199.0295 196.4505
" />
</g><path d="M177.0022 191.5072
L285.0022 191.5072
" />
</g>
<g style="fill:none; 
stroke:#C872AB; stroke-width:0.3000; stroke-opacity:1; 
stroke-linecap:round; stroke-linejoin:round;">
<text x="263.0022" y="193.8572"
textLength="6.3857" font-size="2.0000" lengthAdjust="spacingAndGlyphs"
text-anchor="start" opacity="0" stroke-opacity="0">Rev: </text>
<g class="stroked-text"><desc>Rev: </desc>
<path d="M264.4139 193.7855
L263.9139 193.0712
" />
<path d="M263.5567 193.7855
L263.5567 192.2855
" />
<path d="M263.5567 192.2855
L264.1281 192.2855
" />
<path d="M264.1281 192.2855
L264.2710 192.3570
" />
<path d="M264.2710 192.3570
L264.3424 192.4284
" />
<path d="M264.3424 192.4284
L264.4139 192.5712
" />
<path d="M264.4139 192.5712
L264.4139 192.7855
" />
<path d="M264.4139 192.7855
L264.3424 192.9284
" />
<path d="M264.3424 192.9284
L264.2710 192.9998
" />
<path d="M264.2710 192.9998
L264.1281 193.0712
" />
<path d="M264.1281 193.0712
L263.5567 193.0712
" />
<path d="M265.6281 193.7141
L265.4853 193.7855
" />
<path d="M265.4853 193.7855
L265.1996 193.7855
" />
<path d="M265.1996 193.7855
L265.0567 193.7141
" />
<path d="M265.0567 193.7141
L264.9853 193.5712
" />
<path d="M264.9853 193.5712
L264.9853 192.9998
" />
<path d="M264.9853 192.9998
L265.0567 192.8570
" />
<path d="M265.0567 192.8570
L265.1996 192.7855
" />
<path d="M265.1996 192.7855
L265.4853 192.7855
" />
<path d="M265.4853 192.7855
L265.6281 192.8570
" />
<path d="M265.6281 192.8570
L265.6996 192.9998
" />
<path d="M265.6996 192.9998
L265.6996 193.1427
" />
<path d="M265.6996 193.1427
L264.9853 193.2855
" />
<path d="M266.1996 192.7855
L266.5567 193.7855
" />
<path d="M266.5567 193.7855
L266.9139 192.7855
" />
<path d="M267.4853 193.6427
L267.5567 193.7141
" />
<path d="M267.5567 193.7141
L267.4853 193.7855
" />
<path d="M267.4853 193.7855
L267.4139 193.7141
" />
<path d="M267.4139 193.7141
L267.4853 193.6427
" />
<path d="M267.4853 193.6427
L267.4853 193.7855
" />
<path d="M267.4853 192.8570
L267.5567 192.9284
" />
<path d="M267.5567 192.9284
L267.4853 192.9998
" />
<path d="M267.4853 192.9998
L267.4139 192.9284
" />
<path d="M267.4139 192.9284
L267.4853 192.8570
" />
<path d="M267.4853 192.8570
L267.4853 192.9998
" />
</g></g>
<g style="fill:none; 
stroke:#C872AB; stroke-width:0.1500; stroke-opacity:1; 
stroke-linecap:round; stroke-linejoin:round;">
<text x="178.0022" y="193.8572"
textLength="9.3643" font-size="2.0000" lengthAdjust="spacingAndGlyphs"
text-anchor="start" opacity="0" stroke-opacity="0">Size: A4</text>
<g class="stroked-text"><desc>Size: A4</desc>
<path d="M178.3866 193.7219
L178.6009 193.7933
" />
<path d="M178.6009 193.7933
L178.9580 193.7933
" />
<path d="M178.9580 193.7933
L179.1009 193.7219
" />
<path d="M179.1009 193.7219
L179.1723 193.6505
" />
<path d="M179.1723 193.6505
L179.2437 193.5076
" />
<path d="M179.2437 193.5076
L179.2437 193.3648
" />
<path d="M179.2437 193.3648
L179.1723 193.2219
" />
<path d="M179.1723 193.2219
L179.1009 193.1505
" />
<path d="M179.1009 193.1505
L178.9580 193.0790
" />
<path d="M178.9580 193.0790
L178.6723 193.0076
" />
<path d="M178.6723 193.0076
L178.5295 192.9362
" />
<path d="M178.5295 192.9362
L178.4580 192.8648
" />
<path d="M178.4580 192.8648
L178.3866 192.7219
" />
<path d="M178.3866 192.7219
L178.3866 192.5790
" />
<path d="M178.3866 192.5790
L178.4580 192.4362
" />
<path d="M178.4580 192.4362
L178.5295 192.3648
" />
<path d="M178.5295 192.3648
L178.6723 192.2933
" />
<path d="M178.6723 192.2933
L179.0295 192.2933
" />
<path d="M179.0295 192.2933
L179.2437 192.3648
" />
<path d="M179.8866 193.7933
L179.8866 192.7933
" />
<path d="M179.8866 192.2933
L179.8152 192.3648
" />
<path d="M179.8152 192.3648
L179.8866 192.4362
" />
<path d="M179.8866 192.4362
L179.9580 192.3648
" />
<path d="M179.9580 192.3648
L179.8866 192.2933
" />
<path d="M179.8866 192.2933
L179.8866 192.4362
" />
<path d="M180.4580 192.7933
L181.2437 192.7933
" />
<path d="M181.2437 192.7933
L180.4580 193.7933
" />
<path d="M180.4580 193.7933
L181.2437 193.7933
" />
<path d="M182.3866 193.7219
L182.2437 193.7933
" />
<path d="M182.2437 193.7933
L181.9580 193.7933
" />
<path d="M181.9580 193.7933
L181.8152 193.7219
" />
<path d="M181.8152 193.7219
L181.7437 193.5790
" />
<path d="M181.7437 193.5790
L181.7437 193.0076
" />
<path d="M181.7437 193.0076
L181.8152 192.8648
" />
<path d="M181.8152 192.8648
L181.9580 192.7933
" />
<path d="M181.9580 192.7933
L182.2437 192.7933
" />
<path d="M182.2437 192.7933
L182.3866 192.8648
" />
<path d="M182.3866 192.8648
L182.4580 193.0076
" />
<path d="M182.4580 193.0076
L182.4580 193.1505
" />
<path d="M182.4580 193.1505
L181.7437 193.2933
" />
<path d="M183.1009 193.6505
L183.1723 193.7219
" />
<path d="M183.1723 193.7219
L183.1009 193.7933
" />
<path d="M183.1009 193.7933
L183.0295 193.7219
" />
<path d="M183.0295 193.7219
L183.1009 193.6505
" />
<path d="M183.1009 193.6505
L183.1009 193.7933
" />
<path d="M183.1009 192.8648
L183.1723 192.9362
" />
<path d="M183.1723 192.9362
L183.1009 193.0076
" />
<path d="M183.1009 193.0076
L183.0295 192.9362
" />
<path d="M183.0295 192.9362
L183.1009 192.8648
" />
<path d="M183.1009 192.8648
L183.1009 193.0076
" />
<path d="M184.8866 193.3648
L185.6009 193.3648
" />
<path d="M184.7437 193.7933
L185.2437 192.2933
" />
<path d="M185.2437 192.2933
L185.7437 193.7933
" />
<path d="M186.8866 192.7933
L186.8866 193.7933
" />
<path d="M186.5295 192.2219
L186.1723 193.2933
" />
<path d="M186.1723 193.2933
L187.1009 193.2933
" />
</g><text x="263.0022" y="196.6572"
textLength="8.5071" font-size="2.0000" lengthAdjust="spacingAndGlyphs"
text-anchor="start" opacity="0" stroke-opacity="0">Id: 1/1</text>
<g class="stroked-text"><desc>Id: 1/1</desc>
<path d="M263.4580 196.5933
L263.4580 195.0933
" />
<path d="M264.8152 196.5933
L264.8152 195.0933
" />
<path d="M264.8152 196.5219
L264.6723 196.5933
" />
<path d="M264.6723 196.5933
L264.3866 196.5933
" />
<path d="M264.3866 196.5933
L264.2437 196.5219
" />
<path d="M264.2437 196.5219
L264.1723 196.4505
" />
<path d="M264.1723 196.4505
L264.1009 196.3076
" />
<path d="M264.1009 196.3076
L264.1009 195.8790
" />
<path d="M264.1009 195.8790
L264.1723 195.7362
" />
<path d="M264.1723 195.7362
L264.2437 195.6648
" />
<path d="M264.2437 195.6648
L264.3866 195.5933
" />
<path d="M264.3866 195.5933
L264.6723 195.5933
" />
<path d="M264.6723 195.5933
L264.8152 195.6648
" />
<path d="M265.5295 196.4505
L265.6009 196.5219
" />
<path d="M265.6009 196.5219
L265.5295 196.5933
" />
<path d="M265.5295 196.5933
L265.4580 196.5219
" />
<path d="M265.4580 196.5219
L265.5295 196.4505
" />
<path d="M265.5295 196.4505
L265.5295 196.5933
" />
<path d="M265.5295 195.6648
L265.6009 195.7362
" />
<path d="M265.6009 195.7362
L265.5295 195.8076
" />
<path d="M265.5295 195.8076
L265.4580 195.7362
" />
<path d="M265.4580 195.7362
L265.5295 195.6648
" />
<path d="M265.5295 195.6648
L265.5295 195.8076
" />
<path d="M268.1723 196.5933
L267.3152 196.5933
" />
<path d="M267.7437 196.5933
L267.7437 195.0933
" />
<path d="M267.7437 195.0933
L267.6009 195.3076
" />
<path d="M267.6009 195.3076
L267.4580 195.4505
" />
<path d="M267.4580 195.4505
L267.3152 195.5219
" />
<path d="M269.8866 195.0219
L268.6009 196.9505
" />
<path d="M271.1723 196.5933
L270.3152 196.5933
" />
<path d="M270.7437 196.5933
L270.7437 195.0933
" />
<path d="M270.7437 195.0933
L270.6009 195.3076
" />
<path d="M270.6009 195.3076
L270.4580 195.4505
" />
<path d="M270.4580 195.4505
L270.3152 195.5219
" />
</g><path d="M177.0022 187.5072
L285.0022 187.5072
" />
</g>
<g style="fill:none; 
stroke:#C872AB; stroke-width:0.4000; stroke-opacity:1; 
stroke-linecap:round; stroke-linejoin:round;">
<text x="178.0022" y="190.3072"
textLength="9.6571" font-size="2.6667" lengthAdjust="spacingAndGlyphs"
text-anchor="start" opacity="0" stroke-opacity="0">Title: </text>
<g class="stroked-text"><desc>Title: </desc>
<path d="M178.6939 188.2116
L179.8368 188.2116
" />
<path d="M179.0154 190.2116
L179.2654 188.2116
" />
<path d="M180.2535 190.2116
L180.4201 188.8783
" />
<path d="M180.5035 188.2116
L180.3963 188.3069
" />
<path d="M180.3963 188.3069
L180.4796 188.4021
" />
<path d="M180.4796 188.4021
L180.5868 188.3069
" />
<path d="M180.5868 188.3069
L180.5035 188.2116
" />
<path d="M180.5035 188.2116
L180.4796 188.4021
" />
<path d="M181.0868 188.8783
L181.8487 188.8783
" />
<path d="M181.4558 188.2116
L181.2415 189.9259
" />
<path d="M181.2415 189.9259
L181.3130 190.1164
" />
<path d="M181.3130 190.1164
L181.4915 190.2116
" />
<path d="M181.4915 190.2116
L181.6820 190.2116
" />
<path d="M182.6344 190.2116
L182.4558 190.1164
" />
<path d="M182.4558 190.1164
L182.3844 189.9259
" />
<path d="M182.3844 189.9259
L182.5987 188.2116
" />
<path d="M184.1701 190.1164
L183.9677 190.2116
" />
<path d="M183.9677 190.2116
L183.5868 190.2116
" />
<path d="M183.5868 190.2116
L183.4082 190.1164
" />
<path d="M183.4082 190.1164
L183.3368 189.9259
" />
<path d="M183.3368 189.9259
L183.4320 189.1640
" />
<path d="M183.4320 189.1640
L183.5511 188.9735
" />
<path d="M183.5511 188.9735
L183.7535 188.8783
" />
<path d="M183.7535 188.8783
L184.1344 188.8783
" />
<path d="M184.1344 188.8783
L184.3130 188.9735
" />
<path d="M184.3130 188.9735
L184.3844 189.1640
" />
<path d="M184.3844 189.1640
L184.3606 189.3545
" />
<path d="M184.3606 189.3545
L183.3844 189.5450
" />
<path d="M185.1344 190.0212
L185.2177 190.1164
" />
<path d="M185.2177 190.1164
L185.1106 190.2116
" />
<path d="M185.1106 190.2116
L185.0273 190.1164
" />
<path d="M185.0273 190.1164
L185.1344 190.0212
" />
<path d="M185.1344 190.0212
L185.1106 190.2116
" />
<path d="M185.2654 188.9735
L185.3487 189.0688
" />
<path d="M185.3487 189.0688
L185.2415 189.1640
" />
<path d="M185.2415 189.1640
L185.1582 189.0688
" />
<path d="M185.1582 189.0688
L185.2654 188.9735
" />
<path d="M185.2654 188.9735
L185.2415 189.1640
" />
</g></g>
<g style="fill:none; 
stroke:#C872AB; stroke-width:0.1500; stroke-opacity:1; 
stroke-linecap:round; stroke-linejoin:round;">
<text x="178.0022" y="186.4572"
textLength="27.5786" font-size="2.0000" lengthAdjust="spacingAndGlyphs"
text-anchor="start" opacity="0" stroke-opacity="0">File: fpga_tile.kicad_pcb</text>
<g class="stroked-text"><desc>File: fpga_tile.kicad_pcb</desc>
<path d="M178.9580 185.6076
L178.4580 185.6076
" />
<path d="M178.4580 186.3933
L178.4580 184.8933
" />
<path d="M178.4580 184.8933
L179.1723 184.8933
" />
<path d="M179.7437 186.3933
L179.7437 185.3933
" />
<path d="M179.7437 184.8933
L179.6723 184.9648
" />
<path d="M179.6723 184.9648
L179.7437 185.0362
" />
<path d="M179.7437 185.0362
L179.8152 184.9648
" />
<path d="M179.8152 184.9648
L179.7437 184.8933
" />
<path d="M179.7437 184.8933
L179.7437 185.0362
" />
<path d="M180.6723 186.3933
L180.5295 186.3219
" />
<path d="M180.5295 186.3219
L180.4580 186.1790
" />
<path d="M180.4580 186.1790
L180.4580 184.8933
" />
<path d="M181.8152 186.3219
L181.6723 186.3933
" />
<path d="M181.6723 186.3933
L181.3866 186.3933
" />
<path d="M181.3866 186.3933
L181.2437 186.3219
" />
<path d="M181.2437 186.3219
L181.1723 186.1790
" />
<path d="M181.1723 186.1790
L181.1723 185.6076
" />
<path d="M181.1723 185.6076
L181.2437 185.4648
" />
<path d="M181.2437 185.4648
L181.3866 185.3933
" />
<path d="M181.3866 185.3933
L181.6723 185.3933
" />
<path d="M181.6723 185.3933
L181.8152 185.4648
" />
<path d="M181.8152 185.4648
L181.8866 185.6076
" />
<path d="M181.8866 185.6076
L181.8866 185.7505
" />
<path d="M181.8866 185.7505
L181.1723 185.8933
" />
<path d="M182.5295 186.2505
L182.6009 186.3219
" />
<path d="M182.6009 186.3219
L182.5295 186.3933
" />
<path d="M182.5295 186.3933
L182.4580 186.3219
" />
<path d="M182.4580 186.3219
L182.5295 186.2505
" />
<path d="M182.5295 186.2505
L182.5295 186.3933
" />
<path d="M182.5295 185.4648
L182.6009 185.5362
" />
<path d="M182.6009 185.5362
L182.5295 185.6076
" />
<path d="M182.5295 185.6076
L182.4580 185.5362
" />
<path d="M182.4580 185.5362
L182.5295 185.4648
" />
<path d="M182.5295 185.4648
L182.5295 185.6076
" />
<path d="M184.1723 185.3933
L184.7437 185.3933
" />
<path d="M184.3866 186.3933
L184.3866 185.1076
" />
<path d="M184.3866 185.1076
L184.4580 184.9648
" />
<path d="M184.4580 184.9648
L184.6009 184.8933
" />
<path d="M184.6009 184.8933
L184.7437 184.8933
" />
<path d="M185.2437 185.3933
L185.2437 186.8933
" />
<path d="M185.2437 185.4648
L185.3866 185.3933
" />
<path d="M185.3866 185.3933
L185.6723 185.3933
" />
<path d="M185.6723 185.3933
L185.8152 185.4648
" />
<path d="M185.8152 185.4648
L185.8866 185.5362
" />
<path d="M185.8866 185.5362
L185.9580 185.6790
" />
<path d="M185.9580 185.6790
L185.9580 186.1076
" />
<path d="M185.9580 186.1076
L185.8866 186.2505
" />
<path d="M185.8866 186.2505
L185.8152 186.3219
" />
<path d="M185.8152 186.3219
L185.6723 186.3933
" />
<path d="M185.6723 186.3933
L185.3866 186.3933
" />
<path d="M185.3866 186.3933
L185.2437 186.3219
" />
<path d="M187.2437 185.3933
L187.2437 186.6076
" />
<path d="M187.2437 186.6076
L187.1723 186.7505
" />
<path d="M187.1723 186.7505
L187.1009 186.8219
" />
<path d="M187.1009 186.8219
L186.9580 186.8933
" />
<path d="M186.9580 186.8933
L186.7437 186.8933
" />
<path d="M186.7437 186.8933
L186.6009 186.8219
" />
<path d="M187.2437 186.3219
L187.1009 186.3933
" />
<path d="M187.1009 186.3933
L186.8152 186.3933
" />
<path d="M186.8152 186.3933
L186.6723 186.3219
" />
<path d="M186.6723 186.3219
L186.6009 186.2505
" />
<path d="M186.6009 186.2505
L186.5295 186.1076
" />
<path d="M186.5295 186.1076
L186.5295 185.6790
" />
<path d="M186.5295 185.6790
L186.6009 185.5362
" />
<path d="M186.6009 185.5362
L186.6723 185.4648
" />
<path d="M186.6723 185.4648
L186.8152 185.3933
" />
<path d="M186.8152 185.3933
L187.1009 185.3933
" />
<path d="M187.1009 185.3933
L187.2437 185.4648
" />
<path d="M188.6009 186.3933
L188.6009 185.6076
" />
<path d="M188.6009 185.6076
L188.5295 185.4648
" />
<path d="M188.5295 185.4648
L188.3866 185.3933
" />
<path d="M188.3866 185.3933
L188.1009 185.3933
" />
<path d="M188.1009 185.3933
L187.9580 185.4648
" />
<path d="M188.6009 186.3219
L188.4580 186.3933
" />
<path d="M188.4580 186.3933
L188.1009 186.3933
" />
<path d="M188.1009 186.3933
L187.9580 186.3219
" />
<path d="M187.9580 186.3219
L187.8866 186.1790
" />
<path d="M187.8866 186.1790
L187.8866 186.0362
" />
<path d="M187.8866 186.0362
L187.9580 185.8933
" />
<path d="M187.9580 185.8933
L188.1009 185.8219
" />
<path d="M188.1009 185.8219
L188.4580 185.8219
" />
<path d="M188.4580 185.8219
L188.6009 185.7505
" />
<path d="M188.9580 186.5362
L190.1009 186.5362
" />
<path d="M190.2437 185.3933
L190.8152 185.3933
" />
<path d="M190.4580 184.8933
L190.4580 186.1790
" />
<path d="M190.4580 186.1790
L190.5295 186.3219
" />
<path d="M190.5295 186.3219
L190.6723 186.3933
" />
<path d="M190.6723 186.3933
L190.8152 186.3933
" />
<path d="M191.3152 186.3933
L191.3152 185.3933
" />
<path d="M191.3152 184.8933
L191.2437 184.9648
" />
<path d="M191.2437 184.9648
L191.3152 185.0362
" />
<path d="M191.3152 185.0362
L191.3866 184.9648
" />
<path d="M191.3866 184.9648
L191.3152 184.8933
" />
<path d="M191.3152 184.8933
L191.3152 185.0362
" />
<path d="M192.2437 186.3933
L192.1009 186.3219
" />
<path d="M192.1009 186.3219
L192.0295 186.1790
" />
<path d="M192.0295 186.1790
L192.0295 184.8933
" />
<path d="M193.3866 186.3219
L193.2437 186.3933
" />
<path d="M193.2437 186.3933
L192.9580 186.3933
" />
<path d="M192.9580 186.3933
L192.8152 186.3219
" />
<path d="M192.8152 186.3219
L192.7437 186.1790
" />
<path d="M192.7437 186.1790
L192.7437 185.6076
" />
<path d="M192.7437 185.6076
L192.8152 185.4648
" />
<path d="M192.8152 185.4648
L192.9580 185.3933
" />
<path d="M192.9580 185.3933
L193.2437 185.3933
" />
<path d="M193.2437 185.3933
L193.3866 185.4648
" />
<path d="M193.3866 185.4648
L193.4580 185.6076
" />
<path d="M193.4580 185.6076
L193.4580 185.7505
" />
<path d="M193.4580 185.7505
L192.7437 185.8933
" />
<path d="M194.1009 186.2505
L194.1723 186.3219
" />
<path d="M194.1723 186.3219
L194.1009 186.3933
" />
<path d="M194.1009 186.3933
L194.0295 186.3219
" />
<path d="M194.0295 186.3219
L194.1009 186.2505
" />
<path d="M194.1009 186.2505
L194.1009 186.3933
" />
<path d="M194.8152 186.3933
L194.8152 184.8933
" />
<path d="M194.9580 185.8219
L195.3866 186.3933
" />
<path d="M195.3866 185.3933
L194.8152 185.9648
" />
<path d="M196.0295 186.3933
L196.0295 185.3933
" />
<path d="M196.0295 184.8933
L195.9580 184.9648
" />
<path d="M195.9580 184.9648
L196.0295 185.0362
" />
<path d="M196.0295 185.0362
L196.1009 184.9648
" />
<path d="M196.1009 184.9648
L196.0295 184.8933
" />
<path d="M196.0295 184.8933
L196.0295 185.0362
" />
<path d="M197.3866 186.3219
L197.2437 186.3933
" />
<path d="M197.2437 186.3933
L196.9580 186.3933
" />
<path d="M196.9580 186.3933
L196.8152 186.3219
" />
<path d="M196.8152 186.3219
L196.7437 186.2505
" />
<path d="M196.7437 186.2505
L196.6723 186.1076
" />
<path d="M196.6723 186.1076
L196.6723 185.6790
" />
<path d="M196.6723 185.6790
L196.7437 185.5362
" />
<path d="M196.7437 185.5362
L196.8152 185.4648
" />
<path d="M196.8152 185.4648
L196.9580 185.3933
" />
<path d="M196.9580 185.3933
L197.2437 185.3933
" />
<path d="M197.2437 185.3933
L197.3866 185.4648
" />
<path d="M198.6723 186.3933
L198.6723 185.6076
" />
<path d="M198.6723 185.6076
L198.6009 185.4648
" />
<path d="M198.6009 185.4648
L198.4580 185.3933
" />
<path d="M198.4580 185.3933
L198.1723 185.3933
" />
<path d="M198.1723 185.3933
L198.0295 185.4648
" />
<path d="M198.6723 186.3219
L198.5295 186.3933
" />
<path d="M198.5295 186.3933
L198.1723 186.3933
" />
<path d="M198.1723 186.3933
L198.0295 186.3219
" />
<path d="M198.0295 186.3219
L197.9580 186.1790
" />
<path d="M197.9580 186.1790
L197.9580 186.0362
" />
<path d="M197.9580 186.0362
L198.0295 185.8933
" />
<path d="M198.0295 185.8933
L198.1723 185.8219
" />
<path d="M198.1723 185.8219
L198.5295 185.8219
" />
<path d="M198.5295 185.8219
L198.6723 185.7505
" />
<path d="M200.0295 186.3933
L200.0295 184.8933
" />
<path d="M200.0295 186.3219
L199.8866 186.3933
" />
<path d="M199.8866 186.3933
L199.6009 186.3933
" />
<path d="M199.6009 186.3933
L199.4580 186.3219
" />
<path d="M199.4580 186.3219
L199.3866 186.2505
" />
<path d="M199.3866 186.2505
L199.3152 186.1076
" />
<path d="M199.3152 186.1076
L199.3152 185.6790
" />
<path d="M199.3152 185.6790
L199.3866 185.5362
" />
<path d="M199.3866 185.5362
L199.4580 185.4648
" />
<path d="M199.4580 185.4648
L199.6009 185.3933
" />
<path d="M199.6009 185.3933
L199.8866 185.3933
" />
<path d="M199.8866 185.3933
L200.0295 185.4648
" />
<path d="M200.3866 186.5362
L201.5295 186.5362
" />
<path d="M201.8866 185.3933
L201.8866 186.8933
" />
<path d="M201.8866 185.4648
L202.0295 185.3933
" />
<path d="M202.0295 185.3933
L202.3152 185.3933
" />
<path d="M202.3152 185.3933
L202.4580 185.4648
" />
<path d="M202.4580 185.4648
L202.5295 185.5362
" />
<path d="M202.5295 185.5362
L202.6009 185.6790
" />
<path d="M202.6009 185.6790
L202.6009 186.1076
" />
<path d="M202.6009 186.1076
L202.5295 186.2505
" />
<path d="M202.5295 186.2505
L202.4580 186.3219
" />
<path d="M202.4580 186.3219
L202.3152 186.3933
" />
<path d="M202.3152 186.3933
L202.0295 186.3933
" />
<path d="M202.0295 186.3933
L201.8866 186.3219
" />
<path d="M203.8866 186.3219
L203.7437 186.3933
" />
<path d="M203.7437 186.3933
L203.4580 186.3933
" />
<path d="M203.4580 186.3933
L203.3152 186.3219
" />
<path d="M203.3152 186.3219
L203.2437 186.2505
" />
<path d="M203.2437 186.2505
L203.1723 186.1076
" />
<path d="M203.1723 186.1076
L203.1723 185.6790
" />
<path d="M203.1723 185.6790
L203.2437 185.5362
" />
<path d="M203.2437 185.5362
L203.3152 185.4648
" />
<path d="M203.3152 185.4648
L203.4580 185.3933
" />
<path d="M203.4580 185.3933
L203.7437 185.3933
" />
<path d="M203.7437 185.3933
L203.8866 185.4648
" />
<path d="M204.5295 186.3933
L204.5295 184.8933
" />
<path d="M204.5295 185.4648
L204.6723 185.3933
" />
<path d="M204.6723 185.3933
L204.9580 185.3933
" />
<path d="M204.9580 185.3933
L205.1009 185.4648
" />
<path d="M205.1009 185.4648
L205.1723 185.5362
" />
<path d="M205.1723 185.5362
L205.2437 185.6790
" />
<path d="M205.2437 185.6790
L205.2437 186.1076
" />
<path d="M205.2437 186.1076
L205.1723 186.2505
" />
<path d="M205.1723 186.2505
L205.1009 186.3219
" />
<path d="M205.1009 186.3219
L204.9580 186.3933
" />
<path d="M204.9580 186.3933
L204.6723 186.3933
" />
<path d="M204.6723 186.3933
L204.5295 186.3219
" />
</g><path d="M177.0022 181.5072
L285.0022 181.5072
" />
<text x="178.0022" y="183.7572"
textLength="8.2214" font-size="2.0000" lengthAdjust="spacingAndGlyphs"
text-anchor="start" opacity="0" stroke-opacity="0">Sheet: </text>
<g class="stroked-text"><desc>Sheet: </desc>
<path d="M178.3866 183.6219
L178.6009 183.6933
" />
<path d="M178.6009 183.6933
L178.9580 183.6933
" />
<path d="M178.9580 183.6933
L179.1009 183.6219
" />
<path d="M179.1009 183.6219
L179.1723 183.5505
" />
<path d="M179.1723 183.5505
L179.2437 183.4076
" />
<path d="M179.2437 183.4076
L179.2437 183.2648
" />
<path d="M179.2437 183.2648
L179.1723 183.1219
" />
<path d="M179.1723 183.1219
L179.1009 183.0505
" />
<path d="M179.1009 183.0505
L178.9580 182.9790
" />
<path d="M178.9580 182.9790
L178.6723 182.9076
" />
<path d="M178.6723 182.9076
L178.5295 182.8362
" />
<path d="M178.5295 182.8362
L178.4580 182.7648
" />
<path d="M178.4580 182.7648
L178.3866 182.6219
" />
<path d="M178.3866 182.6219
L178.3866 182.4790
" />
<path d="M178.3866 182.4790
L178.4580 182.3362
" />
<path d="M178.4580 182.3362
L178.5295 182.2648
" />
<path d="M178.5295 182.2648
L178.6723 182.1933
" />
<path d="M178.6723 182.1933
L179.0295 182.1933
" />
<path d="M179.0295 182.1933
L179.2437 182.2648
" />
<path d="M179.8866 183.6933
L179.8866 182.1933
" />
<path d="M180.5295 183.6933
L180.5295 182.9076
" />
<path d="M180.5295 182.9076
L180.4580 182.7648
" />
<path d="M180.4580 182.7648
L180.3152 182.6933
" />
<path d="M180.3152 182.6933
L180.1009 182.6933
" />
<path d="M180.1009 182.6933
L179.9580 182.7648
" />
<path d="M179.9580 182.7648
L179.8866 182.8362
" />
<path d="M181.8152 183.6219
L181.6723 183.6933
" />
<path d="M181.6723 183.6933
L181.3866 183.6933
" />
<path d="M181.3866 183.6933
L181.2437 183.6219
" />
<path d="M181.2437 183.6219
L181.1723 183.4790
" />
<path d="M181.1723 183.4790
L181.1723 182.9076
" />
<path d="M181.1723 182.9076
L181.2437 182.7648
" />
<path d="M181.2437 182.7648
L181.3866 182.6933
" />
<path d="M181.3866 182.6933
L181.6723 182.6933
" />
<path d="M181.6723 182.6933
L181.8152 182.7648
" />
<path d="M181.8152 182.7648
L181.8866 182.9076
" />
<path d="M181.8866 182.9076
L181.8866 183.0505
" />
<path d="M181.8866 183.0505
L181.1723 183.1933
" />
<path d="M183.1009 183.6219
L182.9580 183.6933
" />
<path d="M182.9580 183.6933
L182.6723 183.6933
" />
<path d="M182.6723 183.6933
L182.5295 183.6219
" />
<path d="M182.5295 183.6219
L182.4580 183.4790
" />
<path d="M182.4580 183.4790
L182.4580 182.9076
" />
<path d="M182.4580 182.9076
L182.5295 182.7648
" />
<path d="M182.5295 182.7648
L182.6723 182.6933
" />
<path d="M182.6723 182.6933
L182.9580 182.6933
" />
<path d="M182.9580 182.6933
L183.1009 182.7648
" />
<path d="M183.1009 182.7648
L183.1723 182.9076
" />
<path d="M183.1723 182.9076
L183.1723 183.0505
" />
<path d="M183.1723 183.0505
L182.4580 183.1933
" />
<path d="M183.6009 182.6933
L184.1723 182.6933
" />
<path d="M183.8152 182.1933
L183.8152 183.4790
" />
<path d="M183.8152 183.4790
L183.8866 183.6219
" />
<path d="M183.8866 183.6219
L184.0295 183.6933
" />
<path d="M184.0295 183.6933
L184.1723 183.6933
" />
<path d="M184.6723 183.5505
L184.7437 183.6219
" />
<path d="M184.7437 183.6219
L184.6723 183.6933
" />
<path d="M184.6723 183.6933
L184.6009 183.6219
" />
<path d="M184.6009 183.6219
L184.6723 183.5505
" />
<path d="M184.6723 183.5505
L184.6723 183.6933
" />
<path d="M184.6723 182.7648
L184.7437 182.8362
" />
<path d="M184.7437 182.8362
L184.6723 182.9076
" />
<path d="M184.6723 182.9076
L184.6009 182.8362
" />
<path d="M184.6009 182.8362
L184.6723 182.7648
" />
<path d="M184.6723 182.7648
L184.6723 182.9076
" />
</g></g>
<g style="fill:none; 
stroke:#C872AB; stroke-width:0.3000; stroke-opacity:1; 
stroke-linecap:round; stroke-linejoin:round;">
<text x="178.0022" y="180.7572"
textLength="0.9000" font-size="2.0000" lengthAdjust="spacingAndGlyphs"
text-anchor="start" opacity="0" stroke-opacity="0"></text>
<g class="stroked-text"><desc></desc>
</g></g>
<g style="fill:none; 
stroke:#C872AB; stroke-width:0.1500; stroke-opacity:1; 
stroke-linecap:round; stroke-linejoin:round;">
<text x="178.0022" y="177.7572"
textLength="0.4500" font-size="2.0000" lengthAdjust="spacingAndGlyphs"
text-anchor="start" opacity="0" stroke-opacity="0"></text>
<g class="stroked-text"><desc></desc>
</g><text x="178.0022" y="174.7572"
textLength="0.4500" font-size="2.0000" lengthAdjust="spacingAndGlyphs"
text-anchor="start" opacity="0" stroke-opacity="0"></text>
<g class="stroked-text"><desc></desc>
</g><text x="178.0022" y="171.7572"
textLength="0.4500" font-size="2.0000" lengthAdjust="spacingAndGlyphs"
text-anchor="start" opacity="0" stroke-opacity="0"></text>
<g class="stroked-text"><desc></desc>
</g><text x="178.0022" y="168.7572"
textLength="0.4500" font-size="2.0000" lengthAdjust="spacingAndGlyphs"
text-anchor="start" opacity="0" stroke-opacity="0"></text>
<g class="stroked-text"><desc></desc>
</g><path d="M197.0022 191.5072
L197.0022 194.5072
" />
<path d="M261.0022 191.5072
L261.0022 198.0072
" />
<path style="fill:#C83434; fill-opacity:1.0000; stroke:none;fill-rule:evenodd;"
d="M 18.1407,21.0263
18.1407,20.4263
18.7407,20.4263
18.7407,21.0263
Z" /> 
<path style="fill:#C83434; fill-opacity:1.0000; stroke:none;fill-rule:evenodd;"
d="M 19.9290,21.0263
19.9290,20.4263
20.5290,20.4263
20.5290,21.0263
Z" /> 
<path style="fill:#C83434; fill-opacity:1.0000; stroke:none;fill-rule:evenodd;"
d="M 21.7172,21.0263
21.7172,20.4263
22.3172,20.4263
22.3172,21.0263
Z" /> 
<path style="fill:#C83434; fill-opacity:1.0000; stroke:none;fill-rule:evenodd;"
d="M 23.5054,21.0263
23.5054,20.4263
24.1054,20.4263
24.1054,21.0263
Z" /> 
<path style="fill:#C83434; fill-opacity:1.0000; stroke:none;fill-rule:evenodd;"
d="M 25.2937,21.0263
25.2937,20.4263
25.8937,20.4263
25.8937,21.0263
Z" /> 
<path style="fill:#C83434; fill-opacity:1.0000; stroke:none;fill-rule:evenodd;"
d="M 27.0819,21.0263
27.0819,20.4263
27.6819,20.4263
27.6819,21.0263
Z" /> 
<path style="fill:#C83434; fill-opacity:1.0000; stroke:none;fill-rule:evenodd;"
d="M 28.8701,21.0263
28.8701,20.4263
29.4701,20.4263
29.4701,21.0263
Z" /> 
<path style="fill:#C83434; fill-opacity:1.0000; stroke:none;fill-rule:evenodd;"
d="M 30.6584,21.0263
30.6584,20.4263
31.2584,20.4263
31.2584,21.0263
Z" /> 
<path style="fill:#C83434; fill-opacity:1.0000; stroke:none;fill-rule:evenodd;"
d="M 32.4466,21.0263
32.4466,20.4263
33.0466,20.4263
33.0466,21.0263
Z" /> 
<path style="fill:#C83434; fill-opacity:1.0000; stroke:none;fill-rule:evenodd;"
d="M 32.4466,22.8145
32.4466,22.2145
33.0466,22.2145
33.0466,22.8145
Z" /> 
<path style="fill:#C83434; fill-opacity:1.0000; stroke:none;fill-rule:evenodd;"
d="M 32.4466,24.6028
32.4466,24.0028
33.0466,24.0028
33.0466,24.6028
Z" /> 
<path style="fill:#C83434; fill-opacity:1.0000; stroke:none;fill-rule:evenodd;"
d="M 32.4466,26.3910
32.4466,25.7910
33.0466,25.7910
33.0466,26.3910
Z" /> 
<path style="fill:#C83434; fill-opacity:1.0000; stroke:none;fill-rule:evenodd;"
d="M 32.4466,28.1792
32.4466,27.5792
33.0466,27.5792
33.0466,28.1792
Z" /> 
<path style="fill:#C83434; fill-opacity:1.0000; stroke:none;fill-rule:evenodd;"
d="M 32.4466,29.9675
32.4466,29.3675
33.0466,29.3675
33.0466,29.9675
Z" /> 
<path style="fill:#C83434; fill-opacity:1.0000; stroke:none;fill-rule:evenodd;"
d="M 32.4466,31.7557
32.4466,31.1557
33.0466,31.1557
33.0466,31.7557
Z" /> 
<path style="fill:#C83434; fill-opacity:1.0000; stroke:none;fill-rule:evenodd;"
d="M 32.4466,33.5439
32.4466,32.9439
33.0466,32.9439
33.0466,33.5439
Z" /> 
<path style="fill:#C83434; fill-opacity:1.0000; stroke:none;fill-rule:evenodd;"
d="M 32.4466,35.3322
32.4466,34.7322
33.0466,34.7322
33.0466,35.3322
Z" /> 
<path style="fill:#C83434; fill-opacity:1.0000; stroke:none;fill-rule:evenodd;"
d="M 31.5525,36.2263
31.5525,35.6263
32.1525,35.6263
32.1525,36.2263
Z" /> 
<path style="fill:#C83434; fill-opacity:1.0000; stroke:none;fill-rule:evenodd;"
d="M 29.7642,36.2263
29.7642,35.6263
30.3642,35.6263
30.3642,36.2263
Z" /> 
<path style="fill:#C83434; fill-opacity:1.0000; stroke:none;fill-rule:evenodd;"
d="M 27.9760,36.2263
27.9760,35.6263
28.5760,35.6263
28.5760,36.2263
Z" /> 
<path style="fill:#C83434; fill-opacity:1.0000; stroke:none;fill-rule:evenodd;"
d="M 26.1878,36.2263
26.1878,35.6263
26.7878,35.6263
26.7878,36.2263
Z" /> 
<path style="fill:#C83434; fill-opacity:1.0000; stroke:none;fill-rule:evenodd;"
d="M 24.3995,36.2263
24.3995,35.6263
24.9995,35.6263
24.9995,36.2263
Z" /> 
<path style="fill:#C83434; fill-opacity:1.0000; stroke:none;fill-rule:evenodd;"
d="M 22.6113,36.2263
22.6113,35.6263
23.2113,35.6263
23.2113,36.2263
Z" /> 
<path style="fill:#C83434; fill-opacity:1.0000; stroke:none;fill-rule:evenodd;"
d="M 20.8231,36.2263
20.8231,35.6263
21.4231,35.6263
21.4231,36.2263
Z" /> 
<path style="fill:#C83434; fill-opacity:1.0000; stroke:none;fill-rule:evenodd;"
d="M 19.0348,36.2263
19.0348,35.6263
19.6348,35.6263
19.6348,36.2263
Z" /> 
<path style="fill:#C83434; fill-opacity:1.0000; stroke:none;fill-rule:evenodd;"
d="M 17.2466,36.2263
17.2466,35.6263
17.8466,35.6263
17.8466,36.2263
Z" /> 
<path style="fill:#C83434; fill-opacity:1.0000; stroke:none;fill-rule:evenodd;"
d="M 17.2466,34.4381
17.2466,33.8381
17.8466,33.8381
17.8466,34.4381
Z" /> 
<path style="fill:#C83434; fill-opacity:1.0000; stroke:none;fill-rule:evenodd;"
d="M 17.2466,32.6498
17.2466,32.0498
17.8466,32.0498
17.8466,32.6498
Z" /> 
<path style="fill:#C83434; fill-opacity:1.0000; stroke:none;fill-rule:evenodd;"
d="M 17.2466,30.8616
17.2466,30.2616
17.8466,30.2616
17.8466,30.8616
Z" /> 
<path style="fill:#C83434; fill-opacity:1.0000; stroke:none;fill-rule:evenodd;"
d="M 17.2466,29.0734
17.2466,28.4734
17.8466,28.4734
17.8466,29.0734
Z" /> 
<path style="fill:#C83434; fill-opacity:1.0000; stroke:none;fill-rule:evenodd;"
d="M 17.2466,27.2851
17.2466,26.6851
17.8466,26.6851
17.8466,27.2851
Z" /> 
<path style="fill:#C83434; fill-opacity:1.0000; stroke:none;fill-rule:evenodd;"
d="M 17.2466,25.4969
17.2466,24.8969
17.8466,24.8969
17.8466,25.4969
Z" /> 
<path style="fill:#C83434; fill-opacity:1.0000; stroke:none;fill-rule:evenodd;"
d="M 17.2466,23.7087
17.2466,23.1087
17.8466,23.1087
17.8466,23.7087
Z" /> 
<path style="fill:#C83434; fill-opacity:1.0000; stroke:none;fill-rule:evenodd;"
d="M 17.2466,21.9204
17.2466,21.3204
17.8466,21.3204
17.8466,21.9204
Z" /> 
<path style="fill:#C83434; fill-opacity:1.0000; stroke:none;fill-rule:evenodd;"
d="M 31.4669,18.2419
31.4669,17.6419
32.0669,17.6419
32.0669,18.2419
Z" /> 
<path style="fill:#C83434; fill-opacity:1.0000; stroke:none;fill-rule:evenodd;"
d="M 31.4669,16.3919
31.4669,15.7919
32.0669,15.7919
32.0669,16.3919
Z" /> 
<path style="fill:#C83434; fill-opacity:1.0000; stroke:none;fill-rule:evenodd;"
d="M 32.8919,15.9669
32.8919,15.3669
33.4919,15.3669
33.4919,15.9669
Z" /> 
<path style="fill:#C83434; fill-opacity:1.0000; stroke:none;fill-rule:evenodd;"
d="M 34.7419,15.9669
34.7419,15.3669
35.3419,15.3669
35.3419,15.9669
Z" /> 
<path style="fill:#C83434; fill-opacity:1.0000; stroke:none;fill-rule:evenodd;"
d="M 35.6669,16.8919
35.6669,16.2919
36.2669,16.2919
36.2669,16.8919
Z" /> 
<path style="fill:#C83434; fill-opacity:1.0000; stroke:none;fill-rule:evenodd;"
d="M 35.6669,18.7419
35.6669,18.1419
36.2669,18.1419
36.2669,18.7419
Z" /> 
<path style="fill:#C83434; fill-opacity:1.0000; stroke:none;fill-rule:evenodd;"
d="M 34.2419,19.1669
34.2419,18.5669
34.8419,18.5669
34.8419,19.1669
Z" /> 
<path style="fill:#C83434; fill-opacity:1.0000; stroke:none;fill-rule:evenodd;"
d="M 32.3919,19.1669
32.3919,18.5669
32.9919,18.5669
32.9919,19.1669
Z" /> 
<path style="fill:#C83434; fill-opacity:1.0000; stroke:none;fill-rule:evenodd;"
d="M 35.9832,24.2468
35.9832,23.6468
36.5832,23.6468
36.5832,24.2468
Z" /> 
<path style="fill:#C83434; fill-opacity:1.0000; stroke:none;fill-rule:evenodd;"
d="M 35.3082,25.6218
35.3082,25.0218
35.9082,25.0218
35.9082,25.6218
Z" /> 
<path style="fill:#C83434; fill-opacity:1.0000; stroke:none;fill-rule:evenodd;"
d="M 34.2832,24.5968
34.2832,23.9968
34.8832,23.9968
34.8832,24.5968
Z" /> 
<path style="fill:#C83434; fill-opacity:1.0000; stroke:none;fill-rule:evenodd;"
d="M 34.9582,23.2218
34.9582,22.6218
35.5582,22.6218
35.5582,23.2218
Z" /> 
<path style="fill:#C83434; fill-opacity:1.0000; stroke:none;fill-rule:evenodd;"
d="M 23.2954,18.9731
23.2954,18.4731
23.7954,18.4731
23.7954,18.9731
Z" /> 
<path style="fill:#C83434; fill-opacity:1.0000; stroke:none;fill-rule:evenodd;"
d="M 24.3954,18.9731
24.3954,18.4731
24.8954,18.4731
24.8954,18.9731
Z" /> 
<path style="fill:#C83434; fill-opacity:1.0000; stroke:none;fill-rule:evenodd;"
d="M 19.9516,18.9754
19.9516,18.4754
20.4516,18.4754
20.4516,18.9754
Z" /> 
<path style="fill:#C83434; fill-opacity:1.0000; stroke:none;fill-rule:evenodd;"
d="M 21.0516,18.9754
21.0516,18.4754
21.5516,18.4754
21.5516,18.9754
Z" /> 
<path style="fill:#C83434; fill-opacity:1.0000; stroke:none;fill-rule:evenodd;"
d="M 16.7531,18.9723
16.7531,18.4723
17.2531,18.4723
17.2531,18.9723
Z" /> 
<path style="fill:#C83434; fill-opacity:1.0000; stroke:none;fill-rule:evenodd;"
d="M 17.8531,18.9723
17.8531,18.4723
18.3531,18.4723
18.3531,18.9723
Z" /> 
<path style="fill:#C83434; fill-opacity:1.0000; stroke:none;fill-rule:evenodd;"
d="M 34.4755,21.1386
34.4755,20.6386
34.9755,20.6386
34.9755,21.1386
Z" /> 
<path style="fill:#C83434; fill-opacity:1.0000; stroke:none;fill-rule:evenodd;"
d="M 35.5755,21.1386
35.5755,20.6386
36.0755,20.6386
36.0755,21.1386
Z" /> 
<path style="fill:#C83434; fill-opacity:1.0000; stroke:none;fill-rule:evenodd;"
d="M 9.6506,18.9207
9.6506,18.3207
10.2506,18.3207
10.2506,18.9207
Z" /> 
<path style="fill:#C83434; fill-opacity:1.0000; stroke:none;fill-rule:evenodd;"
d="M 14.7506,22.0207
14.7506,21.4207
15.3506,21.4207
15.3506,22.0207
Z" /> 
<path style="fill:#C83434; fill-opacity:1.0000; stroke:none;fill-rule:evenodd;"
d="M 10.6506,26.1207
10.6506,25.5207
11.2506,25.5207
11.2506,26.1207
Z" /> 
<path style="fill:#C83434; fill-opacity:1.0000; stroke:none;fill-rule:evenodd;"
d="M 5.5506,23.0207
5.5506,22.4207
6.1506,22.4207
6.1506,23.0207
Z" /> 
<path style="fill:#C83434; fill-opacity:1.0000; stroke:none;fill-rule:evenodd;"
d="M 32.4110,42.2441
32.4110,41.6441
33.0110,41.6441
33.0110,42.2441
Z" /> 
<path style="fill:#C83434; fill-opacity:1.0000; stroke:none;fill-rule:evenodd;"
d="M 29.1875,42.2441
29.1875,41.6441
29.7875,41.6441
29.7875,42.2441
Z" /> 
<path style="fill:#C83434; fill-opacity:1.0000; stroke:none;fill-rule:evenodd;"
d="M 25.9640,42.2441
25.9640,41.6441
26.5640,41.6441
26.5640,42.2441
Z" /> 
<path style="fill:#C83434; fill-opacity:1.0000; stroke:none;fill-rule:evenodd;"
d="M 22.7404,42.2441
22.7404,41.6441
23.3404,41.6441
23.3404,42.2441
Z" /> 
<path style="fill:#C83434; fill-opacity:1.0000; stroke:none;fill-rule:evenodd;"
d="M 19.5169,42.2441
19.5169,41.6441
20.1169,41.6441
20.1169,42.2441
Z" /> 
<path style="fill:#C83434; fill-opacity:1.0000; stroke:none;fill-rule:evenodd;"
d="M 16.2934,42.2441
16.2934,41.6441
16.8934,41.6441
16.8934,42.2441
Z" /> 
<path style="fill:#C83434; fill-opacity:1.0000; stroke:none;fill-rule:evenodd;"
d="M 13.0699,42.2441
13.0699,41.6441
13.6699,41.6441
13.6699,42.2441
Z" /> 
<path style="fill:#C83434; fill-opacity:1.0000; stroke:none;fill-rule:evenodd;"
d="M 10.8228,41.2676
10.8228,40.6676
11.4228,40.6676
11.4228,41.2676
Z" /> 
<path style="fill:#C83434; fill-opacity:1.0000; stroke:none;fill-rule:evenodd;"
d="M 10.8228,38.0441
10.8228,37.4441
11.4228,37.4441
11.4228,38.0441
Z" /> 
<path style="fill:#C83434; fill-opacity:1.0000; stroke:none;fill-rule:evenodd;"
d="M 14.0463,38.0441
14.0463,37.4441
14.6463,37.4441
14.6463,38.0441
Z" /> 
<path style="fill:#C83434; fill-opacity:1.0000; stroke:none;fill-rule:evenodd;"
d="M 17.2699,38.0441
17.2699,37.4441
17.8699,37.4441
17.8699,38.0441
Z" /> 
<path style="fill:#C83434; fill-opacity:1.0000; stroke:none;fill-rule:evenodd;"
d="M 20.4934,38.0441
20.4934,37.4441
21.0934,37.4441
21.0934,38.0441
Z" /> 
<path style="fill:#C83434; fill-opacity:1.0000; stroke:none;fill-rule:evenodd;"
d="M 23.7169,38.0441
23.7169,37.4441
24.3169,37.4441
24.3169,38.0441
Z" /> 
<path style="fill:#C83434; fill-opacity:1.0000; stroke:none;fill-rule:evenodd;"
d="M 26.9404,38.0441
26.9404,37.4441
27.5404,37.4441
27.5404,38.0441
Z" /> 
<path style="fill:#C83434; fill-opacity:1.0000; stroke:none;fill-rule:evenodd;"
d="M 30.1640,38.0441
30.1640,37.4441
30.7640,37.4441
30.7640,38.0441
Z" /> 
<path style="fill:#C83434; fill-opacity:1.0000; stroke:none;fill-rule:evenodd;"
d="M 33.3875,38.0441
33.3875,37.4441
33.9875,37.4441
33.9875,38.0441
Z" /> 
<path style="fill:#C83434; fill-opacity:1.0000; stroke:none;fill-rule:evenodd;"
d="M 34.0228,40.6323
34.0228,40.0323
34.6228,40.0323
34.6228,40.6323
Z" /> 
<path style="fill:#C83434; fill-opacity:1.0000; stroke:none;fill-rule:evenodd;"
d="M 39.5872,33.5239
39.5872,32.9239
40.1872,32.9239
40.1872,33.5239
Z" /> 
<path style="fill:#C83434; fill-opacity:1.0000; stroke:none;fill-rule:evenodd;"
d="M 35.7872,33.5239
35.7872,32.9239
36.3872,32.9239
36.3872,33.5239
Z" /> 
<path style="fill:#C83434; fill-opacity:1.0000; stroke:none;fill-rule:evenodd;"
d="M 34.2872,31.2239
34.2872,30.6239
34.8872,30.6239
34.8872,31.2239
Z" /> 
<path style="fill:#C83434; fill-opacity:1.0000; stroke:none;fill-rule:evenodd;"
d="M 36.1872,29.3239
36.1872,28.7239
36.7872,28.7239
36.7872,29.3239
Z" /> 
<path style="fill:#C83434; fill-opacity:1.0000; stroke:none;fill-rule:evenodd;"
d="M 39.9872,29.3239
39.9872,28.7239
40.5872,28.7239
40.5872,29.3239
Z" /> 
<path style="fill:#C83434; fill-opacity:1.0000; stroke:none;fill-rule:evenodd;"
d="M 41.4872,31.6239
41.4872,31.0239
42.0872,31.0239
42.0872,31.6239
Z" /> 
</g>
<g style="fill:#C83434; fill-opacity:1.0000; stroke:none;">
<circle cx="6.9600" cy="6.9600" r="0.5000" /> 
<circle cx="37.0400" cy="6.9600" r="0.5000" /> 
<circle cx="6.9600" cy="37.0400" r="0.5000" /> 
<circle cx="10.0000" cy="18.5000" r="0.2300" /> 
<circle cx="23.5000" cy="18.5000" r="0.2300" /> 
<circle cx="18.5000" cy="20.5000" r="0.2300" /> 
<circle cx="20.0000" cy="18.5000" r="0.2300" /> 
<circle cx="19.0000" cy="20.0000" r="0.2300" /> 
<circle cx="16.5000" cy="21.0000" r="0.2300" /> 
<circle cx="15.0000" cy="21.5000" r="0.2300" /> 
<circle cx="36.0000" cy="16.5000" r="0.2300" /> 
<circle cx="23.5000" cy="20.0000" r="0.2300" /> 
<circle cx="38.0000" cy="28.5000" r="0.2300" /> 
<circle cx="42.0000" cy="31.5000" r="0.2300" /> 
<circle cx="29.0000" cy="20.5000" r="0.2300" /> 
<circle cx="34.5000" cy="24.5000" r="0.2300" /> 
<circle cx="30.5000" cy="18.0000" r="0.2300" /> 
<circle cx="31.0000" cy="20.5000" r="0.2300" /> 
<circle cx="32.0000" cy="16.0000" r="0.2300" /> 
<circle cx="32.5000" cy="20.5000" r="0.2300" /> 
<circle cx="33.0000" cy="15.5000" r="0.2300" /> 
<circle cx="32.5000" cy="22.5000" r="0.2300" /> 
<circle cx="35.0000" cy="15.5000" r="0.2300" /> 
<circle cx="32.5000" cy="24.5000" r="0.2300" /> 
<circle cx="34.0000" cy="32.0000" r="0.2300" /> 
<circle cx="40.0000" cy="33.0000" r="0.2300" /> 
<circle cx="34.5000" cy="31.0000" r="0.2300" /> 
<circle cx="32.5000" cy="35.0000" r="0.2300" /> 
<circle cx="36.5000" cy="29.0000" r="0.2300" /> 
<circle cx="32.0000" cy="36.0000" r="0.2300" /> 
<circle cx="30.0000" cy="36.0000" r="0.2300" /> 
<circle cx="32.5000" cy="42.0000" r="0.2300" /> 
<circle cx="28.5000" cy="36.0000" r="0.2300" /> 
<circle cx="29.5000" cy="42.0000" r="0.2300" /> 
<circle cx="26.5000" cy="36.0000" r="0.2300" /> 
<circle cx="26.5000" cy="42.0000" r="0.2300" /> 
<circle cx="24.5000" cy="36.0000" r="0.2300" /> 
<circle cx="23.0000" cy="42.0000" r="0.2300" /> 
<circle cx="23.0000" cy="36.0000" r="0.2300" /> 
<circle cx="20.0000" cy="42.0000" r="0.2300" /> 
<circle cx="21.0000" cy="36.0000" r="0.2300" /> 
<circle cx="16.5000" cy="42.0000" r="0.2300" /> 
<circle cx="19.5000" cy="36.0000" r="0.2300" /> 
<circle cx="13.5000" cy="42.0000" r="0.2300" /> 
<circle cx="17.5000" cy="36.0000" r="0.2300" /> 
<circle cx="11.0000" cy="41.0000" r="0.2300" /> 
<circle cx="17.5000" cy="34.0000" r="0.2300" /> 
<circle cx="11.0000" cy="37.5000" r="0.2300" /> 
<circle cx="17.5000" cy="32.5000" r="0.2300" /> 
<circle cx="14.5000" cy="36.0000" r="0.2300" /> 
<circle cx="17.5000" cy="30.5000" r="0.2300" /> 
<circle cx="17.5000" cy="37.5000" r="0.2300" /> 
<circle cx="17.5000" cy="29.0000" r="0.2300" /> 
<circle cx="21.0000" cy="37.5000" r="0.2300" /> 
<circle cx="17.5000" cy="27.0000" r="0.2300" /> 
<circle cx="24.0000" cy="37.5000" r="0.2300" /> 
<circle cx="17.5000" cy="25.0000" r="0.2300" /> 
<circle cx="27.0000" cy="37.5000" r="0.2300" /> 
<circle cx="17.5000" cy="23.5000" r="0.2300" /> 
<circle cx="30.5000" cy="37.5000" r="0.2300" /> 
<circle cx="17.5000" cy="21.5000" r="0.2300" /> 
<circle cx="33.5000" cy="37.5000" r="0.2300" /> 
</g>
<g style="fill:none; 
stroke:#C83434; stroke-width:0.2500; stroke-opacity:1; 
stroke-linecap:round; stroke-linejoin:round;">
<path d="M17.0000 20.0000
L19.0000 20.0000
" />
<path d="M19.0000 20.5000
L20.0000 20.5000
" />
<path d="M16.5000 21.0000
L17.0000 21.0000
" />
<path d="M17.0000 20.0000
L17.0000 21.0000
" />
<path d="M19.0000 20.0000
L19.0000 20.5000
" />
<path d="M36.0000 17.0000
L36.5000 17.0000
" />
<path d="M34.5000 18.5000
L36.5000 18.5000
" />
<path d="M15.5000 19.0000
L17.5000 19.0000
" />
<path d="M17.5000 19.5000
L21.0000 19.5000
" />
<path d="M21.0000 20.0000
L21.5000 20.0000
" />
<path d="M22.5000 20.0000
L23.5000 20.0000
" />
<path d="M21.5000 20.5000
L22.5000 20.5000
" />
<path d="M15.5000 21.0000
L16.0000 21.0000
" />
<path d="M34.5000 21.0000
L35.0000 21.0000
" />
<path d="M35.0000 21.5000
L36.5000 21.5000
" />
<path d="M15.5000 22.5000
L16.0000 22.5000
" />
<path d="M35.5000 23.5000
L36.5000 23.5000
" />
<path d="M36.5000 24.0000
L38.0000 24.0000
" />
<path d="M38.0000 25.5000
L39.0000 25.5000
" />
<path d="M11.0000 26.0000
L11.5000 26.0000
" />
<path d="M11.5000 26.5000
L15.5000 26.5000
" />
<path d="M39.0000 28.0000
L40.0000 28.0000
" />
<path d="M40.0000 28.5000
L40.5000 28.5000
" />
<path d="M11.5000 26.0000
L11.5000 26.5000
" />
<path d="M15.5000 19.0000
L15.5000 21.0000
" />
<path d="M15.5000 22.5000
L15.5000 26.5000
" />
<path d="M16.0000 21.0000
L16.0000 22.5000
" />
<path d="M17.0000 18.5000
L17.0000 19.0000
" />
<path d="M17.5000 19.0000
L17.5000 19.5000
" />
<path d="M21.0000 19.5000
L21.0000 20.0000
" />
<path d="M21.5000 20.0000
L21.5000 20.5000
" />
<path d="M22.5000 20.0000
L22.5000 20.5000
" />
<path d="M34.5000 18.5000
L34.5000 19.0000
" />
<path d="M35.0000 21.0000
L35.0000 21.5000
" />
<path d="M35.5000 21.5000
L35.5000 23.5000
" />
<path d="M36.0000 16.5000
L36.0000 17.0000
" />
<path d="M36.5000 17.0000
L36.5000 21.5000
" />
<path d="M36.5000 23.5000
L36.5000 24.0000
" />
<path d="M38.0000 24.0000
L38.0000 25.5000
" />
<path d="M39.0000 25.5000
L39.0000 28.0000
" />
<path d="M40.0000 28.0000
L40.0000 28.5000
" />
<path d="M40.5000 28.5000
L40.5000 29.0000
" />
<path d="M18.5000 17.5000
L21.5000 17.5000
" />
<path d="M5.0000 18.0000
L18.5000 18.0000
" />
<path d="M21.5000 18.0000
L24.5000 18.0000
" />
<path d="M18.0000 18.5000
L18.5000 18.5000
" />
<path d="M24.5000 19.0000
L25.0000 19.0000
" />
<path d="M26.0000 20.0000
L35.5000 20.0000
" />
<path d="M24.0000 20.5000
L26.0000 20.5000
" />
<path d="M35.5000 20.5000
L36.0000 20.5000
" />
<path d="M5.0000 22.5000
L6.0000 22.5000
" />
<path d="M34.0000 25.0000
L35.0000 25.0000
" />
<path d="M35.0000 25.5000
L35.5000 25.5000
" />
<path d="M35.5000 26.5000
L36.0000 26.5000
" />
<path d="M36.0000 27.0000
L37.5000 27.0000
" />
<path d="M37.5000 28.0000
L38.0000 28.0000
" />
<path d="M42.0000 32.0000
L42.5000 32.0000
" />
<path d="M42.0000 34.0000
L42.5000 34.0000
" />
<path d="M41.5000 34.5000
L42.0000 34.5000
" />
<path d="M40.5000 35.5000
L41.5000 35.5000
" />
<path d="M37.0000 37.0000
L40.5000 37.0000
" />
<path d="M36.5000 39.5000
L37.0000 39.5000
" />
<path d="M35.0000 40.0000
L36.5000 40.0000
" />
<path d="M34.5000 40.5000
L35.0000 40.5000
" />
<path d="M5.0000 18.0000
L5.0000 22.5000
" />
<path d="M18.5000 17.5000
L18.5000 18.5000
" />
<path d="M21.5000 17.5000
L21.5000 18.5000
" />
<path d="M24.5000 18.0000
L24.5000 19.0000
" />
<path d="M25.0000 19.0000
L25.0000 20.5000
" />
<path d="M26.0000 20.0000
L26.0000 20.5000
" />
<path d="M27.5000 20.0000
L27.5000 20.5000
" />
<path d="M32.5000 19.0000
L32.5000 20.0000
" />
<path d="M34.0000 20.0000
L34.0000 25.0000
" />
<path d="M35.0000 25.0000
L35.0000 25.5000
" />
<path d="M35.0000 40.0000
L35.0000 40.5000
" />
<path d="M35.5000 20.0000
L35.5000 20.5000
" />
<path d="M35.5000 25.5000
L35.5000 26.5000
" />
<path d="M36.0000 20.5000
L36.0000 21.0000
" />
<path d="M36.0000 26.5000
L36.0000 27.0000
" />
<path d="M36.5000 39.5000
L36.5000 40.0000
" />
<path d="M37.0000 37.0000
L37.0000 39.5000
" />
<path d="M37.5000 27.0000
L37.5000 28.0000
" />
<path d="M38.0000 28.0000
L38.0000 28.5000
" />
<path d="M40.5000 35.5000
L40.5000 37.0000
" />
<path d="M41.5000 34.5000
L41.5000 35.5000
" />
<path d="M42.0000 31.5000
L42.0000 32.0000
" />
<path d="M42.0000 34.0000
L42.0000 34.5000
" />
<path d="M42.5000 32.0000
L42.5000 34.0000
" />
</g>
<g style="fill:none; 
stroke:#C83434; stroke-width:0.1500; stroke-opacity:1; 
stroke-linecap:round; stroke-linejoin:round;">
<path d="M30.5000 18.0000
L32.0000 18.0000
" />
<path d="M32.5000 31.5000
L34.0000 31.5000
" />
<path d="M34.0000 31.5000
L34.0000 32.0000
" />
<path d="M32.5000 33.0000
L34.0000 33.0000
" />
<path d="M35.5000 33.0000
L36.0000 33.0000
" />
<path d="M34.0000 34.0000
L35.5000 34.0000
" />
<path d="M34.0000 33.0000
L34.0000 34.0000
" />
<path d="M35.5000 33.0000
L35.5000 34.0000
" />
<path d="M14.5000 36.0000
L14.5000 37.5000
" />
<path style="fill:#C83434; fill-opacity:1.0000; stroke:none;fill-rule:evenodd;"
d="M 19.0000,20.0000
18.7700,20.0000
18.8127,20.1873
18.8127,20.1873
18.6170,20.1426
18.6130,20.1402
18.6084,20.1402
18.5871,20.1247
18.5644,20.1112
18.5626,20.1069
18.5589,20.1042
18.5508,20.0792
18.5404,20.0549
18.5400,20.0460
18.5400,19.9539
18.5589,19.8958
18.6084,19.8598
18.6169,19.8574
18.9780,19.7750
19.0000,19.7750
Z" /> 
<path style="fill:#C83434; fill-opacity:1.0000; stroke:none;fill-rule:evenodd;"
d="M 19.3830,19.8574
19.3870,19.8598
19.3916,19.8598
19.4129,19.8753
19.4356,19.8888
19.4374,19.8930
19.4411,19.8958
19.4492,19.9208
19.4596,19.9451
19.4600,19.9539
19.4600,20.0460
19.4411,20.1042
19.3916,20.1402
19.3830,20.1426
19.1873,20.1873
19.1873,20.1873
19.2300,20.0000
19.0000,20.0000
19.0000,19.7750
19.0220,19.7750
Z" /> 
<path style="fill:#C83434; fill-opacity:1.0000; stroke:none;fill-rule:evenodd;"
d="M 19.1873,20.1873
19.1873,20.1873
19.1443,20.3754
19.1426,20.3830
19.1402,20.3870
19.1402,20.3916
19.1247,20.4129
19.1112,20.4356
19.1069,20.4374
19.1042,20.4411
19.0792,20.4492
19.0549,20.4596
19.0461,20.4600
18.9617,20.4600
18.9035,20.4411
18.8676,20.3916
18.8646,20.3803
18.8636,20.3754
18.8617,20.3725
18.8475,20.3395
18.7700,20.0000
19.2300,20.0000
Z" /> 
<path style="fill:#C83434; fill-opacity:1.0000; stroke:none;fill-rule:evenodd;"
d="M 16.8830,20.8574
16.8870,20.8598
16.8916,20.8598
16.9129,20.8753
16.9356,20.8888
16.9374,20.8930
16.9411,20.8958
16.9492,20.9208
16.9596,20.9451
16.9600,20.9539
16.9600,21.0461
16.9411,21.1042
16.8916,21.1402
16.8831,21.1426
16.6210,21.2024
16.5601,21.1969
16.5140,21.1566
16.5000,21.1059
16.5000,21.0000
16.5000,21.0000
16.7300,21.0000
16.6873,20.8127
Z" /> 
<path style="fill:#C83434; fill-opacity:1.0000; stroke:none;fill-rule:evenodd;"
d="M 16.6042,20.5589
16.6402,20.6084
16.6426,20.6170
16.6873,20.8127
16.7300,21.0000
16.3941,21.0000
16.3360,20.9811
16.3000,20.9316
16.2976,20.8790
16.3574,20.6170
16.3598,20.6130
16.3598,20.6084
16.3753,20.5871
16.3888,20.5644
16.3930,20.5626
16.3958,20.5589
16.4208,20.5508
16.4451,20.5404
16.4539,20.5400
16.5461,20.5400
Z" /> 
<path style="fill:#C83434; fill-opacity:1.0000; stroke:none;fill-rule:evenodd;"
d="M 36.3830,16.3574
36.3870,16.3598
36.3916,16.3598
36.4129,16.3753
36.4356,16.3888
36.4374,16.3930
36.4411,16.3958
36.4492,16.4208
36.4596,16.4451
36.4600,16.4539
36.4600,16.5460
36.4411,16.6042
36.3916,16.6402
36.3830,16.6426
36.1873,16.6873
36.1873,16.6873
36.2300,16.5000
36.0000,16.5000
36.0000,16.3941
36.0189,16.3360
36.0684,16.3000
36.1210,16.2976
Z" /> 
<path style="fill:#C83434; fill-opacity:1.0000; stroke:none;fill-rule:evenodd;"
d="M 36.1873,16.6873
36.1873,16.6873
36.1426,16.8830
36.1402,16.8870
36.1402,16.8916
36.1247,16.9129
36.1112,16.9356
36.1069,16.9374
36.1042,16.9411
36.0792,16.9492
36.0549,16.9596
36.0461,16.9600
35.9539,16.9600
35.8958,16.9411
35.8598,16.8916
35.8574,16.8831
35.7976,16.6210
35.8031,16.5601
35.8434,16.5140
35.8941,16.5000
36.0000,16.5000
36.0000,16.5000
36.2300,16.5000
Z" /> 
<path style="fill:#C83434; fill-opacity:1.0000; stroke:none;fill-rule:evenodd;"
d="M 23.4399,19.8031
23.4860,19.8434
23.5000,19.8941
23.5000,20.1059
23.4811,20.1640
23.4316,20.2000
23.3790,20.2024
23.1170,20.1426
23.1130,20.1402
23.1084,20.1402
23.0871,20.1247
23.0644,20.1112
23.0626,20.1070
23.0589,20.1042
23.0508,20.0792
23.0404,20.0549
23.0400,20.0461
23.0400,19.9539
23.0589,19.8958
23.1084,19.8598
23.1169,19.8574
23.3790,19.7976
Z" /> 
<path style="fill:#C83434; fill-opacity:1.0000; stroke:none;fill-rule:evenodd;"
d="M 37.9399,28.3031
37.9860,28.3434
38.0000,28.3941
38.0000,28.5000
37.7700,28.5000
37.8127,28.6873
37.8127,28.6873
37.6170,28.6426
37.6130,28.6402
37.6084,28.6402
37.5871,28.6247
37.5644,28.6112
37.5626,28.6069
37.5589,28.6042
37.5508,28.5792
37.5404,28.5549
37.5400,28.5460
37.5400,28.4539
37.5589,28.3958
37.6084,28.3598
37.6169,28.3574
37.8790,28.2976
Z" /> 
<path style="fill:#C83434; fill-opacity:1.0000; stroke:none;fill-rule:evenodd;"
d="M 38.1640,28.5189
38.2000,28.5684
38.2024,28.6210
38.1426,28.8830
38.1402,28.8870
38.1402,28.8916
38.1247,28.9129
38.1112,28.9356
38.1070,28.9374
38.1042,28.9411
38.0792,28.9492
38.0549,28.9596
38.0461,28.9600
37.9539,28.9600
37.8958,28.9411
37.8598,28.8916
37.8574,28.8831
37.7700,28.5000
38.0000,28.5000
38.0000,28.5000
38.1059,28.5000
Z" /> 
<path style="fill:#C83434; fill-opacity:1.0000; stroke:none;fill-rule:evenodd;"
d="M 42.3830,31.3574
42.3870,31.3598
42.3916,31.3598
42.4129,31.3753
42.4356,31.3888
42.4374,31.3930
42.4411,31.3958
42.4492,31.4208
42.4596,31.4451
42.4600,31.4539
42.4600,31.5460
42.4411,31.6042
42.3916,31.6402
42.3830,31.6426
42.1873,31.6873
42.1873,31.6873
42.2300,31.5000
42.0000,31.5000
42.0000,31.3941
42.0189,31.3360
42.0684,31.3000
42.1210,31.2976
Z" /> 
<path style="fill:#C83434; fill-opacity:1.0000; stroke:none;fill-rule:evenodd;"
d="M 42.1873,31.6873
42.1873,31.6873
42.1426,31.8830
42.1402,31.8870
42.1402,31.8916
42.1247,31.9129
42.1112,31.9356
42.1069,31.9374
42.1042,31.9411
42.0792,31.9492
42.0549,31.9596
42.0461,31.9600
41.9539,31.9600
41.8958,31.9411
41.8598,31.8916
41.8574,31.8831
41.7976,31.6210
41.8031,31.5601
41.8434,31.5140
41.8941,31.5000
42.0000,31.5000
42.0000,31.5000
42.2300,31.5000
Z" /> 
<path style="fill:#C83434; fill-opacity:1.0000; stroke:none;fill-rule:evenodd;"
d="M 30.6305,17.8140
30.8926,17.9023
30.9167,17.9202
30.9411,17.9379
30.9413,17.9385
30.9417,17.9388
30.9600,17.9961
30.9600,18.0039
30.9411,18.0621
30.8926,18.0977
30.6306,18.1860
30.5694,18.1867
30.5195,18.1512
30.5000,18.0932
30.5000,18.0922
30.5000,17.9078
30.5189,17.8496
30.5684,17.8137
30.6296,17.8137
Z" /> 
<path style="fill:#C83434; fill-opacity:1.0000; stroke:none;fill-rule:evenodd;"
d="M 33.9805,31.8488
34.0000,31.9068
34.0000,31.9078
34.0000,32.0000
33.7700,32.0000
33.8280,32.1720
33.8280,32.1720
33.8280,32.1720
33.6074,32.0977
33.5833,32.0798
33.5589,32.0621
33.5587,32.0615
33.5583,32.0612
33.5400,32.0039
33.5400,31.9961
33.5589,31.9379
33.6074,31.9023
33.8694,31.8140
33.9306,31.8133
Z" /> 
<path style="fill:#C83434; fill-opacity:1.0000; stroke:none;fill-rule:evenodd;"
d="M 34.1504,32.0189
34.1863,32.0684
34.1863,32.1296
34.1860,32.1306
34.0977,32.3926
34.0798,32.4167
34.0621,32.4411
34.0615,32.4413
34.0612,32.4417
34.0039,32.4600
33.9961,32.4600
33.9379,32.4411
33.9023,32.3926
33.7700,32.0000
34.0000,32.0000
34.0000,32.0000
34.0922,32.0000
Z" /> 
<path style="fill:#C83434; fill-opacity:1.0000; stroke:none;fill-rule:evenodd;"
d="M 14.6504,36.0189
14.6863,36.0684
14.6863,36.1296
14.6860,36.1306
14.5977,36.3926
14.5798,36.4167
14.5621,36.4411
14.5615,36.4413
14.5612,36.4417
14.5039,36.4600
14.4961,36.4600
14.4379,36.4411
14.4023,36.3926
14.3140,36.1306
14.3133,36.0694
14.3488,36.0195
14.4068,36.0000
14.4078,36.0000
14.5922,36.0000
Z" /> 
</g>
<g style="fill:#4D7FC4; fill-opacity:1.0000; stroke:none;">
<circle cx="10.0000" cy="18.5000" r="0.2300" /> 
<circle cx="23.5000" cy="18.5000" r="0.2300" /> 
<circle cx="18.5000" cy="20.5000" r="0.2300" /> 
<circle cx="20.0000" cy="18.5000" r="0.2300" /> 
<circle cx="19.0000" cy="20.0000" r="0.2300" /> 
<circle cx="16.5000" cy="21.0000" r="0.2300" /> 
<circle cx="15.0000" cy="21.5000" r="0.2300" /> 
<circle cx="36.0000" cy="16.5000" r="0.2300" /> 
<circle cx="23.5000" cy="20.0000" r="0.2300" /> 
<circle cx="38.0000" cy="28.5000" r="0.2300" /> 
<circle cx="42.0000" cy="31.5000" r="0.2300" /> 
<circle cx="29.0000" cy="20.5000" r="0.2300" /> 
<circle cx="34.5000" cy="24.5000" r="0.2300" /> 
<circle cx="30.5000" cy="18.0000" r="0.2300" /> 
<circle cx="31.0000" cy="20.5000" r="0.2300" /> 
<circle cx="32.0000" cy="16.0000" r="0.2300" /> 
<circle cx="32.5000" cy="20.5000" r="0.2300" /> 
<circle cx="33.0000" cy="15.5000" r="0.2300" /> 
<circle cx="32.5000" cy="22.5000" r="0.2300" /> 
<circle cx="35.0000" cy="15.5000" r="0.2300" /> 
<circle cx="32.5000" cy="24.5000" r="0.2300" /> 
<circle cx="34.0000" cy="32.0000" r="0.2300" /> 
<circle cx="40.0000" cy="33.0000" r="0.2300" /> 
<circle cx="34.5000" cy="31.0000" r="0.2300" /> 
<circle cx="32.5000" cy="35.0000" r="0.2300" /> 
<circle cx="36.5000" cy="29.0000" r="0.2300" /> 
<circle cx="32.0000" cy="36.0000" r="0.2300" /> 
<circle cx="30.0000" cy="36.0000" r="0.2300" /> 
<circle cx="32.5000" cy="42.0000" r="0.2300" /> 
<circle cx="28.5000" cy="36.0000" r="0.2300" /> 
<circle cx="29.5000" cy="42.0000" r="0.2300" /> 
<circle cx="26.5000" cy="36.0000" r="0.2300" /> 
<circle cx="26.5000" cy="42.0000" r="0.2300" /> 
<circle cx="24.5000" cy="36.0000" r="0.2300" /> 
<circle cx="23.0000" cy="42.0000" r="0.2300" /> 
<circle cx="23.0000" cy="36.0000" r="0.2300" /> 
<circle cx="20.0000" cy="42.0000" r="0.2300" /> 
<circle cx="21.0000" cy="36.0000" r="0.2300" /> 
<circle cx="16.5000" cy="42.0000" r="0.2300" /> 
<circle cx="19.5000" cy="36.0000" r="0.2300" /> 
<circle cx="13.5000" cy="42.0000" r="0.2300" /> 
<circle cx="17.5000" cy="36.0000" r="0.2300" /> 
<circle cx="11.0000" cy="41.0000" r="0.2300" /> 
<circle cx="17.5000" cy="34.0000" r="0.2300" /> 
<circle cx="11.0000" cy="37.5000" r="0.2300" /> 
<circle cx="17.5000" cy="32.5000" r="0.2300" /> 
<circle cx="14.5000" cy="36.0000" r="0.2300" /> 
<circle cx="17.5000" cy="30.5000" r="0.2300" /> 
<circle cx="17.5000" cy="37.5000" r="0.2300" /> 
<circle cx="17.5000" cy="29.0000" r="0.2300" /> 
<circle cx="21.0000" cy="37.5000" r="0.2300" /> 
<circle cx="17.5000" cy="27.0000" r="0.2300" /> 
<circle cx="24.0000" cy="37.5000" r="0.2300" /> 
<circle cx="17.5000" cy="25.0000" r="0.2300" /> 
<circle cx="27.0000" cy="37.5000" r="0.2300" /> 
<circle cx="17.5000" cy="23.5000" r="0.2300" /> 
<circle cx="30.5000" cy="37.5000" r="0.2300" /> 
<circle cx="17.5000" cy="21.5000" r="0.2300" /> 
<circle cx="33.5000" cy="37.5000" r="0.2300" /> 
</g>
<g style="fill:none; 
stroke:#D0D2CD; stroke-width:0.1000; stroke-opacity:1; 
stroke-linecap:round; stroke-linejoin:round;">
<path d="M0.0000 0.0000
L44.0000 0.0000
" />
<path d="M0.0000 44.0000
L0.0000 0.0000
" />
<path d="M44.0000 0.0000
L44.0000 44.0000
" />
<path d="M44.0000 44.0000
L0.0000 44.0000
" />
</g>
<g style="fill:#FFFFFF; fill-opacity:1.0000; stroke:none;">
<circle cx="10.0000" cy="18.5000" r="0.1000" /> 
<circle cx="23.5000" cy="18.5000" r="0.1000" /> 
<circle cx="18.5000" cy="20.5000" r="0.1000" /> 
<circle cx="20.0000" cy="18.5000" r="0.1000" /> 
<circle cx="19.0000" cy="20.0000" r="0.1000" /> 
<circle cx="16.5000" cy="21.0000" r="0.1000" /> 
<circle cx="15.0000" cy="21.5000" r="0.1000" /> 
<circle cx="36.0000" cy="16.5000" r="0.1000" /> 
<circle cx="23.5000" cy="20.0000" r="0.1000" /> 
<circle cx="38.0000" cy="28.5000" r="0.1000" /> 
<circle cx="42.0000" cy="31.5000" r="0.1000" /> 
<circle cx="29.0000" cy="20.5000" r="0.1000" /> 
<circle cx="34.5000" cy="24.5000" r="0.1000" /> 
<circle cx="30.5000" cy="18.0000" r="0.1000" /> 
<circle cx="31.0000" cy="20.5000" r="0.1000" /> 
<circle cx="32.0000" cy="16.0000" r="0.1000" /> 
<circle cx="32.5000" cy="20.5000" r="0.1000" /> 
<circle cx="33.0000" cy="15.5000" r="0.1000" /> 
<circle cx="32.5000" cy="22.5000" r="0.1000" /> 
<circle cx="35.0000" cy="15.5000" r="0.1000" /> 
<circle cx="32.5000" cy="24.5000" r="0.1000" /> 
<circle cx="34.0000" cy="32.0000" r="0.1000" /> 
<circle cx="40.0000" cy="33.0000" r="0.1000" /> 
<circle cx="34.5000" cy="31.0000" r="0.1000" /> 
<circle cx="32.5000" cy="35.0000" r="0.1000" /> 
<circle cx="36.5000" cy="29.0000" r="0.1000" /> 
<circle cx="32.0000" cy="36.0000" r="0.1000" /> 
<circle cx="30.0000" cy="36.0000" r="0.1000" /> 
<circle cx="32.5000" cy="42.0000" r="0.1000" /> 
<circle cx="28.5000" cy="36.0000" r="0.1000" /> 
<circle cx="29.5000" cy="42.0000" r="0.1000" /> 
<circle cx="26.5000" cy="36.0000" r="0.1000" /> 
<circle cx="26.5000" cy="42.0000" r="0.1000" /> 
<circle cx="24.5000" cy="36.0000" r="0.1000" /> 
<circle cx="23.0000" cy="42.0000" r="0.1000" /> 
<circle cx="23.0000" cy="36.0000" r="0.1000" /> 
<circle cx="20.0000" cy="42.0000" r="0.1000" /> 
<circle cx="21.0000" cy="36.0000" r="0.1000" /> 
<circle cx="16.5000" cy="42.0000" r="0.1000" /> 
<circle cx="19.5000" cy="36.0000" r="0.1000" /> 
<circle cx="13.5000" cy="42.0000" r="0.1000" /> 
<circle cx="17.5000" cy="36.0000" r="0.1000" /> 
<circle cx="11.0000" cy="41.0000" r="0.1000" /> 
<circle cx="17.5000" cy="34.0000" r="0.1000" /> 
<circle cx="11.0000" cy="37.5000" r="0.1000" /> 
<circle cx="17.5000" cy="32.5000" r="0.1000" /> 
<circle cx="14.5000" cy="36.0000" r="0.1000" /> 
<circle cx="17.5000" cy="30.5000" r="0.1000" /> 
<circle cx="17.5000" cy="37.5000" r="0.1000" /> 
<circle cx="17.5000" cy="29.0000" r="0.1000" /> 
<circle cx="21.0000" cy="37.5000" r="0.1000" /> 
<circle cx="17.5000" cy="27.0000" r="0.1000" /> 
<circle cx="24.0000" cy="37.5000" r="0.1000" /> 
<circle cx="17.5000" cy="25.0000" r="0.1000" /> 
<circle cx="27.0000" cy="37.5000" r="0.1000" /> 
<circle cx="17.5000" cy="23.5000" r="0.1000" /> 
<circle cx="30.5000" cy="37.5000" r="0.1000" /> 
<circle cx="17.5000" cy="21.5000" r="0.1000" /> 
<circle cx="33.5000" cy="37.5000" r="0.1000" /> 
</g>
<g style="fill:#000000; fill-opacity:1.0000; stroke:none;">
<circle cx="3.9600" cy="3.9600" r="1.6000" /> 
<circle cx="40.0400" cy="3.9600" r="1.6000" /> 
<circle cx="3.9600" cy="40.0400" r="1.6000" /> 
<circle cx="40.0400" cy="40.0400" r="1.6000" /> 
</g> 
</svg>
