%TF.GenerationSoftware,KiCad,Pcbnew,10.0.3*%
%TF.CreationDate,2026-06-21T10:55:10-04:00*%
%TF.ProjectId,fpga_tile,66706761-5f74-4696-9c65-2e6b69636164,rev?*%
%TF.SameCoordinates,Original*%
%TF.FileFunction,Copper,L4,Bot*%
%TF.FilePolarity,Positive*%
%FSLAX46Y46*%
G04 Gerber Fmt 4.6, Leading zero omitted, Abs format (unit mm)*
G04 Created by KiCad (PCBNEW 10.0.3) date 2026-06-21 10:55:10*
%MOMM*%
%LPD*%
G01*
G04 APERTURE LIST*
%TA.AperFunction,ViaPad*%
%ADD10C,0.460000*%
%TD*%
G04 APERTURE END LIST*
D10*
%TO.N,VCCAUX*%
X28000000Y-50000000D03*
X28500000Y-61000000D03*
%TO.N,VCCO_3V3*%
X18500000Y-18000000D03*
X16500000Y-29000000D03*
X31000000Y-47000000D03*
X25000000Y-49000000D03*
X20500000Y-52500000D03*
X20000000Y-54500000D03*
%TO.N,CLK*%
X17000000Y-43500000D03*
X24000000Y-47000000D03*
%TO.N,CCLK*%
X22500000Y-47000000D03*
X18000000Y-51500000D03*
%TO.N,DIN*%
X20500000Y-47000000D03*
X18000000Y-49500000D03*
%TO.N,DOUT*%
X20500000Y-45000000D03*
X19500000Y-49000000D03*
%TO.N,CFG_CS*%
X20500000Y-43000000D03*
X21000000Y-49000000D03*
%TO.N,TCK*%
X22500000Y-18500000D03*
X20500000Y-36000000D03*
%TO.N,TMS*%
X22500000Y-22500000D03*
X22000000Y-32500000D03*
X20500000Y-34500000D03*
%TO.N,TDI*%
X20500000Y-24000000D03*
X20500000Y-32000000D03*
X20500000Y-32500000D03*
%TO.N,TDO*%
X18500000Y-22000000D03*
X21500000Y-31500000D03*
%TO.N,TRIGOUT_0*%
X19500000Y-25500000D03*
X23000000Y-31500000D03*
%TO.N,TRIGOUT_1*%
X23000000Y-25500000D03*
X25000000Y-31500000D03*
%TO.N,TRIGOUT_2*%
X26000000Y-25500000D03*
X26500000Y-31500000D03*
%TO.N,TRIGOUT_3*%
X29500000Y-25500000D03*
X28500000Y-31500000D03*
%TO.N,TRIGOUT_4*%
X32500000Y-25500000D03*
X30500000Y-31500000D03*
%TO.N,TRIGOUT_5*%
X36000000Y-25500000D03*
X32000000Y-31500000D03*
%TO.N,TRIGOUT_6*%
X39000000Y-25500000D03*
X34000000Y-31500000D03*
%TO.N,TRIGOUT_7*%
X41000000Y-26500000D03*
X35500000Y-31500000D03*
%TO.N,TRIGOUT_8*%
X41000000Y-30000000D03*
X35500000Y-33500000D03*
%TO.N,TRIGOUT_10*%
X35000000Y-30000000D03*
X35500000Y-37000000D03*
%TO.N,TRIGOUT_11*%
X31500000Y-30000000D03*
X35500000Y-38500000D03*
%TO.N,TRIGOUT_12*%
X28500000Y-30000000D03*
X35500000Y-40500000D03*
%TO.N,TRIGOUT_13*%
X25000000Y-30000000D03*
X35500000Y-42500000D03*
%TO.N,TRIGOUT_14*%
X22000000Y-30000000D03*
X35500000Y-44000000D03*
%TO.N,TRIGOUT_15*%
X18500000Y-30000000D03*
X35500000Y-46000000D03*
%TD*%
%TA.AperFunction,Conductor*%
%TO.N,GND*%
G36*
X79458691Y-519407D02*
G01*
X79494655Y-568907D01*
X79499500Y-599500D01*
X79499500Y-79400500D01*
X79480593Y-79458691D01*
X79431093Y-79494655D01*
X79400500Y-79499500D01*
X599500Y-79499500D01*
X541309Y-79480593D01*
X505345Y-79431093D01*
X500500Y-79400500D01*
X500500Y-75878710D01*
X2149500Y-75878710D01*
X2149500Y-76121289D01*
X2181161Y-76361781D01*
X2181161Y-76361786D01*
X2243944Y-76596092D01*
X2243948Y-76596105D01*
X2336772Y-76820204D01*
X2336774Y-76820208D01*
X2336776Y-76820212D01*
X2458064Y-77030289D01*
X2458066Y-77030292D01*
X2605729Y-77222731D01*
X2605731Y-77222733D01*
X2605735Y-77222738D01*
X2777262Y-77394265D01*
X2777266Y-77394268D01*
X2777268Y-77394270D01*
X2969707Y-77541933D01*
X2969711Y-77541936D01*
X3179788Y-77663224D01*
X3403900Y-77756054D01*
X3638211Y-77818838D01*
X3878712Y-77850500D01*
X3878713Y-77850500D01*
X4121287Y-77850500D01*
X4121288Y-77850500D01*
X4361789Y-77818838D01*
X4596100Y-77756054D01*
X4820212Y-77663224D01*
X5030289Y-77541936D01*
X5222738Y-77394265D01*
X5394265Y-77222738D01*
X5541936Y-77030289D01*
X5663224Y-76820212D01*
X5756054Y-76596100D01*
X5818838Y-76361789D01*
X5850500Y-76121288D01*
X5850500Y-75878712D01*
X5850500Y-75878710D01*
X74149500Y-75878710D01*
X74149500Y-76121289D01*
X74181161Y-76361781D01*
X74181161Y-76361786D01*
X74243944Y-76596092D01*
X74243948Y-76596105D01*
X74336772Y-76820204D01*
X74336774Y-76820208D01*
X74336776Y-76820212D01*
X74458064Y-77030289D01*
X74458066Y-77030292D01*
X74605729Y-77222731D01*
X74605731Y-77222733D01*
X74605735Y-77222738D01*
X74777262Y-77394265D01*
X74777266Y-77394268D01*
X74777268Y-77394270D01*
X74969707Y-77541933D01*
X74969711Y-77541936D01*
X75179788Y-77663224D01*
X75403900Y-77756054D01*
X75638211Y-77818838D01*
X75878712Y-77850500D01*
X75878713Y-77850500D01*
X76121287Y-77850500D01*
X76121288Y-77850500D01*
X76361789Y-77818838D01*
X76596100Y-77756054D01*
X76820212Y-77663224D01*
X77030289Y-77541936D01*
X77222738Y-77394265D01*
X77394265Y-77222738D01*
X77541936Y-77030289D01*
X77663224Y-76820212D01*
X77756054Y-76596100D01*
X77818838Y-76361789D01*
X77850500Y-76121288D01*
X77850500Y-75878712D01*
X77818838Y-75638211D01*
X77756054Y-75403900D01*
X77663224Y-75179788D01*
X77541936Y-74969711D01*
X77394265Y-74777262D01*
X77222738Y-74605735D01*
X77222733Y-74605731D01*
X77222731Y-74605729D01*
X77030292Y-74458066D01*
X77030289Y-74458064D01*
X76820212Y-74336776D01*
X76820208Y-74336774D01*
X76820204Y-74336772D01*
X76596105Y-74243948D01*
X76596104Y-74243947D01*
X76596100Y-74243946D01*
X76361789Y-74181162D01*
X76361786Y-74181161D01*
X76361784Y-74181161D01*
X76121289Y-74149500D01*
X76121288Y-74149500D01*
X75878712Y-74149500D01*
X75878710Y-74149500D01*
X75638218Y-74181161D01*
X75638213Y-74181161D01*
X75403907Y-74243944D01*
X75403894Y-74243948D01*
X75179795Y-74336772D01*
X74969707Y-74458066D01*
X74777268Y-74605729D01*
X74605729Y-74777268D01*
X74458066Y-74969707D01*
X74336772Y-75179795D01*
X74243948Y-75403894D01*
X74243944Y-75403907D01*
X74181161Y-75638213D01*
X74181161Y-75638218D01*
X74149500Y-75878710D01*
X5850500Y-75878710D01*
X5818838Y-75638211D01*
X5756054Y-75403900D01*
X5663224Y-75179788D01*
X5541936Y-74969711D01*
X5394265Y-74777262D01*
X5222738Y-74605735D01*
X5222733Y-74605731D01*
X5222731Y-74605729D01*
X5030292Y-74458066D01*
X5030289Y-74458064D01*
X4820212Y-74336776D01*
X4820208Y-74336774D01*
X4820204Y-74336772D01*
X4596105Y-74243948D01*
X4596104Y-74243947D01*
X4596100Y-74243946D01*
X4361789Y-74181162D01*
X4361786Y-74181161D01*
X4361784Y-74181161D01*
X4121289Y-74149500D01*
X4121288Y-74149500D01*
X3878712Y-74149500D01*
X3878710Y-74149500D01*
X3638218Y-74181161D01*
X3638213Y-74181161D01*
X3403907Y-74243944D01*
X3403894Y-74243948D01*
X3179795Y-74336772D01*
X2969707Y-74458066D01*
X2777268Y-74605729D01*
X2605729Y-74777268D01*
X2458066Y-74969707D01*
X2336772Y-75179795D01*
X2243948Y-75403894D01*
X2243944Y-75403907D01*
X2181161Y-75638213D01*
X2181161Y-75638218D01*
X2149500Y-75878710D01*
X500500Y-75878710D01*
X500500Y-60952539D01*
X28139500Y-60952539D01*
X28139500Y-61047461D01*
X28161166Y-61128321D01*
X28164068Y-61139152D01*
X28211524Y-61221347D01*
X28211526Y-61221349D01*
X28211528Y-61221352D01*
X28278648Y-61288472D01*
X28278650Y-61288473D01*
X28278652Y-61288475D01*
X28360848Y-61335931D01*
X28360846Y-61335931D01*
X28360850Y-61335932D01*
X28360852Y-61335933D01*
X28452539Y-61360500D01*
X28452541Y-61360500D01*
X28547459Y-61360500D01*
X28547461Y-61360500D01*
X28639148Y-61335933D01*
X28639150Y-61335931D01*
X28639152Y-61335931D01*
X28721347Y-61288475D01*
X28721347Y-61288474D01*
X28721352Y-61288472D01*
X28788472Y-61221352D01*
X28835933Y-61139148D01*
X28860500Y-61047461D01*
X28860500Y-60952539D01*
X28835933Y-60860852D01*
X28835931Y-60860849D01*
X28835931Y-60860847D01*
X28788475Y-60778652D01*
X28788473Y-60778650D01*
X28788472Y-60778648D01*
X28721352Y-60711528D01*
X28721349Y-60711526D01*
X28721347Y-60711524D01*
X28639151Y-60664068D01*
X28639153Y-60664068D01*
X28603577Y-60654536D01*
X28547461Y-60639500D01*
X28452539Y-60639500D01*
X28396422Y-60654536D01*
X28360847Y-60664068D01*
X28278652Y-60711524D01*
X28211524Y-60778652D01*
X28164068Y-60860847D01*
X28164067Y-60860852D01*
X28139500Y-60952539D01*
X500500Y-60952539D01*
X500500Y-54452539D01*
X19639500Y-54452539D01*
X19639500Y-54547461D01*
X19661166Y-54628321D01*
X19664068Y-54639152D01*
X19711524Y-54721347D01*
X19711526Y-54721349D01*
X19711528Y-54721352D01*
X19778648Y-54788472D01*
X19778650Y-54788473D01*
X19778652Y-54788475D01*
X19860848Y-54835931D01*
X19860846Y-54835931D01*
X19860850Y-54835932D01*
X19860852Y-54835933D01*
X19952539Y-54860500D01*
X19952541Y-54860500D01*
X20047459Y-54860500D01*
X20047461Y-54860500D01*
X20139148Y-54835933D01*
X20139150Y-54835931D01*
X20139152Y-54835931D01*
X20221347Y-54788475D01*
X20221347Y-54788474D01*
X20221352Y-54788472D01*
X20288472Y-54721352D01*
X20335933Y-54639148D01*
X20360500Y-54547461D01*
X20360500Y-54452539D01*
X20335933Y-54360852D01*
X20335931Y-54360849D01*
X20335931Y-54360847D01*
X20288475Y-54278652D01*
X20288473Y-54278650D01*
X20288472Y-54278648D01*
X20221352Y-54211528D01*
X20221349Y-54211526D01*
X20221347Y-54211524D01*
X20139151Y-54164068D01*
X20139153Y-54164068D01*
X20103577Y-54154536D01*
X20047461Y-54139500D01*
X19952539Y-54139500D01*
X19896422Y-54154536D01*
X19860847Y-54164068D01*
X19778652Y-54211524D01*
X19711524Y-54278652D01*
X19664068Y-54360847D01*
X19664067Y-54360852D01*
X19639500Y-54452539D01*
X500500Y-54452539D01*
X500500Y-52452539D01*
X20139500Y-52452539D01*
X20139500Y-52547461D01*
X20161166Y-52628321D01*
X20164068Y-52639152D01*
X20211524Y-52721347D01*
X20211526Y-52721349D01*
X20211528Y-52721352D01*
X20278648Y-52788472D01*
X20278650Y-52788473D01*
X20278652Y-52788475D01*
X20360848Y-52835931D01*
X20360846Y-52835931D01*
X20360850Y-52835932D01*
X20360852Y-52835933D01*
X20452539Y-52860500D01*
X20452541Y-52860500D01*
X20547459Y-52860500D01*
X20547461Y-52860500D01*
X20639148Y-52835933D01*
X20639150Y-52835931D01*
X20639152Y-52835931D01*
X20721347Y-52788475D01*
X20721347Y-52788474D01*
X20721352Y-52788472D01*
X20788472Y-52721352D01*
X20835933Y-52639148D01*
X20860500Y-52547461D01*
X20860500Y-52452539D01*
X20835933Y-52360852D01*
X20835931Y-52360849D01*
X20835931Y-52360847D01*
X20788475Y-52278652D01*
X20788473Y-52278650D01*
X20788472Y-52278648D01*
X20721352Y-52211528D01*
X20721349Y-52211526D01*
X20721347Y-52211524D01*
X20639151Y-52164068D01*
X20639153Y-52164068D01*
X20603577Y-52154536D01*
X20547461Y-52139500D01*
X20452539Y-52139500D01*
X20396422Y-52154536D01*
X20360847Y-52164068D01*
X20278652Y-52211524D01*
X20211524Y-52278652D01*
X20164068Y-52360847D01*
X20164067Y-52360852D01*
X20139500Y-52452539D01*
X500500Y-52452539D01*
X500500Y-51452539D01*
X17639500Y-51452539D01*
X17639500Y-51547461D01*
X17661166Y-51628321D01*
X17664068Y-51639152D01*
X17711524Y-51721347D01*
X17711526Y-51721349D01*
X17711528Y-51721352D01*
X17778648Y-51788472D01*
X17778650Y-51788473D01*
X17778652Y-51788475D01*
X17860848Y-51835931D01*
X17860846Y-51835931D01*
X17860850Y-51835932D01*
X17860852Y-51835933D01*
X17952539Y-51860500D01*
X17952541Y-51860500D01*
X18047459Y-51860500D01*
X18047461Y-51860500D01*
X18139148Y-51835933D01*
X18139150Y-51835931D01*
X18139152Y-51835931D01*
X18221347Y-51788475D01*
X18221347Y-51788474D01*
X18221352Y-51788472D01*
X18288472Y-51721352D01*
X18335933Y-51639148D01*
X18360500Y-51547461D01*
X18360500Y-51452539D01*
X18335933Y-51360852D01*
X18335931Y-51360849D01*
X18335931Y-51360847D01*
X18288475Y-51278652D01*
X18288473Y-51278650D01*
X18288472Y-51278648D01*
X18221352Y-51211528D01*
X18221349Y-51211526D01*
X18221347Y-51211524D01*
X18139151Y-51164068D01*
X18139153Y-51164068D01*
X18103577Y-51154536D01*
X18047461Y-51139500D01*
X17952539Y-51139500D01*
X17896422Y-51154536D01*
X17860847Y-51164068D01*
X17778652Y-51211524D01*
X17711524Y-51278652D01*
X17664068Y-51360847D01*
X17664067Y-51360852D01*
X17639500Y-51452539D01*
X500500Y-51452539D01*
X500500Y-49952539D01*
X27639500Y-49952539D01*
X27639500Y-50047461D01*
X27661166Y-50128321D01*
X27664068Y-50139152D01*
X27711524Y-50221347D01*
X27711526Y-50221349D01*
X27711528Y-50221352D01*
X27778648Y-50288472D01*
X27778650Y-50288473D01*
X27778652Y-50288475D01*
X27860848Y-50335931D01*
X27860846Y-50335931D01*
X27860850Y-50335932D01*
X27860852Y-50335933D01*
X27952539Y-50360500D01*
X27952541Y-50360500D01*
X28047459Y-50360500D01*
X28047461Y-50360500D01*
X28139148Y-50335933D01*
X28139150Y-50335931D01*
X28139152Y-50335931D01*
X28221347Y-50288475D01*
X28221347Y-50288474D01*
X28221352Y-50288472D01*
X28288472Y-50221352D01*
X28335933Y-50139148D01*
X28360500Y-50047461D01*
X28360500Y-49952539D01*
X28335933Y-49860852D01*
X28335931Y-49860849D01*
X28335931Y-49860847D01*
X28288475Y-49778652D01*
X28288473Y-49778650D01*
X28288472Y-49778648D01*
X28221352Y-49711528D01*
X28221349Y-49711526D01*
X28221347Y-49711524D01*
X28139151Y-49664068D01*
X28139153Y-49664068D01*
X28103577Y-49654536D01*
X28047461Y-49639500D01*
X27952539Y-49639500D01*
X27896422Y-49654536D01*
X27860847Y-49664068D01*
X27778652Y-49711524D01*
X27711524Y-49778652D01*
X27664068Y-49860847D01*
X27664067Y-49860852D01*
X27639500Y-49952539D01*
X500500Y-49952539D01*
X500500Y-49452539D01*
X17639500Y-49452539D01*
X17639500Y-49547461D01*
X17661166Y-49628321D01*
X17664068Y-49639152D01*
X17711524Y-49721347D01*
X17711526Y-49721349D01*
X17711528Y-49721352D01*
X17778648Y-49788472D01*
X17778650Y-49788473D01*
X17778652Y-49788475D01*
X17860848Y-49835931D01*
X17860846Y-49835931D01*
X17860850Y-49835932D01*
X17860852Y-49835933D01*
X17952539Y-49860500D01*
X17952541Y-49860500D01*
X18047459Y-49860500D01*
X18047461Y-49860500D01*
X18139148Y-49835933D01*
X18139150Y-49835931D01*
X18139152Y-49835931D01*
X18221347Y-49788475D01*
X18221347Y-49788474D01*
X18221352Y-49788472D01*
X18288472Y-49721352D01*
X18294146Y-49711524D01*
X18335931Y-49639152D01*
X18335931Y-49639150D01*
X18335933Y-49639148D01*
X18360500Y-49547461D01*
X18360500Y-49452539D01*
X18335933Y-49360852D01*
X18335931Y-49360849D01*
X18335931Y-49360847D01*
X18288475Y-49278652D01*
X18288473Y-49278650D01*
X18288472Y-49278648D01*
X18221352Y-49211528D01*
X18221349Y-49211526D01*
X18221347Y-49211524D01*
X18139151Y-49164068D01*
X18139153Y-49164068D01*
X18103577Y-49154536D01*
X18047461Y-49139500D01*
X17952539Y-49139500D01*
X17896422Y-49154536D01*
X17860847Y-49164068D01*
X17778652Y-49211524D01*
X17711524Y-49278652D01*
X17664068Y-49360847D01*
X17664067Y-49360852D01*
X17639500Y-49452539D01*
X500500Y-49452539D01*
X500500Y-48952539D01*
X19139500Y-48952539D01*
X19139500Y-49047461D01*
X19161166Y-49128321D01*
X19164068Y-49139152D01*
X19211524Y-49221347D01*
X19211526Y-49221349D01*
X19211528Y-49221352D01*
X19278648Y-49288472D01*
X19278650Y-49288473D01*
X19278652Y-49288475D01*
X19360848Y-49335931D01*
X19360846Y-49335931D01*
X19360850Y-49335932D01*
X19360852Y-49335933D01*
X19452539Y-49360500D01*
X19452541Y-49360500D01*
X19547459Y-49360500D01*
X19547461Y-49360500D01*
X19639148Y-49335933D01*
X19639150Y-49335931D01*
X19639152Y-49335931D01*
X19721347Y-49288475D01*
X19721347Y-49288474D01*
X19721352Y-49288472D01*
X19788472Y-49221352D01*
X19794146Y-49211524D01*
X19835931Y-49139152D01*
X19835931Y-49139150D01*
X19835933Y-49139148D01*
X19860500Y-49047461D01*
X19860500Y-48952539D01*
X20639500Y-48952539D01*
X20639500Y-49047461D01*
X20661166Y-49128321D01*
X20664068Y-49139152D01*
X20711524Y-49221347D01*
X20711526Y-49221349D01*
X20711528Y-49221352D01*
X20778648Y-49288472D01*
X20778650Y-49288473D01*
X20778652Y-49288475D01*
X20860848Y-49335931D01*
X20860846Y-49335931D01*
X20860850Y-49335932D01*
X20860852Y-49335933D01*
X20952539Y-49360500D01*
X20952541Y-49360500D01*
X21047459Y-49360500D01*
X21047461Y-49360500D01*
X21139148Y-49335933D01*
X21139150Y-49335931D01*
X21139152Y-49335931D01*
X21221347Y-49288475D01*
X21221347Y-49288474D01*
X21221352Y-49288472D01*
X21288472Y-49221352D01*
X21294146Y-49211524D01*
X21335931Y-49139152D01*
X21335931Y-49139150D01*
X21335933Y-49139148D01*
X21360500Y-49047461D01*
X21360500Y-48952539D01*
X24639500Y-48952539D01*
X24639500Y-49047461D01*
X24661166Y-49128321D01*
X24664068Y-49139152D01*
X24711524Y-49221347D01*
X24711526Y-49221349D01*
X24711528Y-49221352D01*
X24778648Y-49288472D01*
X24778650Y-49288473D01*
X24778652Y-49288475D01*
X24860848Y-49335931D01*
X24860846Y-49335931D01*
X24860850Y-49335932D01*
X24860852Y-49335933D01*
X24952539Y-49360500D01*
X24952541Y-49360500D01*
X25047459Y-49360500D01*
X25047461Y-49360500D01*
X25139148Y-49335933D01*
X25139150Y-49335931D01*
X25139152Y-49335931D01*
X25221347Y-49288475D01*
X25221347Y-49288474D01*
X25221352Y-49288472D01*
X25288472Y-49221352D01*
X25294146Y-49211524D01*
X25335931Y-49139152D01*
X25335931Y-49139150D01*
X25335933Y-49139148D01*
X25360500Y-49047461D01*
X25360500Y-48952539D01*
X25335933Y-48860852D01*
X25335931Y-48860849D01*
X25335931Y-48860847D01*
X25288475Y-48778652D01*
X25288473Y-48778650D01*
X25288472Y-48778648D01*
X25221352Y-48711528D01*
X25221349Y-48711526D01*
X25221347Y-48711524D01*
X25139151Y-48664068D01*
X25139153Y-48664068D01*
X25103577Y-48654536D01*
X25047461Y-48639500D01*
X24952539Y-48639500D01*
X24896422Y-48654536D01*
X24860847Y-48664068D01*
X24778652Y-48711524D01*
X24711524Y-48778652D01*
X24664068Y-48860847D01*
X24664067Y-48860852D01*
X24639500Y-48952539D01*
X21360500Y-48952539D01*
X21335933Y-48860852D01*
X21335931Y-48860849D01*
X21335931Y-48860847D01*
X21288475Y-48778652D01*
X21288473Y-48778650D01*
X21288472Y-48778648D01*
X21221352Y-48711528D01*
X21221349Y-48711526D01*
X21221347Y-48711524D01*
X21139151Y-48664068D01*
X21139153Y-48664068D01*
X21103577Y-48654536D01*
X21047461Y-48639500D01*
X20952539Y-48639500D01*
X20896422Y-48654536D01*
X20860847Y-48664068D01*
X20778652Y-48711524D01*
X20711524Y-48778652D01*
X20664068Y-48860847D01*
X20664067Y-48860852D01*
X20639500Y-48952539D01*
X19860500Y-48952539D01*
X19835933Y-48860852D01*
X19835931Y-48860849D01*
X19835931Y-48860847D01*
X19788475Y-48778652D01*
X19788473Y-48778650D01*
X19788472Y-48778648D01*
X19721352Y-48711528D01*
X19721349Y-48711526D01*
X19721347Y-48711524D01*
X19639151Y-48664068D01*
X19639153Y-48664068D01*
X19603577Y-48654536D01*
X19547461Y-48639500D01*
X19452539Y-48639500D01*
X19396422Y-48654536D01*
X19360847Y-48664068D01*
X19278652Y-48711524D01*
X19211524Y-48778652D01*
X19164068Y-48860847D01*
X19164067Y-48860852D01*
X19139500Y-48952539D01*
X500500Y-48952539D01*
X500500Y-46952539D01*
X20139500Y-46952539D01*
X20139500Y-47047461D01*
X20161166Y-47128321D01*
X20164068Y-47139152D01*
X20211524Y-47221347D01*
X20211526Y-47221349D01*
X20211528Y-47221352D01*
X20278648Y-47288472D01*
X20278650Y-47288473D01*
X20278652Y-47288475D01*
X20360848Y-47335931D01*
X20360846Y-47335931D01*
X20360850Y-47335932D01*
X20360852Y-47335933D01*
X20452539Y-47360500D01*
X20452541Y-47360500D01*
X20547459Y-47360500D01*
X20547461Y-47360500D01*
X20639148Y-47335933D01*
X20639150Y-47335931D01*
X20639152Y-47335931D01*
X20721347Y-47288475D01*
X20721347Y-47288474D01*
X20721352Y-47288472D01*
X20788472Y-47221352D01*
X20835933Y-47139148D01*
X20860500Y-47047461D01*
X20860500Y-46952539D01*
X22139500Y-46952539D01*
X22139500Y-47047461D01*
X22161166Y-47128321D01*
X22164068Y-47139152D01*
X22211524Y-47221347D01*
X22211526Y-47221349D01*
X22211528Y-47221352D01*
X22278648Y-47288472D01*
X22278650Y-47288473D01*
X22278652Y-47288475D01*
X22360848Y-47335931D01*
X22360846Y-47335931D01*
X22360850Y-47335932D01*
X22360852Y-47335933D01*
X22452539Y-47360500D01*
X22452541Y-47360500D01*
X22547459Y-47360500D01*
X22547461Y-47360500D01*
X22639148Y-47335933D01*
X22639150Y-47335931D01*
X22639152Y-47335931D01*
X22721347Y-47288475D01*
X22721347Y-47288474D01*
X22721352Y-47288472D01*
X22788472Y-47221352D01*
X22835933Y-47139148D01*
X22860500Y-47047461D01*
X22860500Y-46952539D01*
X23639500Y-46952539D01*
X23639500Y-47047461D01*
X23661166Y-47128321D01*
X23664068Y-47139152D01*
X23711524Y-47221347D01*
X23711526Y-47221349D01*
X23711528Y-47221352D01*
X23778648Y-47288472D01*
X23778650Y-47288473D01*
X23778652Y-47288475D01*
X23860848Y-47335931D01*
X23860846Y-47335931D01*
X23860850Y-47335932D01*
X23860852Y-47335933D01*
X23952539Y-47360500D01*
X23952541Y-47360500D01*
X24047459Y-47360500D01*
X24047461Y-47360500D01*
X24139148Y-47335933D01*
X24139150Y-47335931D01*
X24139152Y-47335931D01*
X24221347Y-47288475D01*
X24221347Y-47288474D01*
X24221352Y-47288472D01*
X24288472Y-47221352D01*
X24335933Y-47139148D01*
X24360500Y-47047461D01*
X24360500Y-46952539D01*
X30639500Y-46952539D01*
X30639500Y-47047461D01*
X30661166Y-47128321D01*
X30664068Y-47139152D01*
X30711524Y-47221347D01*
X30711526Y-47221349D01*
X30711528Y-47221352D01*
X30778648Y-47288472D01*
X30778650Y-47288473D01*
X30778652Y-47288475D01*
X30860848Y-47335931D01*
X30860846Y-47335931D01*
X30860850Y-47335932D01*
X30860852Y-47335933D01*
X30952539Y-47360500D01*
X30952541Y-47360500D01*
X31047459Y-47360500D01*
X31047461Y-47360500D01*
X31139148Y-47335933D01*
X31139150Y-47335931D01*
X31139152Y-47335931D01*
X31221347Y-47288475D01*
X31221347Y-47288474D01*
X31221352Y-47288472D01*
X31288472Y-47221352D01*
X31335933Y-47139148D01*
X31360500Y-47047461D01*
X31360500Y-46952539D01*
X31335933Y-46860852D01*
X31335931Y-46860849D01*
X31335931Y-46860847D01*
X31288475Y-46778652D01*
X31288473Y-46778650D01*
X31288472Y-46778648D01*
X31221352Y-46711528D01*
X31221349Y-46711526D01*
X31221347Y-46711524D01*
X31139151Y-46664068D01*
X31139153Y-46664068D01*
X31103577Y-46654536D01*
X31047461Y-46639500D01*
X30952539Y-46639500D01*
X30896422Y-46654536D01*
X30860847Y-46664068D01*
X30778652Y-46711524D01*
X30711524Y-46778652D01*
X30664068Y-46860847D01*
X30664067Y-46860852D01*
X30639500Y-46952539D01*
X24360500Y-46952539D01*
X24335933Y-46860852D01*
X24335931Y-46860849D01*
X24335931Y-46860847D01*
X24288475Y-46778652D01*
X24288473Y-46778650D01*
X24288472Y-46778648D01*
X24221352Y-46711528D01*
X24221349Y-46711526D01*
X24221347Y-46711524D01*
X24139151Y-46664068D01*
X24139153Y-46664068D01*
X24103577Y-46654536D01*
X24047461Y-46639500D01*
X23952539Y-46639500D01*
X23896422Y-46654536D01*
X23860847Y-46664068D01*
X23778652Y-46711524D01*
X23711524Y-46778652D01*
X23664068Y-46860847D01*
X23664067Y-46860852D01*
X23639500Y-46952539D01*
X22860500Y-46952539D01*
X22835933Y-46860852D01*
X22835931Y-46860849D01*
X22835931Y-46860847D01*
X22788475Y-46778652D01*
X22788473Y-46778650D01*
X22788472Y-46778648D01*
X22721352Y-46711528D01*
X22721349Y-46711526D01*
X22721347Y-46711524D01*
X22639151Y-46664068D01*
X22639153Y-46664068D01*
X22603577Y-46654536D01*
X22547461Y-46639500D01*
X22452539Y-46639500D01*
X22396422Y-46654536D01*
X22360847Y-46664068D01*
X22278652Y-46711524D01*
X22211524Y-46778652D01*
X22164068Y-46860847D01*
X22164067Y-46860852D01*
X22139500Y-46952539D01*
X20860500Y-46952539D01*
X20835933Y-46860852D01*
X20835931Y-46860849D01*
X20835931Y-46860847D01*
X20788475Y-46778652D01*
X20788473Y-46778650D01*
X20788472Y-46778648D01*
X20721352Y-46711528D01*
X20721349Y-46711526D01*
X20721347Y-46711524D01*
X20639151Y-46664068D01*
X20639153Y-46664068D01*
X20603577Y-46654536D01*
X20547461Y-46639500D01*
X20452539Y-46639500D01*
X20396422Y-46654536D01*
X20360847Y-46664068D01*
X20278652Y-46711524D01*
X20211524Y-46778652D01*
X20164068Y-46860847D01*
X20164067Y-46860852D01*
X20139500Y-46952539D01*
X500500Y-46952539D01*
X500500Y-45952539D01*
X35139500Y-45952539D01*
X35139500Y-46047461D01*
X35161166Y-46128321D01*
X35164068Y-46139152D01*
X35211524Y-46221347D01*
X35211526Y-46221349D01*
X35211528Y-46221352D01*
X35278648Y-46288472D01*
X35278650Y-46288473D01*
X35278652Y-46288475D01*
X35360848Y-46335931D01*
X35360846Y-46335931D01*
X35360850Y-46335932D01*
X35360852Y-46335933D01*
X35452539Y-46360500D01*
X35452541Y-46360500D01*
X35547459Y-46360500D01*
X35547461Y-46360500D01*
X35639148Y-46335933D01*
X35639150Y-46335931D01*
X35639152Y-46335931D01*
X35721347Y-46288475D01*
X35721347Y-46288474D01*
X35721352Y-46288472D01*
X35788472Y-46221352D01*
X35835933Y-46139148D01*
X35860500Y-46047461D01*
X35860500Y-45952539D01*
X35835933Y-45860852D01*
X35835931Y-45860849D01*
X35835931Y-45860847D01*
X35788475Y-45778652D01*
X35788473Y-45778650D01*
X35788472Y-45778648D01*
X35721352Y-45711528D01*
X35721349Y-45711526D01*
X35721347Y-45711524D01*
X35639151Y-45664068D01*
X35639153Y-45664068D01*
X35603577Y-45654536D01*
X35547461Y-45639500D01*
X35452539Y-45639500D01*
X35396422Y-45654536D01*
X35360847Y-45664068D01*
X35278652Y-45711524D01*
X35211524Y-45778652D01*
X35164068Y-45860847D01*
X35164067Y-45860852D01*
X35139500Y-45952539D01*
X500500Y-45952539D01*
X500500Y-44952539D01*
X20139500Y-44952539D01*
X20139500Y-45047461D01*
X20161166Y-45128321D01*
X20164068Y-45139152D01*
X20211524Y-45221347D01*
X20211526Y-45221349D01*
X20211528Y-45221352D01*
X20278648Y-45288472D01*
X20278650Y-45288473D01*
X20278652Y-45288475D01*
X20360848Y-45335931D01*
X20360846Y-45335931D01*
X20360850Y-45335932D01*
X20360852Y-45335933D01*
X20452539Y-45360500D01*
X20452541Y-45360500D01*
X20547459Y-45360500D01*
X20547461Y-45360500D01*
X20639148Y-45335933D01*
X20639150Y-45335931D01*
X20639152Y-45335931D01*
X20721347Y-45288475D01*
X20721347Y-45288474D01*
X20721352Y-45288472D01*
X20788472Y-45221352D01*
X20835933Y-45139148D01*
X20860500Y-45047461D01*
X20860500Y-44952539D01*
X20835933Y-44860852D01*
X20835931Y-44860849D01*
X20835931Y-44860847D01*
X20788475Y-44778652D01*
X20788473Y-44778650D01*
X20788472Y-44778648D01*
X20721352Y-44711528D01*
X20721349Y-44711526D01*
X20721347Y-44711524D01*
X20639151Y-44664068D01*
X20639153Y-44664068D01*
X20603577Y-44654536D01*
X20547461Y-44639500D01*
X20452539Y-44639500D01*
X20396422Y-44654536D01*
X20360847Y-44664068D01*
X20278652Y-44711524D01*
X20211524Y-44778652D01*
X20164068Y-44860847D01*
X20164067Y-44860852D01*
X20139500Y-44952539D01*
X500500Y-44952539D01*
X500500Y-43952539D01*
X35139500Y-43952539D01*
X35139500Y-44047461D01*
X35161166Y-44128321D01*
X35164068Y-44139152D01*
X35211524Y-44221347D01*
X35211526Y-44221349D01*
X35211528Y-44221352D01*
X35278648Y-44288472D01*
X35278650Y-44288473D01*
X35278652Y-44288475D01*
X35360848Y-44335931D01*
X35360846Y-44335931D01*
X35360850Y-44335932D01*
X35360852Y-44335933D01*
X35452539Y-44360500D01*
X35452541Y-44360500D01*
X35547459Y-44360500D01*
X35547461Y-44360500D01*
X35639148Y-44335933D01*
X35639150Y-44335931D01*
X35639152Y-44335931D01*
X35721347Y-44288475D01*
X35721347Y-44288474D01*
X35721352Y-44288472D01*
X35788472Y-44221352D01*
X35835933Y-44139148D01*
X35860500Y-44047461D01*
X35860500Y-43952539D01*
X35835933Y-43860852D01*
X35835931Y-43860849D01*
X35835931Y-43860847D01*
X35788475Y-43778652D01*
X35788473Y-43778650D01*
X35788472Y-43778648D01*
X35721352Y-43711528D01*
X35721349Y-43711526D01*
X35721347Y-43711524D01*
X35639151Y-43664068D01*
X35639153Y-43664068D01*
X35603577Y-43654536D01*
X35547461Y-43639500D01*
X35452539Y-43639500D01*
X35396422Y-43654536D01*
X35360847Y-43664068D01*
X35278652Y-43711524D01*
X35211524Y-43778652D01*
X35164068Y-43860847D01*
X35164067Y-43860852D01*
X35139500Y-43952539D01*
X500500Y-43952539D01*
X500500Y-43452539D01*
X16639500Y-43452539D01*
X16639500Y-43547461D01*
X16661166Y-43628321D01*
X16664068Y-43639152D01*
X16711524Y-43721347D01*
X16711526Y-43721349D01*
X16711528Y-43721352D01*
X16778648Y-43788472D01*
X16778650Y-43788473D01*
X16778652Y-43788475D01*
X16860848Y-43835931D01*
X16860846Y-43835931D01*
X16860850Y-43835932D01*
X16860852Y-43835933D01*
X16952539Y-43860500D01*
X16952541Y-43860500D01*
X17047459Y-43860500D01*
X17047461Y-43860500D01*
X17139148Y-43835933D01*
X17139150Y-43835931D01*
X17139152Y-43835931D01*
X17221347Y-43788475D01*
X17221347Y-43788474D01*
X17221352Y-43788472D01*
X17288472Y-43721352D01*
X17294146Y-43711524D01*
X17335931Y-43639152D01*
X17335931Y-43639150D01*
X17335933Y-43639148D01*
X17360500Y-43547461D01*
X17360500Y-43452539D01*
X17335933Y-43360852D01*
X17335931Y-43360849D01*
X17335931Y-43360847D01*
X17288475Y-43278652D01*
X17288473Y-43278650D01*
X17288472Y-43278648D01*
X17221352Y-43211528D01*
X17221349Y-43211526D01*
X17221347Y-43211524D01*
X17139151Y-43164068D01*
X17139153Y-43164068D01*
X17103577Y-43154536D01*
X17047461Y-43139500D01*
X16952539Y-43139500D01*
X16896422Y-43154536D01*
X16860847Y-43164068D01*
X16778652Y-43211524D01*
X16711524Y-43278652D01*
X16664068Y-43360847D01*
X16664067Y-43360852D01*
X16639500Y-43452539D01*
X500500Y-43452539D01*
X500500Y-42952539D01*
X20139500Y-42952539D01*
X20139500Y-43047461D01*
X20161166Y-43128321D01*
X20164068Y-43139152D01*
X20211524Y-43221347D01*
X20211526Y-43221349D01*
X20211528Y-43221352D01*
X20278648Y-43288472D01*
X20278650Y-43288473D01*
X20278652Y-43288475D01*
X20360848Y-43335931D01*
X20360846Y-43335931D01*
X20360850Y-43335932D01*
X20360852Y-43335933D01*
X20452539Y-43360500D01*
X20452541Y-43360500D01*
X20547459Y-43360500D01*
X20547461Y-43360500D01*
X20639148Y-43335933D01*
X20639150Y-43335931D01*
X20639152Y-43335931D01*
X20721347Y-43288475D01*
X20721347Y-43288474D01*
X20721352Y-43288472D01*
X20788472Y-43221352D01*
X20794146Y-43211524D01*
X20835931Y-43139152D01*
X20835931Y-43139150D01*
X20835933Y-43139148D01*
X20860500Y-43047461D01*
X20860500Y-42952539D01*
X20835933Y-42860852D01*
X20835931Y-42860849D01*
X20835931Y-42860847D01*
X20788475Y-42778652D01*
X20788473Y-42778650D01*
X20788472Y-42778648D01*
X20721352Y-42711528D01*
X20721349Y-42711526D01*
X20721347Y-42711524D01*
X20639151Y-42664068D01*
X20639153Y-42664068D01*
X20603577Y-42654536D01*
X20547461Y-42639500D01*
X20452539Y-42639500D01*
X20396422Y-42654536D01*
X20360847Y-42664068D01*
X20278652Y-42711524D01*
X20211524Y-42778652D01*
X20164068Y-42860847D01*
X20164067Y-42860852D01*
X20139500Y-42952539D01*
X500500Y-42952539D01*
X500500Y-42452539D01*
X35139500Y-42452539D01*
X35139500Y-42547461D01*
X35161166Y-42628321D01*
X35164068Y-42639152D01*
X35211524Y-42721347D01*
X35211526Y-42721349D01*
X35211528Y-42721352D01*
X35278648Y-42788472D01*
X35278650Y-42788473D01*
X35278652Y-42788475D01*
X35360848Y-42835931D01*
X35360846Y-42835931D01*
X35360850Y-42835932D01*
X35360852Y-42835933D01*
X35452539Y-42860500D01*
X35452541Y-42860500D01*
X35547459Y-42860500D01*
X35547461Y-42860500D01*
X35639148Y-42835933D01*
X35639150Y-42835931D01*
X35639152Y-42835931D01*
X35721347Y-42788475D01*
X35721347Y-42788474D01*
X35721352Y-42788472D01*
X35788472Y-42721352D01*
X35794146Y-42711524D01*
X35835931Y-42639152D01*
X35835931Y-42639150D01*
X35835933Y-42639148D01*
X35860500Y-42547461D01*
X35860500Y-42452539D01*
X35835933Y-42360852D01*
X35835931Y-42360849D01*
X35835931Y-42360847D01*
X35788475Y-42278652D01*
X35788473Y-42278650D01*
X35788472Y-42278648D01*
X35721352Y-42211528D01*
X35721349Y-42211526D01*
X35721347Y-42211524D01*
X35639151Y-42164068D01*
X35639153Y-42164068D01*
X35603577Y-42154536D01*
X35547461Y-42139500D01*
X35452539Y-42139500D01*
X35396422Y-42154536D01*
X35360847Y-42164068D01*
X35278652Y-42211524D01*
X35211524Y-42278652D01*
X35164068Y-42360847D01*
X35164067Y-42360852D01*
X35139500Y-42452539D01*
X500500Y-42452539D01*
X500500Y-40452539D01*
X35139500Y-40452539D01*
X35139500Y-40547461D01*
X35161166Y-40628321D01*
X35164068Y-40639152D01*
X35211524Y-40721347D01*
X35211526Y-40721349D01*
X35211528Y-40721352D01*
X35278648Y-40788472D01*
X35278650Y-40788473D01*
X35278652Y-40788475D01*
X35360848Y-40835931D01*
X35360846Y-40835931D01*
X35360850Y-40835932D01*
X35360852Y-40835933D01*
X35452539Y-40860500D01*
X35452541Y-40860500D01*
X35547459Y-40860500D01*
X35547461Y-40860500D01*
X35639148Y-40835933D01*
X35639150Y-40835931D01*
X35639152Y-40835931D01*
X35721347Y-40788475D01*
X35721347Y-40788474D01*
X35721352Y-40788472D01*
X35788472Y-40721352D01*
X35835933Y-40639148D01*
X35860500Y-40547461D01*
X35860500Y-40452539D01*
X35835933Y-40360852D01*
X35835931Y-40360849D01*
X35835931Y-40360847D01*
X35788475Y-40278652D01*
X35788473Y-40278650D01*
X35788472Y-40278648D01*
X35721352Y-40211528D01*
X35721349Y-40211526D01*
X35721347Y-40211524D01*
X35639151Y-40164068D01*
X35639153Y-40164068D01*
X35603577Y-40154536D01*
X35547461Y-40139500D01*
X35452539Y-40139500D01*
X35396422Y-40154536D01*
X35360847Y-40164068D01*
X35278652Y-40211524D01*
X35211524Y-40278652D01*
X35164068Y-40360847D01*
X35164067Y-40360852D01*
X35139500Y-40452539D01*
X500500Y-40452539D01*
X500500Y-38452539D01*
X35139500Y-38452539D01*
X35139500Y-38547461D01*
X35161166Y-38628321D01*
X35164068Y-38639152D01*
X35211524Y-38721347D01*
X35211526Y-38721349D01*
X35211528Y-38721352D01*
X35278648Y-38788472D01*
X35278650Y-38788473D01*
X35278652Y-38788475D01*
X35360848Y-38835931D01*
X35360846Y-38835931D01*
X35360850Y-38835932D01*
X35360852Y-38835933D01*
X35452539Y-38860500D01*
X35452541Y-38860500D01*
X35547459Y-38860500D01*
X35547461Y-38860500D01*
X35639148Y-38835933D01*
X35639150Y-38835931D01*
X35639152Y-38835931D01*
X35721347Y-38788475D01*
X35721347Y-38788474D01*
X35721352Y-38788472D01*
X35788472Y-38721352D01*
X35835933Y-38639148D01*
X35860500Y-38547461D01*
X35860500Y-38452539D01*
X35835933Y-38360852D01*
X35835931Y-38360849D01*
X35835931Y-38360847D01*
X35788475Y-38278652D01*
X35788473Y-38278650D01*
X35788472Y-38278648D01*
X35721352Y-38211528D01*
X35721349Y-38211526D01*
X35721347Y-38211524D01*
X35639151Y-38164068D01*
X35639153Y-38164068D01*
X35603577Y-38154536D01*
X35547461Y-38139500D01*
X35452539Y-38139500D01*
X35396422Y-38154536D01*
X35360847Y-38164068D01*
X35278652Y-38211524D01*
X35211524Y-38278652D01*
X35164068Y-38360847D01*
X35164067Y-38360852D01*
X35139500Y-38452539D01*
X500500Y-38452539D01*
X500500Y-36952539D01*
X35139500Y-36952539D01*
X35139500Y-37047461D01*
X35161166Y-37128321D01*
X35164068Y-37139152D01*
X35211524Y-37221347D01*
X35211526Y-37221349D01*
X35211528Y-37221352D01*
X35278648Y-37288472D01*
X35278650Y-37288473D01*
X35278652Y-37288475D01*
X35360848Y-37335931D01*
X35360846Y-37335931D01*
X35360850Y-37335932D01*
X35360852Y-37335933D01*
X35452539Y-37360500D01*
X35452541Y-37360500D01*
X35547459Y-37360500D01*
X35547461Y-37360500D01*
X35639148Y-37335933D01*
X35639150Y-37335931D01*
X35639152Y-37335931D01*
X35721347Y-37288475D01*
X35721347Y-37288474D01*
X35721352Y-37288472D01*
X35788472Y-37221352D01*
X35835933Y-37139148D01*
X35860500Y-37047461D01*
X35860500Y-36952539D01*
X35835933Y-36860852D01*
X35835931Y-36860849D01*
X35835931Y-36860847D01*
X35788475Y-36778652D01*
X35788473Y-36778650D01*
X35788472Y-36778648D01*
X35721352Y-36711528D01*
X35721349Y-36711526D01*
X35721347Y-36711524D01*
X35639151Y-36664068D01*
X35639153Y-36664068D01*
X35603577Y-36654536D01*
X35547461Y-36639500D01*
X35452539Y-36639500D01*
X35396422Y-36654536D01*
X35360847Y-36664068D01*
X35278652Y-36711524D01*
X35211524Y-36778652D01*
X35164068Y-36860847D01*
X35164067Y-36860852D01*
X35139500Y-36952539D01*
X500500Y-36952539D01*
X500500Y-35952539D01*
X20139500Y-35952539D01*
X20139500Y-36047461D01*
X20161166Y-36128321D01*
X20164068Y-36139152D01*
X20211524Y-36221347D01*
X20211526Y-36221349D01*
X20211528Y-36221352D01*
X20278648Y-36288472D01*
X20278650Y-36288473D01*
X20278652Y-36288475D01*
X20360848Y-36335931D01*
X20360846Y-36335931D01*
X20360850Y-36335932D01*
X20360852Y-36335933D01*
X20452539Y-36360500D01*
X20452541Y-36360500D01*
X20547459Y-36360500D01*
X20547461Y-36360500D01*
X20639148Y-36335933D01*
X20639150Y-36335931D01*
X20639152Y-36335931D01*
X20721347Y-36288475D01*
X20721347Y-36288474D01*
X20721352Y-36288472D01*
X20788472Y-36221352D01*
X20835933Y-36139148D01*
X20860500Y-36047461D01*
X20860500Y-35952539D01*
X20835933Y-35860852D01*
X20835931Y-35860849D01*
X20835931Y-35860847D01*
X20788475Y-35778652D01*
X20788473Y-35778650D01*
X20788472Y-35778648D01*
X20721352Y-35711528D01*
X20721349Y-35711526D01*
X20721347Y-35711524D01*
X20639151Y-35664068D01*
X20639153Y-35664068D01*
X20603577Y-35654536D01*
X20547461Y-35639500D01*
X20452539Y-35639500D01*
X20396422Y-35654536D01*
X20360847Y-35664068D01*
X20278652Y-35711524D01*
X20211524Y-35778652D01*
X20164068Y-35860847D01*
X20164067Y-35860852D01*
X20139500Y-35952539D01*
X500500Y-35952539D01*
X500500Y-34452539D01*
X20139500Y-34452539D01*
X20139500Y-34547461D01*
X20161166Y-34628321D01*
X20164068Y-34639152D01*
X20211524Y-34721347D01*
X20211526Y-34721349D01*
X20211528Y-34721352D01*
X20278648Y-34788472D01*
X20278650Y-34788473D01*
X20278652Y-34788475D01*
X20360848Y-34835931D01*
X20360846Y-34835931D01*
X20360850Y-34835932D01*
X20360852Y-34835933D01*
X20452539Y-34860500D01*
X20452541Y-34860500D01*
X20547459Y-34860500D01*
X20547461Y-34860500D01*
X20639148Y-34835933D01*
X20639150Y-34835931D01*
X20639152Y-34835931D01*
X20721347Y-34788475D01*
X20721347Y-34788474D01*
X20721352Y-34788472D01*
X20788472Y-34721352D01*
X20835933Y-34639148D01*
X20860500Y-34547461D01*
X20860500Y-34452539D01*
X20835933Y-34360852D01*
X20835931Y-34360849D01*
X20835931Y-34360847D01*
X20788475Y-34278652D01*
X20788473Y-34278650D01*
X20788472Y-34278648D01*
X20721352Y-34211528D01*
X20721349Y-34211526D01*
X20721347Y-34211524D01*
X20639151Y-34164068D01*
X20639153Y-34164068D01*
X20603577Y-34154536D01*
X20547461Y-34139500D01*
X20452539Y-34139500D01*
X20396422Y-34154536D01*
X20360847Y-34164068D01*
X20278652Y-34211524D01*
X20211524Y-34278652D01*
X20164068Y-34360847D01*
X20164067Y-34360852D01*
X20139500Y-34452539D01*
X500500Y-34452539D01*
X500500Y-33452539D01*
X35139500Y-33452539D01*
X35139500Y-33547461D01*
X35161166Y-33628321D01*
X35164068Y-33639152D01*
X35211524Y-33721347D01*
X35211526Y-33721349D01*
X35211528Y-33721352D01*
X35278648Y-33788472D01*
X35278650Y-33788473D01*
X35278652Y-33788475D01*
X35360848Y-33835931D01*
X35360846Y-33835931D01*
X35360850Y-33835932D01*
X35360852Y-33835933D01*
X35452539Y-33860500D01*
X35452541Y-33860500D01*
X35547459Y-33860500D01*
X35547461Y-33860500D01*
X35639148Y-33835933D01*
X35639150Y-33835931D01*
X35639152Y-33835931D01*
X35721347Y-33788475D01*
X35721347Y-33788474D01*
X35721352Y-33788472D01*
X35788472Y-33721352D01*
X35835933Y-33639148D01*
X35860500Y-33547461D01*
X35860500Y-33452539D01*
X35835933Y-33360852D01*
X35835931Y-33360849D01*
X35835931Y-33360847D01*
X35788475Y-33278652D01*
X35788473Y-33278650D01*
X35788472Y-33278648D01*
X35721352Y-33211528D01*
X35721349Y-33211526D01*
X35721347Y-33211524D01*
X35639151Y-33164068D01*
X35639153Y-33164068D01*
X35603577Y-33154536D01*
X35547461Y-33139500D01*
X35452539Y-33139500D01*
X35396422Y-33154536D01*
X35360847Y-33164068D01*
X35278652Y-33211524D01*
X35211524Y-33278652D01*
X35164068Y-33360847D01*
X35164067Y-33360852D01*
X35139500Y-33452539D01*
X500500Y-33452539D01*
X500500Y-31952539D01*
X20139500Y-31952539D01*
X20139500Y-32047461D01*
X20161166Y-32128321D01*
X20164068Y-32139152D01*
X20199488Y-32200500D01*
X20212210Y-32260348D01*
X20199488Y-32299500D01*
X20164068Y-32360847D01*
X20164067Y-32360852D01*
X20139500Y-32452539D01*
X20139500Y-32547461D01*
X20161166Y-32628321D01*
X20164068Y-32639152D01*
X20211524Y-32721347D01*
X20211526Y-32721349D01*
X20211528Y-32721352D01*
X20278648Y-32788472D01*
X20278650Y-32788473D01*
X20278652Y-32788475D01*
X20360848Y-32835931D01*
X20360846Y-32835931D01*
X20360850Y-32835932D01*
X20360852Y-32835933D01*
X20452539Y-32860500D01*
X20452541Y-32860500D01*
X20547459Y-32860500D01*
X20547461Y-32860500D01*
X20639148Y-32835933D01*
X20639150Y-32835931D01*
X20639152Y-32835931D01*
X20721347Y-32788475D01*
X20721347Y-32788474D01*
X20721352Y-32788472D01*
X20788472Y-32721352D01*
X20835933Y-32639148D01*
X20860500Y-32547461D01*
X20860500Y-32452539D01*
X21639500Y-32452539D01*
X21639500Y-32547461D01*
X21661166Y-32628321D01*
X21664068Y-32639152D01*
X21711524Y-32721347D01*
X21711526Y-32721349D01*
X21711528Y-32721352D01*
X21778648Y-32788472D01*
X21778650Y-32788473D01*
X21778652Y-32788475D01*
X21860848Y-32835931D01*
X21860846Y-32835931D01*
X21860850Y-32835932D01*
X21860852Y-32835933D01*
X21952539Y-32860500D01*
X21952541Y-32860500D01*
X22047459Y-32860500D01*
X22047461Y-32860500D01*
X22139148Y-32835933D01*
X22139150Y-32835931D01*
X22139152Y-32835931D01*
X22221347Y-32788475D01*
X22221347Y-32788474D01*
X22221352Y-32788472D01*
X22288472Y-32721352D01*
X22335933Y-32639148D01*
X22360500Y-32547461D01*
X22360500Y-32452539D01*
X22335933Y-32360852D01*
X22335931Y-32360849D01*
X22335931Y-32360847D01*
X22288475Y-32278652D01*
X22288473Y-32278650D01*
X22288472Y-32278648D01*
X22221352Y-32211528D01*
X22221349Y-32211526D01*
X22221347Y-32211524D01*
X22139151Y-32164068D01*
X22139153Y-32164068D01*
X22103577Y-32154536D01*
X22047461Y-32139500D01*
X21952539Y-32139500D01*
X21896422Y-32154536D01*
X21860847Y-32164068D01*
X21778652Y-32211524D01*
X21711524Y-32278652D01*
X21664068Y-32360847D01*
X21664067Y-32360852D01*
X21639500Y-32452539D01*
X20860500Y-32452539D01*
X20835933Y-32360852D01*
X20800510Y-32299499D01*
X20787789Y-32239653D01*
X20800511Y-32200500D01*
X20835933Y-32139148D01*
X20860500Y-32047461D01*
X20860500Y-31952539D01*
X20835933Y-31860852D01*
X20835931Y-31860849D01*
X20835931Y-31860847D01*
X20788475Y-31778652D01*
X20788473Y-31778650D01*
X20788472Y-31778648D01*
X20721352Y-31711528D01*
X20721349Y-31711526D01*
X20721347Y-31711524D01*
X20639151Y-31664068D01*
X20639153Y-31664068D01*
X20603577Y-31654536D01*
X20547461Y-31639500D01*
X20452539Y-31639500D01*
X20396422Y-31654536D01*
X20360847Y-31664068D01*
X20278652Y-31711524D01*
X20211524Y-31778652D01*
X20164068Y-31860847D01*
X20164067Y-31860852D01*
X20139500Y-31952539D01*
X500500Y-31952539D01*
X500500Y-31452539D01*
X21139500Y-31452539D01*
X21139500Y-31547461D01*
X21161166Y-31628321D01*
X21164068Y-31639152D01*
X21211524Y-31721347D01*
X21211526Y-31721349D01*
X21211528Y-31721352D01*
X21278648Y-31788472D01*
X21278650Y-31788473D01*
X21278652Y-31788475D01*
X21360848Y-31835931D01*
X21360846Y-31835931D01*
X21360850Y-31835932D01*
X21360852Y-31835933D01*
X21452539Y-31860500D01*
X21452541Y-31860500D01*
X21547459Y-31860500D01*
X21547461Y-31860500D01*
X21639148Y-31835933D01*
X21639150Y-31835931D01*
X21639152Y-31835931D01*
X21721347Y-31788475D01*
X21721347Y-31788474D01*
X21721352Y-31788472D01*
X21788472Y-31721352D01*
X21794146Y-31711524D01*
X21835931Y-31639152D01*
X21835931Y-31639150D01*
X21835933Y-31639148D01*
X21860500Y-31547461D01*
X21860500Y-31452539D01*
X22639500Y-31452539D01*
X22639500Y-31547461D01*
X22661166Y-31628321D01*
X22664068Y-31639152D01*
X22711524Y-31721347D01*
X22711526Y-31721349D01*
X22711528Y-31721352D01*
X22778648Y-31788472D01*
X22778650Y-31788473D01*
X22778652Y-31788475D01*
X22860848Y-31835931D01*
X22860846Y-31835931D01*
X22860850Y-31835932D01*
X22860852Y-31835933D01*
X22952539Y-31860500D01*
X22952541Y-31860500D01*
X23047459Y-31860500D01*
X23047461Y-31860500D01*
X23139148Y-31835933D01*
X23139150Y-31835931D01*
X23139152Y-31835931D01*
X23221347Y-31788475D01*
X23221347Y-31788474D01*
X23221352Y-31788472D01*
X23288472Y-31721352D01*
X23294146Y-31711524D01*
X23335931Y-31639152D01*
X23335931Y-31639150D01*
X23335933Y-31639148D01*
X23360500Y-31547461D01*
X23360500Y-31452539D01*
X24639500Y-31452539D01*
X24639500Y-31547461D01*
X24661166Y-31628321D01*
X24664068Y-31639152D01*
X24711524Y-31721347D01*
X24711526Y-31721349D01*
X24711528Y-31721352D01*
X24778648Y-31788472D01*
X24778650Y-31788473D01*
X24778652Y-31788475D01*
X24860848Y-31835931D01*
X24860846Y-31835931D01*
X24860850Y-31835932D01*
X24860852Y-31835933D01*
X24952539Y-31860500D01*
X24952541Y-31860500D01*
X25047459Y-31860500D01*
X25047461Y-31860500D01*
X25139148Y-31835933D01*
X25139150Y-31835931D01*
X25139152Y-31835931D01*
X25221347Y-31788475D01*
X25221347Y-31788474D01*
X25221352Y-31788472D01*
X25288472Y-31721352D01*
X25294146Y-31711524D01*
X25335931Y-31639152D01*
X25335931Y-31639150D01*
X25335933Y-31639148D01*
X25360500Y-31547461D01*
X25360500Y-31452539D01*
X26139500Y-31452539D01*
X26139500Y-31547461D01*
X26161166Y-31628321D01*
X26164068Y-31639152D01*
X26211524Y-31721347D01*
X26211526Y-31721349D01*
X26211528Y-31721352D01*
X26278648Y-31788472D01*
X26278650Y-31788473D01*
X26278652Y-31788475D01*
X26360848Y-31835931D01*
X26360846Y-31835931D01*
X26360850Y-31835932D01*
X26360852Y-31835933D01*
X26452539Y-31860500D01*
X26452541Y-31860500D01*
X26547459Y-31860500D01*
X26547461Y-31860500D01*
X26639148Y-31835933D01*
X26639150Y-31835931D01*
X26639152Y-31835931D01*
X26721347Y-31788475D01*
X26721347Y-31788474D01*
X26721352Y-31788472D01*
X26788472Y-31721352D01*
X26794146Y-31711524D01*
X26835931Y-31639152D01*
X26835931Y-31639150D01*
X26835933Y-31639148D01*
X26860500Y-31547461D01*
X26860500Y-31452539D01*
X28139500Y-31452539D01*
X28139500Y-31547461D01*
X28161166Y-31628321D01*
X28164068Y-31639152D01*
X28211524Y-31721347D01*
X28211526Y-31721349D01*
X28211528Y-31721352D01*
X28278648Y-31788472D01*
X28278650Y-31788473D01*
X28278652Y-31788475D01*
X28360848Y-31835931D01*
X28360846Y-31835931D01*
X28360850Y-31835932D01*
X28360852Y-31835933D01*
X28452539Y-31860500D01*
X28452541Y-31860500D01*
X28547459Y-31860500D01*
X28547461Y-31860500D01*
X28639148Y-31835933D01*
X28639150Y-31835931D01*
X28639152Y-31835931D01*
X28721347Y-31788475D01*
X28721347Y-31788474D01*
X28721352Y-31788472D01*
X28788472Y-31721352D01*
X28794146Y-31711524D01*
X28835931Y-31639152D01*
X28835931Y-31639150D01*
X28835933Y-31639148D01*
X28860500Y-31547461D01*
X28860500Y-31452539D01*
X30139500Y-31452539D01*
X30139500Y-31547461D01*
X30161166Y-31628321D01*
X30164068Y-31639152D01*
X30211524Y-31721347D01*
X30211526Y-31721349D01*
X30211528Y-31721352D01*
X30278648Y-31788472D01*
X30278650Y-31788473D01*
X30278652Y-31788475D01*
X30360848Y-31835931D01*
X30360846Y-31835931D01*
X30360850Y-31835932D01*
X30360852Y-31835933D01*
X30452539Y-31860500D01*
X30452541Y-31860500D01*
X30547459Y-31860500D01*
X30547461Y-31860500D01*
X30639148Y-31835933D01*
X30639150Y-31835931D01*
X30639152Y-31835931D01*
X30721347Y-31788475D01*
X30721347Y-31788474D01*
X30721352Y-31788472D01*
X30788472Y-31721352D01*
X30794146Y-31711524D01*
X30835931Y-31639152D01*
X30835931Y-31639150D01*
X30835933Y-31639148D01*
X30860500Y-31547461D01*
X30860500Y-31452539D01*
X31639500Y-31452539D01*
X31639500Y-31547461D01*
X31661166Y-31628321D01*
X31664068Y-31639152D01*
X31711524Y-31721347D01*
X31711526Y-31721349D01*
X31711528Y-31721352D01*
X31778648Y-31788472D01*
X31778650Y-31788473D01*
X31778652Y-31788475D01*
X31860848Y-31835931D01*
X31860846Y-31835931D01*
X31860850Y-31835932D01*
X31860852Y-31835933D01*
X31952539Y-31860500D01*
X31952541Y-31860500D01*
X32047459Y-31860500D01*
X32047461Y-31860500D01*
X32139148Y-31835933D01*
X32139150Y-31835931D01*
X32139152Y-31835931D01*
X32221347Y-31788475D01*
X32221347Y-31788474D01*
X32221352Y-31788472D01*
X32288472Y-31721352D01*
X32294146Y-31711524D01*
X32335931Y-31639152D01*
X32335931Y-31639150D01*
X32335933Y-31639148D01*
X32360500Y-31547461D01*
X32360500Y-31452539D01*
X33639500Y-31452539D01*
X33639500Y-31547461D01*
X33661166Y-31628321D01*
X33664068Y-31639152D01*
X33711524Y-31721347D01*
X33711526Y-31721349D01*
X33711528Y-31721352D01*
X33778648Y-31788472D01*
X33778650Y-31788473D01*
X33778652Y-31788475D01*
X33860848Y-31835931D01*
X33860846Y-31835931D01*
X33860850Y-31835932D01*
X33860852Y-31835933D01*
X33952539Y-31860500D01*
X33952541Y-31860500D01*
X34047459Y-31860500D01*
X34047461Y-31860500D01*
X34139148Y-31835933D01*
X34139150Y-31835931D01*
X34139152Y-31835931D01*
X34221347Y-31788475D01*
X34221347Y-31788474D01*
X34221352Y-31788472D01*
X34288472Y-31721352D01*
X34294146Y-31711524D01*
X34335931Y-31639152D01*
X34335931Y-31639150D01*
X34335933Y-31639148D01*
X34360500Y-31547461D01*
X34360500Y-31452539D01*
X35139500Y-31452539D01*
X35139500Y-31547461D01*
X35161166Y-31628321D01*
X35164068Y-31639152D01*
X35211524Y-31721347D01*
X35211526Y-31721349D01*
X35211528Y-31721352D01*
X35278648Y-31788472D01*
X35278650Y-31788473D01*
X35278652Y-31788475D01*
X35360848Y-31835931D01*
X35360846Y-31835931D01*
X35360850Y-31835932D01*
X35360852Y-31835933D01*
X35452539Y-31860500D01*
X35452541Y-31860500D01*
X35547459Y-31860500D01*
X35547461Y-31860500D01*
X35639148Y-31835933D01*
X35639150Y-31835931D01*
X35639152Y-31835931D01*
X35721347Y-31788475D01*
X35721347Y-31788474D01*
X35721352Y-31788472D01*
X35788472Y-31721352D01*
X35794146Y-31711524D01*
X35835931Y-31639152D01*
X35835931Y-31639150D01*
X35835933Y-31639148D01*
X35860500Y-31547461D01*
X35860500Y-31452539D01*
X35835933Y-31360852D01*
X35835931Y-31360849D01*
X35835931Y-31360847D01*
X35788475Y-31278652D01*
X35788473Y-31278650D01*
X35788472Y-31278648D01*
X35721352Y-31211528D01*
X35721349Y-31211526D01*
X35721347Y-31211524D01*
X35639151Y-31164068D01*
X35639153Y-31164068D01*
X35603577Y-31154536D01*
X35547461Y-31139500D01*
X35452539Y-31139500D01*
X35396422Y-31154536D01*
X35360847Y-31164068D01*
X35278652Y-31211524D01*
X35211524Y-31278652D01*
X35164068Y-31360847D01*
X35164067Y-31360852D01*
X35139500Y-31452539D01*
X34360500Y-31452539D01*
X34335933Y-31360852D01*
X34335931Y-31360849D01*
X34335931Y-31360847D01*
X34288475Y-31278652D01*
X34288473Y-31278650D01*
X34288472Y-31278648D01*
X34221352Y-31211528D01*
X34221349Y-31211526D01*
X34221347Y-31211524D01*
X34139151Y-31164068D01*
X34139153Y-31164068D01*
X34103577Y-31154536D01*
X34047461Y-31139500D01*
X33952539Y-31139500D01*
X33896422Y-31154536D01*
X33860847Y-31164068D01*
X33778652Y-31211524D01*
X33711524Y-31278652D01*
X33664068Y-31360847D01*
X33664067Y-31360852D01*
X33639500Y-31452539D01*
X32360500Y-31452539D01*
X32335933Y-31360852D01*
X32335931Y-31360849D01*
X32335931Y-31360847D01*
X32288475Y-31278652D01*
X32288473Y-31278650D01*
X32288472Y-31278648D01*
X32221352Y-31211528D01*
X32221349Y-31211526D01*
X32221347Y-31211524D01*
X32139151Y-31164068D01*
X32139153Y-31164068D01*
X32103577Y-31154536D01*
X32047461Y-31139500D01*
X31952539Y-31139500D01*
X31896422Y-31154536D01*
X31860847Y-31164068D01*
X31778652Y-31211524D01*
X31711524Y-31278652D01*
X31664068Y-31360847D01*
X31664067Y-31360852D01*
X31639500Y-31452539D01*
X30860500Y-31452539D01*
X30835933Y-31360852D01*
X30835931Y-31360849D01*
X30835931Y-31360847D01*
X30788475Y-31278652D01*
X30788473Y-31278650D01*
X30788472Y-31278648D01*
X30721352Y-31211528D01*
X30721349Y-31211526D01*
X30721347Y-31211524D01*
X30639151Y-31164068D01*
X30639153Y-31164068D01*
X30603577Y-31154536D01*
X30547461Y-31139500D01*
X30452539Y-31139500D01*
X30396422Y-31154536D01*
X30360847Y-31164068D01*
X30278652Y-31211524D01*
X30211524Y-31278652D01*
X30164068Y-31360847D01*
X30164067Y-31360852D01*
X30139500Y-31452539D01*
X28860500Y-31452539D01*
X28835933Y-31360852D01*
X28835931Y-31360849D01*
X28835931Y-31360847D01*
X28788475Y-31278652D01*
X28788473Y-31278650D01*
X28788472Y-31278648D01*
X28721352Y-31211528D01*
X28721349Y-31211526D01*
X28721347Y-31211524D01*
X28639151Y-31164068D01*
X28639153Y-31164068D01*
X28603577Y-31154536D01*
X28547461Y-31139500D01*
X28452539Y-31139500D01*
X28396422Y-31154536D01*
X28360847Y-31164068D01*
X28278652Y-31211524D01*
X28211524Y-31278652D01*
X28164068Y-31360847D01*
X28164067Y-31360852D01*
X28139500Y-31452539D01*
X26860500Y-31452539D01*
X26835933Y-31360852D01*
X26835931Y-31360849D01*
X26835931Y-31360847D01*
X26788475Y-31278652D01*
X26788473Y-31278650D01*
X26788472Y-31278648D01*
X26721352Y-31211528D01*
X26721349Y-31211526D01*
X26721347Y-31211524D01*
X26639151Y-31164068D01*
X26639153Y-31164068D01*
X26603577Y-31154536D01*
X26547461Y-31139500D01*
X26452539Y-31139500D01*
X26396422Y-31154536D01*
X26360847Y-31164068D01*
X26278652Y-31211524D01*
X26211524Y-31278652D01*
X26164068Y-31360847D01*
X26164067Y-31360852D01*
X26139500Y-31452539D01*
X25360500Y-31452539D01*
X25335933Y-31360852D01*
X25335931Y-31360849D01*
X25335931Y-31360847D01*
X25288475Y-31278652D01*
X25288473Y-31278650D01*
X25288472Y-31278648D01*
X25221352Y-31211528D01*
X25221349Y-31211526D01*
X25221347Y-31211524D01*
X25139151Y-31164068D01*
X25139153Y-31164068D01*
X25103577Y-31154536D01*
X25047461Y-31139500D01*
X24952539Y-31139500D01*
X24896422Y-31154536D01*
X24860847Y-31164068D01*
X24778652Y-31211524D01*
X24711524Y-31278652D01*
X24664068Y-31360847D01*
X24664067Y-31360852D01*
X24639500Y-31452539D01*
X23360500Y-31452539D01*
X23335933Y-31360852D01*
X23335931Y-31360849D01*
X23335931Y-31360847D01*
X23288475Y-31278652D01*
X23288473Y-31278650D01*
X23288472Y-31278648D01*
X23221352Y-31211528D01*
X23221349Y-31211526D01*
X23221347Y-31211524D01*
X23139151Y-31164068D01*
X23139153Y-31164068D01*
X23103577Y-31154536D01*
X23047461Y-31139500D01*
X22952539Y-31139500D01*
X22896422Y-31154536D01*
X22860847Y-31164068D01*
X22778652Y-31211524D01*
X22711524Y-31278652D01*
X22664068Y-31360847D01*
X22664067Y-31360852D01*
X22639500Y-31452539D01*
X21860500Y-31452539D01*
X21835933Y-31360852D01*
X21835931Y-31360849D01*
X21835931Y-31360847D01*
X21788475Y-31278652D01*
X21788473Y-31278650D01*
X21788472Y-31278648D01*
X21721352Y-31211528D01*
X21721349Y-31211526D01*
X21721347Y-31211524D01*
X21639151Y-31164068D01*
X21639153Y-31164068D01*
X21603577Y-31154536D01*
X21547461Y-31139500D01*
X21452539Y-31139500D01*
X21396422Y-31154536D01*
X21360847Y-31164068D01*
X21278652Y-31211524D01*
X21211524Y-31278652D01*
X21164068Y-31360847D01*
X21164067Y-31360852D01*
X21139500Y-31452539D01*
X500500Y-31452539D01*
X500500Y-29952539D01*
X18139500Y-29952539D01*
X18139500Y-30047461D01*
X18161166Y-30128321D01*
X18164068Y-30139152D01*
X18211524Y-30221347D01*
X18211526Y-30221349D01*
X18211528Y-30221352D01*
X18278648Y-30288472D01*
X18278650Y-30288473D01*
X18278652Y-30288475D01*
X18360848Y-30335931D01*
X18360846Y-30335931D01*
X18360850Y-30335932D01*
X18360852Y-30335933D01*
X18452539Y-30360500D01*
X18452541Y-30360500D01*
X18547459Y-30360500D01*
X18547461Y-30360500D01*
X18639148Y-30335933D01*
X18639150Y-30335931D01*
X18639152Y-30335931D01*
X18721347Y-30288475D01*
X18721347Y-30288474D01*
X18721352Y-30288472D01*
X18788472Y-30221352D01*
X18835933Y-30139148D01*
X18860500Y-30047461D01*
X18860500Y-29952539D01*
X21639500Y-29952539D01*
X21639500Y-30047461D01*
X21661166Y-30128321D01*
X21664068Y-30139152D01*
X21711524Y-30221347D01*
X21711526Y-30221349D01*
X21711528Y-30221352D01*
X21778648Y-30288472D01*
X21778650Y-30288473D01*
X21778652Y-30288475D01*
X21860848Y-30335931D01*
X21860846Y-30335931D01*
X21860850Y-30335932D01*
X21860852Y-30335933D01*
X21952539Y-30360500D01*
X21952541Y-30360500D01*
X22047459Y-30360500D01*
X22047461Y-30360500D01*
X22139148Y-30335933D01*
X22139150Y-30335931D01*
X22139152Y-30335931D01*
X22221347Y-30288475D01*
X22221347Y-30288474D01*
X22221352Y-30288472D01*
X22288472Y-30221352D01*
X22335933Y-30139148D01*
X22360500Y-30047461D01*
X22360500Y-29952539D01*
X24639500Y-29952539D01*
X24639500Y-30047461D01*
X24661166Y-30128321D01*
X24664068Y-30139152D01*
X24711524Y-30221347D01*
X24711526Y-30221349D01*
X24711528Y-30221352D01*
X24778648Y-30288472D01*
X24778650Y-30288473D01*
X24778652Y-30288475D01*
X24860848Y-30335931D01*
X24860846Y-30335931D01*
X24860850Y-30335932D01*
X24860852Y-30335933D01*
X24952539Y-30360500D01*
X24952541Y-30360500D01*
X25047459Y-30360500D01*
X25047461Y-30360500D01*
X25139148Y-30335933D01*
X25139150Y-30335931D01*
X25139152Y-30335931D01*
X25221347Y-30288475D01*
X25221347Y-30288474D01*
X25221352Y-30288472D01*
X25288472Y-30221352D01*
X25335933Y-30139148D01*
X25360500Y-30047461D01*
X25360500Y-29952539D01*
X28139500Y-29952539D01*
X28139500Y-30047461D01*
X28161166Y-30128321D01*
X28164068Y-30139152D01*
X28211524Y-30221347D01*
X28211526Y-30221349D01*
X28211528Y-30221352D01*
X28278648Y-30288472D01*
X28278650Y-30288473D01*
X28278652Y-30288475D01*
X28360848Y-30335931D01*
X28360846Y-30335931D01*
X28360850Y-30335932D01*
X28360852Y-30335933D01*
X28452539Y-30360500D01*
X28452541Y-30360500D01*
X28547459Y-30360500D01*
X28547461Y-30360500D01*
X28639148Y-30335933D01*
X28639150Y-30335931D01*
X28639152Y-30335931D01*
X28721347Y-30288475D01*
X28721347Y-30288474D01*
X28721352Y-30288472D01*
X28788472Y-30221352D01*
X28835933Y-30139148D01*
X28860500Y-30047461D01*
X28860500Y-29952539D01*
X31139500Y-29952539D01*
X31139500Y-30047461D01*
X31161166Y-30128321D01*
X31164068Y-30139152D01*
X31211524Y-30221347D01*
X31211526Y-30221349D01*
X31211528Y-30221352D01*
X31278648Y-30288472D01*
X31278650Y-30288473D01*
X31278652Y-30288475D01*
X31360848Y-30335931D01*
X31360846Y-30335931D01*
X31360850Y-30335932D01*
X31360852Y-30335933D01*
X31452539Y-30360500D01*
X31452541Y-30360500D01*
X31547459Y-30360500D01*
X31547461Y-30360500D01*
X31639148Y-30335933D01*
X31639150Y-30335931D01*
X31639152Y-30335931D01*
X31721347Y-30288475D01*
X31721347Y-30288474D01*
X31721352Y-30288472D01*
X31788472Y-30221352D01*
X31835933Y-30139148D01*
X31860500Y-30047461D01*
X31860500Y-29952539D01*
X34639500Y-29952539D01*
X34639500Y-30047461D01*
X34661166Y-30128321D01*
X34664068Y-30139152D01*
X34711524Y-30221347D01*
X34711526Y-30221349D01*
X34711528Y-30221352D01*
X34778648Y-30288472D01*
X34778650Y-30288473D01*
X34778652Y-30288475D01*
X34860848Y-30335931D01*
X34860846Y-30335931D01*
X34860850Y-30335932D01*
X34860852Y-30335933D01*
X34952539Y-30360500D01*
X34952541Y-30360500D01*
X35047459Y-30360500D01*
X35047461Y-30360500D01*
X35139148Y-30335933D01*
X35139150Y-30335931D01*
X35139152Y-30335931D01*
X35221347Y-30288475D01*
X35221347Y-30288474D01*
X35221352Y-30288472D01*
X35288472Y-30221352D01*
X35335933Y-30139148D01*
X35360500Y-30047461D01*
X35360500Y-29952539D01*
X40639500Y-29952539D01*
X40639500Y-30047461D01*
X40661166Y-30128321D01*
X40664068Y-30139152D01*
X40711524Y-30221347D01*
X40711526Y-30221349D01*
X40711528Y-30221352D01*
X40778648Y-30288472D01*
X40778650Y-30288473D01*
X40778652Y-30288475D01*
X40860848Y-30335931D01*
X40860846Y-30335931D01*
X40860850Y-30335932D01*
X40860852Y-30335933D01*
X40952539Y-30360500D01*
X40952541Y-30360500D01*
X41047459Y-30360500D01*
X41047461Y-30360500D01*
X41139148Y-30335933D01*
X41139150Y-30335931D01*
X41139152Y-30335931D01*
X41221347Y-30288475D01*
X41221347Y-30288474D01*
X41221352Y-30288472D01*
X41288472Y-30221352D01*
X41335933Y-30139148D01*
X41360500Y-30047461D01*
X41360500Y-29952539D01*
X41335933Y-29860852D01*
X41335931Y-29860849D01*
X41335931Y-29860847D01*
X41288475Y-29778652D01*
X41288473Y-29778650D01*
X41288472Y-29778648D01*
X41221352Y-29711528D01*
X41221349Y-29711526D01*
X41221347Y-29711524D01*
X41139151Y-29664068D01*
X41139153Y-29664068D01*
X41103577Y-29654536D01*
X41047461Y-29639500D01*
X40952539Y-29639500D01*
X40896422Y-29654536D01*
X40860847Y-29664068D01*
X40778652Y-29711524D01*
X40711524Y-29778652D01*
X40664068Y-29860847D01*
X40664067Y-29860852D01*
X40639500Y-29952539D01*
X35360500Y-29952539D01*
X35335933Y-29860852D01*
X35335931Y-29860849D01*
X35335931Y-29860847D01*
X35288475Y-29778652D01*
X35288473Y-29778650D01*
X35288472Y-29778648D01*
X35221352Y-29711528D01*
X35221349Y-29711526D01*
X35221347Y-29711524D01*
X35139151Y-29664068D01*
X35139153Y-29664068D01*
X35103577Y-29654536D01*
X35047461Y-29639500D01*
X34952539Y-29639500D01*
X34896422Y-29654536D01*
X34860847Y-29664068D01*
X34778652Y-29711524D01*
X34711524Y-29778652D01*
X34664068Y-29860847D01*
X34664067Y-29860852D01*
X34639500Y-29952539D01*
X31860500Y-29952539D01*
X31835933Y-29860852D01*
X31835931Y-29860849D01*
X31835931Y-29860847D01*
X31788475Y-29778652D01*
X31788473Y-29778650D01*
X31788472Y-29778648D01*
X31721352Y-29711528D01*
X31721349Y-29711526D01*
X31721347Y-29711524D01*
X31639151Y-29664068D01*
X31639153Y-29664068D01*
X31603577Y-29654536D01*
X31547461Y-29639500D01*
X31452539Y-29639500D01*
X31396422Y-29654536D01*
X31360847Y-29664068D01*
X31278652Y-29711524D01*
X31211524Y-29778652D01*
X31164068Y-29860847D01*
X31164067Y-29860852D01*
X31139500Y-29952539D01*
X28860500Y-29952539D01*
X28835933Y-29860852D01*
X28835931Y-29860849D01*
X28835931Y-29860847D01*
X28788475Y-29778652D01*
X28788473Y-29778650D01*
X28788472Y-29778648D01*
X28721352Y-29711528D01*
X28721349Y-29711526D01*
X28721347Y-29711524D01*
X28639151Y-29664068D01*
X28639153Y-29664068D01*
X28603577Y-29654536D01*
X28547461Y-29639500D01*
X28452539Y-29639500D01*
X28396422Y-29654536D01*
X28360847Y-29664068D01*
X28278652Y-29711524D01*
X28211524Y-29778652D01*
X28164068Y-29860847D01*
X28164067Y-29860852D01*
X28139500Y-29952539D01*
X25360500Y-29952539D01*
X25335933Y-29860852D01*
X25335931Y-29860849D01*
X25335931Y-29860847D01*
X25288475Y-29778652D01*
X25288473Y-29778650D01*
X25288472Y-29778648D01*
X25221352Y-29711528D01*
X25221349Y-29711526D01*
X25221347Y-29711524D01*
X25139151Y-29664068D01*
X25139153Y-29664068D01*
X25103577Y-29654536D01*
X25047461Y-29639500D01*
X24952539Y-29639500D01*
X24896422Y-29654536D01*
X24860847Y-29664068D01*
X24778652Y-29711524D01*
X24711524Y-29778652D01*
X24664068Y-29860847D01*
X24664067Y-29860852D01*
X24639500Y-29952539D01*
X22360500Y-29952539D01*
X22335933Y-29860852D01*
X22335931Y-29860849D01*
X22335931Y-29860847D01*
X22288475Y-29778652D01*
X22288473Y-29778650D01*
X22288472Y-29778648D01*
X22221352Y-29711528D01*
X22221349Y-29711526D01*
X22221347Y-29711524D01*
X22139151Y-29664068D01*
X22139153Y-29664068D01*
X22103577Y-29654536D01*
X22047461Y-29639500D01*
X21952539Y-29639500D01*
X21896422Y-29654536D01*
X21860847Y-29664068D01*
X21778652Y-29711524D01*
X21711524Y-29778652D01*
X21664068Y-29860847D01*
X21664067Y-29860852D01*
X21639500Y-29952539D01*
X18860500Y-29952539D01*
X18835933Y-29860852D01*
X18835931Y-29860849D01*
X18835931Y-29860847D01*
X18788475Y-29778652D01*
X18788473Y-29778650D01*
X18788472Y-29778648D01*
X18721352Y-29711528D01*
X18721349Y-29711526D01*
X18721347Y-29711524D01*
X18639151Y-29664068D01*
X18639153Y-29664068D01*
X18603577Y-29654536D01*
X18547461Y-29639500D01*
X18452539Y-29639500D01*
X18396422Y-29654536D01*
X18360847Y-29664068D01*
X18278652Y-29711524D01*
X18211524Y-29778652D01*
X18164068Y-29860847D01*
X18164067Y-29860852D01*
X18139500Y-29952539D01*
X500500Y-29952539D01*
X500500Y-28952539D01*
X16139500Y-28952539D01*
X16139500Y-29047461D01*
X16161166Y-29128321D01*
X16164068Y-29139152D01*
X16211524Y-29221347D01*
X16211526Y-29221349D01*
X16211528Y-29221352D01*
X16278648Y-29288472D01*
X16278650Y-29288473D01*
X16278652Y-29288475D01*
X16360848Y-29335931D01*
X16360846Y-29335931D01*
X16360850Y-29335932D01*
X16360852Y-29335933D01*
X16452539Y-29360500D01*
X16452541Y-29360500D01*
X16547459Y-29360500D01*
X16547461Y-29360500D01*
X16639148Y-29335933D01*
X16639150Y-29335931D01*
X16639152Y-29335931D01*
X16721347Y-29288475D01*
X16721347Y-29288474D01*
X16721352Y-29288472D01*
X16788472Y-29221352D01*
X16835933Y-29139148D01*
X16860500Y-29047461D01*
X16860500Y-28952539D01*
X16835933Y-28860852D01*
X16835931Y-28860849D01*
X16835931Y-28860847D01*
X16788475Y-28778652D01*
X16788473Y-28778650D01*
X16788472Y-28778648D01*
X16721352Y-28711528D01*
X16721349Y-28711526D01*
X16721347Y-28711524D01*
X16639151Y-28664068D01*
X16639153Y-28664068D01*
X16603577Y-28654536D01*
X16547461Y-28639500D01*
X16452539Y-28639500D01*
X16396422Y-28654536D01*
X16360847Y-28664068D01*
X16278652Y-28711524D01*
X16211524Y-28778652D01*
X16164068Y-28860847D01*
X16164067Y-28860852D01*
X16139500Y-28952539D01*
X500500Y-28952539D01*
X500500Y-26452539D01*
X40639500Y-26452539D01*
X40639500Y-26547461D01*
X40661166Y-26628321D01*
X40664068Y-26639152D01*
X40711524Y-26721347D01*
X40711526Y-26721349D01*
X40711528Y-26721352D01*
X40778648Y-26788472D01*
X40778650Y-26788473D01*
X40778652Y-26788475D01*
X40860848Y-26835931D01*
X40860846Y-26835931D01*
X40860850Y-26835932D01*
X40860852Y-26835933D01*
X40952539Y-26860500D01*
X40952541Y-26860500D01*
X41047459Y-26860500D01*
X41047461Y-26860500D01*
X41139148Y-26835933D01*
X41139150Y-26835931D01*
X41139152Y-26835931D01*
X41221347Y-26788475D01*
X41221347Y-26788474D01*
X41221352Y-26788472D01*
X41288472Y-26721352D01*
X41335933Y-26639148D01*
X41360500Y-26547461D01*
X41360500Y-26452539D01*
X41335933Y-26360852D01*
X41335931Y-26360849D01*
X41335931Y-26360847D01*
X41288475Y-26278652D01*
X41288473Y-26278650D01*
X41288472Y-26278648D01*
X41221352Y-26211528D01*
X41221349Y-26211526D01*
X41221347Y-26211524D01*
X41139151Y-26164068D01*
X41139153Y-26164068D01*
X41103577Y-26154536D01*
X41047461Y-26139500D01*
X40952539Y-26139500D01*
X40896422Y-26154536D01*
X40860847Y-26164068D01*
X40778652Y-26211524D01*
X40711524Y-26278652D01*
X40664068Y-26360847D01*
X40664067Y-26360852D01*
X40639500Y-26452539D01*
X500500Y-26452539D01*
X500500Y-25452539D01*
X19139500Y-25452539D01*
X19139500Y-25547461D01*
X19161166Y-25628321D01*
X19164068Y-25639152D01*
X19211524Y-25721347D01*
X19211526Y-25721349D01*
X19211528Y-25721352D01*
X19278648Y-25788472D01*
X19278650Y-25788473D01*
X19278652Y-25788475D01*
X19360848Y-25835931D01*
X19360846Y-25835931D01*
X19360850Y-25835932D01*
X19360852Y-25835933D01*
X19452539Y-25860500D01*
X19452541Y-25860500D01*
X19547459Y-25860500D01*
X19547461Y-25860500D01*
X19639148Y-25835933D01*
X19639150Y-25835931D01*
X19639152Y-25835931D01*
X19721347Y-25788475D01*
X19721347Y-25788474D01*
X19721352Y-25788472D01*
X19788472Y-25721352D01*
X19835933Y-25639148D01*
X19860500Y-25547461D01*
X19860500Y-25452539D01*
X22639500Y-25452539D01*
X22639500Y-25547461D01*
X22661166Y-25628321D01*
X22664068Y-25639152D01*
X22711524Y-25721347D01*
X22711526Y-25721349D01*
X22711528Y-25721352D01*
X22778648Y-25788472D01*
X22778650Y-25788473D01*
X22778652Y-25788475D01*
X22860848Y-25835931D01*
X22860846Y-25835931D01*
X22860850Y-25835932D01*
X22860852Y-25835933D01*
X22952539Y-25860500D01*
X22952541Y-25860500D01*
X23047459Y-25860500D01*
X23047461Y-25860500D01*
X23139148Y-25835933D01*
X23139150Y-25835931D01*
X23139152Y-25835931D01*
X23221347Y-25788475D01*
X23221347Y-25788474D01*
X23221352Y-25788472D01*
X23288472Y-25721352D01*
X23335933Y-25639148D01*
X23360500Y-25547461D01*
X23360500Y-25452539D01*
X25639500Y-25452539D01*
X25639500Y-25547461D01*
X25661166Y-25628321D01*
X25664068Y-25639152D01*
X25711524Y-25721347D01*
X25711526Y-25721349D01*
X25711528Y-25721352D01*
X25778648Y-25788472D01*
X25778650Y-25788473D01*
X25778652Y-25788475D01*
X25860848Y-25835931D01*
X25860846Y-25835931D01*
X25860850Y-25835932D01*
X25860852Y-25835933D01*
X25952539Y-25860500D01*
X25952541Y-25860500D01*
X26047459Y-25860500D01*
X26047461Y-25860500D01*
X26139148Y-25835933D01*
X26139150Y-25835931D01*
X26139152Y-25835931D01*
X26221347Y-25788475D01*
X26221347Y-25788474D01*
X26221352Y-25788472D01*
X26288472Y-25721352D01*
X26335933Y-25639148D01*
X26360500Y-25547461D01*
X26360500Y-25452539D01*
X29139500Y-25452539D01*
X29139500Y-25547461D01*
X29161166Y-25628321D01*
X29164068Y-25639152D01*
X29211524Y-25721347D01*
X29211526Y-25721349D01*
X29211528Y-25721352D01*
X29278648Y-25788472D01*
X29278650Y-25788473D01*
X29278652Y-25788475D01*
X29360848Y-25835931D01*
X29360846Y-25835931D01*
X29360850Y-25835932D01*
X29360852Y-25835933D01*
X29452539Y-25860500D01*
X29452541Y-25860500D01*
X29547459Y-25860500D01*
X29547461Y-25860500D01*
X29639148Y-25835933D01*
X29639150Y-25835931D01*
X29639152Y-25835931D01*
X29721347Y-25788475D01*
X29721347Y-25788474D01*
X29721352Y-25788472D01*
X29788472Y-25721352D01*
X29835933Y-25639148D01*
X29860500Y-25547461D01*
X29860500Y-25452539D01*
X32139500Y-25452539D01*
X32139500Y-25547461D01*
X32161166Y-25628321D01*
X32164068Y-25639152D01*
X32211524Y-25721347D01*
X32211526Y-25721349D01*
X32211528Y-25721352D01*
X32278648Y-25788472D01*
X32278650Y-25788473D01*
X32278652Y-25788475D01*
X32360848Y-25835931D01*
X32360846Y-25835931D01*
X32360850Y-25835932D01*
X32360852Y-25835933D01*
X32452539Y-25860500D01*
X32452541Y-25860500D01*
X32547459Y-25860500D01*
X32547461Y-25860500D01*
X32639148Y-25835933D01*
X32639150Y-25835931D01*
X32639152Y-25835931D01*
X32721347Y-25788475D01*
X32721347Y-25788474D01*
X32721352Y-25788472D01*
X32788472Y-25721352D01*
X32835933Y-25639148D01*
X32860500Y-25547461D01*
X32860500Y-25452539D01*
X35639500Y-25452539D01*
X35639500Y-25547461D01*
X35661166Y-25628321D01*
X35664068Y-25639152D01*
X35711524Y-25721347D01*
X35711526Y-25721349D01*
X35711528Y-25721352D01*
X35778648Y-25788472D01*
X35778650Y-25788473D01*
X35778652Y-25788475D01*
X35860848Y-25835931D01*
X35860846Y-25835931D01*
X35860850Y-25835932D01*
X35860852Y-25835933D01*
X35952539Y-25860500D01*
X35952541Y-25860500D01*
X36047459Y-25860500D01*
X36047461Y-25860500D01*
X36139148Y-25835933D01*
X36139150Y-25835931D01*
X36139152Y-25835931D01*
X36221347Y-25788475D01*
X36221347Y-25788474D01*
X36221352Y-25788472D01*
X36288472Y-25721352D01*
X36335933Y-25639148D01*
X36360500Y-25547461D01*
X36360500Y-25452539D01*
X38639500Y-25452539D01*
X38639500Y-25547461D01*
X38661166Y-25628321D01*
X38664068Y-25639152D01*
X38711524Y-25721347D01*
X38711526Y-25721349D01*
X38711528Y-25721352D01*
X38778648Y-25788472D01*
X38778650Y-25788473D01*
X38778652Y-25788475D01*
X38860848Y-25835931D01*
X38860846Y-25835931D01*
X38860850Y-25835932D01*
X38860852Y-25835933D01*
X38952539Y-25860500D01*
X38952541Y-25860500D01*
X39047459Y-25860500D01*
X39047461Y-25860500D01*
X39139148Y-25835933D01*
X39139150Y-25835931D01*
X39139152Y-25835931D01*
X39221347Y-25788475D01*
X39221347Y-25788474D01*
X39221352Y-25788472D01*
X39288472Y-25721352D01*
X39335933Y-25639148D01*
X39360500Y-25547461D01*
X39360500Y-25452539D01*
X39335933Y-25360852D01*
X39335931Y-25360849D01*
X39335931Y-25360847D01*
X39288475Y-25278652D01*
X39288473Y-25278650D01*
X39288472Y-25278648D01*
X39221352Y-25211528D01*
X39221349Y-25211526D01*
X39221347Y-25211524D01*
X39139151Y-25164068D01*
X39139153Y-25164068D01*
X39103577Y-25154536D01*
X39047461Y-25139500D01*
X38952539Y-25139500D01*
X38896422Y-25154536D01*
X38860847Y-25164068D01*
X38778652Y-25211524D01*
X38711524Y-25278652D01*
X38664068Y-25360847D01*
X38664067Y-25360852D01*
X38639500Y-25452539D01*
X36360500Y-25452539D01*
X36335933Y-25360852D01*
X36335931Y-25360849D01*
X36335931Y-25360847D01*
X36288475Y-25278652D01*
X36288473Y-25278650D01*
X36288472Y-25278648D01*
X36221352Y-25211528D01*
X36221349Y-25211526D01*
X36221347Y-25211524D01*
X36139151Y-25164068D01*
X36139153Y-25164068D01*
X36103577Y-25154536D01*
X36047461Y-25139500D01*
X35952539Y-25139500D01*
X35896422Y-25154536D01*
X35860847Y-25164068D01*
X35778652Y-25211524D01*
X35711524Y-25278652D01*
X35664068Y-25360847D01*
X35664067Y-25360852D01*
X35639500Y-25452539D01*
X32860500Y-25452539D01*
X32835933Y-25360852D01*
X32835931Y-25360849D01*
X32835931Y-25360847D01*
X32788475Y-25278652D01*
X32788473Y-25278650D01*
X32788472Y-25278648D01*
X32721352Y-25211528D01*
X32721349Y-25211526D01*
X32721347Y-25211524D01*
X32639151Y-25164068D01*
X32639153Y-25164068D01*
X32603577Y-25154536D01*
X32547461Y-25139500D01*
X32452539Y-25139500D01*
X32396422Y-25154536D01*
X32360847Y-25164068D01*
X32278652Y-25211524D01*
X32211524Y-25278652D01*
X32164068Y-25360847D01*
X32164067Y-25360852D01*
X32139500Y-25452539D01*
X29860500Y-25452539D01*
X29835933Y-25360852D01*
X29835931Y-25360849D01*
X29835931Y-25360847D01*
X29788475Y-25278652D01*
X29788473Y-25278650D01*
X29788472Y-25278648D01*
X29721352Y-25211528D01*
X29721349Y-25211526D01*
X29721347Y-25211524D01*
X29639151Y-25164068D01*
X29639153Y-25164068D01*
X29603577Y-25154536D01*
X29547461Y-25139500D01*
X29452539Y-25139500D01*
X29396422Y-25154536D01*
X29360847Y-25164068D01*
X29278652Y-25211524D01*
X29211524Y-25278652D01*
X29164068Y-25360847D01*
X29164067Y-25360852D01*
X29139500Y-25452539D01*
X26360500Y-25452539D01*
X26335933Y-25360852D01*
X26335931Y-25360849D01*
X26335931Y-25360847D01*
X26288475Y-25278652D01*
X26288473Y-25278650D01*
X26288472Y-25278648D01*
X26221352Y-25211528D01*
X26221349Y-25211526D01*
X26221347Y-25211524D01*
X26139151Y-25164068D01*
X26139153Y-25164068D01*
X26103577Y-25154536D01*
X26047461Y-25139500D01*
X25952539Y-25139500D01*
X25896422Y-25154536D01*
X25860847Y-25164068D01*
X25778652Y-25211524D01*
X25711524Y-25278652D01*
X25664068Y-25360847D01*
X25664067Y-25360852D01*
X25639500Y-25452539D01*
X23360500Y-25452539D01*
X23335933Y-25360852D01*
X23335931Y-25360849D01*
X23335931Y-25360847D01*
X23288475Y-25278652D01*
X23288473Y-25278650D01*
X23288472Y-25278648D01*
X23221352Y-25211528D01*
X23221349Y-25211526D01*
X23221347Y-25211524D01*
X23139151Y-25164068D01*
X23139153Y-25164068D01*
X23103577Y-25154536D01*
X23047461Y-25139500D01*
X22952539Y-25139500D01*
X22896422Y-25154536D01*
X22860847Y-25164068D01*
X22778652Y-25211524D01*
X22711524Y-25278652D01*
X22664068Y-25360847D01*
X22664067Y-25360852D01*
X22639500Y-25452539D01*
X19860500Y-25452539D01*
X19835933Y-25360852D01*
X19835931Y-25360849D01*
X19835931Y-25360847D01*
X19788475Y-25278652D01*
X19788473Y-25278650D01*
X19788472Y-25278648D01*
X19721352Y-25211528D01*
X19721349Y-25211526D01*
X19721347Y-25211524D01*
X19639151Y-25164068D01*
X19639153Y-25164068D01*
X19603577Y-25154536D01*
X19547461Y-25139500D01*
X19452539Y-25139500D01*
X19396422Y-25154536D01*
X19360847Y-25164068D01*
X19278652Y-25211524D01*
X19211524Y-25278652D01*
X19164068Y-25360847D01*
X19164067Y-25360852D01*
X19139500Y-25452539D01*
X500500Y-25452539D01*
X500500Y-23952539D01*
X20139500Y-23952539D01*
X20139500Y-24047461D01*
X20161166Y-24128321D01*
X20164068Y-24139152D01*
X20211524Y-24221347D01*
X20211526Y-24221349D01*
X20211528Y-24221352D01*
X20278648Y-24288472D01*
X20278650Y-24288473D01*
X20278652Y-24288475D01*
X20360848Y-24335931D01*
X20360846Y-24335931D01*
X20360850Y-24335932D01*
X20360852Y-24335933D01*
X20452539Y-24360500D01*
X20452541Y-24360500D01*
X20547459Y-24360500D01*
X20547461Y-24360500D01*
X20639148Y-24335933D01*
X20639150Y-24335931D01*
X20639152Y-24335931D01*
X20721347Y-24288475D01*
X20721347Y-24288474D01*
X20721352Y-24288472D01*
X20788472Y-24221352D01*
X20835933Y-24139148D01*
X20860500Y-24047461D01*
X20860500Y-23952539D01*
X20835933Y-23860852D01*
X20835931Y-23860849D01*
X20835931Y-23860847D01*
X20788475Y-23778652D01*
X20788473Y-23778650D01*
X20788472Y-23778648D01*
X20721352Y-23711528D01*
X20721349Y-23711526D01*
X20721347Y-23711524D01*
X20639151Y-23664068D01*
X20639153Y-23664068D01*
X20603577Y-23654536D01*
X20547461Y-23639500D01*
X20452539Y-23639500D01*
X20396422Y-23654536D01*
X20360847Y-23664068D01*
X20278652Y-23711524D01*
X20211524Y-23778652D01*
X20164068Y-23860847D01*
X20164067Y-23860852D01*
X20139500Y-23952539D01*
X500500Y-23952539D01*
X500500Y-22452539D01*
X22139500Y-22452539D01*
X22139500Y-22547461D01*
X22161166Y-22628321D01*
X22164068Y-22639152D01*
X22211524Y-22721347D01*
X22211526Y-22721349D01*
X22211528Y-22721352D01*
X22278648Y-22788472D01*
X22278650Y-22788473D01*
X22278652Y-22788475D01*
X22360848Y-22835931D01*
X22360846Y-22835931D01*
X22360850Y-22835932D01*
X22360852Y-22835933D01*
X22452539Y-22860500D01*
X22452541Y-22860500D01*
X22547459Y-22860500D01*
X22547461Y-22860500D01*
X22639148Y-22835933D01*
X22639150Y-22835931D01*
X22639152Y-22835931D01*
X22721347Y-22788475D01*
X22721347Y-22788474D01*
X22721352Y-22788472D01*
X22788472Y-22721352D01*
X22835933Y-22639148D01*
X22860500Y-22547461D01*
X22860500Y-22452539D01*
X22835933Y-22360852D01*
X22835931Y-22360849D01*
X22835931Y-22360847D01*
X22788475Y-22278652D01*
X22788473Y-22278650D01*
X22788472Y-22278648D01*
X22721352Y-22211528D01*
X22721349Y-22211526D01*
X22721347Y-22211524D01*
X22639151Y-22164068D01*
X22639153Y-22164068D01*
X22603577Y-22154536D01*
X22547461Y-22139500D01*
X22452539Y-22139500D01*
X22396422Y-22154536D01*
X22360847Y-22164068D01*
X22278652Y-22211524D01*
X22211524Y-22278652D01*
X22164068Y-22360847D01*
X22164067Y-22360852D01*
X22139500Y-22452539D01*
X500500Y-22452539D01*
X500500Y-21952539D01*
X18139500Y-21952539D01*
X18139500Y-22047461D01*
X18161166Y-22128321D01*
X18164068Y-22139152D01*
X18211524Y-22221347D01*
X18211526Y-22221349D01*
X18211528Y-22221352D01*
X18278648Y-22288472D01*
X18278650Y-22288473D01*
X18278652Y-22288475D01*
X18360848Y-22335931D01*
X18360846Y-22335931D01*
X18360850Y-22335932D01*
X18360852Y-22335933D01*
X18452539Y-22360500D01*
X18452541Y-22360500D01*
X18547459Y-22360500D01*
X18547461Y-22360500D01*
X18639148Y-22335933D01*
X18639150Y-22335931D01*
X18639152Y-22335931D01*
X18721347Y-22288475D01*
X18721347Y-22288474D01*
X18721352Y-22288472D01*
X18788472Y-22221352D01*
X18794146Y-22211524D01*
X18835931Y-22139152D01*
X18835931Y-22139150D01*
X18835933Y-22139148D01*
X18860500Y-22047461D01*
X18860500Y-21952539D01*
X18835933Y-21860852D01*
X18835931Y-21860849D01*
X18835931Y-21860847D01*
X18788475Y-21778652D01*
X18788473Y-21778650D01*
X18788472Y-21778648D01*
X18721352Y-21711528D01*
X18721349Y-21711526D01*
X18721347Y-21711524D01*
X18639151Y-21664068D01*
X18639153Y-21664068D01*
X18603577Y-21654536D01*
X18547461Y-21639500D01*
X18452539Y-21639500D01*
X18396422Y-21654536D01*
X18360847Y-21664068D01*
X18278652Y-21711524D01*
X18211524Y-21778652D01*
X18164068Y-21860847D01*
X18164067Y-21860852D01*
X18139500Y-21952539D01*
X500500Y-21952539D01*
X500500Y-18452539D01*
X22139500Y-18452539D01*
X22139500Y-18547461D01*
X22161166Y-18628321D01*
X22164068Y-18639152D01*
X22211524Y-18721347D01*
X22211526Y-18721349D01*
X22211528Y-18721352D01*
X22278648Y-18788472D01*
X22278650Y-18788473D01*
X22278652Y-18788475D01*
X22360848Y-18835931D01*
X22360846Y-18835931D01*
X22360850Y-18835932D01*
X22360852Y-18835933D01*
X22452539Y-18860500D01*
X22452541Y-18860500D01*
X22547459Y-18860500D01*
X22547461Y-18860500D01*
X22639148Y-18835933D01*
X22639150Y-18835931D01*
X22639152Y-18835931D01*
X22721347Y-18788475D01*
X22721347Y-18788474D01*
X22721352Y-18788472D01*
X22788472Y-18721352D01*
X22835933Y-18639148D01*
X22860500Y-18547461D01*
X22860500Y-18452539D01*
X22835933Y-18360852D01*
X22835931Y-18360849D01*
X22835931Y-18360847D01*
X22788475Y-18278652D01*
X22788473Y-18278650D01*
X22788472Y-18278648D01*
X22721352Y-18211528D01*
X22721349Y-18211526D01*
X22721347Y-18211524D01*
X22639151Y-18164068D01*
X22639153Y-18164068D01*
X22603577Y-18154536D01*
X22547461Y-18139500D01*
X22452539Y-18139500D01*
X22396422Y-18154536D01*
X22360847Y-18164068D01*
X22278652Y-18211524D01*
X22211524Y-18278652D01*
X22164068Y-18360847D01*
X22164067Y-18360852D01*
X22139500Y-18452539D01*
X500500Y-18452539D01*
X500500Y-17952539D01*
X18139500Y-17952539D01*
X18139500Y-18047461D01*
X18161166Y-18128321D01*
X18164068Y-18139152D01*
X18211524Y-18221347D01*
X18211526Y-18221349D01*
X18211528Y-18221352D01*
X18278648Y-18288472D01*
X18278650Y-18288473D01*
X18278652Y-18288475D01*
X18360848Y-18335931D01*
X18360846Y-18335931D01*
X18360850Y-18335932D01*
X18360852Y-18335933D01*
X18452539Y-18360500D01*
X18452541Y-18360500D01*
X18547459Y-18360500D01*
X18547461Y-18360500D01*
X18639148Y-18335933D01*
X18639150Y-18335931D01*
X18639152Y-18335931D01*
X18721347Y-18288475D01*
X18721347Y-18288474D01*
X18721352Y-18288472D01*
X18788472Y-18221352D01*
X18794146Y-18211524D01*
X18835931Y-18139152D01*
X18835931Y-18139150D01*
X18835933Y-18139148D01*
X18860500Y-18047461D01*
X18860500Y-17952539D01*
X18835933Y-17860852D01*
X18835931Y-17860849D01*
X18835931Y-17860847D01*
X18788475Y-17778652D01*
X18788473Y-17778650D01*
X18788472Y-17778648D01*
X18721352Y-17711528D01*
X18721349Y-17711526D01*
X18721347Y-17711524D01*
X18639151Y-17664068D01*
X18639153Y-17664068D01*
X18603577Y-17654536D01*
X18547461Y-17639500D01*
X18452539Y-17639500D01*
X18396422Y-17654536D01*
X18360847Y-17664068D01*
X18278652Y-17711524D01*
X18211524Y-17778652D01*
X18164068Y-17860847D01*
X18164067Y-17860852D01*
X18139500Y-17952539D01*
X500500Y-17952539D01*
X500500Y-3878710D01*
X2149500Y-3878710D01*
X2149500Y-4121289D01*
X2181161Y-4361781D01*
X2181161Y-4361786D01*
X2243944Y-4596092D01*
X2243948Y-4596105D01*
X2336772Y-4820204D01*
X2336774Y-4820208D01*
X2336776Y-4820212D01*
X2458064Y-5030289D01*
X2458066Y-5030292D01*
X2605729Y-5222731D01*
X2605731Y-5222733D01*
X2605735Y-5222738D01*
X2777262Y-5394265D01*
X2777266Y-5394268D01*
X2777268Y-5394270D01*
X2969707Y-5541933D01*
X2969711Y-5541936D01*
X3179788Y-5663224D01*
X3403900Y-5756054D01*
X3638211Y-5818838D01*
X3878712Y-5850500D01*
X3878713Y-5850500D01*
X4121287Y-5850500D01*
X4121288Y-5850500D01*
X4361789Y-5818838D01*
X4596100Y-5756054D01*
X4820212Y-5663224D01*
X5030289Y-5541936D01*
X5222738Y-5394265D01*
X5394265Y-5222738D01*
X5541936Y-5030289D01*
X5663224Y-4820212D01*
X5756054Y-4596100D01*
X5818838Y-4361789D01*
X5850500Y-4121288D01*
X5850500Y-3878712D01*
X5850500Y-3878710D01*
X74149500Y-3878710D01*
X74149500Y-4121289D01*
X74181161Y-4361781D01*
X74181161Y-4361786D01*
X74243944Y-4596092D01*
X74243948Y-4596105D01*
X74336772Y-4820204D01*
X74336774Y-4820208D01*
X74336776Y-4820212D01*
X74458064Y-5030289D01*
X74458066Y-5030292D01*
X74605729Y-5222731D01*
X74605731Y-5222733D01*
X74605735Y-5222738D01*
X74777262Y-5394265D01*
X74777266Y-5394268D01*
X74777268Y-5394270D01*
X74969707Y-5541933D01*
X74969711Y-5541936D01*
X75179788Y-5663224D01*
X75403900Y-5756054D01*
X75638211Y-5818838D01*
X75878712Y-5850500D01*
X75878713Y-5850500D01*
X76121287Y-5850500D01*
X76121288Y-5850500D01*
X76361789Y-5818838D01*
X76596100Y-5756054D01*
X76820212Y-5663224D01*
X77030289Y-5541936D01*
X77222738Y-5394265D01*
X77394265Y-5222738D01*
X77541936Y-5030289D01*
X77663224Y-4820212D01*
X77756054Y-4596100D01*
X77818838Y-4361789D01*
X77850500Y-4121288D01*
X77850500Y-3878712D01*
X77818838Y-3638211D01*
X77756054Y-3403900D01*
X77663224Y-3179788D01*
X77541936Y-2969711D01*
X77394265Y-2777262D01*
X77222738Y-2605735D01*
X77222733Y-2605731D01*
X77222731Y-2605729D01*
X77030292Y-2458066D01*
X77030289Y-2458064D01*
X76820212Y-2336776D01*
X76820208Y-2336774D01*
X76820204Y-2336772D01*
X76596105Y-2243948D01*
X76596104Y-2243947D01*
X76596100Y-2243946D01*
X76361789Y-2181162D01*
X76361786Y-2181161D01*
X76361784Y-2181161D01*
X76121289Y-2149500D01*
X76121288Y-2149500D01*
X75878712Y-2149500D01*
X75878710Y-2149500D01*
X75638218Y-2181161D01*
X75638213Y-2181161D01*
X75403907Y-2243944D01*
X75403894Y-2243948D01*
X75179795Y-2336772D01*
X74969707Y-2458066D01*
X74777268Y-2605729D01*
X74605729Y-2777268D01*
X74458066Y-2969707D01*
X74336772Y-3179795D01*
X74243948Y-3403894D01*
X74243944Y-3403907D01*
X74181161Y-3638213D01*
X74181161Y-3638218D01*
X74149500Y-3878710D01*
X5850500Y-3878710D01*
X5818838Y-3638211D01*
X5756054Y-3403900D01*
X5663224Y-3179788D01*
X5541936Y-2969711D01*
X5394265Y-2777262D01*
X5222738Y-2605735D01*
X5222733Y-2605731D01*
X5222731Y-2605729D01*
X5030292Y-2458066D01*
X5030289Y-2458064D01*
X4820212Y-2336776D01*
X4820208Y-2336774D01*
X4820204Y-2336772D01*
X4596105Y-2243948D01*
X4596104Y-2243947D01*
X4596100Y-2243946D01*
X4361789Y-2181162D01*
X4361786Y-2181161D01*
X4361784Y-2181161D01*
X4121289Y-2149500D01*
X4121288Y-2149500D01*
X3878712Y-2149500D01*
X3878710Y-2149500D01*
X3638218Y-2181161D01*
X3638213Y-2181161D01*
X3403907Y-2243944D01*
X3403894Y-2243948D01*
X3179795Y-2336772D01*
X2969707Y-2458066D01*
X2777268Y-2605729D01*
X2605729Y-2777268D01*
X2458066Y-2969707D01*
X2336772Y-3179795D01*
X2243948Y-3403894D01*
X2243944Y-3403907D01*
X2181161Y-3638213D01*
X2181161Y-3638218D01*
X2149500Y-3878710D01*
X500500Y-3878710D01*
X500500Y-599500D01*
X519407Y-541309D01*
X568907Y-505345D01*
X599500Y-500500D01*
X79400500Y-500500D01*
X79458691Y-519407D01*
G37*
%TD.AperFunction*%
%TD*%
M02*
