%TF.GenerationSoftware,KiCad,Pcbnew,10.0.3*%
%TF.CreationDate,2026-06-21T10:55:10-04:00*%
%TF.ProjectId,fpga_tile,66706761-5f74-4696-9c65-2e6b69636164,rev?*%
%TF.SameCoordinates,Original*%
%TF.FileFunction,Copper,L3,Inr*%
%TF.FilePolarity,Positive*%
%FSLAX46Y46*%
G04 Gerber Fmt 4.6, Leading zero omitted, Abs format (unit mm)*
G04 Created by KiCad (PCBNEW 10.0.3) date 2026-06-21 10:55:10*
%MOMM*%
%LPD*%
G01*
G04 APERTURE LIST*
%TA.AperFunction,ViaPad*%
%ADD10C,0.460000*%
%TD*%
%TA.AperFunction,Conductor*%
%ADD11C,0.150000*%
%TD*%
G04 APERTURE END LIST*
D10*
%TO.N,VCCAUX*%
X28000000Y-50000000D03*
X28500000Y-61000000D03*
%TO.N,VCCO_3V3*%
X18500000Y-18000000D03*
X16500000Y-29000000D03*
X31000000Y-47000000D03*
X25000000Y-49000000D03*
X20500000Y-52500000D03*
X20000000Y-54500000D03*
%TO.N,CLK*%
X17000000Y-43500000D03*
X24000000Y-47000000D03*
%TO.N,CCLK*%
X22500000Y-47000000D03*
X18000000Y-51500000D03*
%TO.N,DIN*%
X20500000Y-47000000D03*
X18000000Y-49500000D03*
%TO.N,DOUT*%
X20500000Y-45000000D03*
X19500000Y-49000000D03*
%TO.N,CFG_CS*%
X20500000Y-43000000D03*
X21000000Y-49000000D03*
%TO.N,TCK*%
X22500000Y-18500000D03*
X20500000Y-36000000D03*
%TO.N,TMS*%
X22500000Y-22500000D03*
X22000000Y-32500000D03*
X20500000Y-34500000D03*
%TO.N,TDI*%
X20500000Y-24000000D03*
X20500000Y-32000000D03*
X20500000Y-32500000D03*
%TO.N,TDO*%
X18500000Y-22000000D03*
X21500000Y-31500000D03*
%TO.N,TRIGOUT_0*%
X19500000Y-25500000D03*
X23000000Y-31500000D03*
%TO.N,TRIGOUT_1*%
X23000000Y-25500000D03*
X25000000Y-31500000D03*
%TO.N,TRIGOUT_2*%
X26000000Y-25500000D03*
X26500000Y-31500000D03*
%TO.N,TRIGOUT_3*%
X29500000Y-25500000D03*
X28500000Y-31500000D03*
%TO.N,TRIGOUT_4*%
X32500000Y-25500000D03*
X30500000Y-31500000D03*
%TO.N,TRIGOUT_5*%
X36000000Y-25500000D03*
X32000000Y-31500000D03*
%TO.N,TRIGOUT_6*%
X39000000Y-25500000D03*
X34000000Y-31500000D03*
%TO.N,TRIGOUT_7*%
X41000000Y-26500000D03*
X35500000Y-31500000D03*
%TO.N,TRIGOUT_8*%
X41000000Y-30000000D03*
X35500000Y-33500000D03*
%TO.N,TRIGOUT_10*%
X35000000Y-30000000D03*
X35500000Y-37000000D03*
%TO.N,TRIGOUT_11*%
X31500000Y-30000000D03*
X35500000Y-38500000D03*
%TO.N,TRIGOUT_12*%
X28500000Y-30000000D03*
X35500000Y-40500000D03*
%TO.N,TRIGOUT_13*%
X25000000Y-30000000D03*
X35500000Y-42500000D03*
%TO.N,TRIGOUT_14*%
X22000000Y-30000000D03*
X35500000Y-44000000D03*
%TO.N,TRIGOUT_15*%
X18500000Y-30000000D03*
X35500000Y-46000000D03*
%TD*%
%TO.N,TMS*%
D11*
X22000000Y-23000000D02*
X22500000Y-23000000D01*
X22000000Y-26500000D02*
X22500000Y-26500000D01*
X22000000Y-30500000D02*
X22500000Y-30500000D01*
X22000000Y-23000000D02*
X22000000Y-26500000D01*
X22000000Y-30500000D02*
X22000000Y-32500000D01*
X22500000Y-22500000D02*
X22500000Y-23000000D01*
X22500000Y-26500000D02*
X22500000Y-30500000D01*
%TO.N,TDI*%
X20500000Y-24000000D02*
X20500000Y-32000000D01*
%TD*%
%TA.AperFunction,Conductor*%
%TO.N,GND*%
G36*
X79415408Y-505343D02*
G01*
X79428097Y-509466D01*
X79477596Y-545428D01*
X79480591Y-549550D01*
X79499500Y-607740D01*
X79499500Y-79384819D01*
X79494654Y-79415412D01*
X79490532Y-79428098D01*
X79454580Y-79477589D01*
X79450459Y-79480584D01*
X79392271Y-79499500D01*
X615180Y-79499500D01*
X584587Y-79494654D01*
X571901Y-79490532D01*
X522401Y-79454568D01*
X522394Y-79454558D01*
X519400Y-79450436D01*
X500500Y-79392256D01*
X500500Y-75878708D01*
X2149500Y-75878708D01*
X2149500Y-76121290D01*
X2180314Y-76355347D01*
X2180314Y-76355353D01*
X2181160Y-76361781D01*
X2181161Y-76361784D01*
X2181161Y-76361786D01*
X2243944Y-76596092D01*
X2243948Y-76596105D01*
X2243949Y-76596109D01*
X2243950Y-76596110D01*
X2336769Y-76820198D01*
X2336772Y-76820204D01*
X2336774Y-76820208D01*
X2336776Y-76820212D01*
X2458064Y-77030289D01*
X2458066Y-77030292D01*
X2605729Y-77222731D01*
X2605731Y-77222733D01*
X2605735Y-77222738D01*
X2777262Y-77394265D01*
X2777266Y-77394268D01*
X2777268Y-77394270D01*
X2777273Y-77394274D01*
X2777303Y-77394300D01*
X2777671Y-77394579D01*
X2969707Y-77541933D01*
X2969711Y-77541936D01*
X3179788Y-77663224D01*
X3403900Y-77756054D01*
X3638211Y-77818838D01*
X3878712Y-77850500D01*
X3878713Y-77850500D01*
X4121287Y-77850500D01*
X4121288Y-77850500D01*
X4361789Y-77818838D01*
X4596100Y-77756054D01*
X4820212Y-77663224D01*
X5030289Y-77541936D01*
X5222738Y-77394265D01*
X5394265Y-77222738D01*
X5541936Y-77030289D01*
X5663224Y-76820212D01*
X5756054Y-76596100D01*
X5818838Y-76361789D01*
X5850500Y-76121288D01*
X5850500Y-75878712D01*
X5850499Y-75878708D01*
X74149500Y-75878708D01*
X74149500Y-76121290D01*
X74180314Y-76355347D01*
X74180314Y-76355353D01*
X74181160Y-76361781D01*
X74181161Y-76361784D01*
X74181161Y-76361786D01*
X74243944Y-76596092D01*
X74243948Y-76596105D01*
X74243949Y-76596109D01*
X74243950Y-76596110D01*
X74336769Y-76820198D01*
X74336772Y-76820204D01*
X74336774Y-76820208D01*
X74336776Y-76820212D01*
X74458064Y-77030289D01*
X74458066Y-77030292D01*
X74605729Y-77222731D01*
X74605731Y-77222733D01*
X74605735Y-77222738D01*
X74777262Y-77394265D01*
X74777266Y-77394268D01*
X74777268Y-77394270D01*
X74777273Y-77394274D01*
X74777303Y-77394300D01*
X74777671Y-77394579D01*
X74969707Y-77541933D01*
X74969711Y-77541936D01*
X75179788Y-77663224D01*
X75403900Y-77756054D01*
X75638211Y-77818838D01*
X75878712Y-77850500D01*
X75878713Y-77850500D01*
X76121287Y-77850500D01*
X76121288Y-77850500D01*
X76361789Y-77818838D01*
X76596100Y-77756054D01*
X76820212Y-77663224D01*
X77030289Y-77541936D01*
X77222738Y-77394265D01*
X77394265Y-77222738D01*
X77541936Y-77030289D01*
X77663224Y-76820212D01*
X77756054Y-76596100D01*
X77818838Y-76361789D01*
X77850500Y-76121288D01*
X77850500Y-75878712D01*
X77818838Y-75638211D01*
X77756054Y-75403900D01*
X77663224Y-75179788D01*
X77541936Y-74969711D01*
X77394265Y-74777262D01*
X77222738Y-74605735D01*
X77222733Y-74605731D01*
X77222731Y-74605729D01*
X77030292Y-74458066D01*
X77030289Y-74458064D01*
X76820212Y-74336776D01*
X76820208Y-74336774D01*
X76820204Y-74336772D01*
X76820194Y-74336767D01*
X76603913Y-74247182D01*
X76603910Y-74247181D01*
X76596105Y-74243948D01*
X76596104Y-74243947D01*
X76596100Y-74243946D01*
X76591370Y-74242678D01*
X76591363Y-74242676D01*
X76364655Y-74181930D01*
X76362454Y-74181269D01*
X76357394Y-74180448D01*
X76355350Y-74180314D01*
X76121290Y-74149500D01*
X76121289Y-74149500D01*
X76121288Y-74149500D01*
X75878712Y-74149500D01*
X75878710Y-74149500D01*
X75878708Y-74149500D01*
X75644652Y-74180314D01*
X75644640Y-74180314D01*
X75638217Y-74181160D01*
X75638213Y-74181161D01*
X75408640Y-74242676D01*
X75403885Y-74243950D01*
X75179802Y-74336768D01*
X74969703Y-74458068D01*
X74777271Y-74605726D01*
X74605726Y-74777271D01*
X74458068Y-74969703D01*
X74336768Y-75179802D01*
X74243950Y-75403885D01*
X74181160Y-75638217D01*
X74180314Y-75644646D01*
X74180314Y-75644651D01*
X74149500Y-75878708D01*
X5850499Y-75878708D01*
X5818838Y-75638211D01*
X5756054Y-75403900D01*
X5663224Y-75179788D01*
X5541936Y-74969711D01*
X5394265Y-74777262D01*
X5222738Y-74605735D01*
X5222733Y-74605731D01*
X5222731Y-74605729D01*
X5030292Y-74458066D01*
X5030289Y-74458064D01*
X4820212Y-74336776D01*
X4820208Y-74336774D01*
X4820204Y-74336772D01*
X4820194Y-74336767D01*
X4603913Y-74247182D01*
X4603910Y-74247181D01*
X4596105Y-74243948D01*
X4596104Y-74243947D01*
X4596100Y-74243946D01*
X4591370Y-74242678D01*
X4591363Y-74242676D01*
X4364655Y-74181930D01*
X4362454Y-74181269D01*
X4357394Y-74180448D01*
X4355350Y-74180314D01*
X4121290Y-74149500D01*
X4121289Y-74149500D01*
X4121288Y-74149500D01*
X3878712Y-74149500D01*
X3878710Y-74149500D01*
X3878708Y-74149500D01*
X3644652Y-74180314D01*
X3644640Y-74180314D01*
X3638217Y-74181160D01*
X3638213Y-74181161D01*
X3408640Y-74242676D01*
X3403885Y-74243950D01*
X3179802Y-74336768D01*
X2969703Y-74458068D01*
X2777271Y-74605726D01*
X2605726Y-74777271D01*
X2458068Y-74969703D01*
X2336768Y-75179802D01*
X2243950Y-75403885D01*
X2181160Y-75638217D01*
X2180314Y-75644646D01*
X2180314Y-75644651D01*
X2149500Y-75878708D01*
X500500Y-75878708D01*
X500500Y-60952539D01*
X28139500Y-60952539D01*
X28139500Y-61047461D01*
X28161166Y-61128321D01*
X28164068Y-61139152D01*
X28211524Y-61221347D01*
X28211526Y-61221349D01*
X28211528Y-61221352D01*
X28278648Y-61288472D01*
X28278650Y-61288473D01*
X28278652Y-61288475D01*
X28279201Y-61288871D01*
X28281203Y-61289948D01*
X28304078Y-61303155D01*
X28325672Y-61327137D01*
X28359998Y-61335719D01*
X28361571Y-61336125D01*
X28452539Y-61360500D01*
X28452541Y-61360500D01*
X28547459Y-61360500D01*
X28547461Y-61360500D01*
X28639148Y-61335933D01*
X28639150Y-61335931D01*
X28639152Y-61335931D01*
X28715223Y-61292010D01*
X28718104Y-61290612D01*
X28718893Y-61290093D01*
X28723898Y-61287002D01*
X28725197Y-61286251D01*
X28730557Y-61279266D01*
X28788472Y-61221352D01*
X28835933Y-61139148D01*
X28860500Y-61047461D01*
X28860500Y-60952539D01*
X28835933Y-60860852D01*
X28835933Y-60860851D01*
X28835611Y-60860140D01*
X28834358Y-60858122D01*
X28788475Y-60778652D01*
X28788473Y-60778650D01*
X28788472Y-60778648D01*
X28721352Y-60711528D01*
X28721349Y-60711526D01*
X28721347Y-60711524D01*
X28696439Y-60697143D01*
X28675402Y-60673780D01*
X28603577Y-60654536D01*
X28603576Y-60654535D01*
X28562496Y-60643528D01*
X28547461Y-60639500D01*
X28547460Y-60639500D01*
X28452540Y-60639500D01*
X28452539Y-60639500D01*
X28437504Y-60643528D01*
X28396423Y-60654535D01*
X28396422Y-60654536D01*
X28360847Y-60664068D01*
X28360844Y-60664069D01*
X28360842Y-60664070D01*
X28278654Y-60711522D01*
X28211520Y-60778656D01*
X28164067Y-60860847D01*
X28163789Y-60861583D01*
X28163613Y-60862337D01*
X28163622Y-60862463D01*
X28163415Y-60863282D01*
X28139500Y-60952539D01*
X500500Y-60952539D01*
X500500Y-54452539D01*
X19639500Y-54452539D01*
X19639500Y-54547461D01*
X19661166Y-54628321D01*
X19664068Y-54639152D01*
X19711524Y-54721347D01*
X19711526Y-54721349D01*
X19711528Y-54721352D01*
X19778648Y-54788472D01*
X19778650Y-54788473D01*
X19778652Y-54788475D01*
X19779201Y-54788871D01*
X19781203Y-54789948D01*
X19804078Y-54803155D01*
X19825672Y-54827137D01*
X19859998Y-54835719D01*
X19861571Y-54836125D01*
X19952539Y-54860500D01*
X19952541Y-54860500D01*
X20047459Y-54860500D01*
X20047461Y-54860500D01*
X20139148Y-54835933D01*
X20139150Y-54835931D01*
X20139152Y-54835931D01*
X20215223Y-54792010D01*
X20218104Y-54790612D01*
X20218893Y-54790093D01*
X20223898Y-54787002D01*
X20225197Y-54786251D01*
X20230557Y-54779266D01*
X20288472Y-54721352D01*
X20335933Y-54639148D01*
X20360500Y-54547461D01*
X20360500Y-54452539D01*
X20335933Y-54360852D01*
X20335933Y-54360851D01*
X20335611Y-54360140D01*
X20334358Y-54358122D01*
X20288475Y-54278652D01*
X20288473Y-54278650D01*
X20288472Y-54278648D01*
X20221352Y-54211528D01*
X20221349Y-54211526D01*
X20221347Y-54211524D01*
X20196439Y-54197143D01*
X20175402Y-54173780D01*
X20103577Y-54154536D01*
X20103576Y-54154535D01*
X20062496Y-54143528D01*
X20047461Y-54139500D01*
X20047460Y-54139500D01*
X19952540Y-54139500D01*
X19952539Y-54139500D01*
X19937504Y-54143528D01*
X19896423Y-54154535D01*
X19896422Y-54154536D01*
X19860847Y-54164068D01*
X19860844Y-54164069D01*
X19860842Y-54164070D01*
X19778654Y-54211522D01*
X19711520Y-54278656D01*
X19664067Y-54360847D01*
X19663789Y-54361583D01*
X19663613Y-54362337D01*
X19663622Y-54362463D01*
X19663415Y-54363282D01*
X19639500Y-54452539D01*
X500500Y-54452539D01*
X500500Y-52452539D01*
X20139500Y-52452539D01*
X20139500Y-52547461D01*
X20161166Y-52628321D01*
X20164068Y-52639152D01*
X20211524Y-52721347D01*
X20211526Y-52721349D01*
X20211528Y-52721352D01*
X20278648Y-52788472D01*
X20278650Y-52788473D01*
X20278652Y-52788475D01*
X20279201Y-52788871D01*
X20281203Y-52789948D01*
X20304078Y-52803155D01*
X20325672Y-52827137D01*
X20359998Y-52835719D01*
X20361571Y-52836125D01*
X20452539Y-52860500D01*
X20452541Y-52860500D01*
X20547459Y-52860500D01*
X20547461Y-52860500D01*
X20639148Y-52835933D01*
X20639150Y-52835931D01*
X20639152Y-52835931D01*
X20715223Y-52792010D01*
X20718104Y-52790612D01*
X20718893Y-52790093D01*
X20723898Y-52787002D01*
X20725197Y-52786251D01*
X20730557Y-52779266D01*
X20788472Y-52721352D01*
X20835933Y-52639148D01*
X20860500Y-52547461D01*
X20860500Y-52452539D01*
X20835933Y-52360852D01*
X20835933Y-52360851D01*
X20835611Y-52360140D01*
X20834358Y-52358122D01*
X20788475Y-52278652D01*
X20788473Y-52278650D01*
X20788472Y-52278648D01*
X20721352Y-52211528D01*
X20721349Y-52211526D01*
X20721347Y-52211524D01*
X20696439Y-52197143D01*
X20675402Y-52173780D01*
X20603577Y-52154536D01*
X20603576Y-52154535D01*
X20562496Y-52143528D01*
X20547461Y-52139500D01*
X20547460Y-52139500D01*
X20452540Y-52139500D01*
X20452539Y-52139500D01*
X20437504Y-52143528D01*
X20396423Y-52154535D01*
X20396422Y-52154536D01*
X20360847Y-52164068D01*
X20360844Y-52164069D01*
X20360842Y-52164070D01*
X20278654Y-52211522D01*
X20211520Y-52278656D01*
X20164067Y-52360847D01*
X20163789Y-52361583D01*
X20163613Y-52362337D01*
X20163622Y-52362463D01*
X20163415Y-52363282D01*
X20139500Y-52452539D01*
X500500Y-52452539D01*
X500500Y-51452539D01*
X17639500Y-51452539D01*
X17639500Y-51547461D01*
X17661166Y-51628321D01*
X17664068Y-51639152D01*
X17711524Y-51721347D01*
X17711526Y-51721349D01*
X17711528Y-51721352D01*
X17778648Y-51788472D01*
X17778650Y-51788473D01*
X17778652Y-51788475D01*
X17779201Y-51788871D01*
X17781203Y-51789948D01*
X17804078Y-51803155D01*
X17825672Y-51827137D01*
X17859998Y-51835719D01*
X17861571Y-51836125D01*
X17952539Y-51860500D01*
X17952541Y-51860500D01*
X18047459Y-51860500D01*
X18047461Y-51860500D01*
X18139148Y-51835933D01*
X18139150Y-51835931D01*
X18139152Y-51835931D01*
X18215223Y-51792010D01*
X18218104Y-51790612D01*
X18218893Y-51790093D01*
X18223898Y-51787002D01*
X18225197Y-51786251D01*
X18230557Y-51779266D01*
X18288472Y-51721352D01*
X18335933Y-51639148D01*
X18360500Y-51547461D01*
X18360500Y-51452539D01*
X18335933Y-51360852D01*
X18335933Y-51360851D01*
X18335611Y-51360140D01*
X18334358Y-51358122D01*
X18288475Y-51278652D01*
X18288473Y-51278650D01*
X18288472Y-51278648D01*
X18221352Y-51211528D01*
X18221349Y-51211526D01*
X18221347Y-51211524D01*
X18196439Y-51197143D01*
X18175402Y-51173780D01*
X18103577Y-51154536D01*
X18103576Y-51154535D01*
X18062496Y-51143528D01*
X18047461Y-51139500D01*
X18047460Y-51139500D01*
X17952540Y-51139500D01*
X17952539Y-51139500D01*
X17937504Y-51143528D01*
X17896423Y-51154535D01*
X17896422Y-51154536D01*
X17860847Y-51164068D01*
X17860844Y-51164069D01*
X17860842Y-51164070D01*
X17778654Y-51211522D01*
X17711520Y-51278656D01*
X17664067Y-51360847D01*
X17663789Y-51361583D01*
X17663613Y-51362337D01*
X17663622Y-51362463D01*
X17663415Y-51363282D01*
X17639500Y-51452539D01*
X500500Y-51452539D01*
X500500Y-49952539D01*
X27639500Y-49952539D01*
X27639500Y-50047461D01*
X27661166Y-50128321D01*
X27664068Y-50139152D01*
X27711524Y-50221347D01*
X27711526Y-50221349D01*
X27711528Y-50221352D01*
X27778648Y-50288472D01*
X27778650Y-50288473D01*
X27778652Y-50288475D01*
X27779201Y-50288871D01*
X27781203Y-50289948D01*
X27804078Y-50303155D01*
X27825672Y-50327137D01*
X27859998Y-50335719D01*
X27861571Y-50336125D01*
X27952539Y-50360500D01*
X27952541Y-50360500D01*
X28047459Y-50360500D01*
X28047461Y-50360500D01*
X28139148Y-50335933D01*
X28139150Y-50335931D01*
X28139152Y-50335931D01*
X28215223Y-50292010D01*
X28218104Y-50290612D01*
X28218893Y-50290093D01*
X28223898Y-50287002D01*
X28225197Y-50286251D01*
X28230557Y-50279266D01*
X28288472Y-50221352D01*
X28335933Y-50139148D01*
X28360500Y-50047461D01*
X28360500Y-49952539D01*
X28335933Y-49860852D01*
X28335933Y-49860851D01*
X28335611Y-49860140D01*
X28334358Y-49858122D01*
X28288475Y-49778652D01*
X28288473Y-49778650D01*
X28288472Y-49778648D01*
X28221352Y-49711528D01*
X28221349Y-49711526D01*
X28221347Y-49711524D01*
X28196439Y-49697143D01*
X28175402Y-49673780D01*
X28103577Y-49654536D01*
X28103576Y-49654535D01*
X28062496Y-49643528D01*
X28047461Y-49639500D01*
X28047460Y-49639500D01*
X27952540Y-49639500D01*
X27952539Y-49639500D01*
X27937504Y-49643528D01*
X27896423Y-49654535D01*
X27896422Y-49654536D01*
X27860847Y-49664068D01*
X27860844Y-49664069D01*
X27860842Y-49664070D01*
X27778654Y-49711522D01*
X27711520Y-49778656D01*
X27664067Y-49860847D01*
X27663789Y-49861583D01*
X27663243Y-49863924D01*
X27639500Y-49952539D01*
X500500Y-49952539D01*
X500500Y-49452539D01*
X17639500Y-49452539D01*
X17639500Y-49547461D01*
X17661166Y-49628321D01*
X17664068Y-49639152D01*
X17711524Y-49721347D01*
X17711526Y-49721349D01*
X17711528Y-49721352D01*
X17778648Y-49788472D01*
X17778650Y-49788473D01*
X17778652Y-49788475D01*
X17779201Y-49788871D01*
X17781203Y-49789948D01*
X17804078Y-49803155D01*
X17825672Y-49827137D01*
X17859998Y-49835719D01*
X17861571Y-49836125D01*
X17952539Y-49860500D01*
X17952541Y-49860500D01*
X18047459Y-49860500D01*
X18047461Y-49860500D01*
X18139148Y-49835933D01*
X18139150Y-49835931D01*
X18139152Y-49835931D01*
X18215212Y-49792017D01*
X18218104Y-49790612D01*
X18218893Y-49790093D01*
X18223898Y-49787002D01*
X18225197Y-49786251D01*
X18230557Y-49779266D01*
X18288472Y-49721352D01*
X18294146Y-49711524D01*
X18335931Y-49639152D01*
X18335931Y-49639150D01*
X18335933Y-49639148D01*
X18360500Y-49547461D01*
X18360500Y-49452539D01*
X18335933Y-49360852D01*
X18335933Y-49360851D01*
X18335611Y-49360140D01*
X18334358Y-49358122D01*
X18288475Y-49278652D01*
X18288473Y-49278650D01*
X18288472Y-49278648D01*
X18221352Y-49211528D01*
X18221349Y-49211526D01*
X18221347Y-49211524D01*
X18196439Y-49197143D01*
X18175402Y-49173780D01*
X18103577Y-49154536D01*
X18103576Y-49154535D01*
X18062496Y-49143528D01*
X18047461Y-49139500D01*
X18047460Y-49139500D01*
X17952540Y-49139500D01*
X17952539Y-49139500D01*
X17937504Y-49143528D01*
X17896423Y-49154535D01*
X17896422Y-49154536D01*
X17860847Y-49164068D01*
X17860844Y-49164069D01*
X17860842Y-49164070D01*
X17778654Y-49211522D01*
X17711520Y-49278656D01*
X17664067Y-49360847D01*
X17663789Y-49361583D01*
X17663613Y-49362337D01*
X17663622Y-49362463D01*
X17663415Y-49363282D01*
X17639500Y-49452539D01*
X500500Y-49452539D01*
X500500Y-48952539D01*
X19139500Y-48952539D01*
X19139500Y-49047461D01*
X19161166Y-49128321D01*
X19164068Y-49139152D01*
X19211524Y-49221347D01*
X19211526Y-49221349D01*
X19211528Y-49221352D01*
X19278648Y-49288472D01*
X19278650Y-49288473D01*
X19278652Y-49288475D01*
X19279201Y-49288871D01*
X19281203Y-49289948D01*
X19304078Y-49303155D01*
X19325672Y-49327137D01*
X19359998Y-49335719D01*
X19361571Y-49336125D01*
X19452539Y-49360500D01*
X19452541Y-49360500D01*
X19547459Y-49360500D01*
X19547461Y-49360500D01*
X19639148Y-49335933D01*
X19639150Y-49335931D01*
X19639152Y-49335931D01*
X19715223Y-49292010D01*
X19718104Y-49290612D01*
X19718893Y-49290093D01*
X19723898Y-49287002D01*
X19725197Y-49286251D01*
X19730557Y-49279266D01*
X19788472Y-49221352D01*
X19794146Y-49211524D01*
X19835931Y-49139152D01*
X19835931Y-49139150D01*
X19835933Y-49139148D01*
X19860500Y-49047461D01*
X19860500Y-48952539D01*
X20639500Y-48952539D01*
X20639500Y-49047461D01*
X20661166Y-49128321D01*
X20664068Y-49139152D01*
X20711524Y-49221347D01*
X20711526Y-49221349D01*
X20711528Y-49221352D01*
X20778648Y-49288472D01*
X20778650Y-49288473D01*
X20778652Y-49288475D01*
X20779201Y-49288871D01*
X20781203Y-49289948D01*
X20804078Y-49303155D01*
X20825672Y-49327137D01*
X20859998Y-49335719D01*
X20861571Y-49336125D01*
X20952539Y-49360500D01*
X20952541Y-49360500D01*
X21047459Y-49360500D01*
X21047461Y-49360500D01*
X21139148Y-49335933D01*
X21139150Y-49335931D01*
X21139152Y-49335931D01*
X21215223Y-49292010D01*
X21218104Y-49290612D01*
X21218893Y-49290093D01*
X21223898Y-49287002D01*
X21225197Y-49286251D01*
X21230557Y-49279266D01*
X21288472Y-49221352D01*
X21294146Y-49211524D01*
X21335931Y-49139152D01*
X21335931Y-49139150D01*
X21335933Y-49139148D01*
X21360500Y-49047461D01*
X21360500Y-48952539D01*
X24639500Y-48952539D01*
X24639500Y-49047461D01*
X24661166Y-49128321D01*
X24664068Y-49139152D01*
X24711524Y-49221347D01*
X24711526Y-49221349D01*
X24711528Y-49221352D01*
X24778648Y-49288472D01*
X24778650Y-49288473D01*
X24778652Y-49288475D01*
X24779201Y-49288871D01*
X24781203Y-49289948D01*
X24804078Y-49303155D01*
X24825672Y-49327137D01*
X24859998Y-49335719D01*
X24861571Y-49336125D01*
X24952539Y-49360500D01*
X24952541Y-49360500D01*
X25047459Y-49360500D01*
X25047461Y-49360500D01*
X25139148Y-49335933D01*
X25139150Y-49335931D01*
X25139152Y-49335931D01*
X25215223Y-49292010D01*
X25218104Y-49290612D01*
X25218893Y-49290093D01*
X25223898Y-49287002D01*
X25225197Y-49286251D01*
X25230557Y-49279266D01*
X25288472Y-49221352D01*
X25294146Y-49211524D01*
X25335931Y-49139152D01*
X25335931Y-49139150D01*
X25335933Y-49139148D01*
X25360500Y-49047461D01*
X25360500Y-48952539D01*
X25336129Y-48861583D01*
X25335933Y-48860851D01*
X25335611Y-48860140D01*
X25334358Y-48858122D01*
X25288475Y-48778652D01*
X25288473Y-48778650D01*
X25288472Y-48778648D01*
X25221352Y-48711528D01*
X25221349Y-48711526D01*
X25221347Y-48711524D01*
X25196439Y-48697143D01*
X25175402Y-48673780D01*
X25103577Y-48654536D01*
X25103576Y-48654535D01*
X25062496Y-48643528D01*
X25047461Y-48639500D01*
X25047460Y-48639500D01*
X24952540Y-48639500D01*
X24952539Y-48639500D01*
X24937504Y-48643528D01*
X24896423Y-48654535D01*
X24896422Y-48654536D01*
X24860847Y-48664068D01*
X24860844Y-48664069D01*
X24860842Y-48664070D01*
X24778654Y-48711522D01*
X24711520Y-48778656D01*
X24664067Y-48860847D01*
X24663789Y-48861583D01*
X24663243Y-48863924D01*
X24639500Y-48952539D01*
X21360500Y-48952539D01*
X21335933Y-48860852D01*
X21335931Y-48860849D01*
X21335931Y-48860847D01*
X21335706Y-48860457D01*
X21335636Y-48860180D01*
X21334358Y-48858122D01*
X21288475Y-48778652D01*
X21288473Y-48778650D01*
X21288472Y-48778648D01*
X21221352Y-48711528D01*
X21221349Y-48711526D01*
X21221347Y-48711524D01*
X21196439Y-48697143D01*
X21175402Y-48673780D01*
X21103577Y-48654536D01*
X21103576Y-48654535D01*
X21062496Y-48643528D01*
X21047461Y-48639500D01*
X21047460Y-48639500D01*
X20952540Y-48639500D01*
X20952539Y-48639500D01*
X20937504Y-48643528D01*
X20896423Y-48654535D01*
X20896422Y-48654536D01*
X20860847Y-48664068D01*
X20860844Y-48664069D01*
X20860842Y-48664070D01*
X20778654Y-48711522D01*
X20711520Y-48778656D01*
X20664067Y-48860847D01*
X20663789Y-48861583D01*
X20663243Y-48863924D01*
X20639500Y-48952539D01*
X19860500Y-48952539D01*
X19835933Y-48860852D01*
X19835931Y-48860849D01*
X19835931Y-48860847D01*
X19835706Y-48860457D01*
X19835636Y-48860180D01*
X19834358Y-48858122D01*
X19788475Y-48778652D01*
X19788473Y-48778650D01*
X19788472Y-48778648D01*
X19721352Y-48711528D01*
X19721349Y-48711526D01*
X19721347Y-48711524D01*
X19696439Y-48697143D01*
X19675402Y-48673780D01*
X19603577Y-48654536D01*
X19603576Y-48654535D01*
X19562496Y-48643528D01*
X19547461Y-48639500D01*
X19547460Y-48639500D01*
X19452540Y-48639500D01*
X19452539Y-48639500D01*
X19437504Y-48643528D01*
X19396423Y-48654535D01*
X19396422Y-48654536D01*
X19360847Y-48664068D01*
X19360844Y-48664069D01*
X19360842Y-48664070D01*
X19278654Y-48711522D01*
X19211520Y-48778656D01*
X19164067Y-48860847D01*
X19163866Y-48861380D01*
X19163622Y-48862463D01*
X19163415Y-48863282D01*
X19139500Y-48952539D01*
X500500Y-48952539D01*
X500500Y-46952539D01*
X20139500Y-46952539D01*
X20139500Y-47047461D01*
X20161166Y-47128321D01*
X20164068Y-47139152D01*
X20211524Y-47221347D01*
X20211526Y-47221349D01*
X20211528Y-47221352D01*
X20278648Y-47288472D01*
X20278650Y-47288473D01*
X20278652Y-47288475D01*
X20279201Y-47288871D01*
X20281203Y-47289948D01*
X20304078Y-47303155D01*
X20325672Y-47327137D01*
X20359998Y-47335719D01*
X20361571Y-47336125D01*
X20452539Y-47360500D01*
X20452541Y-47360500D01*
X20547459Y-47360500D01*
X20547461Y-47360500D01*
X20639148Y-47335933D01*
X20639150Y-47335931D01*
X20639152Y-47335931D01*
X20715223Y-47292010D01*
X20718104Y-47290612D01*
X20718893Y-47290093D01*
X20723898Y-47287002D01*
X20725197Y-47286251D01*
X20730557Y-47279266D01*
X20788472Y-47221352D01*
X20835933Y-47139148D01*
X20860500Y-47047461D01*
X20860500Y-46952539D01*
X22139500Y-46952539D01*
X22139500Y-47047461D01*
X22161166Y-47128321D01*
X22164068Y-47139152D01*
X22211524Y-47221347D01*
X22211526Y-47221349D01*
X22211528Y-47221352D01*
X22278648Y-47288472D01*
X22278650Y-47288473D01*
X22278652Y-47288475D01*
X22279201Y-47288871D01*
X22281203Y-47289948D01*
X22304078Y-47303155D01*
X22325672Y-47327137D01*
X22359998Y-47335719D01*
X22361571Y-47336125D01*
X22452539Y-47360500D01*
X22452541Y-47360500D01*
X22547459Y-47360500D01*
X22547461Y-47360500D01*
X22639148Y-47335933D01*
X22639150Y-47335931D01*
X22639152Y-47335931D01*
X22715223Y-47292010D01*
X22718104Y-47290612D01*
X22718893Y-47290093D01*
X22723898Y-47287002D01*
X22725197Y-47286251D01*
X22730557Y-47279266D01*
X22788472Y-47221352D01*
X22835933Y-47139148D01*
X22860500Y-47047461D01*
X22860500Y-46952539D01*
X23639500Y-46952539D01*
X23639500Y-47047461D01*
X23661166Y-47128321D01*
X23664068Y-47139152D01*
X23711524Y-47221347D01*
X23711526Y-47221349D01*
X23711528Y-47221352D01*
X23778648Y-47288472D01*
X23778650Y-47288473D01*
X23778652Y-47288475D01*
X23779201Y-47288871D01*
X23781203Y-47289948D01*
X23804078Y-47303155D01*
X23825672Y-47327137D01*
X23859998Y-47335719D01*
X23861571Y-47336125D01*
X23952539Y-47360500D01*
X23952541Y-47360500D01*
X24047459Y-47360500D01*
X24047461Y-47360500D01*
X24139148Y-47335933D01*
X24139150Y-47335931D01*
X24139152Y-47335931D01*
X24215223Y-47292010D01*
X24218104Y-47290612D01*
X24218893Y-47290093D01*
X24223898Y-47287002D01*
X24225197Y-47286251D01*
X24230557Y-47279266D01*
X24288472Y-47221352D01*
X24335933Y-47139148D01*
X24360500Y-47047461D01*
X24360500Y-46952539D01*
X30639500Y-46952539D01*
X30639500Y-47047461D01*
X30661166Y-47128321D01*
X30664068Y-47139152D01*
X30711524Y-47221347D01*
X30711526Y-47221349D01*
X30711528Y-47221352D01*
X30778648Y-47288472D01*
X30778650Y-47288473D01*
X30778652Y-47288475D01*
X30779201Y-47288871D01*
X30781203Y-47289948D01*
X30804078Y-47303155D01*
X30825672Y-47327137D01*
X30859998Y-47335719D01*
X30861571Y-47336125D01*
X30952539Y-47360500D01*
X30952541Y-47360500D01*
X31047459Y-47360500D01*
X31047461Y-47360500D01*
X31139148Y-47335933D01*
X31139150Y-47335931D01*
X31139152Y-47335931D01*
X31215223Y-47292010D01*
X31218104Y-47290612D01*
X31218893Y-47290093D01*
X31223898Y-47287002D01*
X31225197Y-47286251D01*
X31230557Y-47279266D01*
X31288472Y-47221352D01*
X31335933Y-47139148D01*
X31360500Y-47047461D01*
X31360500Y-46952539D01*
X31335933Y-46860852D01*
X31335933Y-46860851D01*
X31335611Y-46860140D01*
X31334358Y-46858122D01*
X31288475Y-46778652D01*
X31288473Y-46778650D01*
X31288472Y-46778648D01*
X31221352Y-46711528D01*
X31221349Y-46711526D01*
X31221347Y-46711524D01*
X31196439Y-46697143D01*
X31175402Y-46673780D01*
X31103577Y-46654536D01*
X31103576Y-46654535D01*
X31062496Y-46643528D01*
X31047461Y-46639500D01*
X31047460Y-46639500D01*
X30952540Y-46639500D01*
X30952539Y-46639500D01*
X30937504Y-46643528D01*
X30896423Y-46654535D01*
X30896422Y-46654536D01*
X30860847Y-46664068D01*
X30860844Y-46664069D01*
X30860842Y-46664070D01*
X30778654Y-46711522D01*
X30711520Y-46778656D01*
X30664067Y-46860847D01*
X30663789Y-46861583D01*
X30663243Y-46863924D01*
X30639500Y-46952539D01*
X24360500Y-46952539D01*
X24335933Y-46860852D01*
X24335931Y-46860849D01*
X24335931Y-46860847D01*
X24335706Y-46860457D01*
X24335636Y-46860180D01*
X24334358Y-46858122D01*
X24288475Y-46778652D01*
X24288473Y-46778650D01*
X24288472Y-46778648D01*
X24221352Y-46711528D01*
X24221349Y-46711526D01*
X24221347Y-46711524D01*
X24196439Y-46697143D01*
X24175402Y-46673780D01*
X24103577Y-46654536D01*
X24103576Y-46654535D01*
X24062496Y-46643528D01*
X24047461Y-46639500D01*
X24047460Y-46639500D01*
X23952540Y-46639500D01*
X23952539Y-46639500D01*
X23937504Y-46643528D01*
X23896423Y-46654535D01*
X23896422Y-46654536D01*
X23860847Y-46664068D01*
X23860844Y-46664069D01*
X23860842Y-46664070D01*
X23778654Y-46711522D01*
X23711520Y-46778656D01*
X23664067Y-46860847D01*
X23663789Y-46861583D01*
X23663243Y-46863924D01*
X23639500Y-46952539D01*
X22860500Y-46952539D01*
X22835933Y-46860852D01*
X22835931Y-46860849D01*
X22835931Y-46860847D01*
X22835706Y-46860457D01*
X22835636Y-46860180D01*
X22834358Y-46858122D01*
X22788475Y-46778652D01*
X22788473Y-46778650D01*
X22788472Y-46778648D01*
X22721352Y-46711528D01*
X22721349Y-46711526D01*
X22721347Y-46711524D01*
X22696439Y-46697143D01*
X22675402Y-46673780D01*
X22603577Y-46654536D01*
X22603576Y-46654535D01*
X22562496Y-46643528D01*
X22547461Y-46639500D01*
X22547460Y-46639500D01*
X22452540Y-46639500D01*
X22452539Y-46639500D01*
X22437504Y-46643528D01*
X22396423Y-46654535D01*
X22396422Y-46654536D01*
X22360847Y-46664068D01*
X22360844Y-46664069D01*
X22360842Y-46664070D01*
X22278654Y-46711522D01*
X22211520Y-46778656D01*
X22164067Y-46860847D01*
X22163789Y-46861583D01*
X22163243Y-46863924D01*
X22139500Y-46952539D01*
X20860500Y-46952539D01*
X20835933Y-46860852D01*
X20835931Y-46860849D01*
X20835931Y-46860847D01*
X20835706Y-46860457D01*
X20835636Y-46860180D01*
X20834358Y-46858122D01*
X20788475Y-46778652D01*
X20788473Y-46778650D01*
X20788472Y-46778648D01*
X20721352Y-46711528D01*
X20721349Y-46711526D01*
X20721347Y-46711524D01*
X20696439Y-46697143D01*
X20675402Y-46673780D01*
X20603577Y-46654536D01*
X20603576Y-46654535D01*
X20562496Y-46643528D01*
X20547461Y-46639500D01*
X20547460Y-46639500D01*
X20452540Y-46639500D01*
X20452539Y-46639500D01*
X20437504Y-46643528D01*
X20396423Y-46654535D01*
X20396422Y-46654536D01*
X20360847Y-46664068D01*
X20360844Y-46664069D01*
X20360842Y-46664070D01*
X20278654Y-46711522D01*
X20211520Y-46778656D01*
X20164067Y-46860847D01*
X20163789Y-46861583D01*
X20163613Y-46862337D01*
X20163622Y-46862463D01*
X20163415Y-46863282D01*
X20139500Y-46952539D01*
X500500Y-46952539D01*
X500500Y-45952539D01*
X35139500Y-45952539D01*
X35139500Y-46047461D01*
X35161166Y-46128321D01*
X35164068Y-46139152D01*
X35211524Y-46221347D01*
X35211526Y-46221349D01*
X35211528Y-46221352D01*
X35278648Y-46288472D01*
X35278650Y-46288473D01*
X35278652Y-46288475D01*
X35279201Y-46288871D01*
X35281203Y-46289948D01*
X35304078Y-46303155D01*
X35325672Y-46327137D01*
X35359998Y-46335719D01*
X35361571Y-46336125D01*
X35452539Y-46360500D01*
X35452541Y-46360500D01*
X35547459Y-46360500D01*
X35547461Y-46360500D01*
X35639148Y-46335933D01*
X35639150Y-46335931D01*
X35639152Y-46335931D01*
X35715223Y-46292010D01*
X35718104Y-46290612D01*
X35718893Y-46290093D01*
X35723898Y-46287002D01*
X35725197Y-46286251D01*
X35730557Y-46279266D01*
X35788472Y-46221352D01*
X35835933Y-46139148D01*
X35860500Y-46047461D01*
X35860500Y-45952539D01*
X35835933Y-45860852D01*
X35835933Y-45860851D01*
X35835611Y-45860140D01*
X35834358Y-45858122D01*
X35788475Y-45778652D01*
X35788473Y-45778650D01*
X35788472Y-45778648D01*
X35721352Y-45711528D01*
X35721349Y-45711526D01*
X35721347Y-45711524D01*
X35696439Y-45697143D01*
X35675402Y-45673780D01*
X35603577Y-45654536D01*
X35603576Y-45654535D01*
X35562496Y-45643528D01*
X35547461Y-45639500D01*
X35547460Y-45639500D01*
X35452540Y-45639500D01*
X35452539Y-45639500D01*
X35437504Y-45643528D01*
X35396423Y-45654535D01*
X35396422Y-45654536D01*
X35360847Y-45664068D01*
X35360844Y-45664069D01*
X35360842Y-45664070D01*
X35278654Y-45711522D01*
X35211520Y-45778656D01*
X35164067Y-45860847D01*
X35163789Y-45861583D01*
X35163613Y-45862337D01*
X35163622Y-45862463D01*
X35163415Y-45863282D01*
X35139500Y-45952539D01*
X500500Y-45952539D01*
X500500Y-44952539D01*
X20139500Y-44952539D01*
X20139500Y-45047461D01*
X20161166Y-45128321D01*
X20164068Y-45139152D01*
X20211524Y-45221347D01*
X20211526Y-45221349D01*
X20211528Y-45221352D01*
X20278648Y-45288472D01*
X20278650Y-45288473D01*
X20278652Y-45288475D01*
X20279201Y-45288871D01*
X20281203Y-45289948D01*
X20304078Y-45303155D01*
X20325672Y-45327137D01*
X20359998Y-45335719D01*
X20361571Y-45336125D01*
X20452539Y-45360500D01*
X20452541Y-45360500D01*
X20547459Y-45360500D01*
X20547461Y-45360500D01*
X20639148Y-45335933D01*
X20639150Y-45335931D01*
X20639152Y-45335931D01*
X20715223Y-45292010D01*
X20718104Y-45290612D01*
X20718893Y-45290093D01*
X20723898Y-45287002D01*
X20725197Y-45286251D01*
X20730557Y-45279266D01*
X20788472Y-45221352D01*
X20835933Y-45139148D01*
X20860500Y-45047461D01*
X20860500Y-44952539D01*
X20835933Y-44860852D01*
X20835933Y-44860851D01*
X20835611Y-44860140D01*
X20834358Y-44858122D01*
X20788475Y-44778652D01*
X20788473Y-44778650D01*
X20788472Y-44778648D01*
X20721352Y-44711528D01*
X20721349Y-44711526D01*
X20721347Y-44711524D01*
X20696439Y-44697143D01*
X20675402Y-44673780D01*
X20603577Y-44654536D01*
X20603576Y-44654535D01*
X20562496Y-44643528D01*
X20547461Y-44639500D01*
X20547460Y-44639500D01*
X20452540Y-44639500D01*
X20452539Y-44639500D01*
X20437504Y-44643528D01*
X20396423Y-44654535D01*
X20396422Y-44654536D01*
X20360847Y-44664068D01*
X20360844Y-44664069D01*
X20360842Y-44664070D01*
X20278654Y-44711522D01*
X20211520Y-44778656D01*
X20164067Y-44860847D01*
X20163789Y-44861583D01*
X20163613Y-44862337D01*
X20163622Y-44862463D01*
X20163415Y-44863282D01*
X20139500Y-44952539D01*
X500500Y-44952539D01*
X500500Y-43952539D01*
X35139500Y-43952539D01*
X35139500Y-44047461D01*
X35161166Y-44128321D01*
X35164068Y-44139152D01*
X35211524Y-44221347D01*
X35211526Y-44221349D01*
X35211528Y-44221352D01*
X35278648Y-44288472D01*
X35278650Y-44288473D01*
X35278652Y-44288475D01*
X35279201Y-44288871D01*
X35281203Y-44289948D01*
X35304078Y-44303155D01*
X35325672Y-44327137D01*
X35359998Y-44335719D01*
X35361571Y-44336125D01*
X35452539Y-44360500D01*
X35452541Y-44360500D01*
X35547459Y-44360500D01*
X35547461Y-44360500D01*
X35639148Y-44335933D01*
X35639150Y-44335931D01*
X35639152Y-44335931D01*
X35715223Y-44292010D01*
X35718104Y-44290612D01*
X35718893Y-44290093D01*
X35723898Y-44287002D01*
X35725197Y-44286251D01*
X35730557Y-44279266D01*
X35788472Y-44221352D01*
X35835933Y-44139148D01*
X35860500Y-44047461D01*
X35860500Y-43952539D01*
X35835933Y-43860852D01*
X35835933Y-43860851D01*
X35835611Y-43860140D01*
X35834358Y-43858122D01*
X35788475Y-43778652D01*
X35788473Y-43778650D01*
X35788472Y-43778648D01*
X35721352Y-43711528D01*
X35721349Y-43711526D01*
X35721347Y-43711524D01*
X35696439Y-43697143D01*
X35675402Y-43673780D01*
X35603577Y-43654536D01*
X35603576Y-43654535D01*
X35562496Y-43643528D01*
X35547461Y-43639500D01*
X35547460Y-43639500D01*
X35452540Y-43639500D01*
X35452539Y-43639500D01*
X35437504Y-43643528D01*
X35396423Y-43654535D01*
X35396422Y-43654536D01*
X35360847Y-43664068D01*
X35360844Y-43664069D01*
X35360842Y-43664070D01*
X35278654Y-43711522D01*
X35211520Y-43778656D01*
X35164067Y-43860847D01*
X35163789Y-43861583D01*
X35163243Y-43863924D01*
X35139500Y-43952539D01*
X500500Y-43952539D01*
X500500Y-43452539D01*
X16639500Y-43452539D01*
X16639500Y-43547461D01*
X16661166Y-43628321D01*
X16664068Y-43639152D01*
X16711524Y-43721347D01*
X16711526Y-43721349D01*
X16711528Y-43721352D01*
X16778648Y-43788472D01*
X16778650Y-43788473D01*
X16778652Y-43788475D01*
X16779201Y-43788871D01*
X16781203Y-43789948D01*
X16804078Y-43803155D01*
X16825672Y-43827137D01*
X16859998Y-43835719D01*
X16861571Y-43836125D01*
X16952539Y-43860500D01*
X16952541Y-43860500D01*
X17047459Y-43860500D01*
X17047461Y-43860500D01*
X17139148Y-43835933D01*
X17139150Y-43835931D01*
X17139152Y-43835931D01*
X17215212Y-43792017D01*
X17218104Y-43790612D01*
X17218893Y-43790093D01*
X17223898Y-43787002D01*
X17225197Y-43786251D01*
X17230557Y-43779266D01*
X17288472Y-43721352D01*
X17294146Y-43711524D01*
X17335931Y-43639152D01*
X17335931Y-43639150D01*
X17335933Y-43639148D01*
X17360500Y-43547461D01*
X17360500Y-43452539D01*
X17335933Y-43360852D01*
X17335933Y-43360851D01*
X17335611Y-43360140D01*
X17334358Y-43358122D01*
X17288475Y-43278652D01*
X17288473Y-43278650D01*
X17288472Y-43278648D01*
X17221352Y-43211528D01*
X17221349Y-43211526D01*
X17221347Y-43211524D01*
X17196439Y-43197143D01*
X17175402Y-43173780D01*
X17103577Y-43154536D01*
X17103576Y-43154535D01*
X17062496Y-43143528D01*
X17047461Y-43139500D01*
X17047460Y-43139500D01*
X16952540Y-43139500D01*
X16952539Y-43139500D01*
X16937504Y-43143528D01*
X16896423Y-43154535D01*
X16896422Y-43154536D01*
X16860847Y-43164068D01*
X16860844Y-43164069D01*
X16860842Y-43164070D01*
X16778654Y-43211522D01*
X16711520Y-43278656D01*
X16664067Y-43360847D01*
X16663789Y-43361583D01*
X16663613Y-43362337D01*
X16663622Y-43362463D01*
X16663415Y-43363282D01*
X16639500Y-43452539D01*
X500500Y-43452539D01*
X500500Y-42952539D01*
X20139500Y-42952539D01*
X20139500Y-43047461D01*
X20161166Y-43128321D01*
X20164068Y-43139152D01*
X20211524Y-43221347D01*
X20211526Y-43221349D01*
X20211528Y-43221352D01*
X20278648Y-43288472D01*
X20278650Y-43288473D01*
X20278652Y-43288475D01*
X20279201Y-43288871D01*
X20281203Y-43289948D01*
X20304078Y-43303155D01*
X20325672Y-43327137D01*
X20359998Y-43335719D01*
X20361571Y-43336125D01*
X20452539Y-43360500D01*
X20452541Y-43360500D01*
X20547459Y-43360500D01*
X20547461Y-43360500D01*
X20639148Y-43335933D01*
X20639150Y-43335931D01*
X20639152Y-43335931D01*
X20715223Y-43292010D01*
X20718104Y-43290612D01*
X20718893Y-43290093D01*
X20723898Y-43287002D01*
X20725197Y-43286251D01*
X20730557Y-43279266D01*
X20788472Y-43221352D01*
X20794146Y-43211524D01*
X20835931Y-43139152D01*
X20835931Y-43139150D01*
X20835933Y-43139148D01*
X20860500Y-43047461D01*
X20860500Y-42952539D01*
X20835933Y-42860852D01*
X20835933Y-42860851D01*
X20835611Y-42860140D01*
X20834358Y-42858122D01*
X20788475Y-42778652D01*
X20788473Y-42778650D01*
X20788472Y-42778648D01*
X20721352Y-42711528D01*
X20721349Y-42711526D01*
X20721347Y-42711524D01*
X20696439Y-42697143D01*
X20675402Y-42673780D01*
X20603577Y-42654536D01*
X20603576Y-42654535D01*
X20562496Y-42643528D01*
X20547461Y-42639500D01*
X20547460Y-42639500D01*
X20452540Y-42639500D01*
X20452539Y-42639500D01*
X20437504Y-42643528D01*
X20396423Y-42654535D01*
X20396422Y-42654536D01*
X20360847Y-42664068D01*
X20360844Y-42664069D01*
X20360842Y-42664070D01*
X20278654Y-42711522D01*
X20211520Y-42778656D01*
X20164067Y-42860847D01*
X20163789Y-42861583D01*
X20163613Y-42862337D01*
X20163622Y-42862463D01*
X20163415Y-42863282D01*
X20139500Y-42952539D01*
X500500Y-42952539D01*
X500500Y-42452539D01*
X35139500Y-42452539D01*
X35139500Y-42547461D01*
X35161166Y-42628321D01*
X35164068Y-42639152D01*
X35211524Y-42721347D01*
X35211526Y-42721349D01*
X35211528Y-42721352D01*
X35278648Y-42788472D01*
X35278650Y-42788473D01*
X35278652Y-42788475D01*
X35279201Y-42788871D01*
X35281203Y-42789948D01*
X35304078Y-42803155D01*
X35325672Y-42827137D01*
X35359998Y-42835719D01*
X35361571Y-42836125D01*
X35452539Y-42860500D01*
X35452541Y-42860500D01*
X35547459Y-42860500D01*
X35547461Y-42860500D01*
X35639148Y-42835933D01*
X35639150Y-42835931D01*
X35639152Y-42835931D01*
X35715223Y-42792010D01*
X35718104Y-42790612D01*
X35718893Y-42790093D01*
X35723898Y-42787002D01*
X35725197Y-42786251D01*
X35730557Y-42779266D01*
X35788472Y-42721352D01*
X35794146Y-42711524D01*
X35835931Y-42639152D01*
X35835931Y-42639150D01*
X35835933Y-42639148D01*
X35860500Y-42547461D01*
X35860500Y-42452539D01*
X35835933Y-42360852D01*
X35835933Y-42360851D01*
X35835611Y-42360140D01*
X35834358Y-42358122D01*
X35788475Y-42278652D01*
X35788473Y-42278650D01*
X35788472Y-42278648D01*
X35721352Y-42211528D01*
X35721349Y-42211526D01*
X35721347Y-42211524D01*
X35696439Y-42197143D01*
X35675402Y-42173780D01*
X35603577Y-42154536D01*
X35603576Y-42154535D01*
X35562496Y-42143528D01*
X35547461Y-42139500D01*
X35547460Y-42139500D01*
X35452540Y-42139500D01*
X35452539Y-42139500D01*
X35437504Y-42143528D01*
X35396423Y-42154535D01*
X35396422Y-42154536D01*
X35360847Y-42164068D01*
X35360844Y-42164069D01*
X35360842Y-42164070D01*
X35278654Y-42211522D01*
X35211520Y-42278656D01*
X35164067Y-42360847D01*
X35163789Y-42361583D01*
X35163613Y-42362337D01*
X35163622Y-42362463D01*
X35163415Y-42363282D01*
X35139500Y-42452539D01*
X500500Y-42452539D01*
X500500Y-40452539D01*
X35139500Y-40452539D01*
X35139500Y-40547461D01*
X35161166Y-40628321D01*
X35164068Y-40639152D01*
X35211524Y-40721347D01*
X35211526Y-40721349D01*
X35211528Y-40721352D01*
X35278648Y-40788472D01*
X35278650Y-40788473D01*
X35278652Y-40788475D01*
X35279201Y-40788871D01*
X35281203Y-40789948D01*
X35304078Y-40803155D01*
X35325672Y-40827137D01*
X35359998Y-40835719D01*
X35361571Y-40836125D01*
X35452539Y-40860500D01*
X35452541Y-40860500D01*
X35547459Y-40860500D01*
X35547461Y-40860500D01*
X35639148Y-40835933D01*
X35639150Y-40835931D01*
X35639152Y-40835931D01*
X35715223Y-40792010D01*
X35718104Y-40790612D01*
X35718893Y-40790093D01*
X35723898Y-40787002D01*
X35725197Y-40786251D01*
X35730557Y-40779266D01*
X35788472Y-40721352D01*
X35835933Y-40639148D01*
X35860500Y-40547461D01*
X35860500Y-40452539D01*
X35835933Y-40360852D01*
X35835933Y-40360851D01*
X35835611Y-40360140D01*
X35834358Y-40358122D01*
X35788475Y-40278652D01*
X35788473Y-40278650D01*
X35788472Y-40278648D01*
X35721352Y-40211528D01*
X35721349Y-40211526D01*
X35721347Y-40211524D01*
X35696439Y-40197143D01*
X35675402Y-40173780D01*
X35603577Y-40154536D01*
X35603576Y-40154535D01*
X35562496Y-40143528D01*
X35547461Y-40139500D01*
X35547460Y-40139500D01*
X35452540Y-40139500D01*
X35452539Y-40139500D01*
X35437504Y-40143528D01*
X35396423Y-40154535D01*
X35396422Y-40154536D01*
X35360847Y-40164068D01*
X35360844Y-40164069D01*
X35360842Y-40164070D01*
X35278654Y-40211522D01*
X35211520Y-40278656D01*
X35164067Y-40360847D01*
X35163789Y-40361583D01*
X35163613Y-40362337D01*
X35163622Y-40362463D01*
X35163415Y-40363282D01*
X35139500Y-40452539D01*
X500500Y-40452539D01*
X500500Y-38452539D01*
X35139500Y-38452539D01*
X35139500Y-38547461D01*
X35161166Y-38628321D01*
X35164068Y-38639152D01*
X35211524Y-38721347D01*
X35211526Y-38721349D01*
X35211528Y-38721352D01*
X35278648Y-38788472D01*
X35278650Y-38788473D01*
X35278652Y-38788475D01*
X35279201Y-38788871D01*
X35281203Y-38789948D01*
X35304078Y-38803155D01*
X35325672Y-38827137D01*
X35359998Y-38835719D01*
X35361571Y-38836125D01*
X35452539Y-38860500D01*
X35452541Y-38860500D01*
X35547459Y-38860500D01*
X35547461Y-38860500D01*
X35639148Y-38835933D01*
X35639150Y-38835931D01*
X35639152Y-38835931D01*
X35715223Y-38792010D01*
X35718104Y-38790612D01*
X35718893Y-38790093D01*
X35723898Y-38787002D01*
X35725197Y-38786251D01*
X35730557Y-38779266D01*
X35788472Y-38721352D01*
X35835933Y-38639148D01*
X35860500Y-38547461D01*
X35860500Y-38452539D01*
X35835933Y-38360852D01*
X35835933Y-38360851D01*
X35835611Y-38360140D01*
X35834358Y-38358122D01*
X35788475Y-38278652D01*
X35788473Y-38278650D01*
X35788472Y-38278648D01*
X35721352Y-38211528D01*
X35721349Y-38211526D01*
X35721347Y-38211524D01*
X35696439Y-38197143D01*
X35675402Y-38173780D01*
X35603577Y-38154536D01*
X35603576Y-38154535D01*
X35562496Y-38143528D01*
X35547461Y-38139500D01*
X35547460Y-38139500D01*
X35452540Y-38139500D01*
X35452539Y-38139500D01*
X35437504Y-38143528D01*
X35396423Y-38154535D01*
X35396422Y-38154536D01*
X35360847Y-38164068D01*
X35360844Y-38164069D01*
X35360842Y-38164070D01*
X35278654Y-38211522D01*
X35211520Y-38278656D01*
X35164067Y-38360847D01*
X35163789Y-38361583D01*
X35163613Y-38362337D01*
X35163622Y-38362463D01*
X35163415Y-38363282D01*
X35139500Y-38452539D01*
X500500Y-38452539D01*
X500500Y-36952539D01*
X35139500Y-36952539D01*
X35139500Y-37047461D01*
X35161166Y-37128321D01*
X35164068Y-37139152D01*
X35211524Y-37221347D01*
X35211526Y-37221349D01*
X35211528Y-37221352D01*
X35278648Y-37288472D01*
X35278650Y-37288473D01*
X35278652Y-37288475D01*
X35279201Y-37288871D01*
X35281203Y-37289948D01*
X35304078Y-37303155D01*
X35325672Y-37327137D01*
X35359998Y-37335719D01*
X35361571Y-37336125D01*
X35452539Y-37360500D01*
X35452541Y-37360500D01*
X35547459Y-37360500D01*
X35547461Y-37360500D01*
X35639148Y-37335933D01*
X35639150Y-37335931D01*
X35639152Y-37335931D01*
X35715223Y-37292010D01*
X35718104Y-37290612D01*
X35718893Y-37290093D01*
X35723898Y-37287002D01*
X35725197Y-37286251D01*
X35730557Y-37279266D01*
X35788472Y-37221352D01*
X35835933Y-37139148D01*
X35860500Y-37047461D01*
X35860500Y-36952539D01*
X35835933Y-36860852D01*
X35835933Y-36860851D01*
X35835611Y-36860140D01*
X35834358Y-36858122D01*
X35788475Y-36778652D01*
X35788473Y-36778650D01*
X35788472Y-36778648D01*
X35721352Y-36711528D01*
X35721349Y-36711526D01*
X35721347Y-36711524D01*
X35696439Y-36697143D01*
X35675402Y-36673780D01*
X35603577Y-36654536D01*
X35603576Y-36654535D01*
X35562496Y-36643528D01*
X35547461Y-36639500D01*
X35547460Y-36639500D01*
X35452540Y-36639500D01*
X35452539Y-36639500D01*
X35437504Y-36643528D01*
X35396423Y-36654535D01*
X35396422Y-36654536D01*
X35360847Y-36664068D01*
X35360844Y-36664069D01*
X35360842Y-36664070D01*
X35278654Y-36711522D01*
X35211520Y-36778656D01*
X35164067Y-36860847D01*
X35163789Y-36861583D01*
X35163613Y-36862337D01*
X35163622Y-36862463D01*
X35163415Y-36863282D01*
X35139500Y-36952539D01*
X500500Y-36952539D01*
X500500Y-35952539D01*
X20139500Y-35952539D01*
X20139500Y-36047461D01*
X20161166Y-36128321D01*
X20164068Y-36139152D01*
X20211524Y-36221347D01*
X20211526Y-36221349D01*
X20211528Y-36221352D01*
X20278648Y-36288472D01*
X20278650Y-36288473D01*
X20278652Y-36288475D01*
X20279201Y-36288871D01*
X20281203Y-36289948D01*
X20304078Y-36303155D01*
X20325672Y-36327137D01*
X20359998Y-36335719D01*
X20361571Y-36336125D01*
X20452539Y-36360500D01*
X20452541Y-36360500D01*
X20547459Y-36360500D01*
X20547461Y-36360500D01*
X20639148Y-36335933D01*
X20639150Y-36335931D01*
X20639152Y-36335931D01*
X20715223Y-36292010D01*
X20718104Y-36290612D01*
X20718893Y-36290093D01*
X20723898Y-36287002D01*
X20725197Y-36286251D01*
X20730557Y-36279266D01*
X20788472Y-36221352D01*
X20835933Y-36139148D01*
X20860500Y-36047461D01*
X20860500Y-35952539D01*
X20835933Y-35860852D01*
X20835933Y-35860851D01*
X20835611Y-35860140D01*
X20834358Y-35858122D01*
X20788475Y-35778652D01*
X20788473Y-35778650D01*
X20788472Y-35778648D01*
X20721352Y-35711528D01*
X20721349Y-35711526D01*
X20721347Y-35711524D01*
X20696439Y-35697143D01*
X20675402Y-35673780D01*
X20603577Y-35654536D01*
X20603576Y-35654535D01*
X20562496Y-35643528D01*
X20547461Y-35639500D01*
X20547460Y-35639500D01*
X20452540Y-35639500D01*
X20452539Y-35639500D01*
X20437504Y-35643528D01*
X20396423Y-35654535D01*
X20396422Y-35654536D01*
X20360847Y-35664068D01*
X20360844Y-35664069D01*
X20360842Y-35664070D01*
X20278654Y-35711522D01*
X20211520Y-35778656D01*
X20164067Y-35860847D01*
X20163789Y-35861583D01*
X20163613Y-35862337D01*
X20163622Y-35862463D01*
X20163415Y-35863282D01*
X20139500Y-35952539D01*
X500500Y-35952539D01*
X500500Y-34452539D01*
X20139500Y-34452539D01*
X20139500Y-34547461D01*
X20161166Y-34628321D01*
X20164068Y-34639152D01*
X20211524Y-34721347D01*
X20211526Y-34721349D01*
X20211528Y-34721352D01*
X20278648Y-34788472D01*
X20278650Y-34788473D01*
X20278652Y-34788475D01*
X20279201Y-34788871D01*
X20281203Y-34789948D01*
X20304078Y-34803155D01*
X20325672Y-34827137D01*
X20359998Y-34835719D01*
X20361571Y-34836125D01*
X20452539Y-34860500D01*
X20452541Y-34860500D01*
X20547459Y-34860500D01*
X20547461Y-34860500D01*
X20639148Y-34835933D01*
X20639150Y-34835931D01*
X20639152Y-34835931D01*
X20715223Y-34792010D01*
X20718104Y-34790612D01*
X20718893Y-34790093D01*
X20723898Y-34787002D01*
X20725197Y-34786251D01*
X20730557Y-34779266D01*
X20788472Y-34721352D01*
X20835933Y-34639148D01*
X20860500Y-34547461D01*
X20860500Y-34452539D01*
X20835933Y-34360852D01*
X20835933Y-34360851D01*
X20835611Y-34360140D01*
X20834358Y-34358122D01*
X20788475Y-34278652D01*
X20788473Y-34278650D01*
X20788472Y-34278648D01*
X20721352Y-34211528D01*
X20721349Y-34211526D01*
X20721347Y-34211524D01*
X20696439Y-34197143D01*
X20675402Y-34173780D01*
X20603577Y-34154536D01*
X20603576Y-34154535D01*
X20562496Y-34143528D01*
X20547461Y-34139500D01*
X20547460Y-34139500D01*
X20452540Y-34139500D01*
X20452539Y-34139500D01*
X20437504Y-34143528D01*
X20396423Y-34154535D01*
X20396422Y-34154536D01*
X20360847Y-34164068D01*
X20360844Y-34164069D01*
X20360842Y-34164070D01*
X20278654Y-34211522D01*
X20211520Y-34278656D01*
X20164067Y-34360847D01*
X20163789Y-34361583D01*
X20163613Y-34362337D01*
X20163622Y-34362463D01*
X20163415Y-34363282D01*
X20139500Y-34452539D01*
X500500Y-34452539D01*
X500500Y-33452539D01*
X35139500Y-33452539D01*
X35139500Y-33547461D01*
X35161166Y-33628321D01*
X35164068Y-33639152D01*
X35211524Y-33721347D01*
X35211526Y-33721349D01*
X35211528Y-33721352D01*
X35278648Y-33788472D01*
X35278650Y-33788473D01*
X35278652Y-33788475D01*
X35279201Y-33788871D01*
X35281203Y-33789948D01*
X35304078Y-33803155D01*
X35325672Y-33827137D01*
X35359998Y-33835719D01*
X35361571Y-33836125D01*
X35452539Y-33860500D01*
X35452541Y-33860500D01*
X35547459Y-33860500D01*
X35547461Y-33860500D01*
X35639148Y-33835933D01*
X35639150Y-33835931D01*
X35639152Y-33835931D01*
X35715223Y-33792010D01*
X35718104Y-33790612D01*
X35718893Y-33790093D01*
X35723898Y-33787002D01*
X35725197Y-33786251D01*
X35730557Y-33779266D01*
X35788472Y-33721352D01*
X35835933Y-33639148D01*
X35860500Y-33547461D01*
X35860500Y-33452539D01*
X35835933Y-33360852D01*
X35835933Y-33360851D01*
X35835611Y-33360140D01*
X35834358Y-33358122D01*
X35788475Y-33278652D01*
X35788473Y-33278650D01*
X35788472Y-33278648D01*
X35721352Y-33211528D01*
X35721349Y-33211526D01*
X35721347Y-33211524D01*
X35696439Y-33197143D01*
X35675402Y-33173780D01*
X35603577Y-33154536D01*
X35603576Y-33154535D01*
X35562496Y-33143528D01*
X35547461Y-33139500D01*
X35547460Y-33139500D01*
X35452540Y-33139500D01*
X35452539Y-33139500D01*
X35437504Y-33143528D01*
X35396423Y-33154535D01*
X35396422Y-33154536D01*
X35360847Y-33164068D01*
X35360844Y-33164069D01*
X35360842Y-33164070D01*
X35278654Y-33211522D01*
X35211520Y-33278656D01*
X35164067Y-33360847D01*
X35163789Y-33361583D01*
X35163613Y-33362337D01*
X35163622Y-33362463D01*
X35163415Y-33363282D01*
X35139500Y-33452539D01*
X500500Y-33452539D01*
X500500Y-29952539D01*
X18139500Y-29952539D01*
X18139500Y-30047461D01*
X18161166Y-30128321D01*
X18164068Y-30139152D01*
X18211524Y-30221347D01*
X18211526Y-30221349D01*
X18211528Y-30221352D01*
X18278648Y-30288472D01*
X18278650Y-30288473D01*
X18278652Y-30288475D01*
X18279201Y-30288871D01*
X18281203Y-30289948D01*
X18304078Y-30303155D01*
X18325672Y-30327137D01*
X18359998Y-30335719D01*
X18361571Y-30336125D01*
X18452539Y-30360500D01*
X18452541Y-30360500D01*
X18547459Y-30360500D01*
X18547461Y-30360500D01*
X18639148Y-30335933D01*
X18639150Y-30335931D01*
X18639152Y-30335931D01*
X18715223Y-30292010D01*
X18718104Y-30290612D01*
X18718893Y-30290093D01*
X18723898Y-30287002D01*
X18725197Y-30286251D01*
X18730557Y-30279266D01*
X18788472Y-30221352D01*
X18835933Y-30139148D01*
X18860500Y-30047461D01*
X18860500Y-29952539D01*
X18835933Y-29860852D01*
X18835933Y-29860851D01*
X18835611Y-29860140D01*
X18834358Y-29858122D01*
X18788475Y-29778652D01*
X18788473Y-29778650D01*
X18788472Y-29778648D01*
X18721352Y-29711528D01*
X18721349Y-29711526D01*
X18721347Y-29711524D01*
X18696439Y-29697143D01*
X18675402Y-29673780D01*
X18603577Y-29654536D01*
X18603576Y-29654535D01*
X18551107Y-29640477D01*
X18547461Y-29639500D01*
X18547460Y-29639500D01*
X18452540Y-29639500D01*
X18452539Y-29639500D01*
X18448893Y-29640477D01*
X18396423Y-29654535D01*
X18396422Y-29654536D01*
X18360847Y-29664068D01*
X18360844Y-29664069D01*
X18360842Y-29664070D01*
X18278654Y-29711522D01*
X18211520Y-29778656D01*
X18164067Y-29860847D01*
X18163789Y-29861583D01*
X18163613Y-29862337D01*
X18163622Y-29862463D01*
X18163415Y-29863282D01*
X18139500Y-29952539D01*
X500500Y-29952539D01*
X500500Y-28952539D01*
X16139500Y-28952539D01*
X16139500Y-29047461D01*
X16161166Y-29128321D01*
X16164068Y-29139152D01*
X16211524Y-29221347D01*
X16211526Y-29221349D01*
X16211528Y-29221352D01*
X16278648Y-29288472D01*
X16278650Y-29288473D01*
X16278652Y-29288475D01*
X16279201Y-29288871D01*
X16281203Y-29289948D01*
X16304078Y-29303155D01*
X16325672Y-29327137D01*
X16359998Y-29335719D01*
X16361571Y-29336125D01*
X16452539Y-29360500D01*
X16452541Y-29360500D01*
X16547459Y-29360500D01*
X16547461Y-29360500D01*
X16639148Y-29335933D01*
X16639150Y-29335931D01*
X16639152Y-29335931D01*
X16715223Y-29292010D01*
X16718104Y-29290612D01*
X16718893Y-29290093D01*
X16723898Y-29287002D01*
X16725197Y-29286251D01*
X16730557Y-29279266D01*
X16788472Y-29221352D01*
X16835933Y-29139148D01*
X16860500Y-29047461D01*
X16860500Y-28952539D01*
X16835933Y-28860852D01*
X16835933Y-28860851D01*
X16835611Y-28860140D01*
X16834358Y-28858122D01*
X16788475Y-28778652D01*
X16788473Y-28778650D01*
X16788472Y-28778648D01*
X16721352Y-28711528D01*
X16721349Y-28711526D01*
X16721347Y-28711524D01*
X16696439Y-28697143D01*
X16675402Y-28673780D01*
X16603577Y-28654536D01*
X16603576Y-28654535D01*
X16562496Y-28643528D01*
X16547461Y-28639500D01*
X16547460Y-28639500D01*
X16452540Y-28639500D01*
X16452539Y-28639500D01*
X16437504Y-28643528D01*
X16396423Y-28654535D01*
X16396422Y-28654536D01*
X16360847Y-28664068D01*
X16360844Y-28664069D01*
X16360842Y-28664070D01*
X16278654Y-28711522D01*
X16211520Y-28778656D01*
X16164067Y-28860847D01*
X16163789Y-28861583D01*
X16163613Y-28862337D01*
X16163622Y-28862463D01*
X16163415Y-28863282D01*
X16139500Y-28952539D01*
X500500Y-28952539D01*
X500500Y-25452539D01*
X19139500Y-25452539D01*
X19139500Y-25547461D01*
X19161166Y-25628321D01*
X19164068Y-25639152D01*
X19211524Y-25721347D01*
X19211526Y-25721349D01*
X19211528Y-25721352D01*
X19278648Y-25788472D01*
X19278650Y-25788473D01*
X19278652Y-25788475D01*
X19279201Y-25788871D01*
X19281203Y-25789948D01*
X19304078Y-25803155D01*
X19325672Y-25827137D01*
X19359998Y-25835719D01*
X19361571Y-25836125D01*
X19452539Y-25860500D01*
X19452541Y-25860500D01*
X19547459Y-25860500D01*
X19547461Y-25860500D01*
X19639148Y-25835933D01*
X19639150Y-25835931D01*
X19639152Y-25835931D01*
X19715223Y-25792010D01*
X19718104Y-25790612D01*
X19718893Y-25790093D01*
X19723898Y-25787002D01*
X19725197Y-25786251D01*
X19730557Y-25779266D01*
X19788472Y-25721352D01*
X19835933Y-25639148D01*
X19860500Y-25547461D01*
X19860500Y-25452539D01*
X19835933Y-25360852D01*
X19835933Y-25360851D01*
X19835611Y-25360140D01*
X19834358Y-25358122D01*
X19788475Y-25278652D01*
X19788473Y-25278650D01*
X19788472Y-25278648D01*
X19721352Y-25211528D01*
X19721349Y-25211526D01*
X19721347Y-25211524D01*
X19696439Y-25197143D01*
X19675402Y-25173780D01*
X19603577Y-25154536D01*
X19603576Y-25154535D01*
X19562496Y-25143528D01*
X19547461Y-25139500D01*
X19547460Y-25139500D01*
X19452540Y-25139500D01*
X19452539Y-25139500D01*
X19437504Y-25143528D01*
X19396423Y-25154535D01*
X19396422Y-25154536D01*
X19360847Y-25164068D01*
X19360844Y-25164069D01*
X19360842Y-25164070D01*
X19278654Y-25211522D01*
X19211520Y-25278656D01*
X19164067Y-25360847D01*
X19163789Y-25361583D01*
X19163613Y-25362337D01*
X19163622Y-25362463D01*
X19163415Y-25363282D01*
X19139500Y-25452539D01*
X500500Y-25452539D01*
X500500Y-23952539D01*
X20139500Y-23952539D01*
X20139500Y-23958314D01*
X20139500Y-24047460D01*
X20158891Y-24119834D01*
X20158893Y-24119838D01*
X20161166Y-24128321D01*
X20164068Y-24139152D01*
X20184855Y-24175155D01*
X20186642Y-24178963D01*
X20186843Y-24180567D01*
X20190838Y-24189412D01*
X20273886Y-24435877D01*
X20273888Y-24435883D01*
X20283341Y-24454068D01*
X20294500Y-24499729D01*
X20294500Y-31500390D01*
X20283218Y-31546287D01*
X20273891Y-31564111D01*
X20273885Y-31564126D01*
X20190840Y-31810583D01*
X20185725Y-31822936D01*
X20184325Y-31825759D01*
X20164068Y-31860847D01*
X20164067Y-31860852D01*
X20160696Y-31873430D01*
X20160693Y-31873438D01*
X20148831Y-31917713D01*
X20139500Y-31952539D01*
X20139500Y-32047461D01*
X20161166Y-32128321D01*
X20164068Y-32139152D01*
X20193338Y-32189849D01*
X20194831Y-32192898D01*
X20195352Y-32196574D01*
X20202748Y-32215838D01*
X20204855Y-32225750D01*
X20203303Y-32252571D01*
X20203432Y-32253475D01*
X20203229Y-32253857D01*
X20201836Y-32277948D01*
X20190838Y-32310587D01*
X20182759Y-32328472D01*
X20164066Y-32360850D01*
X20163789Y-32361583D01*
X20163243Y-32363924D01*
X20139500Y-32452539D01*
X20139500Y-32547461D01*
X20161166Y-32628321D01*
X20164068Y-32639152D01*
X20211524Y-32721347D01*
X20211526Y-32721349D01*
X20211528Y-32721352D01*
X20278648Y-32788472D01*
X20278650Y-32788473D01*
X20278652Y-32788475D01*
X20279201Y-32788871D01*
X20281203Y-32789948D01*
X20304078Y-32803155D01*
X20325672Y-32827137D01*
X20359998Y-32835719D01*
X20361571Y-32836125D01*
X20452539Y-32860500D01*
X20452541Y-32860500D01*
X20547459Y-32860500D01*
X20547461Y-32860500D01*
X20639148Y-32835933D01*
X20639150Y-32835931D01*
X20639152Y-32835931D01*
X20715223Y-32792010D01*
X20718104Y-32790612D01*
X20718893Y-32790093D01*
X20723898Y-32787002D01*
X20725197Y-32786251D01*
X20730557Y-32779266D01*
X20788472Y-32721352D01*
X20835933Y-32639148D01*
X20860500Y-32547461D01*
X20860500Y-32452539D01*
X20835933Y-32360852D01*
X20817242Y-32328479D01*
X20809161Y-32310590D01*
X20797008Y-32274523D01*
X20796344Y-32213342D01*
X20796659Y-32212355D01*
X20796696Y-32212240D01*
X20797285Y-32210425D01*
X20805707Y-32191499D01*
X20835933Y-32139148D01*
X20860500Y-32047461D01*
X20860500Y-31952539D01*
X20840497Y-31877885D01*
X20835933Y-31860851D01*
X20835610Y-31860138D01*
X20834344Y-31858099D01*
X20817241Y-31828475D01*
X20809161Y-31810588D01*
X20751394Y-31639150D01*
X20726113Y-31564121D01*
X20726112Y-31564119D01*
X20726111Y-31564116D01*
X20716659Y-31545932D01*
X20705500Y-31500271D01*
X20705500Y-31452539D01*
X21139500Y-31452539D01*
X21139500Y-31547461D01*
X21161166Y-31628321D01*
X21164068Y-31639152D01*
X21211524Y-31721347D01*
X21211526Y-31721349D01*
X21211528Y-31721352D01*
X21278648Y-31788472D01*
X21278650Y-31788473D01*
X21278652Y-31788475D01*
X21279201Y-31788871D01*
X21281203Y-31789948D01*
X21304078Y-31803155D01*
X21325672Y-31827137D01*
X21359998Y-31835719D01*
X21361571Y-31836125D01*
X21452539Y-31860500D01*
X21452541Y-31860500D01*
X21547459Y-31860500D01*
X21547461Y-31860500D01*
X21639148Y-31835933D01*
X21639159Y-31835926D01*
X21643123Y-31834285D01*
X21660431Y-31828909D01*
X21672478Y-31826348D01*
X21733327Y-31832742D01*
X21778789Y-31873666D01*
X21781226Y-31877885D01*
X21794500Y-31927403D01*
X21794500Y-32000390D01*
X21783218Y-32046287D01*
X21773891Y-32064111D01*
X21773885Y-32064126D01*
X21690840Y-32310583D01*
X21685725Y-32322936D01*
X21684325Y-32325759D01*
X21664068Y-32360847D01*
X21664067Y-32360852D01*
X21660696Y-32373430D01*
X21660693Y-32373438D01*
X21639500Y-32452539D01*
X21639500Y-32547461D01*
X21661166Y-32628321D01*
X21664068Y-32639152D01*
X21711524Y-32721347D01*
X21711526Y-32721349D01*
X21711528Y-32721352D01*
X21778648Y-32788472D01*
X21778650Y-32788473D01*
X21778652Y-32788475D01*
X21779201Y-32788871D01*
X21781203Y-32789948D01*
X21804078Y-32803155D01*
X21825672Y-32827137D01*
X21859998Y-32835719D01*
X21861571Y-32836125D01*
X21952539Y-32860500D01*
X21952541Y-32860500D01*
X22047459Y-32860500D01*
X22047461Y-32860500D01*
X22139148Y-32835933D01*
X22139150Y-32835931D01*
X22139152Y-32835931D01*
X22215223Y-32792010D01*
X22218104Y-32790612D01*
X22218893Y-32790093D01*
X22223898Y-32787002D01*
X22225197Y-32786251D01*
X22230557Y-32779266D01*
X22288472Y-32721352D01*
X22335933Y-32639148D01*
X22360500Y-32547461D01*
X22360500Y-32452539D01*
X22336129Y-32361583D01*
X22335933Y-32360851D01*
X22335610Y-32360138D01*
X22334344Y-32358099D01*
X22317241Y-32328475D01*
X22309161Y-32310588D01*
X22280574Y-32225750D01*
X22226113Y-32064121D01*
X22226112Y-32064119D01*
X22226111Y-32064116D01*
X22216659Y-32045932D01*
X22205500Y-32000271D01*
X22205500Y-31452539D01*
X22639500Y-31452539D01*
X22639500Y-31547461D01*
X22661166Y-31628321D01*
X22664068Y-31639152D01*
X22711524Y-31721347D01*
X22711526Y-31721349D01*
X22711528Y-31721352D01*
X22778648Y-31788472D01*
X22778650Y-31788473D01*
X22778652Y-31788475D01*
X22779201Y-31788871D01*
X22781203Y-31789948D01*
X22804078Y-31803155D01*
X22825672Y-31827137D01*
X22859998Y-31835719D01*
X22861571Y-31836125D01*
X22952539Y-31860500D01*
X22952541Y-31860500D01*
X23047459Y-31860500D01*
X23047461Y-31860500D01*
X23139148Y-31835933D01*
X23139150Y-31835931D01*
X23139152Y-31835931D01*
X23215223Y-31792010D01*
X23218104Y-31790612D01*
X23218893Y-31790093D01*
X23223898Y-31787002D01*
X23225197Y-31786251D01*
X23230557Y-31779266D01*
X23288472Y-31721352D01*
X23294500Y-31710911D01*
X23335931Y-31639152D01*
X23335931Y-31639150D01*
X23335933Y-31639148D01*
X23360500Y-31547461D01*
X23360500Y-31452539D01*
X24639500Y-31452539D01*
X24639500Y-31547461D01*
X24661166Y-31628321D01*
X24664068Y-31639152D01*
X24711524Y-31721347D01*
X24711526Y-31721349D01*
X24711528Y-31721352D01*
X24778648Y-31788472D01*
X24778650Y-31788473D01*
X24778652Y-31788475D01*
X24779201Y-31788871D01*
X24781203Y-31789948D01*
X24804078Y-31803155D01*
X24825672Y-31827137D01*
X24859998Y-31835719D01*
X24861571Y-31836125D01*
X24952539Y-31860500D01*
X24952541Y-31860500D01*
X25047459Y-31860500D01*
X25047461Y-31860500D01*
X25139148Y-31835933D01*
X25139150Y-31835931D01*
X25139152Y-31835931D01*
X25215223Y-31792010D01*
X25218104Y-31790612D01*
X25218893Y-31790093D01*
X25223898Y-31787002D01*
X25225197Y-31786251D01*
X25230557Y-31779266D01*
X25288472Y-31721352D01*
X25294500Y-31710911D01*
X25335931Y-31639152D01*
X25335931Y-31639150D01*
X25335933Y-31639148D01*
X25360500Y-31547461D01*
X25360500Y-31452539D01*
X26139500Y-31452539D01*
X26139500Y-31547461D01*
X26161166Y-31628321D01*
X26164068Y-31639152D01*
X26211524Y-31721347D01*
X26211526Y-31721349D01*
X26211528Y-31721352D01*
X26278648Y-31788472D01*
X26278650Y-31788473D01*
X26278652Y-31788475D01*
X26279201Y-31788871D01*
X26281203Y-31789948D01*
X26304078Y-31803155D01*
X26325672Y-31827137D01*
X26359998Y-31835719D01*
X26361571Y-31836125D01*
X26452539Y-31860500D01*
X26452541Y-31860500D01*
X26547459Y-31860500D01*
X26547461Y-31860500D01*
X26639148Y-31835933D01*
X26639150Y-31835931D01*
X26639152Y-31835931D01*
X26715223Y-31792010D01*
X26718104Y-31790612D01*
X26718893Y-31790093D01*
X26723898Y-31787002D01*
X26725197Y-31786251D01*
X26730557Y-31779266D01*
X26788472Y-31721352D01*
X26794500Y-31710911D01*
X26835931Y-31639152D01*
X26835931Y-31639150D01*
X26835933Y-31639148D01*
X26860500Y-31547461D01*
X26860500Y-31452539D01*
X28139500Y-31452539D01*
X28139500Y-31547461D01*
X28161166Y-31628321D01*
X28164068Y-31639152D01*
X28211524Y-31721347D01*
X28211526Y-31721349D01*
X28211528Y-31721352D01*
X28278648Y-31788472D01*
X28278650Y-31788473D01*
X28278652Y-31788475D01*
X28279201Y-31788871D01*
X28281203Y-31789948D01*
X28304078Y-31803155D01*
X28325672Y-31827137D01*
X28359998Y-31835719D01*
X28361571Y-31836125D01*
X28452539Y-31860500D01*
X28452541Y-31860500D01*
X28547459Y-31860500D01*
X28547461Y-31860500D01*
X28639148Y-31835933D01*
X28639150Y-31835931D01*
X28639152Y-31835931D01*
X28715223Y-31792010D01*
X28718104Y-31790612D01*
X28718893Y-31790093D01*
X28723898Y-31787002D01*
X28725197Y-31786251D01*
X28730557Y-31779266D01*
X28788472Y-31721352D01*
X28794500Y-31710911D01*
X28835931Y-31639152D01*
X28835931Y-31639150D01*
X28835933Y-31639148D01*
X28860500Y-31547461D01*
X28860500Y-31452539D01*
X30139500Y-31452539D01*
X30139500Y-31547461D01*
X30161166Y-31628321D01*
X30164068Y-31639152D01*
X30211524Y-31721347D01*
X30211526Y-31721349D01*
X30211528Y-31721352D01*
X30278648Y-31788472D01*
X30278650Y-31788473D01*
X30278652Y-31788475D01*
X30279201Y-31788871D01*
X30281203Y-31789948D01*
X30304078Y-31803155D01*
X30325672Y-31827137D01*
X30359998Y-31835719D01*
X30361571Y-31836125D01*
X30452539Y-31860500D01*
X30452541Y-31860500D01*
X30547459Y-31860500D01*
X30547461Y-31860500D01*
X30639148Y-31835933D01*
X30639150Y-31835931D01*
X30639152Y-31835931D01*
X30715223Y-31792010D01*
X30718104Y-31790612D01*
X30718893Y-31790093D01*
X30723898Y-31787002D01*
X30725197Y-31786251D01*
X30730557Y-31779266D01*
X30788472Y-31721352D01*
X30794500Y-31710911D01*
X30835931Y-31639152D01*
X30835931Y-31639150D01*
X30835933Y-31639148D01*
X30860500Y-31547461D01*
X30860500Y-31452539D01*
X31639500Y-31452539D01*
X31639500Y-31547461D01*
X31661166Y-31628321D01*
X31664068Y-31639152D01*
X31711524Y-31721347D01*
X31711526Y-31721349D01*
X31711528Y-31721352D01*
X31778648Y-31788472D01*
X31778650Y-31788473D01*
X31778652Y-31788475D01*
X31779201Y-31788871D01*
X31781203Y-31789948D01*
X31804078Y-31803155D01*
X31825672Y-31827137D01*
X31859998Y-31835719D01*
X31861571Y-31836125D01*
X31952539Y-31860500D01*
X31952541Y-31860500D01*
X32047459Y-31860500D01*
X32047461Y-31860500D01*
X32139148Y-31835933D01*
X32139150Y-31835931D01*
X32139152Y-31835931D01*
X32215223Y-31792010D01*
X32218104Y-31790612D01*
X32218893Y-31790093D01*
X32223898Y-31787002D01*
X32225197Y-31786251D01*
X32230557Y-31779266D01*
X32288472Y-31721352D01*
X32294500Y-31710911D01*
X32335931Y-31639152D01*
X32335931Y-31639150D01*
X32335933Y-31639148D01*
X32360500Y-31547461D01*
X32360500Y-31452539D01*
X33639500Y-31452539D01*
X33639500Y-31547461D01*
X33661166Y-31628321D01*
X33664068Y-31639152D01*
X33711524Y-31721347D01*
X33711526Y-31721349D01*
X33711528Y-31721352D01*
X33778648Y-31788472D01*
X33778650Y-31788473D01*
X33778652Y-31788475D01*
X33779201Y-31788871D01*
X33781203Y-31789948D01*
X33804078Y-31803155D01*
X33825672Y-31827137D01*
X33859998Y-31835719D01*
X33861571Y-31836125D01*
X33952539Y-31860500D01*
X33952541Y-31860500D01*
X34047459Y-31860500D01*
X34047461Y-31860500D01*
X34139148Y-31835933D01*
X34139150Y-31835931D01*
X34139152Y-31835931D01*
X34215223Y-31792010D01*
X34218104Y-31790612D01*
X34218893Y-31790093D01*
X34223898Y-31787002D01*
X34225197Y-31786251D01*
X34230557Y-31779266D01*
X34288472Y-31721352D01*
X34294500Y-31710911D01*
X34335931Y-31639152D01*
X34335931Y-31639150D01*
X34335933Y-31639148D01*
X34360500Y-31547461D01*
X34360500Y-31452539D01*
X35139500Y-31452539D01*
X35139500Y-31547461D01*
X35161166Y-31628321D01*
X35164068Y-31639152D01*
X35211524Y-31721347D01*
X35211526Y-31721349D01*
X35211528Y-31721352D01*
X35278648Y-31788472D01*
X35278650Y-31788473D01*
X35278652Y-31788475D01*
X35279201Y-31788871D01*
X35281203Y-31789948D01*
X35304078Y-31803155D01*
X35325672Y-31827137D01*
X35359998Y-31835719D01*
X35361571Y-31836125D01*
X35452539Y-31860500D01*
X35452541Y-31860500D01*
X35547459Y-31860500D01*
X35547461Y-31860500D01*
X35639148Y-31835933D01*
X35639150Y-31835931D01*
X35639152Y-31835931D01*
X35715223Y-31792010D01*
X35718104Y-31790612D01*
X35718893Y-31790093D01*
X35723898Y-31787002D01*
X35725197Y-31786251D01*
X35730557Y-31779266D01*
X35788472Y-31721352D01*
X35794500Y-31710911D01*
X35835931Y-31639152D01*
X35835931Y-31639150D01*
X35835933Y-31639148D01*
X35860500Y-31547461D01*
X35860500Y-31452539D01*
X35835933Y-31360852D01*
X35835933Y-31360851D01*
X35835611Y-31360140D01*
X35834358Y-31358122D01*
X35788475Y-31278652D01*
X35788473Y-31278650D01*
X35788472Y-31278648D01*
X35721352Y-31211528D01*
X35721349Y-31211526D01*
X35721347Y-31211524D01*
X35696439Y-31197143D01*
X35675402Y-31173780D01*
X35603577Y-31154536D01*
X35603576Y-31154535D01*
X35551107Y-31140477D01*
X35547461Y-31139500D01*
X35547460Y-31139500D01*
X35452540Y-31139500D01*
X35452539Y-31139500D01*
X35448893Y-31140477D01*
X35396423Y-31154535D01*
X35396422Y-31154536D01*
X35360847Y-31164068D01*
X35360844Y-31164069D01*
X35360842Y-31164070D01*
X35278654Y-31211522D01*
X35211520Y-31278656D01*
X35164067Y-31360847D01*
X35163789Y-31361583D01*
X35163243Y-31363924D01*
X35139500Y-31452539D01*
X34360500Y-31452539D01*
X34335933Y-31360852D01*
X34335931Y-31360849D01*
X34335931Y-31360847D01*
X34335706Y-31360457D01*
X34335636Y-31360180D01*
X34334358Y-31358122D01*
X34288475Y-31278652D01*
X34288473Y-31278650D01*
X34288472Y-31278648D01*
X34221352Y-31211528D01*
X34221349Y-31211526D01*
X34221347Y-31211524D01*
X34196439Y-31197143D01*
X34175402Y-31173780D01*
X34103577Y-31154536D01*
X34103576Y-31154535D01*
X34051107Y-31140477D01*
X34047461Y-31139500D01*
X34047460Y-31139500D01*
X33952540Y-31139500D01*
X33952539Y-31139500D01*
X33948893Y-31140477D01*
X33896423Y-31154535D01*
X33896422Y-31154536D01*
X33860847Y-31164068D01*
X33860844Y-31164069D01*
X33860842Y-31164070D01*
X33778654Y-31211522D01*
X33711520Y-31278656D01*
X33664067Y-31360847D01*
X33663789Y-31361583D01*
X33663243Y-31363924D01*
X33639500Y-31452539D01*
X32360500Y-31452539D01*
X32335933Y-31360852D01*
X32335931Y-31360849D01*
X32335931Y-31360847D01*
X32335706Y-31360457D01*
X32335636Y-31360180D01*
X32334358Y-31358122D01*
X32288475Y-31278652D01*
X32288473Y-31278650D01*
X32288472Y-31278648D01*
X32221352Y-31211528D01*
X32221349Y-31211526D01*
X32221347Y-31211524D01*
X32196439Y-31197143D01*
X32175402Y-31173780D01*
X32103577Y-31154536D01*
X32103576Y-31154535D01*
X32051107Y-31140477D01*
X32047461Y-31139500D01*
X32047460Y-31139500D01*
X31952540Y-31139500D01*
X31952539Y-31139500D01*
X31948893Y-31140477D01*
X31896423Y-31154535D01*
X31896422Y-31154536D01*
X31860847Y-31164068D01*
X31860844Y-31164069D01*
X31860842Y-31164070D01*
X31778654Y-31211522D01*
X31711520Y-31278656D01*
X31664067Y-31360847D01*
X31663789Y-31361583D01*
X31663243Y-31363924D01*
X31639500Y-31452539D01*
X30860500Y-31452539D01*
X30835933Y-31360852D01*
X30835931Y-31360849D01*
X30835931Y-31360847D01*
X30835706Y-31360457D01*
X30835636Y-31360180D01*
X30834358Y-31358122D01*
X30788475Y-31278652D01*
X30788473Y-31278650D01*
X30788472Y-31278648D01*
X30721352Y-31211528D01*
X30721349Y-31211526D01*
X30721347Y-31211524D01*
X30696439Y-31197143D01*
X30675402Y-31173780D01*
X30603577Y-31154536D01*
X30603576Y-31154535D01*
X30551107Y-31140477D01*
X30547461Y-31139500D01*
X30547460Y-31139500D01*
X30452540Y-31139500D01*
X30452539Y-31139500D01*
X30448893Y-31140477D01*
X30396423Y-31154535D01*
X30396422Y-31154536D01*
X30360847Y-31164068D01*
X30360844Y-31164069D01*
X30360842Y-31164070D01*
X30278654Y-31211522D01*
X30211520Y-31278656D01*
X30164067Y-31360847D01*
X30163789Y-31361583D01*
X30163243Y-31363924D01*
X30139500Y-31452539D01*
X28860500Y-31452539D01*
X28835933Y-31360852D01*
X28835931Y-31360849D01*
X28835931Y-31360847D01*
X28835706Y-31360457D01*
X28835636Y-31360180D01*
X28834358Y-31358122D01*
X28788475Y-31278652D01*
X28788473Y-31278650D01*
X28788472Y-31278648D01*
X28721352Y-31211528D01*
X28721349Y-31211526D01*
X28721347Y-31211524D01*
X28696439Y-31197143D01*
X28675402Y-31173780D01*
X28603577Y-31154536D01*
X28603576Y-31154535D01*
X28551107Y-31140477D01*
X28547461Y-31139500D01*
X28547460Y-31139500D01*
X28452540Y-31139500D01*
X28452539Y-31139500D01*
X28448893Y-31140477D01*
X28396423Y-31154535D01*
X28396422Y-31154536D01*
X28360847Y-31164068D01*
X28360844Y-31164069D01*
X28360842Y-31164070D01*
X28278654Y-31211522D01*
X28211520Y-31278656D01*
X28164067Y-31360847D01*
X28163789Y-31361583D01*
X28163243Y-31363924D01*
X28139500Y-31452539D01*
X26860500Y-31452539D01*
X26835933Y-31360852D01*
X26835931Y-31360849D01*
X26835931Y-31360847D01*
X26835706Y-31360457D01*
X26835636Y-31360180D01*
X26834358Y-31358122D01*
X26788475Y-31278652D01*
X26788473Y-31278650D01*
X26788472Y-31278648D01*
X26721352Y-31211528D01*
X26721349Y-31211526D01*
X26721347Y-31211524D01*
X26696439Y-31197143D01*
X26675402Y-31173780D01*
X26603577Y-31154536D01*
X26603576Y-31154535D01*
X26551107Y-31140477D01*
X26547461Y-31139500D01*
X26547460Y-31139500D01*
X26452540Y-31139500D01*
X26452539Y-31139500D01*
X26448893Y-31140477D01*
X26396423Y-31154535D01*
X26396422Y-31154536D01*
X26360847Y-31164068D01*
X26360844Y-31164069D01*
X26360842Y-31164070D01*
X26278654Y-31211522D01*
X26211520Y-31278656D01*
X26164067Y-31360847D01*
X26163789Y-31361583D01*
X26163243Y-31363924D01*
X26139500Y-31452539D01*
X25360500Y-31452539D01*
X25335933Y-31360852D01*
X25335931Y-31360849D01*
X25335931Y-31360847D01*
X25335706Y-31360457D01*
X25335636Y-31360180D01*
X25334358Y-31358122D01*
X25288475Y-31278652D01*
X25288473Y-31278650D01*
X25288472Y-31278648D01*
X25221352Y-31211528D01*
X25221349Y-31211526D01*
X25221347Y-31211524D01*
X25196439Y-31197143D01*
X25175402Y-31173780D01*
X25103577Y-31154536D01*
X25103576Y-31154535D01*
X25051107Y-31140477D01*
X25047461Y-31139500D01*
X25047460Y-31139500D01*
X24952540Y-31139500D01*
X24952539Y-31139500D01*
X24948893Y-31140477D01*
X24896423Y-31154535D01*
X24896422Y-31154536D01*
X24860847Y-31164068D01*
X24860844Y-31164069D01*
X24860842Y-31164070D01*
X24778654Y-31211522D01*
X24711520Y-31278656D01*
X24664067Y-31360847D01*
X24663789Y-31361583D01*
X24663243Y-31363924D01*
X24639500Y-31452539D01*
X23360500Y-31452539D01*
X23335933Y-31360852D01*
X23335931Y-31360849D01*
X23335931Y-31360847D01*
X23335706Y-31360457D01*
X23335636Y-31360180D01*
X23334358Y-31358122D01*
X23288475Y-31278652D01*
X23288473Y-31278650D01*
X23288472Y-31278648D01*
X23221352Y-31211528D01*
X23221349Y-31211526D01*
X23221347Y-31211524D01*
X23196439Y-31197143D01*
X23175402Y-31173780D01*
X23103577Y-31154536D01*
X23103576Y-31154535D01*
X23051107Y-31140477D01*
X23047461Y-31139500D01*
X23047460Y-31139500D01*
X22952540Y-31139500D01*
X22952539Y-31139500D01*
X22948893Y-31140477D01*
X22896423Y-31154535D01*
X22896422Y-31154536D01*
X22860847Y-31164068D01*
X22860844Y-31164069D01*
X22860842Y-31164070D01*
X22778654Y-31211522D01*
X22711520Y-31278656D01*
X22664067Y-31360847D01*
X22663789Y-31361583D01*
X22663613Y-31362337D01*
X22663622Y-31362463D01*
X22663415Y-31363282D01*
X22639500Y-31452539D01*
X22205500Y-31452539D01*
X22205500Y-30820180D01*
X22210343Y-30789594D01*
X22214465Y-30776905D01*
X22250423Y-30727406D01*
X22251022Y-30726971D01*
X22254563Y-30724400D01*
X22312743Y-30705500D01*
X22540875Y-30705500D01*
X22540878Y-30705500D01*
X22599290Y-30681303D01*
X22599296Y-30681303D01*
X22599296Y-30681301D01*
X22616406Y-30674215D01*
X22674215Y-30616406D01*
X22705500Y-30540876D01*
X22705500Y-29952539D01*
X24639500Y-29952539D01*
X24639500Y-30047461D01*
X24661166Y-30128321D01*
X24664068Y-30139152D01*
X24711524Y-30221347D01*
X24711526Y-30221349D01*
X24711528Y-30221352D01*
X24778648Y-30288472D01*
X24778650Y-30288473D01*
X24778652Y-30288475D01*
X24779201Y-30288871D01*
X24781203Y-30289948D01*
X24804078Y-30303155D01*
X24825672Y-30327137D01*
X24859998Y-30335719D01*
X24861571Y-30336125D01*
X24952539Y-30360500D01*
X24952541Y-30360500D01*
X25047459Y-30360500D01*
X25047461Y-30360500D01*
X25139148Y-30335933D01*
X25139150Y-30335931D01*
X25139152Y-30335931D01*
X25215223Y-30292010D01*
X25218104Y-30290612D01*
X25218893Y-30290093D01*
X25223898Y-30287002D01*
X25225197Y-30286251D01*
X25230557Y-30279266D01*
X25288472Y-30221352D01*
X25335933Y-30139148D01*
X25360500Y-30047461D01*
X25360500Y-29952539D01*
X28139500Y-29952539D01*
X28139500Y-30047461D01*
X28161166Y-30128321D01*
X28164068Y-30139152D01*
X28211524Y-30221347D01*
X28211526Y-30221349D01*
X28211528Y-30221352D01*
X28278648Y-30288472D01*
X28278650Y-30288473D01*
X28278652Y-30288475D01*
X28279201Y-30288871D01*
X28281203Y-30289948D01*
X28304078Y-30303155D01*
X28325672Y-30327137D01*
X28359998Y-30335719D01*
X28361571Y-30336125D01*
X28452539Y-30360500D01*
X28452541Y-30360500D01*
X28547459Y-30360500D01*
X28547461Y-30360500D01*
X28639148Y-30335933D01*
X28639150Y-30335931D01*
X28639152Y-30335931D01*
X28715223Y-30292010D01*
X28718104Y-30290612D01*
X28718893Y-30290093D01*
X28723898Y-30287002D01*
X28725197Y-30286251D01*
X28730557Y-30279266D01*
X28788472Y-30221352D01*
X28835933Y-30139148D01*
X28860500Y-30047461D01*
X28860500Y-29952539D01*
X31139500Y-29952539D01*
X31139500Y-30047461D01*
X31161166Y-30128321D01*
X31164068Y-30139152D01*
X31211524Y-30221347D01*
X31211526Y-30221349D01*
X31211528Y-30221352D01*
X31278648Y-30288472D01*
X31278650Y-30288473D01*
X31278652Y-30288475D01*
X31279201Y-30288871D01*
X31281203Y-30289948D01*
X31304078Y-30303155D01*
X31325672Y-30327137D01*
X31359998Y-30335719D01*
X31361571Y-30336125D01*
X31452539Y-30360500D01*
X31452541Y-30360500D01*
X31547459Y-30360500D01*
X31547461Y-30360500D01*
X31639148Y-30335933D01*
X31639150Y-30335931D01*
X31639152Y-30335931D01*
X31715223Y-30292010D01*
X31718104Y-30290612D01*
X31718893Y-30290093D01*
X31723898Y-30287002D01*
X31725197Y-30286251D01*
X31730557Y-30279266D01*
X31788472Y-30221352D01*
X31835933Y-30139148D01*
X31860500Y-30047461D01*
X31860500Y-29952539D01*
X34639500Y-29952539D01*
X34639500Y-30047461D01*
X34661166Y-30128321D01*
X34664068Y-30139152D01*
X34711524Y-30221347D01*
X34711526Y-30221349D01*
X34711528Y-30221352D01*
X34778648Y-30288472D01*
X34778650Y-30288473D01*
X34778652Y-30288475D01*
X34779201Y-30288871D01*
X34781203Y-30289948D01*
X34804078Y-30303155D01*
X34825672Y-30327137D01*
X34859998Y-30335719D01*
X34861571Y-30336125D01*
X34952539Y-30360500D01*
X34952541Y-30360500D01*
X35047459Y-30360500D01*
X35047461Y-30360500D01*
X35139148Y-30335933D01*
X35139150Y-30335931D01*
X35139152Y-30335931D01*
X35215223Y-30292010D01*
X35218104Y-30290612D01*
X35218893Y-30290093D01*
X35223898Y-30287002D01*
X35225197Y-30286251D01*
X35230557Y-30279266D01*
X35288472Y-30221352D01*
X35335933Y-30139148D01*
X35360500Y-30047461D01*
X35360500Y-29952539D01*
X40639500Y-29952539D01*
X40639500Y-30047461D01*
X40661166Y-30128321D01*
X40664068Y-30139152D01*
X40711524Y-30221347D01*
X40711526Y-30221349D01*
X40711528Y-30221352D01*
X40778648Y-30288472D01*
X40778650Y-30288473D01*
X40778652Y-30288475D01*
X40779201Y-30288871D01*
X40781203Y-30289948D01*
X40804078Y-30303155D01*
X40825672Y-30327137D01*
X40859998Y-30335719D01*
X40861571Y-30336125D01*
X40952539Y-30360500D01*
X40952541Y-30360500D01*
X41047459Y-30360500D01*
X41047461Y-30360500D01*
X41139148Y-30335933D01*
X41139150Y-30335931D01*
X41139152Y-30335931D01*
X41215223Y-30292010D01*
X41218104Y-30290612D01*
X41218893Y-30290093D01*
X41223898Y-30287002D01*
X41225197Y-30286251D01*
X41230557Y-30279266D01*
X41288472Y-30221352D01*
X41335933Y-30139148D01*
X41360500Y-30047461D01*
X41360500Y-29952539D01*
X41335933Y-29860852D01*
X41335933Y-29860851D01*
X41335611Y-29860140D01*
X41334358Y-29858122D01*
X41288475Y-29778652D01*
X41288473Y-29778650D01*
X41288472Y-29778648D01*
X41221352Y-29711528D01*
X41221349Y-29711526D01*
X41221347Y-29711524D01*
X41196439Y-29697143D01*
X41175402Y-29673780D01*
X41103577Y-29654536D01*
X41103576Y-29654535D01*
X41051107Y-29640477D01*
X41047461Y-29639500D01*
X41047460Y-29639500D01*
X40952540Y-29639500D01*
X40952539Y-29639500D01*
X40948893Y-29640477D01*
X40896423Y-29654535D01*
X40896422Y-29654536D01*
X40860847Y-29664068D01*
X40860844Y-29664069D01*
X40860842Y-29664070D01*
X40778654Y-29711522D01*
X40711520Y-29778656D01*
X40664067Y-29860847D01*
X40663789Y-29861583D01*
X40663243Y-29863924D01*
X40639500Y-29952539D01*
X35360500Y-29952539D01*
X35335933Y-29860852D01*
X35335931Y-29860849D01*
X35335931Y-29860847D01*
X35335706Y-29860457D01*
X35335636Y-29860180D01*
X35334358Y-29858122D01*
X35288475Y-29778652D01*
X35288473Y-29778650D01*
X35288472Y-29778648D01*
X35221352Y-29711528D01*
X35221349Y-29711526D01*
X35221347Y-29711524D01*
X35196439Y-29697143D01*
X35175402Y-29673780D01*
X35103577Y-29654536D01*
X35103576Y-29654535D01*
X35051107Y-29640477D01*
X35047461Y-29639500D01*
X35047460Y-29639500D01*
X34952540Y-29639500D01*
X34952539Y-29639500D01*
X34948893Y-29640477D01*
X34896423Y-29654535D01*
X34896422Y-29654536D01*
X34860847Y-29664068D01*
X34860844Y-29664069D01*
X34860842Y-29664070D01*
X34778654Y-29711522D01*
X34711520Y-29778656D01*
X34664067Y-29860847D01*
X34663789Y-29861583D01*
X34663243Y-29863924D01*
X34639500Y-29952539D01*
X31860500Y-29952539D01*
X31835933Y-29860852D01*
X31835931Y-29860849D01*
X31835931Y-29860847D01*
X31835706Y-29860457D01*
X31835636Y-29860180D01*
X31834358Y-29858122D01*
X31788475Y-29778652D01*
X31788473Y-29778650D01*
X31788472Y-29778648D01*
X31721352Y-29711528D01*
X31721349Y-29711526D01*
X31721347Y-29711524D01*
X31696439Y-29697143D01*
X31675402Y-29673780D01*
X31603577Y-29654536D01*
X31603576Y-29654535D01*
X31551107Y-29640477D01*
X31547461Y-29639500D01*
X31547460Y-29639500D01*
X31452540Y-29639500D01*
X31452539Y-29639500D01*
X31448893Y-29640477D01*
X31396423Y-29654535D01*
X31396422Y-29654536D01*
X31360847Y-29664068D01*
X31360844Y-29664069D01*
X31360842Y-29664070D01*
X31278654Y-29711522D01*
X31211520Y-29778656D01*
X31164067Y-29860847D01*
X31163789Y-29861583D01*
X31163243Y-29863924D01*
X31139500Y-29952539D01*
X28860500Y-29952539D01*
X28835933Y-29860852D01*
X28835931Y-29860849D01*
X28835931Y-29860847D01*
X28835706Y-29860457D01*
X28835636Y-29860180D01*
X28834358Y-29858122D01*
X28788475Y-29778652D01*
X28788473Y-29778650D01*
X28788472Y-29778648D01*
X28721352Y-29711528D01*
X28721349Y-29711526D01*
X28721347Y-29711524D01*
X28696439Y-29697143D01*
X28675402Y-29673780D01*
X28603577Y-29654536D01*
X28603576Y-29654535D01*
X28551107Y-29640477D01*
X28547461Y-29639500D01*
X28547460Y-29639500D01*
X28452540Y-29639500D01*
X28452539Y-29639500D01*
X28448893Y-29640477D01*
X28396423Y-29654535D01*
X28396422Y-29654536D01*
X28360847Y-29664068D01*
X28360844Y-29664069D01*
X28360842Y-29664070D01*
X28278654Y-29711522D01*
X28211520Y-29778656D01*
X28164067Y-29860847D01*
X28163789Y-29861583D01*
X28163243Y-29863924D01*
X28139500Y-29952539D01*
X25360500Y-29952539D01*
X25335933Y-29860852D01*
X25335931Y-29860849D01*
X25335931Y-29860847D01*
X25335706Y-29860457D01*
X25335636Y-29860180D01*
X25334358Y-29858122D01*
X25288475Y-29778652D01*
X25288473Y-29778650D01*
X25288472Y-29778648D01*
X25221352Y-29711528D01*
X25221349Y-29711526D01*
X25221347Y-29711524D01*
X25196439Y-29697143D01*
X25175402Y-29673780D01*
X25103577Y-29654536D01*
X25103576Y-29654535D01*
X25051107Y-29640477D01*
X25047461Y-29639500D01*
X25047460Y-29639500D01*
X24952540Y-29639500D01*
X24952539Y-29639500D01*
X24948893Y-29640477D01*
X24896423Y-29654535D01*
X24896422Y-29654536D01*
X24860847Y-29664068D01*
X24860844Y-29664069D01*
X24860842Y-29664070D01*
X24778654Y-29711522D01*
X24711520Y-29778656D01*
X24664067Y-29860847D01*
X24663789Y-29861583D01*
X24663613Y-29862337D01*
X24663622Y-29862463D01*
X24663415Y-29863282D01*
X24639500Y-29952539D01*
X22705500Y-29952539D01*
X22705500Y-26459124D01*
X22705500Y-26459122D01*
X22705499Y-26459121D01*
X22702773Y-26452539D01*
X40639500Y-26452539D01*
X40639500Y-26547461D01*
X40657973Y-26616403D01*
X40664068Y-26639152D01*
X40711524Y-26721347D01*
X40711526Y-26721349D01*
X40711528Y-26721352D01*
X40778648Y-26788472D01*
X40778650Y-26788473D01*
X40778652Y-26788475D01*
X40779201Y-26788871D01*
X40781203Y-26789948D01*
X40804078Y-26803155D01*
X40825672Y-26827137D01*
X40859998Y-26835719D01*
X40861571Y-26836125D01*
X40952539Y-26860500D01*
X40952541Y-26860500D01*
X41047459Y-26860500D01*
X41047461Y-26860500D01*
X41139148Y-26835933D01*
X41139150Y-26835931D01*
X41139152Y-26835931D01*
X41215223Y-26792010D01*
X41218104Y-26790612D01*
X41218893Y-26790093D01*
X41223898Y-26787002D01*
X41225197Y-26786251D01*
X41230557Y-26779266D01*
X41288472Y-26721352D01*
X41335933Y-26639148D01*
X41360500Y-26547461D01*
X41360500Y-26452539D01*
X41335933Y-26360852D01*
X41335933Y-26360851D01*
X41335611Y-26360140D01*
X41334358Y-26358122D01*
X41288475Y-26278652D01*
X41288473Y-26278650D01*
X41288472Y-26278648D01*
X41221352Y-26211528D01*
X41221349Y-26211526D01*
X41221347Y-26211524D01*
X41196439Y-26197143D01*
X41175402Y-26173780D01*
X41103577Y-26154536D01*
X41103576Y-26154535D01*
X41062496Y-26143528D01*
X41047461Y-26139500D01*
X41047460Y-26139500D01*
X40952540Y-26139500D01*
X40952539Y-26139500D01*
X40937504Y-26143528D01*
X40896423Y-26154535D01*
X40896422Y-26154536D01*
X40860847Y-26164068D01*
X40860844Y-26164069D01*
X40860842Y-26164070D01*
X40778654Y-26211522D01*
X40711520Y-26278656D01*
X40664067Y-26360847D01*
X40663789Y-26361583D01*
X40663243Y-26363924D01*
X40643289Y-26438397D01*
X40639500Y-26452539D01*
X22702773Y-26452539D01*
X22674216Y-26383596D01*
X22674215Y-26383595D01*
X22674215Y-26383594D01*
X22616406Y-26325785D01*
X22616404Y-26325784D01*
X22616403Y-26325783D01*
X22616400Y-26325781D01*
X22540880Y-26294500D01*
X22540878Y-26294500D01*
X22540876Y-26294500D01*
X22320180Y-26294500D01*
X22289587Y-26289654D01*
X22276901Y-26285532D01*
X22227401Y-26249568D01*
X22227394Y-26249558D01*
X22224400Y-26245436D01*
X22205500Y-26187256D01*
X22205500Y-25452539D01*
X22639500Y-25452539D01*
X22639500Y-25547461D01*
X22661166Y-25628321D01*
X22664068Y-25639152D01*
X22711524Y-25721347D01*
X22711526Y-25721349D01*
X22711528Y-25721352D01*
X22778648Y-25788472D01*
X22778650Y-25788473D01*
X22778652Y-25788475D01*
X22779201Y-25788871D01*
X22781203Y-25789948D01*
X22804078Y-25803155D01*
X22825672Y-25827137D01*
X22859998Y-25835719D01*
X22861571Y-25836125D01*
X22952539Y-25860500D01*
X22952541Y-25860500D01*
X23047459Y-25860500D01*
X23047461Y-25860500D01*
X23139148Y-25835933D01*
X23139150Y-25835931D01*
X23139152Y-25835931D01*
X23215223Y-25792010D01*
X23218104Y-25790612D01*
X23218893Y-25790093D01*
X23223898Y-25787002D01*
X23225197Y-25786251D01*
X23230557Y-25779266D01*
X23288472Y-25721352D01*
X23335933Y-25639148D01*
X23360500Y-25547461D01*
X23360500Y-25452539D01*
X25639500Y-25452539D01*
X25639500Y-25547461D01*
X25661166Y-25628321D01*
X25664068Y-25639152D01*
X25711524Y-25721347D01*
X25711526Y-25721349D01*
X25711528Y-25721352D01*
X25778648Y-25788472D01*
X25778650Y-25788473D01*
X25778652Y-25788475D01*
X25779201Y-25788871D01*
X25781203Y-25789948D01*
X25804078Y-25803155D01*
X25825672Y-25827137D01*
X25859998Y-25835719D01*
X25861571Y-25836125D01*
X25952539Y-25860500D01*
X25952541Y-25860500D01*
X26047459Y-25860500D01*
X26047461Y-25860500D01*
X26139148Y-25835933D01*
X26139150Y-25835931D01*
X26139152Y-25835931D01*
X26215223Y-25792010D01*
X26218104Y-25790612D01*
X26218893Y-25790093D01*
X26223898Y-25787002D01*
X26225197Y-25786251D01*
X26230557Y-25779266D01*
X26288472Y-25721352D01*
X26335933Y-25639148D01*
X26360500Y-25547461D01*
X26360500Y-25452539D01*
X29139500Y-25452539D01*
X29139500Y-25547461D01*
X29161166Y-25628321D01*
X29164068Y-25639152D01*
X29211524Y-25721347D01*
X29211526Y-25721349D01*
X29211528Y-25721352D01*
X29278648Y-25788472D01*
X29278650Y-25788473D01*
X29278652Y-25788475D01*
X29279201Y-25788871D01*
X29281203Y-25789948D01*
X29304078Y-25803155D01*
X29325672Y-25827137D01*
X29359998Y-25835719D01*
X29361571Y-25836125D01*
X29452539Y-25860500D01*
X29452541Y-25860500D01*
X29547459Y-25860500D01*
X29547461Y-25860500D01*
X29639148Y-25835933D01*
X29639150Y-25835931D01*
X29639152Y-25835931D01*
X29715223Y-25792010D01*
X29718104Y-25790612D01*
X29718893Y-25790093D01*
X29723898Y-25787002D01*
X29725197Y-25786251D01*
X29730557Y-25779266D01*
X29788472Y-25721352D01*
X29835933Y-25639148D01*
X29860500Y-25547461D01*
X29860500Y-25452539D01*
X32139500Y-25452539D01*
X32139500Y-25547461D01*
X32161166Y-25628321D01*
X32164068Y-25639152D01*
X32211524Y-25721347D01*
X32211526Y-25721349D01*
X32211528Y-25721352D01*
X32278648Y-25788472D01*
X32278650Y-25788473D01*
X32278652Y-25788475D01*
X32279201Y-25788871D01*
X32281203Y-25789948D01*
X32304078Y-25803155D01*
X32325672Y-25827137D01*
X32359998Y-25835719D01*
X32361571Y-25836125D01*
X32452539Y-25860500D01*
X32452541Y-25860500D01*
X32547459Y-25860500D01*
X32547461Y-25860500D01*
X32639148Y-25835933D01*
X32639150Y-25835931D01*
X32639152Y-25835931D01*
X32715223Y-25792010D01*
X32718104Y-25790612D01*
X32718893Y-25790093D01*
X32723898Y-25787002D01*
X32725197Y-25786251D01*
X32730557Y-25779266D01*
X32788472Y-25721352D01*
X32835933Y-25639148D01*
X32860500Y-25547461D01*
X32860500Y-25452539D01*
X35639500Y-25452539D01*
X35639500Y-25547461D01*
X35661166Y-25628321D01*
X35664068Y-25639152D01*
X35711524Y-25721347D01*
X35711526Y-25721349D01*
X35711528Y-25721352D01*
X35778648Y-25788472D01*
X35778650Y-25788473D01*
X35778652Y-25788475D01*
X35779201Y-25788871D01*
X35781203Y-25789948D01*
X35804078Y-25803155D01*
X35825672Y-25827137D01*
X35859998Y-25835719D01*
X35861571Y-25836125D01*
X35952539Y-25860500D01*
X35952541Y-25860500D01*
X36047459Y-25860500D01*
X36047461Y-25860500D01*
X36139148Y-25835933D01*
X36139150Y-25835931D01*
X36139152Y-25835931D01*
X36215223Y-25792010D01*
X36218104Y-25790612D01*
X36218893Y-25790093D01*
X36223898Y-25787002D01*
X36225197Y-25786251D01*
X36230557Y-25779266D01*
X36288472Y-25721352D01*
X36335933Y-25639148D01*
X36360500Y-25547461D01*
X36360500Y-25452539D01*
X38639500Y-25452539D01*
X38639500Y-25547461D01*
X38661166Y-25628321D01*
X38664068Y-25639152D01*
X38711524Y-25721347D01*
X38711526Y-25721349D01*
X38711528Y-25721352D01*
X38778648Y-25788472D01*
X38778650Y-25788473D01*
X38778652Y-25788475D01*
X38779201Y-25788871D01*
X38781203Y-25789948D01*
X38804078Y-25803155D01*
X38825672Y-25827137D01*
X38859998Y-25835719D01*
X38861571Y-25836125D01*
X38952539Y-25860500D01*
X38952541Y-25860500D01*
X39047459Y-25860500D01*
X39047461Y-25860500D01*
X39139148Y-25835933D01*
X39139150Y-25835931D01*
X39139152Y-25835931D01*
X39215223Y-25792010D01*
X39218104Y-25790612D01*
X39218893Y-25790093D01*
X39223898Y-25787002D01*
X39225197Y-25786251D01*
X39230557Y-25779266D01*
X39288472Y-25721352D01*
X39335933Y-25639148D01*
X39360500Y-25547461D01*
X39360500Y-25452539D01*
X39335933Y-25360852D01*
X39335933Y-25360851D01*
X39335611Y-25360140D01*
X39334358Y-25358122D01*
X39288475Y-25278652D01*
X39288473Y-25278650D01*
X39288472Y-25278648D01*
X39221352Y-25211528D01*
X39221349Y-25211526D01*
X39221347Y-25211524D01*
X39196439Y-25197143D01*
X39175402Y-25173780D01*
X39103577Y-25154536D01*
X39103576Y-25154535D01*
X39062496Y-25143528D01*
X39047461Y-25139500D01*
X39047460Y-25139500D01*
X38952540Y-25139500D01*
X38952539Y-25139500D01*
X38937504Y-25143528D01*
X38896423Y-25154535D01*
X38896422Y-25154536D01*
X38860847Y-25164068D01*
X38860844Y-25164069D01*
X38860842Y-25164070D01*
X38778654Y-25211522D01*
X38711520Y-25278656D01*
X38664067Y-25360847D01*
X38663789Y-25361583D01*
X38663243Y-25363924D01*
X38639500Y-25452539D01*
X36360500Y-25452539D01*
X36335933Y-25360852D01*
X36335931Y-25360849D01*
X36335931Y-25360847D01*
X36335706Y-25360457D01*
X36335636Y-25360180D01*
X36334358Y-25358122D01*
X36288475Y-25278652D01*
X36288473Y-25278650D01*
X36288472Y-25278648D01*
X36221352Y-25211528D01*
X36221349Y-25211526D01*
X36221347Y-25211524D01*
X36196439Y-25197143D01*
X36175402Y-25173780D01*
X36103577Y-25154536D01*
X36103576Y-25154535D01*
X36062496Y-25143528D01*
X36047461Y-25139500D01*
X36047460Y-25139500D01*
X35952540Y-25139500D01*
X35952539Y-25139500D01*
X35937504Y-25143528D01*
X35896423Y-25154535D01*
X35896422Y-25154536D01*
X35860847Y-25164068D01*
X35860844Y-25164069D01*
X35860842Y-25164070D01*
X35778654Y-25211522D01*
X35711520Y-25278656D01*
X35664067Y-25360847D01*
X35663789Y-25361583D01*
X35663243Y-25363924D01*
X35639500Y-25452539D01*
X32860500Y-25452539D01*
X32835933Y-25360852D01*
X32835931Y-25360849D01*
X32835931Y-25360847D01*
X32835706Y-25360457D01*
X32835636Y-25360180D01*
X32834358Y-25358122D01*
X32788475Y-25278652D01*
X32788473Y-25278650D01*
X32788472Y-25278648D01*
X32721352Y-25211528D01*
X32721349Y-25211526D01*
X32721347Y-25211524D01*
X32696439Y-25197143D01*
X32675402Y-25173780D01*
X32603577Y-25154536D01*
X32603576Y-25154535D01*
X32562496Y-25143528D01*
X32547461Y-25139500D01*
X32547460Y-25139500D01*
X32452540Y-25139500D01*
X32452539Y-25139500D01*
X32437504Y-25143528D01*
X32396423Y-25154535D01*
X32396422Y-25154536D01*
X32360847Y-25164068D01*
X32360844Y-25164069D01*
X32360842Y-25164070D01*
X32278654Y-25211522D01*
X32211520Y-25278656D01*
X32164067Y-25360847D01*
X32163789Y-25361583D01*
X32163243Y-25363924D01*
X32139500Y-25452539D01*
X29860500Y-25452539D01*
X29835933Y-25360852D01*
X29835931Y-25360849D01*
X29835931Y-25360847D01*
X29835706Y-25360457D01*
X29835636Y-25360180D01*
X29834358Y-25358122D01*
X29788475Y-25278652D01*
X29788473Y-25278650D01*
X29788472Y-25278648D01*
X29721352Y-25211528D01*
X29721349Y-25211526D01*
X29721347Y-25211524D01*
X29696439Y-25197143D01*
X29675402Y-25173780D01*
X29603577Y-25154536D01*
X29603576Y-25154535D01*
X29562496Y-25143528D01*
X29547461Y-25139500D01*
X29547460Y-25139500D01*
X29452540Y-25139500D01*
X29452539Y-25139500D01*
X29437504Y-25143528D01*
X29396423Y-25154535D01*
X29396422Y-25154536D01*
X29360847Y-25164068D01*
X29360844Y-25164069D01*
X29360842Y-25164070D01*
X29278654Y-25211522D01*
X29211520Y-25278656D01*
X29164067Y-25360847D01*
X29163789Y-25361583D01*
X29163243Y-25363924D01*
X29139500Y-25452539D01*
X26360500Y-25452539D01*
X26335933Y-25360852D01*
X26335931Y-25360849D01*
X26335931Y-25360847D01*
X26335706Y-25360457D01*
X26335636Y-25360180D01*
X26334358Y-25358122D01*
X26288475Y-25278652D01*
X26288473Y-25278650D01*
X26288472Y-25278648D01*
X26221352Y-25211528D01*
X26221349Y-25211526D01*
X26221347Y-25211524D01*
X26196439Y-25197143D01*
X26175402Y-25173780D01*
X26103577Y-25154536D01*
X26103576Y-25154535D01*
X26062496Y-25143528D01*
X26047461Y-25139500D01*
X26047460Y-25139500D01*
X25952540Y-25139500D01*
X25952539Y-25139500D01*
X25937504Y-25143528D01*
X25896423Y-25154535D01*
X25896422Y-25154536D01*
X25860847Y-25164068D01*
X25860844Y-25164069D01*
X25860842Y-25164070D01*
X25778654Y-25211522D01*
X25711520Y-25278656D01*
X25664067Y-25360847D01*
X25663789Y-25361583D01*
X25663243Y-25363924D01*
X25639500Y-25452539D01*
X23360500Y-25452539D01*
X23335933Y-25360852D01*
X23335931Y-25360849D01*
X23335931Y-25360847D01*
X23335706Y-25360457D01*
X23335636Y-25360180D01*
X23334358Y-25358122D01*
X23288475Y-25278652D01*
X23288473Y-25278650D01*
X23288472Y-25278648D01*
X23221352Y-25211528D01*
X23221349Y-25211526D01*
X23221347Y-25211524D01*
X23196439Y-25197143D01*
X23175402Y-25173780D01*
X23103577Y-25154536D01*
X23103576Y-25154535D01*
X23062496Y-25143528D01*
X23047461Y-25139500D01*
X23047460Y-25139500D01*
X22952540Y-25139500D01*
X22952539Y-25139500D01*
X22937504Y-25143528D01*
X22896423Y-25154535D01*
X22896422Y-25154536D01*
X22860847Y-25164068D01*
X22860844Y-25164069D01*
X22860842Y-25164070D01*
X22778654Y-25211522D01*
X22711520Y-25278656D01*
X22664067Y-25360847D01*
X22663789Y-25361583D01*
X22663613Y-25362337D01*
X22663622Y-25362463D01*
X22663415Y-25363282D01*
X22639500Y-25452539D01*
X22205500Y-25452539D01*
X22205500Y-23320180D01*
X22210343Y-23289594D01*
X22214465Y-23276905D01*
X22250423Y-23227406D01*
X22251022Y-23226971D01*
X22254563Y-23224400D01*
X22312743Y-23205500D01*
X22540875Y-23205500D01*
X22540878Y-23205500D01*
X22599290Y-23181303D01*
X22599296Y-23181303D01*
X22599296Y-23181301D01*
X22616406Y-23174215D01*
X22674215Y-23116406D01*
X22705500Y-23040876D01*
X22705500Y-22999607D01*
X22716783Y-22953708D01*
X22726113Y-22935879D01*
X22809165Y-22689397D01*
X22817237Y-22671528D01*
X22835931Y-22639152D01*
X22835931Y-22639150D01*
X22835933Y-22639148D01*
X22860500Y-22547461D01*
X22860500Y-22452539D01*
X22835933Y-22360852D01*
X22835933Y-22360851D01*
X22835611Y-22360140D01*
X22834358Y-22358122D01*
X22788475Y-22278652D01*
X22788473Y-22278650D01*
X22788472Y-22278648D01*
X22721352Y-22211528D01*
X22721349Y-22211526D01*
X22721347Y-22211524D01*
X22696439Y-22197143D01*
X22675402Y-22173780D01*
X22603577Y-22154536D01*
X22603576Y-22154535D01*
X22562496Y-22143528D01*
X22547461Y-22139500D01*
X22547460Y-22139500D01*
X22452540Y-22139500D01*
X22452539Y-22139500D01*
X22437504Y-22143528D01*
X22396423Y-22154535D01*
X22396422Y-22154536D01*
X22360847Y-22164068D01*
X22360844Y-22164069D01*
X22360842Y-22164070D01*
X22328477Y-22182755D01*
X22310593Y-22190834D01*
X22064117Y-22273887D01*
X22027149Y-22293105D01*
X21978679Y-22328723D01*
X21978656Y-22328741D01*
X21968238Y-22337223D01*
X21930038Y-22396047D01*
X21911131Y-22454240D01*
X21904500Y-22496107D01*
X21904500Y-22503887D01*
X21910906Y-22545059D01*
X21929184Y-22602369D01*
X21929194Y-22602397D01*
X21933920Y-22615010D01*
X21935052Y-22617012D01*
X21935122Y-22617194D01*
X21935230Y-22617327D01*
X21959562Y-22647375D01*
X21960214Y-22648189D01*
X21965793Y-22655229D01*
X21987116Y-22712579D01*
X21970658Y-22771509D01*
X21926090Y-22808180D01*
X21883600Y-22825780D01*
X21883597Y-22825782D01*
X21825781Y-22883598D01*
X21794500Y-22959120D01*
X21794500Y-26540878D01*
X21825782Y-26616402D01*
X21825783Y-26616403D01*
X21825784Y-26616404D01*
X21825785Y-26616406D01*
X21883594Y-26674215D01*
X21883595Y-26674215D01*
X21883596Y-26674216D01*
X21959122Y-26705500D01*
X21959124Y-26705500D01*
X22040876Y-26705500D01*
X22179820Y-26705500D01*
X22210408Y-26710343D01*
X22223095Y-26714466D01*
X22272595Y-26750427D01*
X22272596Y-26750428D01*
X22275591Y-26754550D01*
X22294500Y-26812740D01*
X22294500Y-29566605D01*
X22289654Y-29597199D01*
X22286134Y-29608031D01*
X22286134Y-29608034D01*
X22263273Y-29639500D01*
X22250169Y-29657535D01*
X22191979Y-29676441D01*
X22187109Y-29676441D01*
X22144240Y-29664955D01*
X22143716Y-29666121D01*
X22139155Y-29664069D01*
X22139137Y-29664063D01*
X22066061Y-29644483D01*
X22047461Y-29639500D01*
X22047460Y-29639500D01*
X21952540Y-29639500D01*
X21952539Y-29639500D01*
X21948893Y-29640477D01*
X21896423Y-29654535D01*
X21896422Y-29654536D01*
X21860847Y-29664068D01*
X21860844Y-29664069D01*
X21860842Y-29664070D01*
X21778654Y-29711522D01*
X21711520Y-29778656D01*
X21664067Y-29860847D01*
X21663789Y-29861583D01*
X21663243Y-29863924D01*
X21639500Y-29952539D01*
X21639500Y-30047461D01*
X21661166Y-30128321D01*
X21664068Y-30139152D01*
X21711524Y-30221347D01*
X21711526Y-30221349D01*
X21711528Y-30221352D01*
X21754366Y-30264190D01*
X21758230Y-30268282D01*
X21781929Y-30294855D01*
X21781877Y-30294924D01*
X21792876Y-30307129D01*
X21793025Y-30307296D01*
X21805179Y-30334946D01*
X21817593Y-30362793D01*
X21818364Y-30370097D01*
X21811377Y-30418376D01*
X21794500Y-30459123D01*
X21794500Y-31066605D01*
X21789654Y-31097199D01*
X21786133Y-31108035D01*
X21750169Y-31157535D01*
X21691979Y-31176441D01*
X21687109Y-31176441D01*
X21644240Y-31164955D01*
X21643716Y-31166121D01*
X21639155Y-31164069D01*
X21639137Y-31164063D01*
X21566061Y-31144483D01*
X21547461Y-31139500D01*
X21547460Y-31139500D01*
X21452540Y-31139500D01*
X21452539Y-31139500D01*
X21448893Y-31140477D01*
X21396423Y-31154535D01*
X21396422Y-31154536D01*
X21360847Y-31164068D01*
X21360844Y-31164069D01*
X21360842Y-31164070D01*
X21278654Y-31211522D01*
X21211520Y-31278656D01*
X21164067Y-31360847D01*
X21163789Y-31361583D01*
X21163243Y-31363924D01*
X21139500Y-31452539D01*
X20705500Y-31452539D01*
X20705500Y-24499607D01*
X20716783Y-24453708D01*
X20726113Y-24435879D01*
X20809162Y-24189404D01*
X20817242Y-24171520D01*
X20835933Y-24139148D01*
X20860500Y-24047461D01*
X20860500Y-23952539D01*
X20835933Y-23860852D01*
X20835933Y-23860851D01*
X20835611Y-23860140D01*
X20834358Y-23858122D01*
X20788475Y-23778652D01*
X20788473Y-23778650D01*
X20788472Y-23778648D01*
X20721352Y-23711528D01*
X20721349Y-23711526D01*
X20721347Y-23711524D01*
X20696439Y-23697143D01*
X20675402Y-23673780D01*
X20603577Y-23654536D01*
X20603576Y-23654535D01*
X20562496Y-23643528D01*
X20547461Y-23639500D01*
X20547460Y-23639500D01*
X20452540Y-23639500D01*
X20452539Y-23639500D01*
X20437504Y-23643528D01*
X20396423Y-23654535D01*
X20396422Y-23654536D01*
X20360847Y-23664068D01*
X20360844Y-23664069D01*
X20360842Y-23664070D01*
X20278654Y-23711522D01*
X20211520Y-23778656D01*
X20164067Y-23860847D01*
X20163789Y-23861583D01*
X20163613Y-23862337D01*
X20163622Y-23862463D01*
X20163415Y-23863282D01*
X20139500Y-23952539D01*
X500500Y-23952539D01*
X500500Y-21952539D01*
X18139500Y-21952539D01*
X18139500Y-22047461D01*
X18161166Y-22128321D01*
X18164068Y-22139152D01*
X18211524Y-22221347D01*
X18211526Y-22221349D01*
X18211528Y-22221352D01*
X18278648Y-22288472D01*
X18278650Y-22288473D01*
X18278652Y-22288475D01*
X18279201Y-22288871D01*
X18281203Y-22289948D01*
X18304078Y-22303155D01*
X18325672Y-22327137D01*
X18359998Y-22335719D01*
X18361571Y-22336125D01*
X18452539Y-22360500D01*
X18452541Y-22360500D01*
X18547459Y-22360500D01*
X18547461Y-22360500D01*
X18639148Y-22335933D01*
X18639150Y-22335931D01*
X18639152Y-22335931D01*
X18715223Y-22292010D01*
X18718104Y-22290612D01*
X18718893Y-22290093D01*
X18723898Y-22287002D01*
X18725197Y-22286251D01*
X18730557Y-22279266D01*
X18788472Y-22221352D01*
X18794146Y-22211524D01*
X18794147Y-22211522D01*
X18794411Y-22211066D01*
X18802448Y-22197144D01*
X18835931Y-22139152D01*
X18835931Y-22139150D01*
X18835933Y-22139148D01*
X18860500Y-22047461D01*
X18860500Y-21952539D01*
X18835933Y-21860852D01*
X18835933Y-21860851D01*
X18835611Y-21860140D01*
X18834358Y-21858122D01*
X18788475Y-21778652D01*
X18788473Y-21778650D01*
X18788472Y-21778648D01*
X18721352Y-21711528D01*
X18721349Y-21711526D01*
X18721347Y-21711524D01*
X18696439Y-21697143D01*
X18675402Y-21673780D01*
X18603577Y-21654536D01*
X18603576Y-21654535D01*
X18562496Y-21643528D01*
X18547461Y-21639500D01*
X18547460Y-21639500D01*
X18452540Y-21639500D01*
X18452539Y-21639500D01*
X18437504Y-21643528D01*
X18396423Y-21654535D01*
X18396422Y-21654536D01*
X18360847Y-21664068D01*
X18360844Y-21664069D01*
X18360842Y-21664070D01*
X18278654Y-21711522D01*
X18211520Y-21778656D01*
X18164067Y-21860847D01*
X18163789Y-21861583D01*
X18163613Y-21862337D01*
X18163622Y-21862463D01*
X18163415Y-21863282D01*
X18139500Y-21952539D01*
X500500Y-21952539D01*
X500500Y-18452539D01*
X22139500Y-18452539D01*
X22139500Y-18547461D01*
X22161166Y-18628321D01*
X22164068Y-18639152D01*
X22211524Y-18721347D01*
X22211526Y-18721349D01*
X22211528Y-18721352D01*
X22278648Y-18788472D01*
X22278650Y-18788473D01*
X22278652Y-18788475D01*
X22279201Y-18788871D01*
X22281203Y-18789948D01*
X22304078Y-18803155D01*
X22325672Y-18827137D01*
X22359998Y-18835719D01*
X22361571Y-18836125D01*
X22452539Y-18860500D01*
X22452541Y-18860500D01*
X22547459Y-18860500D01*
X22547461Y-18860500D01*
X22639148Y-18835933D01*
X22639150Y-18835931D01*
X22639152Y-18835931D01*
X22715223Y-18792010D01*
X22718104Y-18790612D01*
X22718893Y-18790093D01*
X22723898Y-18787002D01*
X22725197Y-18786251D01*
X22730557Y-18779266D01*
X22788472Y-18721352D01*
X22835933Y-18639148D01*
X22860500Y-18547461D01*
X22860500Y-18452539D01*
X22835933Y-18360852D01*
X22835933Y-18360851D01*
X22835611Y-18360140D01*
X22834358Y-18358122D01*
X22788475Y-18278652D01*
X22788473Y-18278650D01*
X22788472Y-18278648D01*
X22721352Y-18211528D01*
X22721349Y-18211526D01*
X22721347Y-18211524D01*
X22696439Y-18197143D01*
X22675402Y-18173780D01*
X22603577Y-18154536D01*
X22603576Y-18154535D01*
X22562496Y-18143528D01*
X22547461Y-18139500D01*
X22547460Y-18139500D01*
X22452540Y-18139500D01*
X22452539Y-18139500D01*
X22437504Y-18143528D01*
X22396423Y-18154535D01*
X22396422Y-18154536D01*
X22360847Y-18164068D01*
X22360844Y-18164069D01*
X22360842Y-18164070D01*
X22278654Y-18211522D01*
X22211520Y-18278656D01*
X22164067Y-18360847D01*
X22163789Y-18361583D01*
X22163243Y-18363924D01*
X22139500Y-18452539D01*
X500500Y-18452539D01*
X500500Y-17952539D01*
X18139500Y-17952539D01*
X18139500Y-18047461D01*
X18161166Y-18128321D01*
X18164068Y-18139152D01*
X18211524Y-18221347D01*
X18211526Y-18221349D01*
X18211528Y-18221352D01*
X18278648Y-18288472D01*
X18278650Y-18288473D01*
X18278652Y-18288475D01*
X18279201Y-18288871D01*
X18281203Y-18289948D01*
X18304078Y-18303155D01*
X18325672Y-18327137D01*
X18359998Y-18335719D01*
X18361571Y-18336125D01*
X18452539Y-18360500D01*
X18452541Y-18360500D01*
X18547459Y-18360500D01*
X18547461Y-18360500D01*
X18639148Y-18335933D01*
X18639150Y-18335931D01*
X18639152Y-18335931D01*
X18715212Y-18292017D01*
X18718104Y-18290612D01*
X18718893Y-18290093D01*
X18723898Y-18287002D01*
X18725197Y-18286251D01*
X18730557Y-18279266D01*
X18788472Y-18221352D01*
X18794146Y-18211524D01*
X18835931Y-18139152D01*
X18835931Y-18139150D01*
X18835933Y-18139148D01*
X18860500Y-18047461D01*
X18860500Y-17952539D01*
X18835933Y-17860852D01*
X18835933Y-17860851D01*
X18835611Y-17860140D01*
X18834358Y-17858122D01*
X18788475Y-17778652D01*
X18788473Y-17778650D01*
X18788472Y-17778648D01*
X18721352Y-17711528D01*
X18721349Y-17711526D01*
X18721347Y-17711524D01*
X18696439Y-17697143D01*
X18675402Y-17673780D01*
X18603577Y-17654536D01*
X18603576Y-17654535D01*
X18562496Y-17643528D01*
X18547461Y-17639500D01*
X18547460Y-17639500D01*
X18452540Y-17639500D01*
X18452539Y-17639500D01*
X18437504Y-17643528D01*
X18396423Y-17654535D01*
X18396422Y-17654536D01*
X18360847Y-17664068D01*
X18360844Y-17664069D01*
X18360842Y-17664070D01*
X18278654Y-17711522D01*
X18211520Y-17778656D01*
X18164067Y-17860847D01*
X18163789Y-17861583D01*
X18163613Y-17862337D01*
X18163622Y-17862463D01*
X18163415Y-17863282D01*
X18139500Y-17952539D01*
X500500Y-17952539D01*
X500500Y-3878708D01*
X2149500Y-3878708D01*
X2149500Y-4121290D01*
X2180314Y-4355347D01*
X2180314Y-4355353D01*
X2181160Y-4361781D01*
X2181161Y-4361784D01*
X2181161Y-4361786D01*
X2243944Y-4596092D01*
X2243948Y-4596105D01*
X2243949Y-4596109D01*
X2243950Y-4596110D01*
X2336769Y-4820198D01*
X2336772Y-4820204D01*
X2336774Y-4820208D01*
X2336776Y-4820212D01*
X2458064Y-5030289D01*
X2458066Y-5030292D01*
X2605729Y-5222731D01*
X2605731Y-5222733D01*
X2605735Y-5222738D01*
X2777262Y-5394265D01*
X2777266Y-5394268D01*
X2777268Y-5394270D01*
X2777273Y-5394274D01*
X2777303Y-5394300D01*
X2777671Y-5394579D01*
X2969707Y-5541933D01*
X2969711Y-5541936D01*
X3179788Y-5663224D01*
X3403900Y-5756054D01*
X3638211Y-5818838D01*
X3878712Y-5850500D01*
X3878713Y-5850500D01*
X4121287Y-5850500D01*
X4121288Y-5850500D01*
X4361789Y-5818838D01*
X4596100Y-5756054D01*
X4820212Y-5663224D01*
X5030289Y-5541936D01*
X5222738Y-5394265D01*
X5394265Y-5222738D01*
X5541936Y-5030289D01*
X5663224Y-4820212D01*
X5756054Y-4596100D01*
X5818838Y-4361789D01*
X5850500Y-4121288D01*
X5850500Y-3878712D01*
X5850499Y-3878708D01*
X74149500Y-3878708D01*
X74149500Y-4121290D01*
X74180314Y-4355347D01*
X74180314Y-4355353D01*
X74181160Y-4361781D01*
X74181161Y-4361784D01*
X74181161Y-4361786D01*
X74243944Y-4596092D01*
X74243948Y-4596105D01*
X74243949Y-4596109D01*
X74243950Y-4596110D01*
X74336769Y-4820198D01*
X74336772Y-4820204D01*
X74336774Y-4820208D01*
X74336776Y-4820212D01*
X74458064Y-5030289D01*
X74458066Y-5030292D01*
X74605729Y-5222731D01*
X74605731Y-5222733D01*
X74605735Y-5222738D01*
X74777262Y-5394265D01*
X74777266Y-5394268D01*
X74777268Y-5394270D01*
X74777273Y-5394274D01*
X74777303Y-5394300D01*
X74777671Y-5394579D01*
X74969707Y-5541933D01*
X74969711Y-5541936D01*
X75179788Y-5663224D01*
X75403900Y-5756054D01*
X75638211Y-5818838D01*
X75878712Y-5850500D01*
X75878713Y-5850500D01*
X76121287Y-5850500D01*
X76121288Y-5850500D01*
X76361789Y-5818838D01*
X76596100Y-5756054D01*
X76820212Y-5663224D01*
X77030289Y-5541936D01*
X77222738Y-5394265D01*
X77394265Y-5222738D01*
X77541936Y-5030289D01*
X77663224Y-4820212D01*
X77756054Y-4596100D01*
X77818838Y-4361789D01*
X77850500Y-4121288D01*
X77850500Y-3878712D01*
X77818838Y-3638211D01*
X77756054Y-3403900D01*
X77663224Y-3179788D01*
X77541936Y-2969711D01*
X77394265Y-2777262D01*
X77222738Y-2605735D01*
X77222733Y-2605731D01*
X77222731Y-2605729D01*
X77030292Y-2458066D01*
X77030289Y-2458064D01*
X76820212Y-2336776D01*
X76820208Y-2336774D01*
X76820204Y-2336772D01*
X76820194Y-2336767D01*
X76603913Y-2247182D01*
X76603910Y-2247181D01*
X76596105Y-2243948D01*
X76596104Y-2243947D01*
X76596100Y-2243946D01*
X76591370Y-2242678D01*
X76591363Y-2242676D01*
X76364655Y-2181930D01*
X76362454Y-2181269D01*
X76357394Y-2180448D01*
X76355350Y-2180314D01*
X76121290Y-2149500D01*
X76121289Y-2149500D01*
X76121288Y-2149500D01*
X75878712Y-2149500D01*
X75878710Y-2149500D01*
X75878708Y-2149500D01*
X75644652Y-2180314D01*
X75644640Y-2180314D01*
X75638217Y-2181160D01*
X75638213Y-2181161D01*
X75408640Y-2242676D01*
X75403885Y-2243950D01*
X75179802Y-2336768D01*
X74969703Y-2458068D01*
X74777271Y-2605726D01*
X74605726Y-2777271D01*
X74458068Y-2969703D01*
X74336768Y-3179802D01*
X74243950Y-3403885D01*
X74181160Y-3638217D01*
X74180314Y-3644646D01*
X74180314Y-3644651D01*
X74149500Y-3878708D01*
X5850499Y-3878708D01*
X5818838Y-3638211D01*
X5756054Y-3403900D01*
X5663224Y-3179788D01*
X5541936Y-2969711D01*
X5394265Y-2777262D01*
X5222738Y-2605735D01*
X5222733Y-2605731D01*
X5222731Y-2605729D01*
X5030292Y-2458066D01*
X5030289Y-2458064D01*
X4820212Y-2336776D01*
X4820208Y-2336774D01*
X4820204Y-2336772D01*
X4820194Y-2336767D01*
X4603913Y-2247182D01*
X4603910Y-2247181D01*
X4596105Y-2243948D01*
X4596104Y-2243947D01*
X4596100Y-2243946D01*
X4591370Y-2242678D01*
X4591363Y-2242676D01*
X4364655Y-2181930D01*
X4362454Y-2181269D01*
X4357394Y-2180448D01*
X4355350Y-2180314D01*
X4121290Y-2149500D01*
X4121289Y-2149500D01*
X4121288Y-2149500D01*
X3878712Y-2149500D01*
X3878710Y-2149500D01*
X3878708Y-2149500D01*
X3644652Y-2180314D01*
X3644640Y-2180314D01*
X3638217Y-2181160D01*
X3638213Y-2181161D01*
X3408640Y-2242676D01*
X3403885Y-2243950D01*
X3179802Y-2336768D01*
X2969703Y-2458068D01*
X2777271Y-2605726D01*
X2605726Y-2777271D01*
X2458068Y-2969703D01*
X2336768Y-3179802D01*
X2243950Y-3403885D01*
X2181160Y-3638217D01*
X2180314Y-3644646D01*
X2180314Y-3644651D01*
X2149500Y-3878708D01*
X500500Y-3878708D01*
X500500Y-615180D01*
X505343Y-584594D01*
X509465Y-571905D01*
X545423Y-522406D01*
X546022Y-521971D01*
X549563Y-519400D01*
X607743Y-500500D01*
X79384820Y-500500D01*
X79415408Y-505343D01*
G37*
%TD.AperFunction*%
%TD*%
%TA.AperFunction,Conductor*%
%TO.N,TMS*%
G36*
X22480457Y-22348771D02*
G01*
X22499994Y-22406753D01*
X22500000Y-22407827D01*
X22500000Y-22500000D01*
X22270000Y-22500000D01*
X22327967Y-22672032D01*
X22327965Y-22672031D01*
X22327964Y-22672030D01*
X22107388Y-22597706D01*
X22083308Y-22579808D01*
X22058907Y-22562080D01*
X22058732Y-22561542D01*
X22058281Y-22561207D01*
X22040000Y-22503889D01*
X22040000Y-22496110D01*
X22058907Y-22437919D01*
X22107387Y-22402293D01*
X22369389Y-22314009D01*
X22430569Y-22313346D01*
X22480457Y-22348771D01*
G37*
%TD.AperFunction*%
%TD*%
%TA.AperFunction,Conductor*%
%TO.N,TMS*%
G36*
X22650363Y-22518907D02*
G01*
X22686327Y-22568407D01*
X22686327Y-22629593D01*
X22685989Y-22630612D01*
X22597707Y-22892612D01*
X22579788Y-22916721D01*
X22562081Y-22941093D01*
X22561544Y-22941267D01*
X22561209Y-22941719D01*
X22503890Y-22960000D01*
X22496110Y-22960000D01*
X22437919Y-22941093D01*
X22402293Y-22892612D01*
X22270000Y-22500000D01*
X22500000Y-22500000D01*
X22500001Y-22500000D01*
X22592172Y-22500000D01*
X22650363Y-22518907D01*
G37*
%TD.AperFunction*%
%TD*%
%TA.AperFunction,Conductor*%
%TO.N,TMS*%
G36*
X22062081Y-32058907D02*
G01*
X22097707Y-32107388D01*
X22185989Y-32369388D01*
X22185995Y-32369950D01*
X22186327Y-32370407D01*
X22186327Y-32400531D01*
X22186653Y-32430570D01*
X22186327Y-32431029D01*
X22186327Y-32431593D01*
X22168630Y-32455949D01*
X22151228Y-32480457D01*
X22150694Y-32480636D01*
X22150363Y-32481093D01*
X22121738Y-32490393D01*
X22093246Y-32499994D01*
X22092172Y-32500000D01*
X21907828Y-32500000D01*
X21849637Y-32481093D01*
X21813673Y-32431593D01*
X21813673Y-32370407D01*
X21814011Y-32369388D01*
X21902293Y-32107388D01*
X21938791Y-32058281D01*
X21996110Y-32040000D01*
X22003890Y-32040000D01*
X22062081Y-32058907D01*
G37*
%TD.AperFunction*%
%TD*%
%TA.AperFunction,Conductor*%
%TO.N,TDI*%
G36*
X20650363Y-24018907D02*
G01*
X20686327Y-24068407D01*
X20686327Y-24129593D01*
X20685989Y-24130612D01*
X20597707Y-24392612D01*
X20579788Y-24416721D01*
X20562081Y-24441093D01*
X20561544Y-24441267D01*
X20561209Y-24441719D01*
X20503890Y-24460000D01*
X20496110Y-24460000D01*
X20437919Y-24441093D01*
X20402293Y-24392612D01*
X20314011Y-24130612D01*
X20313347Y-24069430D01*
X20348772Y-24019543D01*
X20406754Y-24000006D01*
X20407828Y-24000000D01*
X20592172Y-24000000D01*
X20650363Y-24018907D01*
G37*
%TD.AperFunction*%
%TD*%
%TA.AperFunction,Conductor*%
%TO.N,TDI*%
G36*
X20562081Y-31558907D02*
G01*
X20597707Y-31607388D01*
X20685989Y-31869388D01*
X20685995Y-31869950D01*
X20686327Y-31870407D01*
X20686327Y-31900531D01*
X20686653Y-31930570D01*
X20686327Y-31931029D01*
X20686327Y-31931593D01*
X20668630Y-31955949D01*
X20651228Y-31980457D01*
X20650694Y-31980636D01*
X20650363Y-31981093D01*
X20621738Y-31990393D01*
X20593246Y-31999994D01*
X20592172Y-32000000D01*
X20407828Y-32000000D01*
X20349637Y-31981093D01*
X20313673Y-31931593D01*
X20313673Y-31870407D01*
X20314011Y-31869388D01*
X20402293Y-31607388D01*
X20438791Y-31558281D01*
X20496110Y-31540000D01*
X20503890Y-31540000D01*
X20562081Y-31558907D01*
G37*
%TD.AperFunction*%
%TD*%
%TA.AperFunction,Conductor*%
%TO.N,TDI*%
G36*
X20562081Y-32058907D02*
G01*
X20597707Y-32107388D01*
X20685989Y-32369388D01*
X20685995Y-32369950D01*
X20686327Y-32370407D01*
X20686327Y-32400531D01*
X20686653Y-32430570D01*
X20686327Y-32431029D01*
X20686327Y-32431593D01*
X20668630Y-32455949D01*
X20651228Y-32480457D01*
X20650694Y-32480636D01*
X20650363Y-32481093D01*
X20621738Y-32490393D01*
X20593246Y-32499994D01*
X20592172Y-32500000D01*
X20407828Y-32500000D01*
X20349637Y-32481093D01*
X20313673Y-32431593D01*
X20313673Y-32370407D01*
X20314011Y-32369388D01*
X20402293Y-32107388D01*
X20438791Y-32058281D01*
X20496110Y-32040000D01*
X20503890Y-32040000D01*
X20562081Y-32058907D01*
G37*
%TD.AperFunction*%
%TD*%
M02*
