%TF.GenerationSoftware,KiCad,Pcbnew,10.0.3*%
%TF.CreationDate,2026-06-20T14:23:36-04:00*%
%TF.ProjectId,hv7355_tile,68763733-3535-45f7-9469-6c652e6b6963,rev?*%
%TF.SameCoordinates,Original*%
%TF.FileFunction,Copper,L1,Top*%
%TF.FilePolarity,Positive*%
%FSLAX46Y46*%
G04 Gerber Fmt 4.6, Leading zero omitted, Abs format (unit mm)*
G04 Created by KiCad (PCBNEW 10.0.3) date 2026-06-20 14:23:36*
%MOMM*%
%LPD*%
G01*
G04 APERTURE LIST*
%TA.AperFunction,SMDPad,CuDef*%
%ADD10R,0.450000X0.450000*%
%TD*%
%TA.AperFunction,SMDPad,CuDef*%
%ADD11R,0.500000X0.500000*%
%TD*%
%TA.AperFunction,ViaPad*%
%ADD12C,0.460000*%
%TD*%
%TA.AperFunction,Conductor*%
%ADD13C,0.250000*%
%TD*%
%TA.AperFunction,Conductor*%
%ADD14C,0.150000*%
%TD*%
G04 APERTURE END LIST*
D10*
%TO.P,U1,1*%
%TO.N,VPP*%
X40695800Y-38998500D03*
%TO.P,U1,2*%
%TO.N,P3V3*%
X39180000Y-38998500D03*
%TO.P,U1,3*%
%TO.N,GND*%
X37664200Y-38998500D03*
%TO.P,U1,4*%
%TO.N,TRIG_0*%
X36148400Y-38998500D03*
%TO.P,U1,5*%
%TO.N,TRIG_1*%
X34632600Y-38998500D03*
%TO.P,U1,6*%
%TO.N,TRIG_2*%
X34253700Y-37861700D03*
%TO.P,U1,7*%
%TO.N,TRIG_3*%
X34253700Y-36345900D03*
%TO.P,U1,8*%
%TO.N,TRIG_4*%
X34253700Y-34830100D03*
%TO.P,U1,9*%
%TO.N,TRIG_5*%
X34253700Y-33314300D03*
%TO.P,U1,10*%
%TO.N,TRIG_6*%
X34253700Y-31798500D03*
%TO.P,U1,11*%
%TO.N,TRIG_7*%
X35769500Y-31798500D03*
%TO.P,U1,12*%
%TO.N,OUT_0*%
X37285300Y-31798500D03*
%TO.P,U1,13*%
%TO.N,OUT_1*%
X38801100Y-31798500D03*
%TO.P,U1,14*%
%TO.N,OUT_2*%
X40316900Y-31798500D03*
%TO.P,U1,15*%
%TO.N,OUT_3*%
X41453700Y-32177400D03*
%TO.P,U1,16*%
%TO.N,OUT_4*%
X41453700Y-33693200D03*
%TO.P,U1,17*%
%TO.N,OUT_5*%
X41453700Y-35209000D03*
%TO.P,U1,18*%
%TO.N,OUT_6*%
X41453700Y-36724800D03*
%TO.P,U1,19*%
%TO.N,OUT_7*%
X41453700Y-38240600D03*
%TD*%
%TO.P,U2,1*%
%TO.N,VPP*%
X49464700Y-56127900D03*
%TO.P,U2,2*%
%TO.N,P3V3*%
X49464700Y-54612100D03*
%TO.P,U2,3*%
%TO.N,GND*%
X49464700Y-53096300D03*
%TO.P,U2,4*%
%TO.N,TRIG_8*%
X49464700Y-51580500D03*
%TO.P,U2,5*%
%TO.N,TRIG_9*%
X49464700Y-50064700D03*
%TO.P,U2,6*%
%TO.N,TRIG_10*%
X50601500Y-49685800D03*
%TO.P,U2,7*%
%TO.N,TRIG_11*%
X52117300Y-49685800D03*
%TO.P,U2,8*%
%TO.N,TRIG_12*%
X53633100Y-49685800D03*
%TO.P,U2,9*%
%TO.N,TRIG_13*%
X55148900Y-49685800D03*
%TO.P,U2,10*%
%TO.N,TRIG_14*%
X56664700Y-49685800D03*
%TO.P,U2,11*%
%TO.N,TRIG_15*%
X56664700Y-51201600D03*
%TO.P,U2,12*%
%TO.N,OUT_8*%
X56664700Y-52717400D03*
%TO.P,U2,13*%
%TO.N,OUT_9*%
X56664700Y-54233200D03*
%TO.P,U2,14*%
%TO.N,OUT_10*%
X56664700Y-55749000D03*
%TO.P,U2,15*%
%TO.N,OUT_11*%
X56285800Y-56885800D03*
%TO.P,U2,16*%
%TO.N,OUT_12*%
X54770000Y-56885800D03*
%TO.P,U2,17*%
%TO.N,OUT_13*%
X53254200Y-56885800D03*
%TO.P,U2,18*%
%TO.N,OUT_14*%
X51738400Y-56885800D03*
%TO.P,U2,19*%
%TO.N,OUT_15*%
X50222600Y-56885800D03*
%TD*%
%TO.P,ISO1,1*%
%TO.N,P3V3*%
X26708300Y-41775000D03*
%TO.P,ISO1,2*%
%TO.N,GND*%
X25475000Y-41775000D03*
%TO.P,ISO1,3*%
%TO.N,P3V3*%
X24241700Y-41775000D03*
%TO.P,ISO1,4*%
%TO.N,GND*%
X24125000Y-40658300D03*
%TO.P,ISO1,5*%
%TO.N,TRIGIN_0*%
X24125000Y-39425000D03*
%TO.P,ISO1,6*%
%TO.N,TRIGIN_1*%
X24125000Y-38191700D03*
%TO.P,ISO1,7*%
%TO.N,TRIGIN_2*%
X24741700Y-37575000D03*
%TO.P,ISO1,8*%
%TO.N,TRIGIN_3*%
X25975000Y-37575000D03*
%TO.P,ISO1,9*%
%TO.N,TRIG_0*%
X27208300Y-37575000D03*
%TO.P,ISO1,10*%
%TO.N,TRIG_1*%
X27325000Y-38691700D03*
%TO.P,ISO1,11*%
%TO.N,TRIG_2*%
X27325000Y-39925000D03*
%TO.P,ISO1,12*%
%TO.N,TRIG_3*%
X27325000Y-41158300D03*
%TD*%
%TO.P,ISO2,1*%
%TO.N,P3V3*%
X31829700Y-41310000D03*
%TO.P,ISO2,2*%
%TO.N,GND*%
X30596400Y-41310000D03*
%TO.P,ISO2,3*%
%TO.N,P3V3*%
X29363100Y-41310000D03*
%TO.P,ISO2,4*%
%TO.N,GND*%
X29246400Y-40193300D03*
%TO.P,ISO2,5*%
%TO.N,TRIGIN_4*%
X29246400Y-38960000D03*
%TO.P,ISO2,6*%
%TO.N,TRIGIN_5*%
X29246400Y-37726700D03*
%TO.P,ISO2,7*%
%TO.N,TRIGIN_6*%
X29863100Y-37110000D03*
%TO.P,ISO2,8*%
%TO.N,TRIGIN_7*%
X31096400Y-37110000D03*
%TO.P,ISO2,9*%
%TO.N,TRIG_4*%
X32329700Y-37110000D03*
%TO.P,ISO2,10*%
%TO.N,TRIG_5*%
X32446400Y-38226700D03*
%TO.P,ISO2,11*%
%TO.N,TRIG_6*%
X32446400Y-39460000D03*
%TO.P,ISO2,12*%
%TO.N,TRIG_7*%
X32446400Y-40693300D03*
%TD*%
%TO.P,ISO3,1*%
%TO.N,P3V3*%
X41919900Y-51505300D03*
%TO.P,ISO3,2*%
%TO.N,GND*%
X40686600Y-51505300D03*
%TO.P,ISO3,3*%
%TO.N,P3V3*%
X39453300Y-51505300D03*
%TO.P,ISO3,4*%
%TO.N,GND*%
X39336600Y-50388600D03*
%TO.P,ISO3,5*%
%TO.N,TRIGIN_8*%
X39336600Y-49155300D03*
%TO.P,ISO3,6*%
%TO.N,TRIGIN_9*%
X39336600Y-47922000D03*
%TO.P,ISO3,7*%
%TO.N,TRIGIN_10*%
X39953300Y-47305300D03*
%TO.P,ISO3,8*%
%TO.N,TRIGIN_11*%
X41186600Y-47305300D03*
%TO.P,ISO3,9*%
%TO.N,TRIG_8*%
X42419900Y-47305300D03*
%TO.P,ISO3,10*%
%TO.N,TRIG_9*%
X42536600Y-48422000D03*
%TO.P,ISO3,11*%
%TO.N,TRIG_10*%
X42536600Y-49655300D03*
%TO.P,ISO3,12*%
%TO.N,TRIG_11*%
X42536600Y-50888600D03*
%TD*%
%TO.P,ISO4,1*%
%TO.N,P3V3*%
X46986100Y-51623000D03*
%TO.P,ISO4,2*%
%TO.N,GND*%
X45752800Y-51623000D03*
%TO.P,ISO4,3*%
%TO.N,P3V3*%
X44519500Y-51623000D03*
%TO.P,ISO4,4*%
%TO.N,GND*%
X44402800Y-50506300D03*
%TO.P,ISO4,5*%
%TO.N,TRIGIN_12*%
X44402800Y-49273000D03*
%TO.P,ISO4,6*%
%TO.N,TRIGIN_13*%
X44402800Y-48039700D03*
%TO.P,ISO4,7*%
%TO.N,TRIGIN_14*%
X45019500Y-47423000D03*
%TO.P,ISO4,8*%
%TO.N,TRIGIN_15*%
X46252800Y-47423000D03*
%TO.P,ISO4,9*%
%TO.N,TRIG_12*%
X47486100Y-47423000D03*
%TO.P,ISO4,10*%
%TO.N,TRIG_13*%
X47602800Y-48539700D03*
%TO.P,ISO4,11*%
%TO.N,TRIG_14*%
X47602800Y-49773000D03*
%TO.P,ISO4,12*%
%TO.N,TRIG_15*%
X47602800Y-51006300D03*
%TD*%
D11*
%TO.P,R0,1*%
%TO.N,OUT_0*%
X45085500Y-31439000D03*
%TO.P,R0,2*%
%TO.N,TX_0*%
X46185500Y-31439000D03*
%TD*%
%TO.P,R1,1*%
%TO.N,OUT_1*%
X38784600Y-28732300D03*
%TO.P,R1,2*%
%TO.N,TX_1*%
X38784600Y-29832300D03*
%TD*%
%TO.P,R2,1*%
%TO.N,OUT_2*%
X73693600Y-34166300D03*
%TO.P,R2,2*%
%TO.N,TX_2*%
X73693600Y-35266300D03*
%TD*%
%TO.P,R3,1*%
%TO.N,OUT_3*%
X41727400Y-29780400D03*
%TO.P,R3,2*%
%TO.N,TX_3*%
X42827400Y-29780400D03*
%TD*%
%TO.P,R4,1*%
%TO.N,OUT_4*%
X44170000Y-40099800D03*
%TO.P,R4,2*%
%TO.N,TX_4*%
X44170000Y-41199800D03*
%TD*%
%TO.P,R5,1*%
%TO.N,OUT_5*%
X63000800Y-51699700D03*
%TO.P,R5,2*%
%TO.N,TX_5*%
X61900800Y-51699700D03*
%TD*%
%TO.P,R6,1*%
%TO.N,OUT_6*%
X73741900Y-44746400D03*
%TO.P,R6,2*%
%TO.N,TX_6*%
X73741900Y-45846400D03*
%TD*%
%TO.P,R7,1*%
%TO.N,OUT_7*%
X55907500Y-46136000D03*
%TO.P,R7,2*%
%TO.N,TX_7*%
X55907500Y-47236000D03*
%TD*%
%TO.P,R8,1*%
%TO.N,OUT_8*%
X56062900Y-59034000D03*
%TO.P,R8,2*%
%TO.N,TX_8*%
X57162900Y-59034000D03*
%TD*%
%TO.P,R9,1*%
%TO.N,OUT_9*%
X56223600Y-38881500D03*
%TO.P,R9,2*%
%TO.N,TX_9*%
X56223600Y-37781500D03*
%TD*%
%TO.P,R10,1*%
%TO.N,OUT_10*%
X58664700Y-54781100D03*
%TO.P,R10,2*%
%TO.N,TX_10*%
X58664700Y-55881100D03*
%TD*%
%TO.P,R11,1*%
%TO.N,OUT_11*%
X56300600Y-41040900D03*
%TO.P,R11,2*%
%TO.N,TX_11*%
X56300600Y-42140900D03*
%TD*%
%TO.P,R12,1*%
%TO.N,OUT_12*%
X59452900Y-59156000D03*
%TO.P,R12,2*%
%TO.N,TX_12*%
X59452900Y-58056000D03*
%TD*%
%TO.P,R13,1*%
%TO.N,OUT_13*%
X58640700Y-52264200D03*
%TO.P,R13,2*%
%TO.N,TX_13*%
X59740700Y-52264200D03*
%TD*%
%TO.P,R14,1*%
%TO.N,OUT_14*%
X53800700Y-58908700D03*
%TO.P,R14,2*%
%TO.N,TX_14*%
X53800700Y-60008700D03*
%TD*%
%TO.P,R15,1*%
%TO.N,OUT_15*%
X58190300Y-61460600D03*
%TO.P,R15,2*%
%TO.N,TX_15*%
X58190300Y-62560600D03*
%TD*%
%TO.P,C1,1*%
%TO.N,VPP*%
X40547100Y-41003300D03*
%TO.P,C1,2*%
%TO.N,GND*%
X41647100Y-41003300D03*
%TD*%
%TO.P,C2,1*%
%TO.N,VPP*%
X47462300Y-56379700D03*
%TO.P,C2,2*%
%TO.N,GND*%
X47462300Y-55279700D03*
%TD*%
%TO.P,C3,1*%
%TO.N,P3V3*%
X37879900Y-41016900D03*
%TO.P,C3,2*%
%TO.N,GND*%
X36779900Y-41016900D03*
%TD*%
%TO.P,C4,1*%
%TO.N,P3V3*%
X48596100Y-58910500D03*
%TO.P,C4,2*%
%TO.N,GND*%
X49696100Y-58910500D03*
%TD*%
D10*
%TO.P,J1,1*%
%TO.N,VPP*%
X64483400Y-41269600D03*
%TO.P,J1,2*%
%TO.N,GND*%
X67583400Y-36169600D03*
%TO.P,J1,3*%
%TO.N,P3V3*%
X71683400Y-40269600D03*
%TO.P,J1,4*%
%TO.N,P5V*%
X68583400Y-45369600D03*
%TD*%
%TO.P,J2,1*%
%TO.N,TRIGIN_0*%
X15907500Y-43644100D03*
%TO.P,J2,2*%
%TO.N,TRIGIN_1*%
X19131000Y-43644100D03*
%TO.P,J2,3*%
%TO.N,TRIGIN_2*%
X22354500Y-43644100D03*
%TO.P,J2,4*%
%TO.N,TRIGIN_3*%
X25578100Y-43644100D03*
%TO.P,J2,5*%
%TO.N,TRIGIN_4*%
X28801600Y-43644100D03*
%TO.P,J2,6*%
%TO.N,TRIGIN_5*%
X32025100Y-43644100D03*
%TO.P,J2,7*%
%TO.N,TRIGIN_6*%
X35248600Y-43644100D03*
%TO.P,J2,8*%
%TO.N,TRIGIN_7*%
X37495700Y-44620600D03*
%TO.P,J2,9*%
%TO.N,TRIGIN_8*%
X37495700Y-47844100D03*
%TO.P,J2,10*%
%TO.N,TRIGIN_9*%
X34272200Y-47844100D03*
%TO.P,J2,11*%
%TO.N,TRIGIN_10*%
X31048600Y-47844100D03*
%TO.P,J2,12*%
%TO.N,TRIGIN_11*%
X27825100Y-47844100D03*
%TO.P,J2,13*%
%TO.N,TRIGIN_12*%
X24601600Y-47844100D03*
%TO.P,J2,14*%
%TO.N,TRIGIN_13*%
X21378100Y-47844100D03*
%TO.P,J2,15*%
%TO.N,TRIGIN_14*%
X18154500Y-47844100D03*
%TO.P,J2,16*%
%TO.N,TRIGIN_15*%
X14931000Y-47844100D03*
%TO.P,J2,17*%
%TO.N,GND*%
X14295700Y-45255900D03*
%TD*%
%TO.P,J3,1*%
%TO.N,TX_0*%
X62663200Y-29991800D03*
%TO.P,J3,2*%
%TO.N,TX_1*%
X62663200Y-32980100D03*
%TO.P,J3,3*%
%TO.N,TX_2*%
X62663200Y-35968300D03*
%TO.P,J3,4*%
%TO.N,TX_3*%
X62663200Y-38956500D03*
%TO.P,J3,5*%
%TO.N,TX_4*%
X62663200Y-41944800D03*
%TO.P,J3,6*%
%TO.N,TX_5*%
X62663200Y-44933000D03*
%TO.P,J3,7*%
%TO.N,TX_6*%
X62663200Y-47921200D03*
%TO.P,J3,8*%
%TO.N,TX_7*%
X61451400Y-49697700D03*
%TO.P,J3,9*%
%TO.N,TX_8*%
X58463200Y-49697700D03*
%TO.P,J3,10*%
%TO.N,TX_9*%
X58463200Y-46709500D03*
%TO.P,J3,11*%
%TO.N,TX_10*%
X58463200Y-43721200D03*
%TO.P,J3,12*%
%TO.N,TX_11*%
X58463200Y-40733000D03*
%TO.P,J3,13*%
%TO.N,TX_12*%
X58463200Y-37744800D03*
%TO.P,J3,14*%
%TO.N,TX_13*%
X58463200Y-34756500D03*
%TO.P,J3,15*%
%TO.N,TX_14*%
X58463200Y-31768300D03*
%TO.P,J3,16*%
%TO.N,TX_15*%
X58463200Y-28780100D03*
%TO.P,J3,17*%
%TO.N,GND*%
X61169100Y-28497700D03*
%TD*%
D12*
%TO.N,VPP*%
X53000000Y-43000000D03*
X61500000Y-43000000D03*
%TO.N,GND*%
X67500000Y-36000000D03*
X38000000Y-39500000D03*
X41500000Y-41000000D03*
X40500000Y-51500000D03*
X49500000Y-53000000D03*
%TO.N,P3V3*%
X71500000Y-40500000D03*
X47500000Y-53500000D03*
X49500000Y-54500000D03*
%TO.N,TRIGIN_0*%
X20500000Y-39500000D03*
X16000000Y-43500000D03*
%TO.N,TRIGIN_1*%
X23000000Y-38000000D03*
X19000000Y-43500000D03*
%TO.N,TRIGIN_2*%
X24500000Y-37500000D03*
X22500000Y-43500000D03*
%TO.N,TRIGIN_3*%
X26000000Y-37500000D03*
X25500000Y-43500000D03*
%TO.N,TRIGIN_4*%
X29000000Y-39000000D03*
X29000000Y-43500000D03*
%TO.N,TRIGIN_5*%
X29000000Y-37500000D03*
X30000000Y-40000000D03*
X32000000Y-43500000D03*
%TO.N,TRIGIN_6*%
X30000000Y-37000000D03*
X35000000Y-43500000D03*
%TO.N,TRIGIN_7*%
X31000000Y-37000000D03*
X33500000Y-40000000D03*
X37500000Y-44500000D03*
%TO.N,TRIGIN_9*%
X34500000Y-48000000D03*
X39500000Y-48000000D03*
%TO.N,TRIGIN_10*%
X40000000Y-47500000D03*
X31000000Y-48000000D03*
%TO.N,TRIGIN_11*%
X41000000Y-47500000D03*
X28000000Y-48000000D03*
%TO.N,TRIGIN_12*%
X24500000Y-48000000D03*
X44500000Y-49500000D03*
%TO.N,TRIGIN_13*%
X21500000Y-48000000D03*
X44500000Y-48000000D03*
%TO.N,TRIGIN_14*%
X45000000Y-47500000D03*
X18000000Y-48000000D03*
%TO.N,TRIGIN_15*%
X46500000Y-47500000D03*
X15000000Y-48000000D03*
%TO.N,TRIG_0*%
X27000000Y-37500000D03*
X36000000Y-39000000D03*
%TO.N,TRIG_1*%
X27500000Y-38500000D03*
X34500000Y-39000000D03*
%TO.N,TRIG_2*%
X33500000Y-37500000D03*
X34500000Y-38000000D03*
X27500000Y-40000000D03*
%TO.N,TRIG_3*%
X34500000Y-36500000D03*
X27500000Y-41000000D03*
%TO.N,TRIG_6*%
X34500000Y-32000000D03*
X32500000Y-39500000D03*
%TO.N,TRIG_7*%
X36000000Y-32000000D03*
X32500000Y-40500000D03*
%TO.N,TRIG_8*%
X42500000Y-47500000D03*
X49000000Y-51500000D03*
X49500000Y-51500000D03*
%TO.N,TRIG_9*%
X42500000Y-48500000D03*
X49500000Y-50000000D03*
%TO.N,TRIG_10*%
X42500000Y-49500000D03*
X50500000Y-49500000D03*
%TO.N,TRIG_11*%
X42500000Y-51000000D03*
X52000000Y-51500000D03*
%TO.N,TRIG_12*%
X47500000Y-47500000D03*
X53500000Y-49500000D03*
%TO.N,TRIG_13*%
X47500000Y-48500000D03*
X55000000Y-49500000D03*
%TO.N,TRIG_14*%
X56500000Y-49500000D03*
X47500000Y-50000000D03*
%TO.N,TRIG_15*%
X47500000Y-51000000D03*
X56500000Y-51000000D03*
%TO.N,OUT_2*%
X40500000Y-29000000D03*
X40500000Y-30000000D03*
%TO.N,OUT_5*%
X56000000Y-34500000D03*
X57000000Y-37000000D03*
%TO.N,OUT_6*%
X52500000Y-36000000D03*
X53500000Y-36000000D03*
X63000000Y-40000000D03*
X64000000Y-40000000D03*
%TO.N,OUT_7*%
X53000000Y-42500000D03*
X54500000Y-42500000D03*
%TO.N,OUT_8*%
X56000000Y-54000000D03*
X56000000Y-55000000D03*
%TO.N,OUT_11*%
X56500000Y-41000000D03*
X56500000Y-56500000D03*
%TO.N,OUT_13*%
X58500000Y-53000000D03*
X53500000Y-53500000D03*
%TO.N,TX_0*%
X61500000Y-30500000D03*
X60000000Y-31000000D03*
%TO.N,TX_2*%
X63000000Y-36000000D03*
X64000000Y-36000000D03*
%TO.N,TX_4*%
X52500000Y-38500000D03*
X53500000Y-38500000D03*
%TO.N,TX_6*%
X63000000Y-48000000D03*
X64500000Y-48000000D03*
%TO.N,TX_7*%
X58000000Y-48500000D03*
X60500000Y-48500000D03*
%TO.N,TX_13*%
X57500000Y-35500000D03*
X57500000Y-37500000D03*
%TD*%
%TO.N,VPP*%
D13*
X40500000Y-39000000D02*
X40500000Y-39500000D01*
X40500000Y-39500000D02*
X40500000Y-40000000D01*
X40500000Y-40000000D02*
X40500000Y-40500000D01*
X40500000Y-40500000D02*
X40500000Y-41000000D01*
X40500000Y-41000000D02*
X40500000Y-41500000D01*
X40500000Y-41500000D02*
X41000000Y-41500000D01*
X41000000Y-41500000D02*
X41000000Y-42000000D01*
X41000000Y-42000000D02*
X41000000Y-42500000D01*
X41000000Y-42500000D02*
X41000000Y-43000000D01*
X41000000Y-43000000D02*
X41500000Y-43000000D01*
X41500000Y-43000000D02*
X42000000Y-43000000D01*
X42000000Y-43000000D02*
X42500000Y-43000000D01*
X42500000Y-43000000D02*
X42500000Y-43500000D01*
X42500000Y-43500000D02*
X43000000Y-43500000D01*
X43000000Y-43500000D02*
X43500000Y-43500000D01*
X43500000Y-43500000D02*
X44000000Y-43500000D01*
X44000000Y-43500000D02*
X44500000Y-43500000D01*
X44500000Y-43500000D02*
X44500000Y-44000000D01*
X44500000Y-44000000D02*
X44500000Y-44500000D01*
X44500000Y-44500000D02*
X45000000Y-44500000D01*
X45000000Y-44500000D02*
X45000000Y-45000000D01*
X45000000Y-45000000D02*
X45000000Y-45500000D01*
X45000000Y-45500000D02*
X45500000Y-45500000D01*
X45500000Y-45500000D02*
X46000000Y-45500000D01*
X46000000Y-45500000D02*
X46500000Y-45500000D01*
X46500000Y-45500000D02*
X47000000Y-45500000D01*
X47000000Y-45500000D02*
X47500000Y-45500000D01*
X47500000Y-45500000D02*
X47500000Y-46000000D01*
X47500000Y-46000000D02*
X48000000Y-46000000D01*
X48000000Y-46000000D02*
X48000000Y-46500000D01*
X48000000Y-46500000D02*
X48000000Y-47000000D01*
X48000000Y-47000000D02*
X48000000Y-47500000D01*
X48000000Y-47500000D02*
X48500000Y-47500000D01*
X48500000Y-47500000D02*
X48500000Y-48000000D01*
X48500000Y-48000000D02*
X48500000Y-48500000D01*
X48500000Y-48500000D02*
X48500000Y-49000000D01*
X48500000Y-49000000D02*
X48500000Y-49500000D01*
X48500000Y-49500000D02*
X48500000Y-50000000D01*
X48500000Y-50000000D02*
X48500000Y-50500000D01*
X48500000Y-50500000D02*
X48500000Y-51000000D01*
X48500000Y-51000000D02*
X49000000Y-51000000D01*
X49000000Y-51000000D02*
X49500000Y-51000000D01*
X49500000Y-51000000D02*
X50000000Y-51000000D01*
X50000000Y-51000000D02*
X50000000Y-51500000D01*
X50000000Y-51500000D02*
X50000000Y-52000000D01*
X50000000Y-52000000D02*
X50000000Y-52500000D01*
X50000000Y-52500000D02*
X50000000Y-53000000D01*
X50000000Y-53000000D02*
X50000000Y-53500000D01*
X50000000Y-53500000D02*
X50000000Y-54000000D01*
X50000000Y-54000000D02*
X50000000Y-54500000D01*
X50000000Y-54500000D02*
X50000000Y-55000000D01*
X50000000Y-55000000D02*
X50000000Y-55500000D01*
X50000000Y-55500000D02*
X50000000Y-56000000D01*
X50000000Y-56000000D02*
X49500000Y-56000000D01*
X50000000Y-54000000D02*
X49500000Y-54000000D01*
X49500000Y-54000000D02*
X49000000Y-54000000D01*
X49000000Y-54000000D02*
X48500000Y-54000000D01*
X48500000Y-54000000D02*
X48500000Y-54500000D01*
X48500000Y-54500000D02*
X48500000Y-55000000D01*
X48500000Y-55000000D02*
X48000000Y-55000000D01*
X48000000Y-55000000D02*
X48000000Y-55500000D01*
X48000000Y-55500000D02*
X48000000Y-56000000D01*
X48000000Y-56000000D02*
X47500000Y-56000000D01*
X47500000Y-56000000D02*
X47500000Y-56500000D01*
X48000000Y-46000000D02*
X48000000Y-45500000D01*
X48000000Y-45500000D02*
X48500000Y-45500000D01*
X48500000Y-45500000D02*
X49000000Y-45500000D01*
X49000000Y-45500000D02*
X49500000Y-45500000D01*
X49500000Y-45500000D02*
X50000000Y-45500000D01*
X50000000Y-45500000D02*
X50500000Y-45500000D01*
X50500000Y-45500000D02*
X50500000Y-45000000D01*
X50500000Y-45000000D02*
X50500000Y-44500000D01*
X50500000Y-44500000D02*
X50500000Y-44000000D01*
X50500000Y-44000000D02*
X51000000Y-44000000D01*
X51000000Y-44000000D02*
X51500000Y-44000000D01*
X51500000Y-44000000D02*
X52000000Y-44000000D01*
X52000000Y-44000000D02*
X52000000Y-43500000D01*
X52000000Y-43500000D02*
X52500000Y-43500000D01*
X52500000Y-43500000D02*
X53000000Y-43500000D01*
X53000000Y-43500000D02*
X53000000Y-43000000D01*
X61500000Y-43000000D02*
X62000000Y-43000000D01*
X62000000Y-43000000D02*
X62500000Y-43000000D01*
X62500000Y-43000000D02*
X63000000Y-43000000D01*
X63000000Y-43000000D02*
X63500000Y-43000000D01*
X63500000Y-43000000D02*
X63500000Y-42500000D01*
X63500000Y-42500000D02*
X64000000Y-42500000D01*
X64000000Y-42500000D02*
X64000000Y-42000000D01*
X64000000Y-42000000D02*
X64000000Y-41500000D01*
X64000000Y-41500000D02*
X64500000Y-41500000D01*
%TO.N,GND*%
X37500000Y-39000000D02*
X37500000Y-39500000D01*
X37500000Y-39500000D02*
X37000000Y-39500000D01*
X37000000Y-39500000D02*
X37000000Y-40000000D01*
X37000000Y-40000000D02*
X37000000Y-40500000D01*
X37000000Y-40500000D02*
X37000000Y-41000000D01*
X37000000Y-40500000D02*
X36500000Y-40500000D01*
X36500000Y-40500000D02*
X36000000Y-40500000D01*
X36000000Y-40500000D02*
X35500000Y-40500000D01*
X35500000Y-40500000D02*
X35000000Y-40500000D01*
X35000000Y-40500000D02*
X34500000Y-40500000D01*
X34500000Y-40500000D02*
X34000000Y-40500000D01*
X34000000Y-40500000D02*
X33500000Y-40500000D01*
X33500000Y-40500000D02*
X33000000Y-40500000D01*
X33000000Y-40500000D02*
X33000000Y-40000000D01*
X33000000Y-40000000D02*
X32500000Y-40000000D01*
X32500000Y-40000000D02*
X32000000Y-40000000D01*
X32000000Y-40000000D02*
X31500000Y-40000000D01*
X31500000Y-40000000D02*
X31500000Y-40500000D01*
X31500000Y-40500000D02*
X31000000Y-40500000D01*
X31000000Y-40500000D02*
X31000000Y-41000000D01*
X31000000Y-41000000D02*
X30500000Y-41000000D01*
X30500000Y-41000000D02*
X30500000Y-41500000D01*
X30500000Y-41000000D02*
X30500000Y-40500000D01*
X30500000Y-40500000D02*
X30000000Y-40500000D01*
X30000000Y-40500000D02*
X29500000Y-40500000D01*
X29500000Y-40500000D02*
X29500000Y-40000000D01*
X29500000Y-40000000D02*
X29000000Y-40000000D01*
X29000000Y-40000000D02*
X28500000Y-40000000D01*
X28500000Y-40000000D02*
X28000000Y-40000000D01*
X28000000Y-40000000D02*
X28000000Y-40500000D01*
X28000000Y-40500000D02*
X27500000Y-40500000D01*
X27500000Y-40500000D02*
X27000000Y-40500000D01*
X27000000Y-40500000D02*
X26500000Y-40500000D01*
X26500000Y-40500000D02*
X26500000Y-41000000D01*
X26500000Y-41000000D02*
X26000000Y-41000000D01*
X26000000Y-41000000D02*
X26000000Y-41500000D01*
X26000000Y-41500000D02*
X26000000Y-42000000D01*
X26000000Y-42000000D02*
X25500000Y-42000000D01*
X26000000Y-41000000D02*
X25500000Y-41000000D01*
X25500000Y-41000000D02*
X25000000Y-41000000D01*
X25000000Y-41000000D02*
X24500000Y-41000000D01*
X24500000Y-41000000D02*
X24000000Y-41000000D01*
X24000000Y-41000000D02*
X24000000Y-40500000D01*
X24000000Y-41000000D02*
X23500000Y-41000000D01*
X23500000Y-41000000D02*
X23000000Y-41000000D01*
X23000000Y-41000000D02*
X22500000Y-41000000D01*
X22500000Y-41000000D02*
X22000000Y-41000000D01*
X22000000Y-41000000D02*
X21500000Y-41000000D01*
X21500000Y-41000000D02*
X21000000Y-41000000D01*
X21000000Y-41000000D02*
X20500000Y-41000000D01*
X20500000Y-41000000D02*
X20000000Y-41000000D01*
X20000000Y-41000000D02*
X19500000Y-41000000D01*
X19500000Y-41000000D02*
X19000000Y-41000000D01*
X19000000Y-41000000D02*
X18500000Y-41000000D01*
X18500000Y-41000000D02*
X18500000Y-41500000D01*
X18500000Y-41500000D02*
X18500000Y-42000000D01*
X18500000Y-42000000D02*
X18000000Y-42000000D01*
X18000000Y-42000000D02*
X18000000Y-42500000D01*
X18000000Y-42500000D02*
X17500000Y-42500000D01*
X17500000Y-42500000D02*
X17000000Y-42500000D01*
X17000000Y-42500000D02*
X17000000Y-43000000D01*
X17000000Y-43000000D02*
X17000000Y-43500000D01*
X17000000Y-43500000D02*
X17000000Y-44000000D01*
X17000000Y-44000000D02*
X16500000Y-44000000D01*
X16500000Y-44000000D02*
X16500000Y-44500000D01*
X16500000Y-44500000D02*
X16000000Y-44500000D01*
X16000000Y-44500000D02*
X15500000Y-44500000D01*
X15500000Y-44500000D02*
X15000000Y-44500000D01*
X15000000Y-44500000D02*
X15000000Y-45000000D01*
X15000000Y-45000000D02*
X14500000Y-45000000D01*
X14500000Y-45000000D02*
X14500000Y-45500000D01*
X37500000Y-39500000D02*
X38000000Y-39500000D01*
X37500000Y-39000000D02*
X38000000Y-39000000D01*
X38000000Y-39000000D02*
X38500000Y-39000000D01*
X38500000Y-39000000D02*
X38500000Y-38500000D01*
X38500000Y-38500000D02*
X39000000Y-38500000D01*
X39000000Y-38500000D02*
X39500000Y-38500000D01*
X39500000Y-38500000D02*
X40000000Y-38500000D01*
X40000000Y-38500000D02*
X40000000Y-39000000D01*
X40000000Y-39000000D02*
X40000000Y-39500000D01*
X40000000Y-39500000D02*
X40000000Y-40000000D01*
X40000000Y-40000000D02*
X40000000Y-40500000D01*
X40000000Y-40500000D02*
X40000000Y-41000000D01*
X40000000Y-41000000D02*
X40000000Y-41500000D01*
X40000000Y-41500000D02*
X40000000Y-42000000D01*
X40000000Y-42000000D02*
X40000000Y-42500000D01*
X40000000Y-42500000D02*
X40000000Y-43000000D01*
X40000000Y-43000000D02*
X40000000Y-43500000D01*
X40000000Y-43500000D02*
X40000000Y-44000000D01*
X40000000Y-44000000D02*
X40000000Y-44500000D01*
X40000000Y-44500000D02*
X40000000Y-45000000D01*
X40000000Y-45000000D02*
X40000000Y-45500000D01*
X40000000Y-45500000D02*
X40000000Y-46000000D01*
X40000000Y-46000000D02*
X40000000Y-46500000D01*
X40000000Y-46500000D02*
X40500000Y-46500000D01*
X40500000Y-46500000D02*
X40500000Y-47000000D01*
X40500000Y-47000000D02*
X40500000Y-47500000D01*
X40500000Y-47500000D02*
X40500000Y-48000000D01*
X40500000Y-48000000D02*
X40500000Y-48500000D01*
X40500000Y-48500000D02*
X40500000Y-49000000D01*
X40500000Y-49000000D02*
X40500000Y-49500000D01*
X40500000Y-49500000D02*
X40500000Y-50000000D01*
X40500000Y-50000000D02*
X40500000Y-50500000D01*
X40500000Y-50500000D02*
X40000000Y-50500000D01*
X40000000Y-50500000D02*
X39500000Y-50500000D01*
X40500000Y-50500000D02*
X40500000Y-51000000D01*
X40500000Y-51000000D02*
X40500000Y-51500000D01*
X40500000Y-49000000D02*
X41000000Y-49000000D01*
X41000000Y-49000000D02*
X41500000Y-49000000D01*
X41500000Y-49000000D02*
X42000000Y-49000000D01*
X42000000Y-49000000D02*
X42500000Y-49000000D01*
X42500000Y-49000000D02*
X43000000Y-49000000D01*
X43000000Y-49000000D02*
X43500000Y-49000000D01*
X43500000Y-49000000D02*
X43500000Y-49500000D01*
X43500000Y-49500000D02*
X43500000Y-50000000D01*
X43500000Y-50000000D02*
X44000000Y-50000000D01*
X44000000Y-50000000D02*
X44500000Y-50000000D01*
X44500000Y-50000000D02*
X44500000Y-50500000D01*
X44500000Y-50500000D02*
X45000000Y-50500000D01*
X45000000Y-50500000D02*
X45500000Y-50500000D01*
X45500000Y-50500000D02*
X45500000Y-51000000D01*
X45500000Y-51000000D02*
X45500000Y-51500000D01*
X45500000Y-51500000D02*
X46000000Y-51500000D01*
X49500000Y-53000000D02*
X49500000Y-53500000D01*
X49500000Y-53500000D02*
X49000000Y-53500000D01*
X49000000Y-53500000D02*
X48500000Y-53500000D01*
X48500000Y-53500000D02*
X48000000Y-53500000D01*
X48000000Y-53500000D02*
X48000000Y-54000000D01*
X48000000Y-54000000D02*
X48000000Y-54500000D01*
X48000000Y-54500000D02*
X47500000Y-54500000D01*
X47500000Y-54500000D02*
X47500000Y-55000000D01*
X47500000Y-55000000D02*
X47500000Y-55500000D01*
X47500000Y-55500000D02*
X47000000Y-55500000D01*
X47000000Y-55500000D02*
X46500000Y-55500000D01*
X46500000Y-55500000D02*
X46500000Y-56000000D01*
X46500000Y-56000000D02*
X46500000Y-56500000D01*
X46500000Y-56500000D02*
X46500000Y-57000000D01*
X46500000Y-57000000D02*
X46500000Y-57500000D01*
X46500000Y-57500000D02*
X46500000Y-58000000D01*
X46500000Y-58000000D02*
X46500000Y-58500000D01*
X46500000Y-58500000D02*
X47000000Y-58500000D01*
X47000000Y-58500000D02*
X47000000Y-59000000D01*
X47000000Y-59000000D02*
X47500000Y-59000000D01*
X47500000Y-59000000D02*
X47500000Y-59500000D01*
X47500000Y-59500000D02*
X48000000Y-59500000D01*
X48000000Y-59500000D02*
X48500000Y-59500000D01*
X48500000Y-59500000D02*
X49000000Y-59500000D01*
X49000000Y-59500000D02*
X49500000Y-59500000D01*
X49500000Y-59500000D02*
X49500000Y-59000000D01*
X67500000Y-36000000D02*
X67500000Y-35500000D01*
X67500000Y-35500000D02*
X67500000Y-35000000D01*
X67500000Y-35000000D02*
X67500000Y-34500000D01*
X67500000Y-34500000D02*
X67000000Y-34500000D01*
X67000000Y-34500000D02*
X67000000Y-34000000D01*
X67000000Y-34000000D02*
X67000000Y-33500000D01*
X67000000Y-33500000D02*
X67000000Y-33000000D01*
X67000000Y-33000000D02*
X66500000Y-33000000D01*
X66500000Y-33000000D02*
X66500000Y-32500000D01*
X66500000Y-32500000D02*
X66000000Y-32500000D01*
X66000000Y-32500000D02*
X66000000Y-32000000D01*
X66000000Y-32000000D02*
X66000000Y-31500000D01*
X66000000Y-31500000D02*
X66000000Y-31000000D01*
X66000000Y-31000000D02*
X66000000Y-30500000D01*
X66000000Y-30500000D02*
X66000000Y-30000000D01*
X66000000Y-30000000D02*
X65500000Y-30000000D01*
X65500000Y-30000000D02*
X65000000Y-30000000D01*
X65000000Y-30000000D02*
X65000000Y-29500000D01*
X65000000Y-29500000D02*
X65000000Y-29000000D01*
X65000000Y-29000000D02*
X64500000Y-29000000D01*
X64500000Y-29000000D02*
X64000000Y-29000000D01*
X64000000Y-29000000D02*
X63500000Y-29000000D01*
X63500000Y-29000000D02*
X63000000Y-29000000D01*
X63000000Y-29000000D02*
X62500000Y-29000000D01*
X62500000Y-29000000D02*
X62000000Y-29000000D01*
X62000000Y-29000000D02*
X61500000Y-29000000D01*
X61500000Y-29000000D02*
X61000000Y-29000000D01*
X61000000Y-29000000D02*
X61000000Y-28500000D01*
%TO.N,P3V3*%
X39000000Y-39000000D02*
X39000000Y-39500000D01*
X39000000Y-39500000D02*
X39000000Y-40000000D01*
X39000000Y-40000000D02*
X39000000Y-40500000D01*
X39000000Y-40500000D02*
X39000000Y-41000000D01*
X39000000Y-41000000D02*
X38500000Y-41000000D01*
X38500000Y-41000000D02*
X38000000Y-41000000D01*
X38000000Y-41000000D02*
X37500000Y-41000000D01*
X37500000Y-41000000D02*
X37500000Y-41500000D01*
X37500000Y-41500000D02*
X37500000Y-42000000D01*
X37500000Y-42000000D02*
X37000000Y-42000000D01*
X37000000Y-42000000D02*
X36500000Y-42000000D01*
X36500000Y-42000000D02*
X36000000Y-42000000D01*
X36000000Y-42000000D02*
X35500000Y-42000000D01*
X35500000Y-42000000D02*
X35000000Y-42000000D01*
X35000000Y-42000000D02*
X34500000Y-42000000D01*
X34500000Y-42000000D02*
X34000000Y-42000000D01*
X34000000Y-42000000D02*
X33500000Y-42000000D01*
X33500000Y-42000000D02*
X33000000Y-42000000D01*
X33000000Y-42000000D02*
X32500000Y-42000000D01*
X32500000Y-42000000D02*
X32000000Y-42000000D01*
X32000000Y-42000000D02*
X32000000Y-41500000D01*
X32000000Y-42000000D02*
X31500000Y-42000000D01*
X31500000Y-42000000D02*
X31000000Y-42000000D01*
X31000000Y-42000000D02*
X30500000Y-42000000D01*
X30500000Y-42000000D02*
X30000000Y-42000000D01*
X30000000Y-42000000D02*
X29500000Y-42000000D01*
X29500000Y-42000000D02*
X29500000Y-41500000D01*
X29500000Y-42000000D02*
X29000000Y-42000000D01*
X29000000Y-42000000D02*
X28500000Y-42000000D01*
X28500000Y-42000000D02*
X28000000Y-42000000D01*
X28000000Y-42000000D02*
X27500000Y-42000000D01*
X27500000Y-42000000D02*
X27000000Y-42000000D01*
X27000000Y-42000000D02*
X26500000Y-42000000D01*
X26500000Y-42000000D02*
X26500000Y-42500000D01*
X26500000Y-42500000D02*
X26000000Y-42500000D01*
X26000000Y-42500000D02*
X25500000Y-42500000D01*
X25500000Y-42500000D02*
X25000000Y-42500000D01*
X25000000Y-42500000D02*
X24500000Y-42500000D01*
X24500000Y-42500000D02*
X24500000Y-42000000D01*
X24500000Y-42000000D02*
X24000000Y-42000000D01*
X37000000Y-42000000D02*
X37000000Y-42500000D01*
X37000000Y-42500000D02*
X37000000Y-43000000D01*
X37000000Y-43000000D02*
X37000000Y-43500000D01*
X37000000Y-43500000D02*
X37000000Y-44000000D01*
X37000000Y-44000000D02*
X37000000Y-44500000D01*
X37000000Y-44500000D02*
X37000000Y-45000000D01*
X37000000Y-45000000D02*
X37000000Y-45500000D01*
X37000000Y-45500000D02*
X37000000Y-46000000D01*
X37000000Y-46000000D02*
X37000000Y-46500000D01*
X37000000Y-46500000D02*
X37000000Y-47000000D01*
X37000000Y-47000000D02*
X37000000Y-47500000D01*
X37000000Y-47500000D02*
X37000000Y-48000000D01*
X37000000Y-48000000D02*
X37000000Y-48500000D01*
X37000000Y-48500000D02*
X37000000Y-49000000D01*
X37000000Y-49000000D02*
X37000000Y-49500000D01*
X37000000Y-49500000D02*
X37000000Y-50000000D01*
X37000000Y-50000000D02*
X37000000Y-50500000D01*
X37000000Y-50500000D02*
X37500000Y-50500000D01*
X37500000Y-50500000D02*
X38000000Y-50500000D01*
X38000000Y-50500000D02*
X38000000Y-51000000D01*
X38000000Y-51000000D02*
X38500000Y-51000000D01*
X38500000Y-51000000D02*
X39000000Y-51000000D01*
X39000000Y-51000000D02*
X39000000Y-51500000D01*
X39000000Y-51500000D02*
X39500000Y-51500000D01*
X39500000Y-51500000D02*
X39500000Y-52000000D01*
X39500000Y-52000000D02*
X40000000Y-52000000D01*
X40000000Y-52000000D02*
X40500000Y-52000000D01*
X40500000Y-52000000D02*
X41000000Y-52000000D01*
X41000000Y-52000000D02*
X41500000Y-52000000D01*
X41500000Y-52000000D02*
X42000000Y-52000000D01*
X42000000Y-52000000D02*
X42000000Y-51500000D01*
X42000000Y-51500000D02*
X42500000Y-51500000D01*
X42500000Y-51500000D02*
X43000000Y-51500000D01*
X43000000Y-51500000D02*
X43500000Y-51500000D01*
X43500000Y-51500000D02*
X44000000Y-51500000D01*
X44000000Y-51500000D02*
X44500000Y-51500000D01*
X44500000Y-51500000D02*
X45000000Y-51500000D01*
X45000000Y-51500000D02*
X45000000Y-52000000D01*
X45000000Y-52000000D02*
X45000000Y-52500000D01*
X45000000Y-52500000D02*
X45500000Y-52500000D01*
X45500000Y-52500000D02*
X46000000Y-52500000D01*
X46000000Y-52500000D02*
X46500000Y-52500000D01*
X46500000Y-52500000D02*
X46500000Y-52000000D01*
X46500000Y-52000000D02*
X47000000Y-52000000D01*
X47000000Y-52000000D02*
X47000000Y-51500000D01*
X47000000Y-52000000D02*
X47500000Y-52000000D01*
X47500000Y-52000000D02*
X47500000Y-52500000D01*
X47500000Y-52500000D02*
X47500000Y-53000000D01*
X47500000Y-53000000D02*
X47500000Y-53500000D01*
X49500000Y-54500000D02*
X49500000Y-55000000D01*
X49500000Y-55000000D02*
X49500000Y-55500000D01*
X49500000Y-55500000D02*
X49000000Y-55500000D01*
X49000000Y-55500000D02*
X48500000Y-55500000D01*
X48500000Y-55500000D02*
X48500000Y-56000000D01*
X48500000Y-56000000D02*
X48500000Y-56500000D01*
X48500000Y-56500000D02*
X48500000Y-57000000D01*
X48500000Y-57000000D02*
X48500000Y-57500000D01*
X48500000Y-57500000D02*
X48500000Y-58000000D01*
X48500000Y-58000000D02*
X48500000Y-58500000D01*
X48500000Y-58500000D02*
X48500000Y-59000000D01*
%TO.N,TRIGIN_0*%
D14*
X24000000Y-39500000D02*
X23500000Y-39500000D01*
X23500000Y-39500000D02*
X23000000Y-39500000D01*
X23000000Y-39500000D02*
X22500000Y-39500000D01*
X22500000Y-39500000D02*
X22000000Y-39500000D01*
X22000000Y-39500000D02*
X21500000Y-39500000D01*
X21500000Y-39500000D02*
X21000000Y-39500000D01*
X21000000Y-39500000D02*
X20500000Y-39500000D01*
%TO.N,TRIGIN_1*%
X24000000Y-38000000D02*
X23500000Y-38000000D01*
X23500000Y-38000000D02*
X23000000Y-38000000D01*
%TO.N,TRIGIN_8*%
X39500000Y-49000000D02*
X39000000Y-49000000D01*
X39000000Y-49000000D02*
X39000000Y-48500000D01*
X39000000Y-48500000D02*
X38500000Y-48500000D01*
X38500000Y-48500000D02*
X38000000Y-48500000D01*
X38000000Y-48500000D02*
X37500000Y-48500000D01*
X37500000Y-48500000D02*
X37500000Y-48000000D01*
%TO.N,TRIG_4*%
X34500000Y-35000000D02*
X34000000Y-35000000D01*
X34000000Y-35000000D02*
X34000000Y-35500000D01*
X34000000Y-35500000D02*
X33500000Y-35500000D01*
X33500000Y-35500000D02*
X33500000Y-36000000D01*
X33500000Y-36000000D02*
X33500000Y-36500000D01*
X33500000Y-36500000D02*
X33000000Y-36500000D01*
X33000000Y-36500000D02*
X32500000Y-36500000D01*
X32500000Y-36500000D02*
X32500000Y-37000000D01*
%TO.N,TRIG_5*%
X34500000Y-33500000D02*
X35000000Y-33500000D01*
X35000000Y-33500000D02*
X35000000Y-34000000D01*
X35000000Y-34000000D02*
X35000000Y-34500000D01*
X35000000Y-34500000D02*
X35000000Y-35000000D01*
X35000000Y-35000000D02*
X35000000Y-35500000D01*
X35000000Y-35500000D02*
X35000000Y-36000000D01*
X35000000Y-36000000D02*
X35000000Y-36500000D01*
X35000000Y-36500000D02*
X35000000Y-37000000D01*
X35000000Y-37000000D02*
X34500000Y-37000000D01*
X34500000Y-37000000D02*
X34000000Y-37000000D01*
X34000000Y-37000000D02*
X33500000Y-37000000D01*
X33500000Y-37000000D02*
X33000000Y-37000000D01*
X33000000Y-37000000D02*
X33000000Y-37500000D01*
X33000000Y-37500000D02*
X33000000Y-38000000D01*
X33000000Y-38000000D02*
X32500000Y-38000000D01*
%TO.N,TRIG_11*%
X52000000Y-49500000D02*
X52000000Y-50000000D01*
X52000000Y-50000000D02*
X52000000Y-50500000D01*
X52000000Y-50500000D02*
X52000000Y-51000000D01*
X52000000Y-51000000D02*
X52000000Y-51500000D01*
%TO.N,OUT_0*%
D13*
X37500000Y-32000000D02*
X38000000Y-32000000D01*
X38000000Y-32000000D02*
X38000000Y-32500000D01*
X38000000Y-32500000D02*
X38500000Y-32500000D01*
X38500000Y-32500000D02*
X39000000Y-32500000D01*
X39000000Y-32500000D02*
X39500000Y-32500000D01*
X39500000Y-32500000D02*
X40000000Y-32500000D01*
X40000000Y-32500000D02*
X40000000Y-33000000D01*
X40000000Y-33000000D02*
X40500000Y-33000000D01*
X40500000Y-33000000D02*
X41000000Y-33000000D01*
X41000000Y-33000000D02*
X41500000Y-33000000D01*
X41500000Y-33000000D02*
X42000000Y-33000000D01*
X42000000Y-33000000D02*
X42500000Y-33000000D01*
X42500000Y-33000000D02*
X43000000Y-33000000D01*
X43000000Y-33000000D02*
X43500000Y-33000000D01*
X43500000Y-33000000D02*
X43500000Y-32500000D01*
X43500000Y-32500000D02*
X44000000Y-32500000D01*
X44000000Y-32500000D02*
X44000000Y-32000000D01*
X44000000Y-32000000D02*
X44500000Y-32000000D01*
X44500000Y-32000000D02*
X44500000Y-31500000D01*
X44500000Y-31500000D02*
X45000000Y-31500000D01*
%TO.N,OUT_1*%
X39000000Y-32000000D02*
X38500000Y-32000000D01*
X38500000Y-32000000D02*
X38500000Y-31500000D01*
X38500000Y-31500000D02*
X38000000Y-31500000D01*
X38000000Y-31500000D02*
X38000000Y-31000000D01*
X38000000Y-31000000D02*
X38000000Y-30500000D01*
X38000000Y-30500000D02*
X38000000Y-30000000D01*
X38000000Y-30000000D02*
X38000000Y-29500000D01*
X38000000Y-29500000D02*
X38000000Y-29000000D01*
X38000000Y-29000000D02*
X38500000Y-29000000D01*
X38500000Y-29000000D02*
X39000000Y-29000000D01*
X39000000Y-29000000D02*
X39000000Y-28500000D01*
%TO.N,OUT_2*%
X40500000Y-32000000D02*
X40500000Y-31500000D01*
X40500000Y-31500000D02*
X40500000Y-31000000D01*
X40500000Y-31000000D02*
X40500000Y-30500000D01*
X40500000Y-30500000D02*
X40500000Y-30000000D01*
X40500000Y-29000000D02*
X40500000Y-28500000D01*
X40500000Y-28500000D02*
X41000000Y-28500000D01*
X41000000Y-28500000D02*
X41500000Y-28500000D01*
X41500000Y-28500000D02*
X42000000Y-28500000D01*
X42000000Y-28500000D02*
X42500000Y-28500000D01*
X42500000Y-28500000D02*
X43000000Y-28500000D01*
X43000000Y-28500000D02*
X43500000Y-28500000D01*
X43500000Y-28500000D02*
X44000000Y-28500000D01*
X44000000Y-28500000D02*
X44500000Y-28500000D01*
X44500000Y-28500000D02*
X45000000Y-28500000D01*
X45000000Y-28500000D02*
X45500000Y-28500000D01*
X45500000Y-28500000D02*
X46000000Y-28500000D01*
X46000000Y-28500000D02*
X46500000Y-28500000D01*
X46500000Y-28500000D02*
X47000000Y-28500000D01*
X47000000Y-28500000D02*
X47500000Y-28500000D01*
X47500000Y-28500000D02*
X48000000Y-28500000D01*
X48000000Y-28500000D02*
X48500000Y-28500000D01*
X48500000Y-28500000D02*
X49000000Y-28500000D01*
X49000000Y-28500000D02*
X49500000Y-28500000D01*
X49500000Y-28500000D02*
X50000000Y-28500000D01*
X50000000Y-28500000D02*
X50500000Y-28500000D01*
X50500000Y-28500000D02*
X51000000Y-28500000D01*
X51000000Y-28500000D02*
X51500000Y-28500000D01*
X51500000Y-28500000D02*
X52000000Y-28500000D01*
X52000000Y-28500000D02*
X52500000Y-28500000D01*
X52500000Y-28500000D02*
X53000000Y-28500000D01*
X53000000Y-28500000D02*
X53500000Y-28500000D01*
X53500000Y-28500000D02*
X54000000Y-28500000D01*
X54000000Y-28500000D02*
X54500000Y-28500000D01*
X54500000Y-28500000D02*
X55000000Y-28500000D01*
X55000000Y-28500000D02*
X55500000Y-28500000D01*
X55500000Y-28500000D02*
X56000000Y-28500000D01*
X56000000Y-28500000D02*
X56500000Y-28500000D01*
X56500000Y-28500000D02*
X57000000Y-28500000D01*
X57000000Y-28500000D02*
X57000000Y-28000000D01*
X57000000Y-28000000D02*
X57500000Y-28000000D01*
X57500000Y-28000000D02*
X58000000Y-28000000D01*
X58000000Y-28000000D02*
X58500000Y-28000000D01*
X58500000Y-28000000D02*
X59000000Y-28000000D01*
X59000000Y-28000000D02*
X59500000Y-28000000D01*
X59500000Y-28000000D02*
X60000000Y-28000000D01*
X60000000Y-28000000D02*
X60500000Y-28000000D01*
X60500000Y-28000000D02*
X61000000Y-28000000D01*
X61000000Y-28000000D02*
X61500000Y-28000000D01*
X61500000Y-28000000D02*
X62000000Y-28000000D01*
X62000000Y-28000000D02*
X62500000Y-28000000D01*
X62500000Y-28000000D02*
X63000000Y-28000000D01*
X63000000Y-28000000D02*
X63500000Y-28000000D01*
X63500000Y-28000000D02*
X64000000Y-28000000D01*
X64000000Y-28000000D02*
X64500000Y-28000000D01*
X64500000Y-28000000D02*
X65000000Y-28000000D01*
X65000000Y-28000000D02*
X65500000Y-28000000D01*
X65500000Y-28000000D02*
X66000000Y-28000000D01*
X66000000Y-28000000D02*
X66500000Y-28000000D01*
X66500000Y-28000000D02*
X67000000Y-28000000D01*
X67000000Y-28000000D02*
X67500000Y-28000000D01*
X67500000Y-28000000D02*
X67500000Y-28500000D01*
X67500000Y-28500000D02*
X68000000Y-28500000D01*
X68000000Y-28500000D02*
X68000000Y-29000000D01*
X68000000Y-29000000D02*
X68000000Y-29500000D01*
X68000000Y-29500000D02*
X68000000Y-30000000D01*
X68000000Y-30000000D02*
X68500000Y-30000000D01*
X68500000Y-30000000D02*
X68500000Y-30500000D01*
X68500000Y-30500000D02*
X69000000Y-30500000D01*
X69000000Y-30500000D02*
X69000000Y-31000000D01*
X69000000Y-31000000D02*
X69500000Y-31000000D01*
X69500000Y-31000000D02*
X69500000Y-31500000D01*
X69500000Y-31500000D02*
X70000000Y-31500000D01*
X70000000Y-31500000D02*
X70000000Y-32000000D01*
X70000000Y-32000000D02*
X70000000Y-32500000D01*
X70000000Y-32500000D02*
X70500000Y-32500000D01*
X70500000Y-32500000D02*
X71000000Y-32500000D01*
X71000000Y-32500000D02*
X71000000Y-33000000D01*
X71000000Y-33000000D02*
X71500000Y-33000000D01*
X71500000Y-33000000D02*
X71500000Y-33500000D01*
X71500000Y-33500000D02*
X72000000Y-33500000D01*
X72000000Y-33500000D02*
X72000000Y-34000000D01*
X72000000Y-34000000D02*
X72500000Y-34000000D01*
X72500000Y-34000000D02*
X73000000Y-34000000D01*
X73000000Y-34000000D02*
X73500000Y-34000000D01*
%TO.N,OUT_3*%
X41500000Y-32000000D02*
X41500000Y-31500000D01*
X41500000Y-31500000D02*
X41500000Y-31000000D01*
X41500000Y-31000000D02*
X41500000Y-30500000D01*
X41500000Y-30500000D02*
X41500000Y-30000000D01*
%TO.N,OUT_4*%
X41500000Y-33500000D02*
X41000000Y-33500000D01*
X41000000Y-33500000D02*
X40500000Y-33500000D01*
X40500000Y-33500000D02*
X40500000Y-34000000D01*
X40500000Y-34000000D02*
X40500000Y-34500000D01*
X40500000Y-34500000D02*
X40500000Y-35000000D01*
X40500000Y-35000000D02*
X40500000Y-35500000D01*
X40500000Y-35500000D02*
X40500000Y-36000000D01*
X40500000Y-36000000D02*
X40500000Y-36500000D01*
X40500000Y-36500000D02*
X40500000Y-37000000D01*
X40500000Y-37000000D02*
X40500000Y-37500000D01*
X40500000Y-37500000D02*
X41000000Y-37500000D01*
X41000000Y-37500000D02*
X41500000Y-37500000D01*
X41500000Y-37500000D02*
X42000000Y-37500000D01*
X42000000Y-37500000D02*
X42500000Y-37500000D01*
X42500000Y-37500000D02*
X43000000Y-37500000D01*
X43000000Y-37500000D02*
X43000000Y-38000000D01*
X43000000Y-38000000D02*
X43000000Y-38500000D01*
X43000000Y-38500000D02*
X43500000Y-38500000D01*
X43500000Y-38500000D02*
X43500000Y-39000000D01*
X43500000Y-39000000D02*
X43500000Y-39500000D01*
X43500000Y-39500000D02*
X43500000Y-40000000D01*
X43500000Y-40000000D02*
X44000000Y-40000000D01*
%TO.N,OUT_5*%
X41500000Y-35000000D02*
X42000000Y-35000000D01*
X42000000Y-35000000D02*
X42500000Y-35000000D01*
X42500000Y-35000000D02*
X43000000Y-35000000D01*
X43000000Y-35000000D02*
X43500000Y-35000000D01*
X43500000Y-35000000D02*
X44000000Y-35000000D01*
X44000000Y-35000000D02*
X44500000Y-35000000D01*
X44500000Y-35000000D02*
X45000000Y-35000000D01*
X45000000Y-35000000D02*
X45500000Y-35000000D01*
X45500000Y-35000000D02*
X46000000Y-35000000D01*
X46000000Y-35000000D02*
X46500000Y-35000000D01*
X46500000Y-35000000D02*
X47000000Y-35000000D01*
X47000000Y-35000000D02*
X47500000Y-35000000D01*
X47500000Y-35000000D02*
X48000000Y-35000000D01*
X48000000Y-35000000D02*
X48500000Y-35000000D01*
X48500000Y-35000000D02*
X49000000Y-35000000D01*
X49000000Y-35000000D02*
X49500000Y-35000000D01*
X49500000Y-35000000D02*
X50000000Y-35000000D01*
X50000000Y-35000000D02*
X50500000Y-35000000D01*
X50500000Y-35000000D02*
X51000000Y-35000000D01*
X51000000Y-35000000D02*
X51500000Y-35000000D01*
X51500000Y-35000000D02*
X52000000Y-35000000D01*
X52000000Y-35000000D02*
X52500000Y-35000000D01*
X52500000Y-35000000D02*
X53000000Y-35000000D01*
X53000000Y-35000000D02*
X53500000Y-35000000D01*
X53500000Y-35000000D02*
X53500000Y-34500000D01*
X53500000Y-34500000D02*
X54000000Y-34500000D01*
X54000000Y-34500000D02*
X54500000Y-34500000D01*
X54500000Y-34500000D02*
X55000000Y-34500000D01*
X55000000Y-34500000D02*
X55500000Y-34500000D01*
X55500000Y-34500000D02*
X56000000Y-34500000D01*
X57000000Y-37000000D02*
X57500000Y-37000000D01*
X57500000Y-37000000D02*
X58000000Y-37000000D01*
X58000000Y-37000000D02*
X58500000Y-37000000D01*
X58500000Y-37000000D02*
X59000000Y-37000000D01*
X59000000Y-37000000D02*
X59500000Y-37000000D01*
X59500000Y-37000000D02*
X59500000Y-37500000D01*
X59500000Y-37500000D02*
X59500000Y-38000000D01*
X59500000Y-38000000D02*
X60000000Y-38000000D01*
X60000000Y-38000000D02*
X60500000Y-38000000D01*
X60500000Y-38000000D02*
X60500000Y-38500000D01*
X60500000Y-38500000D02*
X60500000Y-39000000D01*
X60500000Y-39000000D02*
X61000000Y-39000000D01*
X61000000Y-39000000D02*
X61000000Y-39500000D01*
X61000000Y-39500000D02*
X61000000Y-40000000D01*
X61000000Y-40000000D02*
X61000000Y-40500000D01*
X61000000Y-40500000D02*
X61000000Y-41000000D01*
X61000000Y-41000000D02*
X61000000Y-41500000D01*
X61000000Y-41500000D02*
X61000000Y-42000000D01*
X61000000Y-42000000D02*
X61000000Y-42500000D01*
X61000000Y-42500000D02*
X61000000Y-43000000D01*
X61000000Y-43000000D02*
X61000000Y-43500000D01*
X61000000Y-43500000D02*
X61500000Y-43500000D01*
X61500000Y-43500000D02*
X62000000Y-43500000D01*
X62000000Y-43500000D02*
X62500000Y-43500000D01*
X62500000Y-43500000D02*
X63000000Y-43500000D01*
X63000000Y-43500000D02*
X63500000Y-43500000D01*
X63500000Y-43500000D02*
X63500000Y-44000000D01*
X63500000Y-44000000D02*
X63500000Y-44500000D01*
X63500000Y-44500000D02*
X63500000Y-45000000D01*
X63500000Y-45000000D02*
X63500000Y-45500000D01*
X63500000Y-45500000D02*
X63500000Y-46000000D01*
X63500000Y-46000000D02*
X63500000Y-46500000D01*
X63500000Y-46500000D02*
X63500000Y-47000000D01*
X63500000Y-47000000D02*
X63500000Y-47500000D01*
X63500000Y-47500000D02*
X63500000Y-48000000D01*
X63500000Y-48000000D02*
X63500000Y-48500000D01*
X63500000Y-48500000D02*
X63500000Y-49000000D01*
X63500000Y-49000000D02*
X63500000Y-49500000D01*
X63500000Y-49500000D02*
X63500000Y-50000000D01*
X63500000Y-50000000D02*
X63500000Y-50500000D01*
X63500000Y-50500000D02*
X63500000Y-51000000D01*
X63500000Y-51000000D02*
X63500000Y-51500000D01*
X63500000Y-51500000D02*
X63000000Y-51500000D01*
%TO.N,OUT_6*%
X41500000Y-36500000D02*
X41500000Y-36000000D01*
X41500000Y-36000000D02*
X42000000Y-36000000D01*
X42000000Y-36000000D02*
X42500000Y-36000000D01*
X42500000Y-36000000D02*
X43000000Y-36000000D01*
X43000000Y-36000000D02*
X43500000Y-36000000D01*
X43500000Y-36000000D02*
X44000000Y-36000000D01*
X44000000Y-36000000D02*
X44500000Y-36000000D01*
X44500000Y-36000000D02*
X45000000Y-36000000D01*
X45000000Y-36000000D02*
X45500000Y-36000000D01*
X45500000Y-36000000D02*
X46000000Y-36000000D01*
X46000000Y-36000000D02*
X46500000Y-36000000D01*
X46500000Y-36000000D02*
X47000000Y-36000000D01*
X47000000Y-36000000D02*
X47500000Y-36000000D01*
X47500000Y-36000000D02*
X48000000Y-36000000D01*
X48000000Y-36000000D02*
X48500000Y-36000000D01*
X48500000Y-36000000D02*
X49000000Y-36000000D01*
X49000000Y-36000000D02*
X49500000Y-36000000D01*
X49500000Y-36000000D02*
X50000000Y-36000000D01*
X50000000Y-36000000D02*
X50500000Y-36000000D01*
X50500000Y-36000000D02*
X51000000Y-36000000D01*
X51000000Y-36000000D02*
X51500000Y-36000000D01*
X51500000Y-36000000D02*
X52000000Y-36000000D01*
X52000000Y-36000000D02*
X52500000Y-36000000D01*
X53500000Y-36000000D02*
X54000000Y-36000000D01*
X54000000Y-36000000D02*
X54500000Y-36000000D01*
X54500000Y-36000000D02*
X55000000Y-36000000D01*
X55000000Y-36000000D02*
X55500000Y-36000000D01*
X55500000Y-36000000D02*
X56000000Y-36000000D01*
X56000000Y-36000000D02*
X56500000Y-36000000D01*
X56500000Y-36000000D02*
X57000000Y-36000000D01*
X57000000Y-36000000D02*
X57500000Y-36000000D01*
X57500000Y-36000000D02*
X58000000Y-36000000D01*
X58000000Y-36000000D02*
X58500000Y-36000000D01*
X58500000Y-36000000D02*
X59000000Y-36000000D01*
X59000000Y-36000000D02*
X59500000Y-36000000D01*
X59500000Y-36000000D02*
X60000000Y-36000000D01*
X60000000Y-36000000D02*
X60500000Y-36000000D01*
X60500000Y-36000000D02*
X61000000Y-36000000D01*
X61000000Y-36000000D02*
X61000000Y-36500000D01*
X61000000Y-36500000D02*
X61000000Y-37000000D01*
X61000000Y-37000000D02*
X61500000Y-37000000D01*
X61500000Y-37000000D02*
X61500000Y-37500000D01*
X61500000Y-37500000D02*
X61500000Y-38000000D01*
X61500000Y-38000000D02*
X62000000Y-38000000D01*
X62000000Y-38000000D02*
X62000000Y-38500000D01*
X62000000Y-38500000D02*
X62000000Y-39000000D01*
X62000000Y-39000000D02*
X62000000Y-39500000D01*
X62000000Y-39500000D02*
X62500000Y-39500000D01*
X62500000Y-39500000D02*
X63000000Y-39500000D01*
X63000000Y-39500000D02*
X63000000Y-40000000D01*
X64000000Y-40000000D02*
X64500000Y-40000000D01*
X64500000Y-40000000D02*
X65000000Y-40000000D01*
X65000000Y-40000000D02*
X65500000Y-40000000D01*
X65500000Y-40000000D02*
X65500000Y-40500000D01*
X65500000Y-40500000D02*
X66000000Y-40500000D01*
X66000000Y-40500000D02*
X66500000Y-40500000D01*
X66500000Y-40500000D02*
X67000000Y-40500000D01*
X67000000Y-40500000D02*
X67500000Y-40500000D01*
X67500000Y-40500000D02*
X68000000Y-40500000D01*
X68000000Y-40500000D02*
X68500000Y-40500000D01*
X68500000Y-40500000D02*
X69000000Y-40500000D01*
X69000000Y-40500000D02*
X69500000Y-40500000D01*
X69500000Y-40500000D02*
X69500000Y-41000000D01*
X69500000Y-41000000D02*
X70000000Y-41000000D01*
X70000000Y-41000000D02*
X70500000Y-41000000D01*
X70500000Y-41000000D02*
X70500000Y-41500000D01*
X70500000Y-41500000D02*
X71000000Y-41500000D01*
X71000000Y-41500000D02*
X71000000Y-42000000D01*
X71000000Y-42000000D02*
X71500000Y-42000000D01*
X71500000Y-42000000D02*
X72000000Y-42000000D01*
X72000000Y-42000000D02*
X72000000Y-42500000D01*
X72000000Y-42500000D02*
X72500000Y-42500000D01*
X72500000Y-42500000D02*
X73000000Y-42500000D01*
X73000000Y-42500000D02*
X73000000Y-43000000D01*
X73000000Y-43000000D02*
X73500000Y-43000000D01*
X73500000Y-43000000D02*
X73500000Y-43500000D01*
X73500000Y-43500000D02*
X73500000Y-44000000D01*
X73500000Y-44000000D02*
X73500000Y-44500000D01*
%TO.N,OUT_7*%
X41500000Y-38000000D02*
X41500000Y-38500000D01*
X41500000Y-38500000D02*
X41500000Y-39000000D01*
X41500000Y-39000000D02*
X41500000Y-39500000D01*
X41500000Y-39500000D02*
X41500000Y-40000000D01*
X41500000Y-40000000D02*
X42000000Y-40000000D01*
X42000000Y-40000000D02*
X42500000Y-40000000D01*
X42500000Y-40000000D02*
X43000000Y-40000000D01*
X43000000Y-40000000D02*
X43000000Y-40500000D01*
X43000000Y-40500000D02*
X43500000Y-40500000D01*
X43500000Y-40500000D02*
X43500000Y-41000000D01*
X43500000Y-41000000D02*
X43500000Y-41500000D01*
X43500000Y-41500000D02*
X43500000Y-42000000D01*
X43500000Y-42000000D02*
X44000000Y-42000000D01*
X44000000Y-42000000D02*
X44500000Y-42000000D01*
X44500000Y-42000000D02*
X45000000Y-42000000D01*
X45000000Y-42000000D02*
X45500000Y-42000000D01*
X45500000Y-42000000D02*
X46000000Y-42000000D01*
X46000000Y-42000000D02*
X46500000Y-42000000D01*
X46500000Y-42000000D02*
X47000000Y-42000000D01*
X47000000Y-42000000D02*
X47500000Y-42000000D01*
X47500000Y-42000000D02*
X48000000Y-42000000D01*
X48000000Y-42000000D02*
X48500000Y-42000000D01*
X48500000Y-42000000D02*
X49000000Y-42000000D01*
X49000000Y-42000000D02*
X49500000Y-42000000D01*
X49500000Y-42000000D02*
X50000000Y-42000000D01*
X50000000Y-42000000D02*
X50500000Y-42000000D01*
X50500000Y-42000000D02*
X51000000Y-42000000D01*
X51000000Y-42000000D02*
X51500000Y-42000000D01*
X51500000Y-42000000D02*
X52000000Y-42000000D01*
X52000000Y-42000000D02*
X52500000Y-42000000D01*
X52500000Y-42000000D02*
X52500000Y-42500000D01*
X52500000Y-42500000D02*
X53000000Y-42500000D01*
X54500000Y-42500000D02*
X54500000Y-43000000D01*
X54500000Y-43000000D02*
X54500000Y-43500000D01*
X54500000Y-43500000D02*
X54500000Y-44000000D01*
X54500000Y-44000000D02*
X55000000Y-44000000D01*
X55000000Y-44000000D02*
X55500000Y-44000000D01*
X55500000Y-44000000D02*
X55500000Y-44500000D01*
X55500000Y-44500000D02*
X55500000Y-45000000D01*
X55500000Y-45000000D02*
X55500000Y-45500000D01*
X55500000Y-45500000D02*
X56000000Y-45500000D01*
X56000000Y-45500000D02*
X56000000Y-46000000D01*
%TO.N,OUT_8*%
X56500000Y-52500000D02*
X56500000Y-53000000D01*
X56500000Y-53000000D02*
X56500000Y-53500000D01*
X56500000Y-53500000D02*
X56000000Y-53500000D01*
X56000000Y-53500000D02*
X56000000Y-54000000D01*
X56000000Y-55000000D02*
X56000000Y-55500000D01*
X56000000Y-55500000D02*
X56000000Y-56000000D01*
X56000000Y-56000000D02*
X55500000Y-56000000D01*
X55500000Y-56000000D02*
X55500000Y-56500000D01*
X55500000Y-56500000D02*
X55500000Y-57000000D01*
X55500000Y-57000000D02*
X55500000Y-57500000D01*
X55500000Y-57500000D02*
X55500000Y-58000000D01*
X55500000Y-58000000D02*
X55500000Y-58500000D01*
X55500000Y-58500000D02*
X56000000Y-58500000D01*
X56000000Y-58500000D02*
X56000000Y-59000000D01*
%TO.N,OUT_9*%
X56500000Y-54000000D02*
X56500000Y-54500000D01*
X56500000Y-54500000D02*
X56000000Y-54500000D01*
X56000000Y-54500000D02*
X55500000Y-54500000D01*
X55500000Y-54500000D02*
X55000000Y-54500000D01*
X55000000Y-54500000D02*
X54500000Y-54500000D01*
X54500000Y-54500000D02*
X54500000Y-54000000D01*
X54500000Y-54000000D02*
X54500000Y-53500000D01*
X54500000Y-53500000D02*
X54500000Y-53000000D01*
X54500000Y-53000000D02*
X54500000Y-52500000D01*
X54500000Y-52500000D02*
X54500000Y-52000000D01*
X54500000Y-52000000D02*
X54500000Y-51500000D01*
X54500000Y-51500000D02*
X54500000Y-51000000D01*
X54500000Y-51000000D02*
X54500000Y-50500000D01*
X54500000Y-50500000D02*
X54500000Y-50000000D01*
X54500000Y-50000000D02*
X54500000Y-49500000D01*
X54500000Y-49500000D02*
X54500000Y-49000000D01*
X54500000Y-49000000D02*
X54500000Y-48500000D01*
X54500000Y-48500000D02*
X54000000Y-48500000D01*
X54000000Y-48500000D02*
X54000000Y-48000000D01*
X54000000Y-48000000D02*
X54000000Y-47500000D01*
X54000000Y-47500000D02*
X54000000Y-47000000D01*
X54000000Y-47000000D02*
X54000000Y-46500000D01*
X54000000Y-46500000D02*
X54000000Y-46000000D01*
X54000000Y-46000000D02*
X54000000Y-45500000D01*
X54000000Y-45500000D02*
X54000000Y-45000000D01*
X54000000Y-45000000D02*
X54000000Y-44500000D01*
X54000000Y-44500000D02*
X54000000Y-44000000D01*
X54000000Y-44000000D02*
X54000000Y-43500000D01*
X54000000Y-43500000D02*
X54000000Y-43000000D01*
X54000000Y-43000000D02*
X54000000Y-42500000D01*
X54000000Y-42500000D02*
X54000000Y-42000000D01*
X54000000Y-42000000D02*
X54000000Y-41500000D01*
X54000000Y-41500000D02*
X54000000Y-41000000D01*
X54000000Y-41000000D02*
X54000000Y-40500000D01*
X54000000Y-40500000D02*
X54000000Y-40000000D01*
X54000000Y-40000000D02*
X54500000Y-40000000D01*
X54500000Y-40000000D02*
X54500000Y-39500000D01*
X54500000Y-39500000D02*
X54500000Y-39000000D01*
X54500000Y-39000000D02*
X55000000Y-39000000D01*
X55000000Y-39000000D02*
X55500000Y-39000000D01*
X55500000Y-39000000D02*
X56000000Y-39000000D01*
%TO.N,OUT_10*%
X56500000Y-55500000D02*
X57000000Y-55500000D01*
X57000000Y-55500000D02*
X57000000Y-56000000D01*
X57000000Y-56000000D02*
X57000000Y-56500000D01*
X57000000Y-56500000D02*
X57500000Y-56500000D01*
X57500000Y-56500000D02*
X58000000Y-56500000D01*
X58000000Y-56500000D02*
X58500000Y-56500000D01*
X58500000Y-56500000D02*
X59000000Y-56500000D01*
X59000000Y-56500000D02*
X59500000Y-56500000D01*
X59500000Y-56500000D02*
X59500000Y-56000000D01*
X59500000Y-56000000D02*
X59500000Y-55500000D01*
X59500000Y-55500000D02*
X59500000Y-55000000D01*
X59500000Y-55000000D02*
X59000000Y-55000000D01*
X59000000Y-55000000D02*
X58500000Y-55000000D01*
%TO.N,OUT_11*%
X56500000Y-57000000D02*
X56500000Y-56500000D01*
%TO.N,OUT_12*%
X55000000Y-57000000D02*
X55000000Y-57500000D01*
X55000000Y-57500000D02*
X55000000Y-58000000D01*
X55000000Y-58000000D02*
X55000000Y-58500000D01*
X55000000Y-58500000D02*
X55000000Y-59000000D01*
X55000000Y-59000000D02*
X55000000Y-59500000D01*
X55000000Y-59500000D02*
X55500000Y-59500000D01*
X55500000Y-59500000D02*
X55500000Y-60000000D01*
X55500000Y-60000000D02*
X56000000Y-60000000D01*
X56000000Y-60000000D02*
X56500000Y-60000000D01*
X56500000Y-60000000D02*
X57000000Y-60000000D01*
X57000000Y-60000000D02*
X57500000Y-60000000D01*
X57500000Y-60000000D02*
X58000000Y-60000000D01*
X58000000Y-60000000D02*
X58500000Y-60000000D01*
X58500000Y-60000000D02*
X58500000Y-59500000D01*
X58500000Y-59500000D02*
X58500000Y-59000000D01*
X58500000Y-59000000D02*
X59000000Y-59000000D01*
X59000000Y-59000000D02*
X59500000Y-59000000D01*
%TO.N,OUT_13*%
X53500000Y-57000000D02*
X53500000Y-56500000D01*
X53500000Y-56500000D02*
X53500000Y-56000000D01*
X53500000Y-56000000D02*
X53500000Y-55500000D01*
X53500000Y-55500000D02*
X53500000Y-55000000D01*
X53500000Y-55000000D02*
X53500000Y-54500000D01*
X53500000Y-54500000D02*
X53500000Y-54000000D01*
X53500000Y-54000000D02*
X53500000Y-53500000D01*
X58500000Y-53000000D02*
X58500000Y-52500000D01*
%TO.N,OUT_14*%
X51500000Y-57000000D02*
X52000000Y-57000000D01*
X52000000Y-57000000D02*
X52000000Y-57500000D01*
X52000000Y-57500000D02*
X52000000Y-58000000D01*
X52000000Y-58000000D02*
X52500000Y-58000000D01*
X52500000Y-58000000D02*
X53000000Y-58000000D01*
X53000000Y-58000000D02*
X53500000Y-58000000D01*
X53500000Y-58000000D02*
X53500000Y-58500000D01*
X53500000Y-58500000D02*
X54000000Y-58500000D01*
X54000000Y-58500000D02*
X54000000Y-59000000D01*
%TO.N,OUT_15*%
X50000000Y-57000000D02*
X50500000Y-57000000D01*
X50500000Y-57000000D02*
X50500000Y-57500000D01*
X50500000Y-57500000D02*
X51000000Y-57500000D01*
X51000000Y-57500000D02*
X51000000Y-58000000D01*
X51000000Y-58000000D02*
X51500000Y-58000000D01*
X51500000Y-58000000D02*
X51500000Y-58500000D01*
X51500000Y-58500000D02*
X51500000Y-59000000D01*
X51500000Y-59000000D02*
X52000000Y-59000000D01*
X52000000Y-59000000D02*
X52500000Y-59000000D01*
X52500000Y-59000000D02*
X52500000Y-59500000D01*
X52500000Y-59500000D02*
X53000000Y-59500000D01*
X53000000Y-59500000D02*
X53000000Y-60000000D01*
X53000000Y-60000000D02*
X53000000Y-60500000D01*
X53000000Y-60500000D02*
X53000000Y-61000000D01*
X53000000Y-61000000D02*
X53500000Y-61000000D01*
X53500000Y-61000000D02*
X54000000Y-61000000D01*
X54000000Y-61000000D02*
X54500000Y-61000000D01*
X54500000Y-61000000D02*
X55000000Y-61000000D01*
X55000000Y-61000000D02*
X55500000Y-61000000D01*
X55500000Y-61000000D02*
X56000000Y-61000000D01*
X56000000Y-61000000D02*
X56500000Y-61000000D01*
X56500000Y-61000000D02*
X57000000Y-61000000D01*
X57000000Y-61000000D02*
X57500000Y-61000000D01*
X57500000Y-61000000D02*
X58000000Y-61000000D01*
X58000000Y-61000000D02*
X58000000Y-61500000D01*
%TO.N,TX_0*%
X46000000Y-31500000D02*
X46500000Y-31500000D01*
X46500000Y-31500000D02*
X47000000Y-31500000D01*
X47000000Y-31500000D02*
X47500000Y-31500000D01*
X47500000Y-31500000D02*
X48000000Y-31500000D01*
X48000000Y-31500000D02*
X48500000Y-31500000D01*
X48500000Y-31500000D02*
X49000000Y-31500000D01*
X49000000Y-31500000D02*
X49500000Y-31500000D01*
X49500000Y-31500000D02*
X50000000Y-31500000D01*
X50000000Y-31500000D02*
X50500000Y-31500000D01*
X50500000Y-31500000D02*
X51000000Y-31500000D01*
X51000000Y-31500000D02*
X51500000Y-31500000D01*
X51500000Y-31500000D02*
X52000000Y-31500000D01*
X52000000Y-31500000D02*
X52500000Y-31500000D01*
X52500000Y-31500000D02*
X53000000Y-31500000D01*
X53000000Y-31500000D02*
X53500000Y-31500000D01*
X53500000Y-31500000D02*
X54000000Y-31500000D01*
X54000000Y-31500000D02*
X54500000Y-31500000D01*
X54500000Y-31500000D02*
X55000000Y-31500000D01*
X55000000Y-31500000D02*
X55500000Y-31500000D01*
X55500000Y-31500000D02*
X56000000Y-31500000D01*
X56000000Y-31500000D02*
X56500000Y-31500000D01*
X56500000Y-31500000D02*
X57000000Y-31500000D01*
X57000000Y-31500000D02*
X57500000Y-31500000D01*
X57500000Y-31500000D02*
X57500000Y-31000000D01*
X57500000Y-31000000D02*
X58000000Y-31000000D01*
X58000000Y-31000000D02*
X58500000Y-31000000D01*
X58500000Y-31000000D02*
X59000000Y-31000000D01*
X59000000Y-31000000D02*
X59500000Y-31000000D01*
X59500000Y-31000000D02*
X60000000Y-31000000D01*
X61500000Y-30500000D02*
X62000000Y-30500000D01*
X62000000Y-30500000D02*
X62500000Y-30500000D01*
X62500000Y-30500000D02*
X62500000Y-30000000D01*
%TO.N,TX_1*%
X39000000Y-30000000D02*
X39000000Y-29500000D01*
X39000000Y-29500000D02*
X39500000Y-29500000D01*
X39500000Y-29500000D02*
X40000000Y-29500000D01*
X40000000Y-29500000D02*
X40500000Y-29500000D01*
X40500000Y-29500000D02*
X41000000Y-29500000D01*
X41000000Y-29500000D02*
X41000000Y-29000000D01*
X41000000Y-29000000D02*
X41500000Y-29000000D01*
X41500000Y-29000000D02*
X42000000Y-29000000D01*
X42000000Y-29000000D02*
X42500000Y-29000000D01*
X42500000Y-29000000D02*
X43000000Y-29000000D01*
X43000000Y-29000000D02*
X43500000Y-29000000D01*
X43500000Y-29000000D02*
X44000000Y-29000000D01*
X44000000Y-29000000D02*
X44500000Y-29000000D01*
X44500000Y-29000000D02*
X45000000Y-29000000D01*
X45000000Y-29000000D02*
X45500000Y-29000000D01*
X45500000Y-29000000D02*
X46000000Y-29000000D01*
X46000000Y-29000000D02*
X46500000Y-29000000D01*
X46500000Y-29000000D02*
X47000000Y-29000000D01*
X47000000Y-29000000D02*
X47500000Y-29000000D01*
X47500000Y-29000000D02*
X48000000Y-29000000D01*
X48000000Y-29000000D02*
X48500000Y-29000000D01*
X48500000Y-29000000D02*
X49000000Y-29000000D01*
X49000000Y-29000000D02*
X49500000Y-29000000D01*
X49500000Y-29000000D02*
X50000000Y-29000000D01*
X50000000Y-29000000D02*
X50500000Y-29000000D01*
X50500000Y-29000000D02*
X51000000Y-29000000D01*
X51000000Y-29000000D02*
X51500000Y-29000000D01*
X51500000Y-29000000D02*
X52000000Y-29000000D01*
X52000000Y-29000000D02*
X52500000Y-29000000D01*
X52500000Y-29000000D02*
X53000000Y-29000000D01*
X53000000Y-29000000D02*
X53500000Y-29000000D01*
X53500000Y-29000000D02*
X54000000Y-29000000D01*
X54000000Y-29000000D02*
X54500000Y-29000000D01*
X54500000Y-29000000D02*
X55000000Y-29000000D01*
X55000000Y-29000000D02*
X55500000Y-29000000D01*
X55500000Y-29000000D02*
X56000000Y-29000000D01*
X56000000Y-29000000D02*
X56500000Y-29000000D01*
X56500000Y-29000000D02*
X57000000Y-29000000D01*
X57000000Y-29000000D02*
X57500000Y-29000000D01*
X57500000Y-29000000D02*
X57500000Y-29500000D01*
X57500000Y-29500000D02*
X58000000Y-29500000D01*
X58000000Y-29500000D02*
X58500000Y-29500000D01*
X58500000Y-29500000D02*
X59000000Y-29500000D01*
X59000000Y-29500000D02*
X59500000Y-29500000D01*
X59500000Y-29500000D02*
X60000000Y-29500000D01*
X60000000Y-29500000D02*
X60000000Y-30000000D01*
X60000000Y-30000000D02*
X60500000Y-30000000D01*
X60500000Y-30000000D02*
X61000000Y-30000000D01*
X61000000Y-30000000D02*
X61000000Y-30500000D01*
X61000000Y-30500000D02*
X61000000Y-31000000D01*
X61000000Y-31000000D02*
X61500000Y-31000000D01*
X61500000Y-31000000D02*
X62000000Y-31000000D01*
X62000000Y-31000000D02*
X62000000Y-31500000D01*
X62000000Y-31500000D02*
X62000000Y-32000000D01*
X62000000Y-32000000D02*
X62000000Y-32500000D01*
X62000000Y-32500000D02*
X62000000Y-33000000D01*
X62000000Y-33000000D02*
X62500000Y-33000000D01*
%TO.N,TX_2*%
X73500000Y-35500000D02*
X73000000Y-35500000D01*
X73000000Y-35500000D02*
X72500000Y-35500000D01*
X72500000Y-35500000D02*
X72000000Y-35500000D01*
X72000000Y-35500000D02*
X71500000Y-35500000D01*
X71500000Y-35500000D02*
X71000000Y-35500000D01*
X71000000Y-35500000D02*
X70500000Y-35500000D01*
X70500000Y-35500000D02*
X70000000Y-35500000D01*
X70000000Y-35500000D02*
X69500000Y-35500000D01*
X69500000Y-35500000D02*
X69500000Y-36000000D01*
X69500000Y-36000000D02*
X69500000Y-36500000D01*
X69500000Y-36500000D02*
X69000000Y-36500000D01*
X69000000Y-36500000D02*
X68500000Y-36500000D01*
X68500000Y-36500000D02*
X68500000Y-37000000D01*
X68500000Y-37000000D02*
X68000000Y-37000000D01*
X68000000Y-37000000D02*
X67500000Y-37000000D01*
X67500000Y-37000000D02*
X67000000Y-37000000D01*
X67000000Y-37000000D02*
X66500000Y-37000000D01*
X66500000Y-37000000D02*
X66000000Y-37000000D01*
X66000000Y-37000000D02*
X65500000Y-37000000D01*
X65500000Y-37000000D02*
X65500000Y-36500000D01*
X65500000Y-36500000D02*
X65000000Y-36500000D01*
X65000000Y-36500000D02*
X65000000Y-36000000D01*
X65000000Y-36000000D02*
X64500000Y-36000000D01*
X64500000Y-36000000D02*
X64000000Y-36000000D01*
X63000000Y-36000000D02*
X62500000Y-36000000D01*
%TO.N,TX_3*%
X43000000Y-30000000D02*
X43500000Y-30000000D01*
X43500000Y-30000000D02*
X44000000Y-30000000D01*
X44000000Y-30000000D02*
X44500000Y-30000000D01*
X44500000Y-30000000D02*
X45000000Y-30000000D01*
X45000000Y-30000000D02*
X45500000Y-30000000D01*
X45500000Y-30000000D02*
X46000000Y-30000000D01*
X46000000Y-30000000D02*
X46500000Y-30000000D01*
X46500000Y-30000000D02*
X47000000Y-30000000D01*
X47000000Y-30000000D02*
X47500000Y-30000000D01*
X47500000Y-30000000D02*
X48000000Y-30000000D01*
X48000000Y-30000000D02*
X48500000Y-30000000D01*
X48500000Y-30000000D02*
X49000000Y-30000000D01*
X49000000Y-30000000D02*
X49500000Y-30000000D01*
X49500000Y-30000000D02*
X50000000Y-30000000D01*
X50000000Y-30000000D02*
X50500000Y-30000000D01*
X50500000Y-30000000D02*
X51000000Y-30000000D01*
X51000000Y-30000000D02*
X51500000Y-30000000D01*
X51500000Y-30000000D02*
X52000000Y-30000000D01*
X52000000Y-30000000D02*
X52500000Y-30000000D01*
X52500000Y-30000000D02*
X53000000Y-30000000D01*
X53000000Y-30000000D02*
X53500000Y-30000000D01*
X53500000Y-30000000D02*
X53500000Y-30500000D01*
X53500000Y-30500000D02*
X54000000Y-30500000D01*
X54000000Y-30500000D02*
X54500000Y-30500000D01*
X54500000Y-30500000D02*
X55000000Y-30500000D01*
X55000000Y-30500000D02*
X55500000Y-30500000D01*
X55500000Y-30500000D02*
X56000000Y-30500000D01*
X56000000Y-30500000D02*
X56500000Y-30500000D01*
X56500000Y-30500000D02*
X57000000Y-30500000D01*
X57000000Y-30500000D02*
X57500000Y-30500000D01*
X57500000Y-30500000D02*
X58000000Y-30500000D01*
X58000000Y-30500000D02*
X58500000Y-30500000D01*
X58500000Y-30500000D02*
X59000000Y-30500000D01*
X59000000Y-30500000D02*
X59500000Y-30500000D01*
X59500000Y-30500000D02*
X60000000Y-30500000D01*
X60000000Y-30500000D02*
X60500000Y-30500000D01*
X60500000Y-30500000D02*
X60500000Y-31000000D01*
X60500000Y-31000000D02*
X60500000Y-31500000D01*
X60500000Y-31500000D02*
X60500000Y-32000000D01*
X60500000Y-32000000D02*
X60500000Y-32500000D01*
X60500000Y-32500000D02*
X60500000Y-33000000D01*
X60500000Y-33000000D02*
X60500000Y-33500000D01*
X60500000Y-33500000D02*
X60500000Y-34000000D01*
X60500000Y-34000000D02*
X60500000Y-34500000D01*
X60500000Y-34500000D02*
X60500000Y-35000000D01*
X60500000Y-35000000D02*
X60500000Y-35500000D01*
X60500000Y-35500000D02*
X61000000Y-35500000D01*
X61000000Y-35500000D02*
X61500000Y-35500000D01*
X61500000Y-35500000D02*
X61500000Y-36000000D01*
X61500000Y-36000000D02*
X62000000Y-36000000D01*
X62000000Y-36000000D02*
X62000000Y-36500000D01*
X62000000Y-36500000D02*
X62500000Y-36500000D01*
X62500000Y-36500000D02*
X62500000Y-37000000D01*
X62500000Y-37000000D02*
X62500000Y-37500000D01*
X62500000Y-37500000D02*
X62500000Y-38000000D01*
X62500000Y-38000000D02*
X62500000Y-38500000D01*
X62500000Y-38500000D02*
X62500000Y-39000000D01*
%TO.N,TX_4*%
X44000000Y-41000000D02*
X44500000Y-41000000D01*
X44500000Y-41000000D02*
X45000000Y-41000000D01*
X45000000Y-41000000D02*
X45500000Y-41000000D01*
X45500000Y-41000000D02*
X46000000Y-41000000D01*
X46000000Y-41000000D02*
X46500000Y-41000000D01*
X46500000Y-41000000D02*
X47000000Y-41000000D01*
X47000000Y-41000000D02*
X47500000Y-41000000D01*
X47500000Y-41000000D02*
X48000000Y-41000000D01*
X48000000Y-41000000D02*
X48500000Y-41000000D01*
X48500000Y-41000000D02*
X49000000Y-41000000D01*
X49000000Y-41000000D02*
X49000000Y-40500000D01*
X49000000Y-40500000D02*
X49500000Y-40500000D01*
X49500000Y-40500000D02*
X50000000Y-40500000D01*
X50000000Y-40500000D02*
X50000000Y-40000000D01*
X50000000Y-40000000D02*
X50000000Y-39500000D01*
X50000000Y-39500000D02*
X50000000Y-39000000D01*
X50000000Y-39000000D02*
X50500000Y-39000000D01*
X50500000Y-39000000D02*
X50500000Y-38500000D01*
X50500000Y-38500000D02*
X51000000Y-38500000D01*
X51000000Y-38500000D02*
X51500000Y-38500000D01*
X51500000Y-38500000D02*
X52000000Y-38500000D01*
X52000000Y-38500000D02*
X52500000Y-38500000D01*
X53500000Y-38500000D02*
X54000000Y-38500000D01*
X54000000Y-38500000D02*
X54500000Y-38500000D01*
X54500000Y-38500000D02*
X55000000Y-38500000D01*
X55000000Y-38500000D02*
X55000000Y-38000000D01*
X55000000Y-38000000D02*
X55000000Y-37500000D01*
X55000000Y-37500000D02*
X55500000Y-37500000D01*
X55500000Y-37500000D02*
X55500000Y-37000000D01*
X55500000Y-37000000D02*
X56000000Y-37000000D01*
X56000000Y-37000000D02*
X56500000Y-37000000D01*
X56500000Y-37000000D02*
X56500000Y-36500000D01*
X56500000Y-36500000D02*
X57000000Y-36500000D01*
X57000000Y-36500000D02*
X57500000Y-36500000D01*
X57500000Y-36500000D02*
X58000000Y-36500000D01*
X58000000Y-36500000D02*
X58500000Y-36500000D01*
X58500000Y-36500000D02*
X59000000Y-36500000D01*
X59000000Y-36500000D02*
X59500000Y-36500000D01*
X59500000Y-36500000D02*
X60000000Y-36500000D01*
X60000000Y-36500000D02*
X60500000Y-36500000D01*
X60500000Y-36500000D02*
X60500000Y-37000000D01*
X60500000Y-37000000D02*
X60500000Y-37500000D01*
X60500000Y-37500000D02*
X61000000Y-37500000D01*
X61000000Y-37500000D02*
X61000000Y-38000000D01*
X61000000Y-38000000D02*
X61000000Y-38500000D01*
X61000000Y-38500000D02*
X61500000Y-38500000D01*
X61500000Y-38500000D02*
X61500000Y-39000000D01*
X61500000Y-39000000D02*
X61500000Y-39500000D01*
X61500000Y-39500000D02*
X61500000Y-40000000D01*
X61500000Y-40000000D02*
X61500000Y-40500000D01*
X61500000Y-40500000D02*
X61500000Y-41000000D01*
X61500000Y-41000000D02*
X62000000Y-41000000D01*
X62000000Y-41000000D02*
X62000000Y-41500000D01*
X62000000Y-41500000D02*
X62500000Y-41500000D01*
X62500000Y-41500000D02*
X62500000Y-42000000D01*
%TO.N,TX_5*%
X62000000Y-51500000D02*
X62000000Y-51000000D01*
X62000000Y-51000000D02*
X62000000Y-50500000D01*
X62000000Y-50500000D02*
X62000000Y-50000000D01*
X62000000Y-50000000D02*
X62000000Y-49500000D01*
X62000000Y-49500000D02*
X62000000Y-49000000D01*
X62000000Y-49000000D02*
X62000000Y-48500000D01*
X62000000Y-48500000D02*
X62000000Y-48000000D01*
X62000000Y-48000000D02*
X62000000Y-47500000D01*
X62000000Y-47500000D02*
X62000000Y-47000000D01*
X62000000Y-47000000D02*
X62000000Y-46500000D01*
X62000000Y-46500000D02*
X62000000Y-46000000D01*
X62000000Y-46000000D02*
X62000000Y-45500000D01*
X62000000Y-45500000D02*
X62000000Y-45000000D01*
X62000000Y-45000000D02*
X62500000Y-45000000D01*
%TO.N,TX_6*%
X73500000Y-46000000D02*
X73000000Y-46000000D01*
X73000000Y-46000000D02*
X72500000Y-46000000D01*
X72500000Y-46000000D02*
X72000000Y-46000000D01*
X72000000Y-46000000D02*
X71500000Y-46000000D01*
X71500000Y-46000000D02*
X71000000Y-46000000D01*
X71000000Y-46000000D02*
X70500000Y-46000000D01*
X70500000Y-46000000D02*
X70000000Y-46000000D01*
X70000000Y-46000000D02*
X69500000Y-46000000D01*
X69500000Y-46000000D02*
X69000000Y-46000000D01*
X69000000Y-46000000D02*
X68500000Y-46000000D01*
X68500000Y-46000000D02*
X68000000Y-46000000D01*
X68000000Y-46000000D02*
X67500000Y-46000000D01*
X67500000Y-46000000D02*
X67000000Y-46000000D01*
X67000000Y-46000000D02*
X67000000Y-46500000D01*
X67000000Y-46500000D02*
X67000000Y-47000000D01*
X67000000Y-47000000D02*
X67000000Y-47500000D01*
X67000000Y-47500000D02*
X66500000Y-47500000D01*
X66500000Y-47500000D02*
X66500000Y-48000000D01*
X66500000Y-48000000D02*
X66000000Y-48000000D01*
X66000000Y-48000000D02*
X65500000Y-48000000D01*
X65500000Y-48000000D02*
X65000000Y-48000000D01*
X65000000Y-48000000D02*
X64500000Y-48000000D01*
X63000000Y-48000000D02*
X62500000Y-48000000D01*
%TO.N,TX_7*%
X56000000Y-47000000D02*
X56000000Y-47500000D01*
X56000000Y-47500000D02*
X56000000Y-48000000D01*
X56000000Y-48000000D02*
X56000000Y-48500000D01*
X56000000Y-48500000D02*
X56500000Y-48500000D01*
X56500000Y-48500000D02*
X57000000Y-48500000D01*
X57000000Y-48500000D02*
X57500000Y-48500000D01*
X57500000Y-48500000D02*
X58000000Y-48500000D01*
X60500000Y-48500000D02*
X61000000Y-48500000D01*
X61000000Y-48500000D02*
X61500000Y-48500000D01*
X61500000Y-48500000D02*
X61500000Y-49000000D01*
X61500000Y-49000000D02*
X61500000Y-49500000D01*
%TO.N,TX_8*%
X57000000Y-59000000D02*
X57500000Y-59000000D01*
X57500000Y-59000000D02*
X58000000Y-59000000D01*
X58000000Y-59000000D02*
X58000000Y-58500000D01*
X58000000Y-58500000D02*
X58000000Y-58000000D01*
X58000000Y-58000000D02*
X58000000Y-57500000D01*
X58000000Y-57500000D02*
X58500000Y-57500000D01*
X58500000Y-57500000D02*
X59000000Y-57500000D01*
X59000000Y-57500000D02*
X59500000Y-57500000D01*
X59500000Y-57500000D02*
X60000000Y-57500000D01*
X60000000Y-57500000D02*
X60000000Y-57000000D01*
X60000000Y-57000000D02*
X60000000Y-56500000D01*
X60000000Y-56500000D02*
X60000000Y-56000000D01*
X60000000Y-56000000D02*
X60000000Y-55500000D01*
X60000000Y-55500000D02*
X60000000Y-55000000D01*
X60000000Y-55000000D02*
X60000000Y-54500000D01*
X60000000Y-54500000D02*
X60000000Y-54000000D01*
X60000000Y-54000000D02*
X59500000Y-54000000D01*
X59500000Y-54000000D02*
X59000000Y-54000000D01*
X59000000Y-54000000D02*
X58500000Y-54000000D01*
X58500000Y-54000000D02*
X58500000Y-53500000D01*
X58500000Y-53500000D02*
X58000000Y-53500000D01*
X58000000Y-53500000D02*
X58000000Y-53000000D01*
X58000000Y-53000000D02*
X58000000Y-52500000D01*
X58000000Y-52500000D02*
X58000000Y-52000000D01*
X58000000Y-52000000D02*
X58000000Y-51500000D01*
X58000000Y-51500000D02*
X58500000Y-51500000D01*
X58500000Y-51500000D02*
X58500000Y-51000000D01*
X58500000Y-51000000D02*
X58500000Y-50500000D01*
X58500000Y-50500000D02*
X58500000Y-50000000D01*
X58500000Y-50000000D02*
X58500000Y-49500000D01*
%TO.N,TX_9*%
X56000000Y-38000000D02*
X56500000Y-38000000D01*
X56500000Y-38000000D02*
X57000000Y-38000000D01*
X57000000Y-38000000D02*
X57000000Y-38500000D01*
X57000000Y-38500000D02*
X57000000Y-39000000D01*
X57000000Y-39000000D02*
X57000000Y-39500000D01*
X57000000Y-39500000D02*
X56500000Y-39500000D01*
X56500000Y-39500000D02*
X56500000Y-40000000D01*
X56500000Y-40000000D02*
X56500000Y-40500000D01*
X56500000Y-40500000D02*
X56000000Y-40500000D01*
X56000000Y-40500000D02*
X55500000Y-40500000D01*
X55500000Y-40500000D02*
X55500000Y-41000000D01*
X55500000Y-41000000D02*
X55500000Y-41500000D01*
X55500000Y-41500000D02*
X55500000Y-42000000D01*
X55500000Y-42000000D02*
X55500000Y-42500000D01*
X55500000Y-42500000D02*
X55500000Y-43000000D01*
X55500000Y-43000000D02*
X56000000Y-43000000D01*
X56000000Y-43000000D02*
X56500000Y-43000000D01*
X56500000Y-43000000D02*
X56500000Y-43500000D01*
X56500000Y-43500000D02*
X56500000Y-44000000D01*
X56500000Y-44000000D02*
X56500000Y-44500000D01*
X56500000Y-44500000D02*
X56500000Y-45000000D01*
X56500000Y-45000000D02*
X57000000Y-45000000D01*
X57000000Y-45000000D02*
X57000000Y-45500000D01*
X57000000Y-45500000D02*
X57000000Y-46000000D01*
X57000000Y-46000000D02*
X57000000Y-46500000D01*
X57000000Y-46500000D02*
X57500000Y-46500000D01*
X57500000Y-46500000D02*
X58000000Y-46500000D01*
X58000000Y-46500000D02*
X58500000Y-46500000D01*
%TO.N,TX_10*%
X58500000Y-56000000D02*
X58000000Y-56000000D01*
X58000000Y-56000000D02*
X57500000Y-56000000D01*
X57500000Y-56000000D02*
X57500000Y-55500000D01*
X57500000Y-55500000D02*
X57500000Y-55000000D01*
X57500000Y-55000000D02*
X57500000Y-54500000D01*
X57500000Y-54500000D02*
X57500000Y-54000000D01*
X57500000Y-54000000D02*
X57500000Y-53500000D01*
X57500000Y-53500000D02*
X57500000Y-53000000D01*
X57500000Y-53000000D02*
X57500000Y-52500000D01*
X57500000Y-52500000D02*
X57500000Y-52000000D01*
X57500000Y-52000000D02*
X57500000Y-51500000D01*
X57500000Y-51500000D02*
X57500000Y-51000000D01*
X57500000Y-51000000D02*
X57500000Y-50500000D01*
X57500000Y-50500000D02*
X57500000Y-50000000D01*
X57500000Y-50000000D02*
X57500000Y-49500000D01*
X57500000Y-49500000D02*
X57500000Y-49000000D01*
X57500000Y-49000000D02*
X58000000Y-49000000D01*
X58000000Y-49000000D02*
X58500000Y-49000000D01*
X58500000Y-49000000D02*
X58500000Y-48500000D01*
X58500000Y-48500000D02*
X58500000Y-48000000D01*
X58500000Y-48000000D02*
X58500000Y-47500000D01*
X58500000Y-47500000D02*
X59000000Y-47500000D01*
X59000000Y-47500000D02*
X59000000Y-47000000D01*
X59000000Y-47000000D02*
X59000000Y-46500000D01*
X59000000Y-46500000D02*
X59000000Y-46000000D01*
X59000000Y-46000000D02*
X59000000Y-45500000D01*
X59000000Y-45500000D02*
X59000000Y-45000000D01*
X59000000Y-45000000D02*
X58500000Y-45000000D01*
X58500000Y-45000000D02*
X58500000Y-44500000D01*
X58500000Y-44500000D02*
X58500000Y-44000000D01*
X58500000Y-44000000D02*
X58500000Y-43500000D01*
%TO.N,TX_11*%
X56500000Y-42000000D02*
X57000000Y-42000000D01*
X57000000Y-42000000D02*
X57500000Y-42000000D01*
X57500000Y-42000000D02*
X58000000Y-42000000D01*
X58000000Y-42000000D02*
X58500000Y-42000000D01*
X58500000Y-42000000D02*
X58500000Y-41500000D01*
X58500000Y-41500000D02*
X58500000Y-41000000D01*
X58500000Y-41000000D02*
X58500000Y-40500000D01*
%TO.N,TX_12*%
X59500000Y-58000000D02*
X60000000Y-58000000D01*
X60000000Y-58000000D02*
X60500000Y-58000000D01*
X60500000Y-58000000D02*
X60500000Y-57500000D01*
X60500000Y-57500000D02*
X60500000Y-57000000D01*
X60500000Y-57000000D02*
X60500000Y-56500000D01*
X60500000Y-56500000D02*
X60500000Y-56000000D01*
X60500000Y-56000000D02*
X60500000Y-55500000D01*
X60500000Y-55500000D02*
X60500000Y-55000000D01*
X60500000Y-55000000D02*
X61000000Y-55000000D01*
X61000000Y-55000000D02*
X61000000Y-54500000D01*
X61000000Y-54500000D02*
X61000000Y-54000000D01*
X61000000Y-54000000D02*
X61000000Y-53500000D01*
X61000000Y-53500000D02*
X61000000Y-53000000D01*
X61000000Y-53000000D02*
X61000000Y-52500000D01*
X61000000Y-52500000D02*
X61000000Y-52000000D01*
X61000000Y-52000000D02*
X61000000Y-51500000D01*
X61000000Y-51500000D02*
X61000000Y-51000000D01*
X61000000Y-51000000D02*
X61000000Y-50500000D01*
X61000000Y-50500000D02*
X60500000Y-50500000D01*
X60500000Y-50500000D02*
X60000000Y-50500000D01*
X60000000Y-50500000D02*
X60000000Y-50000000D01*
X60000000Y-50000000D02*
X60000000Y-49500000D01*
X60000000Y-49500000D02*
X60000000Y-49000000D01*
X60000000Y-49000000D02*
X60000000Y-48500000D01*
X60000000Y-48500000D02*
X60000000Y-48000000D01*
X60000000Y-48000000D02*
X60000000Y-47500000D01*
X60000000Y-47500000D02*
X60000000Y-47000000D01*
X60000000Y-47000000D02*
X60000000Y-46500000D01*
X60000000Y-46500000D02*
X60000000Y-46000000D01*
X60000000Y-46000000D02*
X60000000Y-45500000D01*
X60000000Y-45500000D02*
X60000000Y-45000000D01*
X60000000Y-45000000D02*
X60000000Y-44500000D01*
X60000000Y-44500000D02*
X60000000Y-44000000D01*
X60000000Y-44000000D02*
X60000000Y-43500000D01*
X60000000Y-43500000D02*
X60000000Y-43000000D01*
X60000000Y-43000000D02*
X60000000Y-42500000D01*
X60000000Y-42500000D02*
X60000000Y-42000000D01*
X60000000Y-42000000D02*
X60000000Y-41500000D01*
X60000000Y-41500000D02*
X60000000Y-41000000D01*
X60000000Y-41000000D02*
X60000000Y-40500000D01*
X60000000Y-40500000D02*
X60000000Y-40000000D01*
X60000000Y-40000000D02*
X60000000Y-39500000D01*
X60000000Y-39500000D02*
X60000000Y-39000000D01*
X60000000Y-39000000D02*
X59500000Y-39000000D01*
X59500000Y-39000000D02*
X59000000Y-39000000D01*
X59000000Y-39000000D02*
X58500000Y-39000000D01*
X58500000Y-39000000D02*
X58500000Y-38500000D01*
X58500000Y-38500000D02*
X58500000Y-38000000D01*
X58500000Y-38000000D02*
X58500000Y-37500000D01*
%TO.N,TX_13*%
X59500000Y-52500000D02*
X59500000Y-52000000D01*
X59500000Y-52000000D02*
X59500000Y-51500000D01*
X59500000Y-51500000D02*
X59000000Y-51500000D01*
X59000000Y-51500000D02*
X59000000Y-51000000D01*
X59000000Y-51000000D02*
X59000000Y-50500000D01*
X59000000Y-50500000D02*
X59000000Y-50000000D01*
X59000000Y-50000000D02*
X59000000Y-49500000D01*
X59000000Y-49500000D02*
X59000000Y-49000000D01*
X59000000Y-49000000D02*
X59000000Y-48500000D01*
X59000000Y-48500000D02*
X59000000Y-48000000D01*
X59000000Y-48000000D02*
X59500000Y-48000000D01*
X59500000Y-48000000D02*
X59500000Y-47500000D01*
X59500000Y-47500000D02*
X59500000Y-47000000D01*
X59500000Y-47000000D02*
X59500000Y-46500000D01*
X59500000Y-46500000D02*
X59500000Y-46000000D01*
X59500000Y-46000000D02*
X59500000Y-45500000D01*
X59500000Y-45500000D02*
X59500000Y-45000000D01*
X59500000Y-45000000D02*
X59500000Y-44500000D01*
X59500000Y-44500000D02*
X59500000Y-44000000D01*
X59500000Y-44000000D02*
X59500000Y-43500000D01*
X59500000Y-43500000D02*
X59500000Y-43000000D01*
X59500000Y-43000000D02*
X59500000Y-42500000D01*
X59500000Y-42500000D02*
X59500000Y-42000000D01*
X59500000Y-42000000D02*
X59500000Y-41500000D01*
X59500000Y-41500000D02*
X59500000Y-41000000D01*
X59500000Y-41000000D02*
X59000000Y-41000000D01*
X59000000Y-41000000D02*
X59000000Y-40500000D01*
X59000000Y-40500000D02*
X59000000Y-40000000D01*
X59000000Y-40000000D02*
X58500000Y-40000000D01*
X58500000Y-40000000D02*
X58000000Y-40000000D01*
X58000000Y-40000000D02*
X58000000Y-39500000D01*
X58000000Y-39500000D02*
X58000000Y-39000000D01*
X58000000Y-39000000D02*
X58000000Y-38500000D01*
X58000000Y-38500000D02*
X57500000Y-38500000D01*
X57500000Y-38500000D02*
X57500000Y-38000000D01*
X57500000Y-38000000D02*
X57500000Y-37500000D01*
X57500000Y-35500000D02*
X57500000Y-35000000D01*
X57500000Y-35000000D02*
X58000000Y-35000000D01*
X58000000Y-35000000D02*
X58500000Y-35000000D01*
%TO.N,TX_14*%
X54000000Y-60000000D02*
X54500000Y-60000000D01*
X54500000Y-60000000D02*
X54500000Y-59500000D01*
X54500000Y-59500000D02*
X54500000Y-59000000D01*
X54500000Y-59000000D02*
X54500000Y-58500000D01*
X54500000Y-58500000D02*
X54500000Y-58000000D01*
X54500000Y-58000000D02*
X54000000Y-58000000D01*
X54000000Y-58000000D02*
X54000000Y-57500000D01*
X54000000Y-57500000D02*
X54000000Y-57000000D01*
X54000000Y-57000000D02*
X54000000Y-56500000D01*
X54000000Y-56500000D02*
X54000000Y-56000000D01*
X54000000Y-56000000D02*
X54000000Y-55500000D01*
X54000000Y-55500000D02*
X54000000Y-55000000D01*
X54000000Y-55000000D02*
X54000000Y-54500000D01*
X54000000Y-54500000D02*
X54000000Y-54000000D01*
X54000000Y-54000000D02*
X54000000Y-53500000D01*
X54000000Y-53500000D02*
X54000000Y-53000000D01*
X54000000Y-53000000D02*
X53500000Y-53000000D01*
X53500000Y-53000000D02*
X53000000Y-53000000D01*
X53000000Y-53000000D02*
X53000000Y-52500000D01*
X53000000Y-52500000D02*
X53000000Y-52000000D01*
X53000000Y-52000000D02*
X53000000Y-51500000D01*
X53000000Y-51500000D02*
X53000000Y-51000000D01*
X53000000Y-51000000D02*
X53000000Y-50500000D01*
X53000000Y-50500000D02*
X53000000Y-50000000D01*
X53000000Y-50000000D02*
X53000000Y-49500000D01*
X53000000Y-49500000D02*
X53000000Y-49000000D01*
X53000000Y-49000000D02*
X53000000Y-48500000D01*
X53000000Y-48500000D02*
X53000000Y-48000000D01*
X53000000Y-48000000D02*
X53000000Y-47500000D01*
X53000000Y-47500000D02*
X53000000Y-47000000D01*
X53000000Y-47000000D02*
X53000000Y-46500000D01*
X53000000Y-46500000D02*
X53000000Y-46000000D01*
X53000000Y-46000000D02*
X53000000Y-45500000D01*
X53000000Y-45500000D02*
X53000000Y-45000000D01*
X53000000Y-45000000D02*
X53000000Y-44500000D01*
X53000000Y-44500000D02*
X53000000Y-44000000D01*
X53000000Y-44000000D02*
X53500000Y-44000000D01*
X53500000Y-44000000D02*
X53500000Y-43500000D01*
X53500000Y-43500000D02*
X53500000Y-43000000D01*
X53500000Y-43000000D02*
X53500000Y-42500000D01*
X53500000Y-42500000D02*
X53500000Y-42000000D01*
X53500000Y-42000000D02*
X53500000Y-41500000D01*
X53500000Y-41500000D02*
X53000000Y-41500000D01*
X53000000Y-41500000D02*
X53000000Y-41000000D01*
X53000000Y-41000000D02*
X53000000Y-40500000D01*
X53000000Y-40500000D02*
X53000000Y-40000000D01*
X53000000Y-40000000D02*
X53000000Y-39500000D01*
X53000000Y-39500000D02*
X53000000Y-39000000D01*
X53000000Y-39000000D02*
X53000000Y-38500000D01*
X53000000Y-38500000D02*
X53000000Y-38000000D01*
X53000000Y-38000000D02*
X53000000Y-37500000D01*
X53000000Y-37500000D02*
X53000000Y-37000000D01*
X53000000Y-37000000D02*
X53000000Y-36500000D01*
X53000000Y-36500000D02*
X53000000Y-36000000D01*
X53000000Y-36000000D02*
X53000000Y-35500000D01*
X53000000Y-35500000D02*
X53500000Y-35500000D01*
X53500000Y-35500000D02*
X54000000Y-35500000D01*
X54000000Y-35500000D02*
X54000000Y-35000000D01*
X54000000Y-35000000D02*
X54500000Y-35000000D01*
X54500000Y-35000000D02*
X55000000Y-35000000D01*
X55000000Y-35000000D02*
X55500000Y-35000000D01*
X55500000Y-35000000D02*
X56000000Y-35000000D01*
X56000000Y-35000000D02*
X56500000Y-35000000D01*
X56500000Y-35000000D02*
X57000000Y-35000000D01*
X57000000Y-35000000D02*
X57000000Y-34500000D01*
X57000000Y-34500000D02*
X57000000Y-34000000D01*
X57000000Y-34000000D02*
X57000000Y-33500000D01*
X57000000Y-33500000D02*
X57500000Y-33500000D01*
X57500000Y-33500000D02*
X57500000Y-33000000D01*
X57500000Y-33000000D02*
X57500000Y-32500000D01*
X57500000Y-32500000D02*
X58000000Y-32500000D01*
X58000000Y-32500000D02*
X58500000Y-32500000D01*
X58500000Y-32500000D02*
X58500000Y-32000000D01*
%TO.N,TX_15*%
X58000000Y-62500000D02*
X58500000Y-62500000D01*
X58500000Y-62500000D02*
X58500000Y-62000000D01*
X58500000Y-62000000D02*
X59000000Y-62000000D01*
X59000000Y-62000000D02*
X59000000Y-61500000D01*
X59000000Y-61500000D02*
X59000000Y-61000000D01*
X59000000Y-61000000D02*
X59500000Y-61000000D01*
X59500000Y-61000000D02*
X60000000Y-61000000D01*
X60000000Y-61000000D02*
X60000000Y-60500000D01*
X60000000Y-60500000D02*
X60000000Y-60000000D01*
X60000000Y-60000000D02*
X60000000Y-59500000D01*
X60000000Y-59500000D02*
X60000000Y-59000000D01*
X60000000Y-59000000D02*
X60500000Y-59000000D01*
X60500000Y-59000000D02*
X61000000Y-59000000D01*
X61000000Y-59000000D02*
X61000000Y-58500000D01*
X61000000Y-58500000D02*
X61000000Y-58000000D01*
X61000000Y-58000000D02*
X61000000Y-57500000D01*
X61000000Y-57500000D02*
X61000000Y-57000000D01*
X61000000Y-57000000D02*
X61000000Y-56500000D01*
X61000000Y-56500000D02*
X61000000Y-56000000D01*
X61000000Y-56000000D02*
X61000000Y-55500000D01*
X61000000Y-55500000D02*
X61500000Y-55500000D01*
X61500000Y-55500000D02*
X62000000Y-55500000D01*
X62000000Y-55500000D02*
X62000000Y-55000000D01*
X62000000Y-55000000D02*
X62500000Y-55000000D01*
X62500000Y-55000000D02*
X62500000Y-54500000D01*
X62500000Y-54500000D02*
X62500000Y-54000000D01*
X62500000Y-54000000D02*
X63000000Y-54000000D01*
X63000000Y-54000000D02*
X63000000Y-53500000D01*
X63000000Y-53500000D02*
X63500000Y-53500000D01*
X63500000Y-53500000D02*
X63500000Y-53000000D01*
X63500000Y-53000000D02*
X63500000Y-52500000D01*
X63500000Y-52500000D02*
X64000000Y-52500000D01*
X64000000Y-52500000D02*
X64000000Y-52000000D01*
X64000000Y-52000000D02*
X64000000Y-51500000D01*
X64000000Y-51500000D02*
X64000000Y-51000000D01*
X64000000Y-51000000D02*
X64000000Y-50500000D01*
X64000000Y-50500000D02*
X64000000Y-50000000D01*
X64000000Y-50000000D02*
X64000000Y-49500000D01*
X64000000Y-49500000D02*
X64000000Y-49000000D01*
X64000000Y-49000000D02*
X64000000Y-48500000D01*
X64000000Y-48500000D02*
X64000000Y-48000000D01*
X64000000Y-48000000D02*
X64000000Y-47500000D01*
X64000000Y-47500000D02*
X64000000Y-47000000D01*
X64000000Y-47000000D02*
X64000000Y-46500000D01*
X64000000Y-46500000D02*
X64000000Y-46000000D01*
X64000000Y-46000000D02*
X64000000Y-45500000D01*
X64000000Y-45500000D02*
X64000000Y-45000000D01*
X64000000Y-45000000D02*
X64500000Y-45000000D01*
X64500000Y-45000000D02*
X64500000Y-44500000D01*
X64500000Y-44500000D02*
X65000000Y-44500000D01*
X65000000Y-44500000D02*
X65000000Y-44000000D01*
X65000000Y-44000000D02*
X65000000Y-43500000D01*
X65000000Y-43500000D02*
X65000000Y-43000000D01*
X65000000Y-43000000D02*
X65000000Y-42500000D01*
X65000000Y-42500000D02*
X65000000Y-42000000D01*
X65000000Y-42000000D02*
X65000000Y-41500000D01*
X65000000Y-41500000D02*
X65000000Y-41000000D01*
X65000000Y-41000000D02*
X65000000Y-40500000D01*
X65000000Y-40500000D02*
X64500000Y-40500000D01*
X64500000Y-40500000D02*
X64000000Y-40500000D01*
X64000000Y-40500000D02*
X63500000Y-40500000D01*
X63500000Y-40500000D02*
X63500000Y-40000000D01*
X63500000Y-40000000D02*
X63500000Y-39500000D01*
X63500000Y-39500000D02*
X63500000Y-39000000D01*
X63500000Y-39000000D02*
X63500000Y-38500000D01*
X63500000Y-38500000D02*
X63500000Y-38000000D01*
X63500000Y-38000000D02*
X63500000Y-37500000D01*
X63500000Y-37500000D02*
X63500000Y-37000000D01*
X63500000Y-37000000D02*
X63500000Y-36500000D01*
X63500000Y-36500000D02*
X63500000Y-36000000D01*
X63500000Y-36000000D02*
X63500000Y-35500000D01*
X63500000Y-35500000D02*
X63500000Y-35000000D01*
X63500000Y-35000000D02*
X63500000Y-34500000D01*
X63500000Y-34500000D02*
X63500000Y-34000000D01*
X63500000Y-34000000D02*
X63500000Y-33500000D01*
X63500000Y-33500000D02*
X63500000Y-33000000D01*
X63500000Y-33000000D02*
X63500000Y-32500000D01*
X63500000Y-32500000D02*
X63500000Y-32000000D01*
X63500000Y-32000000D02*
X63500000Y-31500000D01*
X63500000Y-31500000D02*
X63500000Y-31000000D01*
X63500000Y-31000000D02*
X63500000Y-30500000D01*
X63500000Y-30500000D02*
X63500000Y-30000000D01*
X63500000Y-30000000D02*
X63500000Y-29500000D01*
X63500000Y-29500000D02*
X63000000Y-29500000D01*
X63000000Y-29500000D02*
X62500000Y-29500000D01*
X62500000Y-29500000D02*
X62000000Y-29500000D01*
X62000000Y-29500000D02*
X61500000Y-29500000D01*
X61500000Y-29500000D02*
X61000000Y-29500000D01*
X61000000Y-29500000D02*
X60500000Y-29500000D01*
X60500000Y-29500000D02*
X60500000Y-29000000D01*
X60500000Y-29000000D02*
X60000000Y-29000000D01*
X60000000Y-29000000D02*
X59500000Y-29000000D01*
X59500000Y-29000000D02*
X59000000Y-29000000D01*
X59000000Y-29000000D02*
X58500000Y-29000000D01*
%TD*%
M02*
