%TF.GenerationSoftware,KiCad,Pcbnew,10.0.3*%
%TF.CreationDate,2026-06-20T14:23:36-04:00*%
%TF.ProjectId,hv7355_tile,68763733-3535-45f7-9469-6c652e6b6963,rev?*%
%TF.SameCoordinates,Original*%
%TF.FileFunction,Copper,L2,Inr*%
%TF.FilePolarity,Positive*%
%FSLAX46Y46*%
G04 Gerber Fmt 4.6, Leading zero omitted, Abs format (unit mm)*
G04 Created by KiCad (PCBNEW 10.0.3) date 2026-06-20 14:23:36*
%MOMM*%
%LPD*%
G01*
G04 APERTURE LIST*
%TA.AperFunction,ViaPad*%
%ADD10C,0.460000*%
%TD*%
%TA.AperFunction,Conductor*%
%ADD11C,0.250000*%
%TD*%
%TA.AperFunction,Conductor*%
%ADD12C,0.150000*%
%TD*%
G04 APERTURE END LIST*
D10*
%TO.N,VPP*%
X53000000Y-43000000D03*
X61500000Y-43000000D03*
%TO.N,GND*%
X67500000Y-36000000D03*
X38000000Y-39500000D03*
X41500000Y-41000000D03*
X40500000Y-51500000D03*
X49500000Y-53000000D03*
%TO.N,P3V3*%
X71500000Y-40500000D03*
X47500000Y-53500000D03*
X49500000Y-54500000D03*
%TO.N,TRIGIN_0*%
X20500000Y-39500000D03*
X16000000Y-43500000D03*
%TO.N,TRIGIN_1*%
X23000000Y-38000000D03*
X19000000Y-43500000D03*
%TO.N,TRIGIN_2*%
X24500000Y-37500000D03*
X22500000Y-43500000D03*
%TO.N,TRIGIN_3*%
X26000000Y-37500000D03*
X25500000Y-43500000D03*
%TO.N,TRIGIN_4*%
X29000000Y-39000000D03*
X29000000Y-43500000D03*
%TO.N,TRIGIN_5*%
X29000000Y-37500000D03*
X30000000Y-40000000D03*
X32000000Y-43500000D03*
%TO.N,TRIGIN_6*%
X30000000Y-37000000D03*
X35000000Y-43500000D03*
%TO.N,TRIGIN_7*%
X31000000Y-37000000D03*
X33500000Y-40000000D03*
X37500000Y-44500000D03*
%TO.N,TRIGIN_9*%
X34500000Y-48000000D03*
X39500000Y-48000000D03*
%TO.N,TRIGIN_10*%
X40000000Y-47500000D03*
X31000000Y-48000000D03*
%TO.N,TRIGIN_11*%
X41000000Y-47500000D03*
X28000000Y-48000000D03*
%TO.N,TRIGIN_12*%
X24500000Y-48000000D03*
X44500000Y-49500000D03*
%TO.N,TRIGIN_13*%
X21500000Y-48000000D03*
X44500000Y-48000000D03*
%TO.N,TRIGIN_14*%
X45000000Y-47500000D03*
X18000000Y-48000000D03*
%TO.N,TRIGIN_15*%
X46500000Y-47500000D03*
X15000000Y-48000000D03*
%TO.N,TRIG_0*%
X27000000Y-37500000D03*
X36000000Y-39000000D03*
%TO.N,TRIG_1*%
X27500000Y-38500000D03*
X34500000Y-39000000D03*
%TO.N,TRIG_2*%
X33500000Y-37500000D03*
X34500000Y-38000000D03*
X27500000Y-40000000D03*
%TO.N,TRIG_3*%
X34500000Y-36500000D03*
X27500000Y-41000000D03*
%TO.N,TRIG_6*%
X34500000Y-32000000D03*
X32500000Y-39500000D03*
%TO.N,TRIG_7*%
X36000000Y-32000000D03*
X32500000Y-40500000D03*
%TO.N,TRIG_8*%
X42500000Y-47500000D03*
X49000000Y-51500000D03*
X49500000Y-51500000D03*
%TO.N,TRIG_9*%
X42500000Y-48500000D03*
X49500000Y-50000000D03*
%TO.N,TRIG_10*%
X42500000Y-49500000D03*
X50500000Y-49500000D03*
%TO.N,TRIG_11*%
X42500000Y-51000000D03*
X52000000Y-51500000D03*
%TO.N,TRIG_12*%
X47500000Y-47500000D03*
X53500000Y-49500000D03*
%TO.N,TRIG_13*%
X47500000Y-48500000D03*
X55000000Y-49500000D03*
%TO.N,TRIG_14*%
X56500000Y-49500000D03*
X47500000Y-50000000D03*
%TO.N,TRIG_15*%
X47500000Y-51000000D03*
X56500000Y-51000000D03*
%TO.N,OUT_2*%
X40500000Y-29000000D03*
X40500000Y-30000000D03*
%TO.N,OUT_5*%
X56000000Y-34500000D03*
X57000000Y-37000000D03*
%TO.N,OUT_6*%
X52500000Y-36000000D03*
X53500000Y-36000000D03*
X63000000Y-40000000D03*
X64000000Y-40000000D03*
%TO.N,OUT_7*%
X53000000Y-42500000D03*
X54500000Y-42500000D03*
%TO.N,OUT_8*%
X56000000Y-54000000D03*
X56000000Y-55000000D03*
%TO.N,OUT_11*%
X56500000Y-41000000D03*
X56500000Y-56500000D03*
%TO.N,OUT_13*%
X58500000Y-53000000D03*
X53500000Y-53500000D03*
%TO.N,TX_0*%
X61500000Y-30500000D03*
X60000000Y-31000000D03*
%TO.N,TX_2*%
X63000000Y-36000000D03*
X64000000Y-36000000D03*
%TO.N,TX_4*%
X52500000Y-38500000D03*
X53500000Y-38500000D03*
%TO.N,TX_6*%
X63000000Y-48000000D03*
X64500000Y-48000000D03*
%TO.N,TX_7*%
X58000000Y-48500000D03*
X60500000Y-48500000D03*
%TO.N,TX_13*%
X57500000Y-35500000D03*
X57500000Y-37500000D03*
%TD*%
%TO.N,VPP*%
D11*
X53000000Y-43000000D02*
X53500000Y-43000000D01*
X53500000Y-43000000D02*
X54000000Y-43000000D01*
X54000000Y-43000000D02*
X54500000Y-43000000D01*
X54500000Y-43000000D02*
X55000000Y-43000000D01*
X55000000Y-43000000D02*
X55500000Y-43000000D01*
X55500000Y-43000000D02*
X56000000Y-43000000D01*
X56000000Y-43000000D02*
X56500000Y-43000000D01*
X56500000Y-43000000D02*
X57000000Y-43000000D01*
X57000000Y-43000000D02*
X57500000Y-43000000D01*
X57500000Y-43000000D02*
X58000000Y-43000000D01*
X58000000Y-43000000D02*
X58500000Y-43000000D01*
X58500000Y-43000000D02*
X59000000Y-43000000D01*
X59000000Y-43000000D02*
X59500000Y-43000000D01*
X59500000Y-43000000D02*
X60000000Y-43000000D01*
X60000000Y-43000000D02*
X60500000Y-43000000D01*
X60500000Y-43000000D02*
X61000000Y-43000000D01*
X61000000Y-43000000D02*
X61500000Y-43000000D01*
%TO.N,GND*%
X38000000Y-39500000D02*
X38500000Y-39500000D01*
X38500000Y-39500000D02*
X39000000Y-39500000D01*
X39000000Y-39500000D02*
X39500000Y-39500000D01*
X39500000Y-39500000D02*
X40000000Y-39500000D01*
X40000000Y-39500000D02*
X40500000Y-39500000D01*
X40500000Y-39500000D02*
X41000000Y-39500000D01*
X41000000Y-39500000D02*
X41500000Y-39500000D01*
X41500000Y-39500000D02*
X41500000Y-40000000D01*
X41500000Y-40000000D02*
X41500000Y-40500000D01*
X41500000Y-40500000D02*
X41500000Y-41000000D01*
X40500000Y-51500000D02*
X40500000Y-52000000D01*
X40500000Y-52000000D02*
X41000000Y-52000000D01*
X41000000Y-52000000D02*
X41500000Y-52000000D01*
X41500000Y-52000000D02*
X42000000Y-52000000D01*
X42000000Y-52000000D02*
X42000000Y-52500000D01*
X42000000Y-52500000D02*
X42500000Y-52500000D01*
X42500000Y-52500000D02*
X43000000Y-52500000D01*
X43000000Y-52500000D02*
X43500000Y-52500000D01*
X43500000Y-52500000D02*
X43500000Y-53000000D01*
X43500000Y-53000000D02*
X44000000Y-53000000D01*
X44000000Y-53000000D02*
X44500000Y-53000000D01*
X44500000Y-53000000D02*
X45000000Y-53000000D01*
X45000000Y-53000000D02*
X45500000Y-53000000D01*
X45500000Y-53000000D02*
X46000000Y-53000000D01*
X46000000Y-53000000D02*
X46500000Y-53000000D01*
X46500000Y-53000000D02*
X47000000Y-53000000D01*
X47000000Y-53000000D02*
X47500000Y-53000000D01*
X47500000Y-53000000D02*
X48000000Y-53000000D01*
X48000000Y-53000000D02*
X48500000Y-53000000D01*
X48500000Y-53000000D02*
X49000000Y-53000000D01*
X49000000Y-53000000D02*
X49500000Y-53000000D01*
X41500000Y-39500000D02*
X42000000Y-39500000D01*
X42000000Y-39500000D02*
X42500000Y-39500000D01*
X42500000Y-39500000D02*
X43000000Y-39500000D01*
X43000000Y-39500000D02*
X43500000Y-39500000D01*
X43500000Y-39500000D02*
X44000000Y-39500000D01*
X44000000Y-39500000D02*
X44500000Y-39500000D01*
X44500000Y-39500000D02*
X45000000Y-39500000D01*
X45000000Y-39500000D02*
X45500000Y-39500000D01*
X45500000Y-39500000D02*
X46000000Y-39500000D01*
X46000000Y-39500000D02*
X46500000Y-39500000D01*
X46500000Y-39500000D02*
X47000000Y-39500000D01*
X47000000Y-39500000D02*
X47500000Y-39500000D01*
X47500000Y-39500000D02*
X48000000Y-39500000D01*
X48000000Y-39500000D02*
X48500000Y-39500000D01*
X48500000Y-39500000D02*
X49000000Y-39500000D01*
X49000000Y-39500000D02*
X49500000Y-39500000D01*
X49500000Y-39500000D02*
X50000000Y-39500000D01*
X50000000Y-39500000D02*
X50500000Y-39500000D01*
X50500000Y-39500000D02*
X51000000Y-39500000D01*
X51000000Y-39500000D02*
X51500000Y-39500000D01*
X51500000Y-39500000D02*
X52000000Y-39500000D01*
X52000000Y-39500000D02*
X52500000Y-39500000D01*
X52500000Y-39500000D02*
X53000000Y-39500000D01*
X53000000Y-39500000D02*
X53500000Y-39500000D01*
X53500000Y-39500000D02*
X54000000Y-39500000D01*
X54000000Y-39500000D02*
X54500000Y-39500000D01*
X54500000Y-39500000D02*
X55000000Y-39500000D01*
X55000000Y-39500000D02*
X55500000Y-39500000D01*
X55500000Y-39500000D02*
X56000000Y-39500000D01*
X56000000Y-39500000D02*
X56500000Y-39500000D01*
X56500000Y-39500000D02*
X57000000Y-39500000D01*
X57000000Y-39500000D02*
X57500000Y-39500000D01*
X57500000Y-39500000D02*
X58000000Y-39500000D01*
X58000000Y-39500000D02*
X58500000Y-39500000D01*
X58500000Y-39500000D02*
X59000000Y-39500000D01*
X59000000Y-39500000D02*
X59500000Y-39500000D01*
X59500000Y-39500000D02*
X60000000Y-39500000D01*
X60000000Y-39500000D02*
X60500000Y-39500000D01*
X60500000Y-39500000D02*
X61000000Y-39500000D01*
X61000000Y-39500000D02*
X61500000Y-39500000D01*
X61500000Y-39500000D02*
X62000000Y-39500000D01*
X62000000Y-39500000D02*
X62500000Y-39500000D01*
X62500000Y-39500000D02*
X63000000Y-39500000D01*
X63000000Y-39500000D02*
X63500000Y-39500000D01*
X63500000Y-39500000D02*
X64000000Y-39500000D01*
X64000000Y-39500000D02*
X64500000Y-39500000D01*
X64500000Y-39500000D02*
X65000000Y-39500000D01*
X65000000Y-39500000D02*
X65500000Y-39500000D01*
X65500000Y-39500000D02*
X65500000Y-39000000D01*
X65500000Y-39000000D02*
X66000000Y-39000000D01*
X66000000Y-39000000D02*
X66000000Y-38500000D01*
X66000000Y-38500000D02*
X66000000Y-38000000D01*
X66000000Y-38000000D02*
X66000000Y-37500000D01*
X66000000Y-37500000D02*
X66500000Y-37500000D01*
X66500000Y-37500000D02*
X66500000Y-37000000D01*
X66500000Y-37000000D02*
X67000000Y-37000000D01*
X67000000Y-37000000D02*
X67000000Y-36500000D01*
X67000000Y-36500000D02*
X67500000Y-36500000D01*
X67500000Y-36500000D02*
X67500000Y-36000000D01*
%TO.N,P3V3*%
X47500000Y-53500000D02*
X48000000Y-53500000D01*
X48000000Y-53500000D02*
X48500000Y-53500000D01*
X48500000Y-53500000D02*
X48500000Y-54000000D01*
X48500000Y-54000000D02*
X49000000Y-54000000D01*
X49000000Y-54000000D02*
X49500000Y-54000000D01*
X49500000Y-54000000D02*
X49500000Y-54500000D01*
X49500000Y-54000000D02*
X50000000Y-54000000D01*
X50000000Y-54000000D02*
X50500000Y-54000000D01*
X50500000Y-54000000D02*
X51000000Y-54000000D01*
X51000000Y-54000000D02*
X51500000Y-54000000D01*
X51500000Y-54000000D02*
X52000000Y-54000000D01*
X52000000Y-54000000D02*
X52000000Y-53500000D01*
X52000000Y-53500000D02*
X52000000Y-53000000D01*
X52000000Y-53000000D02*
X52500000Y-53000000D01*
X52500000Y-53000000D02*
X53000000Y-53000000D01*
X53000000Y-53000000D02*
X53500000Y-53000000D01*
X53500000Y-53000000D02*
X54000000Y-53000000D01*
X54000000Y-53000000D02*
X54500000Y-53000000D01*
X54500000Y-53000000D02*
X55000000Y-53000000D01*
X55000000Y-53000000D02*
X55500000Y-53000000D01*
X55500000Y-53000000D02*
X55500000Y-52500000D01*
X55500000Y-52500000D02*
X56000000Y-52500000D01*
X56000000Y-52500000D02*
X56000000Y-52000000D01*
X56000000Y-52000000D02*
X56500000Y-52000000D01*
X56500000Y-52000000D02*
X57000000Y-52000000D01*
X57000000Y-52000000D02*
X57500000Y-52000000D01*
X57500000Y-52000000D02*
X58000000Y-52000000D01*
X58000000Y-52000000D02*
X58000000Y-51500000D01*
X58000000Y-51500000D02*
X58500000Y-51500000D01*
X58500000Y-51500000D02*
X59000000Y-51500000D01*
X59000000Y-51500000D02*
X59500000Y-51500000D01*
X59500000Y-51500000D02*
X60000000Y-51500000D01*
X60000000Y-51500000D02*
X60500000Y-51500000D01*
X60500000Y-51500000D02*
X60500000Y-51000000D01*
X60500000Y-51000000D02*
X61000000Y-51000000D01*
X61000000Y-51000000D02*
X61500000Y-51000000D01*
X61500000Y-51000000D02*
X62000000Y-51000000D01*
X62000000Y-51000000D02*
X62500000Y-51000000D01*
X62500000Y-51000000D02*
X63000000Y-51000000D01*
X63000000Y-51000000D02*
X63500000Y-51000000D01*
X63500000Y-51000000D02*
X63500000Y-50500000D01*
X63500000Y-50500000D02*
X64000000Y-50500000D01*
X64000000Y-50500000D02*
X64000000Y-50000000D01*
X64000000Y-50000000D02*
X64000000Y-49500000D01*
X64000000Y-49500000D02*
X64000000Y-49000000D01*
X64000000Y-49000000D02*
X64500000Y-49000000D01*
X64500000Y-49000000D02*
X64500000Y-48500000D01*
X64500000Y-48500000D02*
X65000000Y-48500000D01*
X65000000Y-48500000D02*
X65000000Y-48000000D01*
X65000000Y-48000000D02*
X65000000Y-47500000D01*
X65000000Y-47500000D02*
X65000000Y-47000000D01*
X65000000Y-47000000D02*
X65500000Y-47000000D01*
X65500000Y-47000000D02*
X66000000Y-47000000D01*
X66000000Y-47000000D02*
X66000000Y-46500000D01*
X66000000Y-46500000D02*
X66000000Y-46000000D01*
X66000000Y-46000000D02*
X66500000Y-46000000D01*
X66500000Y-46000000D02*
X66500000Y-45500000D01*
X66500000Y-45500000D02*
X66500000Y-45000000D01*
X66500000Y-45000000D02*
X66500000Y-44500000D01*
X66500000Y-44500000D02*
X67000000Y-44500000D01*
X67000000Y-44500000D02*
X67500000Y-44500000D01*
X67500000Y-44500000D02*
X68000000Y-44500000D01*
X68000000Y-44500000D02*
X68000000Y-44000000D01*
X68000000Y-44000000D02*
X68500000Y-44000000D01*
X68500000Y-44000000D02*
X68500000Y-43500000D01*
X68500000Y-43500000D02*
X69000000Y-43500000D01*
X69000000Y-43500000D02*
X69000000Y-43000000D01*
X69000000Y-43000000D02*
X69500000Y-43000000D01*
X69500000Y-43000000D02*
X69500000Y-42500000D01*
X69500000Y-42500000D02*
X70000000Y-42500000D01*
X70000000Y-42500000D02*
X70500000Y-42500000D01*
X70500000Y-42500000D02*
X71000000Y-42500000D01*
X71000000Y-42500000D02*
X71500000Y-42500000D01*
X71500000Y-42500000D02*
X71500000Y-42000000D01*
X71500000Y-42000000D02*
X71500000Y-41500000D01*
X71500000Y-41500000D02*
X71500000Y-41000000D01*
X71500000Y-41000000D02*
X71500000Y-40500000D01*
%TO.N,TRIGIN_0*%
D12*
X20500000Y-39500000D02*
X20000000Y-39500000D01*
X20000000Y-39500000D02*
X19500000Y-39500000D01*
X19500000Y-39500000D02*
X19500000Y-40000000D01*
X19500000Y-40000000D02*
X19000000Y-40000000D01*
X19000000Y-40000000D02*
X19000000Y-40500000D01*
X19000000Y-40500000D02*
X18500000Y-40500000D01*
X18500000Y-40500000D02*
X18500000Y-41000000D01*
X18500000Y-41000000D02*
X18500000Y-41500000D01*
X18500000Y-41500000D02*
X18000000Y-41500000D01*
X18000000Y-41500000D02*
X18000000Y-42000000D01*
X18000000Y-42000000D02*
X18000000Y-42500000D01*
X18000000Y-42500000D02*
X17500000Y-42500000D01*
X17500000Y-42500000D02*
X17000000Y-42500000D01*
X17000000Y-42500000D02*
X17000000Y-43000000D01*
X17000000Y-43000000D02*
X16500000Y-43000000D01*
X16500000Y-43000000D02*
X16000000Y-43000000D01*
X16000000Y-43000000D02*
X16000000Y-43500000D01*
%TO.N,TRIGIN_1*%
X23000000Y-38000000D02*
X22500000Y-38000000D01*
X22500000Y-38000000D02*
X22000000Y-38000000D01*
X22000000Y-38000000D02*
X21500000Y-38000000D01*
X21500000Y-38000000D02*
X21500000Y-38500000D01*
X21500000Y-38500000D02*
X21500000Y-39000000D01*
X21500000Y-39000000D02*
X21500000Y-39500000D01*
X21500000Y-39500000D02*
X21000000Y-39500000D01*
X21000000Y-39500000D02*
X21000000Y-40000000D01*
X21000000Y-40000000D02*
X21000000Y-40500000D01*
X21000000Y-40500000D02*
X21000000Y-41000000D01*
X21000000Y-41000000D02*
X21000000Y-41500000D01*
X21000000Y-41500000D02*
X20500000Y-41500000D01*
X20500000Y-41500000D02*
X20500000Y-42000000D01*
X20500000Y-42000000D02*
X20000000Y-42000000D01*
X20000000Y-42000000D02*
X20000000Y-42500000D01*
X20000000Y-42500000D02*
X20000000Y-43000000D01*
X20000000Y-43000000D02*
X19500000Y-43000000D01*
X19500000Y-43000000D02*
X19500000Y-43500000D01*
X19500000Y-43500000D02*
X19000000Y-43500000D01*
%TO.N,TRIGIN_2*%
X24500000Y-37500000D02*
X24000000Y-37500000D01*
X24000000Y-37500000D02*
X23500000Y-37500000D01*
X23500000Y-37500000D02*
X23500000Y-38000000D01*
X23500000Y-38000000D02*
X23500000Y-38500000D01*
X23500000Y-38500000D02*
X23500000Y-39000000D01*
X23500000Y-39000000D02*
X23500000Y-39500000D01*
X23500000Y-39500000D02*
X23500000Y-40000000D01*
X23500000Y-40000000D02*
X23500000Y-40500000D01*
X23500000Y-40500000D02*
X23500000Y-41000000D01*
X23500000Y-41000000D02*
X23500000Y-41500000D01*
X23500000Y-41500000D02*
X23500000Y-42000000D01*
X23500000Y-42000000D02*
X23500000Y-42500000D01*
X23500000Y-42500000D02*
X23000000Y-42500000D01*
X23000000Y-42500000D02*
X22500000Y-42500000D01*
X22500000Y-42500000D02*
X22500000Y-43000000D01*
X22500000Y-43000000D02*
X22500000Y-43500000D01*
%TO.N,TRIGIN_3*%
X26000000Y-37500000D02*
X26000000Y-38000000D01*
X26000000Y-38000000D02*
X26000000Y-38500000D01*
X26000000Y-38500000D02*
X26000000Y-39000000D01*
X26000000Y-39000000D02*
X26000000Y-39500000D01*
X26000000Y-39500000D02*
X26000000Y-40000000D01*
X26000000Y-40000000D02*
X26000000Y-40500000D01*
X26000000Y-40500000D02*
X26000000Y-41000000D01*
X26000000Y-41000000D02*
X26000000Y-41500000D01*
X26000000Y-41500000D02*
X26000000Y-42000000D01*
X26000000Y-42000000D02*
X26000000Y-42500000D01*
X26000000Y-42500000D02*
X26000000Y-43000000D01*
X26000000Y-43000000D02*
X26000000Y-43500000D01*
X26000000Y-43500000D02*
X25500000Y-43500000D01*
%TO.N,TRIGIN_4*%
X29000000Y-39000000D02*
X29000000Y-39500000D01*
X29000000Y-39500000D02*
X28500000Y-39500000D01*
X28500000Y-39500000D02*
X28500000Y-40000000D01*
X28500000Y-40000000D02*
X28500000Y-40500000D01*
X28500000Y-40500000D02*
X28500000Y-41000000D01*
X28500000Y-41000000D02*
X28500000Y-41500000D01*
X28500000Y-41500000D02*
X28500000Y-42000000D01*
X28500000Y-42000000D02*
X28500000Y-42500000D01*
X28500000Y-42500000D02*
X28500000Y-43000000D01*
X28500000Y-43000000D02*
X29000000Y-43000000D01*
X29000000Y-43000000D02*
X29000000Y-43500000D01*
%TO.N,TRIGIN_5*%
X29000000Y-37500000D02*
X29000000Y-38000000D01*
X29000000Y-38000000D02*
X29500000Y-38000000D01*
X29500000Y-38000000D02*
X30000000Y-38000000D01*
X30000000Y-38000000D02*
X30000000Y-38500000D01*
X30000000Y-38500000D02*
X30000000Y-39000000D01*
X30000000Y-39000000D02*
X30000000Y-39500000D01*
X30000000Y-39500000D02*
X30000000Y-40000000D01*
%TO.N,TRIGIN_6*%
X30000000Y-37000000D02*
X30500000Y-37000000D01*
X30500000Y-37000000D02*
X30500000Y-37500000D01*
X30500000Y-37500000D02*
X30500000Y-38000000D01*
X30500000Y-38000000D02*
X30500000Y-38500000D01*
X30500000Y-38500000D02*
X30500000Y-39000000D01*
X30500000Y-39000000D02*
X30500000Y-39500000D01*
X30500000Y-39500000D02*
X30500000Y-40000000D01*
X30500000Y-40000000D02*
X30500000Y-40500000D01*
X30500000Y-40500000D02*
X30000000Y-40500000D01*
X30000000Y-40500000D02*
X30000000Y-41000000D01*
X30000000Y-41000000D02*
X30000000Y-41500000D01*
X30000000Y-41500000D02*
X30000000Y-42000000D01*
X30000000Y-42000000D02*
X30500000Y-42000000D01*
X30500000Y-42000000D02*
X31000000Y-42000000D01*
X31000000Y-42000000D02*
X31500000Y-42000000D01*
X31500000Y-42000000D02*
X32000000Y-42000000D01*
X32000000Y-42000000D02*
X32500000Y-42000000D01*
X32500000Y-42000000D02*
X33000000Y-42000000D01*
X33000000Y-42000000D02*
X33500000Y-42000000D01*
X33500000Y-42000000D02*
X34000000Y-42000000D01*
X34000000Y-42000000D02*
X34500000Y-42000000D01*
X34500000Y-42000000D02*
X35000000Y-42000000D01*
X35000000Y-42000000D02*
X35000000Y-42500000D01*
X35000000Y-42500000D02*
X35000000Y-43000000D01*
X35000000Y-43000000D02*
X35000000Y-43500000D01*
%TO.N,TRIGIN_7*%
X31000000Y-37000000D02*
X31000000Y-37500000D01*
X31000000Y-37500000D02*
X31000000Y-38000000D01*
X31000000Y-38000000D02*
X31500000Y-38000000D01*
X31500000Y-38000000D02*
X31500000Y-38500000D01*
X31500000Y-38500000D02*
X31500000Y-39000000D01*
X31500000Y-39000000D02*
X31500000Y-39500000D01*
X31500000Y-39500000D02*
X31500000Y-40000000D01*
X31500000Y-40000000D02*
X32000000Y-40000000D01*
X32000000Y-40000000D02*
X32500000Y-40000000D01*
X32500000Y-40000000D02*
X33000000Y-40000000D01*
X33000000Y-40000000D02*
X33500000Y-40000000D01*
%TO.N,TRIGIN_9*%
X39500000Y-48000000D02*
X39000000Y-48000000D01*
X39000000Y-48000000D02*
X38500000Y-48000000D01*
X38500000Y-48000000D02*
X38000000Y-48000000D01*
X38000000Y-48000000D02*
X38000000Y-48500000D01*
X38000000Y-48500000D02*
X37500000Y-48500000D01*
X37500000Y-48500000D02*
X37000000Y-48500000D01*
X37000000Y-48500000D02*
X36500000Y-48500000D01*
X36500000Y-48500000D02*
X36000000Y-48500000D01*
X36000000Y-48500000D02*
X35500000Y-48500000D01*
X35500000Y-48500000D02*
X35000000Y-48500000D01*
X35000000Y-48500000D02*
X34500000Y-48500000D01*
X34500000Y-48500000D02*
X34500000Y-48000000D01*
%TO.N,TRIGIN_10*%
X40000000Y-47500000D02*
X40000000Y-47000000D01*
X40000000Y-47000000D02*
X39500000Y-47000000D01*
X39500000Y-47000000D02*
X39000000Y-47000000D01*
X39000000Y-47000000D02*
X38500000Y-47000000D01*
X38500000Y-47000000D02*
X38000000Y-47000000D01*
X38000000Y-47000000D02*
X37500000Y-47000000D01*
X37500000Y-47000000D02*
X37000000Y-47000000D01*
X37000000Y-47000000D02*
X36500000Y-47000000D01*
X36500000Y-47000000D02*
X36000000Y-47000000D01*
X36000000Y-47000000D02*
X35500000Y-47000000D01*
X35500000Y-47000000D02*
X35000000Y-47000000D01*
X35000000Y-47000000D02*
X34500000Y-47000000D01*
X34500000Y-47000000D02*
X34000000Y-47000000D01*
X34000000Y-47000000D02*
X33500000Y-47000000D01*
X33500000Y-47000000D02*
X33000000Y-47000000D01*
X33000000Y-47000000D02*
X32500000Y-47000000D01*
X32500000Y-47000000D02*
X32000000Y-47000000D01*
X32000000Y-47000000D02*
X31500000Y-47000000D01*
X31500000Y-47000000D02*
X31000000Y-47000000D01*
X31000000Y-47000000D02*
X31000000Y-47500000D01*
X31000000Y-47500000D02*
X31000000Y-48000000D01*
%TO.N,TRIGIN_11*%
X41000000Y-47500000D02*
X40500000Y-47500000D01*
X40500000Y-47500000D02*
X40500000Y-47000000D01*
X40500000Y-47000000D02*
X40500000Y-46500000D01*
X40500000Y-46500000D02*
X40000000Y-46500000D01*
X40000000Y-46500000D02*
X39500000Y-46500000D01*
X39500000Y-46500000D02*
X39000000Y-46500000D01*
X39000000Y-46500000D02*
X38500000Y-46500000D01*
X38500000Y-46500000D02*
X38000000Y-46500000D01*
X38000000Y-46500000D02*
X37500000Y-46500000D01*
X37500000Y-46500000D02*
X37000000Y-46500000D01*
X37000000Y-46500000D02*
X36500000Y-46500000D01*
X36500000Y-46500000D02*
X36000000Y-46500000D01*
X36000000Y-46500000D02*
X35500000Y-46500000D01*
X35500000Y-46500000D02*
X35000000Y-46500000D01*
X35000000Y-46500000D02*
X34500000Y-46500000D01*
X34500000Y-46500000D02*
X34000000Y-46500000D01*
X34000000Y-46500000D02*
X33500000Y-46500000D01*
X33500000Y-46500000D02*
X33000000Y-46500000D01*
X33000000Y-46500000D02*
X32500000Y-46500000D01*
X32500000Y-46500000D02*
X32000000Y-46500000D01*
X32000000Y-46500000D02*
X31500000Y-46500000D01*
X31500000Y-46500000D02*
X31000000Y-46500000D01*
X31000000Y-46500000D02*
X30500000Y-46500000D01*
X30500000Y-46500000D02*
X30000000Y-46500000D01*
X30000000Y-46500000D02*
X29500000Y-46500000D01*
X29500000Y-46500000D02*
X29000000Y-46500000D01*
X29000000Y-46500000D02*
X29000000Y-47000000D01*
X29000000Y-47000000D02*
X29000000Y-47500000D01*
X29000000Y-47500000D02*
X28500000Y-47500000D01*
X28500000Y-47500000D02*
X28500000Y-48000000D01*
X28500000Y-48000000D02*
X28000000Y-48000000D01*
%TO.N,TRIGIN_12*%
X44500000Y-49500000D02*
X44000000Y-49500000D01*
X44000000Y-49500000D02*
X44000000Y-49000000D01*
X44000000Y-49000000D02*
X43500000Y-49000000D01*
X43500000Y-49000000D02*
X43000000Y-49000000D01*
X43000000Y-49000000D02*
X42500000Y-49000000D01*
X42500000Y-49000000D02*
X42000000Y-49000000D01*
X42000000Y-49000000D02*
X41500000Y-49000000D01*
X41500000Y-49000000D02*
X41500000Y-48500000D01*
X41500000Y-48500000D02*
X41000000Y-48500000D01*
X41000000Y-48500000D02*
X40500000Y-48500000D01*
X40500000Y-48500000D02*
X40000000Y-48500000D01*
X40000000Y-48500000D02*
X39500000Y-48500000D01*
X39500000Y-48500000D02*
X39000000Y-48500000D01*
X39000000Y-48500000D02*
X38500000Y-48500000D01*
X38500000Y-48500000D02*
X38500000Y-49000000D01*
X38500000Y-49000000D02*
X38000000Y-49000000D01*
X38000000Y-49000000D02*
X37500000Y-49000000D01*
X37500000Y-49000000D02*
X37000000Y-49000000D01*
X37000000Y-49000000D02*
X36500000Y-49000000D01*
X36500000Y-49000000D02*
X36000000Y-49000000D01*
X36000000Y-49000000D02*
X35500000Y-49000000D01*
X35500000Y-49000000D02*
X35000000Y-49000000D01*
X35000000Y-49000000D02*
X34500000Y-49000000D01*
X34500000Y-49000000D02*
X34000000Y-49000000D01*
X34000000Y-49000000D02*
X33500000Y-49000000D01*
X33500000Y-49000000D02*
X33000000Y-49000000D01*
X33000000Y-49000000D02*
X32500000Y-49000000D01*
X32500000Y-49000000D02*
X32000000Y-49000000D01*
X32000000Y-49000000D02*
X31500000Y-49000000D01*
X31500000Y-49000000D02*
X31000000Y-49000000D01*
X31000000Y-49000000D02*
X30500000Y-49000000D01*
X30500000Y-49000000D02*
X30000000Y-49000000D01*
X30000000Y-49000000D02*
X29500000Y-49000000D01*
X29500000Y-49000000D02*
X29000000Y-49000000D01*
X29000000Y-49000000D02*
X28500000Y-49000000D01*
X28500000Y-49000000D02*
X28000000Y-49000000D01*
X28000000Y-49000000D02*
X27500000Y-49000000D01*
X27500000Y-49000000D02*
X27000000Y-49000000D01*
X27000000Y-49000000D02*
X26500000Y-49000000D01*
X26500000Y-49000000D02*
X26000000Y-49000000D01*
X26000000Y-49000000D02*
X25500000Y-49000000D01*
X25500000Y-49000000D02*
X25000000Y-49000000D01*
X25000000Y-49000000D02*
X24500000Y-49000000D01*
X24500000Y-49000000D02*
X24500000Y-48500000D01*
X24500000Y-48500000D02*
X24500000Y-48000000D01*
%TO.N,TRIGIN_13*%
X44500000Y-48000000D02*
X44000000Y-48000000D01*
X44000000Y-48000000D02*
X43500000Y-48000000D01*
X43500000Y-48000000D02*
X43500000Y-47500000D01*
X43500000Y-47500000D02*
X43000000Y-47500000D01*
X43000000Y-47500000D02*
X43000000Y-47000000D01*
X43000000Y-47000000D02*
X43000000Y-46500000D01*
X43000000Y-46500000D02*
X42500000Y-46500000D01*
X42500000Y-46500000D02*
X42000000Y-46500000D01*
X42000000Y-46500000D02*
X41500000Y-46500000D01*
X41500000Y-46500000D02*
X41000000Y-46500000D01*
X41000000Y-46500000D02*
X41000000Y-46000000D01*
X41000000Y-46000000D02*
X40500000Y-46000000D01*
X40500000Y-46000000D02*
X40000000Y-46000000D01*
X40000000Y-46000000D02*
X39500000Y-46000000D01*
X39500000Y-46000000D02*
X39000000Y-46000000D01*
X39000000Y-46000000D02*
X38500000Y-46000000D01*
X38500000Y-46000000D02*
X38000000Y-46000000D01*
X38000000Y-46000000D02*
X37500000Y-46000000D01*
X37500000Y-46000000D02*
X37000000Y-46000000D01*
X37000000Y-46000000D02*
X36500000Y-46000000D01*
X36500000Y-46000000D02*
X36000000Y-46000000D01*
X36000000Y-46000000D02*
X35500000Y-46000000D01*
X35500000Y-46000000D02*
X35000000Y-46000000D01*
X35000000Y-46000000D02*
X34500000Y-46000000D01*
X34500000Y-46000000D02*
X34000000Y-46000000D01*
X34000000Y-46000000D02*
X33500000Y-46000000D01*
X33500000Y-46000000D02*
X33000000Y-46000000D01*
X33000000Y-46000000D02*
X32500000Y-46000000D01*
X32500000Y-46000000D02*
X32000000Y-46000000D01*
X32000000Y-46000000D02*
X31500000Y-46000000D01*
X31500000Y-46000000D02*
X31000000Y-46000000D01*
X31000000Y-46000000D02*
X30500000Y-46000000D01*
X30500000Y-46000000D02*
X30000000Y-46000000D01*
X30000000Y-46000000D02*
X29500000Y-46000000D01*
X29500000Y-46000000D02*
X29000000Y-46000000D01*
X29000000Y-46000000D02*
X28500000Y-46000000D01*
X28500000Y-46000000D02*
X28000000Y-46000000D01*
X28000000Y-46000000D02*
X27500000Y-46000000D01*
X27500000Y-46000000D02*
X27000000Y-46000000D01*
X27000000Y-46000000D02*
X26500000Y-46000000D01*
X26500000Y-46000000D02*
X26000000Y-46000000D01*
X26000000Y-46000000D02*
X25500000Y-46000000D01*
X25500000Y-46000000D02*
X25500000Y-46500000D01*
X25500000Y-46500000D02*
X25000000Y-46500000D01*
X25000000Y-46500000D02*
X24500000Y-46500000D01*
X24500000Y-46500000D02*
X24500000Y-47000000D01*
X24500000Y-47000000D02*
X24000000Y-47000000D01*
X24000000Y-47000000D02*
X23500000Y-47000000D01*
X23500000Y-47000000D02*
X23000000Y-47000000D01*
X23000000Y-47000000D02*
X23000000Y-47500000D01*
X23000000Y-47500000D02*
X22500000Y-47500000D01*
X22500000Y-47500000D02*
X22000000Y-47500000D01*
X22000000Y-47500000D02*
X22000000Y-48000000D01*
X22000000Y-48000000D02*
X21500000Y-48000000D01*
%TO.N,TRIGIN_14*%
X45000000Y-47500000D02*
X45000000Y-47000000D01*
X45000000Y-47000000D02*
X44500000Y-47000000D01*
X44500000Y-47000000D02*
X44500000Y-46500000D01*
X44500000Y-46500000D02*
X44500000Y-46000000D01*
X44500000Y-46000000D02*
X44000000Y-46000000D01*
X44000000Y-46000000D02*
X43500000Y-46000000D01*
X43500000Y-46000000D02*
X43000000Y-46000000D01*
X43000000Y-46000000D02*
X42500000Y-46000000D01*
X42500000Y-46000000D02*
X42000000Y-46000000D01*
X42000000Y-46000000D02*
X41500000Y-46000000D01*
X41500000Y-46000000D02*
X41500000Y-45500000D01*
X41500000Y-45500000D02*
X41000000Y-45500000D01*
X41000000Y-45500000D02*
X40500000Y-45500000D01*
X40500000Y-45500000D02*
X40000000Y-45500000D01*
X40000000Y-45500000D02*
X39500000Y-45500000D01*
X39500000Y-45500000D02*
X39000000Y-45500000D01*
X39000000Y-45500000D02*
X38500000Y-45500000D01*
X38500000Y-45500000D02*
X38000000Y-45500000D01*
X38000000Y-45500000D02*
X37500000Y-45500000D01*
X37500000Y-45500000D02*
X37000000Y-45500000D01*
X37000000Y-45500000D02*
X36500000Y-45500000D01*
X36500000Y-45500000D02*
X36000000Y-45500000D01*
X36000000Y-45500000D02*
X35500000Y-45500000D01*
X35500000Y-45500000D02*
X35000000Y-45500000D01*
X35000000Y-45500000D02*
X34500000Y-45500000D01*
X34500000Y-45500000D02*
X34000000Y-45500000D01*
X34000000Y-45500000D02*
X33500000Y-45500000D01*
X33500000Y-45500000D02*
X33000000Y-45500000D01*
X33000000Y-45500000D02*
X32500000Y-45500000D01*
X32500000Y-45500000D02*
X32000000Y-45500000D01*
X32000000Y-45500000D02*
X31500000Y-45500000D01*
X31500000Y-45500000D02*
X31000000Y-45500000D01*
X31000000Y-45500000D02*
X30500000Y-45500000D01*
X30500000Y-45500000D02*
X30000000Y-45500000D01*
X30000000Y-45500000D02*
X29500000Y-45500000D01*
X29500000Y-45500000D02*
X29000000Y-45500000D01*
X29000000Y-45500000D02*
X28500000Y-45500000D01*
X28500000Y-45500000D02*
X28000000Y-45500000D01*
X28000000Y-45500000D02*
X27500000Y-45500000D01*
X27500000Y-45500000D02*
X27000000Y-45500000D01*
X27000000Y-45500000D02*
X26500000Y-45500000D01*
X26500000Y-45500000D02*
X26000000Y-45500000D01*
X26000000Y-45500000D02*
X25500000Y-45500000D01*
X25500000Y-45500000D02*
X25000000Y-45500000D01*
X25000000Y-45500000D02*
X24500000Y-45500000D01*
X24500000Y-45500000D02*
X24000000Y-45500000D01*
X24000000Y-45500000D02*
X24000000Y-46000000D01*
X24000000Y-46000000D02*
X23500000Y-46000000D01*
X23500000Y-46000000D02*
X23000000Y-46000000D01*
X23000000Y-46000000D02*
X22500000Y-46000000D01*
X22500000Y-46000000D02*
X22000000Y-46000000D01*
X22000000Y-46000000D02*
X22000000Y-46500000D01*
X22000000Y-46500000D02*
X21500000Y-46500000D01*
X21500000Y-46500000D02*
X21000000Y-46500000D01*
X21000000Y-46500000D02*
X20500000Y-46500000D01*
X20500000Y-46500000D02*
X20000000Y-46500000D01*
X20000000Y-46500000D02*
X19500000Y-46500000D01*
X19500000Y-46500000D02*
X19500000Y-47000000D01*
X19500000Y-47000000D02*
X19500000Y-47500000D01*
X19500000Y-47500000D02*
X19000000Y-47500000D01*
X19000000Y-47500000D02*
X18500000Y-47500000D01*
X18500000Y-47500000D02*
X18500000Y-48000000D01*
X18500000Y-48000000D02*
X18000000Y-48000000D01*
%TO.N,TRIGIN_15*%
X46500000Y-47500000D02*
X46500000Y-47000000D01*
X46500000Y-47000000D02*
X46500000Y-46500000D01*
X46500000Y-46500000D02*
X46000000Y-46500000D01*
X46000000Y-46500000D02*
X46000000Y-46000000D01*
X46000000Y-46000000D02*
X45500000Y-46000000D01*
X45500000Y-46000000D02*
X45500000Y-45500000D01*
X45500000Y-45500000D02*
X45000000Y-45500000D01*
X45000000Y-45500000D02*
X44500000Y-45500000D01*
X44500000Y-45500000D02*
X44000000Y-45500000D01*
X44000000Y-45500000D02*
X43500000Y-45500000D01*
X43500000Y-45500000D02*
X43000000Y-45500000D01*
X43000000Y-45500000D02*
X42500000Y-45500000D01*
X42500000Y-45500000D02*
X42000000Y-45500000D01*
X42000000Y-45500000D02*
X42000000Y-45000000D01*
X42000000Y-45000000D02*
X41500000Y-45000000D01*
X41500000Y-45000000D02*
X41000000Y-45000000D01*
X41000000Y-45000000D02*
X40500000Y-45000000D01*
X40500000Y-45000000D02*
X40000000Y-45000000D01*
X40000000Y-45000000D02*
X39500000Y-45000000D01*
X39500000Y-45000000D02*
X39000000Y-45000000D01*
X39000000Y-45000000D02*
X38500000Y-45000000D01*
X38500000Y-45000000D02*
X38000000Y-45000000D01*
X38000000Y-45000000D02*
X38000000Y-44500000D01*
X38000000Y-44500000D02*
X38000000Y-44000000D01*
X38000000Y-44000000D02*
X37500000Y-44000000D01*
X37500000Y-44000000D02*
X37000000Y-44000000D01*
X37000000Y-44000000D02*
X37000000Y-44500000D01*
X37000000Y-44500000D02*
X36500000Y-44500000D01*
X36500000Y-44500000D02*
X36000000Y-44500000D01*
X36000000Y-44500000D02*
X35500000Y-44500000D01*
X35500000Y-44500000D02*
X35000000Y-44500000D01*
X35000000Y-44500000D02*
X34500000Y-44500000D01*
X34500000Y-44500000D02*
X34000000Y-44500000D01*
X34000000Y-44500000D02*
X33500000Y-44500000D01*
X33500000Y-44500000D02*
X33000000Y-44500000D01*
X33000000Y-44500000D02*
X32500000Y-44500000D01*
X32500000Y-44500000D02*
X32000000Y-44500000D01*
X32000000Y-44500000D02*
X31500000Y-44500000D01*
X31500000Y-44500000D02*
X31000000Y-44500000D01*
X31000000Y-44500000D02*
X30500000Y-44500000D01*
X30500000Y-44500000D02*
X30000000Y-44500000D01*
X30000000Y-44500000D02*
X29500000Y-44500000D01*
X29500000Y-44500000D02*
X29000000Y-44500000D01*
X29000000Y-44500000D02*
X28500000Y-44500000D01*
X28500000Y-44500000D02*
X28000000Y-44500000D01*
X28000000Y-44500000D02*
X27500000Y-44500000D01*
X27500000Y-44500000D02*
X27000000Y-44500000D01*
X27000000Y-44500000D02*
X26500000Y-44500000D01*
X26500000Y-44500000D02*
X26000000Y-44500000D01*
X26000000Y-44500000D02*
X25500000Y-44500000D01*
X25500000Y-44500000D02*
X25000000Y-44500000D01*
X25000000Y-44500000D02*
X24500000Y-44500000D01*
X24500000Y-44500000D02*
X24000000Y-44500000D01*
X24000000Y-44500000D02*
X23500000Y-44500000D01*
X23500000Y-44500000D02*
X23000000Y-44500000D01*
X23000000Y-44500000D02*
X22500000Y-44500000D01*
X22500000Y-44500000D02*
X22000000Y-44500000D01*
X22000000Y-44500000D02*
X21500000Y-44500000D01*
X21500000Y-44500000D02*
X21000000Y-44500000D01*
X21000000Y-44500000D02*
X20500000Y-44500000D01*
X20500000Y-44500000D02*
X20000000Y-44500000D01*
X20000000Y-44500000D02*
X19500000Y-44500000D01*
X19500000Y-44500000D02*
X19000000Y-44500000D01*
X19000000Y-44500000D02*
X18500000Y-44500000D01*
X18500000Y-44500000D02*
X18000000Y-44500000D01*
X18000000Y-44500000D02*
X18000000Y-45000000D01*
X18000000Y-45000000D02*
X18000000Y-45500000D01*
X18000000Y-45500000D02*
X17500000Y-45500000D01*
X17500000Y-45500000D02*
X17500000Y-46000000D01*
X17500000Y-46000000D02*
X17500000Y-46500000D01*
X17500000Y-46500000D02*
X17000000Y-46500000D01*
X17000000Y-46500000D02*
X16500000Y-46500000D01*
X16500000Y-46500000D02*
X16000000Y-46500000D01*
X16000000Y-46500000D02*
X15500000Y-46500000D01*
X15500000Y-46500000D02*
X15500000Y-47000000D01*
X15500000Y-47000000D02*
X15500000Y-47500000D01*
X15500000Y-47500000D02*
X15000000Y-47500000D01*
X15000000Y-47500000D02*
X15000000Y-48000000D01*
%TO.N,TRIG_2*%
X34500000Y-38000000D02*
X34500000Y-37500000D01*
X34500000Y-37500000D02*
X34000000Y-37500000D01*
X34000000Y-37500000D02*
X33500000Y-37500000D01*
%TO.N,TRIG_3*%
X34500000Y-36500000D02*
X34000000Y-36500000D01*
X34000000Y-36500000D02*
X34000000Y-36000000D01*
X34000000Y-36000000D02*
X33500000Y-36000000D01*
X33500000Y-36000000D02*
X33000000Y-36000000D01*
X33000000Y-36000000D02*
X32500000Y-36000000D01*
X32500000Y-36000000D02*
X32000000Y-36000000D01*
X32000000Y-36000000D02*
X31500000Y-36000000D01*
X31500000Y-36000000D02*
X31000000Y-36000000D01*
X31000000Y-36000000D02*
X30500000Y-36000000D01*
X30500000Y-36000000D02*
X30500000Y-36500000D01*
X30500000Y-36500000D02*
X30000000Y-36500000D01*
X30000000Y-36500000D02*
X29500000Y-36500000D01*
X29500000Y-36500000D02*
X29000000Y-36500000D01*
X29000000Y-36500000D02*
X29000000Y-37000000D01*
X29000000Y-37000000D02*
X28500000Y-37000000D01*
X28500000Y-37000000D02*
X28500000Y-37500000D01*
X28500000Y-37500000D02*
X28500000Y-38000000D01*
X28500000Y-38000000D02*
X28500000Y-38500000D01*
X28500000Y-38500000D02*
X28500000Y-39000000D01*
X28500000Y-39000000D02*
X28000000Y-39000000D01*
X28000000Y-39000000D02*
X28000000Y-39500000D01*
X28000000Y-39500000D02*
X28000000Y-40000000D01*
X28000000Y-40000000D02*
X28000000Y-40500000D01*
X28000000Y-40500000D02*
X28000000Y-41000000D01*
X28000000Y-41000000D02*
X27500000Y-41000000D01*
%TO.N,TRIG_6*%
X34500000Y-32000000D02*
X35000000Y-32000000D01*
X35000000Y-32000000D02*
X35000000Y-32500000D01*
X35000000Y-32500000D02*
X35000000Y-33000000D01*
X35000000Y-33000000D02*
X35000000Y-33500000D01*
X35000000Y-33500000D02*
X35000000Y-34000000D01*
X35000000Y-34000000D02*
X35000000Y-34500000D01*
X35000000Y-34500000D02*
X35000000Y-35000000D01*
X35000000Y-35000000D02*
X35000000Y-35500000D01*
X35000000Y-35500000D02*
X35000000Y-36000000D01*
X35000000Y-36000000D02*
X35000000Y-36500000D01*
X35000000Y-36500000D02*
X35000000Y-37000000D01*
X35000000Y-37000000D02*
X34500000Y-37000000D01*
X34500000Y-37000000D02*
X34000000Y-37000000D01*
X34000000Y-37000000D02*
X33500000Y-37000000D01*
X33500000Y-37000000D02*
X33000000Y-37000000D01*
X33000000Y-37000000D02*
X33000000Y-37500000D01*
X33000000Y-37500000D02*
X33000000Y-38000000D01*
X33000000Y-38000000D02*
X33000000Y-38500000D01*
X33000000Y-38500000D02*
X33000000Y-39000000D01*
X33000000Y-39000000D02*
X32500000Y-39000000D01*
X32500000Y-39000000D02*
X32500000Y-39500000D01*
%TO.N,TRIG_7*%
X36000000Y-32000000D02*
X36000000Y-32500000D01*
X36000000Y-32500000D02*
X36000000Y-33000000D01*
X36000000Y-33000000D02*
X36000000Y-33500000D01*
X36000000Y-33500000D02*
X36000000Y-34000000D01*
X36000000Y-34000000D02*
X36000000Y-34500000D01*
X36000000Y-34500000D02*
X36000000Y-35000000D01*
X36000000Y-35000000D02*
X36000000Y-35500000D01*
X36000000Y-35500000D02*
X36000000Y-36000000D01*
X36000000Y-36000000D02*
X36000000Y-36500000D01*
X36000000Y-36500000D02*
X36000000Y-37000000D01*
X36000000Y-37000000D02*
X36000000Y-37500000D01*
X36000000Y-37500000D02*
X36000000Y-38000000D01*
X36000000Y-38000000D02*
X36000000Y-38500000D01*
X36000000Y-38500000D02*
X35500000Y-38500000D01*
X35500000Y-38500000D02*
X35500000Y-39000000D01*
X35500000Y-39000000D02*
X35500000Y-39500000D01*
X35500000Y-39500000D02*
X35500000Y-40000000D01*
X35500000Y-40000000D02*
X35000000Y-40000000D01*
X35000000Y-40000000D02*
X35000000Y-40500000D01*
X35000000Y-40500000D02*
X35000000Y-41000000D01*
X35000000Y-41000000D02*
X34500000Y-41000000D01*
X34500000Y-41000000D02*
X34000000Y-41000000D01*
X34000000Y-41000000D02*
X33500000Y-41000000D01*
X33500000Y-41000000D02*
X33000000Y-41000000D01*
X33000000Y-41000000D02*
X32500000Y-41000000D01*
X32500000Y-41000000D02*
X32500000Y-40500000D01*
%TO.N,TRIG_8*%
X49500000Y-51500000D02*
X49000000Y-51500000D01*
%TO.N,TRIG_10*%
X50500000Y-49500000D02*
X50000000Y-49500000D01*
X50000000Y-49500000D02*
X49500000Y-49500000D01*
X49500000Y-49500000D02*
X49000000Y-49500000D01*
X49000000Y-49500000D02*
X48500000Y-49500000D01*
X48500000Y-49500000D02*
X48500000Y-50000000D01*
X48500000Y-50000000D02*
X48500000Y-50500000D01*
X48500000Y-50500000D02*
X48000000Y-50500000D01*
X48000000Y-50500000D02*
X47500000Y-50500000D01*
X47500000Y-50500000D02*
X47000000Y-50500000D01*
X47000000Y-50500000D02*
X46500000Y-50500000D01*
X46500000Y-50500000D02*
X46000000Y-50500000D01*
X46000000Y-50500000D02*
X46000000Y-50000000D01*
X46000000Y-50000000D02*
X45500000Y-50000000D01*
X45500000Y-50000000D02*
X45000000Y-50000000D01*
X45000000Y-50000000D02*
X44500000Y-50000000D01*
X44500000Y-50000000D02*
X44000000Y-50000000D01*
X44000000Y-50000000D02*
X43500000Y-50000000D01*
X43500000Y-50000000D02*
X43000000Y-50000000D01*
X43000000Y-50000000D02*
X42500000Y-50000000D01*
X42500000Y-50000000D02*
X42500000Y-49500000D01*
%TO.N,TRIG_11*%
X52000000Y-51500000D02*
X52000000Y-52000000D01*
X52000000Y-52000000D02*
X51500000Y-52000000D01*
X51500000Y-52000000D02*
X51000000Y-52000000D01*
X51000000Y-52000000D02*
X50500000Y-52000000D01*
X50500000Y-52000000D02*
X50500000Y-52500000D01*
X50500000Y-52500000D02*
X50000000Y-52500000D01*
X50000000Y-52500000D02*
X49500000Y-52500000D01*
X49500000Y-52500000D02*
X49000000Y-52500000D01*
X49000000Y-52500000D02*
X48500000Y-52500000D01*
X48500000Y-52500000D02*
X48000000Y-52500000D01*
X48000000Y-52500000D02*
X47500000Y-52500000D01*
X47500000Y-52500000D02*
X47000000Y-52500000D01*
X47000000Y-52500000D02*
X46500000Y-52500000D01*
X46500000Y-52500000D02*
X46000000Y-52500000D01*
X46000000Y-52500000D02*
X45500000Y-52500000D01*
X45500000Y-52500000D02*
X45000000Y-52500000D01*
X45000000Y-52500000D02*
X44500000Y-52500000D01*
X44500000Y-52500000D02*
X44000000Y-52500000D01*
X44000000Y-52500000D02*
X44000000Y-52000000D01*
X44000000Y-52000000D02*
X43500000Y-52000000D01*
X43500000Y-52000000D02*
X43500000Y-51500000D01*
X43500000Y-51500000D02*
X43000000Y-51500000D01*
X43000000Y-51500000D02*
X43000000Y-51000000D01*
X43000000Y-51000000D02*
X42500000Y-51000000D01*
%TO.N,TRIG_12*%
X53500000Y-49500000D02*
X53000000Y-49500000D01*
X53000000Y-49500000D02*
X53000000Y-49000000D01*
X53000000Y-49000000D02*
X53000000Y-48500000D01*
X53000000Y-48500000D02*
X53000000Y-48000000D01*
X53000000Y-48000000D02*
X52500000Y-48000000D01*
X52500000Y-48000000D02*
X52000000Y-48000000D01*
X52000000Y-48000000D02*
X51500000Y-48000000D01*
X51500000Y-48000000D02*
X51000000Y-48000000D01*
X51000000Y-48000000D02*
X50500000Y-48000000D01*
X50500000Y-48000000D02*
X50000000Y-48000000D01*
X50000000Y-48000000D02*
X49500000Y-48000000D01*
X49500000Y-48000000D02*
X49000000Y-48000000D01*
X49000000Y-48000000D02*
X48500000Y-48000000D01*
X48500000Y-48000000D02*
X48000000Y-48000000D01*
X48000000Y-48000000D02*
X47500000Y-48000000D01*
X47500000Y-48000000D02*
X47500000Y-47500000D01*
%TO.N,TRIG_13*%
X55000000Y-49500000D02*
X55000000Y-50000000D01*
X55000000Y-50000000D02*
X55000000Y-50500000D01*
X55000000Y-50500000D02*
X54500000Y-50500000D01*
X54500000Y-50500000D02*
X54000000Y-50500000D01*
X54000000Y-50500000D02*
X53500000Y-50500000D01*
X53500000Y-50500000D02*
X53000000Y-50500000D01*
X53000000Y-50500000D02*
X52500000Y-50500000D01*
X52500000Y-50500000D02*
X52000000Y-50500000D01*
X52000000Y-50500000D02*
X51500000Y-50500000D01*
X51500000Y-50500000D02*
X51500000Y-50000000D01*
X51500000Y-50000000D02*
X51500000Y-49500000D01*
X51500000Y-49500000D02*
X51500000Y-49000000D01*
X51500000Y-49000000D02*
X51000000Y-49000000D01*
X51000000Y-49000000D02*
X50500000Y-49000000D01*
X50500000Y-49000000D02*
X50000000Y-49000000D01*
X50000000Y-49000000D02*
X49500000Y-49000000D01*
X49500000Y-49000000D02*
X49000000Y-49000000D01*
X49000000Y-49000000D02*
X48500000Y-49000000D01*
X48500000Y-49000000D02*
X48000000Y-49000000D01*
X48000000Y-49000000D02*
X48000000Y-48500000D01*
X48000000Y-48500000D02*
X47500000Y-48500000D01*
%TO.N,TRIG_14*%
X56500000Y-49500000D02*
X56500000Y-49000000D01*
X56500000Y-49000000D02*
X56500000Y-48500000D01*
X56500000Y-48500000D02*
X56500000Y-48000000D01*
X56500000Y-48000000D02*
X56000000Y-48000000D01*
X56000000Y-48000000D02*
X55500000Y-48000000D01*
X55500000Y-48000000D02*
X55000000Y-48000000D01*
X55000000Y-48000000D02*
X54500000Y-48000000D01*
X54500000Y-48000000D02*
X54000000Y-48000000D01*
X54000000Y-48000000D02*
X53500000Y-48000000D01*
X53500000Y-48000000D02*
X53500000Y-47500000D01*
X53500000Y-47500000D02*
X53000000Y-47500000D01*
X53000000Y-47500000D02*
X52500000Y-47500000D01*
X52500000Y-47500000D02*
X52000000Y-47500000D01*
X52000000Y-47500000D02*
X51500000Y-47500000D01*
X51500000Y-47500000D02*
X51000000Y-47500000D01*
X51000000Y-47500000D02*
X50500000Y-47500000D01*
X50500000Y-47500000D02*
X50000000Y-47500000D01*
X50000000Y-47500000D02*
X49500000Y-47500000D01*
X49500000Y-47500000D02*
X49500000Y-47000000D01*
X49500000Y-47000000D02*
X49000000Y-47000000D01*
X49000000Y-47000000D02*
X48500000Y-47000000D01*
X48500000Y-47000000D02*
X48500000Y-46500000D01*
X48500000Y-46500000D02*
X48000000Y-46500000D01*
X48000000Y-46500000D02*
X47500000Y-46500000D01*
X47500000Y-46500000D02*
X47000000Y-46500000D01*
X47000000Y-46500000D02*
X47000000Y-47000000D01*
X47000000Y-47000000D02*
X47000000Y-47500000D01*
X47000000Y-47500000D02*
X47000000Y-48000000D01*
X47000000Y-48000000D02*
X47000000Y-48500000D01*
X47000000Y-48500000D02*
X47000000Y-49000000D01*
X47000000Y-49000000D02*
X47000000Y-49500000D01*
X47000000Y-49500000D02*
X47500000Y-49500000D01*
X47500000Y-49500000D02*
X47500000Y-50000000D01*
%TO.N,TRIG_15*%
X56500000Y-51000000D02*
X56000000Y-51000000D01*
X56000000Y-51000000D02*
X55500000Y-51000000D01*
X55500000Y-51000000D02*
X55000000Y-51000000D01*
X55000000Y-51000000D02*
X54500000Y-51000000D01*
X54500000Y-51000000D02*
X54000000Y-51000000D01*
X54000000Y-51000000D02*
X53500000Y-51000000D01*
X53500000Y-51000000D02*
X53000000Y-51000000D01*
X53000000Y-51000000D02*
X52500000Y-51000000D01*
X52500000Y-51000000D02*
X52000000Y-51000000D01*
X52000000Y-51000000D02*
X51500000Y-51000000D01*
X51500000Y-51000000D02*
X51000000Y-51000000D01*
X51000000Y-51000000D02*
X50500000Y-51000000D01*
X50500000Y-51000000D02*
X50000000Y-51000000D01*
X50000000Y-51000000D02*
X49500000Y-51000000D01*
X49500000Y-51000000D02*
X49000000Y-51000000D01*
X49000000Y-51000000D02*
X48500000Y-51000000D01*
X48500000Y-51000000D02*
X48000000Y-51000000D01*
X48000000Y-51000000D02*
X47500000Y-51000000D01*
%TO.N,OUT_2*%
D11*
X40500000Y-30000000D02*
X40500000Y-29500000D01*
X40500000Y-29500000D02*
X40500000Y-29000000D01*
%TO.N,OUT_5*%
X56000000Y-34500000D02*
X56000000Y-35000000D01*
X56000000Y-35000000D02*
X56500000Y-35000000D01*
X56500000Y-35000000D02*
X56500000Y-35500000D01*
X56500000Y-35500000D02*
X56500000Y-36000000D01*
X56500000Y-36000000D02*
X57000000Y-36000000D01*
X57000000Y-36000000D02*
X57000000Y-36500000D01*
X57000000Y-36500000D02*
X57000000Y-37000000D01*
%TO.N,OUT_6*%
X52500000Y-36000000D02*
X53000000Y-36000000D01*
X53000000Y-36000000D02*
X53500000Y-36000000D01*
X63000000Y-40000000D02*
X63500000Y-40000000D01*
X63500000Y-40000000D02*
X64000000Y-40000000D01*
%TO.N,OUT_7*%
X53000000Y-42500000D02*
X53500000Y-42500000D01*
X53500000Y-42500000D02*
X54000000Y-42500000D01*
X54000000Y-42500000D02*
X54500000Y-42500000D01*
%TO.N,OUT_8*%
X56000000Y-54000000D02*
X56000000Y-54500000D01*
X56000000Y-54500000D02*
X56000000Y-55000000D01*
%TO.N,OUT_13*%
X53500000Y-53500000D02*
X54000000Y-53500000D01*
X54000000Y-53500000D02*
X54500000Y-53500000D01*
X54500000Y-53500000D02*
X55000000Y-53500000D01*
X55000000Y-53500000D02*
X55500000Y-53500000D01*
X55500000Y-53500000D02*
X56000000Y-53500000D01*
X56000000Y-53500000D02*
X56500000Y-53500000D01*
X56500000Y-53500000D02*
X57000000Y-53500000D01*
X57000000Y-53500000D02*
X57500000Y-53500000D01*
X57500000Y-53500000D02*
X58000000Y-53500000D01*
X58000000Y-53500000D02*
X58000000Y-53000000D01*
X58000000Y-53000000D02*
X58500000Y-53000000D01*
%TO.N,TX_0*%
X60000000Y-31000000D02*
X60500000Y-31000000D01*
X60500000Y-31000000D02*
X61000000Y-31000000D01*
X61000000Y-31000000D02*
X61500000Y-31000000D01*
X61500000Y-31000000D02*
X61500000Y-30500000D01*
%TO.N,TX_2*%
X64000000Y-36000000D02*
X63500000Y-36000000D01*
X63500000Y-36000000D02*
X63000000Y-36000000D01*
%TO.N,TX_4*%
X52500000Y-38500000D02*
X53000000Y-38500000D01*
X53000000Y-38500000D02*
X53500000Y-38500000D01*
%TO.N,TX_6*%
X64500000Y-48000000D02*
X64000000Y-48000000D01*
X64000000Y-48000000D02*
X63500000Y-48000000D01*
X63500000Y-48000000D02*
X63000000Y-48000000D01*
%TO.N,TX_7*%
X58000000Y-48500000D02*
X58500000Y-48500000D01*
X58500000Y-48500000D02*
X59000000Y-48500000D01*
X59000000Y-48500000D02*
X59500000Y-48500000D01*
X59500000Y-48500000D02*
X60000000Y-48500000D01*
X60000000Y-48500000D02*
X60500000Y-48500000D01*
%TO.N,TX_13*%
X57500000Y-37500000D02*
X57500000Y-37000000D01*
X57500000Y-37000000D02*
X57500000Y-36500000D01*
X57500000Y-36500000D02*
X57500000Y-36000000D01*
X57500000Y-36000000D02*
X57500000Y-35500000D01*
%TD*%
M02*
