%TF.GenerationSoftware,KiCad,Pcbnew,10.0.3*%
%TF.CreationDate,2026-06-20T14:23:42-04:00*%
%TF.ProjectId,fpga_tile,66706761-5f74-4696-9c65-2e6b69636164,rev?*%
%TF.SameCoordinates,Original*%
%TF.FileFunction,Copper,L3,Inr*%
%TF.FilePolarity,Positive*%
%FSLAX46Y46*%
G04 Gerber Fmt 4.6, Leading zero omitted, Abs format (unit mm)*
G04 Created by KiCad (PCBNEW 10.0.3) date 2026-06-20 14:23:42*
%MOMM*%
%LPD*%
G01*
G04 APERTURE LIST*
%TA.AperFunction,ViaPad*%
%ADD10C,0.460000*%
%TD*%
G04 APERTURE END LIST*
D10*
%TO.N,VCCO_3V3*%
X50000000Y-50000000D03*
X48000000Y-52000000D03*
%TO.N,GND*%
X54500000Y-52000000D03*
X51500000Y-53000000D03*
%TO.N,CLK*%
X37000000Y-40500000D03*
X43500000Y-50000000D03*
%TO.N,CCLK*%
X38000000Y-47500000D03*
X41500000Y-50000000D03*
%TO.N,CFG_CS*%
X40000000Y-46500000D03*
X35000000Y-50000000D03*
%TO.N,TCK*%
X38000000Y-32000000D03*
X40000000Y-39500000D03*
%TO.N,TDI*%
X40000000Y-35500000D03*
X35500000Y-37000000D03*
%TO.N,TDO*%
X33500000Y-35000000D03*
X41000000Y-35000000D03*
%TO.N,TRIGOUT_0*%
X41500000Y-29000000D03*
X42500000Y-35000000D03*
%TO.N,TRIGOUT_1*%
X44500000Y-29000000D03*
X44500000Y-35000000D03*
%TO.N,TRIGOUT_2*%
X47500000Y-29000000D03*
X46000000Y-35000000D03*
%TO.N,TRIGOUT_3*%
X51000000Y-29000000D03*
X48000000Y-35000000D03*
%TO.N,TRIGOUT_4*%
X54000000Y-29000000D03*
X49500000Y-35000000D03*
%TO.N,TRIGOUT_5*%
X57500000Y-29000000D03*
X51500000Y-35000000D03*
%TO.N,TRIGOUT_6*%
X60500000Y-29000000D03*
X53500000Y-35000000D03*
%TO.N,TRIGOUT_7*%
X63000000Y-30000000D03*
X55000000Y-35000000D03*
%TO.N,TRIGOUT_8*%
X63000000Y-33000000D03*
X55000000Y-36500000D03*
%TO.N,TRIGOUT_9*%
X59500000Y-33000000D03*
X55000000Y-38500000D03*
%TO.N,TRIGOUT_11*%
X53000000Y-33000000D03*
X55000000Y-42000000D03*
%TO.N,TRIGOUT_12*%
X50000000Y-33000000D03*
X55000000Y-44000000D03*
%TO.N,TRIGOUT_13*%
X46500000Y-33000000D03*
X55000000Y-45500000D03*
%TO.N,TRIGOUT_14*%
X43500000Y-33000000D03*
X55000000Y-47500000D03*
%TO.N,TRIGOUT_15*%
X40500000Y-33000000D03*
X55000000Y-49000000D03*
%TD*%
M02*
