%TF.GenerationSoftware,KiCad,Pcbnew,10.0.3*%
%TF.CreationDate,2026-06-20T14:23:42-04:00*%
%TF.ProjectId,fpga_tile,66706761-5f74-4696-9c65-2e6b69636164,rev?*%
%TF.SameCoordinates,Original*%
%TF.FileFunction,Copper,L1,Top*%
%TF.FilePolarity,Positive*%
%FSLAX46Y46*%
G04 Gerber Fmt 4.6, Leading zero omitted, Abs format (unit mm)*
G04 Created by KiCad (PCBNEW 10.0.3) date 2026-06-20 14:23:42*
%MOMM*%
%LPD*%
G01*
G04 APERTURE LIST*
%TA.AperFunction,SMDPad,CuDef*%
%ADD10R,0.300000X0.300000*%
%TD*%
%TA.AperFunction,SMDPad,CuDef*%
%ADD11R,0.500000X0.500000*%
%TD*%
%TA.AperFunction,ViaPad*%
%ADD12C,0.460000*%
%TD*%
%TA.AperFunction,Conductor*%
%ADD13C,0.250000*%
%TD*%
%TA.AperFunction,Conductor*%
%ADD14C,0.150000*%
%TD*%
G04 APERTURE END LIST*
D10*
%TO.P,U1,1*%
%TO.N,VCCINT*%
X54209500Y-50024800D03*
%TO.P,U1,2*%
%TO.N,VCCAUX*%
X52421200Y-50024800D03*
%TO.P,U1,3*%
%TO.N,VCCO_3V3*%
X50633000Y-50024800D03*
%TO.P,U1,4*%
%TO.N,GND*%
X48844800Y-50024800D03*
%TO.P,U1,5*%
X47056500Y-50024800D03*
%TO.P,U1,6*%
X45268300Y-50024800D03*
%TO.P,U1,7*%
%TO.N,CLK*%
X43480100Y-50024800D03*
%TO.P,U1,8*%
%TO.N,CCLK*%
X41691800Y-50024800D03*
%TO.P,U1,9*%
%TO.N,DIN*%
X39903600Y-50024800D03*
%TO.P,U1,10*%
%TO.N,DOUT*%
X39903600Y-48236600D03*
%TO.P,U1,11*%
%TO.N,CFG_CS*%
X39903600Y-46448300D03*
%TO.P,U1,12*%
%TO.N,PROG*%
X39903600Y-44660100D03*
%TO.P,U1,13*%
%TO.N,DONE*%
X39903600Y-42871900D03*
%TO.P,U1,14*%
%TO.N,INIT*%
X39903600Y-41083600D03*
%TO.P,U1,15*%
%TO.N,TCK*%
X39903600Y-39295400D03*
%TO.P,U1,16*%
%TO.N,TMS*%
X39903600Y-37507200D03*
%TO.P,U1,17*%
%TO.N,TDI*%
X39903600Y-35718900D03*
%TO.P,U1,18*%
%TO.N,TDO*%
X40797700Y-34824800D03*
%TO.P,U1,19*%
%TO.N,TRIGOUT_0*%
X42586000Y-34824800D03*
%TO.P,U1,20*%
%TO.N,TRIGOUT_1*%
X44374200Y-34824800D03*
%TO.P,U1,21*%
%TO.N,TRIGOUT_2*%
X46162400Y-34824800D03*
%TO.P,U1,22*%
%TO.N,TRIGOUT_3*%
X47950700Y-34824800D03*
%TO.P,U1,23*%
%TO.N,TRIGOUT_4*%
X49738900Y-34824800D03*
%TO.P,U1,24*%
%TO.N,TRIGOUT_5*%
X51527100Y-34824800D03*
%TO.P,U1,25*%
%TO.N,TRIGOUT_6*%
X53315400Y-34824800D03*
%TO.P,U1,26*%
%TO.N,TRIGOUT_7*%
X55103600Y-34824800D03*
%TO.P,U1,27*%
%TO.N,TRIGOUT_8*%
X55103600Y-36613000D03*
%TO.P,U1,28*%
%TO.N,TRIGOUT_9*%
X55103600Y-38401300D03*
%TO.P,U1,29*%
%TO.N,TRIGOUT_10*%
X55103600Y-40189500D03*
%TO.P,U1,30*%
%TO.N,TRIGOUT_11*%
X55103600Y-41977700D03*
%TO.P,U1,31*%
%TO.N,TRIGOUT_12*%
X55103600Y-43766000D03*
%TO.P,U1,32*%
%TO.N,TRIGOUT_13*%
X55103600Y-45554200D03*
%TO.P,U1,33*%
%TO.N,TRIGOUT_14*%
X55103600Y-47342400D03*
%TO.P,U1,34*%
%TO.N,TRIGOUT_15*%
X55103600Y-49130700D03*
%TD*%
%TO.P,U2,1*%
%TO.N,CCLK*%
X38098700Y-47554600D03*
%TO.P,U2,2*%
%TO.N,DIN*%
X38098700Y-49404600D03*
%TO.P,U2,3*%
%TO.N,DOUT*%
X36673700Y-49829600D03*
%TO.P,U2,4*%
%TO.N,CFG_CS*%
X34823700Y-49829600D03*
%TO.P,U2,5*%
%TO.N,VCCO_3V3*%
X33898700Y-48904600D03*
%TO.P,U2,6*%
X33898700Y-47054600D03*
%TO.P,U2,7*%
X35323700Y-46629600D03*
%TO.P,U2,8*%
%TO.N,GND*%
X37173700Y-46629600D03*
%TD*%
%TO.P,Y1,1*%
%TO.N,VCCO_3V3*%
X36720100Y-38995700D03*
%TO.P,Y1,2*%
%TO.N,GND*%
X38095100Y-39670700D03*
%TO.P,Y1,3*%
%TO.N,CLK*%
X37070100Y-40695700D03*
%TO.P,Y1,4*%
%TO.N,VCCO_3V3*%
X35695100Y-40020700D03*
%TD*%
D11*
%TO.P,C1,1*%
%TO.N,VCCINT*%
X50128900Y-52029600D03*
%TO.P,C1,2*%
%TO.N,GND*%
X51228900Y-52029600D03*
%TD*%
%TO.P,C2,1*%
%TO.N,VCCAUX*%
X53412900Y-52046500D03*
%TO.P,C2,2*%
%TO.N,GND*%
X54512900Y-52046500D03*
%TD*%
%TO.P,C3,1*%
%TO.N,VCCO_3V3*%
X47902200Y-52030900D03*
%TO.P,C3,2*%
%TO.N,GND*%
X46802200Y-52030900D03*
%TD*%
%TO.P,C4,1*%
%TO.N,VCCO_3V3*%
X31889000Y-47518400D03*
%TO.P,C4,2*%
%TO.N,GND*%
X31889000Y-46418400D03*
%TD*%
D10*
%TO.P,J1,1*%
%TO.N,VCCINT*%
X54773900Y-58169600D03*
%TO.P,J1,2*%
%TO.N,VCCAUX*%
X51673900Y-63269600D03*
%TO.P,J1,3*%
%TO.N,VCCO_3V3*%
X47573900Y-59169600D03*
%TO.P,J1,4*%
%TO.N,GND*%
X50673900Y-54069600D03*
%TD*%
%TO.P,J2,1*%
%TO.N,TRIGOUT_0*%
X41257400Y-28808700D03*
%TO.P,J2,2*%
%TO.N,TRIGOUT_1*%
X44480900Y-28808700D03*
%TO.P,J2,3*%
%TO.N,TRIGOUT_2*%
X47704400Y-28808700D03*
%TO.P,J2,4*%
%TO.N,TRIGOUT_3*%
X50928000Y-28808700D03*
%TO.P,J2,5*%
%TO.N,TRIGOUT_4*%
X54151500Y-28808700D03*
%TO.P,J2,6*%
%TO.N,TRIGOUT_5*%
X57375000Y-28808700D03*
%TO.P,J2,7*%
%TO.N,TRIGOUT_6*%
X60598500Y-28808700D03*
%TO.P,J2,8*%
%TO.N,TRIGOUT_7*%
X62845600Y-29785200D03*
%TO.P,J2,9*%
%TO.N,TRIGOUT_8*%
X62845600Y-33008700D03*
%TO.P,J2,10*%
%TO.N,TRIGOUT_9*%
X59622100Y-33008700D03*
%TO.P,J2,11*%
%TO.N,TRIGOUT_10*%
X56398500Y-33008700D03*
%TO.P,J2,12*%
%TO.N,TRIGOUT_11*%
X53175000Y-33008700D03*
%TO.P,J2,13*%
%TO.N,TRIGOUT_12*%
X49951500Y-33008700D03*
%TO.P,J2,14*%
%TO.N,TRIGOUT_13*%
X46728000Y-33008700D03*
%TO.P,J2,15*%
%TO.N,TRIGOUT_14*%
X43504400Y-33008700D03*
%TO.P,J2,16*%
%TO.N,TRIGOUT_15*%
X40280900Y-33008700D03*
%TO.P,J2,17*%
%TO.N,GND*%
X39645600Y-30420500D03*
%TD*%
%TO.P,J3,1*%
%TO.N,TCK*%
X37809500Y-31791300D03*
%TO.P,J3,2*%
%TO.N,TMS*%
X37809500Y-35591300D03*
%TO.P,J3,3*%
%TO.N,TDI*%
X35509500Y-37091300D03*
%TO.P,J3,4*%
%TO.N,TDO*%
X33609500Y-35191300D03*
%TO.P,J3,5*%
%TO.N,VCCO_3V3*%
X33609500Y-31391300D03*
%TO.P,J3,6*%
%TO.N,GND*%
X35909500Y-29891300D03*
%TD*%
D12*
%TO.N,VCCO_3V3*%
X50000000Y-50000000D03*
X48000000Y-52000000D03*
%TO.N,GND*%
X54500000Y-52000000D03*
X51500000Y-53000000D03*
%TO.N,CLK*%
X37000000Y-40500000D03*
X43500000Y-50000000D03*
%TO.N,CCLK*%
X38000000Y-47500000D03*
X41500000Y-50000000D03*
%TO.N,CFG_CS*%
X40000000Y-46500000D03*
X35000000Y-50000000D03*
%TO.N,TCK*%
X38000000Y-32000000D03*
X40000000Y-39500000D03*
%TO.N,TDI*%
X40000000Y-35500000D03*
X35500000Y-37000000D03*
%TO.N,TDO*%
X33500000Y-35000000D03*
X41000000Y-35000000D03*
%TO.N,TRIGOUT_0*%
X41500000Y-29000000D03*
X42500000Y-35000000D03*
%TO.N,TRIGOUT_1*%
X44500000Y-29000000D03*
X44500000Y-35000000D03*
%TO.N,TRIGOUT_2*%
X47500000Y-29000000D03*
X46000000Y-35000000D03*
%TO.N,TRIGOUT_3*%
X51000000Y-29000000D03*
X48000000Y-35000000D03*
%TO.N,TRIGOUT_4*%
X54000000Y-29000000D03*
X49500000Y-35000000D03*
%TO.N,TRIGOUT_5*%
X57500000Y-29000000D03*
X51500000Y-35000000D03*
%TO.N,TRIGOUT_6*%
X60500000Y-29000000D03*
X53500000Y-35000000D03*
%TO.N,TRIGOUT_7*%
X63000000Y-30000000D03*
X55000000Y-35000000D03*
%TO.N,TRIGOUT_8*%
X63000000Y-33000000D03*
X55000000Y-36500000D03*
%TO.N,TRIGOUT_9*%
X59500000Y-33000000D03*
X55000000Y-38500000D03*
%TO.N,TRIGOUT_11*%
X53000000Y-33000000D03*
X55000000Y-42000000D03*
%TO.N,TRIGOUT_12*%
X50000000Y-33000000D03*
X55000000Y-44000000D03*
%TO.N,TRIGOUT_13*%
X46500000Y-33000000D03*
X55000000Y-45500000D03*
%TO.N,TRIGOUT_14*%
X43500000Y-33000000D03*
X55000000Y-47500000D03*
%TO.N,TRIGOUT_15*%
X40500000Y-33000000D03*
X55000000Y-49000000D03*
%TD*%
%TO.N,VCCINT*%
D13*
X54000000Y-50000000D02*
X53500000Y-50000000D01*
X53500000Y-50000000D02*
X53500000Y-49500000D01*
X53500000Y-49500000D02*
X53000000Y-49500000D01*
X53000000Y-49500000D02*
X52500000Y-49500000D01*
X52500000Y-49500000D02*
X52000000Y-49500000D01*
X52000000Y-49500000D02*
X52000000Y-50000000D01*
X52000000Y-50000000D02*
X52000000Y-50500000D01*
X52000000Y-50500000D02*
X51500000Y-50500000D01*
X51500000Y-50500000D02*
X51000000Y-50500000D01*
X51000000Y-50500000D02*
X50500000Y-50500000D01*
X50500000Y-50500000D02*
X50000000Y-50500000D01*
X50000000Y-50500000D02*
X50000000Y-51000000D01*
X50000000Y-51000000D02*
X50000000Y-51500000D01*
X50000000Y-51500000D02*
X50000000Y-52000000D01*
X54000000Y-50000000D02*
X54000000Y-50500000D01*
X54000000Y-50500000D02*
X54500000Y-50500000D01*
X54500000Y-50500000D02*
X55000000Y-50500000D01*
X55000000Y-50500000D02*
X55500000Y-50500000D01*
X55500000Y-50500000D02*
X55500000Y-51000000D01*
X55500000Y-51000000D02*
X55500000Y-51500000D01*
X55500000Y-51500000D02*
X55500000Y-52000000D01*
X55500000Y-52000000D02*
X55500000Y-52500000D01*
X55500000Y-52500000D02*
X55500000Y-53000000D01*
X55500000Y-53000000D02*
X55500000Y-53500000D01*
X55500000Y-53500000D02*
X55500000Y-54000000D01*
X55500000Y-54000000D02*
X55500000Y-54500000D01*
X55500000Y-54500000D02*
X55500000Y-55000000D01*
X55500000Y-55000000D02*
X55500000Y-55500000D01*
X55500000Y-55500000D02*
X55500000Y-56000000D01*
X55500000Y-56000000D02*
X55500000Y-56500000D01*
X55500000Y-56500000D02*
X55500000Y-57000000D01*
X55500000Y-57000000D02*
X55500000Y-57500000D01*
X55500000Y-57500000D02*
X55500000Y-58000000D01*
X55500000Y-58000000D02*
X55000000Y-58000000D01*
%TO.N,VCCAUX*%
X52500000Y-50000000D02*
X53000000Y-50000000D01*
X53000000Y-50000000D02*
X53000000Y-50500000D01*
X53000000Y-50500000D02*
X53000000Y-51000000D01*
X53000000Y-51000000D02*
X53000000Y-51500000D01*
X53000000Y-51500000D02*
X53000000Y-52000000D01*
X53000000Y-52000000D02*
X53500000Y-52000000D01*
X53000000Y-52000000D02*
X52500000Y-52000000D01*
X52500000Y-52000000D02*
X52000000Y-52000000D01*
X52000000Y-52000000D02*
X52000000Y-52500000D01*
X52000000Y-52500000D02*
X52000000Y-53000000D01*
X52000000Y-53000000D02*
X52000000Y-53500000D01*
X52000000Y-53500000D02*
X52000000Y-54000000D01*
X52000000Y-54000000D02*
X52000000Y-54500000D01*
X52000000Y-54500000D02*
X52000000Y-55000000D01*
X52000000Y-55000000D02*
X52000000Y-55500000D01*
X52000000Y-55500000D02*
X52000000Y-56000000D01*
X52000000Y-56000000D02*
X52000000Y-56500000D01*
X52000000Y-56500000D02*
X52000000Y-57000000D01*
X52000000Y-57000000D02*
X52000000Y-57500000D01*
X52000000Y-57500000D02*
X52000000Y-58000000D01*
X52000000Y-58000000D02*
X52000000Y-58500000D01*
X52000000Y-58500000D02*
X52000000Y-59000000D01*
X52000000Y-59000000D02*
X52000000Y-59500000D01*
X52000000Y-59500000D02*
X52000000Y-60000000D01*
X52000000Y-60000000D02*
X52000000Y-60500000D01*
X52000000Y-60500000D02*
X52000000Y-61000000D01*
X52000000Y-61000000D02*
X52000000Y-61500000D01*
X52000000Y-61500000D02*
X52000000Y-62000000D01*
X52000000Y-62000000D02*
X52000000Y-62500000D01*
X52000000Y-62500000D02*
X52000000Y-63000000D01*
X52000000Y-63000000D02*
X52000000Y-63500000D01*
X52000000Y-63500000D02*
X51500000Y-63500000D01*
%TO.N,VCCO_3V3*%
X50500000Y-50000000D02*
X50000000Y-50000000D01*
X48000000Y-52000000D02*
X47500000Y-52000000D01*
X47500000Y-52000000D02*
X47500000Y-52500000D01*
X47500000Y-52500000D02*
X47500000Y-53000000D01*
X47500000Y-53000000D02*
X47500000Y-53500000D01*
X47500000Y-53500000D02*
X47500000Y-54000000D01*
X47500000Y-54000000D02*
X47500000Y-54500000D01*
X47500000Y-54500000D02*
X47500000Y-55000000D01*
X47500000Y-55000000D02*
X47500000Y-55500000D01*
X47500000Y-55500000D02*
X47500000Y-56000000D01*
X47500000Y-56000000D02*
X47500000Y-56500000D01*
X47500000Y-56500000D02*
X47500000Y-57000000D01*
X47500000Y-57000000D02*
X47500000Y-57500000D01*
X47500000Y-57500000D02*
X47500000Y-58000000D01*
X47500000Y-58000000D02*
X47500000Y-58500000D01*
X47500000Y-58500000D02*
X47500000Y-59000000D01*
X47500000Y-53000000D02*
X47000000Y-53000000D01*
X47000000Y-53000000D02*
X46500000Y-53000000D01*
X46500000Y-53000000D02*
X46000000Y-53000000D01*
X46000000Y-53000000D02*
X45500000Y-53000000D01*
X45500000Y-53000000D02*
X45000000Y-53000000D01*
X45000000Y-53000000D02*
X44500000Y-53000000D01*
X44500000Y-53000000D02*
X44000000Y-53000000D01*
X44000000Y-53000000D02*
X43500000Y-53000000D01*
X43500000Y-53000000D02*
X43000000Y-53000000D01*
X43000000Y-53000000D02*
X42500000Y-53000000D01*
X42500000Y-53000000D02*
X42000000Y-53000000D01*
X42000000Y-53000000D02*
X41500000Y-53000000D01*
X41500000Y-53000000D02*
X41000000Y-53000000D01*
X41000000Y-53000000D02*
X40500000Y-53000000D01*
X40500000Y-53000000D02*
X40000000Y-53000000D01*
X40000000Y-53000000D02*
X39500000Y-53000000D01*
X39500000Y-53000000D02*
X39000000Y-53000000D01*
X39000000Y-53000000D02*
X38500000Y-53000000D01*
X38500000Y-53000000D02*
X38000000Y-53000000D01*
X38000000Y-53000000D02*
X38000000Y-52500000D01*
X38000000Y-52500000D02*
X37500000Y-52500000D01*
X37500000Y-52500000D02*
X37500000Y-52000000D01*
X37500000Y-52000000D02*
X37500000Y-51500000D01*
X37500000Y-51500000D02*
X37500000Y-51000000D01*
X37500000Y-51000000D02*
X37000000Y-51000000D01*
X37000000Y-51000000D02*
X36500000Y-51000000D01*
X36500000Y-51000000D02*
X36500000Y-50500000D01*
X36500000Y-50500000D02*
X36000000Y-50500000D01*
X36000000Y-50500000D02*
X36000000Y-50000000D01*
X36000000Y-50000000D02*
X36000000Y-49500000D01*
X36000000Y-49500000D02*
X36000000Y-49000000D01*
X36000000Y-49000000D02*
X35500000Y-49000000D01*
X35500000Y-49000000D02*
X35000000Y-49000000D01*
X35000000Y-49000000D02*
X34500000Y-49000000D01*
X34500000Y-49000000D02*
X34000000Y-49000000D01*
X34000000Y-49000000D02*
X34000000Y-48500000D01*
X34000000Y-48500000D02*
X34000000Y-48000000D01*
X34000000Y-48000000D02*
X34000000Y-47500000D01*
X34000000Y-47500000D02*
X34000000Y-47000000D01*
X34000000Y-47500000D02*
X33500000Y-47500000D01*
X33500000Y-47500000D02*
X33000000Y-47500000D01*
X33000000Y-47500000D02*
X32500000Y-47500000D01*
X32500000Y-47500000D02*
X32000000Y-47500000D01*
X34000000Y-47000000D02*
X34000000Y-46500000D01*
X34000000Y-46500000D02*
X34500000Y-46500000D01*
X34500000Y-46500000D02*
X35000000Y-46500000D01*
X35000000Y-46500000D02*
X35500000Y-46500000D01*
X32000000Y-47500000D02*
X31500000Y-47500000D01*
X31500000Y-47500000D02*
X31000000Y-47500000D01*
X31000000Y-47500000D02*
X31000000Y-47000000D01*
X31000000Y-47000000D02*
X31000000Y-46500000D01*
X31000000Y-46500000D02*
X31000000Y-46000000D01*
X31000000Y-46000000D02*
X31000000Y-45500000D01*
X31000000Y-45500000D02*
X31000000Y-45000000D01*
X31000000Y-45000000D02*
X31000000Y-44500000D01*
X31000000Y-44500000D02*
X31500000Y-44500000D01*
X31500000Y-44500000D02*
X32000000Y-44500000D01*
X32000000Y-44500000D02*
X32000000Y-44000000D01*
X32000000Y-44000000D02*
X32500000Y-44000000D01*
X32500000Y-44000000D02*
X32500000Y-43500000D01*
X32500000Y-43500000D02*
X33000000Y-43500000D01*
X33000000Y-43500000D02*
X33000000Y-43000000D01*
X33000000Y-43000000D02*
X33500000Y-43000000D01*
X33500000Y-43000000D02*
X33500000Y-42500000D01*
X33500000Y-42500000D02*
X34000000Y-42500000D01*
X34000000Y-42500000D02*
X34000000Y-42000000D01*
X34000000Y-42000000D02*
X34500000Y-42000000D01*
X34500000Y-42000000D02*
X35000000Y-42000000D01*
X35000000Y-42000000D02*
X35000000Y-41500000D01*
X35000000Y-41500000D02*
X35000000Y-41000000D01*
X35000000Y-41000000D02*
X35000000Y-40500000D01*
X35000000Y-40500000D02*
X35500000Y-40500000D01*
X35500000Y-40500000D02*
X35500000Y-40000000D01*
X35500000Y-40000000D02*
X36000000Y-40000000D01*
X36000000Y-40000000D02*
X36500000Y-40000000D01*
X36500000Y-40000000D02*
X36500000Y-39500000D01*
X36500000Y-39500000D02*
X36500000Y-39000000D01*
X36500000Y-39000000D02*
X36500000Y-38500000D01*
X36500000Y-38500000D02*
X36500000Y-38000000D01*
X36500000Y-38000000D02*
X36500000Y-37500000D01*
X36500000Y-37500000D02*
X36500000Y-37000000D01*
X36500000Y-37000000D02*
X36500000Y-36500000D01*
X36500000Y-36500000D02*
X36500000Y-36000000D01*
X36500000Y-36000000D02*
X36500000Y-35500000D01*
X36500000Y-35500000D02*
X36500000Y-35000000D01*
X36500000Y-35000000D02*
X36500000Y-34500000D01*
X36500000Y-34500000D02*
X36000000Y-34500000D01*
X36000000Y-34500000D02*
X36000000Y-34000000D01*
X36000000Y-34000000D02*
X36000000Y-33500000D01*
X36000000Y-33500000D02*
X35500000Y-33500000D01*
X35500000Y-33500000D02*
X35000000Y-33500000D01*
X35000000Y-33500000D02*
X35000000Y-33000000D01*
X35000000Y-33000000D02*
X35000000Y-32500000D01*
X35000000Y-32500000D02*
X35000000Y-32000000D01*
X35000000Y-32000000D02*
X34500000Y-32000000D01*
X34500000Y-32000000D02*
X34500000Y-31500000D01*
X34500000Y-31500000D02*
X34000000Y-31500000D01*
X34000000Y-31500000D02*
X33500000Y-31500000D01*
%TO.N,GND*%
X49000000Y-50000000D02*
X48500000Y-50000000D01*
X48500000Y-50000000D02*
X48000000Y-50000000D01*
X48000000Y-50000000D02*
X47500000Y-50000000D01*
X47500000Y-50000000D02*
X47000000Y-50000000D01*
X47000000Y-50000000D02*
X46500000Y-50000000D01*
X46500000Y-50000000D02*
X46000000Y-50000000D01*
X46000000Y-50000000D02*
X45500000Y-50000000D01*
X47000000Y-50000000D02*
X47000000Y-50500000D01*
X47000000Y-50500000D02*
X47000000Y-51000000D01*
X47000000Y-51000000D02*
X47000000Y-51500000D01*
X47000000Y-51500000D02*
X47000000Y-52000000D01*
X49000000Y-50000000D02*
X49500000Y-50000000D01*
X49500000Y-50000000D02*
X49500000Y-50500000D01*
X49500000Y-50500000D02*
X49500000Y-51000000D01*
X49500000Y-51000000D02*
X49500000Y-51500000D01*
X49500000Y-51500000D02*
X49500000Y-52000000D01*
X49500000Y-52000000D02*
X49500000Y-52500000D01*
X49500000Y-52500000D02*
X49500000Y-53000000D01*
X49500000Y-53000000D02*
X50000000Y-53000000D01*
X50000000Y-53000000D02*
X50000000Y-53500000D01*
X50000000Y-53500000D02*
X50000000Y-54000000D01*
X50000000Y-54000000D02*
X50500000Y-54000000D01*
X50000000Y-53000000D02*
X50500000Y-53000000D01*
X50500000Y-53000000D02*
X51000000Y-53000000D01*
X51000000Y-53000000D02*
X51000000Y-52500000D01*
X51000000Y-52500000D02*
X51000000Y-52000000D01*
X45500000Y-50000000D02*
X45000000Y-50000000D01*
X45000000Y-50000000D02*
X44500000Y-50000000D01*
X44500000Y-50000000D02*
X44000000Y-50000000D01*
X44000000Y-50000000D02*
X44000000Y-49500000D01*
X44000000Y-49500000D02*
X43500000Y-49500000D01*
X43500000Y-49500000D02*
X43000000Y-49500000D01*
X43000000Y-49500000D02*
X42500000Y-49500000D01*
X42500000Y-49500000D02*
X42000000Y-49500000D01*
X42000000Y-49500000D02*
X41500000Y-49500000D01*
X41500000Y-49500000D02*
X41000000Y-49500000D01*
X41000000Y-49500000D02*
X41000000Y-49000000D01*
X41000000Y-49000000D02*
X40500000Y-49000000D01*
X40500000Y-49000000D02*
X40500000Y-48500000D01*
X40500000Y-48500000D02*
X40500000Y-48000000D01*
X40500000Y-48000000D02*
X40500000Y-47500000D01*
X40500000Y-47500000D02*
X40000000Y-47500000D01*
X40000000Y-47500000D02*
X40000000Y-47000000D01*
X40000000Y-47000000D02*
X39500000Y-47000000D01*
X39500000Y-47000000D02*
X39000000Y-47000000D01*
X39000000Y-47000000D02*
X38500000Y-47000000D01*
X38500000Y-47000000D02*
X38000000Y-47000000D01*
X38000000Y-47000000D02*
X37500000Y-47000000D01*
X37500000Y-47000000D02*
X37500000Y-46500000D01*
X37500000Y-46500000D02*
X37000000Y-46500000D01*
X37000000Y-46500000D02*
X36500000Y-46500000D01*
X36500000Y-46500000D02*
X36000000Y-46500000D01*
X36000000Y-46500000D02*
X36000000Y-46000000D01*
X36000000Y-46000000D02*
X35500000Y-46000000D01*
X35500000Y-46000000D02*
X35000000Y-46000000D01*
X35000000Y-46000000D02*
X34500000Y-46000000D01*
X34500000Y-46000000D02*
X34000000Y-46000000D01*
X34000000Y-46000000D02*
X33500000Y-46000000D01*
X33500000Y-46000000D02*
X33000000Y-46000000D01*
X33000000Y-46000000D02*
X32500000Y-46000000D01*
X32500000Y-46000000D02*
X32000000Y-46000000D01*
X32000000Y-46000000D02*
X32000000Y-46500000D01*
X37500000Y-46500000D02*
X37500000Y-46000000D01*
X37500000Y-46000000D02*
X37500000Y-45500000D01*
X37500000Y-45500000D02*
X37500000Y-45000000D01*
X37500000Y-45000000D02*
X37500000Y-44500000D01*
X37500000Y-44500000D02*
X37500000Y-44000000D01*
X37500000Y-44000000D02*
X37500000Y-43500000D01*
X37500000Y-43500000D02*
X37500000Y-43000000D01*
X37500000Y-43000000D02*
X37500000Y-42500000D01*
X37500000Y-42500000D02*
X37500000Y-42000000D01*
X37500000Y-42000000D02*
X37500000Y-41500000D01*
X37500000Y-41500000D02*
X37500000Y-41000000D01*
X37500000Y-41000000D02*
X37500000Y-40500000D01*
X37500000Y-40500000D02*
X37500000Y-40000000D01*
X37500000Y-40000000D02*
X38000000Y-40000000D01*
X38000000Y-40000000D02*
X38000000Y-39500000D01*
X38000000Y-39500000D02*
X38000000Y-39000000D01*
X38000000Y-39000000D02*
X37500000Y-39000000D01*
X37500000Y-39000000D02*
X37500000Y-38500000D01*
X37500000Y-38500000D02*
X37500000Y-38000000D01*
X37500000Y-38000000D02*
X37500000Y-37500000D01*
X37500000Y-37500000D02*
X37000000Y-37500000D01*
X37000000Y-37500000D02*
X37000000Y-37000000D01*
X37000000Y-37000000D02*
X37000000Y-36500000D01*
X37000000Y-36500000D02*
X37000000Y-36000000D01*
X37000000Y-36000000D02*
X37000000Y-35500000D01*
X37000000Y-35500000D02*
X37000000Y-35000000D01*
X37000000Y-35000000D02*
X37000000Y-34500000D01*
X37000000Y-34500000D02*
X37000000Y-34000000D01*
X37000000Y-34000000D02*
X37000000Y-33500000D01*
X37000000Y-33500000D02*
X37000000Y-33000000D01*
X37000000Y-33000000D02*
X37000000Y-32500000D01*
X37000000Y-32500000D02*
X37000000Y-32000000D01*
X37000000Y-32000000D02*
X37000000Y-31500000D01*
X37000000Y-31500000D02*
X37000000Y-31000000D01*
X37000000Y-31000000D02*
X37000000Y-30500000D01*
X37000000Y-30500000D02*
X36500000Y-30500000D01*
X36500000Y-30500000D02*
X36500000Y-30000000D01*
X36500000Y-30000000D02*
X36000000Y-30000000D01*
X37000000Y-30500000D02*
X37500000Y-30500000D01*
X37500000Y-30500000D02*
X38000000Y-30500000D01*
X38000000Y-30500000D02*
X38500000Y-30500000D01*
X38500000Y-30500000D02*
X39000000Y-30500000D01*
X39000000Y-30500000D02*
X39500000Y-30500000D01*
X51000000Y-53000000D02*
X51500000Y-53000000D01*
%TO.N,DIN*%
D14*
X40000000Y-50000000D02*
X39500000Y-50000000D01*
X39500000Y-50000000D02*
X39000000Y-50000000D01*
X39000000Y-50000000D02*
X38500000Y-50000000D01*
X38500000Y-50000000D02*
X38000000Y-50000000D01*
X38000000Y-50000000D02*
X38000000Y-49500000D01*
%TO.N,DOUT*%
X40000000Y-48000000D02*
X39500000Y-48000000D01*
X39500000Y-48000000D02*
X39000000Y-48000000D01*
X39000000Y-48000000D02*
X38500000Y-48000000D01*
X38500000Y-48000000D02*
X38000000Y-48000000D01*
X38000000Y-48000000D02*
X38000000Y-48500000D01*
X38000000Y-48500000D02*
X37500000Y-48500000D01*
X37500000Y-48500000D02*
X37000000Y-48500000D01*
X37000000Y-48500000D02*
X37000000Y-49000000D01*
X37000000Y-49000000D02*
X37000000Y-49500000D01*
X37000000Y-49500000D02*
X37000000Y-50000000D01*
X37000000Y-50000000D02*
X36500000Y-50000000D01*
%TO.N,TMS*%
X40000000Y-37500000D02*
X39500000Y-37500000D01*
X39500000Y-37500000D02*
X39000000Y-37500000D01*
X39000000Y-37500000D02*
X39000000Y-37000000D01*
X39000000Y-37000000D02*
X38500000Y-37000000D01*
X38500000Y-37000000D02*
X38500000Y-36500000D01*
X38500000Y-36500000D02*
X38000000Y-36500000D01*
X38000000Y-36500000D02*
X38000000Y-36000000D01*
X38000000Y-36000000D02*
X38000000Y-35500000D01*
%TO.N,TRIGOUT_10*%
X55000000Y-40000000D02*
X55500000Y-40000000D01*
X55500000Y-40000000D02*
X55500000Y-39500000D01*
X55500000Y-39500000D02*
X56000000Y-39500000D01*
X56000000Y-39500000D02*
X56000000Y-39000000D01*
X56000000Y-39000000D02*
X56000000Y-38500000D01*
X56000000Y-38500000D02*
X56000000Y-38000000D01*
X56000000Y-38000000D02*
X56000000Y-37500000D01*
X56000000Y-37500000D02*
X56000000Y-37000000D01*
X56000000Y-37000000D02*
X56000000Y-36500000D01*
X56000000Y-36500000D02*
X56000000Y-36000000D01*
X56000000Y-36000000D02*
X56000000Y-35500000D01*
X56000000Y-35500000D02*
X56000000Y-35000000D01*
X56000000Y-35000000D02*
X56000000Y-34500000D01*
X56000000Y-34500000D02*
X56000000Y-34000000D01*
X56000000Y-34000000D02*
X56500000Y-34000000D01*
X56500000Y-34000000D02*
X56500000Y-33500000D01*
X56500000Y-33500000D02*
X56500000Y-33000000D01*
%TD*%
M02*
