%TF.GenerationSoftware,KiCad,Pcbnew,10.0.3*%
%TF.CreationDate,2026-06-21T15:42:45-04:00*%
%TF.ProjectId,hv7355_tile,68763733-3535-45f7-9469-6c652e6b6963,rev?*%
%TF.SameCoordinates,Original*%
%TF.FileFunction,Copper,L4,Bot*%
%TF.FilePolarity,Positive*%
%FSLAX46Y46*%
G04 Gerber Fmt 4.6, Leading zero omitted, Abs format (unit mm)*
G04 Created by KiCad (PCBNEW 10.0.3) date 2026-06-21 15:42:45*
%MOMM*%
%LPD*%
G01*
G04 APERTURE LIST*
%TA.AperFunction,ComponentPad*%
%ADD10C,1.000000*%
%TD*%
%TA.AperFunction,ViaPad*%
%ADD11C,0.460000*%
%TD*%
%TA.AperFunction,Conductor*%
%ADD12C,0.250000*%
%TD*%
G04 APERTURE END LIST*
D10*
%TO.P,J_STACK,1*%
%TO.N,VPP*%
X21030000Y-5730000D03*
%TO.P,J_STACK,2*%
%TO.N,GND*%
X21030000Y-8270000D03*
%TO.P,J_STACK,3*%
%TO.N,VPP*%
X23570000Y-5730000D03*
%TO.P,J_STACK,4*%
%TO.N,GND*%
X23570000Y-8270000D03*
%TO.P,J_STACK,5*%
%TO.N,P5V*%
X26110000Y-5730000D03*
%TO.P,J_STACK,6*%
%TO.N,GND*%
X26110000Y-8270000D03*
%TO.P,J_STACK,7*%
%TO.N,P3V3*%
X28650000Y-5730000D03*
%TO.P,J_STACK,8*%
%TO.N,GND*%
X28650000Y-8270000D03*
%TO.P,J_STACK,9*%
%TO.N,BUS_SCLK*%
X31190000Y-5730000D03*
%TO.P,J_STACK,10*%
%TO.N,GND*%
X31190000Y-8270000D03*
%TO.P,J_STACK,11*%
%TO.N,BUS_SDI*%
X33730000Y-5730000D03*
%TO.P,J_STACK,12*%
%TO.N,GND*%
X33730000Y-8270000D03*
%TO.P,J_STACK,13*%
%TO.N,BUS_SDO*%
X36270000Y-5730000D03*
%TO.P,J_STACK,14*%
%TO.N,GND*%
X36270000Y-8270000D03*
%TO.P,J_STACK,15*%
%TO.N,BUS_LATCH*%
X38810000Y-5730000D03*
%TO.P,J_STACK,16*%
%TO.N,GND*%
X38810000Y-8270000D03*
%TO.P,J_STACK,17*%
%TO.N,BUS_nRST*%
X41350000Y-5730000D03*
%TO.P,J_STACK,18*%
%TO.N,GND*%
X41350000Y-8270000D03*
%TO.P,J_STACK,19*%
%TO.N,CHAIN_IN*%
X43890000Y-5730000D03*
%TO.P,J_STACK,20*%
%TO.N,GND*%
X43890000Y-8270000D03*
%TO.P,J_STACK,21*%
%TO.N,CHAIN_OUT*%
X46430000Y-5730000D03*
%TO.P,J_STACK,22*%
%TO.N,GND*%
X46430000Y-8270000D03*
%TO.P,J_STACK,23*%
%TO.N,P3V3*%
X48970000Y-5730000D03*
%TO.P,J_STACK,24*%
%TO.N,GND*%
X48970000Y-8270000D03*
%TD*%
D11*
%TO.N,VPP*%
X43000000Y-47000000D03*
X45500000Y-47000000D03*
%TO.N,GND*%
X26500000Y-10500000D03*
X51500000Y-11000000D03*
X52500000Y-13000000D03*
X27500000Y-21500000D03*
X40000000Y-22000000D03*
X28000000Y-23000000D03*
X28000000Y-24500000D03*
X29000000Y-25000000D03*
X28500000Y-27500000D03*
X36500000Y-31000000D03*
X39500000Y-43500000D03*
X45000000Y-44000000D03*
X51500000Y-45500000D03*
%TO.N,P3V3*%
X28000000Y-4500000D03*
X25000000Y-10000000D03*
X37500000Y-29000000D03*
X47500000Y-41000000D03*
X45000000Y-43000000D03*
X41000000Y-43500000D03*
%TO.N,P5V*%
X26000000Y-4500000D03*
X50000000Y-36000000D03*
%TO.N,TRIGIN_0*%
X35500000Y-19500000D03*
X38500000Y-21000000D03*
X39000000Y-22000000D03*
%TO.N,TRIGIN_1*%
X35500000Y-21500000D03*
X35500000Y-23000000D03*
%TO.N,TRIGIN_3*%
X35500000Y-20500000D03*
X33000000Y-22000000D03*
%TO.N,TRIGIN_5*%
X29500000Y-22000000D03*
X32500000Y-22500000D03*
%TO.N,TRIGIN_6*%
X28000000Y-22000000D03*
X33500000Y-24500000D03*
%TO.N,TRIGIN_7*%
X26500000Y-22000000D03*
X33500000Y-25500000D03*
%TO.N,TRIGIN_8*%
X25000000Y-22000000D03*
X27500000Y-35500000D03*
X27500000Y-36000000D03*
%TO.N,TRIGIN_9*%
X24000000Y-21000000D03*
X28500000Y-36000000D03*
%TO.N,TRIGIN_10*%
X24000000Y-19500000D03*
X29000000Y-36500000D03*
%TO.N,TRIGIN_11*%
X24000000Y-18000000D03*
X29000000Y-38000000D03*
%TO.N,TRIGIN_12*%
X24000000Y-16500000D03*
X29000000Y-28500000D03*
X29500000Y-29000000D03*
%TO.N,TRIGIN_13*%
X24000000Y-14500000D03*
X30500000Y-29000000D03*
%TO.N,TRIGIN_14*%
X24000000Y-13000000D03*
X31500000Y-28500000D03*
X31500000Y-29500000D03*
%TO.N,TRIGIN_15*%
X24000000Y-11500000D03*
X31500000Y-30500000D03*
%TO.N,TRIG_0*%
X37000000Y-19000000D03*
X37500000Y-26000000D03*
%TO.N,TRIG_1*%
X38000000Y-19000000D03*
X37500000Y-24500000D03*
%TO.N,TRIG_2*%
X39500000Y-19000000D03*
X38500000Y-24000000D03*
%TO.N,TRIG_3*%
X40500000Y-19000000D03*
X40000000Y-24000000D03*
%TO.N,TRIG_4*%
X41500000Y-24000000D03*
X36500000Y-25500000D03*
%TO.N,TRIG_5*%
X43000000Y-24000000D03*
X32000000Y-27000000D03*
%TO.N,TRIG_6*%
X44500000Y-24000000D03*
X44000000Y-24500000D03*
X31000000Y-27000000D03*
%TO.N,TRIG_7*%
X44500000Y-25500000D03*
X29500000Y-27000000D03*
%TO.N,TRIG_8*%
X29000000Y-39000000D03*
X38000000Y-43500000D03*
%TO.N,TRIG_9*%
X28000000Y-39000000D03*
X36500000Y-43500000D03*
%TO.N,TRIG_10*%
X27000000Y-39000000D03*
X36000000Y-42500000D03*
%TO.N,TRIG_11*%
X26000000Y-39000000D03*
X36000000Y-41000000D03*
%TO.N,TRIG_12*%
X31500000Y-32000000D03*
X36000000Y-39500000D03*
%TO.N,TRIG_13*%
X30500000Y-32000000D03*
X32500000Y-37500000D03*
X36000000Y-38000000D03*
%TO.N,TRIG_14*%
X29000000Y-32000000D03*
X36000000Y-36500000D03*
%TO.N,TRIG_15*%
X28000000Y-32000000D03*
X37500000Y-36500000D03*
%TO.N,OUT_1*%
X44500000Y-29000000D03*
X42000000Y-33000000D03*
%TO.N,OUT_2*%
X56000000Y-21500000D03*
X44500000Y-30000000D03*
%TO.N,OUT_3*%
X47000000Y-27500000D03*
X47000000Y-28500000D03*
%TO.N,OUT_4*%
X49500000Y-27500000D03*
X56500000Y-27500000D03*
%TO.N,OUT_5*%
X46500000Y-31000000D03*
X42000000Y-31500000D03*
X45500000Y-32000000D03*
X46500000Y-32000000D03*
%TO.N,OUT_6*%
X42500000Y-30500000D03*
X43500000Y-31000000D03*
X49000000Y-32000000D03*
X53500000Y-32000000D03*
%TO.N,OUT_10*%
X46000000Y-39500000D03*
X54000000Y-39500000D03*
%TO.N,OUT_13*%
X56000000Y-29000000D03*
X44500000Y-40500000D03*
X46500000Y-40500000D03*
%TO.N,TX_0*%
X50500000Y-17000000D03*
X53500000Y-17000000D03*
%TO.N,TX_1*%
X54000000Y-17500000D03*
X43500000Y-33500000D03*
%TO.N,TX_3*%
X50500000Y-23000000D03*
X53500000Y-23000000D03*
%TO.N,TX_4*%
X55500000Y-26500000D03*
X56500000Y-26500000D03*
%TO.N,TX_5*%
X49500000Y-29500000D03*
X53500000Y-29500000D03*
%TO.N,TX_7*%
X49000000Y-33500000D03*
X52500000Y-33500000D03*
%TO.N,TX_10*%
X50500000Y-28500000D03*
X55000000Y-28500000D03*
%TO.N,TX_11*%
X50000000Y-25500000D03*
X44500000Y-47500000D03*
%TO.N,TX_12*%
X46000000Y-27500000D03*
X46000000Y-36000000D03*
%TO.N,TX_13*%
X50500000Y-20000000D03*
X53500000Y-20000000D03*
%TO.N,BUS_SCLK*%
X31000000Y-4500000D03*
X28000000Y-10500000D03*
%TO.N,BUS_SDI*%
X33500000Y-4500000D03*
X29500000Y-10500000D03*
%TO.N,BUS_SDO*%
X36500000Y-4500000D03*
X31500000Y-10500000D03*
%TO.N,BUS_LATCH*%
X39000000Y-4500000D03*
X33000000Y-10500000D03*
%TO.N,BUS_nRST*%
X41500000Y-4500000D03*
X34500000Y-10500000D03*
%TO.N,CHAIN_IN*%
X44000000Y-4500000D03*
X35500000Y-16500000D03*
%TO.N,CHAIN_OUT*%
X46500000Y-4500000D03*
X35500000Y-18000000D03*
%TD*%
%TO.N,OUT_2*%
D12*
X55500000Y-23000000D02*
X56000000Y-23000000D01*
X55000000Y-24000000D02*
X55500000Y-24000000D01*
X49500000Y-24500000D02*
X55000000Y-24500000D01*
X49000000Y-25000000D02*
X49500000Y-25000000D01*
X48500000Y-25500000D02*
X49000000Y-25500000D01*
X47000000Y-26500000D02*
X48500000Y-26500000D01*
X46500000Y-27000000D02*
X47000000Y-27000000D01*
X45000000Y-29000000D02*
X46500000Y-29000000D01*
X44500000Y-29500000D02*
X45000000Y-29500000D01*
X44500000Y-29500000D02*
X44500000Y-30000000D01*
X45000000Y-29000000D02*
X45000000Y-29500000D01*
X46500000Y-27000000D02*
X46500000Y-29000000D01*
X47000000Y-26500000D02*
X47000000Y-27000000D01*
X48500000Y-25500000D02*
X48500000Y-26500000D01*
X49000000Y-25000000D02*
X49000000Y-25500000D01*
X49500000Y-24500000D02*
X49500000Y-25000000D01*
X55000000Y-24000000D02*
X55000000Y-24500000D01*
X55500000Y-23000000D02*
X55500000Y-24000000D01*
X56000000Y-21500000D02*
X56000000Y-23000000D01*
%TO.N,OUT_13*%
X55000000Y-29000000D02*
X56000000Y-29000000D01*
X54500000Y-30500000D02*
X55000000Y-30500000D01*
X53000000Y-31000000D02*
X54500000Y-31000000D01*
X52500000Y-31500000D02*
X53000000Y-31500000D01*
X51500000Y-32500000D02*
X52500000Y-32500000D01*
X51000000Y-34000000D02*
X51500000Y-34000000D01*
X50000000Y-38000000D02*
X51000000Y-38000000D01*
X49500000Y-38500000D02*
X50000000Y-38500000D01*
X48500000Y-39500000D02*
X49500000Y-39500000D01*
X46500000Y-40500000D02*
X48500000Y-40500000D01*
X48500000Y-39500000D02*
X48500000Y-40500000D01*
X49500000Y-38500000D02*
X49500000Y-39500000D01*
X50000000Y-38000000D02*
X50000000Y-38500000D01*
X51000000Y-34000000D02*
X51000000Y-38000000D01*
X51500000Y-32500000D02*
X51500000Y-34000000D01*
X52500000Y-31500000D02*
X52500000Y-32500000D01*
X53000000Y-31000000D02*
X53000000Y-31500000D01*
X54500000Y-30500000D02*
X54500000Y-31000000D01*
X55000000Y-29000000D02*
X55000000Y-30500000D01*
%TO.N,TX_1*%
X53500000Y-18000000D02*
X54000000Y-18000000D01*
X52500000Y-19500000D02*
X53500000Y-19500000D01*
X52000000Y-20000000D02*
X52500000Y-20000000D01*
X50000000Y-20500000D02*
X52000000Y-20500000D01*
X48500000Y-21500000D02*
X50000000Y-21500000D01*
X47500000Y-22000000D02*
X48500000Y-22000000D01*
X47000000Y-23000000D02*
X47500000Y-23000000D01*
X45500000Y-23500000D02*
X47000000Y-23500000D01*
X43500000Y-26500000D02*
X45500000Y-26500000D01*
X43000000Y-27000000D02*
X43500000Y-27000000D01*
X42500000Y-28000000D02*
X43000000Y-28000000D01*
X40500000Y-28500000D02*
X42500000Y-28500000D01*
X40500000Y-32000000D02*
X43500000Y-32000000D01*
X40500000Y-28500000D02*
X40500000Y-32000000D01*
X42500000Y-28000000D02*
X42500000Y-28500000D01*
X43000000Y-27000000D02*
X43000000Y-28000000D01*
X43500000Y-26500000D02*
X43500000Y-27000000D01*
X43500000Y-32000000D02*
X43500000Y-33500000D01*
X45500000Y-23500000D02*
X45500000Y-26500000D01*
X47000000Y-23000000D02*
X47000000Y-23500000D01*
X47500000Y-22000000D02*
X47500000Y-23000000D01*
X48500000Y-21500000D02*
X48500000Y-22000000D01*
X50000000Y-20500000D02*
X50000000Y-21500000D01*
X52000000Y-20000000D02*
X52000000Y-20500000D01*
X52500000Y-19500000D02*
X52500000Y-20000000D01*
X53500000Y-18000000D02*
X53500000Y-19500000D01*
X54000000Y-17500000D02*
X54000000Y-18000000D01*
%TO.N,TX_11*%
X49500000Y-26500000D02*
X50000000Y-26500000D01*
X49000000Y-27000000D02*
X49500000Y-27000000D01*
X48500000Y-28000000D02*
X49000000Y-28000000D01*
X48000000Y-32000000D02*
X48500000Y-32000000D01*
X47500000Y-34000000D02*
X48000000Y-34000000D01*
X46500000Y-35000000D02*
X47500000Y-35000000D01*
X46000000Y-40000000D02*
X46500000Y-40000000D01*
X45000000Y-45000000D02*
X46000000Y-45000000D01*
X44500000Y-47000000D02*
X45000000Y-47000000D01*
X44500000Y-47000000D02*
X44500000Y-47500000D01*
X45000000Y-45000000D02*
X45000000Y-47000000D01*
X46000000Y-40000000D02*
X46000000Y-45000000D01*
X46500000Y-35000000D02*
X46500000Y-40000000D01*
X47500000Y-34000000D02*
X47500000Y-35000000D01*
X48000000Y-32000000D02*
X48000000Y-34000000D01*
X48500000Y-28000000D02*
X48500000Y-32000000D01*
X49000000Y-27000000D02*
X49000000Y-28000000D01*
X49500000Y-26500000D02*
X49500000Y-27000000D01*
X50000000Y-25500000D02*
X50000000Y-26500000D01*
%TD*%
%TA.AperFunction,Conductor*%
%TO.N,OUT_2*%
G36*
X56164047Y-21518907D02*
G01*
X56200011Y-21568407D01*
X56202373Y-21621028D01*
X56142568Y-21883033D01*
X56140207Y-21886985D01*
X56140207Y-21891593D01*
X56124708Y-21912924D01*
X56111187Y-21935555D01*
X56106951Y-21937365D01*
X56104243Y-21941093D01*
X56079168Y-21949239D01*
X56054925Y-21959602D01*
X56046052Y-21960000D01*
X55953948Y-21960000D01*
X55895757Y-21941093D01*
X55859793Y-21891593D01*
X55857435Y-21883051D01*
X55797626Y-21621028D01*
X55803110Y-21560092D01*
X55843366Y-21514014D01*
X55894144Y-21500000D01*
X56105856Y-21500000D01*
X56164047Y-21518907D01*
G37*
%TD.AperFunction*%
%TD*%
%TA.AperFunction,Conductor*%
%TO.N,OUT_2*%
G36*
X44883036Y-29857432D02*
G01*
X44886986Y-29859792D01*
X44891593Y-29859792D01*
X44912924Y-29875290D01*
X44935555Y-29888812D01*
X44937365Y-29893047D01*
X44941093Y-29895756D01*
X44949239Y-29920830D01*
X44959602Y-29945074D01*
X44960000Y-29953947D01*
X44960000Y-30046050D01*
X44941093Y-30104241D01*
X44891593Y-30140205D01*
X44883031Y-30142567D01*
X44687258Y-30187254D01*
X44687257Y-30187254D01*
X44730000Y-30000000D01*
X44500000Y-30000000D01*
X44500000Y-29894143D01*
X44518907Y-29835952D01*
X44568407Y-29799988D01*
X44621024Y-29797625D01*
X44883036Y-29857432D01*
G37*
%TD.AperFunction*%
%TD*%
%TA.AperFunction,Conductor*%
%TO.N,OUT_2*%
G36*
X44687256Y-30187255D02*
G01*
X44687256Y-30187256D01*
X44642569Y-30383031D01*
X44640206Y-30386985D01*
X44640206Y-30391593D01*
X44624707Y-30412924D01*
X44611186Y-30435555D01*
X44606950Y-30437365D01*
X44604242Y-30441093D01*
X44579167Y-30449239D01*
X44554924Y-30459602D01*
X44546051Y-30460000D01*
X44453948Y-30460000D01*
X44395757Y-30441093D01*
X44359793Y-30391593D01*
X44357435Y-30383051D01*
X44297626Y-30121028D01*
X44303110Y-30060092D01*
X44343366Y-30014014D01*
X44394144Y-30000000D01*
X44499999Y-30000000D01*
X44500000Y-30000000D01*
X44730000Y-30000000D01*
X44687256Y-30187255D01*
G37*
%TD.AperFunction*%
%TD*%
%TA.AperFunction,Conductor*%
%TO.N,OUT_13*%
G36*
X55939908Y-28803109D02*
G01*
X55985986Y-28843365D01*
X56000000Y-28894143D01*
X56000000Y-29105856D01*
X55981093Y-29164047D01*
X55931593Y-29200011D01*
X55878971Y-29202373D01*
X55616966Y-29142568D01*
X55613014Y-29140207D01*
X55608407Y-29140207D01*
X55587075Y-29124708D01*
X55564445Y-29111187D01*
X55562634Y-29106951D01*
X55558907Y-29104243D01*
X55550760Y-29079168D01*
X55540398Y-29054925D01*
X55540000Y-29046052D01*
X55540000Y-28953947D01*
X55558907Y-28895756D01*
X55608407Y-28859792D01*
X55616927Y-28857440D01*
X55878974Y-28797625D01*
X55939908Y-28803109D01*
G37*
%TD.AperFunction*%
%TD*%
%TA.AperFunction,Conductor*%
%TO.N,OUT_13*%
G36*
X46883036Y-40357432D02*
G01*
X46886986Y-40359792D01*
X46891593Y-40359792D01*
X46912924Y-40375290D01*
X46935555Y-40388812D01*
X46937365Y-40393047D01*
X46941093Y-40395756D01*
X46949239Y-40420830D01*
X46959602Y-40445074D01*
X46960000Y-40453947D01*
X46960000Y-40546052D01*
X46941093Y-40604243D01*
X46891593Y-40640207D01*
X46883051Y-40642564D01*
X46621028Y-40702373D01*
X46560092Y-40696890D01*
X46514014Y-40656634D01*
X46500000Y-40605856D01*
X46500000Y-40394143D01*
X46518907Y-40335952D01*
X46568407Y-40299988D01*
X46621024Y-40297625D01*
X46883036Y-40357432D01*
G37*
%TD.AperFunction*%
%TD*%
%TA.AperFunction,Conductor*%
%TO.N,TX_1*%
G36*
X53939908Y-17303109D02*
G01*
X53985986Y-17343365D01*
X54000000Y-17394143D01*
X54000000Y-17500000D01*
X53770000Y-17500000D01*
X53812743Y-17687256D01*
X53812742Y-17687255D01*
X53616969Y-17642567D01*
X53613016Y-17640205D01*
X53608407Y-17640205D01*
X53587067Y-17624701D01*
X53564445Y-17611184D01*
X53562635Y-17606949D01*
X53558907Y-17604241D01*
X53550758Y-17579162D01*
X53540398Y-17554922D01*
X53540000Y-17546050D01*
X53540000Y-17453947D01*
X53558907Y-17395756D01*
X53608407Y-17359792D01*
X53616927Y-17357440D01*
X53878974Y-17297625D01*
X53939908Y-17303109D01*
G37*
%TD.AperFunction*%
%TD*%
%TA.AperFunction,Conductor*%
%TO.N,TX_1*%
G36*
X54164047Y-17518907D02*
G01*
X54200011Y-17568407D01*
X54202373Y-17621028D01*
X54142568Y-17883033D01*
X54140207Y-17886985D01*
X54140207Y-17891593D01*
X54124708Y-17912924D01*
X54111187Y-17935555D01*
X54106951Y-17937365D01*
X54104243Y-17941093D01*
X54079168Y-17949239D01*
X54054925Y-17959602D01*
X54046052Y-17960000D01*
X53953948Y-17960000D01*
X53895757Y-17941093D01*
X53859793Y-17891593D01*
X53857435Y-17883051D01*
X53770000Y-17500000D01*
X54000000Y-17500000D01*
X54000001Y-17500000D01*
X54105856Y-17500000D01*
X54164047Y-17518907D01*
G37*
%TD.AperFunction*%
%TD*%
%TA.AperFunction,Conductor*%
%TO.N,TX_1*%
G36*
X43604243Y-33058907D02*
G01*
X43640207Y-33108407D01*
X43642564Y-33116948D01*
X43702373Y-33378971D01*
X43696890Y-33439908D01*
X43656634Y-33485986D01*
X43605856Y-33500000D01*
X43394144Y-33500000D01*
X43335953Y-33481093D01*
X43299989Y-33431593D01*
X43297626Y-33378971D01*
X43357431Y-33116966D01*
X43359793Y-33113014D01*
X43359793Y-33108407D01*
X43375291Y-33087075D01*
X43388813Y-33064445D01*
X43393048Y-33062634D01*
X43395757Y-33058907D01*
X43420831Y-33050760D01*
X43445075Y-33040398D01*
X43453948Y-33040000D01*
X43546052Y-33040000D01*
X43604243Y-33058907D01*
G37*
%TD.AperFunction*%
%TD*%
%TA.AperFunction,Conductor*%
%TO.N,TX_11*%
G36*
X50164047Y-25518907D02*
G01*
X50200011Y-25568407D01*
X50202373Y-25621028D01*
X50142568Y-25883033D01*
X50140207Y-25886985D01*
X50140207Y-25891593D01*
X50124708Y-25912924D01*
X50111187Y-25935555D01*
X50106951Y-25937365D01*
X50104243Y-25941093D01*
X50079168Y-25949239D01*
X50054925Y-25959602D01*
X50046052Y-25960000D01*
X49953948Y-25960000D01*
X49895757Y-25941093D01*
X49859793Y-25891593D01*
X49857435Y-25883051D01*
X49797626Y-25621028D01*
X49803110Y-25560092D01*
X49843366Y-25514014D01*
X49894144Y-25500000D01*
X50105856Y-25500000D01*
X50164047Y-25518907D01*
G37*
%TD.AperFunction*%
%TD*%
%TA.AperFunction,Conductor*%
%TO.N,TX_11*%
G36*
X44883036Y-47357432D02*
G01*
X44886986Y-47359792D01*
X44891593Y-47359792D01*
X44912924Y-47375290D01*
X44935555Y-47388812D01*
X44937365Y-47393047D01*
X44941093Y-47395756D01*
X44949239Y-47420830D01*
X44959602Y-47445074D01*
X44960000Y-47453947D01*
X44960000Y-47546050D01*
X44941093Y-47604241D01*
X44891593Y-47640205D01*
X44883031Y-47642567D01*
X44687258Y-47687254D01*
X44687257Y-47687254D01*
X44730000Y-47500000D01*
X44500000Y-47500000D01*
X44500000Y-47394143D01*
X44518907Y-47335952D01*
X44568407Y-47299988D01*
X44621024Y-47297625D01*
X44883036Y-47357432D01*
G37*
%TD.AperFunction*%
%TD*%
%TA.AperFunction,Conductor*%
%TO.N,TX_11*%
G36*
X44687256Y-47687255D02*
G01*
X44687256Y-47687256D01*
X44642569Y-47883031D01*
X44640206Y-47886985D01*
X44640206Y-47891593D01*
X44624707Y-47912924D01*
X44611186Y-47935555D01*
X44606950Y-47937365D01*
X44604242Y-47941093D01*
X44579167Y-47949239D01*
X44554924Y-47959602D01*
X44546051Y-47960000D01*
X44453948Y-47960000D01*
X44395757Y-47941093D01*
X44359793Y-47891593D01*
X44357435Y-47883051D01*
X44297626Y-47621028D01*
X44303110Y-47560092D01*
X44343366Y-47514014D01*
X44394144Y-47500000D01*
X44499999Y-47500000D01*
X44500000Y-47500000D01*
X44730000Y-47500000D01*
X44687256Y-47687255D01*
G37*
%TD.AperFunction*%
%TD*%
M02*
