M48
; DRILL file KiCad 10.0.3 date 2026-06-21T15:42:45
; FORMAT={-:-/ absolute / metric / decimal}
; #@! TF.CreationDate,2026-06-21T15:42:45-04:00
; #@! TF.GenerationSoftware,Kicad,Pcbnew,10.0.3
; #@! TF.FileFunction,MixedPlating,1,4
FMAT,2
METRIC
; #@! TA.AperFunction,Plated,PTH,ViaDrill
T1C0.200
; #@! TA.AperFunction,Plated,PTH,ComponentDrill
T2C0.500
; #@! TA.AperFunction,NonPlated,NPTH,ComponentDrill
T3C3.200
%
G90
G05
T1
X24.0Y-11.5
X24.0Y-13.0
X24.0Y-14.5
X24.0Y-16.5
X24.0Y-18.0
X24.0Y-19.5
X24.0Y-21.0
X25.0Y-10.0
X25.0Y-22.0
X26.0Y-4.5
X26.0Y-39.0
X26.5Y-10.5
X26.5Y-22.0
X27.0Y-39.0
X27.5Y-21.5
X27.5Y-35.5
X27.5Y-36.0
X28.0Y-4.5
X28.0Y-10.5
X28.0Y-22.0
X28.0Y-23.0
X28.0Y-24.5
X28.0Y-32.0
X28.0Y-39.0
X28.5Y-27.5
X28.5Y-36.0
X29.0Y-25.0
X29.0Y-28.5
X29.0Y-32.0
X29.0Y-36.5
X29.0Y-38.0
X29.0Y-39.0
X29.5Y-10.5
X29.5Y-22.0
X29.5Y-27.0
X29.5Y-29.0
X30.5Y-29.0
X30.5Y-32.0
X31.0Y-4.5
X31.0Y-27.0
X31.5Y-10.5
X31.5Y-28.5
X31.5Y-29.5
X31.5Y-30.5
X31.5Y-32.0
X32.0Y-27.0
X32.5Y-22.5
X32.5Y-37.5
X33.0Y-10.5
X33.0Y-22.0
X33.5Y-4.5
X33.5Y-24.5
X33.5Y-25.5
X34.5Y-10.5
X35.5Y-16.5
X35.5Y-18.0
X35.5Y-19.5
X35.5Y-20.5
X35.5Y-21.5
X35.5Y-23.0
X36.0Y-36.5
X36.0Y-38.0
X36.0Y-39.5
X36.0Y-41.0
X36.0Y-42.5
X36.5Y-4.5
X36.5Y-25.5
X36.5Y-31.0
X36.5Y-43.5
X37.0Y-19.0
X37.5Y-24.5
X37.5Y-26.0
X37.5Y-29.0
X37.5Y-36.5
X38.0Y-19.0
X38.0Y-43.5
X38.5Y-21.0
X38.5Y-24.0
X39.0Y-4.5
X39.0Y-22.0
X39.5Y-19.0
X39.5Y-43.5
X40.0Y-22.0
X40.0Y-24.0
X40.5Y-19.0
X41.0Y-43.5
X41.5Y-4.5
X41.5Y-24.0
X42.0Y-31.5
X42.0Y-33.0
X42.5Y-30.5
X43.0Y-24.0
X43.0Y-47.0
X43.5Y-31.0
X43.5Y-33.5
X44.0Y-4.5
X44.0Y-24.5
X44.5Y-24.0
X44.5Y-25.5
X44.5Y-29.0
X44.5Y-30.0
X44.5Y-40.5
X44.5Y-47.5
X45.0Y-43.0
X45.0Y-44.0
X45.5Y-32.0
X45.5Y-47.0
X46.0Y-27.5
X46.0Y-36.0
X46.0Y-39.5
X46.5Y-4.5
X46.5Y-31.0
X46.5Y-32.0
X46.5Y-40.5
X47.0Y-27.5
X47.0Y-28.5
X47.5Y-41.0
X49.0Y-32.0
X49.0Y-33.5
X49.5Y-27.5
X49.5Y-29.5
X50.0Y-25.5
X50.0Y-36.0
X50.5Y-17.0
X50.5Y-20.0
X50.5Y-23.0
X50.5Y-28.5
X51.5Y-11.0
X51.5Y-45.5
X52.5Y-13.0
X52.5Y-33.5
X53.5Y-17.0
X53.5Y-20.0
X53.5Y-23.0
X53.5Y-29.5
X53.5Y-32.0
X54.0Y-17.5
X54.0Y-39.5
X55.0Y-28.5
X55.5Y-26.5
X56.0Y-21.5
X56.0Y-29.0
X56.5Y-26.5
X56.5Y-27.5
T2
X21.03Y-5.73
X21.03Y-8.27
X23.57Y-5.73
X23.57Y-8.27
X26.11Y-5.73
X26.11Y-8.27
X28.65Y-5.73
X28.65Y-8.27
X31.19Y-5.73
X31.19Y-8.27
X33.73Y-5.73
X33.73Y-8.27
X36.27Y-5.73
X36.27Y-8.27
X38.81Y-5.73
X38.81Y-8.27
X41.35Y-5.73
X41.35Y-8.27
X43.89Y-5.73
X43.89Y-8.27
X46.43Y-5.73
X46.43Y-8.27
X48.97Y-5.73
X48.97Y-8.27
T3
X5.04Y-5.04
X5.04Y-50.96
X64.96Y-5.04
X64.96Y-50.96
M30
