%TF.GenerationSoftware,KiCad,Pcbnew,10.0.3*%
%TF.CreationDate,2026-06-21T15:42:45-04:00*%
%TF.ProjectId,hv7355_tile,68763733-3535-45f7-9469-6c652e6b6963,rev?*%
%TF.SameCoordinates,Original*%
%TF.FileFunction,Legend,Top*%
%TF.FilePolarity,Positive*%
%FSLAX46Y46*%
G04 Gerber Fmt 4.6, Leading zero omitted, Abs format (unit mm)*
G04 Created by KiCad (PCBNEW 10.0.3) date 2026-06-21 15:42:45*
%MOMM*%
%LPD*%
G01*
G04 APERTURE LIST*
%ADD10C,0.120000*%
%ADD11C,0.150000*%
G04 APERTURE END LIST*
D10*
X39497476Y-27126855D02*
X39497476Y-27774474D01*
X39497476Y-27774474D02*
X39535571Y-27850664D01*
X39535571Y-27850664D02*
X39573666Y-27888760D01*
X39573666Y-27888760D02*
X39649857Y-27926855D01*
X39649857Y-27926855D02*
X39802238Y-27926855D01*
X39802238Y-27926855D02*
X39878428Y-27888760D01*
X39878428Y-27888760D02*
X39916523Y-27850664D01*
X39916523Y-27850664D02*
X39954619Y-27774474D01*
X39954619Y-27774474D02*
X39954619Y-27126855D01*
X40754618Y-27926855D02*
X40297475Y-27926855D01*
X40526047Y-27926855D02*
X40526047Y-27126855D01*
X40526047Y-27126855D02*
X40449856Y-27241140D01*
X40449856Y-27241140D02*
X40373666Y-27317331D01*
X40373666Y-27317331D02*
X40297475Y-27355426D01*
X38974976Y-40646555D02*
X38974976Y-41294174D01*
X38974976Y-41294174D02*
X39013071Y-41370364D01*
X39013071Y-41370364D02*
X39051166Y-41408460D01*
X39051166Y-41408460D02*
X39127357Y-41446555D01*
X39127357Y-41446555D02*
X39279738Y-41446555D01*
X39279738Y-41446555D02*
X39355928Y-41408460D01*
X39355928Y-41408460D02*
X39394023Y-41370364D01*
X39394023Y-41370364D02*
X39432119Y-41294174D01*
X39432119Y-41294174D02*
X39432119Y-40646555D01*
X39774975Y-40722745D02*
X39813071Y-40684650D01*
X39813071Y-40684650D02*
X39889261Y-40646555D01*
X39889261Y-40646555D02*
X40079737Y-40646555D01*
X40079737Y-40646555D02*
X40155928Y-40684650D01*
X40155928Y-40684650D02*
X40194023Y-40722745D01*
X40194023Y-40722745D02*
X40232118Y-40798936D01*
X40232118Y-40798936D02*
X40232118Y-40875126D01*
X40232118Y-40875126D02*
X40194023Y-40989412D01*
X40194023Y-40989412D02*
X39736880Y-41446555D01*
X39736880Y-41446555D02*
X40232118Y-41446555D01*
X39042848Y-20894855D02*
X39042848Y-20094855D01*
X39385704Y-20856760D02*
X39499990Y-20894855D01*
X39499990Y-20894855D02*
X39690466Y-20894855D01*
X39690466Y-20894855D02*
X39766657Y-20856760D01*
X39766657Y-20856760D02*
X39804752Y-20818664D01*
X39804752Y-20818664D02*
X39842847Y-20742474D01*
X39842847Y-20742474D02*
X39842847Y-20666283D01*
X39842847Y-20666283D02*
X39804752Y-20590093D01*
X39804752Y-20590093D02*
X39766657Y-20551998D01*
X39766657Y-20551998D02*
X39690466Y-20513902D01*
X39690466Y-20513902D02*
X39538085Y-20475807D01*
X39538085Y-20475807D02*
X39461895Y-20437712D01*
X39461895Y-20437712D02*
X39423800Y-20399617D01*
X39423800Y-20399617D02*
X39385704Y-20323426D01*
X39385704Y-20323426D02*
X39385704Y-20247236D01*
X39385704Y-20247236D02*
X39423800Y-20171045D01*
X39423800Y-20171045D02*
X39461895Y-20132950D01*
X39461895Y-20132950D02*
X39538085Y-20094855D01*
X39538085Y-20094855D02*
X39728562Y-20094855D01*
X39728562Y-20094855D02*
X39842847Y-20132950D01*
X40338086Y-20094855D02*
X40490467Y-20094855D01*
X40490467Y-20094855D02*
X40566657Y-20132950D01*
X40566657Y-20132950D02*
X40642848Y-20209140D01*
X40642848Y-20209140D02*
X40680943Y-20361521D01*
X40680943Y-20361521D02*
X40680943Y-20628188D01*
X40680943Y-20628188D02*
X40642848Y-20780569D01*
X40642848Y-20780569D02*
X40566657Y-20856760D01*
X40566657Y-20856760D02*
X40490467Y-20894855D01*
X40490467Y-20894855D02*
X40338086Y-20894855D01*
X40338086Y-20894855D02*
X40261895Y-20856760D01*
X40261895Y-20856760D02*
X40185705Y-20780569D01*
X40185705Y-20780569D02*
X40147609Y-20628188D01*
X40147609Y-20628188D02*
X40147609Y-20361521D01*
X40147609Y-20361521D02*
X40185705Y-20209140D01*
X40185705Y-20209140D02*
X40261895Y-20132950D01*
X40261895Y-20132950D02*
X40338086Y-20094855D01*
X41442847Y-20894855D02*
X40985704Y-20894855D01*
X41214276Y-20894855D02*
X41214276Y-20094855D01*
X41214276Y-20094855D02*
X41138085Y-20209140D01*
X41138085Y-20209140D02*
X41061895Y-20285331D01*
X41061895Y-20285331D02*
X40985704Y-20323426D01*
X29022348Y-25669655D02*
X29022348Y-24869655D01*
X29365204Y-25631560D02*
X29479490Y-25669655D01*
X29479490Y-25669655D02*
X29669966Y-25669655D01*
X29669966Y-25669655D02*
X29746157Y-25631560D01*
X29746157Y-25631560D02*
X29784252Y-25593464D01*
X29784252Y-25593464D02*
X29822347Y-25517274D01*
X29822347Y-25517274D02*
X29822347Y-25441083D01*
X29822347Y-25441083D02*
X29784252Y-25364893D01*
X29784252Y-25364893D02*
X29746157Y-25326798D01*
X29746157Y-25326798D02*
X29669966Y-25288702D01*
X29669966Y-25288702D02*
X29517585Y-25250607D01*
X29517585Y-25250607D02*
X29441395Y-25212512D01*
X29441395Y-25212512D02*
X29403300Y-25174417D01*
X29403300Y-25174417D02*
X29365204Y-25098226D01*
X29365204Y-25098226D02*
X29365204Y-25022036D01*
X29365204Y-25022036D02*
X29403300Y-24945845D01*
X29403300Y-24945845D02*
X29441395Y-24907750D01*
X29441395Y-24907750D02*
X29517585Y-24869655D01*
X29517585Y-24869655D02*
X29708062Y-24869655D01*
X29708062Y-24869655D02*
X29822347Y-24907750D01*
X30317586Y-24869655D02*
X30469967Y-24869655D01*
X30469967Y-24869655D02*
X30546157Y-24907750D01*
X30546157Y-24907750D02*
X30622348Y-24983940D01*
X30622348Y-24983940D02*
X30660443Y-25136321D01*
X30660443Y-25136321D02*
X30660443Y-25402988D01*
X30660443Y-25402988D02*
X30622348Y-25555369D01*
X30622348Y-25555369D02*
X30546157Y-25631560D01*
X30546157Y-25631560D02*
X30469967Y-25669655D01*
X30469967Y-25669655D02*
X30317586Y-25669655D01*
X30317586Y-25669655D02*
X30241395Y-25631560D01*
X30241395Y-25631560D02*
X30165205Y-25555369D01*
X30165205Y-25555369D02*
X30127109Y-25402988D01*
X30127109Y-25402988D02*
X30127109Y-25136321D01*
X30127109Y-25136321D02*
X30165205Y-24983940D01*
X30165205Y-24983940D02*
X30241395Y-24907750D01*
X30241395Y-24907750D02*
X30317586Y-24869655D01*
X30965204Y-24945845D02*
X31003300Y-24907750D01*
X31003300Y-24907750D02*
X31079490Y-24869655D01*
X31079490Y-24869655D02*
X31269966Y-24869655D01*
X31269966Y-24869655D02*
X31346157Y-24907750D01*
X31346157Y-24907750D02*
X31384252Y-24945845D01*
X31384252Y-24945845D02*
X31422347Y-25022036D01*
X31422347Y-25022036D02*
X31422347Y-25098226D01*
X31422347Y-25098226D02*
X31384252Y-25212512D01*
X31384252Y-25212512D02*
X30927109Y-25669655D01*
X30927109Y-25669655D02*
X31422347Y-25669655D01*
X24903448Y-37878555D02*
X24903448Y-37078555D01*
X25246304Y-37840460D02*
X25360590Y-37878555D01*
X25360590Y-37878555D02*
X25551066Y-37878555D01*
X25551066Y-37878555D02*
X25627257Y-37840460D01*
X25627257Y-37840460D02*
X25665352Y-37802364D01*
X25665352Y-37802364D02*
X25703447Y-37726174D01*
X25703447Y-37726174D02*
X25703447Y-37649983D01*
X25703447Y-37649983D02*
X25665352Y-37573793D01*
X25665352Y-37573793D02*
X25627257Y-37535698D01*
X25627257Y-37535698D02*
X25551066Y-37497602D01*
X25551066Y-37497602D02*
X25398685Y-37459507D01*
X25398685Y-37459507D02*
X25322495Y-37421412D01*
X25322495Y-37421412D02*
X25284400Y-37383317D01*
X25284400Y-37383317D02*
X25246304Y-37307126D01*
X25246304Y-37307126D02*
X25246304Y-37230936D01*
X25246304Y-37230936D02*
X25284400Y-37154745D01*
X25284400Y-37154745D02*
X25322495Y-37116650D01*
X25322495Y-37116650D02*
X25398685Y-37078555D01*
X25398685Y-37078555D02*
X25589162Y-37078555D01*
X25589162Y-37078555D02*
X25703447Y-37116650D01*
X26198686Y-37078555D02*
X26351067Y-37078555D01*
X26351067Y-37078555D02*
X26427257Y-37116650D01*
X26427257Y-37116650D02*
X26503448Y-37192840D01*
X26503448Y-37192840D02*
X26541543Y-37345221D01*
X26541543Y-37345221D02*
X26541543Y-37611888D01*
X26541543Y-37611888D02*
X26503448Y-37764269D01*
X26503448Y-37764269D02*
X26427257Y-37840460D01*
X26427257Y-37840460D02*
X26351067Y-37878555D01*
X26351067Y-37878555D02*
X26198686Y-37878555D01*
X26198686Y-37878555D02*
X26122495Y-37840460D01*
X26122495Y-37840460D02*
X26046305Y-37764269D01*
X26046305Y-37764269D02*
X26008209Y-37611888D01*
X26008209Y-37611888D02*
X26008209Y-37345221D01*
X26008209Y-37345221D02*
X26046305Y-37192840D01*
X26046305Y-37192840D02*
X26122495Y-37116650D01*
X26122495Y-37116650D02*
X26198686Y-37078555D01*
X26808209Y-37078555D02*
X27303447Y-37078555D01*
X27303447Y-37078555D02*
X27036781Y-37383317D01*
X27036781Y-37383317D02*
X27151066Y-37383317D01*
X27151066Y-37383317D02*
X27227257Y-37421412D01*
X27227257Y-37421412D02*
X27265352Y-37459507D01*
X27265352Y-37459507D02*
X27303447Y-37535698D01*
X27303447Y-37535698D02*
X27303447Y-37726174D01*
X27303447Y-37726174D02*
X27265352Y-37802364D01*
X27265352Y-37802364D02*
X27227257Y-37840460D01*
X27227257Y-37840460D02*
X27151066Y-37878555D01*
X27151066Y-37878555D02*
X26922495Y-37878555D01*
X26922495Y-37878555D02*
X26846304Y-37840460D01*
X26846304Y-37840460D02*
X26808209Y-37802364D01*
X27162648Y-30787055D02*
X27162648Y-29987055D01*
X27505504Y-30748960D02*
X27619790Y-30787055D01*
X27619790Y-30787055D02*
X27810266Y-30787055D01*
X27810266Y-30787055D02*
X27886457Y-30748960D01*
X27886457Y-30748960D02*
X27924552Y-30710864D01*
X27924552Y-30710864D02*
X27962647Y-30634674D01*
X27962647Y-30634674D02*
X27962647Y-30558483D01*
X27962647Y-30558483D02*
X27924552Y-30482293D01*
X27924552Y-30482293D02*
X27886457Y-30444198D01*
X27886457Y-30444198D02*
X27810266Y-30406102D01*
X27810266Y-30406102D02*
X27657885Y-30368007D01*
X27657885Y-30368007D02*
X27581695Y-30329912D01*
X27581695Y-30329912D02*
X27543600Y-30291817D01*
X27543600Y-30291817D02*
X27505504Y-30215626D01*
X27505504Y-30215626D02*
X27505504Y-30139436D01*
X27505504Y-30139436D02*
X27543600Y-30063245D01*
X27543600Y-30063245D02*
X27581695Y-30025150D01*
X27581695Y-30025150D02*
X27657885Y-29987055D01*
X27657885Y-29987055D02*
X27848362Y-29987055D01*
X27848362Y-29987055D02*
X27962647Y-30025150D01*
X28457886Y-29987055D02*
X28610267Y-29987055D01*
X28610267Y-29987055D02*
X28686457Y-30025150D01*
X28686457Y-30025150D02*
X28762648Y-30101340D01*
X28762648Y-30101340D02*
X28800743Y-30253721D01*
X28800743Y-30253721D02*
X28800743Y-30520388D01*
X28800743Y-30520388D02*
X28762648Y-30672769D01*
X28762648Y-30672769D02*
X28686457Y-30748960D01*
X28686457Y-30748960D02*
X28610267Y-30787055D01*
X28610267Y-30787055D02*
X28457886Y-30787055D01*
X28457886Y-30787055D02*
X28381695Y-30748960D01*
X28381695Y-30748960D02*
X28305505Y-30672769D01*
X28305505Y-30672769D02*
X28267409Y-30520388D01*
X28267409Y-30520388D02*
X28267409Y-30253721D01*
X28267409Y-30253721D02*
X28305505Y-30101340D01*
X28305505Y-30101340D02*
X28381695Y-30025150D01*
X28381695Y-30025150D02*
X28457886Y-29987055D01*
X29486457Y-30253721D02*
X29486457Y-30787055D01*
X29295981Y-29948960D02*
X29105504Y-30520388D01*
X29105504Y-30520388D02*
X29600743Y-30520388D01*
X45752167Y-16766155D02*
X45485500Y-16385202D01*
X45295024Y-16766155D02*
X45295024Y-15966155D01*
X45295024Y-15966155D02*
X45599786Y-15966155D01*
X45599786Y-15966155D02*
X45675976Y-16004250D01*
X45675976Y-16004250D02*
X45714071Y-16042345D01*
X45714071Y-16042345D02*
X45752167Y-16118536D01*
X45752167Y-16118536D02*
X45752167Y-16232821D01*
X45752167Y-16232821D02*
X45714071Y-16309012D01*
X45714071Y-16309012D02*
X45675976Y-16347107D01*
X45675976Y-16347107D02*
X45599786Y-16385202D01*
X45599786Y-16385202D02*
X45295024Y-16385202D01*
X46247405Y-15966155D02*
X46323595Y-15966155D01*
X46323595Y-15966155D02*
X46399786Y-16004250D01*
X46399786Y-16004250D02*
X46437881Y-16042345D01*
X46437881Y-16042345D02*
X46475976Y-16118536D01*
X46475976Y-16118536D02*
X46514071Y-16270917D01*
X46514071Y-16270917D02*
X46514071Y-16461393D01*
X46514071Y-16461393D02*
X46475976Y-16613774D01*
X46475976Y-16613774D02*
X46437881Y-16689964D01*
X46437881Y-16689964D02*
X46399786Y-16728060D01*
X46399786Y-16728060D02*
X46323595Y-16766155D01*
X46323595Y-16766155D02*
X46247405Y-16766155D01*
X46247405Y-16766155D02*
X46171214Y-16728060D01*
X46171214Y-16728060D02*
X46133119Y-16689964D01*
X46133119Y-16689964D02*
X46095024Y-16613774D01*
X46095024Y-16613774D02*
X46056928Y-16461393D01*
X46056928Y-16461393D02*
X46056928Y-16270917D01*
X46056928Y-16270917D02*
X46095024Y-16118536D01*
X46095024Y-16118536D02*
X46133119Y-16042345D01*
X46133119Y-16042345D02*
X46171214Y-16004250D01*
X46171214Y-16004250D02*
X46247405Y-15966155D01*
X45790467Y-34062855D02*
X45523800Y-33681902D01*
X45333324Y-34062855D02*
X45333324Y-33262855D01*
X45333324Y-33262855D02*
X45638086Y-33262855D01*
X45638086Y-33262855D02*
X45714276Y-33300950D01*
X45714276Y-33300950D02*
X45752371Y-33339045D01*
X45752371Y-33339045D02*
X45790467Y-33415236D01*
X45790467Y-33415236D02*
X45790467Y-33529521D01*
X45790467Y-33529521D02*
X45752371Y-33605712D01*
X45752371Y-33605712D02*
X45714276Y-33643807D01*
X45714276Y-33643807D02*
X45638086Y-33681902D01*
X45638086Y-33681902D02*
X45333324Y-33681902D01*
X46552371Y-34062855D02*
X46095228Y-34062855D01*
X46323800Y-34062855D02*
X46323800Y-33262855D01*
X46323800Y-33262855D02*
X46247609Y-33377140D01*
X46247609Y-33377140D02*
X46171419Y-33453331D01*
X46171419Y-33453331D02*
X46095228Y-33491426D01*
X55087667Y-21500855D02*
X54821000Y-21119902D01*
X54630524Y-21500855D02*
X54630524Y-20700855D01*
X54630524Y-20700855D02*
X54935286Y-20700855D01*
X54935286Y-20700855D02*
X55011476Y-20738950D01*
X55011476Y-20738950D02*
X55049571Y-20777045D01*
X55049571Y-20777045D02*
X55087667Y-20853236D01*
X55087667Y-20853236D02*
X55087667Y-20967521D01*
X55087667Y-20967521D02*
X55049571Y-21043712D01*
X55049571Y-21043712D02*
X55011476Y-21081807D01*
X55011476Y-21081807D02*
X54935286Y-21119902D01*
X54935286Y-21119902D02*
X54630524Y-21119902D01*
X55392428Y-20777045D02*
X55430524Y-20738950D01*
X55430524Y-20738950D02*
X55506714Y-20700855D01*
X55506714Y-20700855D02*
X55697190Y-20700855D01*
X55697190Y-20700855D02*
X55773381Y-20738950D01*
X55773381Y-20738950D02*
X55811476Y-20777045D01*
X55811476Y-20777045D02*
X55849571Y-20853236D01*
X55849571Y-20853236D02*
X55849571Y-20929426D01*
X55849571Y-20929426D02*
X55811476Y-21043712D01*
X55811476Y-21043712D02*
X55354333Y-21500855D01*
X55354333Y-21500855D02*
X55849571Y-21500855D01*
X47164567Y-24366255D02*
X46897900Y-23985302D01*
X46707424Y-24366255D02*
X46707424Y-23566255D01*
X46707424Y-23566255D02*
X47012186Y-23566255D01*
X47012186Y-23566255D02*
X47088376Y-23604350D01*
X47088376Y-23604350D02*
X47126471Y-23642445D01*
X47126471Y-23642445D02*
X47164567Y-23718636D01*
X47164567Y-23718636D02*
X47164567Y-23832921D01*
X47164567Y-23832921D02*
X47126471Y-23909112D01*
X47126471Y-23909112D02*
X47088376Y-23947207D01*
X47088376Y-23947207D02*
X47012186Y-23985302D01*
X47012186Y-23985302D02*
X46707424Y-23985302D01*
X47431233Y-23566255D02*
X47926471Y-23566255D01*
X47926471Y-23566255D02*
X47659805Y-23871017D01*
X47659805Y-23871017D02*
X47774090Y-23871017D01*
X47774090Y-23871017D02*
X47850281Y-23909112D01*
X47850281Y-23909112D02*
X47888376Y-23947207D01*
X47888376Y-23947207D02*
X47926471Y-24023398D01*
X47926471Y-24023398D02*
X47926471Y-24213874D01*
X47926471Y-24213874D02*
X47888376Y-24290064D01*
X47888376Y-24290064D02*
X47850281Y-24328160D01*
X47850281Y-24328160D02*
X47774090Y-24366255D01*
X47774090Y-24366255D02*
X47545519Y-24366255D01*
X47545519Y-24366255D02*
X47469328Y-24328160D01*
X47469328Y-24328160D02*
X47431233Y-24290064D01*
X57335067Y-27504155D02*
X57068400Y-27123202D01*
X56877924Y-27504155D02*
X56877924Y-26704155D01*
X56877924Y-26704155D02*
X57182686Y-26704155D01*
X57182686Y-26704155D02*
X57258876Y-26742250D01*
X57258876Y-26742250D02*
X57296971Y-26780345D01*
X57296971Y-26780345D02*
X57335067Y-26856536D01*
X57335067Y-26856536D02*
X57335067Y-26970821D01*
X57335067Y-26970821D02*
X57296971Y-27047012D01*
X57296971Y-27047012D02*
X57258876Y-27085107D01*
X57258876Y-27085107D02*
X57182686Y-27123202D01*
X57182686Y-27123202D02*
X56877924Y-27123202D01*
X58020781Y-26970821D02*
X58020781Y-27504155D01*
X57830305Y-26666060D02*
X57639828Y-27237488D01*
X57639828Y-27237488D02*
X58135067Y-27237488D01*
X47258167Y-29359155D02*
X46991500Y-28978202D01*
X46801024Y-29359155D02*
X46801024Y-28559155D01*
X46801024Y-28559155D02*
X47105786Y-28559155D01*
X47105786Y-28559155D02*
X47181976Y-28597250D01*
X47181976Y-28597250D02*
X47220071Y-28635345D01*
X47220071Y-28635345D02*
X47258167Y-28711536D01*
X47258167Y-28711536D02*
X47258167Y-28825821D01*
X47258167Y-28825821D02*
X47220071Y-28902012D01*
X47220071Y-28902012D02*
X47181976Y-28940107D01*
X47181976Y-28940107D02*
X47105786Y-28978202D01*
X47105786Y-28978202D02*
X46801024Y-28978202D01*
X47981976Y-28559155D02*
X47601024Y-28559155D01*
X47601024Y-28559155D02*
X47562928Y-28940107D01*
X47562928Y-28940107D02*
X47601024Y-28902012D01*
X47601024Y-28902012D02*
X47677214Y-28863917D01*
X47677214Y-28863917D02*
X47867690Y-28863917D01*
X47867690Y-28863917D02*
X47943881Y-28902012D01*
X47943881Y-28902012D02*
X47981976Y-28940107D01*
X47981976Y-28940107D02*
X48020071Y-29016298D01*
X48020071Y-29016298D02*
X48020071Y-29206774D01*
X48020071Y-29206774D02*
X47981976Y-29282964D01*
X47981976Y-29282964D02*
X47943881Y-29321060D01*
X47943881Y-29321060D02*
X47867690Y-29359155D01*
X47867690Y-29359155D02*
X47677214Y-29359155D01*
X47677214Y-29359155D02*
X47601024Y-29321060D01*
X47601024Y-29321060D02*
X47562928Y-29282964D01*
X56578367Y-33463455D02*
X56311700Y-33082502D01*
X56121224Y-33463455D02*
X56121224Y-32663455D01*
X56121224Y-32663455D02*
X56425986Y-32663455D01*
X56425986Y-32663455D02*
X56502176Y-32701550D01*
X56502176Y-32701550D02*
X56540271Y-32739645D01*
X56540271Y-32739645D02*
X56578367Y-32815836D01*
X56578367Y-32815836D02*
X56578367Y-32930121D01*
X56578367Y-32930121D02*
X56540271Y-33006312D01*
X56540271Y-33006312D02*
X56502176Y-33044407D01*
X56502176Y-33044407D02*
X56425986Y-33082502D01*
X56425986Y-33082502D02*
X56121224Y-33082502D01*
X57264081Y-32663455D02*
X57111700Y-32663455D01*
X57111700Y-32663455D02*
X57035509Y-32701550D01*
X57035509Y-32701550D02*
X56997414Y-32739645D01*
X56997414Y-32739645D02*
X56921224Y-32853931D01*
X56921224Y-32853931D02*
X56883128Y-33006312D01*
X56883128Y-33006312D02*
X56883128Y-33311074D01*
X56883128Y-33311074D02*
X56921224Y-33387264D01*
X56921224Y-33387264D02*
X56959319Y-33425360D01*
X56959319Y-33425360D02*
X57035509Y-33463455D01*
X57035509Y-33463455D02*
X57187890Y-33463455D01*
X57187890Y-33463455D02*
X57264081Y-33425360D01*
X57264081Y-33425360D02*
X57302176Y-33387264D01*
X57302176Y-33387264D02*
X57340271Y-33311074D01*
X57340271Y-33311074D02*
X57340271Y-33120598D01*
X57340271Y-33120598D02*
X57302176Y-33044407D01*
X57302176Y-33044407D02*
X57264081Y-33006312D01*
X57264081Y-33006312D02*
X57187890Y-32968217D01*
X57187890Y-32968217D02*
X57035509Y-32968217D01*
X57035509Y-32968217D02*
X56959319Y-33006312D01*
X56959319Y-33006312D02*
X56921224Y-33044407D01*
X56921224Y-33044407D02*
X56883128Y-33120598D01*
X48248267Y-33139355D02*
X47981600Y-32758402D01*
X47791124Y-33139355D02*
X47791124Y-32339355D01*
X47791124Y-32339355D02*
X48095886Y-32339355D01*
X48095886Y-32339355D02*
X48172076Y-32377450D01*
X48172076Y-32377450D02*
X48210171Y-32415545D01*
X48210171Y-32415545D02*
X48248267Y-32491736D01*
X48248267Y-32491736D02*
X48248267Y-32606021D01*
X48248267Y-32606021D02*
X48210171Y-32682212D01*
X48210171Y-32682212D02*
X48172076Y-32720307D01*
X48172076Y-32720307D02*
X48095886Y-32758402D01*
X48095886Y-32758402D02*
X47791124Y-32758402D01*
X48514933Y-32339355D02*
X49048267Y-32339355D01*
X49048267Y-32339355D02*
X48705409Y-33139355D01*
X55386667Y-35467155D02*
X55120000Y-35086202D01*
X54929524Y-35467155D02*
X54929524Y-34667155D01*
X54929524Y-34667155D02*
X55234286Y-34667155D01*
X55234286Y-34667155D02*
X55310476Y-34705250D01*
X55310476Y-34705250D02*
X55348571Y-34743345D01*
X55348571Y-34743345D02*
X55386667Y-34819536D01*
X55386667Y-34819536D02*
X55386667Y-34933821D01*
X55386667Y-34933821D02*
X55348571Y-35010012D01*
X55348571Y-35010012D02*
X55310476Y-35048107D01*
X55310476Y-35048107D02*
X55234286Y-35086202D01*
X55234286Y-35086202D02*
X54929524Y-35086202D01*
X55843809Y-35010012D02*
X55767619Y-34971917D01*
X55767619Y-34971917D02*
X55729524Y-34933821D01*
X55729524Y-34933821D02*
X55691428Y-34857631D01*
X55691428Y-34857631D02*
X55691428Y-34819536D01*
X55691428Y-34819536D02*
X55729524Y-34743345D01*
X55729524Y-34743345D02*
X55767619Y-34705250D01*
X55767619Y-34705250D02*
X55843809Y-34667155D01*
X55843809Y-34667155D02*
X55996190Y-34667155D01*
X55996190Y-34667155D02*
X56072381Y-34705250D01*
X56072381Y-34705250D02*
X56110476Y-34743345D01*
X56110476Y-34743345D02*
X56148571Y-34819536D01*
X56148571Y-34819536D02*
X56148571Y-34857631D01*
X56148571Y-34857631D02*
X56110476Y-34933821D01*
X56110476Y-34933821D02*
X56072381Y-34971917D01*
X56072381Y-34971917D02*
X55996190Y-35010012D01*
X55996190Y-35010012D02*
X55843809Y-35010012D01*
X55843809Y-35010012D02*
X55767619Y-35048107D01*
X55767619Y-35048107D02*
X55729524Y-35086202D01*
X55729524Y-35086202D02*
X55691428Y-35162393D01*
X55691428Y-35162393D02*
X55691428Y-35314774D01*
X55691428Y-35314774D02*
X55729524Y-35390964D01*
X55729524Y-35390964D02*
X55767619Y-35429060D01*
X55767619Y-35429060D02*
X55843809Y-35467155D01*
X55843809Y-35467155D02*
X55996190Y-35467155D01*
X55996190Y-35467155D02*
X56072381Y-35429060D01*
X56072381Y-35429060D02*
X56110476Y-35390964D01*
X56110476Y-35390964D02*
X56148571Y-35314774D01*
X56148571Y-35314774D02*
X56148571Y-35162393D01*
X56148571Y-35162393D02*
X56110476Y-35086202D01*
X56110476Y-35086202D02*
X56072381Y-35048107D01*
X56072381Y-35048107D02*
X55996190Y-35010012D01*
X32783567Y-36239055D02*
X32516900Y-35858102D01*
X32326424Y-36239055D02*
X32326424Y-35439055D01*
X32326424Y-35439055D02*
X32631186Y-35439055D01*
X32631186Y-35439055D02*
X32707376Y-35477150D01*
X32707376Y-35477150D02*
X32745471Y-35515245D01*
X32745471Y-35515245D02*
X32783567Y-35591436D01*
X32783567Y-35591436D02*
X32783567Y-35705721D01*
X32783567Y-35705721D02*
X32745471Y-35781912D01*
X32745471Y-35781912D02*
X32707376Y-35820007D01*
X32707376Y-35820007D02*
X32631186Y-35858102D01*
X32631186Y-35858102D02*
X32326424Y-35858102D01*
X33164519Y-36239055D02*
X33316900Y-36239055D01*
X33316900Y-36239055D02*
X33393090Y-36200960D01*
X33393090Y-36200960D02*
X33431186Y-36162864D01*
X33431186Y-36162864D02*
X33507376Y-36048579D01*
X33507376Y-36048579D02*
X33545471Y-35896198D01*
X33545471Y-35896198D02*
X33545471Y-35591436D01*
X33545471Y-35591436D02*
X33507376Y-35515245D01*
X33507376Y-35515245D02*
X33469281Y-35477150D01*
X33469281Y-35477150D02*
X33393090Y-35439055D01*
X33393090Y-35439055D02*
X33240709Y-35439055D01*
X33240709Y-35439055D02*
X33164519Y-35477150D01*
X33164519Y-35477150D02*
X33126424Y-35515245D01*
X33126424Y-35515245D02*
X33088328Y-35591436D01*
X33088328Y-35591436D02*
X33088328Y-35781912D01*
X33088328Y-35781912D02*
X33126424Y-35858102D01*
X33126424Y-35858102D02*
X33164519Y-35896198D01*
X33164519Y-35896198D02*
X33240709Y-35934293D01*
X33240709Y-35934293D02*
X33393090Y-35934293D01*
X33393090Y-35934293D02*
X33469281Y-35896198D01*
X33469281Y-35896198D02*
X33507376Y-35858102D01*
X33507376Y-35858102D02*
X33545471Y-35781912D01*
X56506914Y-39415055D02*
X56240247Y-39034102D01*
X56049771Y-39415055D02*
X56049771Y-38615055D01*
X56049771Y-38615055D02*
X56354533Y-38615055D01*
X56354533Y-38615055D02*
X56430723Y-38653150D01*
X56430723Y-38653150D02*
X56468818Y-38691245D01*
X56468818Y-38691245D02*
X56506914Y-38767436D01*
X56506914Y-38767436D02*
X56506914Y-38881721D01*
X56506914Y-38881721D02*
X56468818Y-38957912D01*
X56468818Y-38957912D02*
X56430723Y-38996007D01*
X56430723Y-38996007D02*
X56354533Y-39034102D01*
X56354533Y-39034102D02*
X56049771Y-39034102D01*
X57268818Y-39415055D02*
X56811675Y-39415055D01*
X57040247Y-39415055D02*
X57040247Y-38615055D01*
X57040247Y-38615055D02*
X56964056Y-38729340D01*
X56964056Y-38729340D02*
X56887866Y-38805531D01*
X56887866Y-38805531D02*
X56811675Y-38843626D01*
X57764057Y-38615055D02*
X57840247Y-38615055D01*
X57840247Y-38615055D02*
X57916438Y-38653150D01*
X57916438Y-38653150D02*
X57954533Y-38691245D01*
X57954533Y-38691245D02*
X57992628Y-38767436D01*
X57992628Y-38767436D02*
X58030723Y-38919817D01*
X58030723Y-38919817D02*
X58030723Y-39110293D01*
X58030723Y-39110293D02*
X57992628Y-39262674D01*
X57992628Y-39262674D02*
X57954533Y-39338864D01*
X57954533Y-39338864D02*
X57916438Y-39376960D01*
X57916438Y-39376960D02*
X57840247Y-39415055D01*
X57840247Y-39415055D02*
X57764057Y-39415055D01*
X57764057Y-39415055D02*
X57687866Y-39376960D01*
X57687866Y-39376960D02*
X57649771Y-39338864D01*
X57649771Y-39338864D02*
X57611676Y-39262674D01*
X57611676Y-39262674D02*
X57573580Y-39110293D01*
X57573580Y-39110293D02*
X57573580Y-38919817D01*
X57573580Y-38919817D02*
X57611676Y-38767436D01*
X57611676Y-38767436D02*
X57649771Y-38691245D01*
X57649771Y-38691245D02*
X57687866Y-38653150D01*
X57687866Y-38653150D02*
X57764057Y-38615055D01*
X44948514Y-47330255D02*
X44681847Y-46949302D01*
X44491371Y-47330255D02*
X44491371Y-46530255D01*
X44491371Y-46530255D02*
X44796133Y-46530255D01*
X44796133Y-46530255D02*
X44872323Y-46568350D01*
X44872323Y-46568350D02*
X44910418Y-46606445D01*
X44910418Y-46606445D02*
X44948514Y-46682636D01*
X44948514Y-46682636D02*
X44948514Y-46796921D01*
X44948514Y-46796921D02*
X44910418Y-46873112D01*
X44910418Y-46873112D02*
X44872323Y-46911207D01*
X44872323Y-46911207D02*
X44796133Y-46949302D01*
X44796133Y-46949302D02*
X44491371Y-46949302D01*
X45710418Y-47330255D02*
X45253275Y-47330255D01*
X45481847Y-47330255D02*
X45481847Y-46530255D01*
X45481847Y-46530255D02*
X45405656Y-46644540D01*
X45405656Y-46644540D02*
X45329466Y-46720731D01*
X45329466Y-46720731D02*
X45253275Y-46758826D01*
X46472323Y-47330255D02*
X46015180Y-47330255D01*
X46243752Y-47330255D02*
X46243752Y-46530255D01*
X46243752Y-46530255D02*
X46167561Y-46644540D01*
X46167561Y-46644540D02*
X46091371Y-46720731D01*
X46091371Y-46720731D02*
X46015180Y-46758826D01*
X47202214Y-46667255D02*
X46935547Y-46286302D01*
X46745071Y-46667255D02*
X46745071Y-45867255D01*
X46745071Y-45867255D02*
X47049833Y-45867255D01*
X47049833Y-45867255D02*
X47126023Y-45905350D01*
X47126023Y-45905350D02*
X47164118Y-45943445D01*
X47164118Y-45943445D02*
X47202214Y-46019636D01*
X47202214Y-46019636D02*
X47202214Y-46133921D01*
X47202214Y-46133921D02*
X47164118Y-46210112D01*
X47164118Y-46210112D02*
X47126023Y-46248207D01*
X47126023Y-46248207D02*
X47049833Y-46286302D01*
X47049833Y-46286302D02*
X46745071Y-46286302D01*
X47964118Y-46667255D02*
X47506975Y-46667255D01*
X47735547Y-46667255D02*
X47735547Y-45867255D01*
X47735547Y-45867255D02*
X47659356Y-45981540D01*
X47659356Y-45981540D02*
X47583166Y-46057731D01*
X47583166Y-46057731D02*
X47506975Y-46095826D01*
X48268880Y-45943445D02*
X48306976Y-45905350D01*
X48306976Y-45905350D02*
X48383166Y-45867255D01*
X48383166Y-45867255D02*
X48573642Y-45867255D01*
X48573642Y-45867255D02*
X48649833Y-45905350D01*
X48649833Y-45905350D02*
X48687928Y-45943445D01*
X48687928Y-45943445D02*
X48726023Y-46019636D01*
X48726023Y-46019636D02*
X48726023Y-46095826D01*
X48726023Y-46095826D02*
X48687928Y-46210112D01*
X48687928Y-46210112D02*
X48230785Y-46667255D01*
X48230785Y-46667255D02*
X48726023Y-46667255D01*
X54697114Y-29024155D02*
X54430447Y-28643202D01*
X54239971Y-29024155D02*
X54239971Y-28224155D01*
X54239971Y-28224155D02*
X54544733Y-28224155D01*
X54544733Y-28224155D02*
X54620923Y-28262250D01*
X54620923Y-28262250D02*
X54659018Y-28300345D01*
X54659018Y-28300345D02*
X54697114Y-28376536D01*
X54697114Y-28376536D02*
X54697114Y-28490821D01*
X54697114Y-28490821D02*
X54659018Y-28567012D01*
X54659018Y-28567012D02*
X54620923Y-28605107D01*
X54620923Y-28605107D02*
X54544733Y-28643202D01*
X54544733Y-28643202D02*
X54239971Y-28643202D01*
X55459018Y-29024155D02*
X55001875Y-29024155D01*
X55230447Y-29024155D02*
X55230447Y-28224155D01*
X55230447Y-28224155D02*
X55154256Y-28338440D01*
X55154256Y-28338440D02*
X55078066Y-28414631D01*
X55078066Y-28414631D02*
X55001875Y-28452726D01*
X55725685Y-28224155D02*
X56220923Y-28224155D01*
X56220923Y-28224155D02*
X55954257Y-28528917D01*
X55954257Y-28528917D02*
X56068542Y-28528917D01*
X56068542Y-28528917D02*
X56144733Y-28567012D01*
X56144733Y-28567012D02*
X56182828Y-28605107D01*
X56182828Y-28605107D02*
X56220923Y-28681298D01*
X56220923Y-28681298D02*
X56220923Y-28871774D01*
X56220923Y-28871774D02*
X56182828Y-28947964D01*
X56182828Y-28947964D02*
X56144733Y-28986060D01*
X56144733Y-28986060D02*
X56068542Y-29024155D01*
X56068542Y-29024155D02*
X55839971Y-29024155D01*
X55839971Y-29024155D02*
X55763780Y-28986060D01*
X55763780Y-28986060D02*
X55725685Y-28947964D01*
X47477114Y-50403455D02*
X47210447Y-50022502D01*
X47019971Y-50403455D02*
X47019971Y-49603455D01*
X47019971Y-49603455D02*
X47324733Y-49603455D01*
X47324733Y-49603455D02*
X47400923Y-49641550D01*
X47400923Y-49641550D02*
X47439018Y-49679645D01*
X47439018Y-49679645D02*
X47477114Y-49755836D01*
X47477114Y-49755836D02*
X47477114Y-49870121D01*
X47477114Y-49870121D02*
X47439018Y-49946312D01*
X47439018Y-49946312D02*
X47400923Y-49984407D01*
X47400923Y-49984407D02*
X47324733Y-50022502D01*
X47324733Y-50022502D02*
X47019971Y-50022502D01*
X48239018Y-50403455D02*
X47781875Y-50403455D01*
X48010447Y-50403455D02*
X48010447Y-49603455D01*
X48010447Y-49603455D02*
X47934256Y-49717740D01*
X47934256Y-49717740D02*
X47858066Y-49793931D01*
X47858066Y-49793931D02*
X47781875Y-49832026D01*
X48924733Y-49870121D02*
X48924733Y-50403455D01*
X48734257Y-49565360D02*
X48543780Y-50136788D01*
X48543780Y-50136788D02*
X49039019Y-50136788D01*
X54743314Y-25233755D02*
X54476647Y-24852802D01*
X54286171Y-25233755D02*
X54286171Y-24433755D01*
X54286171Y-24433755D02*
X54590933Y-24433755D01*
X54590933Y-24433755D02*
X54667123Y-24471850D01*
X54667123Y-24471850D02*
X54705218Y-24509945D01*
X54705218Y-24509945D02*
X54743314Y-24586136D01*
X54743314Y-24586136D02*
X54743314Y-24700421D01*
X54743314Y-24700421D02*
X54705218Y-24776612D01*
X54705218Y-24776612D02*
X54667123Y-24814707D01*
X54667123Y-24814707D02*
X54590933Y-24852802D01*
X54590933Y-24852802D02*
X54286171Y-24852802D01*
X55505218Y-25233755D02*
X55048075Y-25233755D01*
X55276647Y-25233755D02*
X55276647Y-24433755D01*
X55276647Y-24433755D02*
X55200456Y-24548040D01*
X55200456Y-24548040D02*
X55124266Y-24624231D01*
X55124266Y-24624231D02*
X55048075Y-24662326D01*
X56229028Y-24433755D02*
X55848076Y-24433755D01*
X55848076Y-24433755D02*
X55809980Y-24814707D01*
X55809980Y-24814707D02*
X55848076Y-24776612D01*
X55848076Y-24776612D02*
X55924266Y-24738517D01*
X55924266Y-24738517D02*
X56114742Y-24738517D01*
X56114742Y-24738517D02*
X56190933Y-24776612D01*
X56190933Y-24776612D02*
X56229028Y-24814707D01*
X56229028Y-24814707D02*
X56267123Y-24890898D01*
X56267123Y-24890898D02*
X56267123Y-25081374D01*
X56267123Y-25081374D02*
X56229028Y-25157564D01*
X56229028Y-25157564D02*
X56190933Y-25195660D01*
X56190933Y-25195660D02*
X56114742Y-25233755D01*
X56114742Y-25233755D02*
X55924266Y-25233755D01*
X55924266Y-25233755D02*
X55848076Y-25195660D01*
X55848076Y-25195660D02*
X55809980Y-25157564D01*
X36357367Y-31196364D02*
X36319271Y-31234460D01*
X36319271Y-31234460D02*
X36204986Y-31272555D01*
X36204986Y-31272555D02*
X36128795Y-31272555D01*
X36128795Y-31272555D02*
X36014509Y-31234460D01*
X36014509Y-31234460D02*
X35938319Y-31158269D01*
X35938319Y-31158269D02*
X35900224Y-31082079D01*
X35900224Y-31082079D02*
X35862128Y-30929698D01*
X35862128Y-30929698D02*
X35862128Y-30815412D01*
X35862128Y-30815412D02*
X35900224Y-30663031D01*
X35900224Y-30663031D02*
X35938319Y-30586840D01*
X35938319Y-30586840D02*
X36014509Y-30510650D01*
X36014509Y-30510650D02*
X36128795Y-30472555D01*
X36128795Y-30472555D02*
X36204986Y-30472555D01*
X36204986Y-30472555D02*
X36319271Y-30510650D01*
X36319271Y-30510650D02*
X36357367Y-30548745D01*
X37119271Y-31272555D02*
X36662128Y-31272555D01*
X36890700Y-31272555D02*
X36890700Y-30472555D01*
X36890700Y-30472555D02*
X36814509Y-30586840D01*
X36814509Y-30586840D02*
X36738319Y-30663031D01*
X36738319Y-30663031D02*
X36662128Y-30701126D01*
X40829367Y-47004064D02*
X40791271Y-47042160D01*
X40791271Y-47042160D02*
X40676986Y-47080255D01*
X40676986Y-47080255D02*
X40600795Y-47080255D01*
X40600795Y-47080255D02*
X40486509Y-47042160D01*
X40486509Y-47042160D02*
X40410319Y-46965969D01*
X40410319Y-46965969D02*
X40372224Y-46889779D01*
X40372224Y-46889779D02*
X40334128Y-46737398D01*
X40334128Y-46737398D02*
X40334128Y-46623112D01*
X40334128Y-46623112D02*
X40372224Y-46470731D01*
X40372224Y-46470731D02*
X40410319Y-46394540D01*
X40410319Y-46394540D02*
X40486509Y-46318350D01*
X40486509Y-46318350D02*
X40600795Y-46280255D01*
X40600795Y-46280255D02*
X40676986Y-46280255D01*
X40676986Y-46280255D02*
X40791271Y-46318350D01*
X40791271Y-46318350D02*
X40829367Y-46356445D01*
X41134128Y-46356445D02*
X41172224Y-46318350D01*
X41172224Y-46318350D02*
X41248414Y-46280255D01*
X41248414Y-46280255D02*
X41438890Y-46280255D01*
X41438890Y-46280255D02*
X41515081Y-46318350D01*
X41515081Y-46318350D02*
X41553176Y-46356445D01*
X41553176Y-46356445D02*
X41591271Y-46432636D01*
X41591271Y-46432636D02*
X41591271Y-46508826D01*
X41591271Y-46508826D02*
X41553176Y-46623112D01*
X41553176Y-46623112D02*
X41096033Y-47080255D01*
X41096033Y-47080255D02*
X41591271Y-47080255D01*
X36368267Y-27765064D02*
X36330171Y-27803160D01*
X36330171Y-27803160D02*
X36215886Y-27841255D01*
X36215886Y-27841255D02*
X36139695Y-27841255D01*
X36139695Y-27841255D02*
X36025409Y-27803160D01*
X36025409Y-27803160D02*
X35949219Y-27726969D01*
X35949219Y-27726969D02*
X35911124Y-27650779D01*
X35911124Y-27650779D02*
X35873028Y-27498398D01*
X35873028Y-27498398D02*
X35873028Y-27384112D01*
X35873028Y-27384112D02*
X35911124Y-27231731D01*
X35911124Y-27231731D02*
X35949219Y-27155540D01*
X35949219Y-27155540D02*
X36025409Y-27079350D01*
X36025409Y-27079350D02*
X36139695Y-27041255D01*
X36139695Y-27041255D02*
X36215886Y-27041255D01*
X36215886Y-27041255D02*
X36330171Y-27079350D01*
X36330171Y-27079350D02*
X36368267Y-27117445D01*
X36634933Y-27041255D02*
X37130171Y-27041255D01*
X37130171Y-27041255D02*
X36863505Y-27346017D01*
X36863505Y-27346017D02*
X36977790Y-27346017D01*
X36977790Y-27346017D02*
X37053981Y-27384112D01*
X37053981Y-27384112D02*
X37092076Y-27422207D01*
X37092076Y-27422207D02*
X37130171Y-27498398D01*
X37130171Y-27498398D02*
X37130171Y-27688874D01*
X37130171Y-27688874D02*
X37092076Y-27765064D01*
X37092076Y-27765064D02*
X37053981Y-27803160D01*
X37053981Y-27803160D02*
X36977790Y-27841255D01*
X36977790Y-27841255D02*
X36749219Y-27841255D01*
X36749219Y-27841255D02*
X36673028Y-27803160D01*
X36673028Y-27803160D02*
X36634933Y-27765064D01*
X46055567Y-43963364D02*
X46017471Y-44001460D01*
X46017471Y-44001460D02*
X45903186Y-44039555D01*
X45903186Y-44039555D02*
X45826995Y-44039555D01*
X45826995Y-44039555D02*
X45712709Y-44001460D01*
X45712709Y-44001460D02*
X45636519Y-43925269D01*
X45636519Y-43925269D02*
X45598424Y-43849079D01*
X45598424Y-43849079D02*
X45560328Y-43696698D01*
X45560328Y-43696698D02*
X45560328Y-43582412D01*
X45560328Y-43582412D02*
X45598424Y-43430031D01*
X45598424Y-43430031D02*
X45636519Y-43353840D01*
X45636519Y-43353840D02*
X45712709Y-43277650D01*
X45712709Y-43277650D02*
X45826995Y-43239555D01*
X45826995Y-43239555D02*
X45903186Y-43239555D01*
X45903186Y-43239555D02*
X46017471Y-43277650D01*
X46017471Y-43277650D02*
X46055567Y-43315745D01*
X46741281Y-43506221D02*
X46741281Y-44039555D01*
X46550805Y-43201460D02*
X46360328Y-43772888D01*
X46360328Y-43772888D02*
X46855567Y-43772888D01*
X51604833Y-40252755D02*
X51604833Y-40824183D01*
X51604833Y-40824183D02*
X51566738Y-40938469D01*
X51566738Y-40938469D02*
X51490547Y-41014660D01*
X51490547Y-41014660D02*
X51376262Y-41052755D01*
X51376262Y-41052755D02*
X51300071Y-41052755D01*
X52404833Y-41052755D02*
X51947690Y-41052755D01*
X52176262Y-41052755D02*
X52176262Y-40252755D01*
X52176262Y-40252755D02*
X52100071Y-40367040D01*
X52100071Y-40367040D02*
X52023881Y-40443231D01*
X52023881Y-40443231D02*
X51947690Y-40481326D01*
X29111176Y-14861955D02*
X29111176Y-15509574D01*
X29111176Y-15509574D02*
X29149271Y-15585764D01*
X29149271Y-15585764D02*
X29187366Y-15623860D01*
X29187366Y-15623860D02*
X29263557Y-15661955D01*
X29263557Y-15661955D02*
X29415938Y-15661955D01*
X29415938Y-15661955D02*
X29492128Y-15623860D01*
X29492128Y-15623860D02*
X29530223Y-15585764D01*
X29530223Y-15585764D02*
X29568319Y-15509574D01*
X29568319Y-15509574D02*
X29568319Y-14861955D01*
X29873080Y-14861955D02*
X30368318Y-14861955D01*
X30368318Y-14861955D02*
X30101652Y-15166717D01*
X30101652Y-15166717D02*
X30215937Y-15166717D01*
X30215937Y-15166717D02*
X30292128Y-15204812D01*
X30292128Y-15204812D02*
X30330223Y-15242907D01*
X30330223Y-15242907D02*
X30368318Y-15319098D01*
X30368318Y-15319098D02*
X30368318Y-15509574D01*
X30368318Y-15509574D02*
X30330223Y-15585764D01*
X30330223Y-15585764D02*
X30292128Y-15623860D01*
X30292128Y-15623860D02*
X30215937Y-15661955D01*
X30215937Y-15661955D02*
X29987366Y-15661955D01*
X29987366Y-15661955D02*
X29911175Y-15623860D01*
X29911175Y-15623860D02*
X29873080Y-15585764D01*
X32980952Y-5563855D02*
X32980952Y-6135283D01*
X32980952Y-6135283D02*
X32942857Y-6249569D01*
X32942857Y-6249569D02*
X32866666Y-6325760D01*
X32866666Y-6325760D02*
X32752381Y-6363855D01*
X32752381Y-6363855D02*
X32676190Y-6363855D01*
X33171429Y-6440045D02*
X33780952Y-6440045D01*
X33933333Y-6325760D02*
X34047619Y-6363855D01*
X34047619Y-6363855D02*
X34238095Y-6363855D01*
X34238095Y-6363855D02*
X34314286Y-6325760D01*
X34314286Y-6325760D02*
X34352381Y-6287664D01*
X34352381Y-6287664D02*
X34390476Y-6211474D01*
X34390476Y-6211474D02*
X34390476Y-6135283D01*
X34390476Y-6135283D02*
X34352381Y-6059093D01*
X34352381Y-6059093D02*
X34314286Y-6020998D01*
X34314286Y-6020998D02*
X34238095Y-5982902D01*
X34238095Y-5982902D02*
X34085714Y-5944807D01*
X34085714Y-5944807D02*
X34009524Y-5906712D01*
X34009524Y-5906712D02*
X33971429Y-5868617D01*
X33971429Y-5868617D02*
X33933333Y-5792426D01*
X33933333Y-5792426D02*
X33933333Y-5716236D01*
X33933333Y-5716236D02*
X33971429Y-5640045D01*
X33971429Y-5640045D02*
X34009524Y-5601950D01*
X34009524Y-5601950D02*
X34085714Y-5563855D01*
X34085714Y-5563855D02*
X34276191Y-5563855D01*
X34276191Y-5563855D02*
X34390476Y-5601950D01*
X34619048Y-5563855D02*
X35076191Y-5563855D01*
X34847619Y-6363855D02*
X34847619Y-5563855D01*
X35304762Y-6135283D02*
X35685715Y-6135283D01*
X35228572Y-6363855D02*
X35495239Y-5563855D01*
X35495239Y-5563855D02*
X35761905Y-6363855D01*
X36485715Y-6287664D02*
X36447619Y-6325760D01*
X36447619Y-6325760D02*
X36333334Y-6363855D01*
X36333334Y-6363855D02*
X36257143Y-6363855D01*
X36257143Y-6363855D02*
X36142857Y-6325760D01*
X36142857Y-6325760D02*
X36066667Y-6249569D01*
X36066667Y-6249569D02*
X36028572Y-6173379D01*
X36028572Y-6173379D02*
X35990476Y-6020998D01*
X35990476Y-6020998D02*
X35990476Y-5906712D01*
X35990476Y-5906712D02*
X36028572Y-5754331D01*
X36028572Y-5754331D02*
X36066667Y-5678140D01*
X36066667Y-5678140D02*
X36142857Y-5601950D01*
X36142857Y-5601950D02*
X36257143Y-5563855D01*
X36257143Y-5563855D02*
X36333334Y-5563855D01*
X36333334Y-5563855D02*
X36447619Y-5601950D01*
X36447619Y-5601950D02*
X36485715Y-5640045D01*
X36828572Y-6363855D02*
X36828572Y-5563855D01*
X37285715Y-6363855D02*
X36942857Y-5906712D01*
X37285715Y-5563855D02*
X36828572Y-6020998D01*
X52842833Y-23208055D02*
X52842833Y-23779483D01*
X52842833Y-23779483D02*
X52804738Y-23893769D01*
X52804738Y-23893769D02*
X52728547Y-23969960D01*
X52728547Y-23969960D02*
X52614262Y-24008055D01*
X52614262Y-24008055D02*
X52538071Y-24008055D01*
X53147595Y-23208055D02*
X53642833Y-23208055D01*
X53642833Y-23208055D02*
X53376167Y-23512817D01*
X53376167Y-23512817D02*
X53490452Y-23512817D01*
X53490452Y-23512817D02*
X53566643Y-23550912D01*
X53566643Y-23550912D02*
X53604738Y-23589007D01*
X53604738Y-23589007D02*
X53642833Y-23665198D01*
X53642833Y-23665198D02*
X53642833Y-23855674D01*
X53642833Y-23855674D02*
X53604738Y-23931864D01*
X53604738Y-23931864D02*
X53566643Y-23969960D01*
X53566643Y-23969960D02*
X53490452Y-24008055D01*
X53490452Y-24008055D02*
X53261881Y-24008055D01*
X53261881Y-24008055D02*
X53185690Y-23969960D01*
X53185690Y-23969960D02*
X53147595Y-23931864D01*
D11*
X4182857Y-2994819D02*
X4182857Y-1994819D01*
X4182857Y-1994819D02*
X4516190Y-2709104D01*
X4516190Y-2709104D02*
X4849523Y-1994819D01*
X4849523Y-1994819D02*
X4849523Y-2994819D01*
X5325714Y-2994819D02*
X5325714Y-1994819D01*
X5325714Y-2471009D02*
X5897142Y-2471009D01*
X5897142Y-2994819D02*
X5897142Y-1994819D01*
X64102857Y-2994819D02*
X64102857Y-1994819D01*
X64102857Y-1994819D02*
X64436190Y-2709104D01*
X64436190Y-2709104D02*
X64769523Y-1994819D01*
X64769523Y-1994819D02*
X64769523Y-2994819D01*
X65245714Y-2994819D02*
X65245714Y-1994819D01*
X65245714Y-2471009D02*
X65817142Y-2471009D01*
X65817142Y-2994819D02*
X65817142Y-1994819D01*
X4182857Y-48914819D02*
X4182857Y-47914819D01*
X4182857Y-47914819D02*
X4516190Y-48629104D01*
X4516190Y-48629104D02*
X4849523Y-47914819D01*
X4849523Y-47914819D02*
X4849523Y-48914819D01*
X5325714Y-48914819D02*
X5325714Y-47914819D01*
X5325714Y-48391009D02*
X5897142Y-48391009D01*
X5897142Y-48914819D02*
X5897142Y-47914819D01*
X64102857Y-48914819D02*
X64102857Y-47914819D01*
X64102857Y-47914819D02*
X64436190Y-48629104D01*
X64436190Y-48629104D02*
X64769523Y-47914819D01*
X64769523Y-47914819D02*
X64769523Y-48914819D01*
X65245714Y-48914819D02*
X65245714Y-47914819D01*
X65245714Y-48391009D02*
X65817142Y-48391009D01*
X65817142Y-48914819D02*
X65817142Y-47914819D01*
X7444762Y-6471009D02*
X7111429Y-6471009D01*
X7111429Y-6994819D02*
X7111429Y-5994819D01*
X7111429Y-5994819D02*
X7587619Y-5994819D01*
X7968572Y-6994819D02*
X7968572Y-5994819D01*
X8444762Y-6994819D02*
X8444762Y-5994819D01*
X8444762Y-5994819D02*
X8682857Y-5994819D01*
X8682857Y-5994819D02*
X8825714Y-6042438D01*
X8825714Y-6042438D02*
X8920952Y-6137676D01*
X8920952Y-6137676D02*
X8968571Y-6232914D01*
X8968571Y-6232914D02*
X9016190Y-6423390D01*
X9016190Y-6423390D02*
X9016190Y-6566247D01*
X9016190Y-6566247D02*
X8968571Y-6756723D01*
X8968571Y-6756723D02*
X8920952Y-6851961D01*
X8920952Y-6851961D02*
X8825714Y-6947200D01*
X8825714Y-6947200D02*
X8682857Y-6994819D01*
X8682857Y-6994819D02*
X8444762Y-6994819D01*
X61364762Y-6471009D02*
X61031429Y-6471009D01*
X61031429Y-6994819D02*
X61031429Y-5994819D01*
X61031429Y-5994819D02*
X61507619Y-5994819D01*
X61888572Y-6994819D02*
X61888572Y-5994819D01*
X62364762Y-6994819D02*
X62364762Y-5994819D01*
X62364762Y-5994819D02*
X62602857Y-5994819D01*
X62602857Y-5994819D02*
X62745714Y-6042438D01*
X62745714Y-6042438D02*
X62840952Y-6137676D01*
X62840952Y-6137676D02*
X62888571Y-6232914D01*
X62888571Y-6232914D02*
X62936190Y-6423390D01*
X62936190Y-6423390D02*
X62936190Y-6566247D01*
X62936190Y-6566247D02*
X62888571Y-6756723D01*
X62888571Y-6756723D02*
X62840952Y-6851961D01*
X62840952Y-6851961D02*
X62745714Y-6947200D01*
X62745714Y-6947200D02*
X62602857Y-6994819D01*
X62602857Y-6994819D02*
X62364762Y-6994819D01*
X7444762Y-46391009D02*
X7111429Y-46391009D01*
X7111429Y-46914819D02*
X7111429Y-45914819D01*
X7111429Y-45914819D02*
X7587619Y-45914819D01*
X7968572Y-46914819D02*
X7968572Y-45914819D01*
X8444762Y-46914819D02*
X8444762Y-45914819D01*
X8444762Y-45914819D02*
X8682857Y-45914819D01*
X8682857Y-45914819D02*
X8825714Y-45962438D01*
X8825714Y-45962438D02*
X8920952Y-46057676D01*
X8920952Y-46057676D02*
X8968571Y-46152914D01*
X8968571Y-46152914D02*
X9016190Y-46343390D01*
X9016190Y-46343390D02*
X9016190Y-46486247D01*
X9016190Y-46486247D02*
X8968571Y-46676723D01*
X8968571Y-46676723D02*
X8920952Y-46771961D01*
X8920952Y-46771961D02*
X8825714Y-46867200D01*
X8825714Y-46867200D02*
X8682857Y-46914819D01*
X8682857Y-46914819D02*
X8444762Y-46914819D01*
M02*
