%TF.GenerationSoftware,KiCad,Pcbnew,10.0.3*%
%TF.CreationDate,2026-06-21T15:42:45-04:00*%
%TF.ProjectId,hv7355_tile,68763733-3535-45f7-9469-6c652e6b6963,rev?*%
%TF.SameCoordinates,Original*%
%TF.FileFunction,AssemblyDrawing,Top*%
%FSLAX46Y46*%
G04 Gerber Fmt 4.6, Leading zero omitted, Abs format (unit mm)*
G04 Created by KiCad (PCBNEW 10.0.3) date 2026-06-21 15:42:45*
%MOMM*%
%LPD*%
G01*
G04 APERTURE LIST*
%ADD10C,0.150000*%
%ADD11C,0.100000*%
G04 APERTURE END LIST*
D10*
X37392714Y-28017819D02*
X37392714Y-27017819D01*
X37392714Y-27494009D02*
X37964142Y-27494009D01*
X37964142Y-28017819D02*
X37964142Y-27017819D01*
X38297476Y-27017819D02*
X38630809Y-28017819D01*
X38630809Y-28017819D02*
X38964142Y-27017819D01*
X39202238Y-27017819D02*
X39868904Y-27017819D01*
X39868904Y-27017819D02*
X39440333Y-28017819D01*
X40154619Y-27017819D02*
X40773666Y-27017819D01*
X40773666Y-27017819D02*
X40440333Y-27398771D01*
X40440333Y-27398771D02*
X40583190Y-27398771D01*
X40583190Y-27398771D02*
X40678428Y-27446390D01*
X40678428Y-27446390D02*
X40726047Y-27494009D01*
X40726047Y-27494009D02*
X40773666Y-27589247D01*
X40773666Y-27589247D02*
X40773666Y-27827342D01*
X40773666Y-27827342D02*
X40726047Y-27922580D01*
X40726047Y-27922580D02*
X40678428Y-27970200D01*
X40678428Y-27970200D02*
X40583190Y-28017819D01*
X40583190Y-28017819D02*
X40297476Y-28017819D01*
X40297476Y-28017819D02*
X40202238Y-27970200D01*
X40202238Y-27970200D02*
X40154619Y-27922580D01*
X41678428Y-27017819D02*
X41202238Y-27017819D01*
X41202238Y-27017819D02*
X41154619Y-27494009D01*
X41154619Y-27494009D02*
X41202238Y-27446390D01*
X41202238Y-27446390D02*
X41297476Y-27398771D01*
X41297476Y-27398771D02*
X41535571Y-27398771D01*
X41535571Y-27398771D02*
X41630809Y-27446390D01*
X41630809Y-27446390D02*
X41678428Y-27494009D01*
X41678428Y-27494009D02*
X41726047Y-27589247D01*
X41726047Y-27589247D02*
X41726047Y-27827342D01*
X41726047Y-27827342D02*
X41678428Y-27922580D01*
X41678428Y-27922580D02*
X41630809Y-27970200D01*
X41630809Y-27970200D02*
X41535571Y-28017819D01*
X41535571Y-28017819D02*
X41297476Y-28017819D01*
X41297476Y-28017819D02*
X41202238Y-27970200D01*
X41202238Y-27970200D02*
X41154619Y-27922580D01*
X42630809Y-27017819D02*
X42154619Y-27017819D01*
X42154619Y-27017819D02*
X42107000Y-27494009D01*
X42107000Y-27494009D02*
X42154619Y-27446390D01*
X42154619Y-27446390D02*
X42249857Y-27398771D01*
X42249857Y-27398771D02*
X42487952Y-27398771D01*
X42487952Y-27398771D02*
X42583190Y-27446390D01*
X42583190Y-27446390D02*
X42630809Y-27494009D01*
X42630809Y-27494009D02*
X42678428Y-27589247D01*
X42678428Y-27589247D02*
X42678428Y-27827342D01*
X42678428Y-27827342D02*
X42630809Y-27922580D01*
X42630809Y-27922580D02*
X42583190Y-27970200D01*
X42583190Y-27970200D02*
X42487952Y-28017819D01*
X42487952Y-28017819D02*
X42249857Y-28017819D01*
X42249857Y-28017819D02*
X42154619Y-27970200D01*
X42154619Y-27970200D02*
X42107000Y-27922580D01*
X43107000Y-28017819D02*
X43107000Y-27017819D01*
X43678428Y-28017819D02*
X43249857Y-27446390D01*
X43678428Y-27017819D02*
X43107000Y-27589247D01*
X44535571Y-27017819D02*
X44345095Y-27017819D01*
X44345095Y-27017819D02*
X44249857Y-27065438D01*
X44249857Y-27065438D02*
X44202238Y-27113057D01*
X44202238Y-27113057D02*
X44107000Y-27255914D01*
X44107000Y-27255914D02*
X44059381Y-27446390D01*
X44059381Y-27446390D02*
X44059381Y-27827342D01*
X44059381Y-27827342D02*
X44107000Y-27922580D01*
X44107000Y-27922580D02*
X44154619Y-27970200D01*
X44154619Y-27970200D02*
X44249857Y-28017819D01*
X44249857Y-28017819D02*
X44440333Y-28017819D01*
X44440333Y-28017819D02*
X44535571Y-27970200D01*
X44535571Y-27970200D02*
X44583190Y-27922580D01*
X44583190Y-27922580D02*
X44630809Y-27827342D01*
X44630809Y-27827342D02*
X44630809Y-27589247D01*
X44630809Y-27589247D02*
X44583190Y-27494009D01*
X44583190Y-27494009D02*
X44535571Y-27446390D01*
X44535571Y-27446390D02*
X44440333Y-27398771D01*
X44440333Y-27398771D02*
X44249857Y-27398771D01*
X44249857Y-27398771D02*
X44154619Y-27446390D01*
X44154619Y-27446390D02*
X44107000Y-27494009D01*
X44107000Y-27494009D02*
X44059381Y-27589247D01*
X45059381Y-27636866D02*
X45821286Y-27636866D01*
X46821285Y-27065438D02*
X46726047Y-27017819D01*
X46726047Y-27017819D02*
X46583190Y-27017819D01*
X46583190Y-27017819D02*
X46440333Y-27065438D01*
X46440333Y-27065438D02*
X46345095Y-27160676D01*
X46345095Y-27160676D02*
X46297476Y-27255914D01*
X46297476Y-27255914D02*
X46249857Y-27446390D01*
X46249857Y-27446390D02*
X46249857Y-27589247D01*
X46249857Y-27589247D02*
X46297476Y-27779723D01*
X46297476Y-27779723D02*
X46345095Y-27874961D01*
X46345095Y-27874961D02*
X46440333Y-27970200D01*
X46440333Y-27970200D02*
X46583190Y-28017819D01*
X46583190Y-28017819D02*
X46678428Y-28017819D01*
X46678428Y-28017819D02*
X46821285Y-27970200D01*
X46821285Y-27970200D02*
X46868904Y-27922580D01*
X46868904Y-27922580D02*
X46868904Y-27589247D01*
X46868904Y-27589247D02*
X46678428Y-27589247D01*
X34870214Y-39537519D02*
X34870214Y-38537519D01*
X34870214Y-39013709D02*
X35441642Y-39013709D01*
X35441642Y-39537519D02*
X35441642Y-38537519D01*
X35774976Y-38537519D02*
X36108309Y-39537519D01*
X36108309Y-39537519D02*
X36441642Y-38537519D01*
X36679738Y-38537519D02*
X37346404Y-38537519D01*
X37346404Y-38537519D02*
X36917833Y-39537519D01*
X37632119Y-38537519D02*
X38251166Y-38537519D01*
X38251166Y-38537519D02*
X37917833Y-38918471D01*
X37917833Y-38918471D02*
X38060690Y-38918471D01*
X38060690Y-38918471D02*
X38155928Y-38966090D01*
X38155928Y-38966090D02*
X38203547Y-39013709D01*
X38203547Y-39013709D02*
X38251166Y-39108947D01*
X38251166Y-39108947D02*
X38251166Y-39347042D01*
X38251166Y-39347042D02*
X38203547Y-39442280D01*
X38203547Y-39442280D02*
X38155928Y-39489900D01*
X38155928Y-39489900D02*
X38060690Y-39537519D01*
X38060690Y-39537519D02*
X37774976Y-39537519D01*
X37774976Y-39537519D02*
X37679738Y-39489900D01*
X37679738Y-39489900D02*
X37632119Y-39442280D01*
X39155928Y-38537519D02*
X38679738Y-38537519D01*
X38679738Y-38537519D02*
X38632119Y-39013709D01*
X38632119Y-39013709D02*
X38679738Y-38966090D01*
X38679738Y-38966090D02*
X38774976Y-38918471D01*
X38774976Y-38918471D02*
X39013071Y-38918471D01*
X39013071Y-38918471D02*
X39108309Y-38966090D01*
X39108309Y-38966090D02*
X39155928Y-39013709D01*
X39155928Y-39013709D02*
X39203547Y-39108947D01*
X39203547Y-39108947D02*
X39203547Y-39347042D01*
X39203547Y-39347042D02*
X39155928Y-39442280D01*
X39155928Y-39442280D02*
X39108309Y-39489900D01*
X39108309Y-39489900D02*
X39013071Y-39537519D01*
X39013071Y-39537519D02*
X38774976Y-39537519D01*
X38774976Y-39537519D02*
X38679738Y-39489900D01*
X38679738Y-39489900D02*
X38632119Y-39442280D01*
X40108309Y-38537519D02*
X39632119Y-38537519D01*
X39632119Y-38537519D02*
X39584500Y-39013709D01*
X39584500Y-39013709D02*
X39632119Y-38966090D01*
X39632119Y-38966090D02*
X39727357Y-38918471D01*
X39727357Y-38918471D02*
X39965452Y-38918471D01*
X39965452Y-38918471D02*
X40060690Y-38966090D01*
X40060690Y-38966090D02*
X40108309Y-39013709D01*
X40108309Y-39013709D02*
X40155928Y-39108947D01*
X40155928Y-39108947D02*
X40155928Y-39347042D01*
X40155928Y-39347042D02*
X40108309Y-39442280D01*
X40108309Y-39442280D02*
X40060690Y-39489900D01*
X40060690Y-39489900D02*
X39965452Y-39537519D01*
X39965452Y-39537519D02*
X39727357Y-39537519D01*
X39727357Y-39537519D02*
X39632119Y-39489900D01*
X39632119Y-39489900D02*
X39584500Y-39442280D01*
X40584500Y-39537519D02*
X40584500Y-38537519D01*
X41155928Y-39537519D02*
X40727357Y-38966090D01*
X41155928Y-38537519D02*
X40584500Y-39108947D01*
X42013071Y-38537519D02*
X41822595Y-38537519D01*
X41822595Y-38537519D02*
X41727357Y-38585138D01*
X41727357Y-38585138D02*
X41679738Y-38632757D01*
X41679738Y-38632757D02*
X41584500Y-38775614D01*
X41584500Y-38775614D02*
X41536881Y-38966090D01*
X41536881Y-38966090D02*
X41536881Y-39347042D01*
X41536881Y-39347042D02*
X41584500Y-39442280D01*
X41584500Y-39442280D02*
X41632119Y-39489900D01*
X41632119Y-39489900D02*
X41727357Y-39537519D01*
X41727357Y-39537519D02*
X41917833Y-39537519D01*
X41917833Y-39537519D02*
X42013071Y-39489900D01*
X42013071Y-39489900D02*
X42060690Y-39442280D01*
X42060690Y-39442280D02*
X42108309Y-39347042D01*
X42108309Y-39347042D02*
X42108309Y-39108947D01*
X42108309Y-39108947D02*
X42060690Y-39013709D01*
X42060690Y-39013709D02*
X42013071Y-38966090D01*
X42013071Y-38966090D02*
X41917833Y-38918471D01*
X41917833Y-38918471D02*
X41727357Y-38918471D01*
X41727357Y-38918471D02*
X41632119Y-38966090D01*
X41632119Y-38966090D02*
X41584500Y-39013709D01*
X41584500Y-39013709D02*
X41536881Y-39108947D01*
X42536881Y-39156566D02*
X43298786Y-39156566D01*
X44298785Y-38585138D02*
X44203547Y-38537519D01*
X44203547Y-38537519D02*
X44060690Y-38537519D01*
X44060690Y-38537519D02*
X43917833Y-38585138D01*
X43917833Y-38585138D02*
X43822595Y-38680376D01*
X43822595Y-38680376D02*
X43774976Y-38775614D01*
X43774976Y-38775614D02*
X43727357Y-38966090D01*
X43727357Y-38966090D02*
X43727357Y-39108947D01*
X43727357Y-39108947D02*
X43774976Y-39299423D01*
X43774976Y-39299423D02*
X43822595Y-39394661D01*
X43822595Y-39394661D02*
X43917833Y-39489900D01*
X43917833Y-39489900D02*
X44060690Y-39537519D01*
X44060690Y-39537519D02*
X44155928Y-39537519D01*
X44155928Y-39537519D02*
X44298785Y-39489900D01*
X44298785Y-39489900D02*
X44346404Y-39442280D01*
X44346404Y-39442280D02*
X44346404Y-39108947D01*
X44346404Y-39108947D02*
X44155928Y-39108947D01*
X33295229Y-20985819D02*
X33295229Y-19985819D01*
X33723800Y-20938200D02*
X33866657Y-20985819D01*
X33866657Y-20985819D02*
X34104752Y-20985819D01*
X34104752Y-20985819D02*
X34199990Y-20938200D01*
X34199990Y-20938200D02*
X34247609Y-20890580D01*
X34247609Y-20890580D02*
X34295228Y-20795342D01*
X34295228Y-20795342D02*
X34295228Y-20700104D01*
X34295228Y-20700104D02*
X34247609Y-20604866D01*
X34247609Y-20604866D02*
X34199990Y-20557247D01*
X34199990Y-20557247D02*
X34104752Y-20509628D01*
X34104752Y-20509628D02*
X33914276Y-20462009D01*
X33914276Y-20462009D02*
X33819038Y-20414390D01*
X33819038Y-20414390D02*
X33771419Y-20366771D01*
X33771419Y-20366771D02*
X33723800Y-20271533D01*
X33723800Y-20271533D02*
X33723800Y-20176295D01*
X33723800Y-20176295D02*
X33771419Y-20081057D01*
X33771419Y-20081057D02*
X33819038Y-20033438D01*
X33819038Y-20033438D02*
X33914276Y-19985819D01*
X33914276Y-19985819D02*
X34152371Y-19985819D01*
X34152371Y-19985819D02*
X34295228Y-20033438D01*
X34914276Y-19985819D02*
X35104752Y-19985819D01*
X35104752Y-19985819D02*
X35199990Y-20033438D01*
X35199990Y-20033438D02*
X35295228Y-20128676D01*
X35295228Y-20128676D02*
X35342847Y-20319152D01*
X35342847Y-20319152D02*
X35342847Y-20652485D01*
X35342847Y-20652485D02*
X35295228Y-20842961D01*
X35295228Y-20842961D02*
X35199990Y-20938200D01*
X35199990Y-20938200D02*
X35104752Y-20985819D01*
X35104752Y-20985819D02*
X34914276Y-20985819D01*
X34914276Y-20985819D02*
X34819038Y-20938200D01*
X34819038Y-20938200D02*
X34723800Y-20842961D01*
X34723800Y-20842961D02*
X34676181Y-20652485D01*
X34676181Y-20652485D02*
X34676181Y-20319152D01*
X34676181Y-20319152D02*
X34723800Y-20128676D01*
X34723800Y-20128676D02*
X34819038Y-20033438D01*
X34819038Y-20033438D02*
X34914276Y-19985819D01*
X35676181Y-19985819D02*
X36342847Y-19985819D01*
X36342847Y-19985819D02*
X35914276Y-20985819D01*
X36628562Y-19985819D02*
X37295228Y-19985819D01*
X37295228Y-19985819D02*
X36866657Y-20985819D01*
X38104752Y-20319152D02*
X38104752Y-20985819D01*
X37866657Y-19938200D02*
X37628562Y-20652485D01*
X37628562Y-20652485D02*
X38247609Y-20652485D01*
X38819038Y-19985819D02*
X38914276Y-19985819D01*
X38914276Y-19985819D02*
X39009514Y-20033438D01*
X39009514Y-20033438D02*
X39057133Y-20081057D01*
X39057133Y-20081057D02*
X39104752Y-20176295D01*
X39104752Y-20176295D02*
X39152371Y-20366771D01*
X39152371Y-20366771D02*
X39152371Y-20604866D01*
X39152371Y-20604866D02*
X39104752Y-20795342D01*
X39104752Y-20795342D02*
X39057133Y-20890580D01*
X39057133Y-20890580D02*
X39009514Y-20938200D01*
X39009514Y-20938200D02*
X38914276Y-20985819D01*
X38914276Y-20985819D02*
X38819038Y-20985819D01*
X38819038Y-20985819D02*
X38723800Y-20938200D01*
X38723800Y-20938200D02*
X38676181Y-20890580D01*
X38676181Y-20890580D02*
X38628562Y-20795342D01*
X38628562Y-20795342D02*
X38580943Y-20604866D01*
X38580943Y-20604866D02*
X38580943Y-20366771D01*
X38580943Y-20366771D02*
X38628562Y-20176295D01*
X38628562Y-20176295D02*
X38676181Y-20081057D01*
X38676181Y-20081057D02*
X38723800Y-20033438D01*
X38723800Y-20033438D02*
X38819038Y-19985819D01*
X39580943Y-20985819D02*
X39580943Y-19985819D01*
X39580943Y-19985819D02*
X39819038Y-19985819D01*
X39819038Y-19985819D02*
X39961895Y-20033438D01*
X39961895Y-20033438D02*
X40057133Y-20128676D01*
X40057133Y-20128676D02*
X40104752Y-20223914D01*
X40104752Y-20223914D02*
X40152371Y-20414390D01*
X40152371Y-20414390D02*
X40152371Y-20557247D01*
X40152371Y-20557247D02*
X40104752Y-20747723D01*
X40104752Y-20747723D02*
X40057133Y-20842961D01*
X40057133Y-20842961D02*
X39961895Y-20938200D01*
X39961895Y-20938200D02*
X39819038Y-20985819D01*
X39819038Y-20985819D02*
X39580943Y-20985819D01*
X40914276Y-20462009D02*
X41057133Y-20509628D01*
X41057133Y-20509628D02*
X41104752Y-20557247D01*
X41104752Y-20557247D02*
X41152371Y-20652485D01*
X41152371Y-20652485D02*
X41152371Y-20795342D01*
X41152371Y-20795342D02*
X41104752Y-20890580D01*
X41104752Y-20890580D02*
X41057133Y-20938200D01*
X41057133Y-20938200D02*
X40961895Y-20985819D01*
X40961895Y-20985819D02*
X40580943Y-20985819D01*
X40580943Y-20985819D02*
X40580943Y-19985819D01*
X40580943Y-19985819D02*
X40914276Y-19985819D01*
X40914276Y-19985819D02*
X41009514Y-20033438D01*
X41009514Y-20033438D02*
X41057133Y-20081057D01*
X41057133Y-20081057D02*
X41104752Y-20176295D01*
X41104752Y-20176295D02*
X41104752Y-20271533D01*
X41104752Y-20271533D02*
X41057133Y-20366771D01*
X41057133Y-20366771D02*
X41009514Y-20414390D01*
X41009514Y-20414390D02*
X40914276Y-20462009D01*
X40914276Y-20462009D02*
X40580943Y-20462009D01*
X42247609Y-21081057D02*
X42152371Y-21033438D01*
X42152371Y-21033438D02*
X42057133Y-20938200D01*
X42057133Y-20938200D02*
X41914276Y-20795342D01*
X41914276Y-20795342D02*
X41819038Y-20747723D01*
X41819038Y-20747723D02*
X41723800Y-20747723D01*
X41771419Y-20985819D02*
X41676181Y-20938200D01*
X41676181Y-20938200D02*
X41580943Y-20842961D01*
X41580943Y-20842961D02*
X41533324Y-20652485D01*
X41533324Y-20652485D02*
X41533324Y-20319152D01*
X41533324Y-20319152D02*
X41580943Y-20128676D01*
X41580943Y-20128676D02*
X41676181Y-20033438D01*
X41676181Y-20033438D02*
X41771419Y-19985819D01*
X41771419Y-19985819D02*
X41961895Y-19985819D01*
X41961895Y-19985819D02*
X42057133Y-20033438D01*
X42057133Y-20033438D02*
X42152371Y-20128676D01*
X42152371Y-20128676D02*
X42199990Y-20319152D01*
X42199990Y-20319152D02*
X42199990Y-20652485D01*
X42199990Y-20652485D02*
X42152371Y-20842961D01*
X42152371Y-20842961D02*
X42057133Y-20938200D01*
X42057133Y-20938200D02*
X41961895Y-20985819D01*
X41961895Y-20985819D02*
X41771419Y-20985819D01*
X43199990Y-20985819D02*
X42866657Y-20509628D01*
X42628562Y-20985819D02*
X42628562Y-19985819D01*
X42628562Y-19985819D02*
X43009514Y-19985819D01*
X43009514Y-19985819D02*
X43104752Y-20033438D01*
X43104752Y-20033438D02*
X43152371Y-20081057D01*
X43152371Y-20081057D02*
X43199990Y-20176295D01*
X43199990Y-20176295D02*
X43199990Y-20319152D01*
X43199990Y-20319152D02*
X43152371Y-20414390D01*
X43152371Y-20414390D02*
X43104752Y-20462009D01*
X43104752Y-20462009D02*
X43009514Y-20509628D01*
X43009514Y-20509628D02*
X42628562Y-20509628D01*
X27274729Y-25760619D02*
X27274729Y-24760619D01*
X27703300Y-25713000D02*
X27846157Y-25760619D01*
X27846157Y-25760619D02*
X28084252Y-25760619D01*
X28084252Y-25760619D02*
X28179490Y-25713000D01*
X28179490Y-25713000D02*
X28227109Y-25665380D01*
X28227109Y-25665380D02*
X28274728Y-25570142D01*
X28274728Y-25570142D02*
X28274728Y-25474904D01*
X28274728Y-25474904D02*
X28227109Y-25379666D01*
X28227109Y-25379666D02*
X28179490Y-25332047D01*
X28179490Y-25332047D02*
X28084252Y-25284428D01*
X28084252Y-25284428D02*
X27893776Y-25236809D01*
X27893776Y-25236809D02*
X27798538Y-25189190D01*
X27798538Y-25189190D02*
X27750919Y-25141571D01*
X27750919Y-25141571D02*
X27703300Y-25046333D01*
X27703300Y-25046333D02*
X27703300Y-24951095D01*
X27703300Y-24951095D02*
X27750919Y-24855857D01*
X27750919Y-24855857D02*
X27798538Y-24808238D01*
X27798538Y-24808238D02*
X27893776Y-24760619D01*
X27893776Y-24760619D02*
X28131871Y-24760619D01*
X28131871Y-24760619D02*
X28274728Y-24808238D01*
X28893776Y-24760619D02*
X29084252Y-24760619D01*
X29084252Y-24760619D02*
X29179490Y-24808238D01*
X29179490Y-24808238D02*
X29274728Y-24903476D01*
X29274728Y-24903476D02*
X29322347Y-25093952D01*
X29322347Y-25093952D02*
X29322347Y-25427285D01*
X29322347Y-25427285D02*
X29274728Y-25617761D01*
X29274728Y-25617761D02*
X29179490Y-25713000D01*
X29179490Y-25713000D02*
X29084252Y-25760619D01*
X29084252Y-25760619D02*
X28893776Y-25760619D01*
X28893776Y-25760619D02*
X28798538Y-25713000D01*
X28798538Y-25713000D02*
X28703300Y-25617761D01*
X28703300Y-25617761D02*
X28655681Y-25427285D01*
X28655681Y-25427285D02*
X28655681Y-25093952D01*
X28655681Y-25093952D02*
X28703300Y-24903476D01*
X28703300Y-24903476D02*
X28798538Y-24808238D01*
X28798538Y-24808238D02*
X28893776Y-24760619D01*
X29655681Y-24760619D02*
X30322347Y-24760619D01*
X30322347Y-24760619D02*
X29893776Y-25760619D01*
X30608062Y-24760619D02*
X31274728Y-24760619D01*
X31274728Y-24760619D02*
X30846157Y-25760619D01*
X32084252Y-25093952D02*
X32084252Y-25760619D01*
X31846157Y-24713000D02*
X31608062Y-25427285D01*
X31608062Y-25427285D02*
X32227109Y-25427285D01*
X32798538Y-24760619D02*
X32893776Y-24760619D01*
X32893776Y-24760619D02*
X32989014Y-24808238D01*
X32989014Y-24808238D02*
X33036633Y-24855857D01*
X33036633Y-24855857D02*
X33084252Y-24951095D01*
X33084252Y-24951095D02*
X33131871Y-25141571D01*
X33131871Y-25141571D02*
X33131871Y-25379666D01*
X33131871Y-25379666D02*
X33084252Y-25570142D01*
X33084252Y-25570142D02*
X33036633Y-25665380D01*
X33036633Y-25665380D02*
X32989014Y-25713000D01*
X32989014Y-25713000D02*
X32893776Y-25760619D01*
X32893776Y-25760619D02*
X32798538Y-25760619D01*
X32798538Y-25760619D02*
X32703300Y-25713000D01*
X32703300Y-25713000D02*
X32655681Y-25665380D01*
X32655681Y-25665380D02*
X32608062Y-25570142D01*
X32608062Y-25570142D02*
X32560443Y-25379666D01*
X32560443Y-25379666D02*
X32560443Y-25141571D01*
X32560443Y-25141571D02*
X32608062Y-24951095D01*
X32608062Y-24951095D02*
X32655681Y-24855857D01*
X32655681Y-24855857D02*
X32703300Y-24808238D01*
X32703300Y-24808238D02*
X32798538Y-24760619D01*
X33560443Y-25760619D02*
X33560443Y-24760619D01*
X33560443Y-24760619D02*
X33798538Y-24760619D01*
X33798538Y-24760619D02*
X33941395Y-24808238D01*
X33941395Y-24808238D02*
X34036633Y-24903476D01*
X34036633Y-24903476D02*
X34084252Y-24998714D01*
X34084252Y-24998714D02*
X34131871Y-25189190D01*
X34131871Y-25189190D02*
X34131871Y-25332047D01*
X34131871Y-25332047D02*
X34084252Y-25522523D01*
X34084252Y-25522523D02*
X34036633Y-25617761D01*
X34036633Y-25617761D02*
X33941395Y-25713000D01*
X33941395Y-25713000D02*
X33798538Y-25760619D01*
X33798538Y-25760619D02*
X33560443Y-25760619D01*
X34893776Y-25236809D02*
X35036633Y-25284428D01*
X35036633Y-25284428D02*
X35084252Y-25332047D01*
X35084252Y-25332047D02*
X35131871Y-25427285D01*
X35131871Y-25427285D02*
X35131871Y-25570142D01*
X35131871Y-25570142D02*
X35084252Y-25665380D01*
X35084252Y-25665380D02*
X35036633Y-25713000D01*
X35036633Y-25713000D02*
X34941395Y-25760619D01*
X34941395Y-25760619D02*
X34560443Y-25760619D01*
X34560443Y-25760619D02*
X34560443Y-24760619D01*
X34560443Y-24760619D02*
X34893776Y-24760619D01*
X34893776Y-24760619D02*
X34989014Y-24808238D01*
X34989014Y-24808238D02*
X35036633Y-24855857D01*
X35036633Y-24855857D02*
X35084252Y-24951095D01*
X35084252Y-24951095D02*
X35084252Y-25046333D01*
X35084252Y-25046333D02*
X35036633Y-25141571D01*
X35036633Y-25141571D02*
X34989014Y-25189190D01*
X34989014Y-25189190D02*
X34893776Y-25236809D01*
X34893776Y-25236809D02*
X34560443Y-25236809D01*
X36227109Y-25855857D02*
X36131871Y-25808238D01*
X36131871Y-25808238D02*
X36036633Y-25713000D01*
X36036633Y-25713000D02*
X35893776Y-25570142D01*
X35893776Y-25570142D02*
X35798538Y-25522523D01*
X35798538Y-25522523D02*
X35703300Y-25522523D01*
X35750919Y-25760619D02*
X35655681Y-25713000D01*
X35655681Y-25713000D02*
X35560443Y-25617761D01*
X35560443Y-25617761D02*
X35512824Y-25427285D01*
X35512824Y-25427285D02*
X35512824Y-25093952D01*
X35512824Y-25093952D02*
X35560443Y-24903476D01*
X35560443Y-24903476D02*
X35655681Y-24808238D01*
X35655681Y-24808238D02*
X35750919Y-24760619D01*
X35750919Y-24760619D02*
X35941395Y-24760619D01*
X35941395Y-24760619D02*
X36036633Y-24808238D01*
X36036633Y-24808238D02*
X36131871Y-24903476D01*
X36131871Y-24903476D02*
X36179490Y-25093952D01*
X36179490Y-25093952D02*
X36179490Y-25427285D01*
X36179490Y-25427285D02*
X36131871Y-25617761D01*
X36131871Y-25617761D02*
X36036633Y-25713000D01*
X36036633Y-25713000D02*
X35941395Y-25760619D01*
X35941395Y-25760619D02*
X35750919Y-25760619D01*
X37179490Y-25760619D02*
X36846157Y-25284428D01*
X36608062Y-25760619D02*
X36608062Y-24760619D01*
X36608062Y-24760619D02*
X36989014Y-24760619D01*
X36989014Y-24760619D02*
X37084252Y-24808238D01*
X37084252Y-24808238D02*
X37131871Y-24855857D01*
X37131871Y-24855857D02*
X37179490Y-24951095D01*
X37179490Y-24951095D02*
X37179490Y-25093952D01*
X37179490Y-25093952D02*
X37131871Y-25189190D01*
X37131871Y-25189190D02*
X37084252Y-25236809D01*
X37084252Y-25236809D02*
X36989014Y-25284428D01*
X36989014Y-25284428D02*
X36608062Y-25284428D01*
X23155829Y-37969519D02*
X23155829Y-36969519D01*
X23584400Y-37921900D02*
X23727257Y-37969519D01*
X23727257Y-37969519D02*
X23965352Y-37969519D01*
X23965352Y-37969519D02*
X24060590Y-37921900D01*
X24060590Y-37921900D02*
X24108209Y-37874280D01*
X24108209Y-37874280D02*
X24155828Y-37779042D01*
X24155828Y-37779042D02*
X24155828Y-37683804D01*
X24155828Y-37683804D02*
X24108209Y-37588566D01*
X24108209Y-37588566D02*
X24060590Y-37540947D01*
X24060590Y-37540947D02*
X23965352Y-37493328D01*
X23965352Y-37493328D02*
X23774876Y-37445709D01*
X23774876Y-37445709D02*
X23679638Y-37398090D01*
X23679638Y-37398090D02*
X23632019Y-37350471D01*
X23632019Y-37350471D02*
X23584400Y-37255233D01*
X23584400Y-37255233D02*
X23584400Y-37159995D01*
X23584400Y-37159995D02*
X23632019Y-37064757D01*
X23632019Y-37064757D02*
X23679638Y-37017138D01*
X23679638Y-37017138D02*
X23774876Y-36969519D01*
X23774876Y-36969519D02*
X24012971Y-36969519D01*
X24012971Y-36969519D02*
X24155828Y-37017138D01*
X24774876Y-36969519D02*
X24965352Y-36969519D01*
X24965352Y-36969519D02*
X25060590Y-37017138D01*
X25060590Y-37017138D02*
X25155828Y-37112376D01*
X25155828Y-37112376D02*
X25203447Y-37302852D01*
X25203447Y-37302852D02*
X25203447Y-37636185D01*
X25203447Y-37636185D02*
X25155828Y-37826661D01*
X25155828Y-37826661D02*
X25060590Y-37921900D01*
X25060590Y-37921900D02*
X24965352Y-37969519D01*
X24965352Y-37969519D02*
X24774876Y-37969519D01*
X24774876Y-37969519D02*
X24679638Y-37921900D01*
X24679638Y-37921900D02*
X24584400Y-37826661D01*
X24584400Y-37826661D02*
X24536781Y-37636185D01*
X24536781Y-37636185D02*
X24536781Y-37302852D01*
X24536781Y-37302852D02*
X24584400Y-37112376D01*
X24584400Y-37112376D02*
X24679638Y-37017138D01*
X24679638Y-37017138D02*
X24774876Y-36969519D01*
X25536781Y-36969519D02*
X26203447Y-36969519D01*
X26203447Y-36969519D02*
X25774876Y-37969519D01*
X26489162Y-36969519D02*
X27155828Y-36969519D01*
X27155828Y-36969519D02*
X26727257Y-37969519D01*
X27965352Y-37302852D02*
X27965352Y-37969519D01*
X27727257Y-36921900D02*
X27489162Y-37636185D01*
X27489162Y-37636185D02*
X28108209Y-37636185D01*
X28679638Y-36969519D02*
X28774876Y-36969519D01*
X28774876Y-36969519D02*
X28870114Y-37017138D01*
X28870114Y-37017138D02*
X28917733Y-37064757D01*
X28917733Y-37064757D02*
X28965352Y-37159995D01*
X28965352Y-37159995D02*
X29012971Y-37350471D01*
X29012971Y-37350471D02*
X29012971Y-37588566D01*
X29012971Y-37588566D02*
X28965352Y-37779042D01*
X28965352Y-37779042D02*
X28917733Y-37874280D01*
X28917733Y-37874280D02*
X28870114Y-37921900D01*
X28870114Y-37921900D02*
X28774876Y-37969519D01*
X28774876Y-37969519D02*
X28679638Y-37969519D01*
X28679638Y-37969519D02*
X28584400Y-37921900D01*
X28584400Y-37921900D02*
X28536781Y-37874280D01*
X28536781Y-37874280D02*
X28489162Y-37779042D01*
X28489162Y-37779042D02*
X28441543Y-37588566D01*
X28441543Y-37588566D02*
X28441543Y-37350471D01*
X28441543Y-37350471D02*
X28489162Y-37159995D01*
X28489162Y-37159995D02*
X28536781Y-37064757D01*
X28536781Y-37064757D02*
X28584400Y-37017138D01*
X28584400Y-37017138D02*
X28679638Y-36969519D01*
X29441543Y-37969519D02*
X29441543Y-36969519D01*
X29441543Y-36969519D02*
X29679638Y-36969519D01*
X29679638Y-36969519D02*
X29822495Y-37017138D01*
X29822495Y-37017138D02*
X29917733Y-37112376D01*
X29917733Y-37112376D02*
X29965352Y-37207614D01*
X29965352Y-37207614D02*
X30012971Y-37398090D01*
X30012971Y-37398090D02*
X30012971Y-37540947D01*
X30012971Y-37540947D02*
X29965352Y-37731423D01*
X29965352Y-37731423D02*
X29917733Y-37826661D01*
X29917733Y-37826661D02*
X29822495Y-37921900D01*
X29822495Y-37921900D02*
X29679638Y-37969519D01*
X29679638Y-37969519D02*
X29441543Y-37969519D01*
X30774876Y-37445709D02*
X30917733Y-37493328D01*
X30917733Y-37493328D02*
X30965352Y-37540947D01*
X30965352Y-37540947D02*
X31012971Y-37636185D01*
X31012971Y-37636185D02*
X31012971Y-37779042D01*
X31012971Y-37779042D02*
X30965352Y-37874280D01*
X30965352Y-37874280D02*
X30917733Y-37921900D01*
X30917733Y-37921900D02*
X30822495Y-37969519D01*
X30822495Y-37969519D02*
X30441543Y-37969519D01*
X30441543Y-37969519D02*
X30441543Y-36969519D01*
X30441543Y-36969519D02*
X30774876Y-36969519D01*
X30774876Y-36969519D02*
X30870114Y-37017138D01*
X30870114Y-37017138D02*
X30917733Y-37064757D01*
X30917733Y-37064757D02*
X30965352Y-37159995D01*
X30965352Y-37159995D02*
X30965352Y-37255233D01*
X30965352Y-37255233D02*
X30917733Y-37350471D01*
X30917733Y-37350471D02*
X30870114Y-37398090D01*
X30870114Y-37398090D02*
X30774876Y-37445709D01*
X30774876Y-37445709D02*
X30441543Y-37445709D01*
X32108209Y-38064757D02*
X32012971Y-38017138D01*
X32012971Y-38017138D02*
X31917733Y-37921900D01*
X31917733Y-37921900D02*
X31774876Y-37779042D01*
X31774876Y-37779042D02*
X31679638Y-37731423D01*
X31679638Y-37731423D02*
X31584400Y-37731423D01*
X31632019Y-37969519D02*
X31536781Y-37921900D01*
X31536781Y-37921900D02*
X31441543Y-37826661D01*
X31441543Y-37826661D02*
X31393924Y-37636185D01*
X31393924Y-37636185D02*
X31393924Y-37302852D01*
X31393924Y-37302852D02*
X31441543Y-37112376D01*
X31441543Y-37112376D02*
X31536781Y-37017138D01*
X31536781Y-37017138D02*
X31632019Y-36969519D01*
X31632019Y-36969519D02*
X31822495Y-36969519D01*
X31822495Y-36969519D02*
X31917733Y-37017138D01*
X31917733Y-37017138D02*
X32012971Y-37112376D01*
X32012971Y-37112376D02*
X32060590Y-37302852D01*
X32060590Y-37302852D02*
X32060590Y-37636185D01*
X32060590Y-37636185D02*
X32012971Y-37826661D01*
X32012971Y-37826661D02*
X31917733Y-37921900D01*
X31917733Y-37921900D02*
X31822495Y-37969519D01*
X31822495Y-37969519D02*
X31632019Y-37969519D01*
X33060590Y-37969519D02*
X32727257Y-37493328D01*
X32489162Y-37969519D02*
X32489162Y-36969519D01*
X32489162Y-36969519D02*
X32870114Y-36969519D01*
X32870114Y-36969519D02*
X32965352Y-37017138D01*
X32965352Y-37017138D02*
X33012971Y-37064757D01*
X33012971Y-37064757D02*
X33060590Y-37159995D01*
X33060590Y-37159995D02*
X33060590Y-37302852D01*
X33060590Y-37302852D02*
X33012971Y-37398090D01*
X33012971Y-37398090D02*
X32965352Y-37445709D01*
X32965352Y-37445709D02*
X32870114Y-37493328D01*
X32870114Y-37493328D02*
X32489162Y-37493328D01*
X25415029Y-30878019D02*
X25415029Y-29878019D01*
X25843600Y-30830400D02*
X25986457Y-30878019D01*
X25986457Y-30878019D02*
X26224552Y-30878019D01*
X26224552Y-30878019D02*
X26319790Y-30830400D01*
X26319790Y-30830400D02*
X26367409Y-30782780D01*
X26367409Y-30782780D02*
X26415028Y-30687542D01*
X26415028Y-30687542D02*
X26415028Y-30592304D01*
X26415028Y-30592304D02*
X26367409Y-30497066D01*
X26367409Y-30497066D02*
X26319790Y-30449447D01*
X26319790Y-30449447D02*
X26224552Y-30401828D01*
X26224552Y-30401828D02*
X26034076Y-30354209D01*
X26034076Y-30354209D02*
X25938838Y-30306590D01*
X25938838Y-30306590D02*
X25891219Y-30258971D01*
X25891219Y-30258971D02*
X25843600Y-30163733D01*
X25843600Y-30163733D02*
X25843600Y-30068495D01*
X25843600Y-30068495D02*
X25891219Y-29973257D01*
X25891219Y-29973257D02*
X25938838Y-29925638D01*
X25938838Y-29925638D02*
X26034076Y-29878019D01*
X26034076Y-29878019D02*
X26272171Y-29878019D01*
X26272171Y-29878019D02*
X26415028Y-29925638D01*
X27034076Y-29878019D02*
X27224552Y-29878019D01*
X27224552Y-29878019D02*
X27319790Y-29925638D01*
X27319790Y-29925638D02*
X27415028Y-30020876D01*
X27415028Y-30020876D02*
X27462647Y-30211352D01*
X27462647Y-30211352D02*
X27462647Y-30544685D01*
X27462647Y-30544685D02*
X27415028Y-30735161D01*
X27415028Y-30735161D02*
X27319790Y-30830400D01*
X27319790Y-30830400D02*
X27224552Y-30878019D01*
X27224552Y-30878019D02*
X27034076Y-30878019D01*
X27034076Y-30878019D02*
X26938838Y-30830400D01*
X26938838Y-30830400D02*
X26843600Y-30735161D01*
X26843600Y-30735161D02*
X26795981Y-30544685D01*
X26795981Y-30544685D02*
X26795981Y-30211352D01*
X26795981Y-30211352D02*
X26843600Y-30020876D01*
X26843600Y-30020876D02*
X26938838Y-29925638D01*
X26938838Y-29925638D02*
X27034076Y-29878019D01*
X27795981Y-29878019D02*
X28462647Y-29878019D01*
X28462647Y-29878019D02*
X28034076Y-30878019D01*
X28748362Y-29878019D02*
X29415028Y-29878019D01*
X29415028Y-29878019D02*
X28986457Y-30878019D01*
X30224552Y-30211352D02*
X30224552Y-30878019D01*
X29986457Y-29830400D02*
X29748362Y-30544685D01*
X29748362Y-30544685D02*
X30367409Y-30544685D01*
X30938838Y-29878019D02*
X31034076Y-29878019D01*
X31034076Y-29878019D02*
X31129314Y-29925638D01*
X31129314Y-29925638D02*
X31176933Y-29973257D01*
X31176933Y-29973257D02*
X31224552Y-30068495D01*
X31224552Y-30068495D02*
X31272171Y-30258971D01*
X31272171Y-30258971D02*
X31272171Y-30497066D01*
X31272171Y-30497066D02*
X31224552Y-30687542D01*
X31224552Y-30687542D02*
X31176933Y-30782780D01*
X31176933Y-30782780D02*
X31129314Y-30830400D01*
X31129314Y-30830400D02*
X31034076Y-30878019D01*
X31034076Y-30878019D02*
X30938838Y-30878019D01*
X30938838Y-30878019D02*
X30843600Y-30830400D01*
X30843600Y-30830400D02*
X30795981Y-30782780D01*
X30795981Y-30782780D02*
X30748362Y-30687542D01*
X30748362Y-30687542D02*
X30700743Y-30497066D01*
X30700743Y-30497066D02*
X30700743Y-30258971D01*
X30700743Y-30258971D02*
X30748362Y-30068495D01*
X30748362Y-30068495D02*
X30795981Y-29973257D01*
X30795981Y-29973257D02*
X30843600Y-29925638D01*
X30843600Y-29925638D02*
X30938838Y-29878019D01*
X31700743Y-30878019D02*
X31700743Y-29878019D01*
X31700743Y-29878019D02*
X31938838Y-29878019D01*
X31938838Y-29878019D02*
X32081695Y-29925638D01*
X32081695Y-29925638D02*
X32176933Y-30020876D01*
X32176933Y-30020876D02*
X32224552Y-30116114D01*
X32224552Y-30116114D02*
X32272171Y-30306590D01*
X32272171Y-30306590D02*
X32272171Y-30449447D01*
X32272171Y-30449447D02*
X32224552Y-30639923D01*
X32224552Y-30639923D02*
X32176933Y-30735161D01*
X32176933Y-30735161D02*
X32081695Y-30830400D01*
X32081695Y-30830400D02*
X31938838Y-30878019D01*
X31938838Y-30878019D02*
X31700743Y-30878019D01*
X33034076Y-30354209D02*
X33176933Y-30401828D01*
X33176933Y-30401828D02*
X33224552Y-30449447D01*
X33224552Y-30449447D02*
X33272171Y-30544685D01*
X33272171Y-30544685D02*
X33272171Y-30687542D01*
X33272171Y-30687542D02*
X33224552Y-30782780D01*
X33224552Y-30782780D02*
X33176933Y-30830400D01*
X33176933Y-30830400D02*
X33081695Y-30878019D01*
X33081695Y-30878019D02*
X32700743Y-30878019D01*
X32700743Y-30878019D02*
X32700743Y-29878019D01*
X32700743Y-29878019D02*
X33034076Y-29878019D01*
X33034076Y-29878019D02*
X33129314Y-29925638D01*
X33129314Y-29925638D02*
X33176933Y-29973257D01*
X33176933Y-29973257D02*
X33224552Y-30068495D01*
X33224552Y-30068495D02*
X33224552Y-30163733D01*
X33224552Y-30163733D02*
X33176933Y-30258971D01*
X33176933Y-30258971D02*
X33129314Y-30306590D01*
X33129314Y-30306590D02*
X33034076Y-30354209D01*
X33034076Y-30354209D02*
X32700743Y-30354209D01*
X34367409Y-30973257D02*
X34272171Y-30925638D01*
X34272171Y-30925638D02*
X34176933Y-30830400D01*
X34176933Y-30830400D02*
X34034076Y-30687542D01*
X34034076Y-30687542D02*
X33938838Y-30639923D01*
X33938838Y-30639923D02*
X33843600Y-30639923D01*
X33891219Y-30878019D02*
X33795981Y-30830400D01*
X33795981Y-30830400D02*
X33700743Y-30735161D01*
X33700743Y-30735161D02*
X33653124Y-30544685D01*
X33653124Y-30544685D02*
X33653124Y-30211352D01*
X33653124Y-30211352D02*
X33700743Y-30020876D01*
X33700743Y-30020876D02*
X33795981Y-29925638D01*
X33795981Y-29925638D02*
X33891219Y-29878019D01*
X33891219Y-29878019D02*
X34081695Y-29878019D01*
X34081695Y-29878019D02*
X34176933Y-29925638D01*
X34176933Y-29925638D02*
X34272171Y-30020876D01*
X34272171Y-30020876D02*
X34319790Y-30211352D01*
X34319790Y-30211352D02*
X34319790Y-30544685D01*
X34319790Y-30544685D02*
X34272171Y-30735161D01*
X34272171Y-30735161D02*
X34176933Y-30830400D01*
X34176933Y-30830400D02*
X34081695Y-30878019D01*
X34081695Y-30878019D02*
X33891219Y-30878019D01*
X35319790Y-30878019D02*
X34986457Y-30401828D01*
X34748362Y-30878019D02*
X34748362Y-29878019D01*
X34748362Y-29878019D02*
X35129314Y-29878019D01*
X35129314Y-29878019D02*
X35224552Y-29925638D01*
X35224552Y-29925638D02*
X35272171Y-29973257D01*
X35272171Y-29973257D02*
X35319790Y-30068495D01*
X35319790Y-30068495D02*
X35319790Y-30211352D01*
X35319790Y-30211352D02*
X35272171Y-30306590D01*
X35272171Y-30306590D02*
X35224552Y-30354209D01*
X35224552Y-30354209D02*
X35129314Y-30401828D01*
X35129314Y-30401828D02*
X34748362Y-30401828D01*
X44290261Y-18857119D02*
X43956928Y-18380928D01*
X43718833Y-18857119D02*
X43718833Y-17857119D01*
X43718833Y-17857119D02*
X44099785Y-17857119D01*
X44099785Y-17857119D02*
X44195023Y-17904738D01*
X44195023Y-17904738D02*
X44242642Y-17952357D01*
X44242642Y-17952357D02*
X44290261Y-18047595D01*
X44290261Y-18047595D02*
X44290261Y-18190452D01*
X44290261Y-18190452D02*
X44242642Y-18285690D01*
X44242642Y-18285690D02*
X44195023Y-18333309D01*
X44195023Y-18333309D02*
X44099785Y-18380928D01*
X44099785Y-18380928D02*
X43718833Y-18380928D01*
X44909309Y-17857119D02*
X45004547Y-17857119D01*
X45004547Y-17857119D02*
X45099785Y-17904738D01*
X45099785Y-17904738D02*
X45147404Y-17952357D01*
X45147404Y-17952357D02*
X45195023Y-18047595D01*
X45195023Y-18047595D02*
X45242642Y-18238071D01*
X45242642Y-18238071D02*
X45242642Y-18476166D01*
X45242642Y-18476166D02*
X45195023Y-18666642D01*
X45195023Y-18666642D02*
X45147404Y-18761880D01*
X45147404Y-18761880D02*
X45099785Y-18809500D01*
X45099785Y-18809500D02*
X45004547Y-18857119D01*
X45004547Y-18857119D02*
X44909309Y-18857119D01*
X44909309Y-18857119D02*
X44814071Y-18809500D01*
X44814071Y-18809500D02*
X44766452Y-18761880D01*
X44766452Y-18761880D02*
X44718833Y-18666642D01*
X44718833Y-18666642D02*
X44671214Y-18476166D01*
X44671214Y-18476166D02*
X44671214Y-18238071D01*
X44671214Y-18238071D02*
X44718833Y-18047595D01*
X44718833Y-18047595D02*
X44766452Y-17952357D01*
X44766452Y-17952357D02*
X44814071Y-17904738D01*
X44814071Y-17904738D02*
X44909309Y-17857119D01*
X46099785Y-18190452D02*
X46099785Y-18857119D01*
X45861690Y-17809500D02*
X45623595Y-18523785D01*
X45623595Y-18523785D02*
X46242642Y-18523785D01*
X46814071Y-17857119D02*
X46909309Y-17857119D01*
X46909309Y-17857119D02*
X47004547Y-17904738D01*
X47004547Y-17904738D02*
X47052166Y-17952357D01*
X47052166Y-17952357D02*
X47099785Y-18047595D01*
X47099785Y-18047595D02*
X47147404Y-18238071D01*
X47147404Y-18238071D02*
X47147404Y-18476166D01*
X47147404Y-18476166D02*
X47099785Y-18666642D01*
X47099785Y-18666642D02*
X47052166Y-18761880D01*
X47052166Y-18761880D02*
X47004547Y-18809500D01*
X47004547Y-18809500D02*
X46909309Y-18857119D01*
X46909309Y-18857119D02*
X46814071Y-18857119D01*
X46814071Y-18857119D02*
X46718833Y-18809500D01*
X46718833Y-18809500D02*
X46671214Y-18761880D01*
X46671214Y-18761880D02*
X46623595Y-18666642D01*
X46623595Y-18666642D02*
X46575976Y-18476166D01*
X46575976Y-18476166D02*
X46575976Y-18238071D01*
X46575976Y-18238071D02*
X46623595Y-18047595D01*
X46623595Y-18047595D02*
X46671214Y-17952357D01*
X46671214Y-17952357D02*
X46718833Y-17904738D01*
X46718833Y-17904738D02*
X46814071Y-17857119D01*
X47528357Y-17952357D02*
X47575976Y-17904738D01*
X47575976Y-17904738D02*
X47671214Y-17857119D01*
X47671214Y-17857119D02*
X47909309Y-17857119D01*
X47909309Y-17857119D02*
X48004547Y-17904738D01*
X48004547Y-17904738D02*
X48052166Y-17952357D01*
X48052166Y-17952357D02*
X48099785Y-18047595D01*
X48099785Y-18047595D02*
X48099785Y-18142833D01*
X48099785Y-18142833D02*
X48052166Y-18285690D01*
X48052166Y-18285690D02*
X47480738Y-18857119D01*
X47480738Y-18857119D02*
X48099785Y-18857119D01*
X42328561Y-34153819D02*
X41995228Y-33677628D01*
X41757133Y-34153819D02*
X41757133Y-33153819D01*
X41757133Y-33153819D02*
X42138085Y-33153819D01*
X42138085Y-33153819D02*
X42233323Y-33201438D01*
X42233323Y-33201438D02*
X42280942Y-33249057D01*
X42280942Y-33249057D02*
X42328561Y-33344295D01*
X42328561Y-33344295D02*
X42328561Y-33487152D01*
X42328561Y-33487152D02*
X42280942Y-33582390D01*
X42280942Y-33582390D02*
X42233323Y-33630009D01*
X42233323Y-33630009D02*
X42138085Y-33677628D01*
X42138085Y-33677628D02*
X41757133Y-33677628D01*
X42947609Y-33153819D02*
X43042847Y-33153819D01*
X43042847Y-33153819D02*
X43138085Y-33201438D01*
X43138085Y-33201438D02*
X43185704Y-33249057D01*
X43185704Y-33249057D02*
X43233323Y-33344295D01*
X43233323Y-33344295D02*
X43280942Y-33534771D01*
X43280942Y-33534771D02*
X43280942Y-33772866D01*
X43280942Y-33772866D02*
X43233323Y-33963342D01*
X43233323Y-33963342D02*
X43185704Y-34058580D01*
X43185704Y-34058580D02*
X43138085Y-34106200D01*
X43138085Y-34106200D02*
X43042847Y-34153819D01*
X43042847Y-34153819D02*
X42947609Y-34153819D01*
X42947609Y-34153819D02*
X42852371Y-34106200D01*
X42852371Y-34106200D02*
X42804752Y-34058580D01*
X42804752Y-34058580D02*
X42757133Y-33963342D01*
X42757133Y-33963342D02*
X42709514Y-33772866D01*
X42709514Y-33772866D02*
X42709514Y-33534771D01*
X42709514Y-33534771D02*
X42757133Y-33344295D01*
X42757133Y-33344295D02*
X42804752Y-33249057D01*
X42804752Y-33249057D02*
X42852371Y-33201438D01*
X42852371Y-33201438D02*
X42947609Y-33153819D01*
X44138085Y-33487152D02*
X44138085Y-34153819D01*
X43899990Y-33106200D02*
X43661895Y-33820485D01*
X43661895Y-33820485D02*
X44280942Y-33820485D01*
X44852371Y-33153819D02*
X44947609Y-33153819D01*
X44947609Y-33153819D02*
X45042847Y-33201438D01*
X45042847Y-33201438D02*
X45090466Y-33249057D01*
X45090466Y-33249057D02*
X45138085Y-33344295D01*
X45138085Y-33344295D02*
X45185704Y-33534771D01*
X45185704Y-33534771D02*
X45185704Y-33772866D01*
X45185704Y-33772866D02*
X45138085Y-33963342D01*
X45138085Y-33963342D02*
X45090466Y-34058580D01*
X45090466Y-34058580D02*
X45042847Y-34106200D01*
X45042847Y-34106200D02*
X44947609Y-34153819D01*
X44947609Y-34153819D02*
X44852371Y-34153819D01*
X44852371Y-34153819D02*
X44757133Y-34106200D01*
X44757133Y-34106200D02*
X44709514Y-34058580D01*
X44709514Y-34058580D02*
X44661895Y-33963342D01*
X44661895Y-33963342D02*
X44614276Y-33772866D01*
X44614276Y-33772866D02*
X44614276Y-33534771D01*
X44614276Y-33534771D02*
X44661895Y-33344295D01*
X44661895Y-33344295D02*
X44709514Y-33249057D01*
X44709514Y-33249057D02*
X44757133Y-33201438D01*
X44757133Y-33201438D02*
X44852371Y-33153819D01*
X45566657Y-33249057D02*
X45614276Y-33201438D01*
X45614276Y-33201438D02*
X45709514Y-33153819D01*
X45709514Y-33153819D02*
X45947609Y-33153819D01*
X45947609Y-33153819D02*
X46042847Y-33201438D01*
X46042847Y-33201438D02*
X46090466Y-33249057D01*
X46090466Y-33249057D02*
X46138085Y-33344295D01*
X46138085Y-33344295D02*
X46138085Y-33439533D01*
X46138085Y-33439533D02*
X46090466Y-33582390D01*
X46090466Y-33582390D02*
X45519038Y-34153819D01*
X45519038Y-34153819D02*
X46138085Y-34153819D01*
X55625761Y-21591819D02*
X55292428Y-21115628D01*
X55054333Y-21591819D02*
X55054333Y-20591819D01*
X55054333Y-20591819D02*
X55435285Y-20591819D01*
X55435285Y-20591819D02*
X55530523Y-20639438D01*
X55530523Y-20639438D02*
X55578142Y-20687057D01*
X55578142Y-20687057D02*
X55625761Y-20782295D01*
X55625761Y-20782295D02*
X55625761Y-20925152D01*
X55625761Y-20925152D02*
X55578142Y-21020390D01*
X55578142Y-21020390D02*
X55530523Y-21068009D01*
X55530523Y-21068009D02*
X55435285Y-21115628D01*
X55435285Y-21115628D02*
X55054333Y-21115628D01*
X56244809Y-20591819D02*
X56340047Y-20591819D01*
X56340047Y-20591819D02*
X56435285Y-20639438D01*
X56435285Y-20639438D02*
X56482904Y-20687057D01*
X56482904Y-20687057D02*
X56530523Y-20782295D01*
X56530523Y-20782295D02*
X56578142Y-20972771D01*
X56578142Y-20972771D02*
X56578142Y-21210866D01*
X56578142Y-21210866D02*
X56530523Y-21401342D01*
X56530523Y-21401342D02*
X56482904Y-21496580D01*
X56482904Y-21496580D02*
X56435285Y-21544200D01*
X56435285Y-21544200D02*
X56340047Y-21591819D01*
X56340047Y-21591819D02*
X56244809Y-21591819D01*
X56244809Y-21591819D02*
X56149571Y-21544200D01*
X56149571Y-21544200D02*
X56101952Y-21496580D01*
X56101952Y-21496580D02*
X56054333Y-21401342D01*
X56054333Y-21401342D02*
X56006714Y-21210866D01*
X56006714Y-21210866D02*
X56006714Y-20972771D01*
X56006714Y-20972771D02*
X56054333Y-20782295D01*
X56054333Y-20782295D02*
X56101952Y-20687057D01*
X56101952Y-20687057D02*
X56149571Y-20639438D01*
X56149571Y-20639438D02*
X56244809Y-20591819D01*
X57435285Y-20925152D02*
X57435285Y-21591819D01*
X57197190Y-20544200D02*
X56959095Y-21258485D01*
X56959095Y-21258485D02*
X57578142Y-21258485D01*
X58149571Y-20591819D02*
X58244809Y-20591819D01*
X58244809Y-20591819D02*
X58340047Y-20639438D01*
X58340047Y-20639438D02*
X58387666Y-20687057D01*
X58387666Y-20687057D02*
X58435285Y-20782295D01*
X58435285Y-20782295D02*
X58482904Y-20972771D01*
X58482904Y-20972771D02*
X58482904Y-21210866D01*
X58482904Y-21210866D02*
X58435285Y-21401342D01*
X58435285Y-21401342D02*
X58387666Y-21496580D01*
X58387666Y-21496580D02*
X58340047Y-21544200D01*
X58340047Y-21544200D02*
X58244809Y-21591819D01*
X58244809Y-21591819D02*
X58149571Y-21591819D01*
X58149571Y-21591819D02*
X58054333Y-21544200D01*
X58054333Y-21544200D02*
X58006714Y-21496580D01*
X58006714Y-21496580D02*
X57959095Y-21401342D01*
X57959095Y-21401342D02*
X57911476Y-21210866D01*
X57911476Y-21210866D02*
X57911476Y-20972771D01*
X57911476Y-20972771D02*
X57959095Y-20782295D01*
X57959095Y-20782295D02*
X58006714Y-20687057D01*
X58006714Y-20687057D02*
X58054333Y-20639438D01*
X58054333Y-20639438D02*
X58149571Y-20591819D01*
X58863857Y-20687057D02*
X58911476Y-20639438D01*
X58911476Y-20639438D02*
X59006714Y-20591819D01*
X59006714Y-20591819D02*
X59244809Y-20591819D01*
X59244809Y-20591819D02*
X59340047Y-20639438D01*
X59340047Y-20639438D02*
X59387666Y-20687057D01*
X59387666Y-20687057D02*
X59435285Y-20782295D01*
X59435285Y-20782295D02*
X59435285Y-20877533D01*
X59435285Y-20877533D02*
X59387666Y-21020390D01*
X59387666Y-21020390D02*
X58816238Y-21591819D01*
X58816238Y-21591819D02*
X59435285Y-21591819D01*
X45702661Y-26457219D02*
X45369328Y-25981028D01*
X45131233Y-26457219D02*
X45131233Y-25457219D01*
X45131233Y-25457219D02*
X45512185Y-25457219D01*
X45512185Y-25457219D02*
X45607423Y-25504838D01*
X45607423Y-25504838D02*
X45655042Y-25552457D01*
X45655042Y-25552457D02*
X45702661Y-25647695D01*
X45702661Y-25647695D02*
X45702661Y-25790552D01*
X45702661Y-25790552D02*
X45655042Y-25885790D01*
X45655042Y-25885790D02*
X45607423Y-25933409D01*
X45607423Y-25933409D02*
X45512185Y-25981028D01*
X45512185Y-25981028D02*
X45131233Y-25981028D01*
X46321709Y-25457219D02*
X46416947Y-25457219D01*
X46416947Y-25457219D02*
X46512185Y-25504838D01*
X46512185Y-25504838D02*
X46559804Y-25552457D01*
X46559804Y-25552457D02*
X46607423Y-25647695D01*
X46607423Y-25647695D02*
X46655042Y-25838171D01*
X46655042Y-25838171D02*
X46655042Y-26076266D01*
X46655042Y-26076266D02*
X46607423Y-26266742D01*
X46607423Y-26266742D02*
X46559804Y-26361980D01*
X46559804Y-26361980D02*
X46512185Y-26409600D01*
X46512185Y-26409600D02*
X46416947Y-26457219D01*
X46416947Y-26457219D02*
X46321709Y-26457219D01*
X46321709Y-26457219D02*
X46226471Y-26409600D01*
X46226471Y-26409600D02*
X46178852Y-26361980D01*
X46178852Y-26361980D02*
X46131233Y-26266742D01*
X46131233Y-26266742D02*
X46083614Y-26076266D01*
X46083614Y-26076266D02*
X46083614Y-25838171D01*
X46083614Y-25838171D02*
X46131233Y-25647695D01*
X46131233Y-25647695D02*
X46178852Y-25552457D01*
X46178852Y-25552457D02*
X46226471Y-25504838D01*
X46226471Y-25504838D02*
X46321709Y-25457219D01*
X47512185Y-25790552D02*
X47512185Y-26457219D01*
X47274090Y-25409600D02*
X47035995Y-26123885D01*
X47035995Y-26123885D02*
X47655042Y-26123885D01*
X48226471Y-25457219D02*
X48321709Y-25457219D01*
X48321709Y-25457219D02*
X48416947Y-25504838D01*
X48416947Y-25504838D02*
X48464566Y-25552457D01*
X48464566Y-25552457D02*
X48512185Y-25647695D01*
X48512185Y-25647695D02*
X48559804Y-25838171D01*
X48559804Y-25838171D02*
X48559804Y-26076266D01*
X48559804Y-26076266D02*
X48512185Y-26266742D01*
X48512185Y-26266742D02*
X48464566Y-26361980D01*
X48464566Y-26361980D02*
X48416947Y-26409600D01*
X48416947Y-26409600D02*
X48321709Y-26457219D01*
X48321709Y-26457219D02*
X48226471Y-26457219D01*
X48226471Y-26457219D02*
X48131233Y-26409600D01*
X48131233Y-26409600D02*
X48083614Y-26361980D01*
X48083614Y-26361980D02*
X48035995Y-26266742D01*
X48035995Y-26266742D02*
X47988376Y-26076266D01*
X47988376Y-26076266D02*
X47988376Y-25838171D01*
X47988376Y-25838171D02*
X48035995Y-25647695D01*
X48035995Y-25647695D02*
X48083614Y-25552457D01*
X48083614Y-25552457D02*
X48131233Y-25504838D01*
X48131233Y-25504838D02*
X48226471Y-25457219D01*
X48940757Y-25552457D02*
X48988376Y-25504838D01*
X48988376Y-25504838D02*
X49083614Y-25457219D01*
X49083614Y-25457219D02*
X49321709Y-25457219D01*
X49321709Y-25457219D02*
X49416947Y-25504838D01*
X49416947Y-25504838D02*
X49464566Y-25552457D01*
X49464566Y-25552457D02*
X49512185Y-25647695D01*
X49512185Y-25647695D02*
X49512185Y-25742933D01*
X49512185Y-25742933D02*
X49464566Y-25885790D01*
X49464566Y-25885790D02*
X48893138Y-26457219D01*
X48893138Y-26457219D02*
X49512185Y-26457219D01*
X57873161Y-27595119D02*
X57539828Y-27118928D01*
X57301733Y-27595119D02*
X57301733Y-26595119D01*
X57301733Y-26595119D02*
X57682685Y-26595119D01*
X57682685Y-26595119D02*
X57777923Y-26642738D01*
X57777923Y-26642738D02*
X57825542Y-26690357D01*
X57825542Y-26690357D02*
X57873161Y-26785595D01*
X57873161Y-26785595D02*
X57873161Y-26928452D01*
X57873161Y-26928452D02*
X57825542Y-27023690D01*
X57825542Y-27023690D02*
X57777923Y-27071309D01*
X57777923Y-27071309D02*
X57682685Y-27118928D01*
X57682685Y-27118928D02*
X57301733Y-27118928D01*
X58492209Y-26595119D02*
X58587447Y-26595119D01*
X58587447Y-26595119D02*
X58682685Y-26642738D01*
X58682685Y-26642738D02*
X58730304Y-26690357D01*
X58730304Y-26690357D02*
X58777923Y-26785595D01*
X58777923Y-26785595D02*
X58825542Y-26976071D01*
X58825542Y-26976071D02*
X58825542Y-27214166D01*
X58825542Y-27214166D02*
X58777923Y-27404642D01*
X58777923Y-27404642D02*
X58730304Y-27499880D01*
X58730304Y-27499880D02*
X58682685Y-27547500D01*
X58682685Y-27547500D02*
X58587447Y-27595119D01*
X58587447Y-27595119D02*
X58492209Y-27595119D01*
X58492209Y-27595119D02*
X58396971Y-27547500D01*
X58396971Y-27547500D02*
X58349352Y-27499880D01*
X58349352Y-27499880D02*
X58301733Y-27404642D01*
X58301733Y-27404642D02*
X58254114Y-27214166D01*
X58254114Y-27214166D02*
X58254114Y-26976071D01*
X58254114Y-26976071D02*
X58301733Y-26785595D01*
X58301733Y-26785595D02*
X58349352Y-26690357D01*
X58349352Y-26690357D02*
X58396971Y-26642738D01*
X58396971Y-26642738D02*
X58492209Y-26595119D01*
X59682685Y-26928452D02*
X59682685Y-27595119D01*
X59444590Y-26547500D02*
X59206495Y-27261785D01*
X59206495Y-27261785D02*
X59825542Y-27261785D01*
X60396971Y-26595119D02*
X60492209Y-26595119D01*
X60492209Y-26595119D02*
X60587447Y-26642738D01*
X60587447Y-26642738D02*
X60635066Y-26690357D01*
X60635066Y-26690357D02*
X60682685Y-26785595D01*
X60682685Y-26785595D02*
X60730304Y-26976071D01*
X60730304Y-26976071D02*
X60730304Y-27214166D01*
X60730304Y-27214166D02*
X60682685Y-27404642D01*
X60682685Y-27404642D02*
X60635066Y-27499880D01*
X60635066Y-27499880D02*
X60587447Y-27547500D01*
X60587447Y-27547500D02*
X60492209Y-27595119D01*
X60492209Y-27595119D02*
X60396971Y-27595119D01*
X60396971Y-27595119D02*
X60301733Y-27547500D01*
X60301733Y-27547500D02*
X60254114Y-27499880D01*
X60254114Y-27499880D02*
X60206495Y-27404642D01*
X60206495Y-27404642D02*
X60158876Y-27214166D01*
X60158876Y-27214166D02*
X60158876Y-26976071D01*
X60158876Y-26976071D02*
X60206495Y-26785595D01*
X60206495Y-26785595D02*
X60254114Y-26690357D01*
X60254114Y-26690357D02*
X60301733Y-26642738D01*
X60301733Y-26642738D02*
X60396971Y-26595119D01*
X61111257Y-26690357D02*
X61158876Y-26642738D01*
X61158876Y-26642738D02*
X61254114Y-26595119D01*
X61254114Y-26595119D02*
X61492209Y-26595119D01*
X61492209Y-26595119D02*
X61587447Y-26642738D01*
X61587447Y-26642738D02*
X61635066Y-26690357D01*
X61635066Y-26690357D02*
X61682685Y-26785595D01*
X61682685Y-26785595D02*
X61682685Y-26880833D01*
X61682685Y-26880833D02*
X61635066Y-27023690D01*
X61635066Y-27023690D02*
X61063638Y-27595119D01*
X61063638Y-27595119D02*
X61682685Y-27595119D01*
X45796261Y-31450119D02*
X45462928Y-30973928D01*
X45224833Y-31450119D02*
X45224833Y-30450119D01*
X45224833Y-30450119D02*
X45605785Y-30450119D01*
X45605785Y-30450119D02*
X45701023Y-30497738D01*
X45701023Y-30497738D02*
X45748642Y-30545357D01*
X45748642Y-30545357D02*
X45796261Y-30640595D01*
X45796261Y-30640595D02*
X45796261Y-30783452D01*
X45796261Y-30783452D02*
X45748642Y-30878690D01*
X45748642Y-30878690D02*
X45701023Y-30926309D01*
X45701023Y-30926309D02*
X45605785Y-30973928D01*
X45605785Y-30973928D02*
X45224833Y-30973928D01*
X46415309Y-30450119D02*
X46510547Y-30450119D01*
X46510547Y-30450119D02*
X46605785Y-30497738D01*
X46605785Y-30497738D02*
X46653404Y-30545357D01*
X46653404Y-30545357D02*
X46701023Y-30640595D01*
X46701023Y-30640595D02*
X46748642Y-30831071D01*
X46748642Y-30831071D02*
X46748642Y-31069166D01*
X46748642Y-31069166D02*
X46701023Y-31259642D01*
X46701023Y-31259642D02*
X46653404Y-31354880D01*
X46653404Y-31354880D02*
X46605785Y-31402500D01*
X46605785Y-31402500D02*
X46510547Y-31450119D01*
X46510547Y-31450119D02*
X46415309Y-31450119D01*
X46415309Y-31450119D02*
X46320071Y-31402500D01*
X46320071Y-31402500D02*
X46272452Y-31354880D01*
X46272452Y-31354880D02*
X46224833Y-31259642D01*
X46224833Y-31259642D02*
X46177214Y-31069166D01*
X46177214Y-31069166D02*
X46177214Y-30831071D01*
X46177214Y-30831071D02*
X46224833Y-30640595D01*
X46224833Y-30640595D02*
X46272452Y-30545357D01*
X46272452Y-30545357D02*
X46320071Y-30497738D01*
X46320071Y-30497738D02*
X46415309Y-30450119D01*
X47605785Y-30783452D02*
X47605785Y-31450119D01*
X47367690Y-30402500D02*
X47129595Y-31116785D01*
X47129595Y-31116785D02*
X47748642Y-31116785D01*
X48320071Y-30450119D02*
X48415309Y-30450119D01*
X48415309Y-30450119D02*
X48510547Y-30497738D01*
X48510547Y-30497738D02*
X48558166Y-30545357D01*
X48558166Y-30545357D02*
X48605785Y-30640595D01*
X48605785Y-30640595D02*
X48653404Y-30831071D01*
X48653404Y-30831071D02*
X48653404Y-31069166D01*
X48653404Y-31069166D02*
X48605785Y-31259642D01*
X48605785Y-31259642D02*
X48558166Y-31354880D01*
X48558166Y-31354880D02*
X48510547Y-31402500D01*
X48510547Y-31402500D02*
X48415309Y-31450119D01*
X48415309Y-31450119D02*
X48320071Y-31450119D01*
X48320071Y-31450119D02*
X48224833Y-31402500D01*
X48224833Y-31402500D02*
X48177214Y-31354880D01*
X48177214Y-31354880D02*
X48129595Y-31259642D01*
X48129595Y-31259642D02*
X48081976Y-31069166D01*
X48081976Y-31069166D02*
X48081976Y-30831071D01*
X48081976Y-30831071D02*
X48129595Y-30640595D01*
X48129595Y-30640595D02*
X48177214Y-30545357D01*
X48177214Y-30545357D02*
X48224833Y-30497738D01*
X48224833Y-30497738D02*
X48320071Y-30450119D01*
X49034357Y-30545357D02*
X49081976Y-30497738D01*
X49081976Y-30497738D02*
X49177214Y-30450119D01*
X49177214Y-30450119D02*
X49415309Y-30450119D01*
X49415309Y-30450119D02*
X49510547Y-30497738D01*
X49510547Y-30497738D02*
X49558166Y-30545357D01*
X49558166Y-30545357D02*
X49605785Y-30640595D01*
X49605785Y-30640595D02*
X49605785Y-30735833D01*
X49605785Y-30735833D02*
X49558166Y-30878690D01*
X49558166Y-30878690D02*
X48986738Y-31450119D01*
X48986738Y-31450119D02*
X49605785Y-31450119D01*
X55116461Y-31554419D02*
X54783128Y-31078228D01*
X54545033Y-31554419D02*
X54545033Y-30554419D01*
X54545033Y-30554419D02*
X54925985Y-30554419D01*
X54925985Y-30554419D02*
X55021223Y-30602038D01*
X55021223Y-30602038D02*
X55068842Y-30649657D01*
X55068842Y-30649657D02*
X55116461Y-30744895D01*
X55116461Y-30744895D02*
X55116461Y-30887752D01*
X55116461Y-30887752D02*
X55068842Y-30982990D01*
X55068842Y-30982990D02*
X55021223Y-31030609D01*
X55021223Y-31030609D02*
X54925985Y-31078228D01*
X54925985Y-31078228D02*
X54545033Y-31078228D01*
X55735509Y-30554419D02*
X55830747Y-30554419D01*
X55830747Y-30554419D02*
X55925985Y-30602038D01*
X55925985Y-30602038D02*
X55973604Y-30649657D01*
X55973604Y-30649657D02*
X56021223Y-30744895D01*
X56021223Y-30744895D02*
X56068842Y-30935371D01*
X56068842Y-30935371D02*
X56068842Y-31173466D01*
X56068842Y-31173466D02*
X56021223Y-31363942D01*
X56021223Y-31363942D02*
X55973604Y-31459180D01*
X55973604Y-31459180D02*
X55925985Y-31506800D01*
X55925985Y-31506800D02*
X55830747Y-31554419D01*
X55830747Y-31554419D02*
X55735509Y-31554419D01*
X55735509Y-31554419D02*
X55640271Y-31506800D01*
X55640271Y-31506800D02*
X55592652Y-31459180D01*
X55592652Y-31459180D02*
X55545033Y-31363942D01*
X55545033Y-31363942D02*
X55497414Y-31173466D01*
X55497414Y-31173466D02*
X55497414Y-30935371D01*
X55497414Y-30935371D02*
X55545033Y-30744895D01*
X55545033Y-30744895D02*
X55592652Y-30649657D01*
X55592652Y-30649657D02*
X55640271Y-30602038D01*
X55640271Y-30602038D02*
X55735509Y-30554419D01*
X56925985Y-30887752D02*
X56925985Y-31554419D01*
X56687890Y-30506800D02*
X56449795Y-31221085D01*
X56449795Y-31221085D02*
X57068842Y-31221085D01*
X57640271Y-30554419D02*
X57735509Y-30554419D01*
X57735509Y-30554419D02*
X57830747Y-30602038D01*
X57830747Y-30602038D02*
X57878366Y-30649657D01*
X57878366Y-30649657D02*
X57925985Y-30744895D01*
X57925985Y-30744895D02*
X57973604Y-30935371D01*
X57973604Y-30935371D02*
X57973604Y-31173466D01*
X57973604Y-31173466D02*
X57925985Y-31363942D01*
X57925985Y-31363942D02*
X57878366Y-31459180D01*
X57878366Y-31459180D02*
X57830747Y-31506800D01*
X57830747Y-31506800D02*
X57735509Y-31554419D01*
X57735509Y-31554419D02*
X57640271Y-31554419D01*
X57640271Y-31554419D02*
X57545033Y-31506800D01*
X57545033Y-31506800D02*
X57497414Y-31459180D01*
X57497414Y-31459180D02*
X57449795Y-31363942D01*
X57449795Y-31363942D02*
X57402176Y-31173466D01*
X57402176Y-31173466D02*
X57402176Y-30935371D01*
X57402176Y-30935371D02*
X57449795Y-30744895D01*
X57449795Y-30744895D02*
X57497414Y-30649657D01*
X57497414Y-30649657D02*
X57545033Y-30602038D01*
X57545033Y-30602038D02*
X57640271Y-30554419D01*
X58354557Y-30649657D02*
X58402176Y-30602038D01*
X58402176Y-30602038D02*
X58497414Y-30554419D01*
X58497414Y-30554419D02*
X58735509Y-30554419D01*
X58735509Y-30554419D02*
X58830747Y-30602038D01*
X58830747Y-30602038D02*
X58878366Y-30649657D01*
X58878366Y-30649657D02*
X58925985Y-30744895D01*
X58925985Y-30744895D02*
X58925985Y-30840133D01*
X58925985Y-30840133D02*
X58878366Y-30982990D01*
X58878366Y-30982990D02*
X58306938Y-31554419D01*
X58306938Y-31554419D02*
X58925985Y-31554419D01*
X44786361Y-33230319D02*
X44453028Y-32754128D01*
X44214933Y-33230319D02*
X44214933Y-32230319D01*
X44214933Y-32230319D02*
X44595885Y-32230319D01*
X44595885Y-32230319D02*
X44691123Y-32277938D01*
X44691123Y-32277938D02*
X44738742Y-32325557D01*
X44738742Y-32325557D02*
X44786361Y-32420795D01*
X44786361Y-32420795D02*
X44786361Y-32563652D01*
X44786361Y-32563652D02*
X44738742Y-32658890D01*
X44738742Y-32658890D02*
X44691123Y-32706509D01*
X44691123Y-32706509D02*
X44595885Y-32754128D01*
X44595885Y-32754128D02*
X44214933Y-32754128D01*
X45405409Y-32230319D02*
X45500647Y-32230319D01*
X45500647Y-32230319D02*
X45595885Y-32277938D01*
X45595885Y-32277938D02*
X45643504Y-32325557D01*
X45643504Y-32325557D02*
X45691123Y-32420795D01*
X45691123Y-32420795D02*
X45738742Y-32611271D01*
X45738742Y-32611271D02*
X45738742Y-32849366D01*
X45738742Y-32849366D02*
X45691123Y-33039842D01*
X45691123Y-33039842D02*
X45643504Y-33135080D01*
X45643504Y-33135080D02*
X45595885Y-33182700D01*
X45595885Y-33182700D02*
X45500647Y-33230319D01*
X45500647Y-33230319D02*
X45405409Y-33230319D01*
X45405409Y-33230319D02*
X45310171Y-33182700D01*
X45310171Y-33182700D02*
X45262552Y-33135080D01*
X45262552Y-33135080D02*
X45214933Y-33039842D01*
X45214933Y-33039842D02*
X45167314Y-32849366D01*
X45167314Y-32849366D02*
X45167314Y-32611271D01*
X45167314Y-32611271D02*
X45214933Y-32420795D01*
X45214933Y-32420795D02*
X45262552Y-32325557D01*
X45262552Y-32325557D02*
X45310171Y-32277938D01*
X45310171Y-32277938D02*
X45405409Y-32230319D01*
X46595885Y-32563652D02*
X46595885Y-33230319D01*
X46357790Y-32182700D02*
X46119695Y-32896985D01*
X46119695Y-32896985D02*
X46738742Y-32896985D01*
X47310171Y-32230319D02*
X47405409Y-32230319D01*
X47405409Y-32230319D02*
X47500647Y-32277938D01*
X47500647Y-32277938D02*
X47548266Y-32325557D01*
X47548266Y-32325557D02*
X47595885Y-32420795D01*
X47595885Y-32420795D02*
X47643504Y-32611271D01*
X47643504Y-32611271D02*
X47643504Y-32849366D01*
X47643504Y-32849366D02*
X47595885Y-33039842D01*
X47595885Y-33039842D02*
X47548266Y-33135080D01*
X47548266Y-33135080D02*
X47500647Y-33182700D01*
X47500647Y-33182700D02*
X47405409Y-33230319D01*
X47405409Y-33230319D02*
X47310171Y-33230319D01*
X47310171Y-33230319D02*
X47214933Y-33182700D01*
X47214933Y-33182700D02*
X47167314Y-33135080D01*
X47167314Y-33135080D02*
X47119695Y-33039842D01*
X47119695Y-33039842D02*
X47072076Y-32849366D01*
X47072076Y-32849366D02*
X47072076Y-32611271D01*
X47072076Y-32611271D02*
X47119695Y-32420795D01*
X47119695Y-32420795D02*
X47167314Y-32325557D01*
X47167314Y-32325557D02*
X47214933Y-32277938D01*
X47214933Y-32277938D02*
X47310171Y-32230319D01*
X48024457Y-32325557D02*
X48072076Y-32277938D01*
X48072076Y-32277938D02*
X48167314Y-32230319D01*
X48167314Y-32230319D02*
X48405409Y-32230319D01*
X48405409Y-32230319D02*
X48500647Y-32277938D01*
X48500647Y-32277938D02*
X48548266Y-32325557D01*
X48548266Y-32325557D02*
X48595885Y-32420795D01*
X48595885Y-32420795D02*
X48595885Y-32516033D01*
X48595885Y-32516033D02*
X48548266Y-32658890D01*
X48548266Y-32658890D02*
X47976838Y-33230319D01*
X47976838Y-33230319D02*
X48595885Y-33230319D01*
X55924761Y-35558119D02*
X55591428Y-35081928D01*
X55353333Y-35558119D02*
X55353333Y-34558119D01*
X55353333Y-34558119D02*
X55734285Y-34558119D01*
X55734285Y-34558119D02*
X55829523Y-34605738D01*
X55829523Y-34605738D02*
X55877142Y-34653357D01*
X55877142Y-34653357D02*
X55924761Y-34748595D01*
X55924761Y-34748595D02*
X55924761Y-34891452D01*
X55924761Y-34891452D02*
X55877142Y-34986690D01*
X55877142Y-34986690D02*
X55829523Y-35034309D01*
X55829523Y-35034309D02*
X55734285Y-35081928D01*
X55734285Y-35081928D02*
X55353333Y-35081928D01*
X56543809Y-34558119D02*
X56639047Y-34558119D01*
X56639047Y-34558119D02*
X56734285Y-34605738D01*
X56734285Y-34605738D02*
X56781904Y-34653357D01*
X56781904Y-34653357D02*
X56829523Y-34748595D01*
X56829523Y-34748595D02*
X56877142Y-34939071D01*
X56877142Y-34939071D02*
X56877142Y-35177166D01*
X56877142Y-35177166D02*
X56829523Y-35367642D01*
X56829523Y-35367642D02*
X56781904Y-35462880D01*
X56781904Y-35462880D02*
X56734285Y-35510500D01*
X56734285Y-35510500D02*
X56639047Y-35558119D01*
X56639047Y-35558119D02*
X56543809Y-35558119D01*
X56543809Y-35558119D02*
X56448571Y-35510500D01*
X56448571Y-35510500D02*
X56400952Y-35462880D01*
X56400952Y-35462880D02*
X56353333Y-35367642D01*
X56353333Y-35367642D02*
X56305714Y-35177166D01*
X56305714Y-35177166D02*
X56305714Y-34939071D01*
X56305714Y-34939071D02*
X56353333Y-34748595D01*
X56353333Y-34748595D02*
X56400952Y-34653357D01*
X56400952Y-34653357D02*
X56448571Y-34605738D01*
X56448571Y-34605738D02*
X56543809Y-34558119D01*
X57734285Y-34891452D02*
X57734285Y-35558119D01*
X57496190Y-34510500D02*
X57258095Y-35224785D01*
X57258095Y-35224785D02*
X57877142Y-35224785D01*
X58448571Y-34558119D02*
X58543809Y-34558119D01*
X58543809Y-34558119D02*
X58639047Y-34605738D01*
X58639047Y-34605738D02*
X58686666Y-34653357D01*
X58686666Y-34653357D02*
X58734285Y-34748595D01*
X58734285Y-34748595D02*
X58781904Y-34939071D01*
X58781904Y-34939071D02*
X58781904Y-35177166D01*
X58781904Y-35177166D02*
X58734285Y-35367642D01*
X58734285Y-35367642D02*
X58686666Y-35462880D01*
X58686666Y-35462880D02*
X58639047Y-35510500D01*
X58639047Y-35510500D02*
X58543809Y-35558119D01*
X58543809Y-35558119D02*
X58448571Y-35558119D01*
X58448571Y-35558119D02*
X58353333Y-35510500D01*
X58353333Y-35510500D02*
X58305714Y-35462880D01*
X58305714Y-35462880D02*
X58258095Y-35367642D01*
X58258095Y-35367642D02*
X58210476Y-35177166D01*
X58210476Y-35177166D02*
X58210476Y-34939071D01*
X58210476Y-34939071D02*
X58258095Y-34748595D01*
X58258095Y-34748595D02*
X58305714Y-34653357D01*
X58305714Y-34653357D02*
X58353333Y-34605738D01*
X58353333Y-34605738D02*
X58448571Y-34558119D01*
X59162857Y-34653357D02*
X59210476Y-34605738D01*
X59210476Y-34605738D02*
X59305714Y-34558119D01*
X59305714Y-34558119D02*
X59543809Y-34558119D01*
X59543809Y-34558119D02*
X59639047Y-34605738D01*
X59639047Y-34605738D02*
X59686666Y-34653357D01*
X59686666Y-34653357D02*
X59734285Y-34748595D01*
X59734285Y-34748595D02*
X59734285Y-34843833D01*
X59734285Y-34843833D02*
X59686666Y-34986690D01*
X59686666Y-34986690D02*
X59115238Y-35558119D01*
X59115238Y-35558119D02*
X59734285Y-35558119D01*
X33321661Y-36330019D02*
X32988328Y-35853828D01*
X32750233Y-36330019D02*
X32750233Y-35330019D01*
X32750233Y-35330019D02*
X33131185Y-35330019D01*
X33131185Y-35330019D02*
X33226423Y-35377638D01*
X33226423Y-35377638D02*
X33274042Y-35425257D01*
X33274042Y-35425257D02*
X33321661Y-35520495D01*
X33321661Y-35520495D02*
X33321661Y-35663352D01*
X33321661Y-35663352D02*
X33274042Y-35758590D01*
X33274042Y-35758590D02*
X33226423Y-35806209D01*
X33226423Y-35806209D02*
X33131185Y-35853828D01*
X33131185Y-35853828D02*
X32750233Y-35853828D01*
X33940709Y-35330019D02*
X34035947Y-35330019D01*
X34035947Y-35330019D02*
X34131185Y-35377638D01*
X34131185Y-35377638D02*
X34178804Y-35425257D01*
X34178804Y-35425257D02*
X34226423Y-35520495D01*
X34226423Y-35520495D02*
X34274042Y-35710971D01*
X34274042Y-35710971D02*
X34274042Y-35949066D01*
X34274042Y-35949066D02*
X34226423Y-36139542D01*
X34226423Y-36139542D02*
X34178804Y-36234780D01*
X34178804Y-36234780D02*
X34131185Y-36282400D01*
X34131185Y-36282400D02*
X34035947Y-36330019D01*
X34035947Y-36330019D02*
X33940709Y-36330019D01*
X33940709Y-36330019D02*
X33845471Y-36282400D01*
X33845471Y-36282400D02*
X33797852Y-36234780D01*
X33797852Y-36234780D02*
X33750233Y-36139542D01*
X33750233Y-36139542D02*
X33702614Y-35949066D01*
X33702614Y-35949066D02*
X33702614Y-35710971D01*
X33702614Y-35710971D02*
X33750233Y-35520495D01*
X33750233Y-35520495D02*
X33797852Y-35425257D01*
X33797852Y-35425257D02*
X33845471Y-35377638D01*
X33845471Y-35377638D02*
X33940709Y-35330019D01*
X35131185Y-35663352D02*
X35131185Y-36330019D01*
X34893090Y-35282400D02*
X34654995Y-35996685D01*
X34654995Y-35996685D02*
X35274042Y-35996685D01*
X35845471Y-35330019D02*
X35940709Y-35330019D01*
X35940709Y-35330019D02*
X36035947Y-35377638D01*
X36035947Y-35377638D02*
X36083566Y-35425257D01*
X36083566Y-35425257D02*
X36131185Y-35520495D01*
X36131185Y-35520495D02*
X36178804Y-35710971D01*
X36178804Y-35710971D02*
X36178804Y-35949066D01*
X36178804Y-35949066D02*
X36131185Y-36139542D01*
X36131185Y-36139542D02*
X36083566Y-36234780D01*
X36083566Y-36234780D02*
X36035947Y-36282400D01*
X36035947Y-36282400D02*
X35940709Y-36330019D01*
X35940709Y-36330019D02*
X35845471Y-36330019D01*
X35845471Y-36330019D02*
X35750233Y-36282400D01*
X35750233Y-36282400D02*
X35702614Y-36234780D01*
X35702614Y-36234780D02*
X35654995Y-36139542D01*
X35654995Y-36139542D02*
X35607376Y-35949066D01*
X35607376Y-35949066D02*
X35607376Y-35710971D01*
X35607376Y-35710971D02*
X35654995Y-35520495D01*
X35654995Y-35520495D02*
X35702614Y-35425257D01*
X35702614Y-35425257D02*
X35750233Y-35377638D01*
X35750233Y-35377638D02*
X35845471Y-35330019D01*
X36559757Y-35425257D02*
X36607376Y-35377638D01*
X36607376Y-35377638D02*
X36702614Y-35330019D01*
X36702614Y-35330019D02*
X36940709Y-35330019D01*
X36940709Y-35330019D02*
X37035947Y-35377638D01*
X37035947Y-35377638D02*
X37083566Y-35425257D01*
X37083566Y-35425257D02*
X37131185Y-35520495D01*
X37131185Y-35520495D02*
X37131185Y-35615733D01*
X37131185Y-35615733D02*
X37083566Y-35758590D01*
X37083566Y-35758590D02*
X36512138Y-36330019D01*
X36512138Y-36330019D02*
X37131185Y-36330019D01*
X55425961Y-37506019D02*
X55092628Y-37029828D01*
X54854533Y-37506019D02*
X54854533Y-36506019D01*
X54854533Y-36506019D02*
X55235485Y-36506019D01*
X55235485Y-36506019D02*
X55330723Y-36553638D01*
X55330723Y-36553638D02*
X55378342Y-36601257D01*
X55378342Y-36601257D02*
X55425961Y-36696495D01*
X55425961Y-36696495D02*
X55425961Y-36839352D01*
X55425961Y-36839352D02*
X55378342Y-36934590D01*
X55378342Y-36934590D02*
X55330723Y-36982209D01*
X55330723Y-36982209D02*
X55235485Y-37029828D01*
X55235485Y-37029828D02*
X54854533Y-37029828D01*
X56045009Y-36506019D02*
X56140247Y-36506019D01*
X56140247Y-36506019D02*
X56235485Y-36553638D01*
X56235485Y-36553638D02*
X56283104Y-36601257D01*
X56283104Y-36601257D02*
X56330723Y-36696495D01*
X56330723Y-36696495D02*
X56378342Y-36886971D01*
X56378342Y-36886971D02*
X56378342Y-37125066D01*
X56378342Y-37125066D02*
X56330723Y-37315542D01*
X56330723Y-37315542D02*
X56283104Y-37410780D01*
X56283104Y-37410780D02*
X56235485Y-37458400D01*
X56235485Y-37458400D02*
X56140247Y-37506019D01*
X56140247Y-37506019D02*
X56045009Y-37506019D01*
X56045009Y-37506019D02*
X55949771Y-37458400D01*
X55949771Y-37458400D02*
X55902152Y-37410780D01*
X55902152Y-37410780D02*
X55854533Y-37315542D01*
X55854533Y-37315542D02*
X55806914Y-37125066D01*
X55806914Y-37125066D02*
X55806914Y-36886971D01*
X55806914Y-36886971D02*
X55854533Y-36696495D01*
X55854533Y-36696495D02*
X55902152Y-36601257D01*
X55902152Y-36601257D02*
X55949771Y-36553638D01*
X55949771Y-36553638D02*
X56045009Y-36506019D01*
X57235485Y-36839352D02*
X57235485Y-37506019D01*
X56997390Y-36458400D02*
X56759295Y-37172685D01*
X56759295Y-37172685D02*
X57378342Y-37172685D01*
X57949771Y-36506019D02*
X58045009Y-36506019D01*
X58045009Y-36506019D02*
X58140247Y-36553638D01*
X58140247Y-36553638D02*
X58187866Y-36601257D01*
X58187866Y-36601257D02*
X58235485Y-36696495D01*
X58235485Y-36696495D02*
X58283104Y-36886971D01*
X58283104Y-36886971D02*
X58283104Y-37125066D01*
X58283104Y-37125066D02*
X58235485Y-37315542D01*
X58235485Y-37315542D02*
X58187866Y-37410780D01*
X58187866Y-37410780D02*
X58140247Y-37458400D01*
X58140247Y-37458400D02*
X58045009Y-37506019D01*
X58045009Y-37506019D02*
X57949771Y-37506019D01*
X57949771Y-37506019D02*
X57854533Y-37458400D01*
X57854533Y-37458400D02*
X57806914Y-37410780D01*
X57806914Y-37410780D02*
X57759295Y-37315542D01*
X57759295Y-37315542D02*
X57711676Y-37125066D01*
X57711676Y-37125066D02*
X57711676Y-36886971D01*
X57711676Y-36886971D02*
X57759295Y-36696495D01*
X57759295Y-36696495D02*
X57806914Y-36601257D01*
X57806914Y-36601257D02*
X57854533Y-36553638D01*
X57854533Y-36553638D02*
X57949771Y-36506019D01*
X58664057Y-36601257D02*
X58711676Y-36553638D01*
X58711676Y-36553638D02*
X58806914Y-36506019D01*
X58806914Y-36506019D02*
X59045009Y-36506019D01*
X59045009Y-36506019D02*
X59140247Y-36553638D01*
X59140247Y-36553638D02*
X59187866Y-36601257D01*
X59187866Y-36601257D02*
X59235485Y-36696495D01*
X59235485Y-36696495D02*
X59235485Y-36791733D01*
X59235485Y-36791733D02*
X59187866Y-36934590D01*
X59187866Y-36934590D02*
X58616438Y-37506019D01*
X58616438Y-37506019D02*
X59235485Y-37506019D01*
X41867561Y-47421219D02*
X41534228Y-46945028D01*
X41296133Y-47421219D02*
X41296133Y-46421219D01*
X41296133Y-46421219D02*
X41677085Y-46421219D01*
X41677085Y-46421219D02*
X41772323Y-46468838D01*
X41772323Y-46468838D02*
X41819942Y-46516457D01*
X41819942Y-46516457D02*
X41867561Y-46611695D01*
X41867561Y-46611695D02*
X41867561Y-46754552D01*
X41867561Y-46754552D02*
X41819942Y-46849790D01*
X41819942Y-46849790D02*
X41772323Y-46897409D01*
X41772323Y-46897409D02*
X41677085Y-46945028D01*
X41677085Y-46945028D02*
X41296133Y-46945028D01*
X42486609Y-46421219D02*
X42581847Y-46421219D01*
X42581847Y-46421219D02*
X42677085Y-46468838D01*
X42677085Y-46468838D02*
X42724704Y-46516457D01*
X42724704Y-46516457D02*
X42772323Y-46611695D01*
X42772323Y-46611695D02*
X42819942Y-46802171D01*
X42819942Y-46802171D02*
X42819942Y-47040266D01*
X42819942Y-47040266D02*
X42772323Y-47230742D01*
X42772323Y-47230742D02*
X42724704Y-47325980D01*
X42724704Y-47325980D02*
X42677085Y-47373600D01*
X42677085Y-47373600D02*
X42581847Y-47421219D01*
X42581847Y-47421219D02*
X42486609Y-47421219D01*
X42486609Y-47421219D02*
X42391371Y-47373600D01*
X42391371Y-47373600D02*
X42343752Y-47325980D01*
X42343752Y-47325980D02*
X42296133Y-47230742D01*
X42296133Y-47230742D02*
X42248514Y-47040266D01*
X42248514Y-47040266D02*
X42248514Y-46802171D01*
X42248514Y-46802171D02*
X42296133Y-46611695D01*
X42296133Y-46611695D02*
X42343752Y-46516457D01*
X42343752Y-46516457D02*
X42391371Y-46468838D01*
X42391371Y-46468838D02*
X42486609Y-46421219D01*
X43677085Y-46754552D02*
X43677085Y-47421219D01*
X43438990Y-46373600D02*
X43200895Y-47087885D01*
X43200895Y-47087885D02*
X43819942Y-47087885D01*
X44391371Y-46421219D02*
X44486609Y-46421219D01*
X44486609Y-46421219D02*
X44581847Y-46468838D01*
X44581847Y-46468838D02*
X44629466Y-46516457D01*
X44629466Y-46516457D02*
X44677085Y-46611695D01*
X44677085Y-46611695D02*
X44724704Y-46802171D01*
X44724704Y-46802171D02*
X44724704Y-47040266D01*
X44724704Y-47040266D02*
X44677085Y-47230742D01*
X44677085Y-47230742D02*
X44629466Y-47325980D01*
X44629466Y-47325980D02*
X44581847Y-47373600D01*
X44581847Y-47373600D02*
X44486609Y-47421219D01*
X44486609Y-47421219D02*
X44391371Y-47421219D01*
X44391371Y-47421219D02*
X44296133Y-47373600D01*
X44296133Y-47373600D02*
X44248514Y-47325980D01*
X44248514Y-47325980D02*
X44200895Y-47230742D01*
X44200895Y-47230742D02*
X44153276Y-47040266D01*
X44153276Y-47040266D02*
X44153276Y-46802171D01*
X44153276Y-46802171D02*
X44200895Y-46611695D01*
X44200895Y-46611695D02*
X44248514Y-46516457D01*
X44248514Y-46516457D02*
X44296133Y-46468838D01*
X44296133Y-46468838D02*
X44391371Y-46421219D01*
X45105657Y-46516457D02*
X45153276Y-46468838D01*
X45153276Y-46468838D02*
X45248514Y-46421219D01*
X45248514Y-46421219D02*
X45486609Y-46421219D01*
X45486609Y-46421219D02*
X45581847Y-46468838D01*
X45581847Y-46468838D02*
X45629466Y-46516457D01*
X45629466Y-46516457D02*
X45677085Y-46611695D01*
X45677085Y-46611695D02*
X45677085Y-46706933D01*
X45677085Y-46706933D02*
X45629466Y-46849790D01*
X45629466Y-46849790D02*
X45058038Y-47421219D01*
X45058038Y-47421219D02*
X45677085Y-47421219D01*
X46121261Y-48758219D02*
X45787928Y-48282028D01*
X45549833Y-48758219D02*
X45549833Y-47758219D01*
X45549833Y-47758219D02*
X45930785Y-47758219D01*
X45930785Y-47758219D02*
X46026023Y-47805838D01*
X46026023Y-47805838D02*
X46073642Y-47853457D01*
X46073642Y-47853457D02*
X46121261Y-47948695D01*
X46121261Y-47948695D02*
X46121261Y-48091552D01*
X46121261Y-48091552D02*
X46073642Y-48186790D01*
X46073642Y-48186790D02*
X46026023Y-48234409D01*
X46026023Y-48234409D02*
X45930785Y-48282028D01*
X45930785Y-48282028D02*
X45549833Y-48282028D01*
X46740309Y-47758219D02*
X46835547Y-47758219D01*
X46835547Y-47758219D02*
X46930785Y-47805838D01*
X46930785Y-47805838D02*
X46978404Y-47853457D01*
X46978404Y-47853457D02*
X47026023Y-47948695D01*
X47026023Y-47948695D02*
X47073642Y-48139171D01*
X47073642Y-48139171D02*
X47073642Y-48377266D01*
X47073642Y-48377266D02*
X47026023Y-48567742D01*
X47026023Y-48567742D02*
X46978404Y-48662980D01*
X46978404Y-48662980D02*
X46930785Y-48710600D01*
X46930785Y-48710600D02*
X46835547Y-48758219D01*
X46835547Y-48758219D02*
X46740309Y-48758219D01*
X46740309Y-48758219D02*
X46645071Y-48710600D01*
X46645071Y-48710600D02*
X46597452Y-48662980D01*
X46597452Y-48662980D02*
X46549833Y-48567742D01*
X46549833Y-48567742D02*
X46502214Y-48377266D01*
X46502214Y-48377266D02*
X46502214Y-48139171D01*
X46502214Y-48139171D02*
X46549833Y-47948695D01*
X46549833Y-47948695D02*
X46597452Y-47853457D01*
X46597452Y-47853457D02*
X46645071Y-47805838D01*
X46645071Y-47805838D02*
X46740309Y-47758219D01*
X47930785Y-48091552D02*
X47930785Y-48758219D01*
X47692690Y-47710600D02*
X47454595Y-48424885D01*
X47454595Y-48424885D02*
X48073642Y-48424885D01*
X48645071Y-47758219D02*
X48740309Y-47758219D01*
X48740309Y-47758219D02*
X48835547Y-47805838D01*
X48835547Y-47805838D02*
X48883166Y-47853457D01*
X48883166Y-47853457D02*
X48930785Y-47948695D01*
X48930785Y-47948695D02*
X48978404Y-48139171D01*
X48978404Y-48139171D02*
X48978404Y-48377266D01*
X48978404Y-48377266D02*
X48930785Y-48567742D01*
X48930785Y-48567742D02*
X48883166Y-48662980D01*
X48883166Y-48662980D02*
X48835547Y-48710600D01*
X48835547Y-48710600D02*
X48740309Y-48758219D01*
X48740309Y-48758219D02*
X48645071Y-48758219D01*
X48645071Y-48758219D02*
X48549833Y-48710600D01*
X48549833Y-48710600D02*
X48502214Y-48662980D01*
X48502214Y-48662980D02*
X48454595Y-48567742D01*
X48454595Y-48567742D02*
X48406976Y-48377266D01*
X48406976Y-48377266D02*
X48406976Y-48139171D01*
X48406976Y-48139171D02*
X48454595Y-47948695D01*
X48454595Y-47948695D02*
X48502214Y-47853457D01*
X48502214Y-47853457D02*
X48549833Y-47805838D01*
X48549833Y-47805838D02*
X48645071Y-47758219D01*
X49359357Y-47853457D02*
X49406976Y-47805838D01*
X49406976Y-47805838D02*
X49502214Y-47758219D01*
X49502214Y-47758219D02*
X49740309Y-47758219D01*
X49740309Y-47758219D02*
X49835547Y-47805838D01*
X49835547Y-47805838D02*
X49883166Y-47853457D01*
X49883166Y-47853457D02*
X49930785Y-47948695D01*
X49930785Y-47948695D02*
X49930785Y-48043933D01*
X49930785Y-48043933D02*
X49883166Y-48186790D01*
X49883166Y-48186790D02*
X49311738Y-48758219D01*
X49311738Y-48758219D02*
X49930785Y-48758219D01*
X55616161Y-29115119D02*
X55282828Y-28638928D01*
X55044733Y-29115119D02*
X55044733Y-28115119D01*
X55044733Y-28115119D02*
X55425685Y-28115119D01*
X55425685Y-28115119D02*
X55520923Y-28162738D01*
X55520923Y-28162738D02*
X55568542Y-28210357D01*
X55568542Y-28210357D02*
X55616161Y-28305595D01*
X55616161Y-28305595D02*
X55616161Y-28448452D01*
X55616161Y-28448452D02*
X55568542Y-28543690D01*
X55568542Y-28543690D02*
X55520923Y-28591309D01*
X55520923Y-28591309D02*
X55425685Y-28638928D01*
X55425685Y-28638928D02*
X55044733Y-28638928D01*
X56235209Y-28115119D02*
X56330447Y-28115119D01*
X56330447Y-28115119D02*
X56425685Y-28162738D01*
X56425685Y-28162738D02*
X56473304Y-28210357D01*
X56473304Y-28210357D02*
X56520923Y-28305595D01*
X56520923Y-28305595D02*
X56568542Y-28496071D01*
X56568542Y-28496071D02*
X56568542Y-28734166D01*
X56568542Y-28734166D02*
X56520923Y-28924642D01*
X56520923Y-28924642D02*
X56473304Y-29019880D01*
X56473304Y-29019880D02*
X56425685Y-29067500D01*
X56425685Y-29067500D02*
X56330447Y-29115119D01*
X56330447Y-29115119D02*
X56235209Y-29115119D01*
X56235209Y-29115119D02*
X56139971Y-29067500D01*
X56139971Y-29067500D02*
X56092352Y-29019880D01*
X56092352Y-29019880D02*
X56044733Y-28924642D01*
X56044733Y-28924642D02*
X55997114Y-28734166D01*
X55997114Y-28734166D02*
X55997114Y-28496071D01*
X55997114Y-28496071D02*
X56044733Y-28305595D01*
X56044733Y-28305595D02*
X56092352Y-28210357D01*
X56092352Y-28210357D02*
X56139971Y-28162738D01*
X56139971Y-28162738D02*
X56235209Y-28115119D01*
X57425685Y-28448452D02*
X57425685Y-29115119D01*
X57187590Y-28067500D02*
X56949495Y-28781785D01*
X56949495Y-28781785D02*
X57568542Y-28781785D01*
X58139971Y-28115119D02*
X58235209Y-28115119D01*
X58235209Y-28115119D02*
X58330447Y-28162738D01*
X58330447Y-28162738D02*
X58378066Y-28210357D01*
X58378066Y-28210357D02*
X58425685Y-28305595D01*
X58425685Y-28305595D02*
X58473304Y-28496071D01*
X58473304Y-28496071D02*
X58473304Y-28734166D01*
X58473304Y-28734166D02*
X58425685Y-28924642D01*
X58425685Y-28924642D02*
X58378066Y-29019880D01*
X58378066Y-29019880D02*
X58330447Y-29067500D01*
X58330447Y-29067500D02*
X58235209Y-29115119D01*
X58235209Y-29115119D02*
X58139971Y-29115119D01*
X58139971Y-29115119D02*
X58044733Y-29067500D01*
X58044733Y-29067500D02*
X57997114Y-29019880D01*
X57997114Y-29019880D02*
X57949495Y-28924642D01*
X57949495Y-28924642D02*
X57901876Y-28734166D01*
X57901876Y-28734166D02*
X57901876Y-28496071D01*
X57901876Y-28496071D02*
X57949495Y-28305595D01*
X57949495Y-28305595D02*
X57997114Y-28210357D01*
X57997114Y-28210357D02*
X58044733Y-28162738D01*
X58044733Y-28162738D02*
X58139971Y-28115119D01*
X58854257Y-28210357D02*
X58901876Y-28162738D01*
X58901876Y-28162738D02*
X58997114Y-28115119D01*
X58997114Y-28115119D02*
X59235209Y-28115119D01*
X59235209Y-28115119D02*
X59330447Y-28162738D01*
X59330447Y-28162738D02*
X59378066Y-28210357D01*
X59378066Y-28210357D02*
X59425685Y-28305595D01*
X59425685Y-28305595D02*
X59425685Y-28400833D01*
X59425685Y-28400833D02*
X59378066Y-28543690D01*
X59378066Y-28543690D02*
X58806638Y-29115119D01*
X58806638Y-29115119D02*
X59425685Y-29115119D01*
X44396161Y-50494419D02*
X44062828Y-50018228D01*
X43824733Y-50494419D02*
X43824733Y-49494419D01*
X43824733Y-49494419D02*
X44205685Y-49494419D01*
X44205685Y-49494419D02*
X44300923Y-49542038D01*
X44300923Y-49542038D02*
X44348542Y-49589657D01*
X44348542Y-49589657D02*
X44396161Y-49684895D01*
X44396161Y-49684895D02*
X44396161Y-49827752D01*
X44396161Y-49827752D02*
X44348542Y-49922990D01*
X44348542Y-49922990D02*
X44300923Y-49970609D01*
X44300923Y-49970609D02*
X44205685Y-50018228D01*
X44205685Y-50018228D02*
X43824733Y-50018228D01*
X45015209Y-49494419D02*
X45110447Y-49494419D01*
X45110447Y-49494419D02*
X45205685Y-49542038D01*
X45205685Y-49542038D02*
X45253304Y-49589657D01*
X45253304Y-49589657D02*
X45300923Y-49684895D01*
X45300923Y-49684895D02*
X45348542Y-49875371D01*
X45348542Y-49875371D02*
X45348542Y-50113466D01*
X45348542Y-50113466D02*
X45300923Y-50303942D01*
X45300923Y-50303942D02*
X45253304Y-50399180D01*
X45253304Y-50399180D02*
X45205685Y-50446800D01*
X45205685Y-50446800D02*
X45110447Y-50494419D01*
X45110447Y-50494419D02*
X45015209Y-50494419D01*
X45015209Y-50494419D02*
X44919971Y-50446800D01*
X44919971Y-50446800D02*
X44872352Y-50399180D01*
X44872352Y-50399180D02*
X44824733Y-50303942D01*
X44824733Y-50303942D02*
X44777114Y-50113466D01*
X44777114Y-50113466D02*
X44777114Y-49875371D01*
X44777114Y-49875371D02*
X44824733Y-49684895D01*
X44824733Y-49684895D02*
X44872352Y-49589657D01*
X44872352Y-49589657D02*
X44919971Y-49542038D01*
X44919971Y-49542038D02*
X45015209Y-49494419D01*
X46205685Y-49827752D02*
X46205685Y-50494419D01*
X45967590Y-49446800D02*
X45729495Y-50161085D01*
X45729495Y-50161085D02*
X46348542Y-50161085D01*
X46919971Y-49494419D02*
X47015209Y-49494419D01*
X47015209Y-49494419D02*
X47110447Y-49542038D01*
X47110447Y-49542038D02*
X47158066Y-49589657D01*
X47158066Y-49589657D02*
X47205685Y-49684895D01*
X47205685Y-49684895D02*
X47253304Y-49875371D01*
X47253304Y-49875371D02*
X47253304Y-50113466D01*
X47253304Y-50113466D02*
X47205685Y-50303942D01*
X47205685Y-50303942D02*
X47158066Y-50399180D01*
X47158066Y-50399180D02*
X47110447Y-50446800D01*
X47110447Y-50446800D02*
X47015209Y-50494419D01*
X47015209Y-50494419D02*
X46919971Y-50494419D01*
X46919971Y-50494419D02*
X46824733Y-50446800D01*
X46824733Y-50446800D02*
X46777114Y-50399180D01*
X46777114Y-50399180D02*
X46729495Y-50303942D01*
X46729495Y-50303942D02*
X46681876Y-50113466D01*
X46681876Y-50113466D02*
X46681876Y-49875371D01*
X46681876Y-49875371D02*
X46729495Y-49684895D01*
X46729495Y-49684895D02*
X46777114Y-49589657D01*
X46777114Y-49589657D02*
X46824733Y-49542038D01*
X46824733Y-49542038D02*
X46919971Y-49494419D01*
X47634257Y-49589657D02*
X47681876Y-49542038D01*
X47681876Y-49542038D02*
X47777114Y-49494419D01*
X47777114Y-49494419D02*
X48015209Y-49494419D01*
X48015209Y-49494419D02*
X48110447Y-49542038D01*
X48110447Y-49542038D02*
X48158066Y-49589657D01*
X48158066Y-49589657D02*
X48205685Y-49684895D01*
X48205685Y-49684895D02*
X48205685Y-49780133D01*
X48205685Y-49780133D02*
X48158066Y-49922990D01*
X48158066Y-49922990D02*
X47586638Y-50494419D01*
X47586638Y-50494419D02*
X48205685Y-50494419D01*
X55662361Y-25324719D02*
X55329028Y-24848528D01*
X55090933Y-25324719D02*
X55090933Y-24324719D01*
X55090933Y-24324719D02*
X55471885Y-24324719D01*
X55471885Y-24324719D02*
X55567123Y-24372338D01*
X55567123Y-24372338D02*
X55614742Y-24419957D01*
X55614742Y-24419957D02*
X55662361Y-24515195D01*
X55662361Y-24515195D02*
X55662361Y-24658052D01*
X55662361Y-24658052D02*
X55614742Y-24753290D01*
X55614742Y-24753290D02*
X55567123Y-24800909D01*
X55567123Y-24800909D02*
X55471885Y-24848528D01*
X55471885Y-24848528D02*
X55090933Y-24848528D01*
X56281409Y-24324719D02*
X56376647Y-24324719D01*
X56376647Y-24324719D02*
X56471885Y-24372338D01*
X56471885Y-24372338D02*
X56519504Y-24419957D01*
X56519504Y-24419957D02*
X56567123Y-24515195D01*
X56567123Y-24515195D02*
X56614742Y-24705671D01*
X56614742Y-24705671D02*
X56614742Y-24943766D01*
X56614742Y-24943766D02*
X56567123Y-25134242D01*
X56567123Y-25134242D02*
X56519504Y-25229480D01*
X56519504Y-25229480D02*
X56471885Y-25277100D01*
X56471885Y-25277100D02*
X56376647Y-25324719D01*
X56376647Y-25324719D02*
X56281409Y-25324719D01*
X56281409Y-25324719D02*
X56186171Y-25277100D01*
X56186171Y-25277100D02*
X56138552Y-25229480D01*
X56138552Y-25229480D02*
X56090933Y-25134242D01*
X56090933Y-25134242D02*
X56043314Y-24943766D01*
X56043314Y-24943766D02*
X56043314Y-24705671D01*
X56043314Y-24705671D02*
X56090933Y-24515195D01*
X56090933Y-24515195D02*
X56138552Y-24419957D01*
X56138552Y-24419957D02*
X56186171Y-24372338D01*
X56186171Y-24372338D02*
X56281409Y-24324719D01*
X57471885Y-24658052D02*
X57471885Y-25324719D01*
X57233790Y-24277100D02*
X56995695Y-24991385D01*
X56995695Y-24991385D02*
X57614742Y-24991385D01*
X58186171Y-24324719D02*
X58281409Y-24324719D01*
X58281409Y-24324719D02*
X58376647Y-24372338D01*
X58376647Y-24372338D02*
X58424266Y-24419957D01*
X58424266Y-24419957D02*
X58471885Y-24515195D01*
X58471885Y-24515195D02*
X58519504Y-24705671D01*
X58519504Y-24705671D02*
X58519504Y-24943766D01*
X58519504Y-24943766D02*
X58471885Y-25134242D01*
X58471885Y-25134242D02*
X58424266Y-25229480D01*
X58424266Y-25229480D02*
X58376647Y-25277100D01*
X58376647Y-25277100D02*
X58281409Y-25324719D01*
X58281409Y-25324719D02*
X58186171Y-25324719D01*
X58186171Y-25324719D02*
X58090933Y-25277100D01*
X58090933Y-25277100D02*
X58043314Y-25229480D01*
X58043314Y-25229480D02*
X57995695Y-25134242D01*
X57995695Y-25134242D02*
X57948076Y-24943766D01*
X57948076Y-24943766D02*
X57948076Y-24705671D01*
X57948076Y-24705671D02*
X57995695Y-24515195D01*
X57995695Y-24515195D02*
X58043314Y-24419957D01*
X58043314Y-24419957D02*
X58090933Y-24372338D01*
X58090933Y-24372338D02*
X58186171Y-24324719D01*
X58900457Y-24419957D02*
X58948076Y-24372338D01*
X58948076Y-24372338D02*
X59043314Y-24324719D01*
X59043314Y-24324719D02*
X59281409Y-24324719D01*
X59281409Y-24324719D02*
X59376647Y-24372338D01*
X59376647Y-24372338D02*
X59424266Y-24419957D01*
X59424266Y-24419957D02*
X59471885Y-24515195D01*
X59471885Y-24515195D02*
X59471885Y-24610433D01*
X59471885Y-24610433D02*
X59424266Y-24753290D01*
X59424266Y-24753290D02*
X58852838Y-25324719D01*
X58852838Y-25324719D02*
X59471885Y-25324719D01*
X32895461Y-31268280D02*
X32847842Y-31315900D01*
X32847842Y-31315900D02*
X32704985Y-31363519D01*
X32704985Y-31363519D02*
X32609747Y-31363519D01*
X32609747Y-31363519D02*
X32466890Y-31315900D01*
X32466890Y-31315900D02*
X32371652Y-31220661D01*
X32371652Y-31220661D02*
X32324033Y-31125423D01*
X32324033Y-31125423D02*
X32276414Y-30934947D01*
X32276414Y-30934947D02*
X32276414Y-30792090D01*
X32276414Y-30792090D02*
X32324033Y-30601614D01*
X32324033Y-30601614D02*
X32371652Y-30506376D01*
X32371652Y-30506376D02*
X32466890Y-30411138D01*
X32466890Y-30411138D02*
X32609747Y-30363519D01*
X32609747Y-30363519D02*
X32704985Y-30363519D01*
X32704985Y-30363519D02*
X32847842Y-30411138D01*
X32847842Y-30411138D02*
X32895461Y-30458757D01*
X33514509Y-30363519D02*
X33609747Y-30363519D01*
X33609747Y-30363519D02*
X33704985Y-30411138D01*
X33704985Y-30411138D02*
X33752604Y-30458757D01*
X33752604Y-30458757D02*
X33800223Y-30553995D01*
X33800223Y-30553995D02*
X33847842Y-30744471D01*
X33847842Y-30744471D02*
X33847842Y-30982566D01*
X33847842Y-30982566D02*
X33800223Y-31173042D01*
X33800223Y-31173042D02*
X33752604Y-31268280D01*
X33752604Y-31268280D02*
X33704985Y-31315900D01*
X33704985Y-31315900D02*
X33609747Y-31363519D01*
X33609747Y-31363519D02*
X33514509Y-31363519D01*
X33514509Y-31363519D02*
X33419271Y-31315900D01*
X33419271Y-31315900D02*
X33371652Y-31268280D01*
X33371652Y-31268280D02*
X33324033Y-31173042D01*
X33324033Y-31173042D02*
X33276414Y-30982566D01*
X33276414Y-30982566D02*
X33276414Y-30744471D01*
X33276414Y-30744471D02*
X33324033Y-30553995D01*
X33324033Y-30553995D02*
X33371652Y-30458757D01*
X33371652Y-30458757D02*
X33419271Y-30411138D01*
X33419271Y-30411138D02*
X33514509Y-30363519D01*
X34704985Y-30696852D02*
X34704985Y-31363519D01*
X34466890Y-30315900D02*
X34228795Y-31030185D01*
X34228795Y-31030185D02*
X34847842Y-31030185D01*
X35419271Y-30363519D02*
X35514509Y-30363519D01*
X35514509Y-30363519D02*
X35609747Y-30411138D01*
X35609747Y-30411138D02*
X35657366Y-30458757D01*
X35657366Y-30458757D02*
X35704985Y-30553995D01*
X35704985Y-30553995D02*
X35752604Y-30744471D01*
X35752604Y-30744471D02*
X35752604Y-30982566D01*
X35752604Y-30982566D02*
X35704985Y-31173042D01*
X35704985Y-31173042D02*
X35657366Y-31268280D01*
X35657366Y-31268280D02*
X35609747Y-31315900D01*
X35609747Y-31315900D02*
X35514509Y-31363519D01*
X35514509Y-31363519D02*
X35419271Y-31363519D01*
X35419271Y-31363519D02*
X35324033Y-31315900D01*
X35324033Y-31315900D02*
X35276414Y-31268280D01*
X35276414Y-31268280D02*
X35228795Y-31173042D01*
X35228795Y-31173042D02*
X35181176Y-30982566D01*
X35181176Y-30982566D02*
X35181176Y-30744471D01*
X35181176Y-30744471D02*
X35228795Y-30553995D01*
X35228795Y-30553995D02*
X35276414Y-30458757D01*
X35276414Y-30458757D02*
X35324033Y-30411138D01*
X35324033Y-30411138D02*
X35419271Y-30363519D01*
X36133557Y-30458757D02*
X36181176Y-30411138D01*
X36181176Y-30411138D02*
X36276414Y-30363519D01*
X36276414Y-30363519D02*
X36514509Y-30363519D01*
X36514509Y-30363519D02*
X36609747Y-30411138D01*
X36609747Y-30411138D02*
X36657366Y-30458757D01*
X36657366Y-30458757D02*
X36704985Y-30553995D01*
X36704985Y-30553995D02*
X36704985Y-30649233D01*
X36704985Y-30649233D02*
X36657366Y-30792090D01*
X36657366Y-30792090D02*
X36085938Y-31363519D01*
X36085938Y-31363519D02*
X36704985Y-31363519D01*
X39367461Y-45075980D02*
X39319842Y-45123600D01*
X39319842Y-45123600D02*
X39176985Y-45171219D01*
X39176985Y-45171219D02*
X39081747Y-45171219D01*
X39081747Y-45171219D02*
X38938890Y-45123600D01*
X38938890Y-45123600D02*
X38843652Y-45028361D01*
X38843652Y-45028361D02*
X38796033Y-44933123D01*
X38796033Y-44933123D02*
X38748414Y-44742647D01*
X38748414Y-44742647D02*
X38748414Y-44599790D01*
X38748414Y-44599790D02*
X38796033Y-44409314D01*
X38796033Y-44409314D02*
X38843652Y-44314076D01*
X38843652Y-44314076D02*
X38938890Y-44218838D01*
X38938890Y-44218838D02*
X39081747Y-44171219D01*
X39081747Y-44171219D02*
X39176985Y-44171219D01*
X39176985Y-44171219D02*
X39319842Y-44218838D01*
X39319842Y-44218838D02*
X39367461Y-44266457D01*
X39986509Y-44171219D02*
X40081747Y-44171219D01*
X40081747Y-44171219D02*
X40176985Y-44218838D01*
X40176985Y-44218838D02*
X40224604Y-44266457D01*
X40224604Y-44266457D02*
X40272223Y-44361695D01*
X40272223Y-44361695D02*
X40319842Y-44552171D01*
X40319842Y-44552171D02*
X40319842Y-44790266D01*
X40319842Y-44790266D02*
X40272223Y-44980742D01*
X40272223Y-44980742D02*
X40224604Y-45075980D01*
X40224604Y-45075980D02*
X40176985Y-45123600D01*
X40176985Y-45123600D02*
X40081747Y-45171219D01*
X40081747Y-45171219D02*
X39986509Y-45171219D01*
X39986509Y-45171219D02*
X39891271Y-45123600D01*
X39891271Y-45123600D02*
X39843652Y-45075980D01*
X39843652Y-45075980D02*
X39796033Y-44980742D01*
X39796033Y-44980742D02*
X39748414Y-44790266D01*
X39748414Y-44790266D02*
X39748414Y-44552171D01*
X39748414Y-44552171D02*
X39796033Y-44361695D01*
X39796033Y-44361695D02*
X39843652Y-44266457D01*
X39843652Y-44266457D02*
X39891271Y-44218838D01*
X39891271Y-44218838D02*
X39986509Y-44171219D01*
X41176985Y-44504552D02*
X41176985Y-45171219D01*
X40938890Y-44123600D02*
X40700795Y-44837885D01*
X40700795Y-44837885D02*
X41319842Y-44837885D01*
X41891271Y-44171219D02*
X41986509Y-44171219D01*
X41986509Y-44171219D02*
X42081747Y-44218838D01*
X42081747Y-44218838D02*
X42129366Y-44266457D01*
X42129366Y-44266457D02*
X42176985Y-44361695D01*
X42176985Y-44361695D02*
X42224604Y-44552171D01*
X42224604Y-44552171D02*
X42224604Y-44790266D01*
X42224604Y-44790266D02*
X42176985Y-44980742D01*
X42176985Y-44980742D02*
X42129366Y-45075980D01*
X42129366Y-45075980D02*
X42081747Y-45123600D01*
X42081747Y-45123600D02*
X41986509Y-45171219D01*
X41986509Y-45171219D02*
X41891271Y-45171219D01*
X41891271Y-45171219D02*
X41796033Y-45123600D01*
X41796033Y-45123600D02*
X41748414Y-45075980D01*
X41748414Y-45075980D02*
X41700795Y-44980742D01*
X41700795Y-44980742D02*
X41653176Y-44790266D01*
X41653176Y-44790266D02*
X41653176Y-44552171D01*
X41653176Y-44552171D02*
X41700795Y-44361695D01*
X41700795Y-44361695D02*
X41748414Y-44266457D01*
X41748414Y-44266457D02*
X41796033Y-44218838D01*
X41796033Y-44218838D02*
X41891271Y-44171219D01*
X42605557Y-44266457D02*
X42653176Y-44218838D01*
X42653176Y-44218838D02*
X42748414Y-44171219D01*
X42748414Y-44171219D02*
X42986509Y-44171219D01*
X42986509Y-44171219D02*
X43081747Y-44218838D01*
X43081747Y-44218838D02*
X43129366Y-44266457D01*
X43129366Y-44266457D02*
X43176985Y-44361695D01*
X43176985Y-44361695D02*
X43176985Y-44456933D01*
X43176985Y-44456933D02*
X43129366Y-44599790D01*
X43129366Y-44599790D02*
X42557938Y-45171219D01*
X42557938Y-45171219D02*
X43176985Y-45171219D01*
X32906361Y-27836980D02*
X32858742Y-27884600D01*
X32858742Y-27884600D02*
X32715885Y-27932219D01*
X32715885Y-27932219D02*
X32620647Y-27932219D01*
X32620647Y-27932219D02*
X32477790Y-27884600D01*
X32477790Y-27884600D02*
X32382552Y-27789361D01*
X32382552Y-27789361D02*
X32334933Y-27694123D01*
X32334933Y-27694123D02*
X32287314Y-27503647D01*
X32287314Y-27503647D02*
X32287314Y-27360790D01*
X32287314Y-27360790D02*
X32334933Y-27170314D01*
X32334933Y-27170314D02*
X32382552Y-27075076D01*
X32382552Y-27075076D02*
X32477790Y-26979838D01*
X32477790Y-26979838D02*
X32620647Y-26932219D01*
X32620647Y-26932219D02*
X32715885Y-26932219D01*
X32715885Y-26932219D02*
X32858742Y-26979838D01*
X32858742Y-26979838D02*
X32906361Y-27027457D01*
X33525409Y-26932219D02*
X33620647Y-26932219D01*
X33620647Y-26932219D02*
X33715885Y-26979838D01*
X33715885Y-26979838D02*
X33763504Y-27027457D01*
X33763504Y-27027457D02*
X33811123Y-27122695D01*
X33811123Y-27122695D02*
X33858742Y-27313171D01*
X33858742Y-27313171D02*
X33858742Y-27551266D01*
X33858742Y-27551266D02*
X33811123Y-27741742D01*
X33811123Y-27741742D02*
X33763504Y-27836980D01*
X33763504Y-27836980D02*
X33715885Y-27884600D01*
X33715885Y-27884600D02*
X33620647Y-27932219D01*
X33620647Y-27932219D02*
X33525409Y-27932219D01*
X33525409Y-27932219D02*
X33430171Y-27884600D01*
X33430171Y-27884600D02*
X33382552Y-27836980D01*
X33382552Y-27836980D02*
X33334933Y-27741742D01*
X33334933Y-27741742D02*
X33287314Y-27551266D01*
X33287314Y-27551266D02*
X33287314Y-27313171D01*
X33287314Y-27313171D02*
X33334933Y-27122695D01*
X33334933Y-27122695D02*
X33382552Y-27027457D01*
X33382552Y-27027457D02*
X33430171Y-26979838D01*
X33430171Y-26979838D02*
X33525409Y-26932219D01*
X34715885Y-27265552D02*
X34715885Y-27932219D01*
X34477790Y-26884600D02*
X34239695Y-27598885D01*
X34239695Y-27598885D02*
X34858742Y-27598885D01*
X35430171Y-26932219D02*
X35525409Y-26932219D01*
X35525409Y-26932219D02*
X35620647Y-26979838D01*
X35620647Y-26979838D02*
X35668266Y-27027457D01*
X35668266Y-27027457D02*
X35715885Y-27122695D01*
X35715885Y-27122695D02*
X35763504Y-27313171D01*
X35763504Y-27313171D02*
X35763504Y-27551266D01*
X35763504Y-27551266D02*
X35715885Y-27741742D01*
X35715885Y-27741742D02*
X35668266Y-27836980D01*
X35668266Y-27836980D02*
X35620647Y-27884600D01*
X35620647Y-27884600D02*
X35525409Y-27932219D01*
X35525409Y-27932219D02*
X35430171Y-27932219D01*
X35430171Y-27932219D02*
X35334933Y-27884600D01*
X35334933Y-27884600D02*
X35287314Y-27836980D01*
X35287314Y-27836980D02*
X35239695Y-27741742D01*
X35239695Y-27741742D02*
X35192076Y-27551266D01*
X35192076Y-27551266D02*
X35192076Y-27313171D01*
X35192076Y-27313171D02*
X35239695Y-27122695D01*
X35239695Y-27122695D02*
X35287314Y-27027457D01*
X35287314Y-27027457D02*
X35334933Y-26979838D01*
X35334933Y-26979838D02*
X35430171Y-26932219D01*
X36144457Y-27027457D02*
X36192076Y-26979838D01*
X36192076Y-26979838D02*
X36287314Y-26932219D01*
X36287314Y-26932219D02*
X36525409Y-26932219D01*
X36525409Y-26932219D02*
X36620647Y-26979838D01*
X36620647Y-26979838D02*
X36668266Y-27027457D01*
X36668266Y-27027457D02*
X36715885Y-27122695D01*
X36715885Y-27122695D02*
X36715885Y-27217933D01*
X36715885Y-27217933D02*
X36668266Y-27360790D01*
X36668266Y-27360790D02*
X36096838Y-27932219D01*
X36096838Y-27932219D02*
X36715885Y-27932219D01*
X42593661Y-44035280D02*
X42546042Y-44082900D01*
X42546042Y-44082900D02*
X42403185Y-44130519D01*
X42403185Y-44130519D02*
X42307947Y-44130519D01*
X42307947Y-44130519D02*
X42165090Y-44082900D01*
X42165090Y-44082900D02*
X42069852Y-43987661D01*
X42069852Y-43987661D02*
X42022233Y-43892423D01*
X42022233Y-43892423D02*
X41974614Y-43701947D01*
X41974614Y-43701947D02*
X41974614Y-43559090D01*
X41974614Y-43559090D02*
X42022233Y-43368614D01*
X42022233Y-43368614D02*
X42069852Y-43273376D01*
X42069852Y-43273376D02*
X42165090Y-43178138D01*
X42165090Y-43178138D02*
X42307947Y-43130519D01*
X42307947Y-43130519D02*
X42403185Y-43130519D01*
X42403185Y-43130519D02*
X42546042Y-43178138D01*
X42546042Y-43178138D02*
X42593661Y-43225757D01*
X43212709Y-43130519D02*
X43307947Y-43130519D01*
X43307947Y-43130519D02*
X43403185Y-43178138D01*
X43403185Y-43178138D02*
X43450804Y-43225757D01*
X43450804Y-43225757D02*
X43498423Y-43320995D01*
X43498423Y-43320995D02*
X43546042Y-43511471D01*
X43546042Y-43511471D02*
X43546042Y-43749566D01*
X43546042Y-43749566D02*
X43498423Y-43940042D01*
X43498423Y-43940042D02*
X43450804Y-44035280D01*
X43450804Y-44035280D02*
X43403185Y-44082900D01*
X43403185Y-44082900D02*
X43307947Y-44130519D01*
X43307947Y-44130519D02*
X43212709Y-44130519D01*
X43212709Y-44130519D02*
X43117471Y-44082900D01*
X43117471Y-44082900D02*
X43069852Y-44035280D01*
X43069852Y-44035280D02*
X43022233Y-43940042D01*
X43022233Y-43940042D02*
X42974614Y-43749566D01*
X42974614Y-43749566D02*
X42974614Y-43511471D01*
X42974614Y-43511471D02*
X43022233Y-43320995D01*
X43022233Y-43320995D02*
X43069852Y-43225757D01*
X43069852Y-43225757D02*
X43117471Y-43178138D01*
X43117471Y-43178138D02*
X43212709Y-43130519D01*
X44403185Y-43463852D02*
X44403185Y-44130519D01*
X44165090Y-43082900D02*
X43926995Y-43797185D01*
X43926995Y-43797185D02*
X44546042Y-43797185D01*
X45117471Y-43130519D02*
X45212709Y-43130519D01*
X45212709Y-43130519D02*
X45307947Y-43178138D01*
X45307947Y-43178138D02*
X45355566Y-43225757D01*
X45355566Y-43225757D02*
X45403185Y-43320995D01*
X45403185Y-43320995D02*
X45450804Y-43511471D01*
X45450804Y-43511471D02*
X45450804Y-43749566D01*
X45450804Y-43749566D02*
X45403185Y-43940042D01*
X45403185Y-43940042D02*
X45355566Y-44035280D01*
X45355566Y-44035280D02*
X45307947Y-44082900D01*
X45307947Y-44082900D02*
X45212709Y-44130519D01*
X45212709Y-44130519D02*
X45117471Y-44130519D01*
X45117471Y-44130519D02*
X45022233Y-44082900D01*
X45022233Y-44082900D02*
X44974614Y-44035280D01*
X44974614Y-44035280D02*
X44926995Y-43940042D01*
X44926995Y-43940042D02*
X44879376Y-43749566D01*
X44879376Y-43749566D02*
X44879376Y-43511471D01*
X44879376Y-43511471D02*
X44926995Y-43320995D01*
X44926995Y-43320995D02*
X44974614Y-43225757D01*
X44974614Y-43225757D02*
X45022233Y-43178138D01*
X45022233Y-43178138D02*
X45117471Y-43130519D01*
X45831757Y-43225757D02*
X45879376Y-43178138D01*
X45879376Y-43178138D02*
X45974614Y-43130519D01*
X45974614Y-43130519D02*
X46212709Y-43130519D01*
X46212709Y-43130519D02*
X46307947Y-43178138D01*
X46307947Y-43178138D02*
X46355566Y-43225757D01*
X46355566Y-43225757D02*
X46403185Y-43320995D01*
X46403185Y-43320995D02*
X46403185Y-43416233D01*
X46403185Y-43416233D02*
X46355566Y-43559090D01*
X46355566Y-43559090D02*
X45784138Y-44130519D01*
X45784138Y-44130519D02*
X46403185Y-44130519D01*
X48061976Y-40143719D02*
X48061976Y-40858004D01*
X48061976Y-40858004D02*
X48014357Y-41000861D01*
X48014357Y-41000861D02*
X47919119Y-41096100D01*
X47919119Y-41096100D02*
X47776262Y-41143719D01*
X47776262Y-41143719D02*
X47681024Y-41143719D01*
X48300072Y-41238957D02*
X49061976Y-41238957D01*
X49300072Y-41143719D02*
X49300072Y-40143719D01*
X49300072Y-40143719D02*
X49681024Y-40143719D01*
X49681024Y-40143719D02*
X49776262Y-40191338D01*
X49776262Y-40191338D02*
X49823881Y-40238957D01*
X49823881Y-40238957D02*
X49871500Y-40334195D01*
X49871500Y-40334195D02*
X49871500Y-40477052D01*
X49871500Y-40477052D02*
X49823881Y-40572290D01*
X49823881Y-40572290D02*
X49776262Y-40619909D01*
X49776262Y-40619909D02*
X49681024Y-40667528D01*
X49681024Y-40667528D02*
X49300072Y-40667528D01*
X50204834Y-40143719D02*
X50442929Y-41143719D01*
X50442929Y-41143719D02*
X50633405Y-40429433D01*
X50633405Y-40429433D02*
X50823881Y-41143719D01*
X50823881Y-41143719D02*
X51061977Y-40143719D01*
X52014357Y-41143719D02*
X51681024Y-40667528D01*
X51442929Y-41143719D02*
X51442929Y-40143719D01*
X51442929Y-40143719D02*
X51823881Y-40143719D01*
X51823881Y-40143719D02*
X51919119Y-40191338D01*
X51919119Y-40191338D02*
X51966738Y-40238957D01*
X51966738Y-40238957D02*
X52014357Y-40334195D01*
X52014357Y-40334195D02*
X52014357Y-40477052D01*
X52014357Y-40477052D02*
X51966738Y-40572290D01*
X51966738Y-40572290D02*
X51919119Y-40619909D01*
X51919119Y-40619909D02*
X51823881Y-40667528D01*
X51823881Y-40667528D02*
X51442929Y-40667528D01*
X27220700Y-17705300D02*
X27363557Y-17752919D01*
X27363557Y-17752919D02*
X27601652Y-17752919D01*
X27601652Y-17752919D02*
X27696890Y-17705300D01*
X27696890Y-17705300D02*
X27744509Y-17657680D01*
X27744509Y-17657680D02*
X27792128Y-17562442D01*
X27792128Y-17562442D02*
X27792128Y-17467204D01*
X27792128Y-17467204D02*
X27744509Y-17371966D01*
X27744509Y-17371966D02*
X27696890Y-17324347D01*
X27696890Y-17324347D02*
X27601652Y-17276728D01*
X27601652Y-17276728D02*
X27411176Y-17229109D01*
X27411176Y-17229109D02*
X27315938Y-17181490D01*
X27315938Y-17181490D02*
X27268319Y-17133871D01*
X27268319Y-17133871D02*
X27220700Y-17038633D01*
X27220700Y-17038633D02*
X27220700Y-16943395D01*
X27220700Y-16943395D02*
X27268319Y-16848157D01*
X27268319Y-16848157D02*
X27315938Y-16800538D01*
X27315938Y-16800538D02*
X27411176Y-16752919D01*
X27411176Y-16752919D02*
X27649271Y-16752919D01*
X27649271Y-16752919D02*
X27792128Y-16800538D01*
X28220700Y-17752919D02*
X28220700Y-16752919D01*
X28696890Y-17752919D02*
X28696890Y-16752919D01*
X28696890Y-16752919D02*
X29077842Y-16752919D01*
X29077842Y-16752919D02*
X29173080Y-16800538D01*
X29173080Y-16800538D02*
X29220699Y-16848157D01*
X29220699Y-16848157D02*
X29268318Y-16943395D01*
X29268318Y-16943395D02*
X29268318Y-17086252D01*
X29268318Y-17086252D02*
X29220699Y-17181490D01*
X29220699Y-17181490D02*
X29173080Y-17229109D01*
X29173080Y-17229109D02*
X29077842Y-17276728D01*
X29077842Y-17276728D02*
X28696890Y-17276728D01*
X29887366Y-16752919D02*
X30077842Y-16752919D01*
X30077842Y-16752919D02*
X30173080Y-16800538D01*
X30173080Y-16800538D02*
X30268318Y-16895776D01*
X30268318Y-16895776D02*
X30315937Y-17086252D01*
X30315937Y-17086252D02*
X30315937Y-17419585D01*
X30315937Y-17419585D02*
X30268318Y-17610061D01*
X30268318Y-17610061D02*
X30173080Y-17705300D01*
X30173080Y-17705300D02*
X30077842Y-17752919D01*
X30077842Y-17752919D02*
X29887366Y-17752919D01*
X29887366Y-17752919D02*
X29792128Y-17705300D01*
X29792128Y-17705300D02*
X29696890Y-17610061D01*
X29696890Y-17610061D02*
X29649271Y-17419585D01*
X29649271Y-17419585D02*
X29649271Y-17086252D01*
X29649271Y-17086252D02*
X29696890Y-16895776D01*
X29696890Y-16895776D02*
X29792128Y-16800538D01*
X29792128Y-16800538D02*
X29887366Y-16752919D01*
X31268318Y-17752919D02*
X30696890Y-17752919D01*
X30982604Y-17752919D02*
X30982604Y-16752919D01*
X30982604Y-16752919D02*
X30887366Y-16895776D01*
X30887366Y-16895776D02*
X30792128Y-16991014D01*
X30792128Y-16991014D02*
X30696890Y-17038633D01*
X32125461Y-16752919D02*
X31934985Y-16752919D01*
X31934985Y-16752919D02*
X31839747Y-16800538D01*
X31839747Y-16800538D02*
X31792128Y-16848157D01*
X31792128Y-16848157D02*
X31696890Y-16991014D01*
X31696890Y-16991014D02*
X31649271Y-17181490D01*
X31649271Y-17181490D02*
X31649271Y-17562442D01*
X31649271Y-17562442D02*
X31696890Y-17657680D01*
X31696890Y-17657680D02*
X31744509Y-17705300D01*
X31744509Y-17705300D02*
X31839747Y-17752919D01*
X31839747Y-17752919D02*
X32030223Y-17752919D01*
X32030223Y-17752919D02*
X32125461Y-17705300D01*
X32125461Y-17705300D02*
X32173080Y-17657680D01*
X32173080Y-17657680D02*
X32220699Y-17562442D01*
X32220699Y-17562442D02*
X32220699Y-17324347D01*
X32220699Y-17324347D02*
X32173080Y-17229109D01*
X32173080Y-17229109D02*
X32125461Y-17181490D01*
X32125461Y-17181490D02*
X32030223Y-17133871D01*
X32030223Y-17133871D02*
X31839747Y-17133871D01*
X31839747Y-17133871D02*
X31744509Y-17181490D01*
X31744509Y-17181490D02*
X31696890Y-17229109D01*
X31696890Y-17229109D02*
X31649271Y-17324347D01*
X32476190Y-7454819D02*
X32476190Y-8169104D01*
X32476190Y-8169104D02*
X32428571Y-8311961D01*
X32428571Y-8311961D02*
X32333333Y-8407200D01*
X32333333Y-8407200D02*
X32190476Y-8454819D01*
X32190476Y-8454819D02*
X32095238Y-8454819D01*
X32714286Y-8550057D02*
X33476190Y-8550057D01*
X33666667Y-8407200D02*
X33809524Y-8454819D01*
X33809524Y-8454819D02*
X34047619Y-8454819D01*
X34047619Y-8454819D02*
X34142857Y-8407200D01*
X34142857Y-8407200D02*
X34190476Y-8359580D01*
X34190476Y-8359580D02*
X34238095Y-8264342D01*
X34238095Y-8264342D02*
X34238095Y-8169104D01*
X34238095Y-8169104D02*
X34190476Y-8073866D01*
X34190476Y-8073866D02*
X34142857Y-8026247D01*
X34142857Y-8026247D02*
X34047619Y-7978628D01*
X34047619Y-7978628D02*
X33857143Y-7931009D01*
X33857143Y-7931009D02*
X33761905Y-7883390D01*
X33761905Y-7883390D02*
X33714286Y-7835771D01*
X33714286Y-7835771D02*
X33666667Y-7740533D01*
X33666667Y-7740533D02*
X33666667Y-7645295D01*
X33666667Y-7645295D02*
X33714286Y-7550057D01*
X33714286Y-7550057D02*
X33761905Y-7502438D01*
X33761905Y-7502438D02*
X33857143Y-7454819D01*
X33857143Y-7454819D02*
X34095238Y-7454819D01*
X34095238Y-7454819D02*
X34238095Y-7502438D01*
X34523810Y-7454819D02*
X35095238Y-7454819D01*
X34809524Y-8454819D02*
X34809524Y-7454819D01*
X35380953Y-8169104D02*
X35857143Y-8169104D01*
X35285715Y-8454819D02*
X35619048Y-7454819D01*
X35619048Y-7454819D02*
X35952381Y-8454819D01*
X36857143Y-8359580D02*
X36809524Y-8407200D01*
X36809524Y-8407200D02*
X36666667Y-8454819D01*
X36666667Y-8454819D02*
X36571429Y-8454819D01*
X36571429Y-8454819D02*
X36428572Y-8407200D01*
X36428572Y-8407200D02*
X36333334Y-8311961D01*
X36333334Y-8311961D02*
X36285715Y-8216723D01*
X36285715Y-8216723D02*
X36238096Y-8026247D01*
X36238096Y-8026247D02*
X36238096Y-7883390D01*
X36238096Y-7883390D02*
X36285715Y-7692914D01*
X36285715Y-7692914D02*
X36333334Y-7597676D01*
X36333334Y-7597676D02*
X36428572Y-7502438D01*
X36428572Y-7502438D02*
X36571429Y-7454819D01*
X36571429Y-7454819D02*
X36666667Y-7454819D01*
X36666667Y-7454819D02*
X36809524Y-7502438D01*
X36809524Y-7502438D02*
X36857143Y-7550057D01*
X37285715Y-8454819D02*
X37285715Y-7454819D01*
X37857143Y-8454819D02*
X37428572Y-7883390D01*
X37857143Y-7454819D02*
X37285715Y-8026247D01*
X50014261Y-23099019D02*
X50014261Y-23813304D01*
X50014261Y-23813304D02*
X49966642Y-23956161D01*
X49966642Y-23956161D02*
X49871404Y-24051400D01*
X49871404Y-24051400D02*
X49728547Y-24099019D01*
X49728547Y-24099019D02*
X49633309Y-24099019D01*
X50252357Y-24194257D02*
X51014261Y-24194257D01*
X51109500Y-23099019D02*
X51680928Y-23099019D01*
X51395214Y-24099019D02*
X51395214Y-23099019D01*
X51919024Y-23099019D02*
X52585690Y-24099019D01*
X52585690Y-23099019D02*
X51919024Y-24099019D01*
%TO.C,U1*%
D11*
X37107000Y-23563000D02*
X45107000Y-23563000D01*
X45107000Y-31563000D01*
X37107000Y-31563000D01*
X37107000Y-23563000D01*
%TO.C,U2*%
X35584500Y-36082700D02*
X43584500Y-36082700D01*
X43584500Y-44082700D01*
X35584500Y-44082700D01*
X35584500Y-36082700D01*
%TO.C,ISO1*%
X36723800Y-18531000D02*
X41723800Y-18531000D01*
X41723800Y-22531000D01*
X36723800Y-22531000D01*
X36723800Y-18531000D01*
%TO.C,ISO2*%
X28703300Y-23305800D02*
X33703300Y-23305800D01*
X33703300Y-27305800D01*
X28703300Y-27305800D01*
X28703300Y-23305800D01*
%TO.C,ISO3*%
X24584400Y-35514700D02*
X29584400Y-35514700D01*
X29584400Y-39514700D01*
X24584400Y-39514700D01*
X24584400Y-35514700D01*
%TO.C,ISO4*%
X26843600Y-28423200D02*
X31843600Y-28423200D01*
X31843600Y-32423200D01*
X26843600Y-32423200D01*
X26843600Y-28423200D01*
%TO.C,R0*%
X44785500Y-16802300D02*
X46985500Y-16802300D01*
X46985500Y-18002300D01*
X44785500Y-18002300D01*
X44785500Y-16802300D01*
%TO.C,R1*%
X44323800Y-32599000D02*
X45523800Y-32599000D01*
X45523800Y-34799000D01*
X44323800Y-34799000D01*
X44323800Y-32599000D01*
%TO.C,R2*%
X55621000Y-20037000D02*
X56821000Y-20037000D01*
X56821000Y-22237000D01*
X55621000Y-22237000D01*
X55621000Y-20037000D01*
%TO.C,R3*%
X46197900Y-24402400D02*
X48397900Y-24402400D01*
X48397900Y-25602400D01*
X46197900Y-25602400D01*
X46197900Y-24402400D01*
%TO.C,R4*%
X57868400Y-26040300D02*
X59068400Y-26040300D01*
X59068400Y-28240300D01*
X57868400Y-28240300D01*
X57868400Y-26040300D01*
%TO.C,R5*%
X46291500Y-29395300D02*
X48491500Y-29395300D01*
X48491500Y-30595300D01*
X46291500Y-30595300D01*
X46291500Y-29395300D01*
%TO.C,R6*%
X55611700Y-31499600D02*
X57811700Y-31499600D01*
X57811700Y-32699600D01*
X55611700Y-32699600D01*
X55611700Y-31499600D01*
%TO.C,R7*%
X46781600Y-31675500D02*
X47981600Y-31675500D01*
X47981600Y-33875500D01*
X46781600Y-33875500D01*
X46781600Y-31675500D01*
%TO.C,R8*%
X55920000Y-34003300D02*
X57120000Y-34003300D01*
X57120000Y-36203300D01*
X55920000Y-36203300D01*
X55920000Y-34003300D01*
%TO.C,R9*%
X33316900Y-34775200D02*
X34516900Y-34775200D01*
X34516900Y-36975200D01*
X33316900Y-36975200D01*
X33316900Y-34775200D01*
%TO.C,R10*%
X55921200Y-37451200D02*
X58121200Y-37451200D01*
X58121200Y-38651200D01*
X55921200Y-38651200D01*
X55921200Y-37451200D01*
%TO.C,R11*%
X43862800Y-45866400D02*
X45062800Y-45866400D01*
X45062800Y-48066400D01*
X43862800Y-48066400D01*
X43862800Y-45866400D01*
%TO.C,R12*%
X46616500Y-46703400D02*
X48816500Y-46703400D01*
X48816500Y-47903400D01*
X46616500Y-47903400D01*
X46616500Y-46703400D01*
%TO.C,R13*%
X55611400Y-27560300D02*
X56811400Y-27560300D01*
X56811400Y-29760300D01*
X55611400Y-29760300D01*
X55611400Y-27560300D01*
%TO.C,R14*%
X46391400Y-48939600D02*
X47591400Y-48939600D01*
X47591400Y-51139600D01*
X46391400Y-51139600D01*
X46391400Y-48939600D01*
%TO.C,R15*%
X55657600Y-23769900D02*
X56857600Y-23769900D01*
X56857600Y-25969900D01*
X55657600Y-25969900D01*
X55657600Y-23769900D01*
%TO.C,C1*%
X34890700Y-29808700D02*
X36090700Y-29808700D01*
X36090700Y-32008700D01*
X34890700Y-32008700D01*
X34890700Y-29808700D01*
%TO.C,C2*%
X39862700Y-45116400D02*
X42062700Y-45116400D01*
X42062700Y-46316400D01*
X39862700Y-46316400D01*
X39862700Y-45116400D01*
%TO.C,C3*%
X34901600Y-26377400D02*
X36101600Y-26377400D01*
X36101600Y-28577400D01*
X34901600Y-28577400D01*
X34901600Y-26377400D01*
%TO.C,C4*%
X44588900Y-42575700D02*
X45788900Y-42575700D01*
X45788900Y-44775700D01*
X44588900Y-44775700D01*
X44588900Y-42575700D01*
%TO.C,J1*%
X46871500Y-35688900D02*
X54871500Y-35688900D01*
X54871500Y-45688900D01*
X46871500Y-45688900D01*
X46871500Y-35688900D01*
%TO.C,U3*%
X23720700Y-10298100D02*
X35720700Y-10298100D01*
X35720700Y-22298100D01*
X23720700Y-22298100D01*
X23720700Y-10298100D01*
%TO.C,J_STACK*%
X20030000Y-4730000D02*
X49970000Y-4730000D01*
X49970000Y-9270000D01*
X20030000Y-9270000D01*
X20030000Y-4730000D01*
%TO.C,J3*%
X49609500Y-12644200D02*
X54609500Y-12644200D01*
X54609500Y-34644200D01*
X49609500Y-34644200D01*
X49609500Y-12644200D01*
%TD*%
M02*
