<?xml version="1.0" encoding="utf-8" standalone="no"?>
<!DOCTYPE svg PUBLIC "-//W3C//DTD SVG 1.1//EN"
  "http://www.w3.org/Graphics/SVG/1.1/DTD/svg11.dtd">
<svg xmlns:xlink="http://www.w3.org/1999/xlink" width="784.8pt" height="424.307875pt" viewBox="0 0 784.8 424.307875" xmlns="http://www.w3.org/2000/svg" version="1.1">
 <metadata>
  <rdf:RDF xmlns:dc="http://purl.org/dc/elements/1.1/" xmlns:cc="http://creativecommons.org/ns#" xmlns:rdf="http://www.w3.org/1999/02/22-rdf-syntax-ns#">
   <cc:Work>
    <dc:type rdf:resource="http://purl.org/dc/dcmitype/StillImage"/>
    <dc:date>2026-05-05T11:43:53.427593</dc:date>
    <dc:format>image/svg+xml</dc:format>
    <dc:creator>
     <cc:Agent>
      <dc:title>Matplotlib v3.10.3, https://matplotlib.org/</dc:title>
     </cc:Agent>
    </dc:creator>
   </cc:Work>
  </rdf:RDF>
 </metadata>
 <defs>
  <style type="text/css">*{stroke-linejoin: round; stroke-linecap: butt}</style>
 </defs>
 <g id="figure_1">
  <g id="patch_1">
   <path d="M 0 424.307875 
L 784.8 424.307875 
L 784.8 0 
L 0 0 
z
" style="fill: #ffffff"/>
  </g>
  <g id="axes_1">
   <g id="patch_2">
    <path d="M 20.04 75.552355 
L 238.32 75.552355 
L 238.32 49.684195 
L 20.04 49.684195 
z
" clip-path="url(#p998db1444b)" style="fill: #eef3fb; stroke: #3b6ea8; stroke-width: 1.2; stroke-linejoin: miter"/>
   </g>
   <g id="patch_3">
    <path d="M 20.04 112.917475 
L 238.32 112.917475 
L 238.32 87.049315 
L 20.04 87.049315 
z
" clip-path="url(#p998db1444b)" style="fill: #eef3fb; stroke: #3b6ea8; stroke-width: 1.2; stroke-linejoin: miter"/>
   </g>
   <g id="patch_4">
    <path d="M 20.04 150.282595 
L 238.32 150.282595 
L 238.32 124.414435 
L 20.04 124.414435 
z
" clip-path="url(#p998db1444b)" style="fill: #eef3fb; stroke: #3b6ea8; stroke-width: 1.2; stroke-linejoin: miter"/>
   </g>
   <g id="patch_5">
    <path d="M 20.04 187.647715 
L 238.32 187.647715 
L 238.32 161.779555 
L 20.04 161.779555 
z
" clip-path="url(#p998db1444b)" style="fill: #eef3fb; stroke: #3b6ea8; stroke-width: 1.2; stroke-linejoin: miter"/>
   </g>
   <g id="patch_6">
    <path d="M 20.04 225.012835 
L 238.32 225.012835 
L 238.32 199.144675 
L 20.04 199.144675 
z
" clip-path="url(#p998db1444b)" style="fill: #eef3fb; stroke: #3b6ea8; stroke-width: 1.2; stroke-linejoin: miter"/>
   </g>
   <g id="patch_7">
    <path d="M 20.04 262.377955 
L 238.32 262.377955 
L 238.32 236.509795 
L 20.04 236.509795 
z
" clip-path="url(#p998db1444b)" style="fill: #eef3fb; stroke: #3b6ea8; stroke-width: 1.2; stroke-linejoin: miter"/>
   </g>
   <g id="patch_8">
    <path d="M 20.04 299.743075 
L 238.32 299.743075 
L 238.32 273.874915 
L 20.04 273.874915 
z
" clip-path="url(#p998db1444b)" style="fill: #eef3fb; stroke: #3b6ea8; stroke-width: 1.2; stroke-linejoin: miter"/>
   </g>
   <g id="patch_9">
    <path d="M 20.04 337.108195 
L 238.32 337.108195 
L 238.32 311.240035 
L 20.04 311.240035 
z
" clip-path="url(#p998db1444b)" style="fill: #eef3fb; stroke: #3b6ea8; stroke-width: 1.2; stroke-linejoin: miter"/>
   </g>
   <g id="patch_10">
    <path d="M 20.04 374.473315 
L 238.32 374.473315 
L 238.32 348.605155 
L 20.04 348.605155 
z
" clip-path="url(#p998db1444b)" style="fill: #eef3fb; stroke: #3b6ea8; stroke-width: 1.2; stroke-linejoin: miter"/>
   </g>
   <g id="patch_11">
    <path d="M 302.52 297.347875 
L 469.44 297.347875 
L 469.44 153.635875 
L 302.52 153.635875 
z
" clip-path="url(#p998db1444b)" style="fill: #fdf6e3; stroke: #a07d2c; stroke-width: 1.4; stroke-linejoin: miter"/>
   </g>
   <g id="patch_12">
    <path d="M 546.48 196.749475 
L 764.76 196.749475 
L 764.76 129.683875 
L 546.48 129.683875 
z
" clip-path="url(#p998db1444b)" style="fill: #e7f3e8; stroke: #2e7d32; stroke-width: 1.4; stroke-linejoin: miter"/>
   </g>
   <g id="patch_13">
    <path d="M 546.48 321.299875 
L 764.76 321.299875 
L 764.76 254.234275 
L 546.48 254.234275 
z
" clip-path="url(#p998db1444b)" style="fill: #fbe9e7; stroke: #c0392b; stroke-width: 1.4; stroke-linejoin: miter"/>
   </g>
   <g id="text_1">
    <!-- LinearAcoustics{FDTD} -->
    <g transform="translate(75.945 65.101712) scale(0.09 -0.09)">
     <defs>
      <path id="DejaVuSans-4c" d="M 628 4666 
L 1259 4666 
L 1259 531 
L 3531 531 
L 3531 0 
L 628 0 
L 628 4666 
z
" transform="scale(0.015625)"/>
      <path id="DejaVuSans-69" d="M 603 3500 
L 1178 3500 
L 1178 0 
L 603 0 
L 603 3500 
z
M 603 4863 
L 1178 4863 
L 1178 4134 
L 603 4134 
L 603 4863 
z
" transform="scale(0.015625)"/>
      <path id="DejaVuSans-6e" d="M 3513 2113 
L 3513 0 
L 2938 0 
L 2938 2094 
Q 2938 2591 2744 2837 
Q 2550 3084 2163 3084 
Q 1697 3084 1428 2787 
Q 1159 2491 1159 1978 
L 1159 0 
L 581 0 
L 581 3500 
L 1159 3500 
L 1159 2956 
Q 1366 3272 1645 3428 
Q 1925 3584 2291 3584 
Q 2894 3584 3203 3211 
Q 3513 2838 3513 2113 
z
" transform="scale(0.015625)"/>
      <path id="DejaVuSans-65" d="M 3597 1894 
L 3597 1613 
L 953 1613 
Q 991 1019 1311 708 
Q 1631 397 2203 397 
Q 2534 397 2845 478 
Q 3156 559 3463 722 
L 3463 178 
Q 3153 47 2828 -22 
Q 2503 -91 2169 -91 
Q 1331 -91 842 396 
Q 353 884 353 1716 
Q 353 2575 817 3079 
Q 1281 3584 2069 3584 
Q 2775 3584 3186 3129 
Q 3597 2675 3597 1894 
z
M 3022 2063 
Q 3016 2534 2758 2815 
Q 2500 3097 2075 3097 
Q 1594 3097 1305 2825 
Q 1016 2553 972 2059 
L 3022 2063 
z
" transform="scale(0.015625)"/>
      <path id="DejaVuSans-61" d="M 2194 1759 
Q 1497 1759 1228 1600 
Q 959 1441 959 1056 
Q 959 750 1161 570 
Q 1363 391 1709 391 
Q 2188 391 2477 730 
Q 2766 1069 2766 1631 
L 2766 1759 
L 2194 1759 
z
M 3341 1997 
L 3341 0 
L 2766 0 
L 2766 531 
Q 2569 213 2275 61 
Q 1981 -91 1556 -91 
Q 1019 -91 701 211 
Q 384 513 384 1019 
Q 384 1609 779 1909 
Q 1175 2209 1959 2209 
L 2766 2209 
L 2766 2266 
Q 2766 2663 2505 2880 
Q 2244 3097 1772 3097 
Q 1472 3097 1187 3025 
Q 903 2953 641 2809 
L 641 3341 
Q 956 3463 1253 3523 
Q 1550 3584 1831 3584 
Q 2591 3584 2966 3190 
Q 3341 2797 3341 1997 
z
" transform="scale(0.015625)"/>
      <path id="DejaVuSans-72" d="M 2631 2963 
Q 2534 3019 2420 3045 
Q 2306 3072 2169 3072 
Q 1681 3072 1420 2755 
Q 1159 2438 1159 1844 
L 1159 0 
L 581 0 
L 581 3500 
L 1159 3500 
L 1159 2956 
Q 1341 3275 1631 3429 
Q 1922 3584 2338 3584 
Q 2397 3584 2469 3576 
Q 2541 3569 2628 3553 
L 2631 2963 
z
" transform="scale(0.015625)"/>
      <path id="DejaVuSans-41" d="M 2188 4044 
L 1331 1722 
L 3047 1722 
L 2188 4044 
z
M 1831 4666 
L 2547 4666 
L 4325 0 
L 3669 0 
L 3244 1197 
L 1141 1197 
L 716 0 
L 50 0 
L 1831 4666 
z
" transform="scale(0.015625)"/>
      <path id="DejaVuSans-63" d="M 3122 3366 
L 3122 2828 
Q 2878 2963 2633 3030 
Q 2388 3097 2138 3097 
Q 1578 3097 1268 2742 
Q 959 2388 959 1747 
Q 959 1106 1268 751 
Q 1578 397 2138 397 
Q 2388 397 2633 464 
Q 2878 531 3122 666 
L 3122 134 
Q 2881 22 2623 -34 
Q 2366 -91 2075 -91 
Q 1284 -91 818 406 
Q 353 903 353 1747 
Q 353 2603 823 3093 
Q 1294 3584 2113 3584 
Q 2378 3584 2631 3529 
Q 2884 3475 3122 3366 
z
" transform="scale(0.015625)"/>
      <path id="DejaVuSans-6f" d="M 1959 3097 
Q 1497 3097 1228 2736 
Q 959 2375 959 1747 
Q 959 1119 1226 758 
Q 1494 397 1959 397 
Q 2419 397 2687 759 
Q 2956 1122 2956 1747 
Q 2956 2369 2687 2733 
Q 2419 3097 1959 3097 
z
M 1959 3584 
Q 2709 3584 3137 3096 
Q 3566 2609 3566 1747 
Q 3566 888 3137 398 
Q 2709 -91 1959 -91 
Q 1206 -91 779 398 
Q 353 888 353 1747 
Q 353 2609 779 3096 
Q 1206 3584 1959 3584 
z
" transform="scale(0.015625)"/>
      <path id="DejaVuSans-75" d="M 544 1381 
L 544 3500 
L 1119 3500 
L 1119 1403 
Q 1119 906 1312 657 
Q 1506 409 1894 409 
Q 2359 409 2629 706 
Q 2900 1003 2900 1516 
L 2900 3500 
L 3475 3500 
L 3475 0 
L 2900 0 
L 2900 538 
Q 2691 219 2414 64 
Q 2138 -91 1772 -91 
Q 1169 -91 856 284 
Q 544 659 544 1381 
z
M 1991 3584 
L 1991 3584 
z
" transform="scale(0.015625)"/>
      <path id="DejaVuSans-73" d="M 2834 3397 
L 2834 2853 
Q 2591 2978 2328 3040 
Q 2066 3103 1784 3103 
Q 1356 3103 1142 2972 
Q 928 2841 928 2578 
Q 928 2378 1081 2264 
Q 1234 2150 1697 2047 
L 1894 2003 
Q 2506 1872 2764 1633 
Q 3022 1394 3022 966 
Q 3022 478 2636 193 
Q 2250 -91 1575 -91 
Q 1294 -91 989 -36 
Q 684 19 347 128 
L 347 722 
Q 666 556 975 473 
Q 1284 391 1588 391 
Q 1994 391 2212 530 
Q 2431 669 2431 922 
Q 2431 1156 2273 1281 
Q 2116 1406 1581 1522 
L 1381 1569 
Q 847 1681 609 1914 
Q 372 2147 372 2553 
Q 372 3047 722 3315 
Q 1072 3584 1716 3584 
Q 2034 3584 2315 3537 
Q 2597 3491 2834 3397 
z
" transform="scale(0.015625)"/>
      <path id="DejaVuSans-74" d="M 1172 4494 
L 1172 3500 
L 2356 3500 
L 2356 3053 
L 1172 3053 
L 1172 1153 
Q 1172 725 1289 603 
Q 1406 481 1766 481 
L 2356 481 
L 2356 0 
L 1766 0 
Q 1100 0 847 248 
Q 594 497 594 1153 
L 594 3053 
L 172 3053 
L 172 3500 
L 594 3500 
L 594 4494 
L 1172 4494 
z
" transform="scale(0.015625)"/>
      <path id="DejaVuSans-7b" d="M 3272 -594 
L 3272 -1044 
L 3078 -1044 
Q 2300 -1044 2036 -812 
Q 1772 -581 1772 109 
L 1772 856 
Q 1772 1328 1603 1509 
Q 1434 1691 991 1691 
L 800 1691 
L 800 2138 
L 991 2138 
Q 1438 2138 1605 2317 
Q 1772 2497 1772 2963 
L 1772 3713 
Q 1772 4403 2036 4633 
Q 2300 4863 3078 4863 
L 3272 4863 
L 3272 4416 
L 3059 4416 
Q 2619 4416 2484 4278 
Q 2350 4141 2350 3700 
L 2350 2925 
Q 2350 2434 2208 2212 
Q 2066 1991 1722 1913 
Q 2069 1828 2209 1606 
Q 2350 1384 2350 897 
L 2350 122 
Q 2350 -319 2484 -456 
Q 2619 -594 3059 -594 
L 3272 -594 
z
" transform="scale(0.015625)"/>
      <path id="DejaVuSans-46" d="M 628 4666 
L 3309 4666 
L 3309 4134 
L 1259 4134 
L 1259 2759 
L 3109 2759 
L 3109 2228 
L 1259 2228 
L 1259 0 
L 628 0 
L 628 4666 
z
" transform="scale(0.015625)"/>
      <path id="DejaVuSans-44" d="M 1259 4147 
L 1259 519 
L 2022 519 
Q 2988 519 3436 956 
Q 3884 1394 3884 2338 
Q 3884 3275 3436 3711 
Q 2988 4147 2022 4147 
L 1259 4147 
z
M 628 4666 
L 1925 4666 
Q 3281 4666 3915 4102 
Q 4550 3538 4550 2338 
Q 4550 1131 3912 565 
Q 3275 0 1925 0 
L 628 0 
L 628 4666 
z
" transform="scale(0.015625)"/>
      <path id="DejaVuSans-54" d="M -19 4666 
L 3928 4666 
L 3928 4134 
L 2272 4134 
L 2272 0 
L 1638 0 
L 1638 4134 
L -19 4134 
L -19 4666 
z
" transform="scale(0.015625)"/>
      <path id="DejaVuSans-7d" d="M 800 -594 
L 1019 -594 
Q 1456 -594 1589 -459 
Q 1722 -325 1722 122 
L 1722 897 
Q 1722 1384 1862 1606 
Q 2003 1828 2350 1913 
Q 2003 1991 1862 2212 
Q 1722 2434 1722 2925 
L 1722 3700 
Q 1722 4144 1589 4280 
Q 1456 4416 1019 4416 
L 800 4416 
L 800 4863 
L 997 4863 
Q 1775 4863 2036 4633 
Q 2297 4403 2297 3713 
L 2297 2963 
Q 2297 2497 2465 2317 
Q 2634 2138 3078 2138 
L 3272 2138 
L 3272 1691 
L 3078 1691 
Q 2634 1691 2465 1509 
Q 2297 1328 2297 856 
L 2297 109 
Q 2297 -581 2036 -812 
Q 1775 -1044 997 -1044 
L 800 -1044 
L 800 -594 
z
" transform="scale(0.015625)"/>
     </defs>
     <use xlink:href="#DejaVuSans-4c"/>
     <use xlink:href="#DejaVuSans-69" transform="translate(55.712891 0)"/>
     <use xlink:href="#DejaVuSans-6e" transform="translate(83.496094 0)"/>
     <use xlink:href="#DejaVuSans-65" transform="translate(146.875 0)"/>
     <use xlink:href="#DejaVuSans-61" transform="translate(208.398438 0)"/>
     <use xlink:href="#DejaVuSans-72" transform="translate(269.677734 0)"/>
     <use xlink:href="#DejaVuSans-41" transform="translate(310.791016 0)"/>
     <use xlink:href="#DejaVuSans-63" transform="translate(377.449219 0)"/>
     <use xlink:href="#DejaVuSans-6f" transform="translate(432.429688 0)"/>
     <use xlink:href="#DejaVuSans-75" transform="translate(493.611328 0)"/>
     <use xlink:href="#DejaVuSans-73" transform="translate(556.990234 0)"/>
     <use xlink:href="#DejaVuSans-74" transform="translate(609.089844 0)"/>
     <use xlink:href="#DejaVuSans-69" transform="translate(648.298828 0)"/>
     <use xlink:href="#DejaVuSans-63" transform="translate(676.082031 0)"/>
     <use xlink:href="#DejaVuSans-73" transform="translate(731.0625 0)"/>
     <use xlink:href="#DejaVuSans-7b" transform="translate(783.162109 0)"/>
     <use xlink:href="#DejaVuSans-46" transform="translate(846.785156 0)"/>
     <use xlink:href="#DejaVuSans-44" transform="translate(904.304688 0)"/>
     <use xlink:href="#DejaVuSans-54" transform="translate(981.306641 0)"/>
     <use xlink:href="#DejaVuSans-44" transform="translate(1042.390625 0)"/>
     <use xlink:href="#DejaVuSans-7d" transform="translate(1119.392578 0)"/>
    </g>
   </g>
   <g id="text_2">
    <!-- LinearAcoustics{PSTD} -->
    <g transform="translate(76.428047 102.466833) scale(0.09 -0.09)">
     <defs>
      <path id="DejaVuSans-50" d="M 1259 4147 
L 1259 2394 
L 2053 2394 
Q 2494 2394 2734 2622 
Q 2975 2850 2975 3272 
Q 2975 3691 2734 3919 
Q 2494 4147 2053 4147 
L 1259 4147 
z
M 628 4666 
L 2053 4666 
Q 2838 4666 3239 4311 
Q 3641 3956 3641 3272 
Q 3641 2581 3239 2228 
Q 2838 1875 2053 1875 
L 1259 1875 
L 1259 0 
L 628 0 
L 628 4666 
z
" transform="scale(0.015625)"/>
      <path id="DejaVuSans-53" d="M 3425 4513 
L 3425 3897 
Q 3066 4069 2747 4153 
Q 2428 4238 2131 4238 
Q 1616 4238 1336 4038 
Q 1056 3838 1056 3469 
Q 1056 3159 1242 3001 
Q 1428 2844 1947 2747 
L 2328 2669 
Q 3034 2534 3370 2195 
Q 3706 1856 3706 1288 
Q 3706 609 3251 259 
Q 2797 -91 1919 -91 
Q 1588 -91 1214 -16 
Q 841 59 441 206 
L 441 856 
Q 825 641 1194 531 
Q 1563 422 1919 422 
Q 2459 422 2753 634 
Q 3047 847 3047 1241 
Q 3047 1584 2836 1778 
Q 2625 1972 2144 2069 
L 1759 2144 
Q 1053 2284 737 2584 
Q 422 2884 422 3419 
Q 422 4038 858 4394 
Q 1294 4750 2059 4750 
Q 2388 4750 2728 4690 
Q 3069 4631 3425 4513 
z
" transform="scale(0.015625)"/>
     </defs>
     <use xlink:href="#DejaVuSans-4c"/>
     <use xlink:href="#DejaVuSans-69" transform="translate(55.712891 0)"/>
     <use xlink:href="#DejaVuSans-6e" transform="translate(83.496094 0)"/>
     <use xlink:href="#DejaVuSans-65" transform="translate(146.875 0)"/>
     <use xlink:href="#DejaVuSans-61" transform="translate(208.398438 0)"/>
     <use xlink:href="#DejaVuSans-72" transform="translate(269.677734 0)"/>
     <use xlink:href="#DejaVuSans-41" transform="translate(310.791016 0)"/>
     <use xlink:href="#DejaVuSans-63" transform="translate(377.449219 0)"/>
     <use xlink:href="#DejaVuSans-6f" transform="translate(432.429688 0)"/>
     <use xlink:href="#DejaVuSans-75" transform="translate(493.611328 0)"/>
     <use xlink:href="#DejaVuSans-73" transform="translate(556.990234 0)"/>
     <use xlink:href="#DejaVuSans-74" transform="translate(609.089844 0)"/>
     <use xlink:href="#DejaVuSans-69" transform="translate(648.298828 0)"/>
     <use xlink:href="#DejaVuSans-63" transform="translate(676.082031 0)"/>
     <use xlink:href="#DejaVuSans-73" transform="translate(731.0625 0)"/>
     <use xlink:href="#DejaVuSans-7b" transform="translate(783.162109 0)"/>
     <use xlink:href="#DejaVuSans-50" transform="translate(846.785156 0)"/>
     <use xlink:href="#DejaVuSans-53" transform="translate(907.087891 0)"/>
     <use xlink:href="#DejaVuSans-54" transform="translate(970.564453 0)"/>
     <use xlink:href="#DejaVuSans-44" transform="translate(1031.648438 0)"/>
     <use xlink:href="#DejaVuSans-7d" transform="translate(1108.650391 0)"/>
    </g>
   </g>
   <g id="text_3">
    <!-- LinearAcoustics{DG} -->
    <g transform="translate(81.259922 139.831952) scale(0.09 -0.09)">
     <defs>
      <path id="DejaVuSans-47" d="M 3809 666 
L 3809 1919 
L 2778 1919 
L 2778 2438 
L 4434 2438 
L 4434 434 
Q 4069 175 3628 42 
Q 3188 -91 2688 -91 
Q 1594 -91 976 548 
Q 359 1188 359 2328 
Q 359 3472 976 4111 
Q 1594 4750 2688 4750 
Q 3144 4750 3555 4637 
Q 3966 4525 4313 4306 
L 4313 3634 
Q 3963 3931 3569 4081 
Q 3175 4231 2741 4231 
Q 1884 4231 1454 3753 
Q 1025 3275 1025 2328 
Q 1025 1384 1454 906 
Q 1884 428 2741 428 
Q 3075 428 3337 486 
Q 3600 544 3809 666 
z
" transform="scale(0.015625)"/>
     </defs>
     <use xlink:href="#DejaVuSans-4c"/>
     <use xlink:href="#DejaVuSans-69" transform="translate(55.712891 0)"/>
     <use xlink:href="#DejaVuSans-6e" transform="translate(83.496094 0)"/>
     <use xlink:href="#DejaVuSans-65" transform="translate(146.875 0)"/>
     <use xlink:href="#DejaVuSans-61" transform="translate(208.398438 0)"/>
     <use xlink:href="#DejaVuSans-72" transform="translate(269.677734 0)"/>
     <use xlink:href="#DejaVuSans-41" transform="translate(310.791016 0)"/>
     <use xlink:href="#DejaVuSans-63" transform="translate(377.449219 0)"/>
     <use xlink:href="#DejaVuSans-6f" transform="translate(432.429688 0)"/>
     <use xlink:href="#DejaVuSans-75" transform="translate(493.611328 0)"/>
     <use xlink:href="#DejaVuSans-73" transform="translate(556.990234 0)"/>
     <use xlink:href="#DejaVuSans-74" transform="translate(609.089844 0)"/>
     <use xlink:href="#DejaVuSans-69" transform="translate(648.298828 0)"/>
     <use xlink:href="#DejaVuSans-63" transform="translate(676.082031 0)"/>
     <use xlink:href="#DejaVuSans-73" transform="translate(731.0625 0)"/>
     <use xlink:href="#DejaVuSans-7b" transform="translate(783.162109 0)"/>
     <use xlink:href="#DejaVuSans-44" transform="translate(846.785156 0)"/>
     <use xlink:href="#DejaVuSans-47" transform="translate(923.787109 0)"/>
     <use xlink:href="#DejaVuSans-7d" transform="translate(1001.277344 0)"/>
    </g>
   </g>
   <g id="text_4">
    <!-- NonlinearAcoustics{KZK} -->
    <g transform="translate(71.5125 177.197072) scale(0.09 -0.09)">
     <defs>
      <path id="DejaVuSans-4e" d="M 628 4666 
L 1478 4666 
L 3547 763 
L 3547 4666 
L 4159 4666 
L 4159 0 
L 3309 0 
L 1241 3903 
L 1241 0 
L 628 0 
L 628 4666 
z
" transform="scale(0.015625)"/>
      <path id="DejaVuSans-6c" d="M 603 4863 
L 1178 4863 
L 1178 0 
L 603 0 
L 603 4863 
z
" transform="scale(0.015625)"/>
      <path id="DejaVuSans-4b" d="M 628 4666 
L 1259 4666 
L 1259 2694 
L 3353 4666 
L 4166 4666 
L 1850 2491 
L 4331 0 
L 3500 0 
L 1259 2247 
L 1259 0 
L 628 0 
L 628 4666 
z
" transform="scale(0.015625)"/>
      <path id="DejaVuSans-5a" d="M 359 4666 
L 4025 4666 
L 4025 4184 
L 1075 531 
L 4097 531 
L 4097 0 
L 288 0 
L 288 481 
L 3238 4134 
L 359 4134 
L 359 4666 
z
" transform="scale(0.015625)"/>
     </defs>
     <use xlink:href="#DejaVuSans-4e"/>
     <use xlink:href="#DejaVuSans-6f" transform="translate(74.804688 0)"/>
     <use xlink:href="#DejaVuSans-6e" transform="translate(135.986328 0)"/>
     <use xlink:href="#DejaVuSans-6c" transform="translate(199.365234 0)"/>
     <use xlink:href="#DejaVuSans-69" transform="translate(227.148438 0)"/>
     <use xlink:href="#DejaVuSans-6e" transform="translate(254.931641 0)"/>
     <use xlink:href="#DejaVuSans-65" transform="translate(318.310547 0)"/>
     <use xlink:href="#DejaVuSans-61" transform="translate(379.833984 0)"/>
     <use xlink:href="#DejaVuSans-72" transform="translate(441.113281 0)"/>
     <use xlink:href="#DejaVuSans-41" transform="translate(482.226562 0)"/>
     <use xlink:href="#DejaVuSans-63" transform="translate(548.884766 0)"/>
     <use xlink:href="#DejaVuSans-6f" transform="translate(603.865234 0)"/>
     <use xlink:href="#DejaVuSans-75" transform="translate(665.046875 0)"/>
     <use xlink:href="#DejaVuSans-73" transform="translate(728.425781 0)"/>
     <use xlink:href="#DejaVuSans-74" transform="translate(780.525391 0)"/>
     <use xlink:href="#DejaVuSans-69" transform="translate(819.734375 0)"/>
     <use xlink:href="#DejaVuSans-63" transform="translate(847.517578 0)"/>
     <use xlink:href="#DejaVuSans-73" transform="translate(902.498047 0)"/>
     <use xlink:href="#DejaVuSans-7b" transform="translate(954.597656 0)"/>
     <use xlink:href="#DejaVuSans-4b" transform="translate(1018.220703 0)"/>
     <use xlink:href="#DejaVuSans-5a" transform="translate(1083.796875 0)"/>
     <use xlink:href="#DejaVuSans-4b" transform="translate(1152.302734 0)"/>
     <use xlink:href="#DejaVuSans-7d" transform="translate(1217.878906 0)"/>
    </g>
   </g>
   <g id="text_5">
    <!-- NonlinearAcoustics{Westervelt} -->
    <g transform="translate(56.369297 214.562193) scale(0.09 -0.09)">
     <defs>
      <path id="DejaVuSans-57" d="M 213 4666 
L 850 4666 
L 1831 722 
L 2809 4666 
L 3519 4666 
L 4500 722 
L 5478 4666 
L 6119 4666 
L 4947 0 
L 4153 0 
L 3169 4050 
L 2175 0 
L 1381 0 
L 213 4666 
z
" transform="scale(0.015625)"/>
      <path id="DejaVuSans-76" d="M 191 3500 
L 800 3500 
L 1894 563 
L 2988 3500 
L 3597 3500 
L 2284 0 
L 1503 0 
L 191 3500 
z
" transform="scale(0.015625)"/>
     </defs>
     <use xlink:href="#DejaVuSans-4e"/>
     <use xlink:href="#DejaVuSans-6f" transform="translate(74.804688 0)"/>
     <use xlink:href="#DejaVuSans-6e" transform="translate(135.986328 0)"/>
     <use xlink:href="#DejaVuSans-6c" transform="translate(199.365234 0)"/>
     <use xlink:href="#DejaVuSans-69" transform="translate(227.148438 0)"/>
     <use xlink:href="#DejaVuSans-6e" transform="translate(254.931641 0)"/>
     <use xlink:href="#DejaVuSans-65" transform="translate(318.310547 0)"/>
     <use xlink:href="#DejaVuSans-61" transform="translate(379.833984 0)"/>
     <use xlink:href="#DejaVuSans-72" transform="translate(441.113281 0)"/>
     <use xlink:href="#DejaVuSans-41" transform="translate(482.226562 0)"/>
     <use xlink:href="#DejaVuSans-63" transform="translate(548.884766 0)"/>
     <use xlink:href="#DejaVuSans-6f" transform="translate(603.865234 0)"/>
     <use xlink:href="#DejaVuSans-75" transform="translate(665.046875 0)"/>
     <use xlink:href="#DejaVuSans-73" transform="translate(728.425781 0)"/>
     <use xlink:href="#DejaVuSans-74" transform="translate(780.525391 0)"/>
     <use xlink:href="#DejaVuSans-69" transform="translate(819.734375 0)"/>
     <use xlink:href="#DejaVuSans-63" transform="translate(847.517578 0)"/>
     <use xlink:href="#DejaVuSans-73" transform="translate(902.498047 0)"/>
     <use xlink:href="#DejaVuSans-7b" transform="translate(954.597656 0)"/>
     <use xlink:href="#DejaVuSans-57" transform="translate(1018.220703 0)"/>
     <use xlink:href="#DejaVuSans-65" transform="translate(1111.222656 0)"/>
     <use xlink:href="#DejaVuSans-73" transform="translate(1172.746094 0)"/>
     <use xlink:href="#DejaVuSans-74" transform="translate(1224.845703 0)"/>
     <use xlink:href="#DejaVuSans-65" transform="translate(1264.054688 0)"/>
     <use xlink:href="#DejaVuSans-72" transform="translate(1325.578125 0)"/>
     <use xlink:href="#DejaVuSans-76" transform="translate(1366.691406 0)"/>
     <use xlink:href="#DejaVuSans-65" transform="translate(1425.871094 0)"/>
     <use xlink:href="#DejaVuSans-6c" transform="translate(1487.394531 0)"/>
     <use xlink:href="#DejaVuSans-74" transform="translate(1515.177734 0)"/>
     <use xlink:href="#DejaVuSans-7d" transform="translate(1554.386719 0)"/>
    </g>
   </g>
   <g id="text_6">
    <!-- ThermalDiffusion -->
    <g transform="translate(90.713437 251.927313) scale(0.09 -0.09)">
     <defs>
      <path id="DejaVuSans-68" d="M 3513 2113 
L 3513 0 
L 2938 0 
L 2938 2094 
Q 2938 2591 2744 2837 
Q 2550 3084 2163 3084 
Q 1697 3084 1428 2787 
Q 1159 2491 1159 1978 
L 1159 0 
L 581 0 
L 581 4863 
L 1159 4863 
L 1159 2956 
Q 1366 3272 1645 3428 
Q 1925 3584 2291 3584 
Q 2894 3584 3203 3211 
Q 3513 2838 3513 2113 
z
" transform="scale(0.015625)"/>
      <path id="DejaVuSans-6d" d="M 3328 2828 
Q 3544 3216 3844 3400 
Q 4144 3584 4550 3584 
Q 5097 3584 5394 3201 
Q 5691 2819 5691 2113 
L 5691 0 
L 5113 0 
L 5113 2094 
Q 5113 2597 4934 2840 
Q 4756 3084 4391 3084 
Q 3944 3084 3684 2787 
Q 3425 2491 3425 1978 
L 3425 0 
L 2847 0 
L 2847 2094 
Q 2847 2600 2669 2842 
Q 2491 3084 2119 3084 
Q 1678 3084 1418 2786 
Q 1159 2488 1159 1978 
L 1159 0 
L 581 0 
L 581 3500 
L 1159 3500 
L 1159 2956 
Q 1356 3278 1631 3431 
Q 1906 3584 2284 3584 
Q 2666 3584 2933 3390 
Q 3200 3197 3328 2828 
z
" transform="scale(0.015625)"/>
      <path id="DejaVuSans-66" d="M 2375 4863 
L 2375 4384 
L 1825 4384 
Q 1516 4384 1395 4259 
Q 1275 4134 1275 3809 
L 1275 3500 
L 2222 3500 
L 2222 3053 
L 1275 3053 
L 1275 0 
L 697 0 
L 697 3053 
L 147 3053 
L 147 3500 
L 697 3500 
L 697 3744 
Q 697 4328 969 4595 
Q 1241 4863 1831 4863 
L 2375 4863 
z
" transform="scale(0.015625)"/>
     </defs>
     <use xlink:href="#DejaVuSans-54"/>
     <use xlink:href="#DejaVuSans-68" transform="translate(61.083984 0)"/>
     <use xlink:href="#DejaVuSans-65" transform="translate(124.462891 0)"/>
     <use xlink:href="#DejaVuSans-72" transform="translate(185.986328 0)"/>
     <use xlink:href="#DejaVuSans-6d" transform="translate(225.349609 0)"/>
     <use xlink:href="#DejaVuSans-61" transform="translate(322.761719 0)"/>
     <use xlink:href="#DejaVuSans-6c" transform="translate(384.041016 0)"/>
     <use xlink:href="#DejaVuSans-44" transform="translate(411.824219 0)"/>
     <use xlink:href="#DejaVuSans-69" transform="translate(488.826172 0)"/>
     <use xlink:href="#DejaVuSans-66" transform="translate(516.609375 0)"/>
     <use xlink:href="#DejaVuSans-66" transform="translate(551.814453 0)"/>
     <use xlink:href="#DejaVuSans-75" transform="translate(587.019531 0)"/>
     <use xlink:href="#DejaVuSans-73" transform="translate(650.398438 0)"/>
     <use xlink:href="#DejaVuSans-69" transform="translate(702.498047 0)"/>
     <use xlink:href="#DejaVuSans-6f" transform="translate(730.28125 0)"/>
     <use xlink:href="#DejaVuSans-6e" transform="translate(791.462891 0)"/>
    </g>
   </g>
   <g id="text_7">
    <!-- MechanicalStress -->
    <g transform="translate(90.033516 289.292433) scale(0.09 -0.09)">
     <defs>
      <path id="DejaVuSans-4d" d="M 628 4666 
L 1569 4666 
L 2759 1491 
L 3956 4666 
L 4897 4666 
L 4897 0 
L 4281 0 
L 4281 4097 
L 3078 897 
L 2444 897 
L 1241 4097 
L 1241 0 
L 628 0 
L 628 4666 
z
" transform="scale(0.015625)"/>
     </defs>
     <use xlink:href="#DejaVuSans-4d"/>
     <use xlink:href="#DejaVuSans-65" transform="translate(86.279297 0)"/>
     <use xlink:href="#DejaVuSans-63" transform="translate(147.802734 0)"/>
     <use xlink:href="#DejaVuSans-68" transform="translate(202.783203 0)"/>
     <use xlink:href="#DejaVuSans-61" transform="translate(266.162109 0)"/>
     <use xlink:href="#DejaVuSans-6e" transform="translate(327.441406 0)"/>
     <use xlink:href="#DejaVuSans-69" transform="translate(390.820312 0)"/>
     <use xlink:href="#DejaVuSans-63" transform="translate(418.603516 0)"/>
     <use xlink:href="#DejaVuSans-61" transform="translate(473.583984 0)"/>
     <use xlink:href="#DejaVuSans-6c" transform="translate(534.863281 0)"/>
     <use xlink:href="#DejaVuSans-53" transform="translate(562.646484 0)"/>
     <use xlink:href="#DejaVuSans-74" transform="translate(626.123047 0)"/>
     <use xlink:href="#DejaVuSans-72" transform="translate(665.332031 0)"/>
     <use xlink:href="#DejaVuSans-65" transform="translate(704.195312 0)"/>
     <use xlink:href="#DejaVuSans-73" transform="translate(765.71875 0)"/>
     <use xlink:href="#DejaVuSans-73" transform="translate(817.818359 0)"/>
    </g>
   </g>
   <g id="text_8">
    <!-- BubbleDynamics -->
    <g transform="translate(91.318125 326.657553) scale(0.09 -0.09)">
     <defs>
      <path id="DejaVuSans-42" d="M 1259 2228 
L 1259 519 
L 2272 519 
Q 2781 519 3026 730 
Q 3272 941 3272 1375 
Q 3272 1813 3026 2020 
Q 2781 2228 2272 2228 
L 1259 2228 
z
M 1259 4147 
L 1259 2741 
L 2194 2741 
Q 2656 2741 2882 2914 
Q 3109 3088 3109 3444 
Q 3109 3797 2882 3972 
Q 2656 4147 2194 4147 
L 1259 4147 
z
M 628 4666 
L 2241 4666 
Q 2963 4666 3353 4366 
Q 3744 4066 3744 3513 
Q 3744 3084 3544 2831 
Q 3344 2578 2956 2516 
Q 3422 2416 3680 2098 
Q 3938 1781 3938 1306 
Q 3938 681 3513 340 
Q 3088 0 2303 0 
L 628 0 
L 628 4666 
z
" transform="scale(0.015625)"/>
      <path id="DejaVuSans-62" d="M 3116 1747 
Q 3116 2381 2855 2742 
Q 2594 3103 2138 3103 
Q 1681 3103 1420 2742 
Q 1159 2381 1159 1747 
Q 1159 1113 1420 752 
Q 1681 391 2138 391 
Q 2594 391 2855 752 
Q 3116 1113 3116 1747 
z
M 1159 2969 
Q 1341 3281 1617 3432 
Q 1894 3584 2278 3584 
Q 2916 3584 3314 3078 
Q 3713 2572 3713 1747 
Q 3713 922 3314 415 
Q 2916 -91 2278 -91 
Q 1894 -91 1617 61 
Q 1341 213 1159 525 
L 1159 0 
L 581 0 
L 581 4863 
L 1159 4863 
L 1159 2969 
z
" transform="scale(0.015625)"/>
      <path id="DejaVuSans-79" d="M 2059 -325 
Q 1816 -950 1584 -1140 
Q 1353 -1331 966 -1331 
L 506 -1331 
L 506 -850 
L 844 -850 
Q 1081 -850 1212 -737 
Q 1344 -625 1503 -206 
L 1606 56 
L 191 3500 
L 800 3500 
L 1894 763 
L 2988 3500 
L 3597 3500 
L 2059 -325 
z
" transform="scale(0.015625)"/>
     </defs>
     <use xlink:href="#DejaVuSans-42"/>
     <use xlink:href="#DejaVuSans-75" transform="translate(68.603516 0)"/>
     <use xlink:href="#DejaVuSans-62" transform="translate(131.982422 0)"/>
     <use xlink:href="#DejaVuSans-62" transform="translate(195.458984 0)"/>
     <use xlink:href="#DejaVuSans-6c" transform="translate(258.935547 0)"/>
     <use xlink:href="#DejaVuSans-65" transform="translate(286.71875 0)"/>
     <use xlink:href="#DejaVuSans-44" transform="translate(348.242188 0)"/>
     <use xlink:href="#DejaVuSans-79" transform="translate(425.244141 0)"/>
     <use xlink:href="#DejaVuSans-6e" transform="translate(484.423828 0)"/>
     <use xlink:href="#DejaVuSans-61" transform="translate(547.802734 0)"/>
     <use xlink:href="#DejaVuSans-6d" transform="translate(609.082031 0)"/>
     <use xlink:href="#DejaVuSans-69" transform="translate(706.494141 0)"/>
     <use xlink:href="#DejaVuSans-63" transform="translate(734.277344 0)"/>
     <use xlink:href="#DejaVuSans-73" transform="translate(789.257812 0)"/>
    </g>
   </g>
   <g id="text_9">
    <!-- OpticalPropagation -->
    <g transform="translate(86.299219 364.022672) scale(0.09 -0.09)">
     <defs>
      <path id="DejaVuSans-4f" d="M 2522 4238 
Q 1834 4238 1429 3725 
Q 1025 3213 1025 2328 
Q 1025 1447 1429 934 
Q 1834 422 2522 422 
Q 3209 422 3611 934 
Q 4013 1447 4013 2328 
Q 4013 3213 3611 3725 
Q 3209 4238 2522 4238 
z
M 2522 4750 
Q 3503 4750 4090 4092 
Q 4678 3434 4678 2328 
Q 4678 1225 4090 567 
Q 3503 -91 2522 -91 
Q 1538 -91 948 565 
Q 359 1222 359 2328 
Q 359 3434 948 4092 
Q 1538 4750 2522 4750 
z
" transform="scale(0.015625)"/>
      <path id="DejaVuSans-70" d="M 1159 525 
L 1159 -1331 
L 581 -1331 
L 581 3500 
L 1159 3500 
L 1159 2969 
Q 1341 3281 1617 3432 
Q 1894 3584 2278 3584 
Q 2916 3584 3314 3078 
Q 3713 2572 3713 1747 
Q 3713 922 3314 415 
Q 2916 -91 2278 -91 
Q 1894 -91 1617 61 
Q 1341 213 1159 525 
z
M 3116 1747 
Q 3116 2381 2855 2742 
Q 2594 3103 2138 3103 
Q 1681 3103 1420 2742 
Q 1159 2381 1159 1747 
Q 1159 1113 1420 752 
Q 1681 391 2138 391 
Q 2594 391 2855 752 
Q 3116 1113 3116 1747 
z
" transform="scale(0.015625)"/>
      <path id="DejaVuSans-67" d="M 2906 1791 
Q 2906 2416 2648 2759 
Q 2391 3103 1925 3103 
Q 1463 3103 1205 2759 
Q 947 2416 947 1791 
Q 947 1169 1205 825 
Q 1463 481 1925 481 
Q 2391 481 2648 825 
Q 2906 1169 2906 1791 
z
M 3481 434 
Q 3481 -459 3084 -895 
Q 2688 -1331 1869 -1331 
Q 1566 -1331 1297 -1286 
Q 1028 -1241 775 -1147 
L 775 -588 
Q 1028 -725 1275 -790 
Q 1522 -856 1778 -856 
Q 2344 -856 2625 -561 
Q 2906 -266 2906 331 
L 2906 616 
Q 2728 306 2450 153 
Q 2172 0 1784 0 
Q 1141 0 747 490 
Q 353 981 353 1791 
Q 353 2603 747 3093 
Q 1141 3584 1784 3584 
Q 2172 3584 2450 3431 
Q 2728 3278 2906 2969 
L 2906 3500 
L 3481 3500 
L 3481 434 
z
" transform="scale(0.015625)"/>
     </defs>
     <use xlink:href="#DejaVuSans-4f"/>
     <use xlink:href="#DejaVuSans-70" transform="translate(78.710938 0)"/>
     <use xlink:href="#DejaVuSans-74" transform="translate(142.1875 0)"/>
     <use xlink:href="#DejaVuSans-69" transform="translate(181.396484 0)"/>
     <use xlink:href="#DejaVuSans-63" transform="translate(209.179688 0)"/>
     <use xlink:href="#DejaVuSans-61" transform="translate(264.160156 0)"/>
     <use xlink:href="#DejaVuSans-6c" transform="translate(325.439453 0)"/>
     <use xlink:href="#DejaVuSans-50" transform="translate(353.222656 0)"/>
     <use xlink:href="#DejaVuSans-72" transform="translate(411.775391 0)"/>
     <use xlink:href="#DejaVuSans-6f" transform="translate(450.638672 0)"/>
     <use xlink:href="#DejaVuSans-70" transform="translate(511.820312 0)"/>
     <use xlink:href="#DejaVuSans-61" transform="translate(575.296875 0)"/>
     <use xlink:href="#DejaVuSans-67" transform="translate(636.576172 0)"/>
     <use xlink:href="#DejaVuSans-61" transform="translate(700.052734 0)"/>
     <use xlink:href="#DejaVuSans-74" transform="translate(761.332031 0)"/>
     <use xlink:href="#DejaVuSans-69" transform="translate(800.541016 0)"/>
     <use xlink:href="#DejaVuSans-6f" transform="translate(828.324219 0)"/>
     <use xlink:href="#DejaVuSans-6e" transform="translate(889.505859 0)"/>
    </g>
   </g>
   <g id="text_10">
    <!-- PhysicsConfig.models -->
    <g transform="translate(61.585 39.263419) scale(0.11 -0.11)">
     <defs>
      <path id="DejaVuSans-Bold-50" d="M 588 4666 
L 2584 4666 
Q 3475 4666 3951 4270 
Q 4428 3875 4428 3144 
Q 4428 2409 3951 2014 
Q 3475 1619 2584 1619 
L 1791 1619 
L 1791 0 
L 588 0 
L 588 4666 
z
M 1791 3794 
L 1791 2491 
L 2456 2491 
Q 2806 2491 2997 2661 
Q 3188 2831 3188 3144 
Q 3188 3456 2997 3625 
Q 2806 3794 2456 3794 
L 1791 3794 
z
" transform="scale(0.015625)"/>
      <path id="DejaVuSans-Bold-68" d="M 4056 2131 
L 4056 0 
L 2931 0 
L 2931 347 
L 2931 1625 
Q 2931 2084 2911 2256 
Q 2891 2428 2841 2509 
Q 2775 2619 2662 2680 
Q 2550 2741 2406 2741 
Q 2056 2741 1856 2470 
Q 1656 2200 1656 1722 
L 1656 0 
L 538 0 
L 538 4863 
L 1656 4863 
L 1656 2988 
Q 1909 3294 2193 3439 
Q 2478 3584 2822 3584 
Q 3428 3584 3742 3212 
Q 4056 2841 4056 2131 
z
" transform="scale(0.015625)"/>
      <path id="DejaVuSans-Bold-79" d="M 78 3500 
L 1197 3500 
L 2138 1125 
L 2938 3500 
L 4056 3500 
L 2584 -331 
Q 2363 -916 2067 -1148 
Q 1772 -1381 1288 -1381 
L 641 -1381 
L 641 -647 
L 991 -647 
Q 1275 -647 1404 -556 
Q 1534 -466 1606 -231 
L 1638 -134 
L 78 3500 
z
" transform="scale(0.015625)"/>
      <path id="DejaVuSans-Bold-73" d="M 3272 3391 
L 3272 2541 
Q 2913 2691 2578 2766 
Q 2244 2841 1947 2841 
Q 1628 2841 1473 2761 
Q 1319 2681 1319 2516 
Q 1319 2381 1436 2309 
Q 1553 2238 1856 2203 
L 2053 2175 
Q 2913 2066 3209 1816 
Q 3506 1566 3506 1031 
Q 3506 472 3093 190 
Q 2681 -91 1863 -91 
Q 1516 -91 1145 -36 
Q 775 19 384 128 
L 384 978 
Q 719 816 1070 734 
Q 1422 653 1784 653 
Q 2113 653 2278 743 
Q 2444 834 2444 1013 
Q 2444 1163 2330 1236 
Q 2216 1309 1875 1350 
L 1678 1375 
Q 931 1469 631 1722 
Q 331 1975 331 2491 
Q 331 3047 712 3315 
Q 1094 3584 1881 3584 
Q 2191 3584 2531 3537 
Q 2872 3491 3272 3391 
z
" transform="scale(0.015625)"/>
      <path id="DejaVuSans-Bold-69" d="M 538 3500 
L 1656 3500 
L 1656 0 
L 538 0 
L 538 3500 
z
M 538 4863 
L 1656 4863 
L 1656 3950 
L 538 3950 
L 538 4863 
z
" transform="scale(0.015625)"/>
      <path id="DejaVuSans-Bold-63" d="M 3366 3391 
L 3366 2478 
Q 3138 2634 2908 2709 
Q 2678 2784 2431 2784 
Q 1963 2784 1702 2511 
Q 1441 2238 1441 1747 
Q 1441 1256 1702 982 
Q 1963 709 2431 709 
Q 2694 709 2930 787 
Q 3166 866 3366 1019 
L 3366 103 
Q 3103 6 2833 -42 
Q 2563 -91 2291 -91 
Q 1344 -91 809 395 
Q 275 881 275 1747 
Q 275 2613 809 3098 
Q 1344 3584 2291 3584 
Q 2566 3584 2833 3536 
Q 3100 3488 3366 3391 
z
" transform="scale(0.015625)"/>
      <path id="DejaVuSans-Bold-43" d="M 4288 256 
Q 3956 84 3597 -3 
Q 3238 -91 2847 -91 
Q 1681 -91 1000 561 
Q 319 1213 319 2328 
Q 319 3447 1000 4098 
Q 1681 4750 2847 4750 
Q 3238 4750 3597 4662 
Q 3956 4575 4288 4403 
L 4288 3438 
Q 3953 3666 3628 3772 
Q 3303 3878 2944 3878 
Q 2300 3878 1931 3465 
Q 1563 3053 1563 2328 
Q 1563 1606 1931 1193 
Q 2300 781 2944 781 
Q 3303 781 3628 887 
Q 3953 994 4288 1222 
L 4288 256 
z
" transform="scale(0.015625)"/>
      <path id="DejaVuSans-Bold-6f" d="M 2203 2784 
Q 1831 2784 1636 2517 
Q 1441 2250 1441 1747 
Q 1441 1244 1636 976 
Q 1831 709 2203 709 
Q 2569 709 2762 976 
Q 2956 1244 2956 1747 
Q 2956 2250 2762 2517 
Q 2569 2784 2203 2784 
z
M 2203 3584 
Q 3106 3584 3614 3096 
Q 4122 2609 4122 1747 
Q 4122 884 3614 396 
Q 3106 -91 2203 -91 
Q 1297 -91 786 396 
Q 275 884 275 1747 
Q 275 2609 786 3096 
Q 1297 3584 2203 3584 
z
" transform="scale(0.015625)"/>
      <path id="DejaVuSans-Bold-6e" d="M 4056 2131 
L 4056 0 
L 2931 0 
L 2931 347 
L 2931 1631 
Q 2931 2084 2911 2256 
Q 2891 2428 2841 2509 
Q 2775 2619 2662 2680 
Q 2550 2741 2406 2741 
Q 2056 2741 1856 2470 
Q 1656 2200 1656 1722 
L 1656 0 
L 538 0 
L 538 3500 
L 1656 3500 
L 1656 2988 
Q 1909 3294 2193 3439 
Q 2478 3584 2822 3584 
Q 3428 3584 3742 3212 
Q 4056 2841 4056 2131 
z
" transform="scale(0.015625)"/>
      <path id="DejaVuSans-Bold-66" d="M 2841 4863 
L 2841 4128 
L 2222 4128 
Q 1984 4128 1890 4042 
Q 1797 3956 1797 3744 
L 1797 3500 
L 2753 3500 
L 2753 2700 
L 1797 2700 
L 1797 0 
L 678 0 
L 678 2700 
L 122 2700 
L 122 3500 
L 678 3500 
L 678 3744 
Q 678 4316 997 4589 
Q 1316 4863 1984 4863 
L 2841 4863 
z
" transform="scale(0.015625)"/>
      <path id="DejaVuSans-Bold-67" d="M 2919 594 
Q 2688 288 2409 144 
Q 2131 0 1766 0 
Q 1125 0 706 504 
Q 288 1009 288 1791 
Q 288 2575 706 3076 
Q 1125 3578 1766 3578 
Q 2131 3578 2409 3434 
Q 2688 3291 2919 2981 
L 2919 3500 
L 4044 3500 
L 4044 353 
Q 4044 -491 3511 -936 
Q 2978 -1381 1966 -1381 
Q 1638 -1381 1331 -1331 
Q 1025 -1281 716 -1178 
L 716 -306 
Q 1009 -475 1290 -558 
Q 1572 -641 1856 -641 
Q 2406 -641 2662 -400 
Q 2919 -159 2919 353 
L 2919 594 
z
M 2181 2772 
Q 1834 2772 1640 2515 
Q 1447 2259 1447 1791 
Q 1447 1309 1634 1061 
Q 1822 813 2181 813 
Q 2531 813 2725 1069 
Q 2919 1325 2919 1791 
Q 2919 2259 2725 2515 
Q 2531 2772 2181 2772 
z
" transform="scale(0.015625)"/>
      <path id="DejaVuSans-Bold-2e" d="M 653 1209 
L 1778 1209 
L 1778 0 
L 653 0 
L 653 1209 
z
" transform="scale(0.015625)"/>
      <path id="DejaVuSans-Bold-6d" d="M 3781 2919 
Q 3994 3244 4286 3414 
Q 4578 3584 4928 3584 
Q 5531 3584 5847 3212 
Q 6163 2841 6163 2131 
L 6163 0 
L 5038 0 
L 5038 1825 
Q 5041 1866 5042 1909 
Q 5044 1953 5044 2034 
Q 5044 2406 4934 2573 
Q 4825 2741 4581 2741 
Q 4263 2741 4089 2478 
Q 3916 2216 3909 1719 
L 3909 0 
L 2784 0 
L 2784 1825 
Q 2784 2406 2684 2573 
Q 2584 2741 2328 2741 
Q 2006 2741 1831 2477 
Q 1656 2213 1656 1722 
L 1656 0 
L 531 0 
L 531 3500 
L 1656 3500 
L 1656 2988 
Q 1863 3284 2130 3434 
Q 2397 3584 2719 3584 
Q 3081 3584 3359 3409 
Q 3638 3234 3781 2919 
z
" transform="scale(0.015625)"/>
      <path id="DejaVuSans-Bold-64" d="M 2919 2988 
L 2919 4863 
L 4044 4863 
L 4044 0 
L 2919 0 
L 2919 506 
Q 2688 197 2409 53 
Q 2131 -91 1766 -91 
Q 1119 -91 703 423 
Q 288 938 288 1747 
Q 288 2556 703 3070 
Q 1119 3584 1766 3584 
Q 2128 3584 2408 3439 
Q 2688 3294 2919 2988 
z
M 2181 722 
Q 2541 722 2730 984 
Q 2919 1247 2919 1747 
Q 2919 2247 2730 2509 
Q 2541 2772 2181 2772 
Q 1825 2772 1636 2509 
Q 1447 2247 1447 1747 
Q 1447 1247 1636 984 
Q 1825 722 2181 722 
z
" transform="scale(0.015625)"/>
      <path id="DejaVuSans-Bold-65" d="M 4031 1759 
L 4031 1441 
L 1416 1441 
Q 1456 1047 1700 850 
Q 1944 653 2381 653 
Q 2734 653 3104 758 
Q 3475 863 3866 1075 
L 3866 213 
Q 3469 63 3072 -14 
Q 2675 -91 2278 -91 
Q 1328 -91 801 392 
Q 275 875 275 1747 
Q 275 2603 792 3093 
Q 1309 3584 2216 3584 
Q 3041 3584 3536 3087 
Q 4031 2591 4031 1759 
z
M 2881 2131 
Q 2881 2450 2695 2645 
Q 2509 2841 2209 2841 
Q 1884 2841 1681 2658 
Q 1478 2475 1428 2131 
L 2881 2131 
z
" transform="scale(0.015625)"/>
      <path id="DejaVuSans-Bold-6c" d="M 538 4863 
L 1656 4863 
L 1656 0 
L 538 0 
L 538 4863 
z
" transform="scale(0.015625)"/>
     </defs>
     <use xlink:href="#DejaVuSans-Bold-50"/>
     <use xlink:href="#DejaVuSans-Bold-68" transform="translate(73.291016 0)"/>
     <use xlink:href="#DejaVuSans-Bold-79" transform="translate(144.482422 0)"/>
     <use xlink:href="#DejaVuSans-Bold-73" transform="translate(209.667969 0)"/>
     <use xlink:href="#DejaVuSans-Bold-69" transform="translate(269.189453 0)"/>
     <use xlink:href="#DejaVuSans-Bold-63" transform="translate(303.466797 0)"/>
     <use xlink:href="#DejaVuSans-Bold-73" transform="translate(362.744141 0)"/>
     <use xlink:href="#DejaVuSans-Bold-43" transform="translate(422.265625 0)"/>
     <use xlink:href="#DejaVuSans-Bold-6f" transform="translate(495.654297 0)"/>
     <use xlink:href="#DejaVuSans-Bold-6e" transform="translate(564.355469 0)"/>
     <use xlink:href="#DejaVuSans-Bold-66" transform="translate(635.546875 0)"/>
     <use xlink:href="#DejaVuSans-Bold-69" transform="translate(679.052734 0)"/>
     <use xlink:href="#DejaVuSans-Bold-67" transform="translate(713.330078 0)"/>
     <use xlink:href="#DejaVuSans-Bold-2e" transform="translate(784.912109 0)"/>
     <use xlink:href="#DejaVuSans-Bold-6d" transform="translate(822.900391 0)"/>
     <use xlink:href="#DejaVuSans-Bold-6f" transform="translate(927.099609 0)"/>
     <use xlink:href="#DejaVuSans-Bold-64" transform="translate(995.800781 0)"/>
     <use xlink:href="#DejaVuSans-Bold-65" transform="translate(1067.382812 0)"/>
     <use xlink:href="#DejaVuSans-Bold-6c" transform="translate(1135.205078 0)"/>
     <use xlink:href="#DejaVuSans-Bold-73" transform="translate(1169.482422 0)"/>
    </g>
   </g>
   <g id="text_11">
    <!-- PhysicsCatalog -->
    <g transform="translate(334.800937 176.06185) scale(0.12 -0.12)">
     <defs>
      <path id="DejaVuSans-Bold-61" d="M 2106 1575 
Q 1756 1575 1579 1456 
Q 1403 1338 1403 1106 
Q 1403 894 1545 773 
Q 1688 653 1941 653 
Q 2256 653 2472 879 
Q 2688 1106 2688 1447 
L 2688 1575 
L 2106 1575 
z
M 3816 1997 
L 3816 0 
L 2688 0 
L 2688 519 
Q 2463 200 2181 54 
Q 1900 -91 1497 -91 
Q 953 -91 614 226 
Q 275 544 275 1050 
Q 275 1666 698 1953 
Q 1122 2241 2028 2241 
L 2688 2241 
L 2688 2328 
Q 2688 2594 2478 2717 
Q 2269 2841 1825 2841 
Q 1466 2841 1156 2769 
Q 847 2697 581 2553 
L 581 3406 
Q 941 3494 1303 3539 
Q 1666 3584 2028 3584 
Q 2975 3584 3395 3211 
Q 3816 2838 3816 1997 
z
" transform="scale(0.015625)"/>
      <path id="DejaVuSans-Bold-74" d="M 1759 4494 
L 1759 3500 
L 2913 3500 
L 2913 2700 
L 1759 2700 
L 1759 1216 
Q 1759 972 1856 886 
Q 1953 800 2241 800 
L 2816 800 
L 2816 0 
L 1856 0 
Q 1194 0 917 276 
Q 641 553 641 1216 
L 641 2700 
L 84 2700 
L 84 3500 
L 641 3500 
L 641 4494 
L 1759 4494 
z
" transform="scale(0.015625)"/>
     </defs>
     <use xlink:href="#DejaVuSans-Bold-50"/>
     <use xlink:href="#DejaVuSans-Bold-68" transform="translate(73.291016 0)"/>
     <use xlink:href="#DejaVuSans-Bold-79" transform="translate(144.482422 0)"/>
     <use xlink:href="#DejaVuSans-Bold-73" transform="translate(209.667969 0)"/>
     <use xlink:href="#DejaVuSans-Bold-69" transform="translate(269.189453 0)"/>
     <use xlink:href="#DejaVuSans-Bold-63" transform="translate(303.466797 0)"/>
     <use xlink:href="#DejaVuSans-Bold-73" transform="translate(362.744141 0)"/>
     <use xlink:href="#DejaVuSans-Bold-43" transform="translate(422.265625 0)"/>
     <use xlink:href="#DejaVuSans-Bold-61" transform="translate(495.654297 0)"/>
     <use xlink:href="#DejaVuSans-Bold-74" transform="translate(563.134766 0)"/>
     <use xlink:href="#DejaVuSans-Bold-61" transform="translate(610.9375 0)"/>
     <use xlink:href="#DejaVuSans-Bold-6c" transform="translate(678.417969 0)"/>
     <use xlink:href="#DejaVuSans-Bold-6f" transform="translate(712.695312 0)"/>
     <use xlink:href="#DejaVuSans-Bold-67" transform="translate(781.396484 0)"/>
    </g>
   </g>
   <g id="text_12">
    <!-- match kind { -->
    <g transform="translate(353.470312 199.256819) scale(0.09 -0.09)">
     <defs>
      <path id="DejaVuSansMono-6d" d="M 2113 3144 
Q 2219 3369 2383 3476 
Q 2547 3584 2778 3584 
Q 3200 3584 3373 3257 
Q 3547 2931 3547 2028 
L 3547 0 
L 3022 0 
L 3022 2003 
Q 3022 2744 2939 2923 
Q 2856 3103 2638 3103 
Q 2388 3103 2295 2911 
Q 2203 2719 2203 2003 
L 2203 0 
L 1678 0 
L 1678 2003 
Q 1678 2753 1589 2928 
Q 1500 3103 1269 3103 
Q 1041 3103 952 2911 
Q 863 2719 863 2003 
L 863 0 
L 341 0 
L 341 3500 
L 863 3500 
L 863 3200 
Q 966 3388 1120 3486 
Q 1275 3584 1472 3584 
Q 1709 3584 1867 3475 
Q 2025 3366 2113 3144 
z
" transform="scale(0.015625)"/>
      <path id="DejaVuSansMono-61" d="M 2194 1759 
L 2003 1759 
Q 1500 1759 1245 1582 
Q 991 1406 991 1056 
Q 991 741 1181 566 
Q 1372 391 1709 391 
Q 2184 391 2456 720 
Q 2728 1050 2731 1631 
L 2731 1759 
L 2194 1759 
z
M 3309 1997 
L 3309 0 
L 2731 0 
L 2731 519 
Q 2547 206 2267 57 
Q 1988 -91 1588 -91 
Q 1053 -91 734 211 
Q 416 513 416 1019 
Q 416 1603 808 1906 
Q 1200 2209 1959 2209 
L 2731 2209 
L 2731 2300 
Q 2728 2719 2518 2908 
Q 2309 3097 1850 3097 
Q 1556 3097 1256 3012 
Q 956 2928 672 2766 
L 672 3341 
Q 991 3463 1283 3523 
Q 1575 3584 1850 3584 
Q 2284 3584 2592 3456 
Q 2900 3328 3091 3072 
Q 3209 2916 3259 2686 
Q 3309 2456 3309 1997 
z
" transform="scale(0.015625)"/>
      <path id="DejaVuSansMono-74" d="M 1919 4494 
L 1919 3500 
L 3225 3500 
L 3225 3053 
L 1919 3053 
L 1919 1153 
Q 1919 766 2066 612 
Q 2213 459 2578 459 
L 3225 459 
L 3225 0 
L 2522 0 
Q 1875 0 1609 259 
Q 1344 519 1344 1153 
L 1344 3053 
L 409 3053 
L 409 3500 
L 1344 3500 
L 1344 4494 
L 1919 4494 
z
" transform="scale(0.015625)"/>
      <path id="DejaVuSansMono-63" d="M 3316 178 
Q 3084 44 2839 -23 
Q 2594 -91 2338 -91 
Q 1525 -91 1067 396 
Q 609 884 609 1747 
Q 609 2609 1067 3096 
Q 1525 3584 2338 3584 
Q 2591 3584 2831 3518 
Q 3072 3453 3316 3316 
L 3316 2713 
Q 3088 2916 2858 3006 
Q 2628 3097 2338 3097 
Q 1797 3097 1506 2747 
Q 1216 2397 1216 1747 
Q 1216 1100 1508 748 
Q 1800 397 2338 397 
Q 2638 397 2875 489 
Q 3113 581 3316 775 
L 3316 178 
z
" transform="scale(0.015625)"/>
      <path id="DejaVuSansMono-68" d="M 3284 2169 
L 3284 0 
L 2706 0 
L 2706 2169 
Q 2706 2641 2540 2862 
Q 2375 3084 2022 3084 
Q 1619 3084 1401 2798 
Q 1184 2513 1184 1978 
L 1184 0 
L 609 0 
L 609 4863 
L 1184 4863 
L 1184 2975 
Q 1338 3275 1600 3429 
Q 1863 3584 2222 3584 
Q 2756 3584 3020 3232 
Q 3284 2881 3284 2169 
z
" transform="scale(0.015625)"/>
      <path id="DejaVuSansMono-20" transform="scale(0.015625)"/>
      <path id="DejaVuSansMono-6b" d="M 738 4863 
L 1331 4863 
L 1331 2047 
L 2841 3500 
L 3541 3500 
L 2163 2181 
L 3756 0 
L 3053 0 
L 1759 1806 
L 1331 1403 
L 1331 0 
L 738 0 
L 738 4863 
z
" transform="scale(0.015625)"/>
      <path id="DejaVuSansMono-69" d="M 800 3500 
L 2272 3500 
L 2272 447 
L 3413 447 
L 3413 0 
L 556 0 
L 556 447 
L 1697 447 
L 1697 3053 
L 800 3053 
L 800 3500 
z
M 1697 4863 
L 2272 4863 
L 2272 4134 
L 1697 4134 
L 1697 4863 
z
" transform="scale(0.015625)"/>
      <path id="DejaVuSansMono-6e" d="M 3284 2169 
L 3284 0 
L 2706 0 
L 2706 2169 
Q 2706 2641 2540 2862 
Q 2375 3084 2022 3084 
Q 1619 3084 1401 2798 
Q 1184 2513 1184 1978 
L 1184 0 
L 609 0 
L 609 3500 
L 1184 3500 
L 1184 2975 
Q 1338 3275 1600 3429 
Q 1863 3584 2222 3584 
Q 2756 3584 3020 3232 
Q 3284 2881 3284 2169 
z
" transform="scale(0.015625)"/>
      <path id="DejaVuSansMono-64" d="M 2681 3053 
L 2681 4863 
L 3256 4863 
L 3256 0 
L 2681 0 
L 2681 441 
Q 2538 181 2298 45 
Q 2059 -91 1747 -91 
Q 1113 -91 748 401 
Q 384 894 384 1759 
Q 384 2613 750 3098 
Q 1116 3584 1747 3584 
Q 2063 3584 2303 3448 
Q 2544 3313 2681 3053 
z
M 991 1747 
Q 991 1078 1203 737 
Q 1416 397 1831 397 
Q 2247 397 2464 740 
Q 2681 1084 2681 1747 
Q 2681 2413 2464 2755 
Q 2247 3097 1831 3097 
Q 1416 3097 1203 2756 
Q 991 2416 991 1747 
z
" transform="scale(0.015625)"/>
      <path id="DejaVuSansMono-7b" d="M 3163 -594 
L 3163 -1044 
L 2963 -1044 
Q 2184 -1044 1920 -812 
Q 1656 -581 1656 109 
L 1656 856 
Q 1656 1328 1489 1509 
Q 1322 1691 884 1691 
L 691 1691 
L 691 2138 
L 884 2138 
Q 1325 2138 1490 2316 
Q 1656 2494 1656 2963 
L 1656 3713 
Q 1656 4403 1920 4633 
Q 2184 4863 2963 4863 
L 3163 4863 
L 3163 4416 
L 2944 4416 
Q 2506 4416 2373 4280 
Q 2241 4144 2241 3700 
L 2241 2925 
Q 2241 2434 2098 2212 
Q 1956 1991 1613 1913 
Q 1959 1828 2100 1606 
Q 2241 1384 2241 897 
L 2241 122 
Q 2241 -325 2373 -459 
Q 2506 -594 2944 -594 
L 3163 -594 
z
" transform="scale(0.015625)"/>
     </defs>
     <use xlink:href="#DejaVuSansMono-6d"/>
     <use xlink:href="#DejaVuSansMono-61" transform="translate(60.205078 0)"/>
     <use xlink:href="#DejaVuSansMono-74" transform="translate(120.410156 0)"/>
     <use xlink:href="#DejaVuSansMono-63" transform="translate(180.615234 0)"/>
     <use xlink:href="#DejaVuSansMono-68" transform="translate(240.820312 0)"/>
     <use xlink:href="#DejaVuSansMono-20" transform="translate(301.025391 0)"/>
     <use xlink:href="#DejaVuSansMono-6b" transform="translate(361.230469 0)"/>
     <use xlink:href="#DejaVuSansMono-69" transform="translate(421.435547 0)"/>
     <use xlink:href="#DejaVuSansMono-6e" transform="translate(481.640625 0)"/>
     <use xlink:href="#DejaVuSansMono-64" transform="translate(541.845703 0)"/>
     <use xlink:href="#DejaVuSansMono-20" transform="translate(602.050781 0)"/>
     <use xlink:href="#DejaVuSansMono-7b" transform="translate(662.255859 0)"/>
    </g>
   </g>
   <g id="text_13">
    <!--   …concrete plugin… -->
    <g transform="translate(334.506328 218.387481) scale(0.09 -0.09)">
     <defs>
      <path id="DejaVuSansMono-2026" d="M 250 953 
L 1038 953 
L 1038 0 
L 250 0 
L 250 953 
z
M 2809 953 
L 3597 953 
L 3597 0 
L 2809 0 
L 2809 953 
z
M 1528 953 
L 2316 953 
L 2316 0 
L 1528 0 
L 1528 953 
z
" transform="scale(0.015625)"/>
      <path id="DejaVuSansMono-6f" d="M 1925 3097 
Q 1488 3097 1263 2756 
Q 1038 2416 1038 1747 
Q 1038 1081 1263 739 
Q 1488 397 1925 397 
Q 2366 397 2591 739 
Q 2816 1081 2816 1747 
Q 2816 2416 2591 2756 
Q 2366 3097 1925 3097 
z
M 1925 3584 
Q 2653 3584 3039 3112 
Q 3425 2641 3425 1747 
Q 3425 850 3040 379 
Q 2656 -91 1925 -91 
Q 1197 -91 812 379 
Q 428 850 428 1747 
Q 428 2641 812 3112 
Q 1197 3584 1925 3584 
z
" transform="scale(0.015625)"/>
      <path id="DejaVuSansMono-72" d="M 3609 2778 
Q 3425 2922 3234 2987 
Q 3044 3053 2816 3053 
Q 2278 3053 1993 2715 
Q 1709 2378 1709 1741 
L 1709 0 
L 1131 0 
L 1131 3500 
L 1709 3500 
L 1709 2816 
Q 1853 3188 2151 3386 
Q 2450 3584 2859 3584 
Q 3072 3584 3256 3531 
Q 3441 3478 3609 3366 
L 3609 2778 
z
" transform="scale(0.015625)"/>
      <path id="DejaVuSansMono-65" d="M 3475 1894 
L 3475 1613 
L 984 1613 
L 984 1594 
Q 984 1022 1282 709 
Q 1581 397 2125 397 
Q 2400 397 2700 484 
Q 3000 572 3341 750 
L 3341 178 
Q 3013 44 2708 -23 
Q 2403 -91 2119 -91 
Q 1303 -91 843 398 
Q 384 888 384 1747 
Q 384 2584 834 3084 
Q 1284 3584 2034 3584 
Q 2703 3584 3089 3131 
Q 3475 2678 3475 1894 
z
M 2900 2063 
Q 2888 2569 2661 2833 
Q 2434 3097 2009 3097 
Q 1594 3097 1325 2822 
Q 1056 2547 1006 2059 
L 2900 2063 
z
" transform="scale(0.015625)"/>
      <path id="DejaVuSansMono-70" d="M 1172 441 
L 1172 -1331 
L 594 -1331 
L 594 3500 
L 1172 3500 
L 1172 3053 
Q 1316 3313 1555 3448 
Q 1794 3584 2106 3584 
Q 2741 3584 3102 3093 
Q 3463 2603 3463 1734 
Q 3463 881 3100 395 
Q 2738 -91 2106 -91 
Q 1788 -91 1548 45 
Q 1309 181 1172 441 
z
M 2859 1747 
Q 2859 2416 2648 2756 
Q 2438 3097 2022 3097 
Q 1603 3097 1387 2755 
Q 1172 2413 1172 1747 
Q 1172 1084 1387 740 
Q 1603 397 2022 397 
Q 2438 397 2648 737 
Q 2859 1078 2859 1747 
z
" transform="scale(0.015625)"/>
      <path id="DejaVuSansMono-6c" d="M 1997 1269 
Q 1997 881 2139 684 
Q 2281 488 2559 488 
L 3231 488 
L 3231 0 
L 2503 0 
Q 1988 0 1705 331 
Q 1422 663 1422 1269 
L 1422 4447 
L 500 4447 
L 500 4897 
L 1997 4897 
L 1997 1269 
z
" transform="scale(0.015625)"/>
      <path id="DejaVuSansMono-75" d="M 609 1325 
L 609 3494 
L 1184 3494 
L 1184 1325 
Q 1184 853 1351 631 
Q 1519 409 1869 409 
Q 2275 409 2490 695 
Q 2706 981 2706 1516 
L 2706 3494 
L 3284 3494 
L 3284 0 
L 2706 0 
L 2706 525 
Q 2553 222 2289 65 
Q 2025 -91 1672 -91 
Q 1134 -91 871 261 
Q 609 613 609 1325 
z
" transform="scale(0.015625)"/>
      <path id="DejaVuSansMono-67" d="M 2681 1778 
Q 2681 2425 2470 2761 
Q 2259 3097 1856 3097 
Q 1434 3097 1212 2761 
Q 991 2425 991 1778 
Q 991 1131 1214 792 
Q 1438 453 1863 453 
Q 2259 453 2470 793 
Q 2681 1134 2681 1778 
z
M 3256 225 
Q 3256 -563 2884 -969 
Q 2513 -1375 1791 -1375 
Q 1553 -1375 1293 -1331 
Q 1034 -1288 775 -1203 
L 775 -634 
Q 1081 -778 1331 -847 
Q 1581 -916 1791 -916 
Q 2256 -916 2468 -662 
Q 2681 -409 2681 141 
L 2681 166 
L 2681 556 
Q 2544 263 2306 119 
Q 2069 -25 1728 -25 
Q 1116 -25 750 465 
Q 384 956 384 1778 
Q 384 2603 750 3093 
Q 1116 3584 1728 3584 
Q 2066 3584 2300 3450 
Q 2534 3316 2681 3034 
L 2681 3488 
L 3256 3488 
L 3256 225 
z
" transform="scale(0.015625)"/>
     </defs>
     <use xlink:href="#DejaVuSansMono-20"/>
     <use xlink:href="#DejaVuSansMono-20" transform="translate(60.205078 0)"/>
     <use xlink:href="#DejaVuSansMono-2026" transform="translate(120.410156 0)"/>
     <use xlink:href="#DejaVuSansMono-63" transform="translate(180.615234 0)"/>
     <use xlink:href="#DejaVuSansMono-6f" transform="translate(240.820312 0)"/>
     <use xlink:href="#DejaVuSansMono-6e" transform="translate(301.025391 0)"/>
     <use xlink:href="#DejaVuSansMono-63" transform="translate(361.230469 0)"/>
     <use xlink:href="#DejaVuSansMono-72" transform="translate(421.435547 0)"/>
     <use xlink:href="#DejaVuSansMono-65" transform="translate(481.640625 0)"/>
     <use xlink:href="#DejaVuSansMono-74" transform="translate(541.845703 0)"/>
     <use xlink:href="#DejaVuSansMono-65" transform="translate(602.050781 0)"/>
     <use xlink:href="#DejaVuSansMono-20" transform="translate(662.255859 0)"/>
     <use xlink:href="#DejaVuSansMono-70" transform="translate(722.460938 0)"/>
     <use xlink:href="#DejaVuSansMono-6c" transform="translate(782.666016 0)"/>
     <use xlink:href="#DejaVuSansMono-75" transform="translate(842.871094 0)"/>
     <use xlink:href="#DejaVuSansMono-67" transform="translate(903.076172 0)"/>
     <use xlink:href="#DejaVuSansMono-69" transform="translate(963.28125 0)"/>
     <use xlink:href="#DejaVuSansMono-6e" transform="translate(1023.486328 0)"/>
     <use xlink:href="#DejaVuSansMono-2026" transform="translate(1083.691406 0)"/>
    </g>
   </g>
   <g id="text_14">
    <!--   …Err(unsupported)… -->
    <g transform="translate(331.797187 237.580019) scale(0.09 -0.09)">
     <defs>
      <path id="DejaVuSansMono-45" d="M 616 4666 
L 3384 4666 
L 3384 4134 
L 1247 4134 
L 1247 2753 
L 3291 2753 
L 3291 2222 
L 1247 2222 
L 1247 531 
L 3444 531 
L 3444 0 
L 616 0 
L 616 4666 
z
" transform="scale(0.015625)"/>
      <path id="DejaVuSansMono-28" d="M 2766 4856 
Q 2350 4144 2145 3436 
Q 1941 2728 1941 2009 
Q 1941 1294 2145 584 
Q 2350 -125 2766 -844 
L 2266 -844 
Q 1794 -100 1562 604 
Q 1331 1309 1331 2009 
Q 1331 2706 1562 3412 
Q 1794 4119 2266 4856 
L 2766 4856 
z
" transform="scale(0.015625)"/>
      <path id="DejaVuSansMono-73" d="M 3041 3378 
L 3041 2816 
Q 2794 2959 2544 3031 
Q 2294 3103 2034 3103 
Q 1644 3103 1451 2976 
Q 1259 2850 1259 2591 
Q 1259 2356 1403 2240 
Q 1547 2125 2119 2016 
L 2350 1972 
Q 2778 1891 2998 1647 
Q 3219 1403 3219 1013 
Q 3219 494 2850 201 
Q 2481 -91 1825 -91 
Q 1566 -91 1281 -36 
Q 997 19 666 128 
L 666 722 
Q 988 556 1281 473 
Q 1575 391 1838 391 
Q 2219 391 2428 545 
Q 2638 700 2638 978 
Q 2638 1378 1872 1531 
L 1847 1538 
L 1631 1581 
Q 1134 1678 906 1908 
Q 678 2138 678 2534 
Q 678 3038 1018 3311 
Q 1359 3584 1991 3584 
Q 2272 3584 2531 3532 
Q 2791 3481 3041 3378 
z
" transform="scale(0.015625)"/>
      <path id="DejaVuSansMono-29" d="M 1088 4856 
L 1588 4856 
Q 2059 4119 2290 3412 
Q 2522 2706 2522 2009 
Q 2522 1306 2290 600 
Q 2059 -106 1588 -844 
L 1088 -844 
Q 1503 -119 1708 590 
Q 1913 1300 1913 2009 
Q 1913 2722 1708 3431 
Q 1503 4141 1088 4856 
z
" transform="scale(0.015625)"/>
     </defs>
     <use xlink:href="#DejaVuSansMono-20"/>
     <use xlink:href="#DejaVuSansMono-20" transform="translate(60.205078 0)"/>
     <use xlink:href="#DejaVuSansMono-2026" transform="translate(120.410156 0)"/>
     <use xlink:href="#DejaVuSansMono-45" transform="translate(180.615234 0)"/>
     <use xlink:href="#DejaVuSansMono-72" transform="translate(240.820312 0)"/>
     <use xlink:href="#DejaVuSansMono-72" transform="translate(301.025391 0)"/>
     <use xlink:href="#DejaVuSansMono-28" transform="translate(361.230469 0)"/>
     <use xlink:href="#DejaVuSansMono-75" transform="translate(421.435547 0)"/>
     <use xlink:href="#DejaVuSansMono-6e" transform="translate(481.640625 0)"/>
     <use xlink:href="#DejaVuSansMono-73" transform="translate(541.845703 0)"/>
     <use xlink:href="#DejaVuSansMono-75" transform="translate(602.050781 0)"/>
     <use xlink:href="#DejaVuSansMono-70" transform="translate(662.255859 0)"/>
     <use xlink:href="#DejaVuSansMono-70" transform="translate(722.460938 0)"/>
     <use xlink:href="#DejaVuSansMono-6f" transform="translate(782.666016 0)"/>
     <use xlink:href="#DejaVuSansMono-72" transform="translate(842.871094 0)"/>
     <use xlink:href="#DejaVuSansMono-74" transform="translate(903.076172 0)"/>
     <use xlink:href="#DejaVuSansMono-65" transform="translate(963.28125 0)"/>
     <use xlink:href="#DejaVuSansMono-64" transform="translate(1023.486328 0)"/>
     <use xlink:href="#DejaVuSansMono-29" transform="translate(1083.691406 0)"/>
     <use xlink:href="#DejaVuSansMono-2026" transform="translate(1143.896484 0)"/>
    </g>
   </g>
   <g id="text_15">
    <!-- } -->
    <g transform="translate(383.270859 256.741619) scale(0.09 -0.09)">
     <defs>
      <path id="DejaVuSansMono-7d" d="M 691 -594 
L 903 -594 
Q 1344 -594 1478 -456 
Q 1613 -319 1613 122 
L 1613 897 
Q 1613 1384 1753 1606 
Q 1894 1828 2241 1913 
Q 1897 1991 1755 2212 
Q 1613 2434 1613 2925 
L 1613 3700 
Q 1613 4141 1478 4278 
Q 1344 4416 903 4416 
L 691 4416 
L 691 4863 
L 884 4863 
Q 1663 4863 1925 4633 
Q 2188 4403 2188 3713 
L 2188 2963 
Q 2188 2494 2355 2316 
Q 2522 2138 2963 2138 
L 3163 2138 
L 3163 1691 
L 2963 1691 
Q 2522 1691 2355 1509 
Q 2188 1328 2188 856 
L 2188 109 
Q 2188 -581 1925 -812 
Q 1663 -1044 884 -1044 
L 691 -1044 
L 691 -594 
z
" transform="scale(0.015625)"/>
     </defs>
     <use xlink:href="#DejaVuSansMono-7d"/>
    </g>
   </g>
   <g id="text_16">
    <!-- exhaustive (Thm. 22.1) -->
    <g transform="translate(339.3225 282.788975) scale(0.08 -0.08)">
     <defs>
      <path id="DejaVuSans-Oblique-65" d="M 3078 2063 
Q 3088 2113 3092 2166 
Q 3097 2219 3097 2272 
Q 3097 2653 2873 2875 
Q 2650 3097 2266 3097 
Q 1838 3097 1509 2826 
Q 1181 2556 1013 2059 
L 3078 2063 
z
M 3578 1613 
L 903 1613 
Q 884 1494 878 1425 
Q 872 1356 872 1306 
Q 872 872 1139 634 
Q 1406 397 1894 397 
Q 2269 397 2603 481 
Q 2938 566 3225 728 
L 3116 159 
Q 2806 34 2476 -28 
Q 2147 -91 1806 -91 
Q 1078 -91 686 257 
Q 294 606 294 1247 
Q 294 1794 489 2264 
Q 684 2734 1063 3103 
Q 1306 3334 1642 3459 
Q 1978 3584 2356 3584 
Q 2950 3584 3301 3228 
Q 3653 2872 3653 2272 
Q 3653 2128 3634 1964 
Q 3616 1800 3578 1613 
z
" transform="scale(0.015625)"/>
      <path id="DejaVuSans-Oblique-78" d="M 3841 3500 
L 2234 1784 
L 3219 0 
L 2559 0 
L 1819 1388 
L 531 0 
L -166 0 
L 1556 1844 
L 641 3500 
L 1300 3500 
L 1972 2234 
L 3144 3500 
L 3841 3500 
z
" transform="scale(0.015625)"/>
      <path id="DejaVuSans-Oblique-68" d="M 3566 2113 
L 3156 0 
L 2578 0 
L 2988 2091 
Q 3016 2238 3031 2350 
Q 3047 2463 3047 2528 
Q 3047 2791 2881 2937 
Q 2716 3084 2419 3084 
Q 1956 3084 1617 2771 
Q 1278 2459 1178 1941 
L 800 0 
L 225 0 
L 1172 4863 
L 1747 4863 
L 1375 2950 
Q 1594 3244 1934 3414 
Q 2275 3584 2650 3584 
Q 3113 3584 3367 3334 
Q 3622 3084 3622 2631 
Q 3622 2519 3608 2391 
Q 3594 2263 3566 2113 
z
" transform="scale(0.015625)"/>
      <path id="DejaVuSans-Oblique-61" d="M 3438 1997 
L 3047 0 
L 2472 0 
L 2578 531 
Q 2325 219 2001 64 
Q 1678 -91 1281 -91 
Q 834 -91 548 182 
Q 263 456 263 884 
Q 263 1497 752 1853 
Q 1241 2209 2100 2209 
L 2900 2209 
L 2931 2363 
Q 2938 2388 2941 2417 
Q 2944 2447 2944 2509 
Q 2944 2788 2717 2942 
Q 2491 3097 2081 3097 
Q 1800 3097 1504 3025 
Q 1209 2953 897 2809 
L 997 3341 
Q 1322 3463 1633 3523 
Q 1944 3584 2234 3584 
Q 2853 3584 3176 3315 
Q 3500 3047 3500 2534 
Q 3500 2431 3484 2292 
Q 3469 2153 3438 1997 
z
M 2816 1759 
L 2241 1759 
Q 1534 1759 1195 1570 
Q 856 1381 856 984 
Q 856 709 1029 553 
Q 1203 397 1509 397 
Q 1978 397 2328 733 
Q 2678 1069 2791 1631 
L 2816 1759 
z
" transform="scale(0.015625)"/>
      <path id="DejaVuSans-Oblique-75" d="M 428 1388 
L 838 3500 
L 1416 3500 
L 1006 1409 
Q 975 1256 961 1147 
Q 947 1038 947 966 
Q 947 700 1109 554 
Q 1272 409 1569 409 
Q 2031 409 2368 721 
Q 2706 1034 2809 1563 
L 3194 3500 
L 3769 3500 
L 3091 0 
L 2516 0 
L 2631 550 
Q 2388 244 2052 76 
Q 1716 -91 1338 -91 
Q 878 -91 622 161 
Q 366 413 366 863 
Q 366 956 381 1097 
Q 397 1238 428 1388 
z
" transform="scale(0.015625)"/>
      <path id="DejaVuSans-Oblique-73" d="M 3200 3397 
L 3091 2853 
Q 2863 2978 2609 3040 
Q 2356 3103 2088 3103 
Q 1634 3103 1373 2948 
Q 1113 2794 1113 2528 
Q 1113 2219 1719 2053 
Q 1766 2041 1788 2034 
L 1972 1978 
Q 2547 1819 2739 1644 
Q 2931 1469 2931 1166 
Q 2931 609 2489 259 
Q 2047 -91 1331 -91 
Q 1053 -91 747 -37 
Q 441 16 72 128 
L 184 722 
Q 500 559 806 475 
Q 1113 391 1394 391 
Q 1816 391 2080 572 
Q 2344 753 2344 1031 
Q 2344 1331 1650 1516 
L 1591 1531 
L 1394 1581 
Q 956 1697 753 1886 
Q 550 2075 550 2369 
Q 550 2928 970 3256 
Q 1391 3584 2113 3584 
Q 2397 3584 2667 3537 
Q 2938 3491 3200 3397 
z
" transform="scale(0.015625)"/>
      <path id="DejaVuSans-Oblique-74" d="M 2706 3500 
L 2619 3053 
L 1472 3053 
L 1100 1153 
Q 1081 1047 1072 975 
Q 1063 903 1063 863 
Q 1063 663 1183 572 
Q 1303 481 1569 481 
L 2150 481 
L 2053 0 
L 1503 0 
Q 991 0 739 200 
Q 488 400 488 806 
Q 488 878 497 964 
Q 506 1050 525 1153 
L 897 3053 
L 409 3053 
L 500 3500 
L 978 3500 
L 1172 4494 
L 1747 4494 
L 1556 3500 
L 2706 3500 
z
" transform="scale(0.015625)"/>
      <path id="DejaVuSans-Oblique-69" d="M 1172 4863 
L 1747 4863 
L 1606 4134 
L 1031 4134 
L 1172 4863 
z
M 909 3500 
L 1484 3500 
L 800 0 
L 225 0 
L 909 3500 
z
" transform="scale(0.015625)"/>
      <path id="DejaVuSans-Oblique-76" d="M 459 3500 
L 1069 3500 
L 1581 525 
L 3256 3500 
L 3866 3500 
L 1875 0 
L 1100 0 
L 459 3500 
z
" transform="scale(0.015625)"/>
      <path id="DejaVuSans-Oblique-20" transform="scale(0.015625)"/>
      <path id="DejaVuSans-Oblique-28" d="M 2731 4856 
Q 1903 3822 1495 2892 
Q 1088 1963 1088 1100 
Q 1088 606 1206 120 
Q 1325 -366 1563 -844 
L 1063 -844 
Q 775 -306 634 201 
Q 494 709 494 1197 
Q 494 2125 923 3036 
Q 1353 3947 2222 4856 
L 2731 4856 
z
" transform="scale(0.015625)"/>
      <path id="DejaVuSans-Oblique-54" d="M 378 4666 
L 4325 4666 
L 4225 4134 
L 2559 4134 
L 1759 0 
L 1125 0 
L 1925 4134 
L 275 4134 
L 378 4666 
z
" transform="scale(0.015625)"/>
      <path id="DejaVuSans-Oblique-6d" d="M 5747 2113 
L 5338 0 
L 4763 0 
L 5166 2094 
Q 5191 2228 5203 2325 
Q 5216 2422 5216 2491 
Q 5216 2772 5059 2928 
Q 4903 3084 4622 3084 
Q 4203 3084 3875 2770 
Q 3547 2456 3450 1953 
L 3066 0 
L 2491 0 
L 2900 2094 
Q 2925 2209 2937 2307 
Q 2950 2406 2950 2484 
Q 2950 2769 2794 2926 
Q 2638 3084 2363 3084 
Q 1938 3084 1609 2770 
Q 1281 2456 1184 1953 
L 800 0 
L 225 0 
L 909 3500 
L 1484 3500 
L 1375 2956 
Q 1609 3263 1923 3423 
Q 2238 3584 2597 3584 
Q 2978 3584 3223 3384 
Q 3469 3184 3519 2828 
Q 3781 3197 4126 3390 
Q 4472 3584 4856 3584 
Q 5306 3584 5551 3325 
Q 5797 3066 5797 2591 
Q 5797 2488 5784 2364 
Q 5772 2241 5747 2113 
z
" transform="scale(0.015625)"/>
      <path id="DejaVuSans-Oblique-2e" d="M 525 794 
L 1184 794 
L 1031 0 
L 372 0 
L 525 794 
z
" transform="scale(0.015625)"/>
      <path id="DejaVuSans-Oblique-32" d="M 2950 2253 
L 934 525 
L 3163 525 
L 3053 0 
L 25 0 
L 128 531 
L 2234 2338 
Q 2656 2703 2832 2979 
Q 3009 3256 3009 3547 
Q 3009 3850 2796 4040 
Q 2584 4231 2241 4231 
Q 1944 4231 1581 4125 
Q 1219 4019 806 3816 
L 922 4441 
Q 1309 4594 1662 4672 
Q 2016 4750 2316 4750 
Q 2928 4750 3301 4425 
Q 3675 4100 3675 3572 
Q 3675 3216 3497 2892 
Q 3319 2569 2950 2253 
z
" transform="scale(0.015625)"/>
      <path id="DejaVuSans-Oblique-31" d="M 416 531 
L 1447 531 
L 2144 4122 
L 978 3897 
L 1088 4441 
L 2247 4666 
L 2881 4666 
L 2075 531 
L 3103 531 
L 3003 0 
L 313 0 
L 416 531 
z
" transform="scale(0.015625)"/>
      <path id="DejaVuSans-Oblique-29" d="M -397 -844 
Q 434 191 840 1120 
Q 1247 2050 1247 2913 
Q 1247 3406 1130 3892 
Q 1013 4378 775 4856 
L 1275 4856 
Q 1563 4316 1703 3812 
Q 1844 3309 1844 2822 
Q 1844 1891 1411 973 
Q 978 56 116 -844 
L -397 -844 
z
" transform="scale(0.015625)"/>
     </defs>
     <use xlink:href="#DejaVuSans-Oblique-65"/>
     <use xlink:href="#DejaVuSans-Oblique-78" transform="translate(61.523438 0)"/>
     <use xlink:href="#DejaVuSans-Oblique-68" transform="translate(120.703125 0)"/>
     <use xlink:href="#DejaVuSans-Oblique-61" transform="translate(184.082031 0)"/>
     <use xlink:href="#DejaVuSans-Oblique-75" transform="translate(245.361328 0)"/>
     <use xlink:href="#DejaVuSans-Oblique-73" transform="translate(308.740234 0)"/>
     <use xlink:href="#DejaVuSans-Oblique-74" transform="translate(360.839844 0)"/>
     <use xlink:href="#DejaVuSans-Oblique-69" transform="translate(400.048828 0)"/>
     <use xlink:href="#DejaVuSans-Oblique-76" transform="translate(427.832031 0)"/>
     <use xlink:href="#DejaVuSans-Oblique-65" transform="translate(487.011719 0)"/>
     <use xlink:href="#DejaVuSans-Oblique-20" transform="translate(548.535156 0)"/>
     <use xlink:href="#DejaVuSans-Oblique-28" transform="translate(580.322266 0)"/>
     <use xlink:href="#DejaVuSans-Oblique-54" transform="translate(619.335938 0)"/>
     <use xlink:href="#DejaVuSans-Oblique-68" transform="translate(680.419922 0)"/>
     <use xlink:href="#DejaVuSans-Oblique-6d" transform="translate(743.798828 0)"/>
     <use xlink:href="#DejaVuSans-Oblique-2e" transform="translate(841.210938 0)"/>
     <use xlink:href="#DejaVuSans-Oblique-20" transform="translate(872.998047 0)"/>
     <use xlink:href="#DejaVuSans-Oblique-32" transform="translate(904.785156 0)"/>
     <use xlink:href="#DejaVuSans-Oblique-32" transform="translate(968.408203 0)"/>
     <use xlink:href="#DejaVuSans-Oblique-2e" transform="translate(1032.03125 0)"/>
     <use xlink:href="#DejaVuSans-Oblique-31" transform="translate(1063.818359 0)"/>
     <use xlink:href="#DejaVuSans-Oblique-29" transform="translate(1127.441406 0)"/>
    </g>
   </g>
   <g id="text_17">
    <!-- Box&lt;dyn Plugin&gt; -->
    <g transform="translate(601.962344 151.837819) scale(0.11 -0.11)">
     <defs>
      <path id="DejaVuSans-Bold-42" d="M 2456 2859 
Q 2741 2859 2887 2984 
Q 3034 3109 3034 3353 
Q 3034 3594 2887 3720 
Q 2741 3847 2456 3847 
L 1791 3847 
L 1791 2859 
L 2456 2859 
z
M 2497 819 
Q 2859 819 3042 972 
Q 3225 1125 3225 1434 
Q 3225 1738 3044 1889 
Q 2863 2041 2497 2041 
L 1791 2041 
L 1791 819 
L 2497 819 
z
M 3616 2497 
Q 4003 2384 4215 2081 
Q 4428 1778 4428 1338 
Q 4428 663 3972 331 
Q 3516 0 2584 0 
L 588 0 
L 588 4666 
L 2394 4666 
Q 3366 4666 3802 4372 
Q 4238 4078 4238 3431 
Q 4238 3091 4078 2852 
Q 3919 2613 3616 2497 
z
" transform="scale(0.015625)"/>
      <path id="DejaVuSans-Bold-78" d="M 1422 1791 
L 159 3500 
L 1344 3500 
L 2059 2463 
L 2784 3500 
L 3969 3500 
L 2706 1797 
L 4031 0 
L 2847 0 
L 2059 1106 
L 1281 0 
L 97 0 
L 1422 1791 
z
" transform="scale(0.015625)"/>
      <path id="DejaVuSans-Bold-3c" d="M 4684 3041 
L 1672 2003 
L 4684 972 
L 4684 191 
L 678 1638 
L 678 2375 
L 4684 3822 
L 4684 3041 
z
" transform="scale(0.015625)"/>
      <path id="DejaVuSans-Bold-20" transform="scale(0.015625)"/>
      <path id="DejaVuSans-Bold-75" d="M 500 1363 
L 500 3500 
L 1625 3500 
L 1625 3150 
Q 1625 2866 1622 2436 
Q 1619 2006 1619 1863 
Q 1619 1441 1641 1255 
Q 1663 1069 1716 984 
Q 1784 875 1895 815 
Q 2006 756 2150 756 
Q 2500 756 2700 1025 
Q 2900 1294 2900 1772 
L 2900 3500 
L 4019 3500 
L 4019 0 
L 2900 0 
L 2900 506 
Q 2647 200 2364 54 
Q 2081 -91 1741 -91 
Q 1134 -91 817 281 
Q 500 653 500 1363 
z
" transform="scale(0.015625)"/>
      <path id="DejaVuSans-Bold-3e" d="M 678 3041 
L 678 3822 
L 4684 2375 
L 4684 1638 
L 678 191 
L 678 972 
L 3694 2003 
L 678 3041 
z
" transform="scale(0.015625)"/>
     </defs>
     <use xlink:href="#DejaVuSans-Bold-42"/>
     <use xlink:href="#DejaVuSans-Bold-6f" transform="translate(76.220703 0)"/>
     <use xlink:href="#DejaVuSans-Bold-78" transform="translate(144.921875 0)"/>
     <use xlink:href="#DejaVuSans-Bold-3c" transform="translate(209.423828 0)"/>
     <use xlink:href="#DejaVuSans-Bold-64" transform="translate(293.212891 0)"/>
     <use xlink:href="#DejaVuSans-Bold-79" transform="translate(364.794922 0)"/>
     <use xlink:href="#DejaVuSans-Bold-6e" transform="translate(429.980469 0)"/>
     <use xlink:href="#DejaVuSans-Bold-20" transform="translate(501.171875 0)"/>
     <use xlink:href="#DejaVuSans-Bold-50" transform="translate(535.986328 0)"/>
     <use xlink:href="#DejaVuSans-Bold-6c" transform="translate(609.277344 0)"/>
     <use xlink:href="#DejaVuSans-Bold-75" transform="translate(643.554688 0)"/>
     <use xlink:href="#DejaVuSans-Bold-67" transform="translate(714.746094 0)"/>
     <use xlink:href="#DejaVuSans-Bold-69" transform="translate(786.328125 0)"/>
     <use xlink:href="#DejaVuSans-Bold-6e" transform="translate(820.605469 0)"/>
     <use xlink:href="#DejaVuSans-Bold-3e" transform="translate(891.796875 0)"/>
    </g>
   </g>
   <g id="text_18">
    <!-- added to PluginManager -->
    <g transform="translate(600.645469 175.280913) scale(0.09 -0.09)">
     <defs>
      <path id="DejaVuSans-64" d="M 2906 2969 
L 2906 4863 
L 3481 4863 
L 3481 0 
L 2906 0 
L 2906 525 
Q 2725 213 2448 61 
Q 2172 -91 1784 -91 
Q 1150 -91 751 415 
Q 353 922 353 1747 
Q 353 2572 751 3078 
Q 1150 3584 1784 3584 
Q 2172 3584 2448 3432 
Q 2725 3281 2906 2969 
z
M 947 1747 
Q 947 1113 1208 752 
Q 1469 391 1925 391 
Q 2381 391 2643 752 
Q 2906 1113 2906 1747 
Q 2906 2381 2643 2742 
Q 2381 3103 1925 3103 
Q 1469 3103 1208 2742 
Q 947 2381 947 1747 
z
" transform="scale(0.015625)"/>
      <path id="DejaVuSans-20" transform="scale(0.015625)"/>
     </defs>
     <use xlink:href="#DejaVuSans-61"/>
     <use xlink:href="#DejaVuSans-64" transform="translate(61.279297 0)"/>
     <use xlink:href="#DejaVuSans-64" transform="translate(124.755859 0)"/>
     <use xlink:href="#DejaVuSans-65" transform="translate(188.232422 0)"/>
     <use xlink:href="#DejaVuSans-64" transform="translate(249.755859 0)"/>
     <use xlink:href="#DejaVuSans-20" transform="translate(313.232422 0)"/>
     <use xlink:href="#DejaVuSans-74" transform="translate(345.019531 0)"/>
     <use xlink:href="#DejaVuSans-6f" transform="translate(384.228516 0)"/>
     <use xlink:href="#DejaVuSans-20" transform="translate(445.410156 0)"/>
     <use xlink:href="#DejaVuSans-50" transform="translate(477.197266 0)"/>
     <use xlink:href="#DejaVuSans-6c" transform="translate(537.5 0)"/>
     <use xlink:href="#DejaVuSans-75" transform="translate(565.283203 0)"/>
     <use xlink:href="#DejaVuSans-67" transform="translate(628.662109 0)"/>
     <use xlink:href="#DejaVuSans-69" transform="translate(692.138672 0)"/>
     <use xlink:href="#DejaVuSans-6e" transform="translate(719.921875 0)"/>
     <use xlink:href="#DejaVuSans-4d" transform="translate(783.300781 0)"/>
     <use xlink:href="#DejaVuSans-61" transform="translate(869.580078 0)"/>
     <use xlink:href="#DejaVuSans-6e" transform="translate(930.859375 0)"/>
     <use xlink:href="#DejaVuSans-61" transform="translate(994.238281 0)"/>
     <use xlink:href="#DejaVuSans-67" transform="translate(1055.517578 0)"/>
     <use xlink:href="#DejaVuSans-65" transform="translate(1118.994141 0)"/>
     <use xlink:href="#DejaVuSans-72" transform="translate(1180.517578 0)"/>
    </g>
   </g>
   <g id="text_19">
    <!-- ConfigError::InvalidValue -->
    <g transform="translate(577.440937 276.388219) scale(0.11 -0.11)">
     <defs>
      <path id="DejaVuSans-Bold-45" d="M 588 4666 
L 3834 4666 
L 3834 3756 
L 1791 3756 
L 1791 2888 
L 3713 2888 
L 3713 1978 
L 1791 1978 
L 1791 909 
L 3903 909 
L 3903 0 
L 588 0 
L 588 4666 
z
" transform="scale(0.015625)"/>
      <path id="DejaVuSans-Bold-72" d="M 3138 2547 
Q 2991 2616 2845 2648 
Q 2700 2681 2553 2681 
Q 2122 2681 1889 2404 
Q 1656 2128 1656 1613 
L 1656 0 
L 538 0 
L 538 3500 
L 1656 3500 
L 1656 2925 
Q 1872 3269 2151 3426 
Q 2431 3584 2822 3584 
Q 2878 3584 2943 3579 
Q 3009 3575 3134 3559 
L 3138 2547 
z
" transform="scale(0.015625)"/>
      <path id="DejaVuSans-Bold-3a" d="M 716 3500 
L 1844 3500 
L 1844 2291 
L 716 2291 
L 716 3500 
z
M 716 1209 
L 1844 1209 
L 1844 0 
L 716 0 
L 716 1209 
z
" transform="scale(0.015625)"/>
      <path id="DejaVuSans-Bold-49" d="M 588 4666 
L 1791 4666 
L 1791 0 
L 588 0 
L 588 4666 
z
" transform="scale(0.015625)"/>
      <path id="DejaVuSans-Bold-76" d="M 97 3500 
L 1216 3500 
L 2088 1081 
L 2956 3500 
L 4078 3500 
L 2700 0 
L 1472 0 
L 97 3500 
z
" transform="scale(0.015625)"/>
      <path id="DejaVuSans-Bold-56" d="M 31 4666 
L 1241 4666 
L 2478 1222 
L 3713 4666 
L 4922 4666 
L 3194 0 
L 1759 0 
L 31 4666 
z
" transform="scale(0.015625)"/>
     </defs>
     <use xlink:href="#DejaVuSans-Bold-43"/>
     <use xlink:href="#DejaVuSans-Bold-6f" transform="translate(73.388672 0)"/>
     <use xlink:href="#DejaVuSans-Bold-6e" transform="translate(142.089844 0)"/>
     <use xlink:href="#DejaVuSans-Bold-66" transform="translate(213.28125 0)"/>
     <use xlink:href="#DejaVuSans-Bold-69" transform="translate(256.787109 0)"/>
     <use xlink:href="#DejaVuSans-Bold-67" transform="translate(291.064453 0)"/>
     <use xlink:href="#DejaVuSans-Bold-45" transform="translate(362.646484 0)"/>
     <use xlink:href="#DejaVuSans-Bold-72" transform="translate(430.957031 0)"/>
     <use xlink:href="#DejaVuSans-Bold-72" transform="translate(480.273438 0)"/>
     <use xlink:href="#DejaVuSans-Bold-6f" transform="translate(529.589844 0)"/>
     <use xlink:href="#DejaVuSans-Bold-72" transform="translate(598.291016 0)"/>
     <use xlink:href="#DejaVuSans-Bold-3a" transform="translate(647.607422 0)"/>
     <use xlink:href="#DejaVuSans-Bold-3a" transform="translate(687.597656 0)"/>
     <use xlink:href="#DejaVuSans-Bold-49" transform="translate(727.587891 0)"/>
     <use xlink:href="#DejaVuSans-Bold-6e" transform="translate(764.794922 0)"/>
     <use xlink:href="#DejaVuSans-Bold-76" transform="translate(835.986328 0)"/>
     <use xlink:href="#DejaVuSans-Bold-61" transform="translate(901.171875 0)"/>
     <use xlink:href="#DejaVuSans-Bold-6c" transform="translate(968.652344 0)"/>
     <use xlink:href="#DejaVuSans-Bold-69" transform="translate(1002.929688 0)"/>
     <use xlink:href="#DejaVuSans-Bold-64" transform="translate(1037.207031 0)"/>
     <use xlink:href="#DejaVuSans-Bold-56" transform="translate(1108.789062 0)"/>
     <use xlink:href="#DejaVuSans-Bold-61" transform="translate(1180.681641 0)"/>
     <use xlink:href="#DejaVuSans-Bold-6c" transform="translate(1248.162109 0)"/>
     <use xlink:href="#DejaVuSans-Bold-75" transform="translate(1282.439453 0)"/>
     <use xlink:href="#DejaVuSans-Bold-65" transform="translate(1353.630859 0)"/>
    </g>
   </g>
   <g id="text_20">
    <!-- names variant + models[i] -->
    <g transform="translate(595.439531 299.831313) scale(0.09 -0.09)">
     <defs>
      <path id="DejaVuSans-2b" d="M 2944 4013 
L 2944 2272 
L 4684 2272 
L 4684 1741 
L 2944 1741 
L 2944 0 
L 2419 0 
L 2419 1741 
L 678 1741 
L 678 2272 
L 2419 2272 
L 2419 4013 
L 2944 4013 
z
" transform="scale(0.015625)"/>
      <path id="DejaVuSans-5b" d="M 550 4863 
L 1875 4863 
L 1875 4416 
L 1125 4416 
L 1125 -397 
L 1875 -397 
L 1875 -844 
L 550 -844 
L 550 4863 
z
" transform="scale(0.015625)"/>
      <path id="DejaVuSans-5d" d="M 1947 4863 
L 1947 -844 
L 622 -844 
L 622 -397 
L 1369 -397 
L 1369 4416 
L 622 4416 
L 622 4863 
L 1947 4863 
z
" transform="scale(0.015625)"/>
     </defs>
     <use xlink:href="#DejaVuSans-6e"/>
     <use xlink:href="#DejaVuSans-61" transform="translate(63.378906 0)"/>
     <use xlink:href="#DejaVuSans-6d" transform="translate(124.658203 0)"/>
     <use xlink:href="#DejaVuSans-65" transform="translate(222.070312 0)"/>
     <use xlink:href="#DejaVuSans-73" transform="translate(283.59375 0)"/>
     <use xlink:href="#DejaVuSans-20" transform="translate(335.693359 0)"/>
     <use xlink:href="#DejaVuSans-76" transform="translate(367.480469 0)"/>
     <use xlink:href="#DejaVuSans-61" transform="translate(426.660156 0)"/>
     <use xlink:href="#DejaVuSans-72" transform="translate(487.939453 0)"/>
     <use xlink:href="#DejaVuSans-69" transform="translate(529.052734 0)"/>
     <use xlink:href="#DejaVuSans-61" transform="translate(556.835938 0)"/>
     <use xlink:href="#DejaVuSans-6e" transform="translate(618.115234 0)"/>
     <use xlink:href="#DejaVuSans-74" transform="translate(681.494141 0)"/>
     <use xlink:href="#DejaVuSans-20" transform="translate(720.703125 0)"/>
     <use xlink:href="#DejaVuSans-2b" transform="translate(752.490234 0)"/>
     <use xlink:href="#DejaVuSans-20" transform="translate(836.279297 0)"/>
     <use xlink:href="#DejaVuSans-6d" transform="translate(868.066406 0)"/>
     <use xlink:href="#DejaVuSans-6f" transform="translate(965.478516 0)"/>
     <use xlink:href="#DejaVuSans-64" transform="translate(1026.660156 0)"/>
     <use xlink:href="#DejaVuSans-65" transform="translate(1090.136719 0)"/>
     <use xlink:href="#DejaVuSans-6c" transform="translate(1151.660156 0)"/>
     <use xlink:href="#DejaVuSans-73" transform="translate(1179.443359 0)"/>
     <use xlink:href="#DejaVuSans-5b" transform="translate(1231.542969 0)"/>
     <use xlink:href="#DejaVuSans-69" transform="translate(1270.556641 0)"/>
     <use xlink:href="#DejaVuSans-5d" transform="translate(1298.339844 0)"/>
    </g>
   </g>
   <g id="patch_14">
    <path d="M 239.053731 64.47973 
Q 270.420319 144.055885 301.458911 222.799922 
" style="fill: none; stroke: #7f8c8d; stroke-width: 0.8; stroke-linecap: round"/>
    <path d="M 301.852738 218.345161 
L 301.458911 222.799922 
L 298.131398 219.812004 
" style="fill: none; stroke: #7f8c8d; stroke-width: 0.8; stroke-linecap: round"/>
   </g>
   <g id="patch_15">
    <path d="M 470.99406 224.235652 
Q 507.959549 194.35464 544.142501 165.10619 
" style="fill: none; opacity: 0.55; stroke: #2e7d32; stroke-width: 0.9; stroke-linecap: round"/>
    <path d="M 539.774442 166.065391 
L 544.142501 165.10619 
L 542.289027 169.176158 
" style="fill: none; opacity: 0.55; stroke: #2e7d32; stroke-width: 0.9; stroke-linecap: round"/>
   </g>
   <g id="patch_16">
    <path d="M 239.231041 101.764445 
Q 270.42067 162.738945 301.202977 222.917147 
" style="fill: none; stroke: #7f8c8d; stroke-width: 0.8; stroke-linecap: round"/>
    <path d="M 301.161955 218.445199 
L 301.202977 222.917147 
L 297.600806 220.266796 
" style="fill: none; stroke: #7f8c8d; stroke-width: 0.8; stroke-linecap: round"/>
   </g>
   <g id="patch_17">
    <path d="M 470.99406 224.235652 
Q 507.959549 194.35464 544.142501 165.10619 
" style="fill: none; opacity: 0.55; stroke: #2e7d32; stroke-width: 0.9; stroke-linecap: round"/>
    <path d="M 539.774442 166.065391 
L 544.142501 165.10619 
L 542.289027 169.176158 
" style="fill: none; opacity: 0.55; stroke: #2e7d32; stroke-width: 0.9; stroke-linecap: round"/>
   </g>
   <g id="patch_18">
    <path d="M 239.497496 138.965158 
Q 270.419259 181.419177 300.81443 223.150214 
" style="fill: none; stroke: #7f8c8d; stroke-width: 0.8; stroke-linecap: round"/>
    <path d="M 300.076084 218.739449 
L 300.81443 223.150214 
L 296.842811 221.094433 
" style="fill: none; stroke: #7f8c8d; stroke-width: 0.8; stroke-linecap: round"/>
   </g>
   <g id="patch_19">
    <path d="M 470.99406 226.748098 
Q 507.959549 256.62911 544.142501 285.87756 
" style="fill: none; opacity: 0.55; stroke: #c0392b; stroke-width: 0.9; stroke-linecap: round"/>
    <path d="M 542.289027 281.807592 
L 544.142501 285.87756 
L 539.774442 284.918359 
" style="fill: none; opacity: 0.55; stroke: #c0392b; stroke-width: 0.9; stroke-linecap: round"/>
   </g>
   <g id="patch_20">
    <path d="M 239.891301 175.956437 
Q 270.420116 200.102847 300.24741 223.694397 
" style="fill: none; stroke: #7f8c8d; stroke-width: 0.8; stroke-linecap: round"/>
    <path d="M 298.350819 219.644342 
L 300.24741 223.694397 
L 295.869412 222.781638 
" style="fill: none; stroke: #7f8c8d; stroke-width: 0.8; stroke-linecap: round"/>
   </g>
   <g id="patch_21">
    <path d="M 470.99406 224.235652 
Q 507.959549 194.35464 544.142501 165.10619 
" style="fill: none; opacity: 0.55; stroke: #2e7d32; stroke-width: 0.9; stroke-linecap: round"/>
    <path d="M 539.774442 166.065391 
L 544.142501 165.10619 
L 542.289027 169.176158 
" style="fill: none; opacity: 0.55; stroke: #2e7d32; stroke-width: 0.9; stroke-linecap: round"/>
   </g>
   <g id="patch_22">
    <path d="M 240.27531 212.487272 
Q 270.419383 218.785186 299.687933 224.90018 
" style="fill: none; stroke: #7f8c8d; stroke-width: 0.8; stroke-linecap: round"/>
    <path d="M 296.181499 222.124406 
L 299.687933 224.90018 
L 295.363454 226.039863 
" style="fill: none; stroke: #7f8c8d; stroke-width: 0.8; stroke-linecap: round"/>
   </g>
   <g id="patch_23">
    <path d="M 470.99406 226.748098 
Q 507.959549 256.62911 544.142501 285.87756 
" style="fill: none; opacity: 0.55; stroke: #c0392b; stroke-width: 0.9; stroke-linecap: round"/>
    <path d="M 542.289027 281.807592 
L 544.142501 285.87756 
L 539.774442 284.918359 
" style="fill: none; opacity: 0.55; stroke: #c0392b; stroke-width: 0.9; stroke-linecap: round"/>
   </g>
   <g id="patch_24">
    <path d="M 240.196941 248.743618 
Q 270.42081 237.467573 299.806674 226.504174 
" style="fill: none; stroke: #7f8c8d; stroke-width: 0.8; stroke-linecap: round"/>
    <path d="M 295.359903 226.028535 
L 299.806674 226.504174 
L 296.7581 229.776207 
" style="fill: none; stroke: #7f8c8d; stroke-width: 0.8; stroke-linecap: round"/>
   </g>
   <g id="patch_25">
    <path d="M 470.99406 224.235652 
Q 507.959549 194.35464 544.142501 165.10619 
" style="fill: none; opacity: 0.55; stroke: #2e7d32; stroke-width: 0.9; stroke-linecap: round"/>
    <path d="M 539.774442 166.065391 
L 544.142501 165.10619 
L 542.289027 169.176158 
" style="fill: none; opacity: 0.55; stroke: #2e7d32; stroke-width: 0.9; stroke-linecap: round"/>
   </g>
   <g id="patch_26">
    <path d="M 239.76787 285.426141 
Q 270.421006 256.149474 300.427331 227.490573 
" style="fill: none; stroke: #7f8c8d; stroke-width: 0.8; stroke-linecap: round"/>
    <path d="M 296.153336 228.806994 
L 300.427331 227.490573 
L 298.916071 231.699622 
" style="fill: none; stroke: #7f8c8d; stroke-width: 0.8; stroke-linecap: round"/>
   </g>
   <g id="patch_27">
    <path d="M 470.99406 224.235652 
Q 507.959549 194.35464 544.142501 165.10619 
" style="fill: none; opacity: 0.55; stroke: #2e7d32; stroke-width: 0.9; stroke-linecap: round"/>
    <path d="M 539.774442 166.065391 
L 544.142501 165.10619 
L 542.289027 169.176158 
" style="fill: none; opacity: 0.55; stroke: #2e7d32; stroke-width: 0.9; stroke-linecap: round"/>
   </g>
   <g id="patch_28">
    <path d="M 239.41129 322.496686 
Q 270.419645 274.83354 300.940246 227.920125 
" style="fill: none; stroke: #7f8c8d; stroke-width: 0.8; stroke-linecap: round"/>
    <path d="M 297.082494 230.182369 
L 300.940246 227.920125 
L 300.435391 232.363673 
" style="fill: none; stroke: #7f8c8d; stroke-width: 0.8; stroke-linecap: round"/>
   </g>
   <g id="patch_29">
    <path d="M 470.99406 226.748098 
Q 507.959549 256.62911 544.142501 285.87756 
" style="fill: none; opacity: 0.55; stroke: #c0392b; stroke-width: 0.9; stroke-linecap: round"/>
    <path d="M 542.289027 281.807592 
L 544.142501 285.87756 
L 539.774442 284.918359 
" style="fill: none; opacity: 0.55; stroke: #c0392b; stroke-width: 0.9; stroke-linecap: round"/>
   </g>
   <g id="patch_30">
    <path d="M 239.172264 359.733186 
Q 270.419857 293.515857 301.285741 228.107415 
" style="fill: none; stroke: #7f8c8d; stroke-width: 0.8; stroke-linecap: round"/>
    <path d="M 297.769959 230.87134 
L 301.285741 228.107415 
L 301.387411 232.578395 
" style="fill: none; stroke: #7f8c8d; stroke-width: 0.8; stroke-linecap: round"/>
   </g>
   <g id="patch_31">
    <path d="M 470.99406 226.748098 
Q 507.959549 256.62911 544.142501 285.87756 
" style="fill: none; opacity: 0.55; stroke: #c0392b; stroke-width: 0.9; stroke-linecap: round"/>
    <path d="M 542.289027 281.807592 
L 544.142501 285.87756 
L 539.774442 284.918359 
" style="fill: none; opacity: 0.55; stroke: #c0392b; stroke-width: 0.9; stroke-linecap: round"/>
   </g>
   <g id="text_21">
    <!-- PhysicsConfig → PhysicsCatalog → outcomes -->
    <g transform="translate(269.737969 15.558281) scale(0.11 -0.11)">
     <defs>
      <path id="DejaVuSans-43" d="M 4122 4306 
L 4122 3641 
Q 3803 3938 3442 4084 
Q 3081 4231 2675 4231 
Q 1875 4231 1450 3742 
Q 1025 3253 1025 2328 
Q 1025 1406 1450 917 
Q 1875 428 2675 428 
Q 3081 428 3442 575 
Q 3803 722 4122 1019 
L 4122 359 
Q 3791 134 3420 21 
Q 3050 -91 2638 -91 
Q 1578 -91 968 557 
Q 359 1206 359 2328 
Q 359 3453 968 4101 
Q 1578 4750 2638 4750 
Q 3056 4750 3426 4639 
Q 3797 4528 4122 4306 
z
" transform="scale(0.015625)"/>
      <path id="DejaVuSans-2192" d="M 5050 2147 
L 5050 1866 
L 3822 638 
L 3447 1013 
L 4175 1741 
L 366 1741 
L 366 2272 
L 4175 2272 
L 3447 3000 
L 3822 3375 
L 5050 2147 
z
" transform="scale(0.015625)"/>
     </defs>
     <use xlink:href="#DejaVuSans-50"/>
     <use xlink:href="#DejaVuSans-68" transform="translate(60.302734 0)"/>
     <use xlink:href="#DejaVuSans-79" transform="translate(123.681641 0)"/>
     <use xlink:href="#DejaVuSans-73" transform="translate(182.861328 0)"/>
     <use xlink:href="#DejaVuSans-69" transform="translate(234.960938 0)"/>
     <use xlink:href="#DejaVuSans-63" transform="translate(262.744141 0)"/>
     <use xlink:href="#DejaVuSans-73" transform="translate(317.724609 0)"/>
     <use xlink:href="#DejaVuSans-43" transform="translate(369.824219 0)"/>
     <use xlink:href="#DejaVuSans-6f" transform="translate(439.648438 0)"/>
     <use xlink:href="#DejaVuSans-6e" transform="translate(500.830078 0)"/>
     <use xlink:href="#DejaVuSans-66" transform="translate(564.208984 0)"/>
     <use xlink:href="#DejaVuSans-69" transform="translate(599.414062 0)"/>
     <use xlink:href="#DejaVuSans-67" transform="translate(627.197266 0)"/>
     <use xlink:href="#DejaVuSans-20" transform="translate(690.673828 0)"/>
     <use xlink:href="#DejaVuSans-2192" transform="translate(722.460938 0)"/>
     <use xlink:href="#DejaVuSans-20" transform="translate(806.25 0)"/>
     <use xlink:href="#DejaVuSans-50" transform="translate(838.037109 0)"/>
     <use xlink:href="#DejaVuSans-68" transform="translate(898.339844 0)"/>
     <use xlink:href="#DejaVuSans-79" transform="translate(961.71875 0)"/>
     <use xlink:href="#DejaVuSans-73" transform="translate(1020.898438 0)"/>
     <use xlink:href="#DejaVuSans-69" transform="translate(1072.998047 0)"/>
     <use xlink:href="#DejaVuSans-63" transform="translate(1100.78125 0)"/>
     <use xlink:href="#DejaVuSans-73" transform="translate(1155.761719 0)"/>
     <use xlink:href="#DejaVuSans-43" transform="translate(1207.861328 0)"/>
     <use xlink:href="#DejaVuSans-61" transform="translate(1277.685547 0)"/>
     <use xlink:href="#DejaVuSans-74" transform="translate(1338.964844 0)"/>
     <use xlink:href="#DejaVuSans-61" transform="translate(1378.173828 0)"/>
     <use xlink:href="#DejaVuSans-6c" transform="translate(1439.453125 0)"/>
     <use xlink:href="#DejaVuSans-6f" transform="translate(1467.236328 0)"/>
     <use xlink:href="#DejaVuSans-67" transform="translate(1528.417969 0)"/>
     <use xlink:href="#DejaVuSans-20" transform="translate(1591.894531 0)"/>
     <use xlink:href="#DejaVuSans-2192" transform="translate(1623.681641 0)"/>
     <use xlink:href="#DejaVuSans-20" transform="translate(1707.470703 0)"/>
     <use xlink:href="#DejaVuSans-6f" transform="translate(1739.257812 0)"/>
     <use xlink:href="#DejaVuSans-75" transform="translate(1800.439453 0)"/>
     <use xlink:href="#DejaVuSans-74" transform="translate(1863.818359 0)"/>
     <use xlink:href="#DejaVuSans-63" transform="translate(1903.027344 0)"/>
     <use xlink:href="#DejaVuSans-6f" transform="translate(1958.007812 0)"/>
     <use xlink:href="#DejaVuSans-6d" transform="translate(2019.189453 0)"/>
     <use xlink:href="#DejaVuSans-65" transform="translate(2116.601562 0)"/>
     <use xlink:href="#DejaVuSans-73" transform="translate(2178.125 0)"/>
    </g>
    <!-- (green = wired plugin; red = structured error, no silent fallback) -->
    <g transform="translate(215.873203 27.875875) scale(0.11 -0.11)">
     <defs>
      <path id="DejaVuSans-28" d="M 1984 4856 
Q 1566 4138 1362 3434 
Q 1159 2731 1159 2009 
Q 1159 1288 1364 580 
Q 1569 -128 1984 -844 
L 1484 -844 
Q 1016 -109 783 600 
Q 550 1309 550 2009 
Q 550 2706 781 3412 
Q 1013 4119 1484 4856 
L 1984 4856 
z
" transform="scale(0.015625)"/>
      <path id="DejaVuSans-3d" d="M 678 2906 
L 4684 2906 
L 4684 2381 
L 678 2381 
L 678 2906 
z
M 678 1631 
L 4684 1631 
L 4684 1100 
L 678 1100 
L 678 1631 
z
" transform="scale(0.015625)"/>
      <path id="DejaVuSans-77" d="M 269 3500 
L 844 3500 
L 1563 769 
L 2278 3500 
L 2956 3500 
L 3675 769 
L 4391 3500 
L 4966 3500 
L 4050 0 
L 3372 0 
L 2619 2869 
L 1863 0 
L 1184 0 
L 269 3500 
z
" transform="scale(0.015625)"/>
      <path id="DejaVuSans-3b" d="M 750 3309 
L 1409 3309 
L 1409 2516 
L 750 2516 
L 750 3309 
z
M 750 794 
L 1409 794 
L 1409 256 
L 897 -744 
L 494 -744 
L 750 256 
L 750 794 
z
" transform="scale(0.015625)"/>
      <path id="DejaVuSans-2c" d="M 750 794 
L 1409 794 
L 1409 256 
L 897 -744 
L 494 -744 
L 750 256 
L 750 794 
z
" transform="scale(0.015625)"/>
      <path id="DejaVuSans-6b" d="M 581 4863 
L 1159 4863 
L 1159 1991 
L 2875 3500 
L 3609 3500 
L 1753 1863 
L 3688 0 
L 2938 0 
L 1159 1709 
L 1159 0 
L 581 0 
L 581 4863 
z
" transform="scale(0.015625)"/>
      <path id="DejaVuSans-29" d="M 513 4856 
L 1013 4856 
Q 1481 4119 1714 3412 
Q 1947 2706 1947 2009 
Q 1947 1309 1714 600 
Q 1481 -109 1013 -844 
L 513 -844 
Q 928 -128 1133 580 
Q 1338 1288 1338 2009 
Q 1338 2731 1133 3434 
Q 928 4138 513 4856 
z
" transform="scale(0.015625)"/>
     </defs>
     <use xlink:href="#DejaVuSans-28"/>
     <use xlink:href="#DejaVuSans-67" transform="translate(39.013672 0)"/>
     <use xlink:href="#DejaVuSans-72" transform="translate(102.490234 0)"/>
     <use xlink:href="#DejaVuSans-65" transform="translate(141.353516 0)"/>
     <use xlink:href="#DejaVuSans-65" transform="translate(202.876953 0)"/>
     <use xlink:href="#DejaVuSans-6e" transform="translate(264.400391 0)"/>
     <use xlink:href="#DejaVuSans-20" transform="translate(327.779297 0)"/>
     <use xlink:href="#DejaVuSans-3d" transform="translate(359.566406 0)"/>
     <use xlink:href="#DejaVuSans-20" transform="translate(443.355469 0)"/>
     <use xlink:href="#DejaVuSans-77" transform="translate(475.142578 0)"/>
     <use xlink:href="#DejaVuSans-69" transform="translate(556.929688 0)"/>
     <use xlink:href="#DejaVuSans-72" transform="translate(584.712891 0)"/>
     <use xlink:href="#DejaVuSans-65" transform="translate(623.576172 0)"/>
     <use xlink:href="#DejaVuSans-64" transform="translate(685.099609 0)"/>
     <use xlink:href="#DejaVuSans-20" transform="translate(748.576172 0)"/>
     <use xlink:href="#DejaVuSans-70" transform="translate(780.363281 0)"/>
     <use xlink:href="#DejaVuSans-6c" transform="translate(843.839844 0)"/>
     <use xlink:href="#DejaVuSans-75" transform="translate(871.623047 0)"/>
     <use xlink:href="#DejaVuSans-67" transform="translate(935.001953 0)"/>
     <use xlink:href="#DejaVuSans-69" transform="translate(998.478516 0)"/>
     <use xlink:href="#DejaVuSans-6e" transform="translate(1026.261719 0)"/>
     <use xlink:href="#DejaVuSans-3b" transform="translate(1089.640625 0)"/>
     <use xlink:href="#DejaVuSans-20" transform="translate(1123.332031 0)"/>
     <use xlink:href="#DejaVuSans-72" transform="translate(1155.119141 0)"/>
     <use xlink:href="#DejaVuSans-65" transform="translate(1193.982422 0)"/>
     <use xlink:href="#DejaVuSans-64" transform="translate(1255.505859 0)"/>
     <use xlink:href="#DejaVuSans-20" transform="translate(1318.982422 0)"/>
     <use xlink:href="#DejaVuSans-3d" transform="translate(1350.769531 0)"/>
     <use xlink:href="#DejaVuSans-20" transform="translate(1434.558594 0)"/>
     <use xlink:href="#DejaVuSans-73" transform="translate(1466.345703 0)"/>
     <use xlink:href="#DejaVuSans-74" transform="translate(1518.445312 0)"/>
     <use xlink:href="#DejaVuSans-72" transform="translate(1557.654297 0)"/>
     <use xlink:href="#DejaVuSans-75" transform="translate(1598.767578 0)"/>
     <use xlink:href="#DejaVuSans-63" transform="translate(1662.146484 0)"/>
     <use xlink:href="#DejaVuSans-74" transform="translate(1717.126953 0)"/>
     <use xlink:href="#DejaVuSans-75" transform="translate(1756.335938 0)"/>
     <use xlink:href="#DejaVuSans-72" transform="translate(1819.714844 0)"/>
     <use xlink:href="#DejaVuSans-65" transform="translate(1858.578125 0)"/>
     <use xlink:href="#DejaVuSans-64" transform="translate(1920.101562 0)"/>
     <use xlink:href="#DejaVuSans-20" transform="translate(1983.578125 0)"/>
     <use xlink:href="#DejaVuSans-65" transform="translate(2015.365234 0)"/>
     <use xlink:href="#DejaVuSans-72" transform="translate(2076.888672 0)"/>
     <use xlink:href="#DejaVuSans-72" transform="translate(2116.251953 0)"/>
     <use xlink:href="#DejaVuSans-6f" transform="translate(2155.115234 0)"/>
     <use xlink:href="#DejaVuSans-72" transform="translate(2216.296875 0)"/>
     <use xlink:href="#DejaVuSans-2c" transform="translate(2257.410156 0)"/>
     <use xlink:href="#DejaVuSans-20" transform="translate(2289.197266 0)"/>
     <use xlink:href="#DejaVuSans-6e" transform="translate(2320.984375 0)"/>
     <use xlink:href="#DejaVuSans-6f" transform="translate(2384.363281 0)"/>
     <use xlink:href="#DejaVuSans-20" transform="translate(2445.544922 0)"/>
     <use xlink:href="#DejaVuSans-73" transform="translate(2477.332031 0)"/>
     <use xlink:href="#DejaVuSans-69" transform="translate(2529.431641 0)"/>
     <use xlink:href="#DejaVuSans-6c" transform="translate(2557.214844 0)"/>
     <use xlink:href="#DejaVuSans-65" transform="translate(2584.998047 0)"/>
     <use xlink:href="#DejaVuSans-6e" transform="translate(2646.521484 0)"/>
     <use xlink:href="#DejaVuSans-74" transform="translate(2709.900391 0)"/>
     <use xlink:href="#DejaVuSans-20" transform="translate(2749.109375 0)"/>
     <use xlink:href="#DejaVuSans-66" transform="translate(2780.896484 0)"/>
     <use xlink:href="#DejaVuSans-61" transform="translate(2816.101562 0)"/>
     <use xlink:href="#DejaVuSans-6c" transform="translate(2877.380859 0)"/>
     <use xlink:href="#DejaVuSans-6c" transform="translate(2905.164062 0)"/>
     <use xlink:href="#DejaVuSans-62" transform="translate(2932.947266 0)"/>
     <use xlink:href="#DejaVuSans-61" transform="translate(2996.423828 0)"/>
     <use xlink:href="#DejaVuSans-63" transform="translate(3057.703125 0)"/>
     <use xlink:href="#DejaVuSans-6b" transform="translate(3112.683594 0)"/>
     <use xlink:href="#DejaVuSans-29" transform="translate(3170.59375 0)"/>
    </g>
   </g>
  </g>
 </g>
 <defs>
  <clipPath id="p998db1444b">
   <rect x="7.2" y="33.875875" width="770.4" height="383.232"/>
  </clipPath>
 </defs>
</svg>
