<?xml version="1.0" encoding="utf-8" standalone="no"?>
<!DOCTYPE svg PUBLIC "-//W3C//DTD SVG 1.1//EN"
  "http://www.w3.org/Graphics/SVG/1.1/DTD/svg11.dtd">
<svg xmlns:xlink="http://www.w3.org/1999/xlink" width="918.045pt" height="395.507875pt" viewBox="0 0 918.045 395.507875" xmlns="http://www.w3.org/2000/svg" version="1.1">
 <metadata>
  <rdf:RDF xmlns:dc="http://purl.org/dc/elements/1.1/" xmlns:cc="http://creativecommons.org/ns#" xmlns:rdf="http://www.w3.org/1999/02/22-rdf-syntax-ns#">
   <cc:Work>
    <dc:type rdf:resource="http://purl.org/dc/dcmitype/StillImage"/>
    <dc:date>2026-05-05T11:43:53.619599</dc:date>
    <dc:format>image/svg+xml</dc:format>
    <dc:creator>
     <cc:Agent>
      <dc:title>Matplotlib v3.10.3, https://matplotlib.org/</dc:title>
     </cc:Agent>
    </dc:creator>
   </cc:Work>
  </rdf:RDF>
 </metadata>
 <defs>
  <style type="text/css">*{stroke-linejoin: round; stroke-linecap: butt}</style>
 </defs>
 <g id="figure_1">
  <g id="patch_1">
   <path d="M 0 395.507875 
L 918.045 395.507875 
L 918.045 0 
L 0 0 
z
" style="fill: #ffffff"/>
  </g>
  <g id="axes_1">
   <g id="patch_2">
    <path d="M -34.506692 118.939555 
L 187.929 118.939555 
L 187.929 58.686115 
L -34.506692 58.686115 
z
" clip-path="url(#pff424d9955)" style="fill: #dceaf7; stroke: #2c5282; stroke-width: 1.4; stroke-linejoin: miter"/>
   </g>
   <g id="patch_3">
    <path d="M 243.537923 118.939555 
L 465.973615 118.939555 
L 465.973615 58.686115 
L 243.537923 58.686115 
z
" clip-path="url(#pff424d9955)" style="fill: #dceaf7; stroke: #2c5282; stroke-width: 1.4; stroke-linejoin: miter"/>
   </g>
   <g id="patch_4">
    <path d="M 521.582538 118.939555 
L 744.018231 118.939555 
L 744.018231 58.686115 
L 521.582538 58.686115 
z
" clip-path="url(#pff424d9955)" style="fill: #dceaf7; stroke: #2c5282; stroke-width: 1.4; stroke-linejoin: miter"/>
   </g>
   <g id="patch_5">
    <path d="M 48.906692 340.105123 
C 54.805756 340.105123 60.464003 337.715031 64.635271 333.461236 
C 68.806539 329.207442 71.150262 323.437249 71.150262 317.421475 
C 71.150262 311.405701 68.806539 305.635508 64.635271 301.381714 
C 60.464003 297.127919 54.805756 294.737827 48.906692 294.737827 
C 43.007629 294.737827 37.349381 297.127919 33.178114 301.381714 
C 29.006846 305.635508 26.663123 311.405701 26.663123 317.421475 
C 26.663123 323.437249 29.006846 329.207442 33.178114 333.461236 
C 37.349381 337.715031 43.007629 340.105123 48.906692 340.105123 
z
" clip-path="url(#pff424d9955)" style="fill: #f1f1f1; stroke: #555555; stroke-linejoin: miter"/>
   </g>
   <g id="patch_6">
    <path d="M 141.588231 340.105123 
C 147.487294 340.105123 153.145542 337.715031 157.316809 333.461236 
C 161.488077 329.207442 163.8318 323.437249 163.8318 317.421475 
C 163.8318 311.405701 161.488077 305.635508 157.316809 301.381714 
C 153.145542 297.127919 147.487294 294.737827 141.588231 294.737827 
C 135.689167 294.737827 130.03092 297.127919 125.859652 301.381714 
C 121.688384 305.635508 119.344662 311.405701 119.344662 317.421475 
C 119.344662 323.437249 121.688384 329.207442 125.859652 333.461236 
C 130.03092 337.715031 135.689167 340.105123 141.588231 340.105123 
z
" clip-path="url(#pff424d9955)" style="fill: #f1f1f1; stroke: #555555; stroke-linejoin: miter"/>
   </g>
   <g id="patch_7">
    <path d="M 234.269769 340.105123 
C 240.168833 340.105123 245.82708 337.715031 249.998348 333.461236 
C 254.169616 329.207442 256.513338 323.437249 256.513338 317.421475 
C 256.513338 311.405701 254.169616 305.635508 249.998348 301.381714 
C 245.82708 297.127919 240.168833 294.737827 234.269769 294.737827 
C 228.370706 294.737827 222.712458 297.127919 218.541191 301.381714 
C 214.369923 305.635508 212.0262 311.405701 212.0262 317.421475 
C 212.0262 323.437249 214.369923 329.207442 218.541191 333.461236 
C 222.712458 337.715031 228.370706 340.105123 234.269769 340.105123 
z
" clip-path="url(#pff424d9955)" style="fill: #f1f1f1; stroke: #555555; stroke-linejoin: miter"/>
   </g>
   <g id="patch_8">
    <path d="M 326.951308 340.105123 
C 332.850371 340.105123 338.508619 337.715031 342.679886 333.461236 
C 346.851154 329.207442 349.194877 323.437249 349.194877 317.421475 
C 349.194877 311.405701 346.851154 305.635508 342.679886 301.381714 
C 338.508619 297.127919 332.850371 294.737827 326.951308 294.737827 
C 321.052244 294.737827 315.393997 297.127919 311.222729 301.381714 
C 307.051461 305.635508 304.707738 311.405701 304.707738 317.421475 
C 304.707738 323.437249 307.051461 329.207442 311.222729 333.461236 
C 315.393997 337.715031 321.052244 340.105123 326.951308 340.105123 
z
" clip-path="url(#pff424d9955)" style="fill: #f1f1f1; stroke: #555555; stroke-linejoin: miter"/>
   </g>
   <g id="patch_9">
    <path d="M 419.632846 340.105123 
C 425.53191 340.105123 431.190157 337.715031 435.361425 333.461236 
C 439.532693 329.207442 441.876415 323.437249 441.876415 317.421475 
C 441.876415 311.405701 439.532693 305.635508 435.361425 301.381714 
C 431.190157 297.127919 425.53191 294.737827 419.632846 294.737827 
C 413.733783 294.737827 408.075535 297.127919 403.904268 301.381714 
C 399.733 305.635508 397.389277 311.405701 397.389277 317.421475 
C 397.389277 323.437249 399.733 329.207442 403.904268 333.461236 
C 408.075535 337.715031 413.733783 340.105123 419.632846 340.105123 
z
" clip-path="url(#pff424d9955)" style="fill: #f1f1f1; stroke: #555555; stroke-linejoin: miter"/>
   </g>
   <g id="patch_10">
    <path d="M 512.314385 340.105123 
C 518.213448 340.105123 523.871695 337.715031 528.042963 333.461236 
C 532.214231 329.207442 534.557954 323.437249 534.557954 317.421475 
C 534.557954 311.405701 532.214231 305.635508 528.042963 301.381714 
C 523.871695 297.127919 518.213448 294.737827 512.314385 294.737827 
C 506.415321 294.737827 500.757074 297.127919 496.585806 301.381714 
C 492.414538 305.635508 490.070815 311.405701 490.070815 317.421475 
C 490.070815 323.437249 492.414538 329.207442 496.585806 333.461236 
C 500.757074 337.715031 506.415321 340.105123 512.314385 340.105123 
z
" clip-path="url(#pff424d9955)" style="fill: #f1f1f1; stroke: #555555; stroke-linejoin: miter"/>
   </g>
   <g id="patch_11">
    <path d="M 604.995923 340.105123 
C 610.894987 340.105123 616.553234 337.715031 620.724502 333.461236 
C 624.89577 329.207442 627.239492 323.437249 627.239492 317.421475 
C 627.239492 311.405701 624.89577 305.635508 620.724502 301.381714 
C 616.553234 297.127919 610.894987 294.737827 604.995923 294.737827 
C 599.09686 294.737827 593.438612 297.127919 589.267344 301.381714 
C 585.096077 305.635508 582.752354 311.405701 582.752354 317.421475 
C 582.752354 323.437249 585.096077 329.207442 589.267344 333.461236 
C 593.438612 337.715031 599.09686 340.105123 604.995923 340.105123 
z
" clip-path="url(#pff424d9955)" style="fill: #f1f1f1; stroke: #555555; stroke-linejoin: miter"/>
   </g>
   <g id="patch_12">
    <path d="M 697.677462 340.105123 
C 703.576525 340.105123 709.234772 337.715031 713.40604 333.461236 
C 717.577308 329.207442 719.921031 323.437249 719.921031 317.421475 
C 719.921031 311.405701 717.577308 305.635508 713.40604 301.381714 
C 709.234772 297.127919 703.576525 294.737827 697.677462 294.737827 
C 691.778398 294.737827 686.120151 297.127919 681.948883 301.381714 
C 677.777615 305.635508 675.433892 311.405701 675.433892 317.421475 
C 675.433892 323.437249 677.777615 329.207442 681.948883 333.461236 
C 686.120151 337.715031 691.778398 340.105123 697.677462 340.105123 
z
" clip-path="url(#pff424d9955)" style="fill: #f1f1f1; stroke: #555555; stroke-linejoin: miter"/>
   </g>
   <g id="patch_13">
    <path d="M 790.359 340.105123 
C 796.258064 340.105123 801.916311 337.715031 806.087579 333.461236 
C 810.258846 329.207442 812.602569 323.437249 812.602569 317.421475 
C 812.602569 311.405701 810.258846 305.635508 806.087579 301.381714 
C 801.916311 297.127919 796.258064 294.737827 790.359 294.737827 
C 784.459936 294.737827 778.801689 297.127919 774.630421 301.381714 
C 770.459154 305.635508 768.115431 311.405701 768.115431 317.421475 
C 768.115431 323.437249 770.459154 329.207442 774.630421 333.461236 
C 778.801689 337.715031 784.459936 340.105123 790.359 340.105123 
z
" clip-path="url(#pff424d9955)" style="fill: #f1f1f1; stroke: #555555; stroke-linejoin: miter"/>
   </g>
   <g id="patch_14">
    <path d="M 883.040538 340.105123 
C 888.939602 340.105123 894.597849 337.715031 898.769117 333.461236 
C 902.940385 329.207442 905.284108 323.437249 905.284108 317.421475 
C 905.284108 311.405701 902.940385 305.635508 898.769117 301.381714 
C 894.597849 297.127919 888.939602 294.737827 883.040538 294.737827 
C 877.141475 294.737827 871.483228 297.127919 867.31196 301.381714 
C 863.140692 305.635508 860.796969 311.405701 860.796969 317.421475 
C 860.796969 323.437249 863.140692 329.207442 867.31196 333.461236 
C 871.483228 337.715031 877.141475 340.105123 883.040538 340.105123 
z
" clip-path="url(#pff424d9955)" style="fill: #f1f1f1; stroke: #555555; stroke-linejoin: miter"/>
   </g>
   <g id="line2d_1"/>
   <g id="line2d_2"/>
   <g id="text_1">
    <!-- LinearAcoustics{PSTD} -->
    <g transform="translate(10.226779 82.71141) scale(0.1 -0.1)">
     <defs>
      <path id="DejaVuSans-Bold-4c" d="M 588 4666 
L 1791 4666 
L 1791 909 
L 3903 909 
L 3903 0 
L 588 0 
L 588 4666 
z
" transform="scale(0.015625)"/>
      <path id="DejaVuSans-Bold-69" d="M 538 3500 
L 1656 3500 
L 1656 0 
L 538 0 
L 538 3500 
z
M 538 4863 
L 1656 4863 
L 1656 3950 
L 538 3950 
L 538 4863 
z
" transform="scale(0.015625)"/>
      <path id="DejaVuSans-Bold-6e" d="M 4056 2131 
L 4056 0 
L 2931 0 
L 2931 347 
L 2931 1631 
Q 2931 2084 2911 2256 
Q 2891 2428 2841 2509 
Q 2775 2619 2662 2680 
Q 2550 2741 2406 2741 
Q 2056 2741 1856 2470 
Q 1656 2200 1656 1722 
L 1656 0 
L 538 0 
L 538 3500 
L 1656 3500 
L 1656 2988 
Q 1909 3294 2193 3439 
Q 2478 3584 2822 3584 
Q 3428 3584 3742 3212 
Q 4056 2841 4056 2131 
z
" transform="scale(0.015625)"/>
      <path id="DejaVuSans-Bold-65" d="M 4031 1759 
L 4031 1441 
L 1416 1441 
Q 1456 1047 1700 850 
Q 1944 653 2381 653 
Q 2734 653 3104 758 
Q 3475 863 3866 1075 
L 3866 213 
Q 3469 63 3072 -14 
Q 2675 -91 2278 -91 
Q 1328 -91 801 392 
Q 275 875 275 1747 
Q 275 2603 792 3093 
Q 1309 3584 2216 3584 
Q 3041 3584 3536 3087 
Q 4031 2591 4031 1759 
z
M 2881 2131 
Q 2881 2450 2695 2645 
Q 2509 2841 2209 2841 
Q 1884 2841 1681 2658 
Q 1478 2475 1428 2131 
L 2881 2131 
z
" transform="scale(0.015625)"/>
      <path id="DejaVuSans-Bold-61" d="M 2106 1575 
Q 1756 1575 1579 1456 
Q 1403 1338 1403 1106 
Q 1403 894 1545 773 
Q 1688 653 1941 653 
Q 2256 653 2472 879 
Q 2688 1106 2688 1447 
L 2688 1575 
L 2106 1575 
z
M 3816 1997 
L 3816 0 
L 2688 0 
L 2688 519 
Q 2463 200 2181 54 
Q 1900 -91 1497 -91 
Q 953 -91 614 226 
Q 275 544 275 1050 
Q 275 1666 698 1953 
Q 1122 2241 2028 2241 
L 2688 2241 
L 2688 2328 
Q 2688 2594 2478 2717 
Q 2269 2841 1825 2841 
Q 1466 2841 1156 2769 
Q 847 2697 581 2553 
L 581 3406 
Q 941 3494 1303 3539 
Q 1666 3584 2028 3584 
Q 2975 3584 3395 3211 
Q 3816 2838 3816 1997 
z
" transform="scale(0.015625)"/>
      <path id="DejaVuSans-Bold-72" d="M 3138 2547 
Q 2991 2616 2845 2648 
Q 2700 2681 2553 2681 
Q 2122 2681 1889 2404 
Q 1656 2128 1656 1613 
L 1656 0 
L 538 0 
L 538 3500 
L 1656 3500 
L 1656 2925 
Q 1872 3269 2151 3426 
Q 2431 3584 2822 3584 
Q 2878 3584 2943 3579 
Q 3009 3575 3134 3559 
L 3138 2547 
z
" transform="scale(0.015625)"/>
      <path id="DejaVuSans-Bold-41" d="M 3419 850 
L 1538 850 
L 1241 0 
L 31 0 
L 1759 4666 
L 3194 4666 
L 4922 0 
L 3713 0 
L 3419 850 
z
M 1838 1716 
L 3116 1716 
L 2478 3572 
L 1838 1716 
z
" transform="scale(0.015625)"/>
      <path id="DejaVuSans-Bold-63" d="M 3366 3391 
L 3366 2478 
Q 3138 2634 2908 2709 
Q 2678 2784 2431 2784 
Q 1963 2784 1702 2511 
Q 1441 2238 1441 1747 
Q 1441 1256 1702 982 
Q 1963 709 2431 709 
Q 2694 709 2930 787 
Q 3166 866 3366 1019 
L 3366 103 
Q 3103 6 2833 -42 
Q 2563 -91 2291 -91 
Q 1344 -91 809 395 
Q 275 881 275 1747 
Q 275 2613 809 3098 
Q 1344 3584 2291 3584 
Q 2566 3584 2833 3536 
Q 3100 3488 3366 3391 
z
" transform="scale(0.015625)"/>
      <path id="DejaVuSans-Bold-6f" d="M 2203 2784 
Q 1831 2784 1636 2517 
Q 1441 2250 1441 1747 
Q 1441 1244 1636 976 
Q 1831 709 2203 709 
Q 2569 709 2762 976 
Q 2956 1244 2956 1747 
Q 2956 2250 2762 2517 
Q 2569 2784 2203 2784 
z
M 2203 3584 
Q 3106 3584 3614 3096 
Q 4122 2609 4122 1747 
Q 4122 884 3614 396 
Q 3106 -91 2203 -91 
Q 1297 -91 786 396 
Q 275 884 275 1747 
Q 275 2609 786 3096 
Q 1297 3584 2203 3584 
z
" transform="scale(0.015625)"/>
      <path id="DejaVuSans-Bold-75" d="M 500 1363 
L 500 3500 
L 1625 3500 
L 1625 3150 
Q 1625 2866 1622 2436 
Q 1619 2006 1619 1863 
Q 1619 1441 1641 1255 
Q 1663 1069 1716 984 
Q 1784 875 1895 815 
Q 2006 756 2150 756 
Q 2500 756 2700 1025 
Q 2900 1294 2900 1772 
L 2900 3500 
L 4019 3500 
L 4019 0 
L 2900 0 
L 2900 506 
Q 2647 200 2364 54 
Q 2081 -91 1741 -91 
Q 1134 -91 817 281 
Q 500 653 500 1363 
z
" transform="scale(0.015625)"/>
      <path id="DejaVuSans-Bold-73" d="M 3272 3391 
L 3272 2541 
Q 2913 2691 2578 2766 
Q 2244 2841 1947 2841 
Q 1628 2841 1473 2761 
Q 1319 2681 1319 2516 
Q 1319 2381 1436 2309 
Q 1553 2238 1856 2203 
L 2053 2175 
Q 2913 2066 3209 1816 
Q 3506 1566 3506 1031 
Q 3506 472 3093 190 
Q 2681 -91 1863 -91 
Q 1516 -91 1145 -36 
Q 775 19 384 128 
L 384 978 
Q 719 816 1070 734 
Q 1422 653 1784 653 
Q 2113 653 2278 743 
Q 2444 834 2444 1013 
Q 2444 1163 2330 1236 
Q 2216 1309 1875 1350 
L 1678 1375 
Q 931 1469 631 1722 
Q 331 1975 331 2491 
Q 331 3047 712 3315 
Q 1094 3584 1881 3584 
Q 2191 3584 2531 3537 
Q 2872 3491 3272 3391 
z
" transform="scale(0.015625)"/>
      <path id="DejaVuSans-Bold-74" d="M 1759 4494 
L 1759 3500 
L 2913 3500 
L 2913 2700 
L 1759 2700 
L 1759 1216 
Q 1759 972 1856 886 
Q 1953 800 2241 800 
L 2816 800 
L 2816 0 
L 1856 0 
Q 1194 0 917 276 
Q 641 553 641 1216 
L 641 2700 
L 84 2700 
L 84 3500 
L 641 3500 
L 641 4494 
L 1759 4494 
z
" transform="scale(0.015625)"/>
      <path id="DejaVuSans-Bold-7b" d="M 3756 -341 
L 3756 -1044 
L 3078 -1044 
Q 2397 -1044 2084 -769 
Q 1772 -494 1772 109 
L 1772 709 
Q 1772 1178 1603 1361 
Q 1434 1544 991 1544 
L 800 1544 
L 800 2241 
L 991 2241 
Q 1434 2241 1603 2422 
Q 1772 2603 1772 3072 
L 1772 3713 
Q 1772 4316 2084 4589 
Q 2397 4863 3078 4863 
L 3756 4863 
L 3756 4159 
L 3541 4159 
Q 3100 4159 2967 4023 
Q 2834 3888 2834 3444 
L 2834 2925 
Q 2834 2434 2693 2212 
Q 2553 1991 2209 1913 
Q 2556 1828 2695 1606 
Q 2834 1384 2834 897 
L 2834 378 
Q 2834 -69 2967 -205 
Q 3100 -341 3541 -341 
L 3756 -341 
z
" transform="scale(0.015625)"/>
      <path id="DejaVuSans-Bold-50" d="M 588 4666 
L 2584 4666 
Q 3475 4666 3951 4270 
Q 4428 3875 4428 3144 
Q 4428 2409 3951 2014 
Q 3475 1619 2584 1619 
L 1791 1619 
L 1791 0 
L 588 0 
L 588 4666 
z
M 1791 3794 
L 1791 2491 
L 2456 2491 
Q 2806 2491 2997 2661 
Q 3188 2831 3188 3144 
Q 3188 3456 2997 3625 
Q 2806 3794 2456 3794 
L 1791 3794 
z
" transform="scale(0.015625)"/>
      <path id="DejaVuSans-Bold-53" d="M 3834 4519 
L 3834 3531 
Q 3450 3703 3084 3790 
Q 2719 3878 2394 3878 
Q 1963 3878 1756 3759 
Q 1550 3641 1550 3391 
Q 1550 3203 1689 3098 
Q 1828 2994 2194 2919 
L 2706 2816 
Q 3484 2659 3812 2340 
Q 4141 2022 4141 1434 
Q 4141 663 3683 286 
Q 3225 -91 2284 -91 
Q 1841 -91 1394 -6 
Q 947 78 500 244 
L 500 1259 
Q 947 1022 1364 901 
Q 1781 781 2169 781 
Q 2563 781 2772 912 
Q 2981 1044 2981 1288 
Q 2981 1506 2839 1625 
Q 2697 1744 2272 1838 
L 1806 1941 
Q 1106 2091 782 2419 
Q 459 2747 459 3303 
Q 459 4000 909 4375 
Q 1359 4750 2203 4750 
Q 2588 4750 2994 4692 
Q 3400 4634 3834 4519 
z
" transform="scale(0.015625)"/>
      <path id="DejaVuSans-Bold-54" d="M 31 4666 
L 4331 4666 
L 4331 3756 
L 2784 3756 
L 2784 0 
L 1581 0 
L 1581 3756 
L 31 3756 
L 31 4666 
z
" transform="scale(0.015625)"/>
      <path id="DejaVuSans-Bold-44" d="M 1791 3756 
L 1791 909 
L 2222 909 
Q 2959 909 3348 1275 
Q 3738 1641 3738 2338 
Q 3738 3031 3350 3393 
Q 2963 3756 2222 3756 
L 1791 3756 
z
M 588 4666 
L 1856 4666 
Q 2919 4666 3439 4514 
Q 3959 4363 4331 4000 
Q 4659 3684 4818 3271 
Q 4978 2859 4978 2338 
Q 4978 1809 4818 1395 
Q 4659 981 4331 666 
Q 3956 303 3431 151 
Q 2906 0 1856 0 
L 588 0 
L 588 4666 
z
" transform="scale(0.015625)"/>
      <path id="DejaVuSans-Bold-7d" d="M 800 -341 
L 1019 -341 
Q 1456 -341 1589 -205 
Q 1722 -69 1722 378 
L 1722 897 
Q 1722 1384 1862 1606 
Q 2003 1828 2350 1913 
Q 2003 1991 1862 2212 
Q 1722 2434 1722 2925 
L 1722 3444 
Q 1722 3888 1589 4023 
Q 1456 4159 1019 4159 
L 800 4159 
L 800 4863 
L 1478 4863 
Q 2159 4863 2471 4589 
Q 2784 4316 2784 3713 
L 2784 3072 
Q 2784 2603 2953 2422 
Q 3122 2241 3566 2241 
L 3756 2241 
L 3756 1544 
L 3566 1544 
Q 3122 1544 2953 1361 
Q 2784 1178 2784 709 
L 2784 109 
Q 2784 -494 2471 -769 
Q 2159 -1044 1478 -1044 
L 800 -1044 
L 800 -341 
z
" transform="scale(0.015625)"/>
     </defs>
     <use xlink:href="#DejaVuSans-Bold-4c"/>
     <use xlink:href="#DejaVuSans-Bold-69" transform="translate(63.720703 0)"/>
     <use xlink:href="#DejaVuSans-Bold-6e" transform="translate(97.998047 0)"/>
     <use xlink:href="#DejaVuSans-Bold-65" transform="translate(169.189453 0)"/>
     <use xlink:href="#DejaVuSans-Bold-61" transform="translate(237.011719 0)"/>
     <use xlink:href="#DejaVuSans-Bold-72" transform="translate(304.492188 0)"/>
     <use xlink:href="#DejaVuSans-Bold-41" transform="translate(353.808594 0)"/>
     <use xlink:href="#DejaVuSans-Bold-63" transform="translate(431.201172 0)"/>
     <use xlink:href="#DejaVuSans-Bold-6f" transform="translate(490.478516 0)"/>
     <use xlink:href="#DejaVuSans-Bold-75" transform="translate(559.179688 0)"/>
     <use xlink:href="#DejaVuSans-Bold-73" transform="translate(630.371094 0)"/>
     <use xlink:href="#DejaVuSans-Bold-74" transform="translate(689.892578 0)"/>
     <use xlink:href="#DejaVuSans-Bold-69" transform="translate(737.695312 0)"/>
     <use xlink:href="#DejaVuSans-Bold-63" transform="translate(771.972656 0)"/>
     <use xlink:href="#DejaVuSans-Bold-73" transform="translate(831.25 0)"/>
     <use xlink:href="#DejaVuSans-Bold-7b" transform="translate(890.771484 0)"/>
     <use xlink:href="#DejaVuSans-Bold-50" transform="translate(961.962891 0)"/>
     <use xlink:href="#DejaVuSans-Bold-53" transform="translate(1035.253906 0)"/>
     <use xlink:href="#DejaVuSans-Bold-54" transform="translate(1107.275391 0)"/>
     <use xlink:href="#DejaVuSans-Bold-44" transform="translate(1175.488281 0)"/>
     <use xlink:href="#DejaVuSans-Bold-7d" transform="translate(1258.496094 0)"/>
    </g>
   </g>
   <g id="text_2">
    <!-- order π = 0 -->
    <g transform="translate(53.855529 103.425455) scale(0.08 -0.08)">
     <defs>
      <path id="DejaVuSans-Oblique-6f" d="M 1625 -91 
Q 1009 -91 651 289 
Q 294 669 294 1325 
Q 294 1706 417 2101 
Q 541 2497 738 2766 
Q 1047 3184 1428 3384 
Q 1809 3584 2291 3584 
Q 2888 3584 3255 3212 
Q 3622 2841 3622 2241 
Q 3622 1825 3500 1412 
Q 3378 1000 3181 728 
Q 2875 309 2494 109 
Q 2113 -91 1625 -91 
z
M 891 1344 
Q 891 869 1089 633 
Q 1288 397 1691 397 
Q 2269 397 2648 901 
Q 3028 1406 3028 2181 
Q 3028 2634 2825 2865 
Q 2622 3097 2228 3097 
Q 1903 3097 1650 2945 
Q 1397 2794 1197 2484 
Q 1050 2253 970 1956 
Q 891 1659 891 1344 
z
" transform="scale(0.015625)"/>
      <path id="DejaVuSans-Oblique-72" d="M 2853 2969 
Q 2766 3016 2653 3041 
Q 2541 3066 2413 3066 
Q 1953 3066 1609 2717 
Q 1266 2369 1153 1784 
L 800 0 
L 225 0 
L 909 3500 
L 1484 3500 
L 1375 2956 
Q 1603 3259 1920 3421 
Q 2238 3584 2597 3584 
Q 2691 3584 2781 3573 
Q 2872 3563 2963 3538 
L 2853 2969 
z
" transform="scale(0.015625)"/>
      <path id="DejaVuSans-Oblique-64" d="M 2675 525 
Q 2444 222 2128 65 
Q 1813 -91 1428 -91 
Q 903 -91 598 267 
Q 294 625 294 1247 
Q 294 1766 478 2236 
Q 663 2706 1013 3078 
Q 1244 3325 1534 3454 
Q 1825 3584 2144 3584 
Q 2481 3584 2739 3421 
Q 2997 3259 3138 2956 
L 3513 4863 
L 4091 4863 
L 3144 0 
L 2566 0 
L 2675 525 
z
M 891 1350 
Q 891 897 1095 644 
Q 1300 391 1663 391 
Q 1931 391 2161 520 
Q 2391 650 2566 903 
Q 2750 1166 2856 1509 
Q 2963 1853 2963 2188 
Q 2963 2622 2758 2865 
Q 2553 3109 2194 3109 
Q 1922 3109 1687 2981 
Q 1453 2853 1288 2613 
Q 1106 2353 998 2009 
Q 891 1666 891 1350 
z
" transform="scale(0.015625)"/>
      <path id="DejaVuSans-Oblique-65" d="M 3078 2063 
Q 3088 2113 3092 2166 
Q 3097 2219 3097 2272 
Q 3097 2653 2873 2875 
Q 2650 3097 2266 3097 
Q 1838 3097 1509 2826 
Q 1181 2556 1013 2059 
L 3078 2063 
z
M 3578 1613 
L 903 1613 
Q 884 1494 878 1425 
Q 872 1356 872 1306 
Q 872 872 1139 634 
Q 1406 397 1894 397 
Q 2269 397 2603 481 
Q 2938 566 3225 728 
L 3116 159 
Q 2806 34 2476 -28 
Q 2147 -91 1806 -91 
Q 1078 -91 686 257 
Q 294 606 294 1247 
Q 294 1794 489 2264 
Q 684 2734 1063 3103 
Q 1306 3334 1642 3459 
Q 1978 3584 2356 3584 
Q 2950 3584 3301 3228 
Q 3653 2872 3653 2272 
Q 3653 2128 3634 1964 
Q 3616 1800 3578 1613 
z
" transform="scale(0.015625)"/>
      <path id="DejaVuSans-Oblique-20" transform="scale(0.015625)"/>
      <path id="DejaVuSans-Oblique-3c0" d="M 584 3500 
L 3938 3500 
L 3825 2925 
L 3384 2925 
L 2966 775 
Q 2922 550 2981 450 
Q 3038 353 3209 353 
Q 3256 353 3325 363 
Q 3397 369 3419 372 
L 3338 -44 
Q 3222 -84 3103 -103 
Q 2981 -122 2866 -122 
Q 2491 -122 2388 81 
Q 2284 288 2391 838 
L 2797 2925 
L 1506 2925 
L 938 0 
L 350 0 
L 919 2925 
L 472 2925 
L 584 3500 
z
" transform="scale(0.015625)"/>
      <path id="DejaVuSans-Oblique-3d" d="M 678 2906 
L 4684 2906 
L 4684 2381 
L 678 2381 
L 678 2906 
z
M 678 1631 
L 4684 1631 
L 4684 1100 
L 678 1100 
L 678 1631 
z
" transform="scale(0.015625)"/>
      <path id="DejaVuSans-Oblique-30" d="M 2444 4750 
Q 3078 4750 3414 4328 
Q 3750 3906 3750 3116 
Q 3750 2516 3592 1923 
Q 3434 1331 3150 863 
Q 2859 394 2467 151 
Q 2075 -91 1600 -91 
Q 988 -91 653 334 
Q 319 759 319 1544 
Q 319 2138 480 2733 
Q 641 3328 928 3794 
Q 1216 4263 1602 4506 
Q 1988 4750 2444 4750 
z
M 2406 4250 
Q 2169 4250 1955 4123 
Q 1741 3997 1569 3750 
Q 1281 3338 1111 2720 
Q 941 2103 941 1453 
Q 941 938 1123 673 
Q 1306 409 1663 409 
Q 1913 409 2125 536 
Q 2338 663 2509 909 
Q 2794 1319 2961 1936 
Q 3128 2553 3128 3206 
Q 3128 3722 2945 3986 
Q 2763 4250 2406 4250 
z
" transform="scale(0.015625)"/>
     </defs>
     <use xlink:href="#DejaVuSans-Oblique-6f"/>
     <use xlink:href="#DejaVuSans-Oblique-72" transform="translate(61.181641 0)"/>
     <use xlink:href="#DejaVuSans-Oblique-64" transform="translate(102.294922 0)"/>
     <use xlink:href="#DejaVuSans-Oblique-65" transform="translate(165.771484 0)"/>
     <use xlink:href="#DejaVuSans-Oblique-72" transform="translate(227.294922 0)"/>
     <use xlink:href="#DejaVuSans-Oblique-20" transform="translate(268.408203 0)"/>
     <use xlink:href="#DejaVuSans-Oblique-3c0" transform="translate(300.195312 0)"/>
     <use xlink:href="#DejaVuSans-Oblique-20" transform="translate(360.400391 0)"/>
     <use xlink:href="#DejaVuSans-Oblique-3d" transform="translate(392.1875 0)"/>
     <use xlink:href="#DejaVuSans-Oblique-20" transform="translate(475.976562 0)"/>
     <use xlink:href="#DejaVuSans-Oblique-30" transform="translate(507.763672 0)"/>
    </g>
   </g>
   <g id="text_3">
    <!-- ThermalDiffusion -->
    <g transform="translate(306.171394 82.71141) scale(0.1 -0.1)">
     <defs>
      <path id="DejaVuSans-Bold-68" d="M 4056 2131 
L 4056 0 
L 2931 0 
L 2931 347 
L 2931 1625 
Q 2931 2084 2911 2256 
Q 2891 2428 2841 2509 
Q 2775 2619 2662 2680 
Q 2550 2741 2406 2741 
Q 2056 2741 1856 2470 
Q 1656 2200 1656 1722 
L 1656 0 
L 538 0 
L 538 4863 
L 1656 4863 
L 1656 2988 
Q 1909 3294 2193 3439 
Q 2478 3584 2822 3584 
Q 3428 3584 3742 3212 
Q 4056 2841 4056 2131 
z
" transform="scale(0.015625)"/>
      <path id="DejaVuSans-Bold-6d" d="M 3781 2919 
Q 3994 3244 4286 3414 
Q 4578 3584 4928 3584 
Q 5531 3584 5847 3212 
Q 6163 2841 6163 2131 
L 6163 0 
L 5038 0 
L 5038 1825 
Q 5041 1866 5042 1909 
Q 5044 1953 5044 2034 
Q 5044 2406 4934 2573 
Q 4825 2741 4581 2741 
Q 4263 2741 4089 2478 
Q 3916 2216 3909 1719 
L 3909 0 
L 2784 0 
L 2784 1825 
Q 2784 2406 2684 2573 
Q 2584 2741 2328 2741 
Q 2006 2741 1831 2477 
Q 1656 2213 1656 1722 
L 1656 0 
L 531 0 
L 531 3500 
L 1656 3500 
L 1656 2988 
Q 1863 3284 2130 3434 
Q 2397 3584 2719 3584 
Q 3081 3584 3359 3409 
Q 3638 3234 3781 2919 
z
" transform="scale(0.015625)"/>
      <path id="DejaVuSans-Bold-6c" d="M 538 4863 
L 1656 4863 
L 1656 0 
L 538 0 
L 538 4863 
z
" transform="scale(0.015625)"/>
      <path id="DejaVuSans-Bold-66" d="M 2841 4863 
L 2841 4128 
L 2222 4128 
Q 1984 4128 1890 4042 
Q 1797 3956 1797 3744 
L 1797 3500 
L 2753 3500 
L 2753 2700 
L 1797 2700 
L 1797 0 
L 678 0 
L 678 2700 
L 122 2700 
L 122 3500 
L 678 3500 
L 678 3744 
Q 678 4316 997 4589 
Q 1316 4863 1984 4863 
L 2841 4863 
z
" transform="scale(0.015625)"/>
     </defs>
     <use xlink:href="#DejaVuSans-Bold-54"/>
     <use xlink:href="#DejaVuSans-Bold-68" transform="translate(68.212891 0)"/>
     <use xlink:href="#DejaVuSans-Bold-65" transform="translate(139.404297 0)"/>
     <use xlink:href="#DejaVuSans-Bold-72" transform="translate(207.226562 0)"/>
     <use xlink:href="#DejaVuSans-Bold-6d" transform="translate(256.542969 0)"/>
     <use xlink:href="#DejaVuSans-Bold-61" transform="translate(360.742188 0)"/>
     <use xlink:href="#DejaVuSans-Bold-6c" transform="translate(428.222656 0)"/>
     <use xlink:href="#DejaVuSans-Bold-44" transform="translate(462.5 0)"/>
     <use xlink:href="#DejaVuSans-Bold-69" transform="translate(545.507812 0)"/>
     <use xlink:href="#DejaVuSans-Bold-66" transform="translate(579.785156 0)"/>
     <use xlink:href="#DejaVuSans-Bold-66" transform="translate(623.291016 0)"/>
     <use xlink:href="#DejaVuSans-Bold-75" transform="translate(666.796875 0)"/>
     <use xlink:href="#DejaVuSans-Bold-73" transform="translate(737.988281 0)"/>
     <use xlink:href="#DejaVuSans-Bold-69" transform="translate(797.509766 0)"/>
     <use xlink:href="#DejaVuSans-Bold-6f" transform="translate(831.787109 0)"/>
     <use xlink:href="#DejaVuSans-Bold-6e" transform="translate(900.488281 0)"/>
    </g>
   </g>
   <g id="text_4">
    <!-- order π = 1 -->
    <g transform="translate(331.900144 103.425455) scale(0.08 -0.08)">
     <defs>
      <path id="DejaVuSans-Oblique-31" d="M 416 531 
L 1447 531 
L 2144 4122 
L 978 3897 
L 1088 4441 
L 2247 4666 
L 2881 4666 
L 2075 531 
L 3103 531 
L 3003 0 
L 313 0 
L 416 531 
z
" transform="scale(0.015625)"/>
     </defs>
     <use xlink:href="#DejaVuSans-Oblique-6f"/>
     <use xlink:href="#DejaVuSans-Oblique-72" transform="translate(61.181641 0)"/>
     <use xlink:href="#DejaVuSans-Oblique-64" transform="translate(102.294922 0)"/>
     <use xlink:href="#DejaVuSans-Oblique-65" transform="translate(165.771484 0)"/>
     <use xlink:href="#DejaVuSans-Oblique-72" transform="translate(227.294922 0)"/>
     <use xlink:href="#DejaVuSans-Oblique-20" transform="translate(268.408203 0)"/>
     <use xlink:href="#DejaVuSans-Oblique-3c0" transform="translate(300.195312 0)"/>
     <use xlink:href="#DejaVuSans-Oblique-20" transform="translate(360.400391 0)"/>
     <use xlink:href="#DejaVuSans-Oblique-3d" transform="translate(392.1875 0)"/>
     <use xlink:href="#DejaVuSans-Oblique-20" transform="translate(475.976562 0)"/>
     <use xlink:href="#DejaVuSans-Oblique-31" transform="translate(507.763672 0)"/>
    </g>
   </g>
   <g id="text_5">
    <!-- MechanicalStress -->
    <g transform="translate(583.410541 82.71141) scale(0.1 -0.1)">
     <defs>
      <path id="DejaVuSans-Bold-4d" d="M 588 4666 
L 2119 4666 
L 3181 2169 
L 4250 4666 
L 5778 4666 
L 5778 0 
L 4641 0 
L 4641 3413 
L 3566 897 
L 2803 897 
L 1728 3413 
L 1728 0 
L 588 0 
L 588 4666 
z
" transform="scale(0.015625)"/>
     </defs>
     <use xlink:href="#DejaVuSans-Bold-4d"/>
     <use xlink:href="#DejaVuSans-Bold-65" transform="translate(99.511719 0)"/>
     <use xlink:href="#DejaVuSans-Bold-63" transform="translate(167.333984 0)"/>
     <use xlink:href="#DejaVuSans-Bold-68" transform="translate(226.611328 0)"/>
     <use xlink:href="#DejaVuSans-Bold-61" transform="translate(297.802734 0)"/>
     <use xlink:href="#DejaVuSans-Bold-6e" transform="translate(365.283203 0)"/>
     <use xlink:href="#DejaVuSans-Bold-69" transform="translate(436.474609 0)"/>
     <use xlink:href="#DejaVuSans-Bold-63" transform="translate(470.751953 0)"/>
     <use xlink:href="#DejaVuSans-Bold-61" transform="translate(530.029297 0)"/>
     <use xlink:href="#DejaVuSans-Bold-6c" transform="translate(597.509766 0)"/>
     <use xlink:href="#DejaVuSans-Bold-53" transform="translate(631.787109 0)"/>
     <use xlink:href="#DejaVuSans-Bold-74" transform="translate(703.808594 0)"/>
     <use xlink:href="#DejaVuSans-Bold-72" transform="translate(751.611328 0)"/>
     <use xlink:href="#DejaVuSans-Bold-65" transform="translate(800.927734 0)"/>
     <use xlink:href="#DejaVuSans-Bold-73" transform="translate(868.75 0)"/>
     <use xlink:href="#DejaVuSans-Bold-73" transform="translate(928.271484 0)"/>
    </g>
   </g>
   <g id="text_6">
    <!-- order π = 2 -->
    <g transform="translate(609.94476 103.425455) scale(0.08 -0.08)">
     <defs>
      <path id="DejaVuSans-Oblique-32" d="M 2950 2253 
L 934 525 
L 3163 525 
L 3053 0 
L 25 0 
L 128 531 
L 2234 2338 
Q 2656 2703 2832 2979 
Q 3009 3256 3009 3547 
Q 3009 3850 2796 4040 
Q 2584 4231 2241 4231 
Q 1944 4231 1581 4125 
Q 1219 4019 806 3816 
L 922 4441 
Q 1309 4594 1662 4672 
Q 2016 4750 2316 4750 
Q 2928 4750 3301 4425 
Q 3675 4100 3675 3572 
Q 3675 3216 3497 2892 
Q 3319 2569 2950 2253 
z
" transform="scale(0.015625)"/>
     </defs>
     <use xlink:href="#DejaVuSans-Oblique-6f"/>
     <use xlink:href="#DejaVuSans-Oblique-72" transform="translate(61.181641 0)"/>
     <use xlink:href="#DejaVuSans-Oblique-64" transform="translate(102.294922 0)"/>
     <use xlink:href="#DejaVuSans-Oblique-65" transform="translate(165.771484 0)"/>
     <use xlink:href="#DejaVuSans-Oblique-72" transform="translate(227.294922 0)"/>
     <use xlink:href="#DejaVuSans-Oblique-20" transform="translate(268.408203 0)"/>
     <use xlink:href="#DejaVuSans-Oblique-3c0" transform="translate(300.195312 0)"/>
     <use xlink:href="#DejaVuSans-Oblique-20" transform="translate(360.400391 0)"/>
     <use xlink:href="#DejaVuSans-Oblique-3d" transform="translate(392.1875 0)"/>
     <use xlink:href="#DejaVuSans-Oblique-20" transform="translate(475.976562 0)"/>
     <use xlink:href="#DejaVuSans-Oblique-32" transform="translate(507.763672 0)"/>
    </g>
   </g>
   <g id="text_7">
    <!-- Density -->
    <g transform="translate(35.371914 374.317384) rotate(-20) scale(0.08 -0.08)">
     <defs>
      <path id="DejaVuSans-44" d="M 1259 4147 
L 1259 519 
L 2022 519 
Q 2988 519 3436 956 
Q 3884 1394 3884 2338 
Q 3884 3275 3436 3711 
Q 2988 4147 2022 4147 
L 1259 4147 
z
M 628 4666 
L 1925 4666 
Q 3281 4666 3915 4102 
Q 4550 3538 4550 2338 
Q 4550 1131 3912 565 
Q 3275 0 1925 0 
L 628 0 
L 628 4666 
z
" transform="scale(0.015625)"/>
      <path id="DejaVuSans-65" d="M 3597 1894 
L 3597 1613 
L 953 1613 
Q 991 1019 1311 708 
Q 1631 397 2203 397 
Q 2534 397 2845 478 
Q 3156 559 3463 722 
L 3463 178 
Q 3153 47 2828 -22 
Q 2503 -91 2169 -91 
Q 1331 -91 842 396 
Q 353 884 353 1716 
Q 353 2575 817 3079 
Q 1281 3584 2069 3584 
Q 2775 3584 3186 3129 
Q 3597 2675 3597 1894 
z
M 3022 2063 
Q 3016 2534 2758 2815 
Q 2500 3097 2075 3097 
Q 1594 3097 1305 2825 
Q 1016 2553 972 2059 
L 3022 2063 
z
" transform="scale(0.015625)"/>
      <path id="DejaVuSans-6e" d="M 3513 2113 
L 3513 0 
L 2938 0 
L 2938 2094 
Q 2938 2591 2744 2837 
Q 2550 3084 2163 3084 
Q 1697 3084 1428 2787 
Q 1159 2491 1159 1978 
L 1159 0 
L 581 0 
L 581 3500 
L 1159 3500 
L 1159 2956 
Q 1366 3272 1645 3428 
Q 1925 3584 2291 3584 
Q 2894 3584 3203 3211 
Q 3513 2838 3513 2113 
z
" transform="scale(0.015625)"/>
      <path id="DejaVuSans-73" d="M 2834 3397 
L 2834 2853 
Q 2591 2978 2328 3040 
Q 2066 3103 1784 3103 
Q 1356 3103 1142 2972 
Q 928 2841 928 2578 
Q 928 2378 1081 2264 
Q 1234 2150 1697 2047 
L 1894 2003 
Q 2506 1872 2764 1633 
Q 3022 1394 3022 966 
Q 3022 478 2636 193 
Q 2250 -91 1575 -91 
Q 1294 -91 989 -36 
Q 684 19 347 128 
L 347 722 
Q 666 556 975 473 
Q 1284 391 1588 391 
Q 1994 391 2212 530 
Q 2431 669 2431 922 
Q 2431 1156 2273 1281 
Q 2116 1406 1581 1522 
L 1381 1569 
Q 847 1681 609 1914 
Q 372 2147 372 2553 
Q 372 3047 722 3315 
Q 1072 3584 1716 3584 
Q 2034 3584 2315 3537 
Q 2597 3491 2834 3397 
z
" transform="scale(0.015625)"/>
      <path id="DejaVuSans-69" d="M 603 3500 
L 1178 3500 
L 1178 0 
L 603 0 
L 603 3500 
z
M 603 4863 
L 1178 4863 
L 1178 4134 
L 603 4134 
L 603 4863 
z
" transform="scale(0.015625)"/>
      <path id="DejaVuSans-74" d="M 1172 4494 
L 1172 3500 
L 2356 3500 
L 2356 3053 
L 1172 3053 
L 1172 1153 
Q 1172 725 1289 603 
Q 1406 481 1766 481 
L 2356 481 
L 2356 0 
L 1766 0 
Q 1100 0 847 248 
Q 594 497 594 1153 
L 594 3053 
L 172 3053 
L 172 3500 
L 594 3500 
L 594 4494 
L 1172 4494 
z
" transform="scale(0.015625)"/>
      <path id="DejaVuSans-79" d="M 2059 -325 
Q 1816 -950 1584 -1140 
Q 1353 -1331 966 -1331 
L 506 -1331 
L 506 -850 
L 844 -850 
Q 1081 -850 1212 -737 
Q 1344 -625 1503 -206 
L 1606 56 
L 191 3500 
L 800 3500 
L 1894 763 
L 2988 3500 
L 3597 3500 
L 2059 -325 
z
" transform="scale(0.015625)"/>
     </defs>
     <use xlink:href="#DejaVuSans-44"/>
     <use xlink:href="#DejaVuSans-65" transform="translate(77.001953 0)"/>
     <use xlink:href="#DejaVuSans-6e" transform="translate(138.525391 0)"/>
     <use xlink:href="#DejaVuSans-73" transform="translate(201.904297 0)"/>
     <use xlink:href="#DejaVuSans-69" transform="translate(254.003906 0)"/>
     <use xlink:href="#DejaVuSans-74" transform="translate(281.787109 0)"/>
     <use xlink:href="#DejaVuSans-79" transform="translate(320.996094 0)"/>
    </g>
   </g>
   <g id="text_8">
    <!-- Pressure -->
    <g transform="translate(126.297401 374.956534) rotate(-20) scale(0.08 -0.08)">
     <defs>
      <path id="DejaVuSans-50" d="M 1259 4147 
L 1259 2394 
L 2053 2394 
Q 2494 2394 2734 2622 
Q 2975 2850 2975 3272 
Q 2975 3691 2734 3919 
Q 2494 4147 2053 4147 
L 1259 4147 
z
M 628 4666 
L 2053 4666 
Q 2838 4666 3239 4311 
Q 3641 3956 3641 3272 
Q 3641 2581 3239 2228 
Q 2838 1875 2053 1875 
L 1259 1875 
L 1259 0 
L 628 0 
L 628 4666 
z
" transform="scale(0.015625)"/>
      <path id="DejaVuSans-72" d="M 2631 2963 
Q 2534 3019 2420 3045 
Q 2306 3072 2169 3072 
Q 1681 3072 1420 2755 
Q 1159 2438 1159 1844 
L 1159 0 
L 581 0 
L 581 3500 
L 1159 3500 
L 1159 2956 
Q 1341 3275 1631 3429 
Q 1922 3584 2338 3584 
Q 2397 3584 2469 3576 
Q 2541 3569 2628 3553 
L 2631 2963 
z
" transform="scale(0.015625)"/>
      <path id="DejaVuSans-75" d="M 544 1381 
L 544 3500 
L 1119 3500 
L 1119 1403 
Q 1119 906 1312 657 
Q 1506 409 1894 409 
Q 2359 409 2629 706 
Q 2900 1003 2900 1516 
L 2900 3500 
L 3475 3500 
L 3475 0 
L 2900 0 
L 2900 538 
Q 2691 219 2414 64 
Q 2138 -91 1772 -91 
Q 1169 -91 856 284 
Q 544 659 544 1381 
z
M 1991 3584 
L 1991 3584 
z
" transform="scale(0.015625)"/>
     </defs>
     <use xlink:href="#DejaVuSans-50"/>
     <use xlink:href="#DejaVuSans-72" transform="translate(58.552734 0)"/>
     <use xlink:href="#DejaVuSans-65" transform="translate(97.416016 0)"/>
     <use xlink:href="#DejaVuSans-73" transform="translate(158.939453 0)"/>
     <use xlink:href="#DejaVuSans-73" transform="translate(211.039062 0)"/>
     <use xlink:href="#DejaVuSans-75" transform="translate(263.138672 0)"/>
     <use xlink:href="#DejaVuSans-72" transform="translate(326.517578 0)"/>
     <use xlink:href="#DejaVuSans-65" transform="translate(365.380859 0)"/>
    </g>
   </g>
   <g id="text_9">
    <!-- SoundSpeed -->
    <g transform="translate(211.403843 377.713644) rotate(-20) scale(0.08 -0.08)">
     <defs>
      <path id="DejaVuSans-53" d="M 3425 4513 
L 3425 3897 
Q 3066 4069 2747 4153 
Q 2428 4238 2131 4238 
Q 1616 4238 1336 4038 
Q 1056 3838 1056 3469 
Q 1056 3159 1242 3001 
Q 1428 2844 1947 2747 
L 2328 2669 
Q 3034 2534 3370 2195 
Q 3706 1856 3706 1288 
Q 3706 609 3251 259 
Q 2797 -91 1919 -91 
Q 1588 -91 1214 -16 
Q 841 59 441 206 
L 441 856 
Q 825 641 1194 531 
Q 1563 422 1919 422 
Q 2459 422 2753 634 
Q 3047 847 3047 1241 
Q 3047 1584 2836 1778 
Q 2625 1972 2144 2069 
L 1759 2144 
Q 1053 2284 737 2584 
Q 422 2884 422 3419 
Q 422 4038 858 4394 
Q 1294 4750 2059 4750 
Q 2388 4750 2728 4690 
Q 3069 4631 3425 4513 
z
" transform="scale(0.015625)"/>
      <path id="DejaVuSans-6f" d="M 1959 3097 
Q 1497 3097 1228 2736 
Q 959 2375 959 1747 
Q 959 1119 1226 758 
Q 1494 397 1959 397 
Q 2419 397 2687 759 
Q 2956 1122 2956 1747 
Q 2956 2369 2687 2733 
Q 2419 3097 1959 3097 
z
M 1959 3584 
Q 2709 3584 3137 3096 
Q 3566 2609 3566 1747 
Q 3566 888 3137 398 
Q 2709 -91 1959 -91 
Q 1206 -91 779 398 
Q 353 888 353 1747 
Q 353 2609 779 3096 
Q 1206 3584 1959 3584 
z
" transform="scale(0.015625)"/>
      <path id="DejaVuSans-64" d="M 2906 2969 
L 2906 4863 
L 3481 4863 
L 3481 0 
L 2906 0 
L 2906 525 
Q 2725 213 2448 61 
Q 2172 -91 1784 -91 
Q 1150 -91 751 415 
Q 353 922 353 1747 
Q 353 2572 751 3078 
Q 1150 3584 1784 3584 
Q 2172 3584 2448 3432 
Q 2725 3281 2906 2969 
z
M 947 1747 
Q 947 1113 1208 752 
Q 1469 391 1925 391 
Q 2381 391 2643 752 
Q 2906 1113 2906 1747 
Q 2906 2381 2643 2742 
Q 2381 3103 1925 3103 
Q 1469 3103 1208 2742 
Q 947 2381 947 1747 
z
" transform="scale(0.015625)"/>
      <path id="DejaVuSans-70" d="M 1159 525 
L 1159 -1331 
L 581 -1331 
L 581 3500 
L 1159 3500 
L 1159 2969 
Q 1341 3281 1617 3432 
Q 1894 3584 2278 3584 
Q 2916 3584 3314 3078 
Q 3713 2572 3713 1747 
Q 3713 922 3314 415 
Q 2916 -91 2278 -91 
Q 1894 -91 1617 61 
Q 1341 213 1159 525 
z
M 3116 1747 
Q 3116 2381 2855 2742 
Q 2594 3103 2138 3103 
Q 1681 3103 1420 2742 
Q 1159 2381 1159 1747 
Q 1159 1113 1420 752 
Q 1681 391 2138 391 
Q 2594 391 2855 752 
Q 3116 1113 3116 1747 
z
" transform="scale(0.015625)"/>
     </defs>
     <use xlink:href="#DejaVuSans-53"/>
     <use xlink:href="#DejaVuSans-6f" transform="translate(63.476562 0)"/>
     <use xlink:href="#DejaVuSans-75" transform="translate(124.658203 0)"/>
     <use xlink:href="#DejaVuSans-6e" transform="translate(188.037109 0)"/>
     <use xlink:href="#DejaVuSans-64" transform="translate(251.416016 0)"/>
     <use xlink:href="#DejaVuSans-53" transform="translate(314.892578 0)"/>
     <use xlink:href="#DejaVuSans-70" transform="translate(378.369141 0)"/>
     <use xlink:href="#DejaVuSans-65" transform="translate(441.845703 0)"/>
     <use xlink:href="#DejaVuSans-65" transform="translate(503.369141 0)"/>
     <use xlink:href="#DejaVuSans-64" transform="translate(564.892578 0)"/>
    </g>
   </g>
   <g id="text_10">
    <!-- StressXX -->
    <g transform="translate(311.007392 375.194238) rotate(-20) scale(0.08 -0.08)">
     <defs>
      <path id="DejaVuSans-58" d="M 403 4666 
L 1081 4666 
L 2241 2931 
L 3406 4666 
L 4084 4666 
L 2584 2425 
L 4184 0 
L 3506 0 
L 2194 1984 
L 872 0 
L 191 0 
L 1856 2491 
L 403 4666 
z
" transform="scale(0.015625)"/>
     </defs>
     <use xlink:href="#DejaVuSans-53"/>
     <use xlink:href="#DejaVuSans-74" transform="translate(63.476562 0)"/>
     <use xlink:href="#DejaVuSans-72" transform="translate(102.685547 0)"/>
     <use xlink:href="#DejaVuSans-65" transform="translate(141.548828 0)"/>
     <use xlink:href="#DejaVuSans-73" transform="translate(203.072266 0)"/>
     <use xlink:href="#DejaVuSans-73" transform="translate(255.171875 0)"/>
     <use xlink:href="#DejaVuSans-58" transform="translate(307.271484 0)"/>
     <use xlink:href="#DejaVuSans-58" transform="translate(375.777344 0)"/>
    </g>
   </g>
   <g id="text_11">
    <!-- StressYY -->
    <g transform="translate(404.246873 374.991164) rotate(-20) scale(0.08 -0.08)">
     <defs>
      <path id="DejaVuSans-59" d="M -13 4666 
L 666 4666 
L 1959 2747 
L 3244 4666 
L 3922 4666 
L 2272 2222 
L 2272 0 
L 1638 0 
L 1638 2222 
L -13 4666 
z
" transform="scale(0.015625)"/>
     </defs>
     <use xlink:href="#DejaVuSans-53"/>
     <use xlink:href="#DejaVuSans-74" transform="translate(63.476562 0)"/>
     <use xlink:href="#DejaVuSans-72" transform="translate(102.685547 0)"/>
     <use xlink:href="#DejaVuSans-65" transform="translate(141.548828 0)"/>
     <use xlink:href="#DejaVuSans-73" transform="translate(203.072266 0)"/>
     <use xlink:href="#DejaVuSans-73" transform="translate(255.171875 0)"/>
     <use xlink:href="#DejaVuSans-59" transform="translate(307.271484 0)"/>
     <use xlink:href="#DejaVuSans-59" transform="translate(368.355469 0)"/>
    </g>
   </g>
   <g id="text_12">
    <!-- StressZZ -->
    <g transform="translate(496.370469 375.194238) rotate(-20) scale(0.08 -0.08)">
     <defs>
      <path id="DejaVuSans-5a" d="M 359 4666 
L 4025 4666 
L 4025 4184 
L 1075 531 
L 4097 531 
L 4097 0 
L 288 0 
L 288 481 
L 3238 4134 
L 359 4134 
L 359 4666 
z
" transform="scale(0.015625)"/>
     </defs>
     <use xlink:href="#DejaVuSans-53"/>
     <use xlink:href="#DejaVuSans-74" transform="translate(63.476562 0)"/>
     <use xlink:href="#DejaVuSans-72" transform="translate(102.685547 0)"/>
     <use xlink:href="#DejaVuSans-65" transform="translate(141.548828 0)"/>
     <use xlink:href="#DejaVuSans-73" transform="translate(203.072266 0)"/>
     <use xlink:href="#DejaVuSans-73" transform="translate(255.171875 0)"/>
     <use xlink:href="#DejaVuSans-5a" transform="translate(307.271484 0)"/>
     <use xlink:href="#DejaVuSans-5a" transform="translate(375.777344 0)"/>
    </g>
   </g>
   <g id="text_13">
    <!-- Temperature -->
    <g transform="translate(581.943233 377.781621) rotate(-20) scale(0.08 -0.08)">
     <defs>
      <path id="DejaVuSans-54" d="M -19 4666 
L 3928 4666 
L 3928 4134 
L 2272 4134 
L 2272 0 
L 1638 0 
L 1638 4134 
L -19 4134 
L -19 4666 
z
" transform="scale(0.015625)"/>
      <path id="DejaVuSans-6d" d="M 3328 2828 
Q 3544 3216 3844 3400 
Q 4144 3584 4550 3584 
Q 5097 3584 5394 3201 
Q 5691 2819 5691 2113 
L 5691 0 
L 5113 0 
L 5113 2094 
Q 5113 2597 4934 2840 
Q 4756 3084 4391 3084 
Q 3944 3084 3684 2787 
Q 3425 2491 3425 1978 
L 3425 0 
L 2847 0 
L 2847 2094 
Q 2847 2600 2669 2842 
Q 2491 3084 2119 3084 
Q 1678 3084 1418 2786 
Q 1159 2488 1159 1978 
L 1159 0 
L 581 0 
L 581 3500 
L 1159 3500 
L 1159 2956 
Q 1356 3278 1631 3431 
Q 1906 3584 2284 3584 
Q 2666 3584 2933 3390 
Q 3200 3197 3328 2828 
z
" transform="scale(0.015625)"/>
      <path id="DejaVuSans-61" d="M 2194 1759 
Q 1497 1759 1228 1600 
Q 959 1441 959 1056 
Q 959 750 1161 570 
Q 1363 391 1709 391 
Q 2188 391 2477 730 
Q 2766 1069 2766 1631 
L 2766 1759 
L 2194 1759 
z
M 3341 1997 
L 3341 0 
L 2766 0 
L 2766 531 
Q 2569 213 2275 61 
Q 1981 -91 1556 -91 
Q 1019 -91 701 211 
Q 384 513 384 1019 
Q 384 1609 779 1909 
Q 1175 2209 1959 2209 
L 2766 2209 
L 2766 2266 
Q 2766 2663 2505 2880 
Q 2244 3097 1772 3097 
Q 1472 3097 1187 3025 
Q 903 2953 641 2809 
L 641 3341 
Q 956 3463 1253 3523 
Q 1550 3584 1831 3584 
Q 2591 3584 2966 3190 
Q 3341 2797 3341 1997 
z
" transform="scale(0.015625)"/>
     </defs>
     <use xlink:href="#DejaVuSans-54"/>
     <use xlink:href="#DejaVuSans-65" transform="translate(44.083984 0)"/>
     <use xlink:href="#DejaVuSans-6d" transform="translate(105.607422 0)"/>
     <use xlink:href="#DejaVuSans-70" transform="translate(203.019531 0)"/>
     <use xlink:href="#DejaVuSans-65" transform="translate(266.496094 0)"/>
     <use xlink:href="#DejaVuSans-72" transform="translate(328.019531 0)"/>
     <use xlink:href="#DejaVuSans-61" transform="translate(369.132812 0)"/>
     <use xlink:href="#DejaVuSans-74" transform="translate(430.412109 0)"/>
     <use xlink:href="#DejaVuSans-75" transform="translate(469.621094 0)"/>
     <use xlink:href="#DejaVuSans-72" transform="translate(533 0)"/>
     <use xlink:href="#DejaVuSans-65" transform="translate(571.863281 0)"/>
    </g>
   </g>
   <g id="text_14">
    <!-- VelocityX -->
    <g transform="translate(681.111587 375.420613) rotate(-20) scale(0.08 -0.08)">
     <defs>
      <path id="DejaVuSans-56" d="M 1831 0 
L 50 4666 
L 709 4666 
L 2188 738 
L 3669 4666 
L 4325 4666 
L 2547 0 
L 1831 0 
z
" transform="scale(0.015625)"/>
      <path id="DejaVuSans-6c" d="M 603 4863 
L 1178 4863 
L 1178 0 
L 603 0 
L 603 4863 
z
" transform="scale(0.015625)"/>
      <path id="DejaVuSans-63" d="M 3122 3366 
L 3122 2828 
Q 2878 2963 2633 3030 
Q 2388 3097 2138 3097 
Q 1578 3097 1268 2742 
Q 959 2388 959 1747 
Q 959 1106 1268 751 
Q 1578 397 2138 397 
Q 2388 397 2633 464 
Q 2878 531 3122 666 
L 3122 134 
Q 2881 22 2623 -34 
Q 2366 -91 2075 -91 
Q 1284 -91 818 406 
Q 353 903 353 1747 
Q 353 2603 823 3093 
Q 1294 3584 2113 3584 
Q 2378 3584 2631 3529 
Q 2884 3475 3122 3366 
z
" transform="scale(0.015625)"/>
     </defs>
     <use xlink:href="#DejaVuSans-56"/>
     <use xlink:href="#DejaVuSans-65" transform="translate(60.658203 0)"/>
     <use xlink:href="#DejaVuSans-6c" transform="translate(122.181641 0)"/>
     <use xlink:href="#DejaVuSans-6f" transform="translate(149.964844 0)"/>
     <use xlink:href="#DejaVuSans-63" transform="translate(211.146484 0)"/>
     <use xlink:href="#DejaVuSans-69" transform="translate(266.126953 0)"/>
     <use xlink:href="#DejaVuSans-74" transform="translate(293.910156 0)"/>
     <use xlink:href="#DejaVuSans-79" transform="translate(333.119141 0)"/>
     <use xlink:href="#DejaVuSans-58" transform="translate(392.298828 0)"/>
    </g>
   </g>
   <g id="text_15">
    <!-- VelocityY -->
    <g transform="translate(774.072096 375.319076) rotate(-20) scale(0.08 -0.08)">
     <use xlink:href="#DejaVuSans-56"/>
     <use xlink:href="#DejaVuSans-65" transform="translate(60.658203 0)"/>
     <use xlink:href="#DejaVuSans-6c" transform="translate(122.181641 0)"/>
     <use xlink:href="#DejaVuSans-6f" transform="translate(149.964844 0)"/>
     <use xlink:href="#DejaVuSans-63" transform="translate(211.146484 0)"/>
     <use xlink:href="#DejaVuSans-69" transform="translate(266.126953 0)"/>
     <use xlink:href="#DejaVuSans-74" transform="translate(293.910156 0)"/>
     <use xlink:href="#DejaVuSans-79" transform="translate(333.119141 0)"/>
     <use xlink:href="#DejaVuSans-59" transform="translate(392.298828 0)"/>
    </g>
   </g>
   <g id="text_16">
    <!-- VelocityZ -->
    <g transform="translate(866.474664 375.420613) rotate(-20) scale(0.08 -0.08)">
     <use xlink:href="#DejaVuSans-56"/>
     <use xlink:href="#DejaVuSans-65" transform="translate(60.658203 0)"/>
     <use xlink:href="#DejaVuSans-6c" transform="translate(122.181641 0)"/>
     <use xlink:href="#DejaVuSans-6f" transform="translate(149.964844 0)"/>
     <use xlink:href="#DejaVuSans-63" transform="translate(211.146484 0)"/>
     <use xlink:href="#DejaVuSans-69" transform="translate(266.126953 0)"/>
     <use xlink:href="#DejaVuSans-74" transform="translate(293.910156 0)"/>
     <use xlink:href="#DejaVuSans-79" transform="translate(333.119141 0)"/>
     <use xlink:href="#DejaVuSans-5a" transform="translate(392.298828 0)"/>
    </g>
   </g>
   <g id="patch_15">
    <path d="M 49.219374 292.760848 
Q 62.809003 206.838184 76.223974 122.019828 
" style="fill: none; opacity: 0.85; stroke: #2e7d32; stroke-linecap: round"/>
    <path d="M 73.623652 125.658278 
L 76.223974 122.019828 
L 77.574542 126.283156 
" style="fill: none; opacity: 0.85; stroke: #2e7d32; stroke-linecap: round"/>
   </g>
   <g id="patch_16">
    <path d="M 232.935464 293.249057 
Q 155.489579 206.837707 78.789892 121.258936 
" style="fill: none; opacity: 0.85; stroke: #2e7d32; stroke-linecap: round"/>
    <path d="M 79.970203 125.572504 
L 78.789892 121.258936 
L 82.948933 122.902828 
" style="fill: none; opacity: 0.85; stroke: #2e7d32; stroke-linecap: round"/>
   </g>
   <g id="patch_17">
    <path d="M 77.403126 120.814601 
Q 109.149465 206.838075 140.50872 291.812662 
" style="fill: none; opacity: 0.85; stroke: #c0392b; stroke-linecap: round"/>
    <path d="M 141.000152 287.367609 
L 140.50872 291.812662 
L 137.247537 288.752484 
" style="fill: none; opacity: 0.85; stroke: #c0392b; stroke-linecap: round"/>
   </g>
   <g id="patch_18">
    <path d="M 78.639356 119.485437 
Q 387.197301 206.839539 694.679492 293.889089 
" style="fill: none; opacity: 0.85; stroke: #c0392b; stroke-linecap: round"/>
    <path d="M 691.375551 290.875125 
L 694.679492 293.889089 
L 690.285957 294.723863 
" style="fill: none; opacity: 0.85; stroke: #c0392b; stroke-linecap: round"/>
   </g>
   <g id="patch_19">
    <path d="M 78.65219 119.417705 
Q 433.535002 206.838672 787.332232 293.99222 
" style="fill: none; opacity: 0.85; stroke: #c0392b; stroke-linecap: round"/>
    <path d="M 783.926713 291.093525 
L 787.332232 293.99222 
L 782.969964 294.977418 
" style="fill: none; opacity: 0.85; stroke: #c0392b; stroke-linecap: round"/>
   </g>
   <g id="patch_20">
    <path d="M 78.664352 119.365397 
Q 479.875143 206.838538 879.993562 294.073516 
" style="fill: none; opacity: 0.85; stroke: #c0392b; stroke-linecap: round"/>
    <path d="M 876.511407 291.267345 
L 879.993562 294.073516 
L 875.659332 295.175537 
" style="fill: none; opacity: 0.85; stroke: #c0392b; stroke-linecap: round"/>
   </g>
   <g id="patch_21">
    <path d="M 143.133253 293.463654 
Q 248.17437 206.836736 352.352936 120.92116 
" style="fill: none; opacity: 0.85; stroke: #2e7d32; stroke-linecap: round"/>
    <path d="M 347.994496 121.923155 
L 352.352936 120.92116 
L 350.539468 125.00911 
" style="fill: none; opacity: 0.85; stroke: #2e7d32; stroke-linecap: round"/>
   </g>
   <g id="patch_22">
    <path d="M 50.640441 293.74129 
Q 201.831504 206.838534 352.053248 120.492931 
" style="fill: none; opacity: 0.85; stroke: #2e7d32; stroke-linecap: round"/>
    <path d="M 347.588639 120.75229 
L 352.053248 120.492931 
L 349.58197 124.220233 
" style="fill: none; opacity: 0.85; stroke: #2e7d32; stroke-linecap: round"/>
   </g>
   <g id="patch_23">
    <path d="M 356.393846 120.090334 
Q 479.877414 206.839793 602.446137 292.946555 
" style="fill: none; opacity: 0.85; stroke: #c0392b; stroke-linecap: round"/>
    <path d="M 600.322775 289.010652 
L 602.446137 292.946555 
L 598.023397 292.283703 
" style="fill: none; opacity: 0.85; stroke: #c0392b; stroke-linecap: round"/>
   </g>
   <g id="patch_24">
    <path d="M 50.817782 294.162437 
Q 340.852226 206.839086 629.816105 119.83806 
" style="fill: none; opacity: 0.85; stroke: #2e7d32; stroke-linecap: round"/>
    <path d="M 625.409348 119.07616 
L 629.816105 119.83806 
L 626.562532 122.906326 
" style="fill: none; opacity: 0.85; stroke: #2e7d32; stroke-linecap: round"/>
   </g>
   <g id="patch_25">
    <path d="M 605.308604 292.760848 
Q 618.898234 206.838184 632.313205 122.019828 
" style="fill: none; opacity: 0.85; stroke: #2e7d32; stroke-linecap: round"/>
    <path d="M 629.712883 125.658278 
L 632.313205 122.019828 
L 633.663773 126.283156 
" style="fill: none; opacity: 0.85; stroke: #2e7d32; stroke-linecap: round"/>
   </g>
   <g id="patch_26">
    <path d="M 631.066636 119.936092 
Q 479.875573 206.838848 329.653829 293.184451 
" style="fill: none; opacity: 0.85; stroke: #c0392b; stroke-linecap: round"/>
    <path d="M 334.118437 292.925092 
L 329.653829 293.184451 
L 332.125106 289.457149 
" style="fill: none; opacity: 0.85; stroke: #c0392b; stroke-linecap: round"/>
   </g>
   <g id="patch_27">
    <path d="M 631.255362 120.213728 
Q 526.214245 206.840646 422.035679 292.756222 
" style="fill: none; opacity: 0.85; stroke: #c0392b; stroke-linecap: round"/>
    <path d="M 426.39412 291.754227 
L 422.035679 292.756222 
L 423.849147 288.668272 
" style="fill: none; opacity: 0.85; stroke: #c0392b; stroke-linecap: round"/>
   </g>
   <g id="patch_28">
    <path d="M 631.669725 120.589273 
Q 572.557543 206.83846 514.077422 292.165421 
" style="fill: none; opacity: 0.85; stroke: #c0392b; stroke-linecap: round"/>
    <path d="M 517.988478 289.996633 
L 514.077422 292.165421 
L 514.689025 287.735304 
" style="fill: none; opacity: 0.85; stroke: #c0392b; stroke-linecap: round"/>
   </g>
   <g id="text_17">
    <!-- Field-dependency graph for an enabled three-capability config -->
    <g transform="translate(287.214531 15.558281) scale(0.11 -0.11)">
     <defs>
      <path id="DejaVuSans-46" d="M 628 4666 
L 3309 4666 
L 3309 4134 
L 1259 4134 
L 1259 2759 
L 3109 2759 
L 3109 2228 
L 1259 2228 
L 1259 0 
L 628 0 
L 628 4666 
z
" transform="scale(0.015625)"/>
      <path id="DejaVuSans-2d" d="M 313 2009 
L 1997 2009 
L 1997 1497 
L 313 1497 
L 313 2009 
z
" transform="scale(0.015625)"/>
      <path id="DejaVuSans-20" transform="scale(0.015625)"/>
      <path id="DejaVuSans-67" d="M 2906 1791 
Q 2906 2416 2648 2759 
Q 2391 3103 1925 3103 
Q 1463 3103 1205 2759 
Q 947 2416 947 1791 
Q 947 1169 1205 825 
Q 1463 481 1925 481 
Q 2391 481 2648 825 
Q 2906 1169 2906 1791 
z
M 3481 434 
Q 3481 -459 3084 -895 
Q 2688 -1331 1869 -1331 
Q 1566 -1331 1297 -1286 
Q 1028 -1241 775 -1147 
L 775 -588 
Q 1028 -725 1275 -790 
Q 1522 -856 1778 -856 
Q 2344 -856 2625 -561 
Q 2906 -266 2906 331 
L 2906 616 
Q 2728 306 2450 153 
Q 2172 0 1784 0 
Q 1141 0 747 490 
Q 353 981 353 1791 
Q 353 2603 747 3093 
Q 1141 3584 1784 3584 
Q 2172 3584 2450 3431 
Q 2728 3278 2906 2969 
L 2906 3500 
L 3481 3500 
L 3481 434 
z
" transform="scale(0.015625)"/>
      <path id="DejaVuSans-68" d="M 3513 2113 
L 3513 0 
L 2938 0 
L 2938 2094 
Q 2938 2591 2744 2837 
Q 2550 3084 2163 3084 
Q 1697 3084 1428 2787 
Q 1159 2491 1159 1978 
L 1159 0 
L 581 0 
L 581 4863 
L 1159 4863 
L 1159 2956 
Q 1366 3272 1645 3428 
Q 1925 3584 2291 3584 
Q 2894 3584 3203 3211 
Q 3513 2838 3513 2113 
z
" transform="scale(0.015625)"/>
      <path id="DejaVuSans-66" d="M 2375 4863 
L 2375 4384 
L 1825 4384 
Q 1516 4384 1395 4259 
Q 1275 4134 1275 3809 
L 1275 3500 
L 2222 3500 
L 2222 3053 
L 1275 3053 
L 1275 0 
L 697 0 
L 697 3053 
L 147 3053 
L 147 3500 
L 697 3500 
L 697 3744 
Q 697 4328 969 4595 
Q 1241 4863 1831 4863 
L 2375 4863 
z
" transform="scale(0.015625)"/>
      <path id="DejaVuSans-62" d="M 3116 1747 
Q 3116 2381 2855 2742 
Q 2594 3103 2138 3103 
Q 1681 3103 1420 2742 
Q 1159 2381 1159 1747 
Q 1159 1113 1420 752 
Q 1681 391 2138 391 
Q 2594 391 2855 752 
Q 3116 1113 3116 1747 
z
M 1159 2969 
Q 1341 3281 1617 3432 
Q 1894 3584 2278 3584 
Q 2916 3584 3314 3078 
Q 3713 2572 3713 1747 
Q 3713 922 3314 415 
Q 2916 -91 2278 -91 
Q 1894 -91 1617 61 
Q 1341 213 1159 525 
L 1159 0 
L 581 0 
L 581 4863 
L 1159 4863 
L 1159 2969 
z
" transform="scale(0.015625)"/>
     </defs>
     <use xlink:href="#DejaVuSans-46"/>
     <use xlink:href="#DejaVuSans-69" transform="translate(50.269531 0)"/>
     <use xlink:href="#DejaVuSans-65" transform="translate(78.052734 0)"/>
     <use xlink:href="#DejaVuSans-6c" transform="translate(139.576172 0)"/>
     <use xlink:href="#DejaVuSans-64" transform="translate(167.359375 0)"/>
     <use xlink:href="#DejaVuSans-2d" transform="translate(230.835938 0)"/>
     <use xlink:href="#DejaVuSans-64" transform="translate(266.919922 0)"/>
     <use xlink:href="#DejaVuSans-65" transform="translate(330.396484 0)"/>
     <use xlink:href="#DejaVuSans-70" transform="translate(391.919922 0)"/>
     <use xlink:href="#DejaVuSans-65" transform="translate(455.396484 0)"/>
     <use xlink:href="#DejaVuSans-6e" transform="translate(516.919922 0)"/>
     <use xlink:href="#DejaVuSans-64" transform="translate(580.298828 0)"/>
     <use xlink:href="#DejaVuSans-65" transform="translate(643.775391 0)"/>
     <use xlink:href="#DejaVuSans-6e" transform="translate(705.298828 0)"/>
     <use xlink:href="#DejaVuSans-63" transform="translate(768.677734 0)"/>
     <use xlink:href="#DejaVuSans-79" transform="translate(823.658203 0)"/>
     <use xlink:href="#DejaVuSans-20" transform="translate(882.837891 0)"/>
     <use xlink:href="#DejaVuSans-67" transform="translate(914.625 0)"/>
     <use xlink:href="#DejaVuSans-72" transform="translate(978.101562 0)"/>
     <use xlink:href="#DejaVuSans-61" transform="translate(1019.214844 0)"/>
     <use xlink:href="#DejaVuSans-70" transform="translate(1080.494141 0)"/>
     <use xlink:href="#DejaVuSans-68" transform="translate(1143.970703 0)"/>
     <use xlink:href="#DejaVuSans-20" transform="translate(1207.349609 0)"/>
     <use xlink:href="#DejaVuSans-66" transform="translate(1239.136719 0)"/>
     <use xlink:href="#DejaVuSans-6f" transform="translate(1274.341797 0)"/>
     <use xlink:href="#DejaVuSans-72" transform="translate(1335.523438 0)"/>
     <use xlink:href="#DejaVuSans-20" transform="translate(1376.636719 0)"/>
     <use xlink:href="#DejaVuSans-61" transform="translate(1408.423828 0)"/>
     <use xlink:href="#DejaVuSans-6e" transform="translate(1469.703125 0)"/>
     <use xlink:href="#DejaVuSans-20" transform="translate(1533.082031 0)"/>
     <use xlink:href="#DejaVuSans-65" transform="translate(1564.869141 0)"/>
     <use xlink:href="#DejaVuSans-6e" transform="translate(1626.392578 0)"/>
     <use xlink:href="#DejaVuSans-61" transform="translate(1689.771484 0)"/>
     <use xlink:href="#DejaVuSans-62" transform="translate(1751.050781 0)"/>
     <use xlink:href="#DejaVuSans-6c" transform="translate(1814.527344 0)"/>
     <use xlink:href="#DejaVuSans-65" transform="translate(1842.310547 0)"/>
     <use xlink:href="#DejaVuSans-64" transform="translate(1903.833984 0)"/>
     <use xlink:href="#DejaVuSans-20" transform="translate(1967.310547 0)"/>
     <use xlink:href="#DejaVuSans-74" transform="translate(1999.097656 0)"/>
     <use xlink:href="#DejaVuSans-68" transform="translate(2038.306641 0)"/>
     <use xlink:href="#DejaVuSans-72" transform="translate(2101.685547 0)"/>
     <use xlink:href="#DejaVuSans-65" transform="translate(2140.548828 0)"/>
     <use xlink:href="#DejaVuSans-65" transform="translate(2202.072266 0)"/>
     <use xlink:href="#DejaVuSans-2d" transform="translate(2263.595703 0)"/>
     <use xlink:href="#DejaVuSans-63" transform="translate(2299.679688 0)"/>
     <use xlink:href="#DejaVuSans-61" transform="translate(2354.660156 0)"/>
     <use xlink:href="#DejaVuSans-70" transform="translate(2415.939453 0)"/>
     <use xlink:href="#DejaVuSans-61" transform="translate(2479.416016 0)"/>
     <use xlink:href="#DejaVuSans-62" transform="translate(2540.695312 0)"/>
     <use xlink:href="#DejaVuSans-69" transform="translate(2604.171875 0)"/>
     <use xlink:href="#DejaVuSans-6c" transform="translate(2631.955078 0)"/>
     <use xlink:href="#DejaVuSans-69" transform="translate(2659.738281 0)"/>
     <use xlink:href="#DejaVuSans-74" transform="translate(2687.521484 0)"/>
     <use xlink:href="#DejaVuSans-79" transform="translate(2726.730469 0)"/>
     <use xlink:href="#DejaVuSans-20" transform="translate(2785.910156 0)"/>
     <use xlink:href="#DejaVuSans-63" transform="translate(2817.697266 0)"/>
     <use xlink:href="#DejaVuSans-6f" transform="translate(2872.677734 0)"/>
     <use xlink:href="#DejaVuSans-6e" transform="translate(2933.859375 0)"/>
     <use xlink:href="#DejaVuSans-66" transform="translate(2997.238281 0)"/>
     <use xlink:href="#DejaVuSans-69" transform="translate(3032.443359 0)"/>
     <use xlink:href="#DejaVuSans-67" transform="translate(3060.226562 0)"/>
    </g>
    <!-- Plugin order π is the topological sort returned by PluginManager (Theorem 22.2) -->
    <g transform="translate(238.309219 27.875875) scale(0.11 -0.11)">
     <defs>
      <path id="DejaVuSans-3c0" d="M 231 3500 
L 3584 3500 
L 3584 2925 
L 3144 2925 
L 3144 775 
Q 3144 550 3220 451 
Q 3297 353 3469 353 
Q 3516 353 3584 361 
Q 3653 369 3675 372 
L 3675 -44 
Q 3566 -84 3450 -103 
Q 3334 -122 3219 -122 
Q 2844 -122 2700 83 
Q 2556 288 2556 838 
L 2556 2925 
L 1266 2925 
L 1266 0 
L 678 0 
L 678 2925 
L 231 2925 
L 231 3500 
z
" transform="scale(0.015625)"/>
      <path id="DejaVuSans-4d" d="M 628 4666 
L 1569 4666 
L 2759 1491 
L 3956 4666 
L 4897 4666 
L 4897 0 
L 4281 0 
L 4281 4097 
L 3078 897 
L 2444 897 
L 1241 4097 
L 1241 0 
L 628 0 
L 628 4666 
z
" transform="scale(0.015625)"/>
      <path id="DejaVuSans-28" d="M 1984 4856 
Q 1566 4138 1362 3434 
Q 1159 2731 1159 2009 
Q 1159 1288 1364 580 
Q 1569 -128 1984 -844 
L 1484 -844 
Q 1016 -109 783 600 
Q 550 1309 550 2009 
Q 550 2706 781 3412 
Q 1013 4119 1484 4856 
L 1984 4856 
z
" transform="scale(0.015625)"/>
      <path id="DejaVuSans-32" d="M 1228 531 
L 3431 531 
L 3431 0 
L 469 0 
L 469 531 
Q 828 903 1448 1529 
Q 2069 2156 2228 2338 
Q 2531 2678 2651 2914 
Q 2772 3150 2772 3378 
Q 2772 3750 2511 3984 
Q 2250 4219 1831 4219 
Q 1534 4219 1204 4116 
Q 875 4013 500 3803 
L 500 4441 
Q 881 4594 1212 4672 
Q 1544 4750 1819 4750 
Q 2544 4750 2975 4387 
Q 3406 4025 3406 3419 
Q 3406 3131 3298 2873 
Q 3191 2616 2906 2266 
Q 2828 2175 2409 1742 
Q 1991 1309 1228 531 
z
" transform="scale(0.015625)"/>
      <path id="DejaVuSans-2e" d="M 684 794 
L 1344 794 
L 1344 0 
L 684 0 
L 684 794 
z
" transform="scale(0.015625)"/>
      <path id="DejaVuSans-29" d="M 513 4856 
L 1013 4856 
Q 1481 4119 1714 3412 
Q 1947 2706 1947 2009 
Q 1947 1309 1714 600 
Q 1481 -109 1013 -844 
L 513 -844 
Q 928 -128 1133 580 
Q 1338 1288 1338 2009 
Q 1338 2731 1133 3434 
Q 928 4138 513 4856 
z
" transform="scale(0.015625)"/>
     </defs>
     <use xlink:href="#DejaVuSans-50"/>
     <use xlink:href="#DejaVuSans-6c" transform="translate(60.302734 0)"/>
     <use xlink:href="#DejaVuSans-75" transform="translate(88.085938 0)"/>
     <use xlink:href="#DejaVuSans-67" transform="translate(151.464844 0)"/>
     <use xlink:href="#DejaVuSans-69" transform="translate(214.941406 0)"/>
     <use xlink:href="#DejaVuSans-6e" transform="translate(242.724609 0)"/>
     <use xlink:href="#DejaVuSans-20" transform="translate(306.103516 0)"/>
     <use xlink:href="#DejaVuSans-6f" transform="translate(337.890625 0)"/>
     <use xlink:href="#DejaVuSans-72" transform="translate(399.072266 0)"/>
     <use xlink:href="#DejaVuSans-64" transform="translate(438.435547 0)"/>
     <use xlink:href="#DejaVuSans-65" transform="translate(501.912109 0)"/>
     <use xlink:href="#DejaVuSans-72" transform="translate(563.435547 0)"/>
     <use xlink:href="#DejaVuSans-20" transform="translate(604.548828 0)"/>
     <use xlink:href="#DejaVuSans-3c0" transform="translate(636.335938 0)"/>
     <use xlink:href="#DejaVuSans-20" transform="translate(696.541016 0)"/>
     <use xlink:href="#DejaVuSans-69" transform="translate(728.328125 0)"/>
     <use xlink:href="#DejaVuSans-73" transform="translate(756.111328 0)"/>
     <use xlink:href="#DejaVuSans-20" transform="translate(808.210938 0)"/>
     <use xlink:href="#DejaVuSans-74" transform="translate(839.998047 0)"/>
     <use xlink:href="#DejaVuSans-68" transform="translate(879.207031 0)"/>
     <use xlink:href="#DejaVuSans-65" transform="translate(942.585938 0)"/>
     <use xlink:href="#DejaVuSans-20" transform="translate(1004.109375 0)"/>
     <use xlink:href="#DejaVuSans-74" transform="translate(1035.896484 0)"/>
     <use xlink:href="#DejaVuSans-6f" transform="translate(1075.105469 0)"/>
     <use xlink:href="#DejaVuSans-70" transform="translate(1136.287109 0)"/>
     <use xlink:href="#DejaVuSans-6f" transform="translate(1199.763672 0)"/>
     <use xlink:href="#DejaVuSans-6c" transform="translate(1260.945312 0)"/>
     <use xlink:href="#DejaVuSans-6f" transform="translate(1288.728516 0)"/>
     <use xlink:href="#DejaVuSans-67" transform="translate(1349.910156 0)"/>
     <use xlink:href="#DejaVuSans-69" transform="translate(1413.386719 0)"/>
     <use xlink:href="#DejaVuSans-63" transform="translate(1441.169922 0)"/>
     <use xlink:href="#DejaVuSans-61" transform="translate(1496.150391 0)"/>
     <use xlink:href="#DejaVuSans-6c" transform="translate(1557.429688 0)"/>
     <use xlink:href="#DejaVuSans-20" transform="translate(1585.212891 0)"/>
     <use xlink:href="#DejaVuSans-73" transform="translate(1617 0)"/>
     <use xlink:href="#DejaVuSans-6f" transform="translate(1669.099609 0)"/>
     <use xlink:href="#DejaVuSans-72" transform="translate(1730.28125 0)"/>
     <use xlink:href="#DejaVuSans-74" transform="translate(1771.394531 0)"/>
     <use xlink:href="#DejaVuSans-20" transform="translate(1810.603516 0)"/>
     <use xlink:href="#DejaVuSans-72" transform="translate(1842.390625 0)"/>
     <use xlink:href="#DejaVuSans-65" transform="translate(1881.253906 0)"/>
     <use xlink:href="#DejaVuSans-74" transform="translate(1942.777344 0)"/>
     <use xlink:href="#DejaVuSans-75" transform="translate(1981.986328 0)"/>
     <use xlink:href="#DejaVuSans-72" transform="translate(2045.365234 0)"/>
     <use xlink:href="#DejaVuSans-6e" transform="translate(2084.728516 0)"/>
     <use xlink:href="#DejaVuSans-65" transform="translate(2148.107422 0)"/>
     <use xlink:href="#DejaVuSans-64" transform="translate(2209.630859 0)"/>
     <use xlink:href="#DejaVuSans-20" transform="translate(2273.107422 0)"/>
     <use xlink:href="#DejaVuSans-62" transform="translate(2304.894531 0)"/>
     <use xlink:href="#DejaVuSans-79" transform="translate(2368.371094 0)"/>
     <use xlink:href="#DejaVuSans-20" transform="translate(2427.550781 0)"/>
     <use xlink:href="#DejaVuSans-50" transform="translate(2459.337891 0)"/>
     <use xlink:href="#DejaVuSans-6c" transform="translate(2519.640625 0)"/>
     <use xlink:href="#DejaVuSans-75" transform="translate(2547.423828 0)"/>
     <use xlink:href="#DejaVuSans-67" transform="translate(2610.802734 0)"/>
     <use xlink:href="#DejaVuSans-69" transform="translate(2674.279297 0)"/>
     <use xlink:href="#DejaVuSans-6e" transform="translate(2702.0625 0)"/>
     <use xlink:href="#DejaVuSans-4d" transform="translate(2765.441406 0)"/>
     <use xlink:href="#DejaVuSans-61" transform="translate(2851.720703 0)"/>
     <use xlink:href="#DejaVuSans-6e" transform="translate(2913 0)"/>
     <use xlink:href="#DejaVuSans-61" transform="translate(2976.378906 0)"/>
     <use xlink:href="#DejaVuSans-67" transform="translate(3037.658203 0)"/>
     <use xlink:href="#DejaVuSans-65" transform="translate(3101.134766 0)"/>
     <use xlink:href="#DejaVuSans-72" transform="translate(3162.658203 0)"/>
     <use xlink:href="#DejaVuSans-20" transform="translate(3203.771484 0)"/>
     <use xlink:href="#DejaVuSans-28" transform="translate(3235.558594 0)"/>
     <use xlink:href="#DejaVuSans-54" transform="translate(3274.572266 0)"/>
     <use xlink:href="#DejaVuSans-68" transform="translate(3335.65625 0)"/>
     <use xlink:href="#DejaVuSans-65" transform="translate(3399.035156 0)"/>
     <use xlink:href="#DejaVuSans-6f" transform="translate(3460.558594 0)"/>
     <use xlink:href="#DejaVuSans-72" transform="translate(3521.740234 0)"/>
     <use xlink:href="#DejaVuSans-65" transform="translate(3560.603516 0)"/>
     <use xlink:href="#DejaVuSans-6d" transform="translate(3622.126953 0)"/>
     <use xlink:href="#DejaVuSans-20" transform="translate(3719.539062 0)"/>
     <use xlink:href="#DejaVuSans-32" transform="translate(3751.326172 0)"/>
     <use xlink:href="#DejaVuSans-32" transform="translate(3814.949219 0)"/>
     <use xlink:href="#DejaVuSans-2e" transform="translate(3878.572266 0)"/>
     <use xlink:href="#DejaVuSans-32" transform="translate(3910.359375 0)"/>
     <use xlink:href="#DejaVuSans-29" transform="translate(3973.982422 0)"/>
    </g>
   </g>
   <g id="legend_1">
    <g id="line2d_3">
     <path d="M 772.228125 45.664469 
L 781.228125 45.664469 
L 790.228125 45.664469 
" style="fill: none; stroke: #2e7d32; stroke-width: 2; stroke-linecap: square"/>
    </g>
    <g id="text_18">
     <!-- reads (required_fields) -->
     <g transform="translate(797.428125 48.814469) scale(0.09 -0.09)">
      <defs>
       <path id="DejaVuSans-71" d="M 947 1747 
Q 947 1113 1208 752 
Q 1469 391 1925 391 
Q 2381 391 2643 752 
Q 2906 1113 2906 1747 
Q 2906 2381 2643 2742 
Q 2381 3103 1925 3103 
Q 1469 3103 1208 2742 
Q 947 2381 947 1747 
z
M 2906 525 
Q 2725 213 2448 61 
Q 2172 -91 1784 -91 
Q 1150 -91 751 415 
Q 353 922 353 1747 
Q 353 2572 751 3078 
Q 1150 3584 1784 3584 
Q 2172 3584 2448 3432 
Q 2725 3281 2906 2969 
L 2906 3500 
L 3481 3500 
L 3481 -1331 
L 2906 -1331 
L 2906 525 
z
" transform="scale(0.015625)"/>
       <path id="DejaVuSans-5f" d="M 3263 -1063 
L 3263 -1509 
L -63 -1509 
L -63 -1063 
L 3263 -1063 
z
" transform="scale(0.015625)"/>
      </defs>
      <use xlink:href="#DejaVuSans-72"/>
      <use xlink:href="#DejaVuSans-65" transform="translate(38.863281 0)"/>
      <use xlink:href="#DejaVuSans-61" transform="translate(100.386719 0)"/>
      <use xlink:href="#DejaVuSans-64" transform="translate(161.666016 0)"/>
      <use xlink:href="#DejaVuSans-73" transform="translate(225.142578 0)"/>
      <use xlink:href="#DejaVuSans-20" transform="translate(277.242188 0)"/>
      <use xlink:href="#DejaVuSans-28" transform="translate(309.029297 0)"/>
      <use xlink:href="#DejaVuSans-72" transform="translate(348.042969 0)"/>
      <use xlink:href="#DejaVuSans-65" transform="translate(386.90625 0)"/>
      <use xlink:href="#DejaVuSans-71" transform="translate(448.429688 0)"/>
      <use xlink:href="#DejaVuSans-75" transform="translate(511.90625 0)"/>
      <use xlink:href="#DejaVuSans-69" transform="translate(575.285156 0)"/>
      <use xlink:href="#DejaVuSans-72" transform="translate(603.068359 0)"/>
      <use xlink:href="#DejaVuSans-65" transform="translate(641.931641 0)"/>
      <use xlink:href="#DejaVuSans-64" transform="translate(703.455078 0)"/>
      <use xlink:href="#DejaVuSans-5f" transform="translate(766.931641 0)"/>
      <use xlink:href="#DejaVuSans-66" transform="translate(816.931641 0)"/>
      <use xlink:href="#DejaVuSans-69" transform="translate(852.136719 0)"/>
      <use xlink:href="#DejaVuSans-65" transform="translate(879.919922 0)"/>
      <use xlink:href="#DejaVuSans-6c" transform="translate(941.443359 0)"/>
      <use xlink:href="#DejaVuSans-64" transform="translate(969.226562 0)"/>
      <use xlink:href="#DejaVuSans-73" transform="translate(1032.703125 0)"/>
      <use xlink:href="#DejaVuSans-29" transform="translate(1084.802734 0)"/>
     </g>
    </g>
    <g id="line2d_4">
     <path d="M 772.228125 59.125094 
L 781.228125 59.125094 
L 790.228125 59.125094 
" style="fill: none; stroke: #c0392b; stroke-width: 2; stroke-linecap: square"/>
    </g>
    <g id="text_19">
     <!-- writes (provided_fields) -->
     <g transform="translate(797.428125 62.275094) scale(0.09 -0.09)">
      <defs>
       <path id="DejaVuSans-77" d="M 269 3500 
L 844 3500 
L 1563 769 
L 2278 3500 
L 2956 3500 
L 3675 769 
L 4391 3500 
L 4966 3500 
L 4050 0 
L 3372 0 
L 2619 2869 
L 1863 0 
L 1184 0 
L 269 3500 
z
" transform="scale(0.015625)"/>
       <path id="DejaVuSans-76" d="M 191 3500 
L 800 3500 
L 1894 563 
L 2988 3500 
L 3597 3500 
L 2284 0 
L 1503 0 
L 191 3500 
z
" transform="scale(0.015625)"/>
      </defs>
      <use xlink:href="#DejaVuSans-77"/>
      <use xlink:href="#DejaVuSans-72" transform="translate(81.787109 0)"/>
      <use xlink:href="#DejaVuSans-69" transform="translate(122.900391 0)"/>
      <use xlink:href="#DejaVuSans-74" transform="translate(150.683594 0)"/>
      <use xlink:href="#DejaVuSans-65" transform="translate(189.892578 0)"/>
      <use xlink:href="#DejaVuSans-73" transform="translate(251.416016 0)"/>
      <use xlink:href="#DejaVuSans-20" transform="translate(303.515625 0)"/>
      <use xlink:href="#DejaVuSans-28" transform="translate(335.302734 0)"/>
      <use xlink:href="#DejaVuSans-70" transform="translate(374.316406 0)"/>
      <use xlink:href="#DejaVuSans-72" transform="translate(437.792969 0)"/>
      <use xlink:href="#DejaVuSans-6f" transform="translate(476.65625 0)"/>
      <use xlink:href="#DejaVuSans-76" transform="translate(537.837891 0)"/>
      <use xlink:href="#DejaVuSans-69" transform="translate(597.017578 0)"/>
      <use xlink:href="#DejaVuSans-64" transform="translate(624.800781 0)"/>
      <use xlink:href="#DejaVuSans-65" transform="translate(688.277344 0)"/>
      <use xlink:href="#DejaVuSans-64" transform="translate(749.800781 0)"/>
      <use xlink:href="#DejaVuSans-5f" transform="translate(813.277344 0)"/>
      <use xlink:href="#DejaVuSans-66" transform="translate(863.277344 0)"/>
      <use xlink:href="#DejaVuSans-69" transform="translate(898.482422 0)"/>
      <use xlink:href="#DejaVuSans-65" transform="translate(926.265625 0)"/>
      <use xlink:href="#DejaVuSans-6c" transform="translate(987.789062 0)"/>
      <use xlink:href="#DejaVuSans-64" transform="translate(1015.572266 0)"/>
      <use xlink:href="#DejaVuSans-73" transform="translate(1079.048828 0)"/>
      <use xlink:href="#DejaVuSans-29" transform="translate(1131.148438 0)"/>
     </g>
    </g>
   </g>
  </g>
 </g>
 <defs>
  <clipPath id="pff424d9955">
   <rect x="7.2" y="33.875875" width="903.645" height="354.432"/>
  </clipPath>
 </defs>
</svg>
