%TF.GenerationSoftware,KiCad,Pcbnew,10.0.3*%
%TF.CreationDate,2026-06-21T15:43:01-04:00*%
%TF.ProjectId,fpga_tile,66706761-5f74-4696-9c65-2e6b69636164,rev?*%
%TF.SameCoordinates,Original*%
%TF.FileFunction,Copper,L3,Inr*%
%TF.FilePolarity,Positive*%
%FSLAX46Y46*%
G04 Gerber Fmt 4.6, Leading zero omitted, Abs format (unit mm)*
G04 Created by KiCad (PCBNEW 10.0.3) date 2026-06-21 15:43:01*
%MOMM*%
%LPD*%
G01*
G04 APERTURE LIST*
%TA.AperFunction,ComponentPad*%
%ADD10C,1.000000*%
%TD*%
%TA.AperFunction,ViaPad*%
%ADD11C,0.460000*%
%TD*%
%TA.AperFunction,Conductor*%
%ADD12C,0.150000*%
%TD*%
G04 APERTURE END LIST*
D10*
%TO.N,VPP*%
%TO.C,J_STACK*%
X21030000Y-5730000D03*
%TO.N,GND*%
X21030000Y-8270000D03*
%TO.N,VPP*%
X23570000Y-5730000D03*
%TO.N,GND*%
X23570000Y-8270000D03*
%TO.N,P5V*%
X26110000Y-5730000D03*
%TO.N,GND*%
X26110000Y-8270000D03*
%TO.N,VCCO_3V3*%
X28650000Y-5730000D03*
%TO.N,GND*%
X28650000Y-8270000D03*
%TO.N,BUS_SCLK*%
X31190000Y-5730000D03*
%TO.N,GND*%
X31190000Y-8270000D03*
%TO.N,BUS_SDI*%
X33730000Y-5730000D03*
%TO.N,GND*%
X33730000Y-8270000D03*
%TO.N,BUS_SDO*%
X36270000Y-5730000D03*
%TO.N,GND*%
X36270000Y-8270000D03*
%TO.N,BUS_LATCH*%
X38810000Y-5730000D03*
%TO.N,GND*%
X38810000Y-8270000D03*
%TO.N,BUS_nRST*%
X41350000Y-5730000D03*
%TO.N,GND*%
X41350000Y-8270000D03*
%TO.N,CHAIN_IN*%
X43890000Y-5730000D03*
%TO.N,GND*%
X43890000Y-8270000D03*
%TO.N,CHAIN_OUT*%
X46430000Y-5730000D03*
%TO.N,GND*%
X46430000Y-8270000D03*
%TO.N,VCCO_3V3*%
X48970000Y-5730000D03*
%TO.N,GND*%
X48970000Y-8270000D03*
%TD*%
D11*
%TO.N,VCCAUX*%
X17000000Y-30500000D03*
X43500000Y-32500000D03*
X35000000Y-33500000D03*
%TO.N,VCCO_3V3*%
X28500000Y-4500000D03*
X33500000Y-14000000D03*
X23000000Y-15000000D03*
X26500000Y-16000000D03*
X42500000Y-31500000D03*
X40500000Y-33500000D03*
%TO.N,GND*%
X29500000Y-20500000D03*
X18000000Y-23000000D03*
%TO.N,CCLK*%
X32000000Y-22500000D03*
X34000000Y-28500000D03*
%TO.N,DOUT*%
X34000000Y-23500000D03*
X30500000Y-24500000D03*
%TO.N,CFG_CS*%
X34000000Y-21500000D03*
X29000000Y-24500000D03*
%TO.N,DONE*%
X23000000Y-16500000D03*
X34000000Y-16500000D03*
%TO.N,INIT*%
X36500000Y-16500000D03*
X36500000Y-36000000D03*
%TO.N,TCK*%
X27000000Y-12500000D03*
X39000000Y-16500000D03*
%TO.N,TMS*%
X30500000Y-12500000D03*
X41000000Y-16500000D03*
%TO.N,TDI*%
X32000000Y-14500000D03*
X43500000Y-16500000D03*
%TO.N,TDO*%
X30000000Y-16500000D03*
X46000000Y-16500000D03*
%TO.N,BUS_SCLK*%
X31000000Y-4500000D03*
X48500000Y-16500000D03*
%TO.N,BUS_SDI*%
X33500000Y-4500000D03*
X48500000Y-17500000D03*
X49000000Y-18000000D03*
%TO.N,BUS_SDO*%
X36500000Y-4500000D03*
X46000000Y-15000000D03*
X49000000Y-20500000D03*
%TO.N,BUS_LATCH*%
X39000000Y-4500000D03*
X49000000Y-23000000D03*
%TO.N,BUS_nRST*%
X43000000Y-4500000D03*
X51000000Y-25500000D03*
%TO.N,CHAIN_IN*%
X44000000Y-4500000D03*
X49000000Y-28000000D03*
%TO.N,CHAIN_OUT*%
X46500000Y-4500000D03*
X49000000Y-30500000D03*
%TO.N,P5V*%
X25500000Y-4500000D03*
X22000000Y-17500000D03*
%TD*%
%TO.N,TDO*%
D12*
X30000000Y-16500000D02*
X31000000Y-16500000D01*
X44500000Y-16500000D02*
X46000000Y-16500000D01*
X31000000Y-17000000D02*
X44500000Y-17000000D01*
X31000000Y-16500000D02*
X31000000Y-17000000D01*
X44500000Y-16500000D02*
X44500000Y-17000000D01*
%TO.N,BUS_SDI*%
X33500000Y-4500000D02*
X34000000Y-4500000D01*
X34000000Y-5500000D02*
X35500000Y-5500000D01*
X35500000Y-10000000D02*
X36000000Y-10000000D01*
X36000000Y-10500000D02*
X36500000Y-10500000D01*
X36500000Y-11000000D02*
X37500000Y-11000000D01*
X37500000Y-12000000D02*
X38000000Y-12000000D01*
X38000000Y-12500000D02*
X38500000Y-12500000D01*
X38500000Y-14500000D02*
X39000000Y-14500000D01*
X39000000Y-15500000D02*
X47000000Y-15500000D01*
X47000000Y-16000000D02*
X47500000Y-16000000D01*
X47500000Y-17000000D02*
X48500000Y-17000000D01*
X34000000Y-4500000D02*
X34000000Y-5500000D01*
X35500000Y-5500000D02*
X35500000Y-10000000D01*
X36000000Y-10000000D02*
X36000000Y-10500000D01*
X36500000Y-10500000D02*
X36500000Y-11000000D01*
X37500000Y-11000000D02*
X37500000Y-12000000D01*
X38000000Y-12000000D02*
X38000000Y-12500000D01*
X38500000Y-12500000D02*
X38500000Y-14500000D01*
X39000000Y-14500000D02*
X39000000Y-15500000D01*
X47000000Y-15500000D02*
X47000000Y-16000000D01*
X47500000Y-16000000D02*
X47500000Y-17000000D01*
X48500000Y-17000000D02*
X48500000Y-17500000D01*
%TO.N,BUS_SDO*%
X36500000Y-6000000D02*
X37000000Y-6000000D01*
X37000000Y-7500000D02*
X37500000Y-7500000D01*
X37500000Y-8500000D02*
X38000000Y-8500000D01*
X38000000Y-10000000D02*
X38500000Y-10000000D01*
X38500000Y-10500000D02*
X40000000Y-10500000D01*
X40000000Y-11500000D02*
X40500000Y-11500000D01*
X40500000Y-12000000D02*
X41000000Y-12000000D01*
X41000000Y-13000000D02*
X41500000Y-13000000D01*
X41500000Y-14000000D02*
X42000000Y-14000000D01*
X42000000Y-14500000D02*
X42500000Y-14500000D01*
X42500000Y-15000000D02*
X46000000Y-15000000D01*
X36500000Y-4500000D02*
X36500000Y-6000000D01*
X37000000Y-6000000D02*
X37000000Y-7500000D01*
X37500000Y-7500000D02*
X37500000Y-8500000D01*
X38000000Y-8500000D02*
X38000000Y-10000000D01*
X38500000Y-10000000D02*
X38500000Y-10500000D01*
X40000000Y-10500000D02*
X40000000Y-11500000D01*
X40500000Y-11500000D02*
X40500000Y-12000000D01*
X41000000Y-12000000D02*
X41000000Y-13000000D01*
X41500000Y-13000000D02*
X41500000Y-14000000D01*
X42000000Y-14000000D02*
X42000000Y-14500000D01*
X42500000Y-14500000D02*
X42500000Y-15000000D01*
%TD*%
%TA.AperFunction,Conductor*%
%TO.N,TDO*%
G36*
X30130504Y-16313974D02*
G01*
X30392612Y-16402293D01*
X30416691Y-16420190D01*
X30441093Y-16437919D01*
X30441267Y-16438456D01*
X30441719Y-16438792D01*
X30460000Y-16496110D01*
X30460000Y-16503889D01*
X30441093Y-16562080D01*
X30392612Y-16597706D01*
X30130612Y-16685989D01*
X30069431Y-16686653D01*
X30019543Y-16651228D01*
X30000006Y-16593246D01*
X30000000Y-16592172D01*
X30000000Y-16407827D01*
X30018907Y-16349636D01*
X30068407Y-16313672D01*
X30129593Y-16313672D01*
X30130504Y-16313974D01*
G37*
%TD.AperFunction*%
%TD*%
%TA.AperFunction,Conductor*%
%TO.N,TDO*%
G36*
X45980457Y-16348771D02*
G01*
X45999994Y-16406753D01*
X46000000Y-16407827D01*
X46000000Y-16592172D01*
X45981093Y-16650363D01*
X45931593Y-16686327D01*
X45870407Y-16686327D01*
X45869388Y-16685989D01*
X45607388Y-16597706D01*
X45583308Y-16579808D01*
X45558907Y-16562080D01*
X45558732Y-16561542D01*
X45558281Y-16561207D01*
X45540000Y-16503889D01*
X45540000Y-16496110D01*
X45558907Y-16437919D01*
X45607387Y-16402293D01*
X45869389Y-16314009D01*
X45930569Y-16313346D01*
X45980457Y-16348771D01*
G37*
%TD.AperFunction*%
%TD*%
%TA.AperFunction,Conductor*%
%TO.N,BUS_SDI*%
G36*
X33630504Y-4313974D02*
G01*
X33892612Y-4402293D01*
X33916691Y-4420190D01*
X33941093Y-4437919D01*
X33941267Y-4438456D01*
X33941719Y-4438792D01*
X33960000Y-4496110D01*
X33960000Y-4503889D01*
X33941093Y-4562080D01*
X33892612Y-4597706D01*
X33672033Y-4672030D01*
X33730000Y-4500000D01*
X33500000Y-4500000D01*
X33500000Y-4407827D01*
X33518907Y-4349636D01*
X33568407Y-4313672D01*
X33629593Y-4313672D01*
X33630504Y-4313974D01*
G37*
%TD.AperFunction*%
%TD*%
%TA.AperFunction,Conductor*%
%TO.N,BUS_SDI*%
G36*
X33672032Y-4672031D02*
G01*
X33672032Y-4672032D01*
X33672031Y-4672032D01*
X33672031Y-4672033D01*
X33597707Y-4892612D01*
X33579788Y-4916721D01*
X33562081Y-4941093D01*
X33561544Y-4941267D01*
X33561209Y-4941719D01*
X33503890Y-4960000D01*
X33496110Y-4960000D01*
X33437919Y-4941093D01*
X33402293Y-4892612D01*
X33314011Y-4630612D01*
X33313347Y-4569430D01*
X33348772Y-4519543D01*
X33406754Y-4500006D01*
X33407828Y-4500000D01*
X33499999Y-4500000D01*
X33500000Y-4500000D01*
X33730000Y-4500000D01*
X33672032Y-4672031D01*
G37*
%TD.AperFunction*%
%TD*%
%TA.AperFunction,Conductor*%
%TO.N,BUS_SDI*%
G36*
X48480457Y-17348771D02*
G01*
X48499994Y-17406753D01*
X48500000Y-17407827D01*
X48500000Y-17500000D01*
X48270000Y-17500000D01*
X48327967Y-17672032D01*
X48327965Y-17672031D01*
X48327964Y-17672030D01*
X48107388Y-17597706D01*
X48083308Y-17579808D01*
X48058907Y-17562080D01*
X48058732Y-17561542D01*
X48058281Y-17561207D01*
X48040000Y-17503889D01*
X48040000Y-17496110D01*
X48058907Y-17437919D01*
X48107387Y-17402293D01*
X48369389Y-17314009D01*
X48430569Y-17313346D01*
X48480457Y-17348771D01*
G37*
%TD.AperFunction*%
%TD*%
%TA.AperFunction,Conductor*%
%TO.N,BUS_SDI*%
G36*
X48650363Y-17518907D02*
G01*
X48686327Y-17568407D01*
X48686327Y-17629593D01*
X48685989Y-17630612D01*
X48597707Y-17892612D01*
X48579788Y-17916721D01*
X48562081Y-17941093D01*
X48561544Y-17941267D01*
X48561209Y-17941719D01*
X48503890Y-17960000D01*
X48496110Y-17960000D01*
X48437919Y-17941093D01*
X48402293Y-17892612D01*
X48270000Y-17500000D01*
X48500000Y-17500000D01*
X48500001Y-17500000D01*
X48592172Y-17500000D01*
X48650363Y-17518907D01*
G37*
%TD.AperFunction*%
%TD*%
%TA.AperFunction,Conductor*%
%TO.N,BUS_SDO*%
G36*
X36650363Y-4518907D02*
G01*
X36686327Y-4568407D01*
X36686327Y-4629593D01*
X36685989Y-4630612D01*
X36597707Y-4892612D01*
X36579788Y-4916721D01*
X36562081Y-4941093D01*
X36561544Y-4941267D01*
X36561209Y-4941719D01*
X36503890Y-4960000D01*
X36496110Y-4960000D01*
X36437919Y-4941093D01*
X36402293Y-4892612D01*
X36314011Y-4630612D01*
X36313347Y-4569430D01*
X36348772Y-4519543D01*
X36406754Y-4500006D01*
X36407828Y-4500000D01*
X36592172Y-4500000D01*
X36650363Y-4518907D01*
G37*
%TD.AperFunction*%
%TD*%
%TA.AperFunction,Conductor*%
%TO.N,BUS_SDO*%
G36*
X45980457Y-14848771D02*
G01*
X45999994Y-14906753D01*
X46000000Y-14907827D01*
X46000000Y-15092172D01*
X45981093Y-15150363D01*
X45931593Y-15186327D01*
X45870407Y-15186327D01*
X45869388Y-15185989D01*
X45607388Y-15097706D01*
X45583308Y-15079808D01*
X45558907Y-15062080D01*
X45558732Y-15061542D01*
X45558281Y-15061207D01*
X45540000Y-15003889D01*
X45540000Y-14996110D01*
X45558907Y-14937919D01*
X45607387Y-14902293D01*
X45869389Y-14814009D01*
X45930569Y-14813346D01*
X45980457Y-14848771D01*
G37*
%TD.AperFunction*%
%TD*%
%TA.AperFunction,Conductor*%
%TO.N,BUS_SDI*%
G36*
X34112308Y-5632436D02*
G01*
X34136607Y-5650373D01*
X34161093Y-5668164D01*
X34161215Y-5668540D01*
X34161532Y-5668774D01*
X34180000Y-5726355D01*
X34180000Y-5733644D01*
X34161093Y-5791835D01*
X34112307Y-5827564D01*
X33860307Y-5911564D01*
X33799123Y-5912028D01*
X33749351Y-5876441D01*
X33730003Y-5818396D01*
X33730000Y-5817644D01*
X33730000Y-5730001D01*
X33730000Y-5730000D01*
X33955000Y-5730000D01*
X33898750Y-5561250D01*
X34112308Y-5632436D01*
G37*
%TD.AperFunction*%
%TD*%
%TA.AperFunction,Conductor*%
%TO.N,BUS_SDI*%
G36*
X33791835Y-5298907D02*
G01*
X33827564Y-5347693D01*
X33955000Y-5730000D01*
X33642356Y-5730000D01*
X33584165Y-5711093D01*
X33548201Y-5661593D01*
X33548201Y-5600407D01*
X33548436Y-5599693D01*
X33632436Y-5347693D01*
X33650374Y-5323392D01*
X33668165Y-5298907D01*
X33668541Y-5298784D01*
X33668775Y-5298468D01*
X33726356Y-5280000D01*
X33733644Y-5280000D01*
X33791835Y-5298907D01*
G37*
%TD.AperFunction*%
%TD*%
%TA.AperFunction,Conductor*%
%TO.N,BUS_SDO*%
G36*
X36652308Y-5632436D02*
G01*
X36676607Y-5650373D01*
X36701093Y-5668164D01*
X36701215Y-5668540D01*
X36701532Y-5668774D01*
X36720000Y-5726355D01*
X36720000Y-5733644D01*
X36701093Y-5791835D01*
X36652307Y-5827564D01*
X36400307Y-5911564D01*
X36339123Y-5912028D01*
X36289351Y-5876441D01*
X36270003Y-5818396D01*
X36270000Y-5817644D01*
X36270000Y-5730001D01*
X36270000Y-5730000D01*
X36495000Y-5730000D01*
X36438750Y-5561250D01*
X36652308Y-5632436D01*
G37*
%TD.AperFunction*%
%TD*%
%TA.AperFunction,Conductor*%
%TO.N,BUS_SDO*%
G36*
X36331835Y-5298907D02*
G01*
X36367564Y-5347693D01*
X36495000Y-5730000D01*
X36182356Y-5730000D01*
X36124165Y-5711093D01*
X36088201Y-5661593D01*
X36088201Y-5600407D01*
X36088436Y-5599693D01*
X36172436Y-5347693D01*
X36190374Y-5323392D01*
X36208165Y-5298907D01*
X36208541Y-5298784D01*
X36208775Y-5298468D01*
X36266356Y-5280000D01*
X36273644Y-5280000D01*
X36331835Y-5298907D01*
G37*
%TD.AperFunction*%
%TD*%
M02*
