%TF.GenerationSoftware,KiCad,Pcbnew,10.0.3*%
%TF.CreationDate,2026-06-21T15:43:01-04:00*%
%TF.ProjectId,fpga_tile,66706761-5f74-4696-9c65-2e6b69636164,rev?*%
%TF.SameCoordinates,Original*%
%TF.FileFunction,Copper,L1,Top*%
%TF.FilePolarity,Positive*%
%FSLAX46Y46*%
G04 Gerber Fmt 4.6, Leading zero omitted, Abs format (unit mm)*
G04 Created by KiCad (PCBNEW 10.0.3) date 2026-06-21 15:43:01*
%MOMM*%
%LPD*%
G01*
G04 APERTURE LIST*
%TA.AperFunction,SMDPad,CuDef*%
%ADD10R,0.600000X0.600000*%
%TD*%
%TA.AperFunction,SMDPad,CuDef*%
%ADD11R,0.500000X0.500000*%
%TD*%
%TA.AperFunction,ComponentPad*%
%ADD12C,1.000000*%
%TD*%
%TA.AperFunction,SMDPad,CuDef*%
%ADD13C,1.000000*%
%TD*%
%TA.AperFunction,ViaPad*%
%ADD14C,0.460000*%
%TD*%
%TA.AperFunction,Conductor*%
%ADD15C,0.250000*%
%TD*%
%TA.AperFunction,Conductor*%
%ADD16C,0.150000*%
%TD*%
G04 APERTURE END LIST*
D10*
%TO.P,U1,1*%
%TO.N,VCCINT*%
X47909200Y-31606100D03*
%TO.P,U1,2*%
%TO.N,VCCAUX*%
X45477200Y-31606100D03*
%TO.P,U1,3*%
%TO.N,VCCO_3V3*%
X43045200Y-31606100D03*
%TO.P,U1,4*%
%TO.N,GND*%
X40613200Y-31606100D03*
%TO.P,U1,5*%
X38181200Y-31606100D03*
%TO.P,U1,6*%
X35749200Y-31606100D03*
%TO.P,U1,7*%
%TO.N,CLK*%
X33925200Y-30998100D03*
%TO.P,U1,8*%
%TO.N,CCLK*%
X33925200Y-28566100D03*
%TO.P,U1,9*%
%TO.N,DIN*%
X33925200Y-26134100D03*
%TO.P,U1,10*%
%TO.N,DOUT*%
X33925200Y-23702100D03*
%TO.P,U1,11*%
%TO.N,CFG_CS*%
X33925200Y-21270100D03*
%TO.P,U1,12*%
%TO.N,PROG*%
X33925200Y-18838100D03*
%TO.P,U1,13*%
%TO.N,DONE*%
X33925200Y-16406100D03*
%TO.P,U1,14*%
%TO.N,INIT*%
X36357200Y-16406100D03*
%TO.P,U1,15*%
%TO.N,TCK*%
X38789200Y-16406100D03*
%TO.P,U1,16*%
%TO.N,TMS*%
X41221200Y-16406100D03*
%TO.P,U1,17*%
%TO.N,TDI*%
X43653200Y-16406100D03*
%TO.P,U1,18*%
%TO.N,TDO*%
X46085200Y-16406100D03*
%TO.P,U1,19*%
%TO.N,BUS_SCLK*%
X48517200Y-16406100D03*
%TO.P,U1,20*%
%TO.N,BUS_SDI*%
X49125200Y-18230100D03*
%TO.P,U1,21*%
%TO.N,BUS_SDO*%
X49125200Y-20662100D03*
%TO.P,U1,22*%
%TO.N,BUS_LATCH*%
X49125200Y-23094100D03*
%TO.P,U1,23*%
%TO.N,BUS_nRST*%
X49125200Y-25526100D03*
%TO.P,U1,24*%
%TO.N,CHAIN_IN*%
X49125200Y-27958100D03*
%TO.P,U1,25*%
%TO.N,CHAIN_OUT*%
X49125200Y-30390100D03*
%TD*%
%TO.P,U2,1*%
%TO.N,CCLK*%
X32116200Y-22309500D03*
%TO.P,U2,2*%
%TO.N,DIN*%
X32116200Y-24159500D03*
%TO.P,U2,3*%
%TO.N,DOUT*%
X30691200Y-24584500D03*
%TO.P,U2,4*%
%TO.N,CFG_CS*%
X28841200Y-24584500D03*
%TO.P,U2,5*%
%TO.N,VCCO_3V3*%
X27916200Y-23659500D03*
%TO.P,U2,6*%
X27916200Y-21809500D03*
%TO.P,U2,7*%
X29341200Y-21384500D03*
%TO.P,U2,8*%
%TO.N,GND*%
X31191200Y-21384500D03*
%TD*%
%TO.P,Y1,1*%
%TO.N,VCCO_3V3*%
X30404100Y-31227300D03*
%TO.P,Y1,2*%
%TO.N,GND*%
X31079100Y-29852300D03*
%TO.P,Y1,3*%
%TO.N,CLK*%
X32104100Y-30877300D03*
%TO.P,Y1,4*%
%TO.N,VCCO_3V3*%
X31429100Y-32252300D03*
%TD*%
D11*
%TO.P,C1,1*%
%TO.N,VCCINT*%
X48179300Y-33606700D03*
%TO.P,C1,2*%
%TO.N,GND*%
X47079300Y-33606700D03*
%TD*%
%TO.P,C2,1*%
%TO.N,VCCAUX*%
X35078600Y-33608800D03*
%TO.P,C2,2*%
%TO.N,GND*%
X36178600Y-33608800D03*
%TD*%
%TO.P,C3,1*%
%TO.N,VCCO_3V3*%
X40276000Y-33610200D03*
%TO.P,C3,2*%
%TO.N,GND*%
X41376000Y-33610200D03*
%TD*%
%TO.P,C4,1*%
%TO.N,VCCO_3V3*%
X28711800Y-19378200D03*
%TO.P,C4,2*%
%TO.N,GND*%
X29811800Y-19378200D03*
%TD*%
%TO.P,R1,1*%
%TO.N,PROG*%
X34115400Y-14397300D03*
%TO.P,R1,2*%
%TO.N,VCCO_3V3*%
X35215400Y-14397300D03*
%TD*%
%TO.P,R2,1*%
%TO.N,DONE*%
X22787300Y-16328900D03*
%TO.P,R2,2*%
%TO.N,VCCO_3V3*%
X22787300Y-15228900D03*
%TD*%
%TO.P,R3,1*%
%TO.N,INIT*%
X36342000Y-35824800D03*
%TO.P,R3,2*%
%TO.N,VCCO_3V3*%
X35242000Y-35824800D03*
%TD*%
D10*
%TO.P,J1,1*%
%TO.N,VCCINT*%
X23042200Y-30326200D03*
%TO.P,J1,2*%
%TO.N,VCCAUX*%
X16908900Y-30326200D03*
%TO.P,J1,3*%
%TO.N,VCCO_3V3*%
X14908900Y-26192900D03*
%TO.P,J1,4*%
%TO.N,GND*%
X17975600Y-23126200D03*
%TO.P,J1,5*%
%TO.N,P5V*%
X24108900Y-23126200D03*
%TO.P,J1,6*%
%TO.N,VPP*%
X26108900Y-27259500D03*
%TD*%
%TO.P,J3,1*%
%TO.N,TCK*%
X26809500Y-12343300D03*
%TO.P,J3,2*%
%TO.N,TMS*%
X30609500Y-12343300D03*
%TO.P,J3,3*%
%TO.N,TDI*%
X32109500Y-14643300D03*
%TO.P,J3,4*%
%TO.N,TDO*%
X30209500Y-16543300D03*
%TO.P,J3,5*%
%TO.N,VCCO_3V3*%
X26409500Y-16543300D03*
%TO.P,J3,6*%
%TO.N,GND*%
X24909500Y-14243300D03*
%TD*%
D12*
%TO.P,J_STACK,1*%
%TO.N,VPP*%
X21030000Y-5730000D03*
%TO.P,J_STACK,2*%
%TO.N,GND*%
X21030000Y-8270000D03*
%TO.P,J_STACK,3*%
%TO.N,VPP*%
X23570000Y-5730000D03*
%TO.P,J_STACK,4*%
%TO.N,GND*%
X23570000Y-8270000D03*
%TO.P,J_STACK,5*%
%TO.N,P5V*%
X26110000Y-5730000D03*
%TO.P,J_STACK,6*%
%TO.N,GND*%
X26110000Y-8270000D03*
%TO.P,J_STACK,7*%
%TO.N,VCCO_3V3*%
X28650000Y-5730000D03*
%TO.P,J_STACK,8*%
%TO.N,GND*%
X28650000Y-8270000D03*
%TO.P,J_STACK,9*%
%TO.N,BUS_SCLK*%
X31190000Y-5730000D03*
%TO.P,J_STACK,10*%
%TO.N,GND*%
X31190000Y-8270000D03*
%TO.P,J_STACK,11*%
%TO.N,BUS_SDI*%
X33730000Y-5730000D03*
%TO.P,J_STACK,12*%
%TO.N,GND*%
X33730000Y-8270000D03*
%TO.P,J_STACK,13*%
%TO.N,BUS_SDO*%
X36270000Y-5730000D03*
%TO.P,J_STACK,14*%
%TO.N,GND*%
X36270000Y-8270000D03*
%TO.P,J_STACK,15*%
%TO.N,BUS_LATCH*%
X38810000Y-5730000D03*
%TO.P,J_STACK,16*%
%TO.N,GND*%
X38810000Y-8270000D03*
%TO.P,J_STACK,17*%
%TO.N,BUS_nRST*%
X41350000Y-5730000D03*
%TO.P,J_STACK,18*%
%TO.N,GND*%
X41350000Y-8270000D03*
%TO.P,J_STACK,19*%
%TO.N,CHAIN_IN*%
X43890000Y-5730000D03*
%TO.P,J_STACK,20*%
%TO.N,GND*%
X43890000Y-8270000D03*
%TO.P,J_STACK,21*%
%TO.N,CHAIN_OUT*%
X46430000Y-5730000D03*
%TO.P,J_STACK,22*%
%TO.N,GND*%
X46430000Y-8270000D03*
%TO.P,J_STACK,23*%
%TO.N,VCCO_3V3*%
X48970000Y-5730000D03*
%TO.P,J_STACK,24*%
%TO.N,GND*%
X48970000Y-8270000D03*
%TD*%
D13*
%TO.P,FID,1*%
%TO.N,N/C*%
X8040000Y-8040000D03*
%TD*%
%TO.P,FID,1*%
%TO.N,N/C*%
X61960000Y-8040000D03*
%TD*%
%TO.P,FID,1*%
%TO.N,N/C*%
X8040000Y-47960000D03*
%TD*%
D14*
%TO.N,VCCAUX*%
X17000000Y-30500000D03*
X43500000Y-32500000D03*
X35000000Y-33500000D03*
%TO.N,VCCO_3V3*%
X28500000Y-4500000D03*
X33500000Y-14000000D03*
X23000000Y-15000000D03*
X26500000Y-16000000D03*
X42500000Y-31500000D03*
X40500000Y-33500000D03*
%TO.N,GND*%
X29500000Y-20500000D03*
X18000000Y-23000000D03*
%TO.N,CCLK*%
X32000000Y-22500000D03*
X34000000Y-28500000D03*
%TO.N,DOUT*%
X34000000Y-23500000D03*
X30500000Y-24500000D03*
%TO.N,CFG_CS*%
X34000000Y-21500000D03*
X29000000Y-24500000D03*
%TO.N,DONE*%
X23000000Y-16500000D03*
X34000000Y-16500000D03*
%TO.N,INIT*%
X36500000Y-16500000D03*
X36500000Y-36000000D03*
%TO.N,TCK*%
X27000000Y-12500000D03*
X39000000Y-16500000D03*
%TO.N,TMS*%
X30500000Y-12500000D03*
X41000000Y-16500000D03*
%TO.N,TDI*%
X32000000Y-14500000D03*
X43500000Y-16500000D03*
%TO.N,TDO*%
X30000000Y-16500000D03*
X46000000Y-16500000D03*
%TO.N,BUS_SCLK*%
X31000000Y-4500000D03*
X48500000Y-16500000D03*
%TO.N,BUS_SDI*%
X33500000Y-4500000D03*
X48500000Y-17500000D03*
X49000000Y-18000000D03*
%TO.N,BUS_SDO*%
X36500000Y-4500000D03*
X46000000Y-15000000D03*
X49000000Y-20500000D03*
%TO.N,BUS_LATCH*%
X39000000Y-4500000D03*
X49000000Y-23000000D03*
%TO.N,BUS_nRST*%
X43000000Y-4500000D03*
X51000000Y-25500000D03*
%TO.N,CHAIN_IN*%
X44000000Y-4500000D03*
X49000000Y-28000000D03*
%TO.N,CHAIN_OUT*%
X46500000Y-4500000D03*
X49000000Y-30500000D03*
%TO.N,P5V*%
X25500000Y-4500000D03*
X22000000Y-17500000D03*
%TD*%
%TO.N,VCCINT*%
D15*
X23000000Y-32000000D02*
X24500000Y-32000000D01*
X24500000Y-32500000D02*
X25500000Y-32500000D01*
X25500000Y-33500000D02*
X27000000Y-33500000D01*
X27000000Y-34500000D02*
X27500000Y-34500000D01*
X46000000Y-34500000D02*
X48000000Y-34500000D01*
X27500000Y-35000000D02*
X28000000Y-35000000D01*
X39000000Y-35000000D02*
X46000000Y-35000000D01*
X28000000Y-35500000D02*
X28500000Y-35500000D01*
X37000000Y-35500000D02*
X39000000Y-35500000D01*
X28500000Y-36000000D02*
X29000000Y-36000000D01*
X29000000Y-36500000D02*
X37000000Y-36500000D01*
X23000000Y-30500000D02*
X23000000Y-32000000D01*
X24500000Y-32000000D02*
X24500000Y-32500000D01*
X25500000Y-32500000D02*
X25500000Y-33500000D01*
X27000000Y-33500000D02*
X27000000Y-34500000D01*
X27500000Y-34500000D02*
X27500000Y-35000000D01*
X28000000Y-35000000D02*
X28000000Y-35500000D01*
X28500000Y-35500000D02*
X28500000Y-36000000D01*
X29000000Y-36000000D02*
X29000000Y-36500000D01*
X37000000Y-35500000D02*
X37000000Y-36500000D01*
X39000000Y-35000000D02*
X39000000Y-35500000D01*
X46000000Y-34500000D02*
X46000000Y-35000000D01*
X48000000Y-31500000D02*
X48000000Y-34500000D01*
%TO.N,VCCAUX*%
X45000000Y-32000000D02*
X45500000Y-32000000D01*
X43500000Y-32500000D02*
X45000000Y-32500000D01*
X45000000Y-32000000D02*
X45000000Y-32500000D01*
X45500000Y-31500000D02*
X45500000Y-32000000D01*
%TO.N,VCCO_3V3*%
X28500000Y-4000000D02*
X48000000Y-4000000D01*
X48000000Y-4500000D02*
X48500000Y-4500000D01*
X48500000Y-5500000D02*
X49000000Y-5500000D01*
X33500000Y-13500000D02*
X35000000Y-13500000D01*
X19500000Y-15000000D02*
X23000000Y-15000000D01*
X19000000Y-16000000D02*
X19500000Y-16000000D01*
X26500000Y-16500000D02*
X27000000Y-16500000D01*
X18500000Y-17000000D02*
X19000000Y-17000000D01*
X27000000Y-17000000D02*
X27500000Y-17000000D01*
X18000000Y-17500000D02*
X18500000Y-17500000D01*
X17500000Y-18000000D02*
X18000000Y-18000000D01*
X17000000Y-18500000D02*
X17500000Y-18500000D01*
X27500000Y-18500000D02*
X28000000Y-18500000D01*
X16500000Y-19000000D02*
X17000000Y-19000000D01*
X28000000Y-19000000D02*
X28500000Y-19000000D01*
X28500000Y-19500000D02*
X29000000Y-19500000D01*
X16000000Y-20000000D02*
X16500000Y-20000000D01*
X15500000Y-20500000D02*
X16000000Y-20500000D01*
X29000000Y-21000000D02*
X29500000Y-21000000D01*
X14500000Y-21500000D02*
X15500000Y-21500000D01*
X28000000Y-22000000D02*
X29500000Y-22000000D01*
X28000000Y-24000000D02*
X29500000Y-24000000D01*
X29500000Y-24500000D02*
X30000000Y-24500000D01*
X14500000Y-25500000D02*
X15000000Y-25500000D01*
X30000000Y-26000000D02*
X30500000Y-26000000D01*
X30500000Y-31500000D02*
X31000000Y-31500000D01*
X42500000Y-31500000D02*
X43000000Y-31500000D01*
X31000000Y-32000000D02*
X31500000Y-32000000D01*
X31500000Y-32500000D02*
X32000000Y-32500000D01*
X32000000Y-33000000D02*
X34000000Y-33000000D01*
X39500000Y-33500000D02*
X40500000Y-33500000D01*
X34000000Y-34000000D02*
X34500000Y-34000000D01*
X39000000Y-34000000D02*
X39500000Y-34000000D01*
X36000000Y-34500000D02*
X39000000Y-34500000D01*
X35500000Y-35000000D02*
X36000000Y-35000000D01*
X34500000Y-35500000D02*
X35500000Y-35500000D01*
X14500000Y-21500000D02*
X14500000Y-25500000D01*
X15000000Y-25500000D02*
X15000000Y-26000000D01*
X15500000Y-20500000D02*
X15500000Y-21500000D01*
X16000000Y-20000000D02*
X16000000Y-20500000D01*
X16500000Y-19000000D02*
X16500000Y-20000000D01*
X17000000Y-18500000D02*
X17000000Y-19000000D01*
X17500000Y-18000000D02*
X17500000Y-18500000D01*
X18000000Y-17500000D02*
X18000000Y-18000000D01*
X18500000Y-17000000D02*
X18500000Y-17500000D01*
X19000000Y-16000000D02*
X19000000Y-17000000D01*
X19500000Y-15000000D02*
X19500000Y-16000000D01*
X26500000Y-16000000D02*
X26500000Y-16500000D01*
X27000000Y-16500000D02*
X27000000Y-17000000D01*
X27500000Y-17000000D02*
X27500000Y-18500000D01*
X28000000Y-18500000D02*
X28000000Y-19000000D01*
X28000000Y-22000000D02*
X28000000Y-24000000D01*
X28500000Y-4000000D02*
X28500000Y-5500000D01*
X28500000Y-19000000D02*
X28500000Y-19500000D01*
X29000000Y-19500000D02*
X29000000Y-21000000D01*
X29500000Y-21000000D02*
X29500000Y-22000000D01*
X29500000Y-24000000D02*
X29500000Y-24500000D01*
X30000000Y-24500000D02*
X30000000Y-26000000D01*
X30500000Y-26000000D02*
X30500000Y-31500000D01*
X31000000Y-31500000D02*
X31000000Y-32000000D01*
X31500000Y-32000000D02*
X31500000Y-32500000D01*
X32000000Y-32500000D02*
X32000000Y-33000000D01*
X33500000Y-13500000D02*
X33500000Y-14000000D01*
X34000000Y-33000000D02*
X34000000Y-34000000D01*
X34500000Y-34000000D02*
X34500000Y-35500000D01*
X35000000Y-13500000D02*
X35000000Y-14500000D01*
X35000000Y-35500000D02*
X35000000Y-36000000D01*
X35500000Y-35000000D02*
X35500000Y-35500000D01*
X36000000Y-34500000D02*
X36000000Y-35000000D01*
X39000000Y-34000000D02*
X39000000Y-34500000D01*
X39500000Y-33500000D02*
X39500000Y-34000000D01*
X48000000Y-4000000D02*
X48000000Y-4500000D01*
X48500000Y-4500000D02*
X48500000Y-5500000D01*
%TO.N,GND*%
X23500000Y-8500000D02*
X24000000Y-8500000D01*
X26000000Y-8500000D02*
X26500000Y-8500000D01*
X31000000Y-8500000D02*
X31500000Y-8500000D01*
X36000000Y-8500000D02*
X36500000Y-8500000D01*
X38500000Y-8500000D02*
X39000000Y-8500000D01*
X21000000Y-9000000D02*
X21500000Y-9000000D01*
X28500000Y-9000000D02*
X29000000Y-9000000D01*
X43500000Y-9000000D02*
X44000000Y-9000000D01*
X48500000Y-9000000D02*
X49000000Y-9000000D01*
X21500000Y-9500000D02*
X28500000Y-9500000D01*
X29000000Y-9500000D02*
X48500000Y-9500000D01*
X24500000Y-13500000D02*
X25000000Y-13500000D01*
X31500000Y-17000000D02*
X33000000Y-17000000D01*
X31000000Y-18000000D02*
X31500000Y-18000000D01*
X30000000Y-19500000D02*
X31000000Y-19500000D01*
X29500000Y-20500000D02*
X31000000Y-20500000D01*
X31000000Y-21500000D02*
X31500000Y-21500000D01*
X31000000Y-27500000D02*
X31500000Y-27500000D01*
X31000000Y-30500000D02*
X31500000Y-30500000D01*
X31500000Y-31500000D02*
X33000000Y-31500000D01*
X40500000Y-31500000D02*
X41000000Y-31500000D01*
X33000000Y-32500000D02*
X35500000Y-32500000D01*
X35500000Y-33000000D02*
X36000000Y-33000000D01*
X38000000Y-33000000D02*
X41000000Y-33000000D01*
X36000000Y-33500000D02*
X38000000Y-33500000D01*
X41000000Y-33500000D02*
X41500000Y-33500000D01*
X41500000Y-34000000D02*
X47000000Y-34000000D01*
X21000000Y-8500000D02*
X21000000Y-9000000D01*
X21500000Y-9000000D02*
X21500000Y-9500000D01*
X24000000Y-8500000D02*
X24000000Y-9500000D01*
X24500000Y-9500000D02*
X24500000Y-13500000D01*
X25000000Y-13500000D02*
X25000000Y-14000000D01*
X26500000Y-8500000D02*
X26500000Y-9500000D01*
X28500000Y-8500000D02*
X28500000Y-9500000D01*
X29000000Y-9000000D02*
X29000000Y-9500000D01*
X30500000Y-19500000D02*
X30500000Y-20500000D01*
X31000000Y-18000000D02*
X31000000Y-19500000D01*
X31000000Y-20500000D02*
X31000000Y-21500000D01*
X31000000Y-27500000D02*
X31000000Y-30500000D01*
X31500000Y-8500000D02*
X31500000Y-9500000D01*
X31500000Y-17000000D02*
X31500000Y-18000000D01*
X31500000Y-21500000D02*
X31500000Y-27500000D01*
X31500000Y-30500000D02*
X31500000Y-31500000D01*
X33000000Y-9500000D02*
X33000000Y-17000000D01*
X33000000Y-31500000D02*
X33000000Y-32500000D01*
X33500000Y-8500000D02*
X33500000Y-9500000D01*
X35500000Y-31500000D02*
X35500000Y-33000000D01*
X36000000Y-8500000D02*
X36000000Y-9500000D01*
X36000000Y-33000000D02*
X36000000Y-33500000D01*
X38000000Y-31500000D02*
X38000000Y-33500000D01*
X38500000Y-8500000D02*
X38500000Y-9500000D01*
X41000000Y-31500000D02*
X41000000Y-33500000D01*
X41500000Y-8500000D02*
X41500000Y-9500000D01*
X41500000Y-33500000D02*
X41500000Y-34000000D01*
X43500000Y-9000000D02*
X43500000Y-9500000D01*
X44000000Y-8500000D02*
X44000000Y-9000000D01*
X46500000Y-8500000D02*
X46500000Y-9500000D01*
X47000000Y-33500000D02*
X47000000Y-34000000D01*
X48500000Y-9000000D02*
X48500000Y-9500000D01*
X49000000Y-8500000D02*
X49000000Y-9000000D01*
%TO.N,CLK*%
D16*
X32000000Y-31000000D02*
X34000000Y-31000000D01*
%TO.N,DIN*%
X32000000Y-24000000D02*
X32500000Y-24000000D01*
X32500000Y-24500000D02*
X33000000Y-24500000D01*
X33000000Y-26000000D02*
X34000000Y-26000000D01*
X32500000Y-24000000D02*
X32500000Y-24500000D01*
X33000000Y-24500000D02*
X33000000Y-26000000D01*
%TO.N,PROG*%
X34000000Y-14500000D02*
X34500000Y-14500000D01*
X33500000Y-17000000D02*
X34500000Y-17000000D01*
X33500000Y-19000000D02*
X34000000Y-19000000D01*
X33500000Y-17000000D02*
X33500000Y-19000000D01*
X34500000Y-14500000D02*
X34500000Y-17000000D01*
%TO.N,BUS_SCLK*%
X31000000Y-4500000D02*
X31000000Y-5500000D01*
%TO.N,BUS_SDI*%
X33500000Y-4500000D02*
X33500000Y-5500000D01*
%TO.N,BUS_SDO*%
X36500000Y-4500000D02*
X36500000Y-5500000D01*
%TO.N,BUS_LATCH*%
X39000000Y-4500000D02*
X39000000Y-5500000D01*
%TO.N,BUS_nRST*%
X42000000Y-4500000D02*
X43000000Y-4500000D01*
X41500000Y-5000000D02*
X42000000Y-5000000D01*
X49000000Y-25500000D02*
X51000000Y-25500000D01*
X41500000Y-5000000D02*
X41500000Y-5500000D01*
X42000000Y-4500000D02*
X42000000Y-5000000D01*
%TO.N,CHAIN_IN*%
X44000000Y-4500000D02*
X44000000Y-5500000D01*
%TO.N,CHAIN_OUT*%
X46500000Y-4500000D02*
X46500000Y-5500000D01*
%TO.N,VPP*%
D15*
X21500000Y-4500000D02*
X23000000Y-4500000D01*
X23000000Y-5000000D02*
X23500000Y-5000000D01*
X20500000Y-5500000D02*
X21500000Y-5500000D01*
X20000000Y-6000000D02*
X20500000Y-6000000D01*
X20000000Y-10000000D02*
X21000000Y-10000000D01*
X21000000Y-10500000D02*
X21500000Y-10500000D01*
X21500000Y-11000000D02*
X22000000Y-11000000D01*
X22000000Y-11500000D02*
X23000000Y-11500000D01*
X23000000Y-12500000D02*
X23500000Y-12500000D01*
X23500000Y-17500000D02*
X27000000Y-17500000D01*
X26500000Y-27000000D02*
X27000000Y-27000000D01*
X26000000Y-27500000D02*
X26500000Y-27500000D01*
X20000000Y-6000000D02*
X20000000Y-10000000D01*
X20500000Y-5500000D02*
X20500000Y-6000000D01*
X21000000Y-10000000D02*
X21000000Y-10500000D01*
X21500000Y-4500000D02*
X21500000Y-5500000D01*
X21500000Y-10500000D02*
X21500000Y-11000000D01*
X22000000Y-11000000D02*
X22000000Y-11500000D01*
X23000000Y-4500000D02*
X23000000Y-5000000D01*
X23000000Y-11500000D02*
X23000000Y-12500000D01*
X23500000Y-5000000D02*
X23500000Y-5500000D01*
X23500000Y-12500000D02*
X23500000Y-17500000D01*
X26500000Y-27000000D02*
X26500000Y-27500000D01*
X27000000Y-17500000D02*
X27000000Y-27000000D01*
%TO.N,P5V*%
X25500000Y-5500000D02*
X26000000Y-5500000D01*
X22000000Y-17500000D02*
X22500000Y-17500000D01*
X22500000Y-18000000D02*
X23500000Y-18000000D01*
X23500000Y-18500000D02*
X24000000Y-18500000D01*
X22500000Y-17500000D02*
X22500000Y-18000000D01*
X23500000Y-18000000D02*
X23500000Y-18500000D01*
X24000000Y-18500000D02*
X24000000Y-23000000D01*
X25500000Y-4500000D02*
X25500000Y-5500000D01*
%TD*%
%TA.AperFunction,Conductor*%
%TO.N,VCCAUX*%
G36*
X43634096Y-32300609D02*
G01*
X43867749Y-32353943D01*
X43873984Y-32356444D01*
X43874046Y-32356221D01*
X43877084Y-32357059D01*
X43879121Y-32358403D01*
X43882777Y-32358658D01*
X43887818Y-32360693D01*
X43896323Y-32365406D01*
X43896503Y-32365478D01*
X43897133Y-32365855D01*
X43908948Y-32372401D01*
X43912924Y-32375290D01*
X43914722Y-32376596D01*
X43914078Y-32377481D01*
X43920809Y-32385913D01*
X43928152Y-32390759D01*
X43931238Y-32398980D01*
X43947379Y-32419202D01*
X43948364Y-32418782D01*
X43949237Y-32420825D01*
X43949239Y-32420830D01*
X43952031Y-32427363D01*
X43960000Y-32466275D01*
X43960000Y-32530371D01*
X43955154Y-32560964D01*
X43951032Y-32573650D01*
X43915068Y-32623150D01*
X43907173Y-32628886D01*
X43871014Y-32645311D01*
X43636314Y-32698883D01*
X43605415Y-32700967D01*
X43592550Y-32699810D01*
X43566355Y-32688615D01*
X43539691Y-32678608D01*
X43538415Y-32676675D01*
X43536287Y-32675766D01*
X43505986Y-32627545D01*
X43503566Y-32618779D01*
X43500000Y-32592446D01*
X43500000Y-32409823D01*
X43504843Y-32379237D01*
X43508836Y-32366945D01*
X43544796Y-32317445D01*
X43598543Y-32298634D01*
X43607625Y-32298226D01*
X43634096Y-32300609D01*
G37*
%TD.AperFunction*%
%TD*%
%TA.AperFunction,Conductor*%
%TO.N,VCCO_3V3*%
G36*
X28883036Y-4357432D02*
G01*
X28886986Y-4359792D01*
X28891593Y-4359792D01*
X28912924Y-4375290D01*
X28935555Y-4388812D01*
X28937365Y-4393047D01*
X28941093Y-4395756D01*
X28949239Y-4420830D01*
X28959602Y-4445074D01*
X28960000Y-4453947D01*
X28960000Y-4546050D01*
X28941093Y-4604241D01*
X28891593Y-4640205D01*
X28883031Y-4642567D01*
X28687258Y-4687254D01*
X28687257Y-4687254D01*
X28730000Y-4500000D01*
X28500000Y-4500000D01*
X28500000Y-4394143D01*
X28518907Y-4335952D01*
X28568407Y-4299988D01*
X28621024Y-4297625D01*
X28883036Y-4357432D01*
G37*
%TD.AperFunction*%
%TD*%
%TA.AperFunction,Conductor*%
%TO.N,VCCO_3V3*%
G36*
X28687256Y-4687255D02*
G01*
X28687256Y-4687256D01*
X28642569Y-4883031D01*
X28640206Y-4886985D01*
X28640206Y-4891593D01*
X28624707Y-4912924D01*
X28611186Y-4935555D01*
X28606950Y-4937365D01*
X28604242Y-4941093D01*
X28579167Y-4949239D01*
X28554924Y-4959602D01*
X28546051Y-4960000D01*
X28453948Y-4960000D01*
X28395757Y-4941093D01*
X28359793Y-4891593D01*
X28357435Y-4883051D01*
X28297626Y-4621028D01*
X28303110Y-4560092D01*
X28343366Y-4514014D01*
X28394144Y-4500000D01*
X28499999Y-4500000D01*
X28500000Y-4500000D01*
X28730000Y-4500000D01*
X28687256Y-4687255D01*
G37*
%TD.AperFunction*%
%TD*%
%TA.AperFunction,Conductor*%
%TO.N,VCCO_3V3*%
G36*
X33795864Y-13837534D02*
G01*
X33848388Y-13868916D01*
X33872435Y-13925179D01*
X33858818Y-13984830D01*
X33821545Y-14017392D01*
X33822589Y-14018954D01*
X33814481Y-14024370D01*
X33814481Y-14024371D01*
X33790781Y-14040206D01*
X33771315Y-14053213D01*
X33771312Y-14053216D01*
X33742471Y-14096379D01*
X33742470Y-14096381D01*
X33738678Y-14115449D01*
X33708781Y-14168833D01*
X33702214Y-14172296D01*
X33687257Y-14187253D01*
X33730000Y-14000000D01*
X33500000Y-14000000D01*
X33500000Y-13894143D01*
X33518907Y-13835952D01*
X33568407Y-13799988D01*
X33621028Y-13797626D01*
X33795864Y-13837534D01*
G37*
%TD.AperFunction*%
%TD*%
%TA.AperFunction,Conductor*%
%TO.N,VCCO_3V3*%
G36*
X33687256Y-14187253D02*
G01*
X33687256Y-14187254D01*
X33642569Y-14383031D01*
X33640206Y-14386985D01*
X33640206Y-14391593D01*
X33624707Y-14412924D01*
X33611186Y-14435555D01*
X33606950Y-14437365D01*
X33604242Y-14441093D01*
X33579167Y-14449239D01*
X33554924Y-14459602D01*
X33546051Y-14460000D01*
X33453948Y-14460000D01*
X33395757Y-14441093D01*
X33359793Y-14391593D01*
X33357435Y-14383051D01*
X33297626Y-14121028D01*
X33303110Y-14060092D01*
X33343366Y-14014014D01*
X33394144Y-14000000D01*
X33499999Y-14000000D01*
X33500000Y-14000000D01*
X33730000Y-14000000D01*
X33687256Y-14187253D01*
G37*
%TD.AperFunction*%
%TD*%
%TA.AperFunction,Conductor*%
%TO.N,VCCO_3V3*%
G36*
X22939908Y-14803109D02*
G01*
X22985986Y-14843365D01*
X23000000Y-14894143D01*
X23000000Y-15105856D01*
X22981093Y-15164047D01*
X22931593Y-15200011D01*
X22878971Y-15202373D01*
X22616966Y-15142568D01*
X22613014Y-15140207D01*
X22608407Y-15140207D01*
X22587075Y-15124708D01*
X22564445Y-15111187D01*
X22562634Y-15106951D01*
X22558907Y-15104243D01*
X22550760Y-15079168D01*
X22540398Y-15054925D01*
X22540000Y-15046052D01*
X22540000Y-14953947D01*
X22558907Y-14895756D01*
X22608407Y-14859792D01*
X22616927Y-14857440D01*
X22878974Y-14797625D01*
X22939908Y-14803109D01*
G37*
%TD.AperFunction*%
%TD*%
%TA.AperFunction,Conductor*%
%TO.N,VCCO_3V3*%
G36*
X26883036Y-15857432D02*
G01*
X26886986Y-15859792D01*
X26891593Y-15859792D01*
X26912924Y-15875290D01*
X26935555Y-15888812D01*
X26937365Y-15893047D01*
X26941093Y-15895756D01*
X26949239Y-15920830D01*
X26959602Y-15945074D01*
X26960000Y-15953947D01*
X26960000Y-16046050D01*
X26941093Y-16104241D01*
X26891593Y-16140205D01*
X26883031Y-16142567D01*
X26687258Y-16187254D01*
X26687257Y-16187254D01*
X26730000Y-16000000D01*
X26500000Y-16000000D01*
X26500000Y-15894143D01*
X26518907Y-15835952D01*
X26568407Y-15799988D01*
X26621024Y-15797625D01*
X26883036Y-15857432D01*
G37*
%TD.AperFunction*%
%TD*%
%TA.AperFunction,Conductor*%
%TO.N,VCCO_3V3*%
G36*
X26687256Y-16187255D02*
G01*
X26687256Y-16187256D01*
X26642569Y-16383031D01*
X26640206Y-16386985D01*
X26640206Y-16391593D01*
X26624707Y-16412924D01*
X26611186Y-16435555D01*
X26606950Y-16437365D01*
X26604242Y-16441093D01*
X26579167Y-16449239D01*
X26554924Y-16459602D01*
X26546051Y-16460000D01*
X26453948Y-16460000D01*
X26395757Y-16441093D01*
X26359793Y-16391593D01*
X26357435Y-16383051D01*
X26297626Y-16121028D01*
X26303110Y-16060092D01*
X26343366Y-16014014D01*
X26394144Y-16000000D01*
X26499999Y-16000000D01*
X26500000Y-16000000D01*
X26730000Y-16000000D01*
X26687256Y-16187255D01*
G37*
%TD.AperFunction*%
%TD*%
%TA.AperFunction,Conductor*%
%TO.N,VCCO_3V3*%
G36*
X42883036Y-31357432D02*
G01*
X42886986Y-31359792D01*
X42891593Y-31359792D01*
X42912924Y-31375290D01*
X42935555Y-31388812D01*
X42937365Y-31393047D01*
X42941093Y-31395756D01*
X42949239Y-31420830D01*
X42959602Y-31445074D01*
X42960000Y-31453947D01*
X42960000Y-31546052D01*
X42941093Y-31604243D01*
X42891593Y-31640207D01*
X42883051Y-31642564D01*
X42621028Y-31702373D01*
X42560092Y-31696890D01*
X42514014Y-31656634D01*
X42500000Y-31605856D01*
X42500000Y-31394143D01*
X42518907Y-31335952D01*
X42568407Y-31299988D01*
X42621024Y-31297625D01*
X42883036Y-31357432D01*
G37*
%TD.AperFunction*%
%TD*%
%TA.AperFunction,Conductor*%
%TO.N,VCCO_3V3*%
G36*
X40439908Y-33303109D02*
G01*
X40485986Y-33343365D01*
X40500000Y-33394143D01*
X40500000Y-33605856D01*
X40481093Y-33664047D01*
X40431593Y-33700011D01*
X40378971Y-33702373D01*
X40116966Y-33642568D01*
X40113014Y-33640207D01*
X40108407Y-33640207D01*
X40087075Y-33624708D01*
X40064445Y-33611187D01*
X40062634Y-33606951D01*
X40058907Y-33604243D01*
X40050760Y-33579168D01*
X40040398Y-33554925D01*
X40040000Y-33546052D01*
X40040000Y-33453947D01*
X40058907Y-33395756D01*
X40108407Y-33359792D01*
X40116927Y-33357440D01*
X40378974Y-33297625D01*
X40439908Y-33303109D01*
G37*
%TD.AperFunction*%
%TD*%
%TA.AperFunction,Conductor*%
%TO.N,GND*%
G36*
X29883036Y-20357432D02*
G01*
X29886986Y-20359792D01*
X29891593Y-20359792D01*
X29912924Y-20375290D01*
X29935555Y-20388812D01*
X29937365Y-20393047D01*
X29941093Y-20395756D01*
X29949239Y-20420830D01*
X29959602Y-20445074D01*
X29960000Y-20453947D01*
X29960000Y-20546052D01*
X29941093Y-20604243D01*
X29891593Y-20640207D01*
X29883051Y-20642564D01*
X29621028Y-20702373D01*
X29560092Y-20696890D01*
X29514014Y-20656634D01*
X29500000Y-20605856D01*
X29500000Y-20394143D01*
X29518907Y-20335952D01*
X29568407Y-20299988D01*
X29621024Y-20297625D01*
X29883036Y-20357432D01*
G37*
%TD.AperFunction*%
%TD*%
%TA.AperFunction,Conductor*%
%TO.N,BUS_SCLK*%
G36*
X31150363Y-4518907D02*
G01*
X31186327Y-4568407D01*
X31186327Y-4629593D01*
X31185989Y-4630612D01*
X31097707Y-4892612D01*
X31079788Y-4916721D01*
X31062081Y-4941093D01*
X31061544Y-4941267D01*
X31061209Y-4941719D01*
X31003890Y-4960000D01*
X30996110Y-4960000D01*
X30937919Y-4941093D01*
X30902293Y-4892612D01*
X30814011Y-4630612D01*
X30813347Y-4569430D01*
X30848772Y-4519543D01*
X30906754Y-4500006D01*
X30907828Y-4500000D01*
X31092172Y-4500000D01*
X31150363Y-4518907D01*
G37*
%TD.AperFunction*%
%TD*%
%TA.AperFunction,Conductor*%
%TO.N,BUS_SDI*%
G36*
X33650363Y-4518907D02*
G01*
X33686327Y-4568407D01*
X33686327Y-4629593D01*
X33685989Y-4630612D01*
X33597707Y-4892612D01*
X33579788Y-4916721D01*
X33562081Y-4941093D01*
X33561544Y-4941267D01*
X33561209Y-4941719D01*
X33503890Y-4960000D01*
X33496110Y-4960000D01*
X33437919Y-4941093D01*
X33402293Y-4892612D01*
X33314011Y-4630612D01*
X33313347Y-4569430D01*
X33348772Y-4519543D01*
X33406754Y-4500006D01*
X33407828Y-4500000D01*
X33592172Y-4500000D01*
X33650363Y-4518907D01*
G37*
%TD.AperFunction*%
%TD*%
%TA.AperFunction,Conductor*%
%TO.N,BUS_SDO*%
G36*
X36650363Y-4518907D02*
G01*
X36686327Y-4568407D01*
X36686327Y-4629593D01*
X36685989Y-4630612D01*
X36597707Y-4892612D01*
X36579788Y-4916721D01*
X36562081Y-4941093D01*
X36561544Y-4941267D01*
X36561209Y-4941719D01*
X36503890Y-4960000D01*
X36496110Y-4960000D01*
X36437919Y-4941093D01*
X36402293Y-4892612D01*
X36314011Y-4630612D01*
X36313347Y-4569430D01*
X36348772Y-4519543D01*
X36406754Y-4500006D01*
X36407828Y-4500000D01*
X36592172Y-4500000D01*
X36650363Y-4518907D01*
G37*
%TD.AperFunction*%
%TD*%
%TA.AperFunction,Conductor*%
%TO.N,BUS_LATCH*%
G36*
X39150363Y-4518907D02*
G01*
X39186327Y-4568407D01*
X39186327Y-4629593D01*
X39185989Y-4630612D01*
X39097707Y-4892612D01*
X39079788Y-4916721D01*
X39062081Y-4941093D01*
X39061544Y-4941267D01*
X39061209Y-4941719D01*
X39003890Y-4960000D01*
X38996110Y-4960000D01*
X38937919Y-4941093D01*
X38902293Y-4892612D01*
X38814011Y-4630612D01*
X38813347Y-4569430D01*
X38848772Y-4519543D01*
X38906754Y-4500006D01*
X38907828Y-4500000D01*
X39092172Y-4500000D01*
X39150363Y-4518907D01*
G37*
%TD.AperFunction*%
%TD*%
%TA.AperFunction,Conductor*%
%TO.N,BUS_nRST*%
G36*
X42954847Y-4331988D02*
G01*
X42991348Y-4381093D01*
X42991348Y-4381094D01*
X42994816Y-4391385D01*
X43000000Y-4423000D01*
X43000000Y-4576491D01*
X42995154Y-4607085D01*
X42991633Y-4617921D01*
X42955669Y-4667421D01*
X42897479Y-4686327D01*
X42886621Y-4686327D01*
X42855010Y-4681144D01*
X42622246Y-4602712D01*
X42594803Y-4588352D01*
X42583858Y-4580217D01*
X42548566Y-4530748D01*
X42548402Y-4530232D01*
X42548583Y-4469693D01*
X42549046Y-4468266D01*
X42584590Y-4419044D01*
X42594979Y-4411410D01*
X42621985Y-4397374D01*
X42854530Y-4319016D01*
X42885063Y-4313839D01*
X42896456Y-4313715D01*
X42954847Y-4331988D01*
G37*
%TD.AperFunction*%
%TD*%
%TA.AperFunction,Conductor*%
%TO.N,BUS_nRST*%
G36*
X50980457Y-25348771D02*
G01*
X50999994Y-25406753D01*
X51000000Y-25407827D01*
X51000000Y-25592172D01*
X50981093Y-25650363D01*
X50931593Y-25686327D01*
X50870407Y-25686327D01*
X50869388Y-25685989D01*
X50607388Y-25597706D01*
X50583308Y-25579808D01*
X50558907Y-25562080D01*
X50558732Y-25561542D01*
X50558281Y-25561207D01*
X50540000Y-25503889D01*
X50540000Y-25496110D01*
X50558907Y-25437919D01*
X50607387Y-25402293D01*
X50869389Y-25314009D01*
X50930569Y-25313346D01*
X50980457Y-25348771D01*
G37*
%TD.AperFunction*%
%TD*%
%TA.AperFunction,Conductor*%
%TO.N,CHAIN_IN*%
G36*
X44150363Y-4518907D02*
G01*
X44186327Y-4568407D01*
X44186327Y-4629593D01*
X44185989Y-4630612D01*
X44097707Y-4892612D01*
X44079788Y-4916721D01*
X44062081Y-4941093D01*
X44061544Y-4941267D01*
X44061209Y-4941719D01*
X44003890Y-4960000D01*
X43996110Y-4960000D01*
X43937919Y-4941093D01*
X43902293Y-4892612D01*
X43814011Y-4630612D01*
X43813347Y-4569430D01*
X43848772Y-4519543D01*
X43906754Y-4500006D01*
X43907828Y-4500000D01*
X44092172Y-4500000D01*
X44150363Y-4518907D01*
G37*
%TD.AperFunction*%
%TD*%
%TA.AperFunction,Conductor*%
%TO.N,CHAIN_OUT*%
G36*
X46650363Y-4518907D02*
G01*
X46686327Y-4568407D01*
X46686327Y-4629593D01*
X46685989Y-4630612D01*
X46597707Y-4892612D01*
X46579788Y-4916721D01*
X46562081Y-4941093D01*
X46561544Y-4941267D01*
X46561209Y-4941719D01*
X46503890Y-4960000D01*
X46496110Y-4960000D01*
X46437919Y-4941093D01*
X46402293Y-4892612D01*
X46314011Y-4630612D01*
X46313347Y-4569430D01*
X46348772Y-4519543D01*
X46406754Y-4500006D01*
X46407828Y-4500000D01*
X46592172Y-4500000D01*
X46650363Y-4518907D01*
G37*
%TD.AperFunction*%
%TD*%
%TA.AperFunction,Conductor*%
%TO.N,P5V*%
G36*
X25664047Y-4518907D02*
G01*
X25700011Y-4568407D01*
X25702373Y-4621028D01*
X25642568Y-4883033D01*
X25640207Y-4886985D01*
X25640207Y-4891593D01*
X25624708Y-4912924D01*
X25611187Y-4935555D01*
X25606951Y-4937365D01*
X25604243Y-4941093D01*
X25579168Y-4949239D01*
X25554925Y-4959602D01*
X25546052Y-4960000D01*
X25453948Y-4960000D01*
X25395757Y-4941093D01*
X25359793Y-4891593D01*
X25357435Y-4883051D01*
X25297626Y-4621028D01*
X25303110Y-4560092D01*
X25343366Y-4514014D01*
X25394144Y-4500000D01*
X25605856Y-4500000D01*
X25664047Y-4518907D01*
G37*
%TD.AperFunction*%
%TD*%
%TA.AperFunction,Conductor*%
%TO.N,P5V*%
G36*
X22383036Y-17357432D02*
G01*
X22386986Y-17359792D01*
X22391593Y-17359792D01*
X22412924Y-17375290D01*
X22435555Y-17388812D01*
X22437365Y-17393047D01*
X22441093Y-17395756D01*
X22449239Y-17420830D01*
X22459602Y-17445074D01*
X22460000Y-17453947D01*
X22460000Y-17546050D01*
X22441093Y-17604241D01*
X22391593Y-17640205D01*
X22383031Y-17642567D01*
X22187258Y-17687254D01*
X22187257Y-17687254D01*
X22230000Y-17500000D01*
X22000000Y-17500000D01*
X22000000Y-17394143D01*
X22018907Y-17335952D01*
X22068407Y-17299988D01*
X22121024Y-17297625D01*
X22383036Y-17357432D01*
G37*
%TD.AperFunction*%
%TD*%
%TA.AperFunction,Conductor*%
%TO.N,P5V*%
G36*
X22187256Y-17687255D02*
G01*
X22187256Y-17687256D01*
X22142569Y-17883031D01*
X22140206Y-17886985D01*
X22140206Y-17891593D01*
X22124707Y-17912924D01*
X22111186Y-17935555D01*
X22106950Y-17937365D01*
X22104242Y-17941093D01*
X22079167Y-17949239D01*
X22054924Y-17959602D01*
X22046051Y-17960000D01*
X21953948Y-17960000D01*
X21895757Y-17941093D01*
X21859793Y-17891593D01*
X21857435Y-17883051D01*
X21797626Y-17621028D01*
X21803110Y-17560092D01*
X21843366Y-17514014D01*
X21894144Y-17500000D01*
X21999999Y-17500000D01*
X22000000Y-17500000D01*
X22230000Y-17500000D01*
X22187256Y-17687255D01*
G37*
%TD.AperFunction*%
%TD*%
%TA.AperFunction,Conductor*%
%TO.N,GND*%
G36*
X21189776Y-8288907D02*
G01*
X21225740Y-8338407D01*
X21228228Y-8390476D01*
X21172228Y-8642476D01*
X21169740Y-8646694D01*
X21169740Y-8651593D01*
X21154400Y-8672705D01*
X21141147Y-8695180D01*
X21136654Y-8697130D01*
X21133776Y-8701093D01*
X21108958Y-8709156D01*
X21085024Y-8719549D01*
X21075585Y-8720000D01*
X20984415Y-8720000D01*
X20926224Y-8701093D01*
X20890260Y-8651593D01*
X20887772Y-8642476D01*
X20831772Y-8390476D01*
X20837606Y-8329569D01*
X20878126Y-8283724D01*
X20928415Y-8270000D01*
X21131585Y-8270000D01*
X21189776Y-8288907D01*
G37*
%TD.AperFunction*%
%TD*%
%TA.AperFunction,Conductor*%
%TO.N,VPP*%
G36*
X23673776Y-5298907D02*
G01*
X23709740Y-5348407D01*
X23712228Y-5357524D01*
X23768228Y-5609524D01*
X23762394Y-5670431D01*
X23721874Y-5716276D01*
X23671585Y-5730000D01*
X23468415Y-5730000D01*
X23410224Y-5711093D01*
X23374260Y-5661593D01*
X23371772Y-5609524D01*
X23427772Y-5357524D01*
X23430260Y-5353305D01*
X23430260Y-5348407D01*
X23445599Y-5327294D01*
X23458853Y-5304820D01*
X23463345Y-5302869D01*
X23466224Y-5298907D01*
X23491041Y-5290843D01*
X23514976Y-5280451D01*
X23524415Y-5280000D01*
X23615585Y-5280000D01*
X23673776Y-5298907D01*
G37*
%TD.AperFunction*%
%TD*%
%TA.AperFunction,Conductor*%
%TO.N,GND*%
G36*
X23942477Y-8127772D02*
G01*
X23946695Y-8130260D01*
X23951593Y-8130260D01*
X23972705Y-8145599D01*
X23995180Y-8158853D01*
X23997130Y-8163345D01*
X24001093Y-8166224D01*
X24009156Y-8191041D01*
X24019549Y-8214976D01*
X24020000Y-8224415D01*
X24020000Y-8315584D01*
X24001093Y-8373775D01*
X23951593Y-8409739D01*
X23942476Y-8412227D01*
X23754091Y-8454089D01*
X23795000Y-8270000D01*
X23570000Y-8270000D01*
X23570000Y-8168415D01*
X23588907Y-8110224D01*
X23638407Y-8074260D01*
X23690474Y-8071772D01*
X23942477Y-8127772D01*
G37*
%TD.AperFunction*%
%TD*%
%TA.AperFunction,Conductor*%
%TO.N,GND*%
G36*
X23754091Y-8454089D02*
G01*
X23754090Y-8454090D01*
X23712227Y-8642476D01*
X23709739Y-8646694D01*
X23709739Y-8651593D01*
X23694398Y-8672707D01*
X23681146Y-8695179D01*
X23676654Y-8697129D01*
X23673775Y-8701093D01*
X23648953Y-8709157D01*
X23625023Y-8719549D01*
X23615584Y-8720000D01*
X23524415Y-8720000D01*
X23466224Y-8701093D01*
X23430260Y-8651593D01*
X23427772Y-8642476D01*
X23385909Y-8454090D01*
X23371772Y-8390474D01*
X23377606Y-8329569D01*
X23418126Y-8283724D01*
X23468415Y-8270000D01*
X23569999Y-8270000D01*
X23570000Y-8270000D01*
X23795000Y-8270000D01*
X23754091Y-8454089D01*
G37*
%TD.AperFunction*%
%TD*%
%TA.AperFunction,Conductor*%
%TO.N,P5V*%
G36*
X26050431Y-5537606D02*
G01*
X26096276Y-5578126D01*
X26110000Y-5628415D01*
X26110000Y-5831584D01*
X26091093Y-5889775D01*
X26041593Y-5925739D01*
X25989524Y-5928227D01*
X25737524Y-5872227D01*
X25733305Y-5869739D01*
X25728407Y-5869739D01*
X25707294Y-5854399D01*
X25684820Y-5841146D01*
X25682869Y-5836653D01*
X25678907Y-5833775D01*
X25670843Y-5808957D01*
X25660451Y-5785023D01*
X25660000Y-5775584D01*
X25660000Y-5684415D01*
X25678907Y-5626224D01*
X25728407Y-5590260D01*
X25737515Y-5587774D01*
X25989525Y-5531772D01*
X26050431Y-5537606D01*
G37*
%TD.AperFunction*%
%TD*%
%TA.AperFunction,Conductor*%
%TO.N,GND*%
G36*
X26482477Y-8127772D02*
G01*
X26486695Y-8130260D01*
X26491593Y-8130260D01*
X26512705Y-8145599D01*
X26535180Y-8158853D01*
X26537130Y-8163345D01*
X26541093Y-8166224D01*
X26549156Y-8191041D01*
X26559549Y-8214976D01*
X26560000Y-8224415D01*
X26560000Y-8315584D01*
X26541093Y-8373775D01*
X26491593Y-8409739D01*
X26482476Y-8412227D01*
X26294091Y-8454089D01*
X26335000Y-8270000D01*
X26110000Y-8270000D01*
X26110000Y-8168415D01*
X26128907Y-8110224D01*
X26178407Y-8074260D01*
X26230474Y-8071772D01*
X26482477Y-8127772D01*
G37*
%TD.AperFunction*%
%TD*%
%TA.AperFunction,Conductor*%
%TO.N,GND*%
G36*
X26294091Y-8454089D02*
G01*
X26294090Y-8454090D01*
X26252227Y-8642476D01*
X26249739Y-8646694D01*
X26249739Y-8651593D01*
X26234398Y-8672707D01*
X26221146Y-8695179D01*
X26216654Y-8697129D01*
X26213775Y-8701093D01*
X26188953Y-8709157D01*
X26165023Y-8719549D01*
X26155584Y-8720000D01*
X26064415Y-8720000D01*
X26006224Y-8701093D01*
X25970260Y-8651593D01*
X25967772Y-8642476D01*
X25925909Y-8454090D01*
X25911772Y-8390474D01*
X25917606Y-8329569D01*
X25958126Y-8283724D01*
X26008415Y-8270000D01*
X26109999Y-8270000D01*
X26110000Y-8270000D01*
X26335000Y-8270000D01*
X26294091Y-8454089D01*
G37*
%TD.AperFunction*%
%TD*%
%TA.AperFunction,Conductor*%
%TO.N,VCCO_3V3*%
G36*
X28753776Y-5298907D02*
G01*
X28789740Y-5348407D01*
X28792228Y-5357524D01*
X28848228Y-5609524D01*
X28842394Y-5670431D01*
X28801874Y-5716276D01*
X28751585Y-5730000D01*
X28548415Y-5730000D01*
X28490224Y-5711093D01*
X28454260Y-5661593D01*
X28451772Y-5609524D01*
X28507772Y-5357524D01*
X28510260Y-5353305D01*
X28510260Y-5348407D01*
X28525599Y-5327294D01*
X28538853Y-5304820D01*
X28543345Y-5302869D01*
X28546224Y-5298907D01*
X28571041Y-5290843D01*
X28594976Y-5280451D01*
X28604415Y-5280000D01*
X28695585Y-5280000D01*
X28753776Y-5298907D01*
G37*
%TD.AperFunction*%
%TD*%
%TA.AperFunction,Conductor*%
%TO.N,GND*%
G36*
X28809776Y-8288907D02*
G01*
X28845740Y-8338407D01*
X28848228Y-8390476D01*
X28792228Y-8642476D01*
X28789740Y-8646694D01*
X28789740Y-8651593D01*
X28774400Y-8672705D01*
X28761147Y-8695180D01*
X28756654Y-8697130D01*
X28753776Y-8701093D01*
X28728958Y-8709156D01*
X28705024Y-8719549D01*
X28695585Y-8720000D01*
X28604415Y-8720000D01*
X28546224Y-8701093D01*
X28510260Y-8651593D01*
X28507772Y-8642476D01*
X28451772Y-8390476D01*
X28457606Y-8329569D01*
X28498126Y-8283724D01*
X28548415Y-8270000D01*
X28751585Y-8270000D01*
X28809776Y-8288907D01*
G37*
%TD.AperFunction*%
%TD*%
%TA.AperFunction,Conductor*%
%TO.N,BUS_SCLK*%
G36*
X31251835Y-5298907D02*
G01*
X31287564Y-5347693D01*
X31371564Y-5599693D01*
X31371566Y-5600087D01*
X31371799Y-5600407D01*
X31371799Y-5630680D01*
X31372028Y-5660877D01*
X31371799Y-5661197D01*
X31371799Y-5661593D01*
X31353993Y-5686100D01*
X31336441Y-5710649D01*
X31336067Y-5710773D01*
X31335835Y-5711093D01*
X31307075Y-5720437D01*
X31278396Y-5729997D01*
X31277644Y-5730000D01*
X31102356Y-5730000D01*
X31044165Y-5711093D01*
X31008201Y-5661593D01*
X31008201Y-5600407D01*
X31008436Y-5599693D01*
X31092436Y-5347693D01*
X31128775Y-5298468D01*
X31186356Y-5280000D01*
X31193644Y-5280000D01*
X31251835Y-5298907D01*
G37*
%TD.AperFunction*%
%TD*%
%TA.AperFunction,Conductor*%
%TO.N,GND*%
G36*
X31562477Y-8127772D02*
G01*
X31566695Y-8130260D01*
X31571593Y-8130260D01*
X31592705Y-8145599D01*
X31615180Y-8158853D01*
X31617130Y-8163345D01*
X31621093Y-8166224D01*
X31629156Y-8191041D01*
X31639549Y-8214976D01*
X31640000Y-8224415D01*
X31640000Y-8315584D01*
X31621093Y-8373775D01*
X31571593Y-8409739D01*
X31562476Y-8412227D01*
X31374091Y-8454089D01*
X31415000Y-8270000D01*
X31190000Y-8270000D01*
X31190000Y-8168415D01*
X31208907Y-8110224D01*
X31258407Y-8074260D01*
X31310474Y-8071772D01*
X31562477Y-8127772D01*
G37*
%TD.AperFunction*%
%TD*%
%TA.AperFunction,Conductor*%
%TO.N,GND*%
G36*
X31374091Y-8454089D02*
G01*
X31374090Y-8454090D01*
X31332227Y-8642476D01*
X31329739Y-8646694D01*
X31329739Y-8651593D01*
X31314398Y-8672707D01*
X31301146Y-8695179D01*
X31296654Y-8697129D01*
X31293775Y-8701093D01*
X31268953Y-8709157D01*
X31245023Y-8719549D01*
X31235584Y-8720000D01*
X31144415Y-8720000D01*
X31086224Y-8701093D01*
X31050260Y-8651593D01*
X31047772Y-8642476D01*
X31005909Y-8454090D01*
X30991772Y-8390474D01*
X30997606Y-8329569D01*
X31038126Y-8283724D01*
X31088415Y-8270000D01*
X31189999Y-8270000D01*
X31190000Y-8270000D01*
X31415000Y-8270000D01*
X31374091Y-8454089D01*
G37*
%TD.AperFunction*%
%TD*%
%TA.AperFunction,Conductor*%
%TO.N,BUS_SDI*%
G36*
X33791835Y-5298907D02*
G01*
X33827564Y-5347693D01*
X33911564Y-5599693D01*
X33911566Y-5600087D01*
X33911799Y-5600407D01*
X33911799Y-5630680D01*
X33912028Y-5660877D01*
X33911799Y-5661197D01*
X33911799Y-5661593D01*
X33893993Y-5686100D01*
X33876441Y-5710649D01*
X33876067Y-5710773D01*
X33875835Y-5711093D01*
X33847075Y-5720437D01*
X33818396Y-5729997D01*
X33817644Y-5730000D01*
X33642356Y-5730000D01*
X33584165Y-5711093D01*
X33548201Y-5661593D01*
X33548201Y-5600407D01*
X33548436Y-5599693D01*
X33632436Y-5347693D01*
X33668775Y-5298468D01*
X33726356Y-5280000D01*
X33733644Y-5280000D01*
X33791835Y-5298907D01*
G37*
%TD.AperFunction*%
%TD*%
%TA.AperFunction,Conductor*%
%TO.N,GND*%
G36*
X33889776Y-8288907D02*
G01*
X33925740Y-8338407D01*
X33928228Y-8390476D01*
X33872228Y-8642476D01*
X33869740Y-8646694D01*
X33869740Y-8651593D01*
X33854400Y-8672705D01*
X33841147Y-8695180D01*
X33836654Y-8697130D01*
X33833776Y-8701093D01*
X33808958Y-8709156D01*
X33785024Y-8719549D01*
X33775585Y-8720000D01*
X33684415Y-8720000D01*
X33626224Y-8701093D01*
X33590260Y-8651593D01*
X33587772Y-8642476D01*
X33531772Y-8390476D01*
X33537606Y-8329569D01*
X33578126Y-8283724D01*
X33628415Y-8270000D01*
X33831585Y-8270000D01*
X33889776Y-8288907D01*
G37*
%TD.AperFunction*%
%TD*%
%TA.AperFunction,Conductor*%
%TO.N,BUS_SDO*%
G36*
X36331835Y-5298907D02*
G01*
X36367564Y-5347693D01*
X36451564Y-5599693D01*
X36451566Y-5600087D01*
X36451799Y-5600407D01*
X36451799Y-5630680D01*
X36452028Y-5660877D01*
X36451799Y-5661197D01*
X36451799Y-5661593D01*
X36433993Y-5686100D01*
X36416441Y-5710649D01*
X36416067Y-5710773D01*
X36415835Y-5711093D01*
X36387075Y-5720437D01*
X36358396Y-5729997D01*
X36357644Y-5730000D01*
X36182356Y-5730000D01*
X36124165Y-5711093D01*
X36088201Y-5661593D01*
X36088201Y-5600407D01*
X36088436Y-5599693D01*
X36172436Y-5347693D01*
X36208775Y-5298468D01*
X36266356Y-5280000D01*
X36273644Y-5280000D01*
X36331835Y-5298907D01*
G37*
%TD.AperFunction*%
%TD*%
%TA.AperFunction,Conductor*%
%TO.N,GND*%
G36*
X36642477Y-8127772D02*
G01*
X36646695Y-8130260D01*
X36651593Y-8130260D01*
X36672705Y-8145599D01*
X36695180Y-8158853D01*
X36697130Y-8163345D01*
X36701093Y-8166224D01*
X36709156Y-8191041D01*
X36719549Y-8214976D01*
X36720000Y-8224415D01*
X36720000Y-8315584D01*
X36701093Y-8373775D01*
X36651593Y-8409739D01*
X36642476Y-8412227D01*
X36454091Y-8454089D01*
X36495000Y-8270000D01*
X36270000Y-8270000D01*
X36270000Y-8168415D01*
X36288907Y-8110224D01*
X36338407Y-8074260D01*
X36390474Y-8071772D01*
X36642477Y-8127772D01*
G37*
%TD.AperFunction*%
%TD*%
%TA.AperFunction,Conductor*%
%TO.N,GND*%
G36*
X36454091Y-8454089D02*
G01*
X36454090Y-8454090D01*
X36412227Y-8642476D01*
X36409739Y-8646694D01*
X36409739Y-8651593D01*
X36394398Y-8672707D01*
X36381146Y-8695179D01*
X36376654Y-8697129D01*
X36373775Y-8701093D01*
X36348953Y-8709157D01*
X36325023Y-8719549D01*
X36315584Y-8720000D01*
X36224415Y-8720000D01*
X36166224Y-8701093D01*
X36130260Y-8651593D01*
X36127772Y-8642476D01*
X36085909Y-8454090D01*
X36071772Y-8390474D01*
X36077606Y-8329569D01*
X36118126Y-8283724D01*
X36168415Y-8270000D01*
X36269999Y-8270000D01*
X36270000Y-8270000D01*
X36495000Y-8270000D01*
X36454091Y-8454089D01*
G37*
%TD.AperFunction*%
%TD*%
%TA.AperFunction,Conductor*%
%TO.N,BUS_LATCH*%
G36*
X38871835Y-5298907D02*
G01*
X38907564Y-5347693D01*
X38991564Y-5599693D01*
X38991566Y-5600087D01*
X38991799Y-5600407D01*
X38991799Y-5630680D01*
X38992028Y-5660877D01*
X38991799Y-5661197D01*
X38991799Y-5661593D01*
X38973993Y-5686100D01*
X38956441Y-5710649D01*
X38956067Y-5710773D01*
X38955835Y-5711093D01*
X38927075Y-5720437D01*
X38898396Y-5729997D01*
X38897644Y-5730000D01*
X38722356Y-5730000D01*
X38664165Y-5711093D01*
X38628201Y-5661593D01*
X38628201Y-5600407D01*
X38628436Y-5599693D01*
X38712436Y-5347693D01*
X38748775Y-5298468D01*
X38806356Y-5280000D01*
X38813644Y-5280000D01*
X38871835Y-5298907D01*
G37*
%TD.AperFunction*%
%TD*%
%TA.AperFunction,Conductor*%
%TO.N,GND*%
G36*
X39182477Y-8127772D02*
G01*
X39186695Y-8130260D01*
X39191593Y-8130260D01*
X39212705Y-8145599D01*
X39235180Y-8158853D01*
X39237130Y-8163345D01*
X39241093Y-8166224D01*
X39249156Y-8191041D01*
X39259549Y-8214976D01*
X39260000Y-8224415D01*
X39260000Y-8315584D01*
X39241093Y-8373775D01*
X39191593Y-8409739D01*
X39182476Y-8412227D01*
X38994091Y-8454089D01*
X39035000Y-8270000D01*
X38810000Y-8270000D01*
X38810000Y-8168415D01*
X38828907Y-8110224D01*
X38878407Y-8074260D01*
X38930474Y-8071772D01*
X39182477Y-8127772D01*
G37*
%TD.AperFunction*%
%TD*%
%TA.AperFunction,Conductor*%
%TO.N,GND*%
G36*
X38994091Y-8454089D02*
G01*
X38994090Y-8454090D01*
X38952227Y-8642476D01*
X38949739Y-8646694D01*
X38949739Y-8651593D01*
X38934398Y-8672707D01*
X38921146Y-8695179D01*
X38916654Y-8697129D01*
X38913775Y-8701093D01*
X38888953Y-8709157D01*
X38865023Y-8719549D01*
X38855584Y-8720000D01*
X38764415Y-8720000D01*
X38706224Y-8701093D01*
X38670260Y-8651593D01*
X38667772Y-8642476D01*
X38625909Y-8454090D01*
X38611772Y-8390474D01*
X38617606Y-8329569D01*
X38658126Y-8283724D01*
X38708415Y-8270000D01*
X38809999Y-8270000D01*
X38810000Y-8270000D01*
X39035000Y-8270000D01*
X38994091Y-8454089D01*
G37*
%TD.AperFunction*%
%TD*%
%TA.AperFunction,Conductor*%
%TO.N,BUS_nRST*%
G36*
X41411835Y-5298907D02*
G01*
X41447564Y-5347693D01*
X41531564Y-5599693D01*
X41531566Y-5600087D01*
X41531799Y-5600407D01*
X41531799Y-5630680D01*
X41532028Y-5660877D01*
X41531799Y-5661197D01*
X41531799Y-5661593D01*
X41513993Y-5686100D01*
X41496441Y-5710649D01*
X41496067Y-5710773D01*
X41495835Y-5711093D01*
X41467075Y-5720437D01*
X41438396Y-5729997D01*
X41437644Y-5730000D01*
X41262356Y-5730000D01*
X41204165Y-5711093D01*
X41168201Y-5661593D01*
X41168201Y-5600407D01*
X41168436Y-5599693D01*
X41252436Y-5347693D01*
X41288775Y-5298468D01*
X41346356Y-5280000D01*
X41353644Y-5280000D01*
X41411835Y-5298907D01*
G37*
%TD.AperFunction*%
%TD*%
%TA.AperFunction,Conductor*%
%TO.N,GND*%
G36*
X41509776Y-8288907D02*
G01*
X41545740Y-8338407D01*
X41548228Y-8390476D01*
X41492228Y-8642476D01*
X41489740Y-8646694D01*
X41489740Y-8651593D01*
X41474400Y-8672705D01*
X41461147Y-8695180D01*
X41456654Y-8697130D01*
X41453776Y-8701093D01*
X41428958Y-8709156D01*
X41405024Y-8719549D01*
X41395585Y-8720000D01*
X41304415Y-8720000D01*
X41246224Y-8701093D01*
X41210260Y-8651593D01*
X41207772Y-8642476D01*
X41151772Y-8390476D01*
X41157606Y-8329569D01*
X41198126Y-8283724D01*
X41248415Y-8270000D01*
X41451585Y-8270000D01*
X41509776Y-8288907D01*
G37*
%TD.AperFunction*%
%TD*%
%TA.AperFunction,Conductor*%
%TO.N,CHAIN_IN*%
G36*
X43951835Y-5298907D02*
G01*
X43987564Y-5347693D01*
X44071564Y-5599693D01*
X44071566Y-5600087D01*
X44071799Y-5600407D01*
X44071799Y-5630680D01*
X44072028Y-5660877D01*
X44071799Y-5661197D01*
X44071799Y-5661593D01*
X44053993Y-5686100D01*
X44036441Y-5710649D01*
X44036067Y-5710773D01*
X44035835Y-5711093D01*
X44007075Y-5720437D01*
X43978396Y-5729997D01*
X43977644Y-5730000D01*
X43802356Y-5730000D01*
X43744165Y-5711093D01*
X43708201Y-5661593D01*
X43708201Y-5600407D01*
X43708436Y-5599693D01*
X43792436Y-5347693D01*
X43828775Y-5298468D01*
X43886356Y-5280000D01*
X43893644Y-5280000D01*
X43951835Y-5298907D01*
G37*
%TD.AperFunction*%
%TD*%
%TA.AperFunction,Conductor*%
%TO.N,GND*%
G36*
X44049776Y-8288907D02*
G01*
X44085740Y-8338407D01*
X44088228Y-8390476D01*
X44032228Y-8642476D01*
X44029740Y-8646694D01*
X44029740Y-8651593D01*
X44014400Y-8672705D01*
X44001147Y-8695180D01*
X43996654Y-8697130D01*
X43993776Y-8701093D01*
X43968958Y-8709156D01*
X43945024Y-8719549D01*
X43935585Y-8720000D01*
X43844415Y-8720000D01*
X43786224Y-8701093D01*
X43750260Y-8651593D01*
X43747772Y-8642476D01*
X43691772Y-8390476D01*
X43697606Y-8329569D01*
X43738126Y-8283724D01*
X43788415Y-8270000D01*
X43991585Y-8270000D01*
X44049776Y-8288907D01*
G37*
%TD.AperFunction*%
%TD*%
%TA.AperFunction,Conductor*%
%TO.N,CHAIN_OUT*%
G36*
X46491835Y-5298907D02*
G01*
X46527564Y-5347693D01*
X46611564Y-5599693D01*
X46611566Y-5600087D01*
X46611799Y-5600407D01*
X46611799Y-5630680D01*
X46612028Y-5660877D01*
X46611799Y-5661197D01*
X46611799Y-5661593D01*
X46593993Y-5686100D01*
X46576441Y-5710649D01*
X46576067Y-5710773D01*
X46575835Y-5711093D01*
X46547075Y-5720437D01*
X46518396Y-5729997D01*
X46517644Y-5730000D01*
X46342356Y-5730000D01*
X46284165Y-5711093D01*
X46248201Y-5661593D01*
X46248201Y-5600407D01*
X46248436Y-5599693D01*
X46332436Y-5347693D01*
X46368775Y-5298468D01*
X46426356Y-5280000D01*
X46433644Y-5280000D01*
X46491835Y-5298907D01*
G37*
%TD.AperFunction*%
%TD*%
%TA.AperFunction,Conductor*%
%TO.N,GND*%
G36*
X46589776Y-8288907D02*
G01*
X46625740Y-8338407D01*
X46628228Y-8390476D01*
X46572228Y-8642476D01*
X46569740Y-8646694D01*
X46569740Y-8651593D01*
X46554400Y-8672705D01*
X46541147Y-8695180D01*
X46536654Y-8697130D01*
X46533776Y-8701093D01*
X46508958Y-8709156D01*
X46485024Y-8719549D01*
X46475585Y-8720000D01*
X46384415Y-8720000D01*
X46326224Y-8701093D01*
X46290260Y-8651593D01*
X46287772Y-8642476D01*
X46231772Y-8390476D01*
X46237606Y-8329569D01*
X46278126Y-8283724D01*
X46328415Y-8270000D01*
X46531585Y-8270000D01*
X46589776Y-8288907D01*
G37*
%TD.AperFunction*%
%TD*%
%TA.AperFunction,Conductor*%
%TO.N,VCCO_3V3*%
G36*
X48910431Y-5537606D02*
G01*
X48956276Y-5578126D01*
X48970000Y-5628415D01*
X48970000Y-5831584D01*
X48951093Y-5889775D01*
X48901593Y-5925739D01*
X48849524Y-5928227D01*
X48597524Y-5872227D01*
X48593305Y-5869739D01*
X48588407Y-5869739D01*
X48567294Y-5854399D01*
X48544820Y-5841146D01*
X48542869Y-5836653D01*
X48538907Y-5833775D01*
X48530843Y-5808957D01*
X48520451Y-5785023D01*
X48520000Y-5775584D01*
X48520000Y-5684415D01*
X48538907Y-5626224D01*
X48588407Y-5590260D01*
X48597515Y-5587774D01*
X48849525Y-5531772D01*
X48910431Y-5537606D01*
G37*
%TD.AperFunction*%
%TD*%
%TA.AperFunction,Conductor*%
%TO.N,GND*%
G36*
X49129776Y-8288907D02*
G01*
X49165740Y-8338407D01*
X49168228Y-8390476D01*
X49112228Y-8642476D01*
X49109740Y-8646694D01*
X49109740Y-8651593D01*
X49094400Y-8672705D01*
X49081147Y-8695180D01*
X49076654Y-8697130D01*
X49073776Y-8701093D01*
X49048958Y-8709156D01*
X49025024Y-8719549D01*
X49015585Y-8720000D01*
X48924415Y-8720000D01*
X48866224Y-8701093D01*
X48830260Y-8651593D01*
X48827772Y-8642476D01*
X48771772Y-8390476D01*
X48777606Y-8329569D01*
X48818126Y-8283724D01*
X48868415Y-8270000D01*
X49071585Y-8270000D01*
X49129776Y-8288907D01*
G37*
%TD.AperFunction*%
%TD*%
M02*
