%TF.GenerationSoftware,KiCad,Pcbnew,10.0.3*%
%TF.CreationDate,2026-06-21T15:43:01-04:00*%
%TF.ProjectId,fpga_tile,66706761-5f74-4696-9c65-2e6b69636164,rev?*%
%TF.SameCoordinates,Original*%
%TF.FileFunction,Legend,Top*%
%TF.FilePolarity,Positive*%
%FSLAX46Y46*%
G04 Gerber Fmt 4.6, Leading zero omitted, Abs format (unit mm)*
G04 Created by KiCad (PCBNEW 10.0.3) date 2026-06-21 15:43:01*
%MOMM*%
%LPD*%
G01*
G04 APERTURE LIST*
%ADD10C,0.120000*%
%ADD11C,0.150000*%
G04 APERTURE END LIST*
D10*
X40915676Y-24569955D02*
X40915676Y-25217574D01*
X40915676Y-25217574D02*
X40953771Y-25293764D01*
X40953771Y-25293764D02*
X40991866Y-25331860D01*
X40991866Y-25331860D02*
X41068057Y-25369955D01*
X41068057Y-25369955D02*
X41220438Y-25369955D01*
X41220438Y-25369955D02*
X41296628Y-25331860D01*
X41296628Y-25331860D02*
X41334723Y-25293764D01*
X41334723Y-25293764D02*
X41372819Y-25217574D01*
X41372819Y-25217574D02*
X41372819Y-24569955D01*
X42172818Y-25369955D02*
X41715675Y-25369955D01*
X41944247Y-25369955D02*
X41944247Y-24569955D01*
X41944247Y-24569955D02*
X41868056Y-24684240D01*
X41868056Y-24684240D02*
X41791866Y-24760431D01*
X41791866Y-24760431D02*
X41715675Y-24798526D01*
X30406676Y-22548355D02*
X30406676Y-23195974D01*
X30406676Y-23195974D02*
X30444771Y-23272164D01*
X30444771Y-23272164D02*
X30482866Y-23310260D01*
X30482866Y-23310260D02*
X30559057Y-23348355D01*
X30559057Y-23348355D02*
X30711438Y-23348355D01*
X30711438Y-23348355D02*
X30787628Y-23310260D01*
X30787628Y-23310260D02*
X30825723Y-23272164D01*
X30825723Y-23272164D02*
X30863819Y-23195974D01*
X30863819Y-23195974D02*
X30863819Y-22548355D01*
X31206675Y-22624545D02*
X31244771Y-22586450D01*
X31244771Y-22586450D02*
X31320961Y-22548355D01*
X31320961Y-22548355D02*
X31511437Y-22548355D01*
X31511437Y-22548355D02*
X31587628Y-22586450D01*
X31587628Y-22586450D02*
X31625723Y-22624545D01*
X31625723Y-22624545D02*
X31663818Y-22700736D01*
X31663818Y-22700736D02*
X31663818Y-22776926D01*
X31663818Y-22776926D02*
X31625723Y-22891212D01*
X31625723Y-22891212D02*
X31168580Y-23348355D01*
X31168580Y-23348355D02*
X31663818Y-23348355D01*
X29873148Y-31035202D02*
X29873148Y-31416155D01*
X29606481Y-30616155D02*
X29873148Y-31035202D01*
X29873148Y-31035202D02*
X30139814Y-30616155D01*
X30825528Y-31416155D02*
X30368385Y-31416155D01*
X30596957Y-31416155D02*
X30596957Y-30616155D01*
X30596957Y-30616155D02*
X30520766Y-30730440D01*
X30520766Y-30730440D02*
X30444576Y-30806631D01*
X30444576Y-30806631D02*
X30368385Y-30844726D01*
X47495967Y-34894364D02*
X47457871Y-34932460D01*
X47457871Y-34932460D02*
X47343586Y-34970555D01*
X47343586Y-34970555D02*
X47267395Y-34970555D01*
X47267395Y-34970555D02*
X47153109Y-34932460D01*
X47153109Y-34932460D02*
X47076919Y-34856269D01*
X47076919Y-34856269D02*
X47038824Y-34780079D01*
X47038824Y-34780079D02*
X47000728Y-34627698D01*
X47000728Y-34627698D02*
X47000728Y-34513412D01*
X47000728Y-34513412D02*
X47038824Y-34361031D01*
X47038824Y-34361031D02*
X47076919Y-34284840D01*
X47076919Y-34284840D02*
X47153109Y-34208650D01*
X47153109Y-34208650D02*
X47267395Y-34170555D01*
X47267395Y-34170555D02*
X47343586Y-34170555D01*
X47343586Y-34170555D02*
X47457871Y-34208650D01*
X47457871Y-34208650D02*
X47495967Y-34246745D01*
X48257871Y-34970555D02*
X47800728Y-34970555D01*
X48029300Y-34970555D02*
X48029300Y-34170555D01*
X48029300Y-34170555D02*
X47953109Y-34284840D01*
X47953109Y-34284840D02*
X47876919Y-34361031D01*
X47876919Y-34361031D02*
X47800728Y-34399126D01*
X35495267Y-32896464D02*
X35457171Y-32934560D01*
X35457171Y-32934560D02*
X35342886Y-32972655D01*
X35342886Y-32972655D02*
X35266695Y-32972655D01*
X35266695Y-32972655D02*
X35152409Y-32934560D01*
X35152409Y-32934560D02*
X35076219Y-32858369D01*
X35076219Y-32858369D02*
X35038124Y-32782179D01*
X35038124Y-32782179D02*
X35000028Y-32629798D01*
X35000028Y-32629798D02*
X35000028Y-32515512D01*
X35000028Y-32515512D02*
X35038124Y-32363131D01*
X35038124Y-32363131D02*
X35076219Y-32286940D01*
X35076219Y-32286940D02*
X35152409Y-32210750D01*
X35152409Y-32210750D02*
X35266695Y-32172655D01*
X35266695Y-32172655D02*
X35342886Y-32172655D01*
X35342886Y-32172655D02*
X35457171Y-32210750D01*
X35457171Y-32210750D02*
X35495267Y-32248845D01*
X35800028Y-32248845D02*
X35838124Y-32210750D01*
X35838124Y-32210750D02*
X35914314Y-32172655D01*
X35914314Y-32172655D02*
X36104790Y-32172655D01*
X36104790Y-32172655D02*
X36180981Y-32210750D01*
X36180981Y-32210750D02*
X36219076Y-32248845D01*
X36219076Y-32248845D02*
X36257171Y-32325036D01*
X36257171Y-32325036D02*
X36257171Y-32401226D01*
X36257171Y-32401226D02*
X36219076Y-32515512D01*
X36219076Y-32515512D02*
X35761933Y-32972655D01*
X35761933Y-32972655D02*
X36257171Y-32972655D01*
X40692667Y-32897864D02*
X40654571Y-32935960D01*
X40654571Y-32935960D02*
X40540286Y-32974055D01*
X40540286Y-32974055D02*
X40464095Y-32974055D01*
X40464095Y-32974055D02*
X40349809Y-32935960D01*
X40349809Y-32935960D02*
X40273619Y-32859769D01*
X40273619Y-32859769D02*
X40235524Y-32783579D01*
X40235524Y-32783579D02*
X40197428Y-32631198D01*
X40197428Y-32631198D02*
X40197428Y-32516912D01*
X40197428Y-32516912D02*
X40235524Y-32364531D01*
X40235524Y-32364531D02*
X40273619Y-32288340D01*
X40273619Y-32288340D02*
X40349809Y-32212150D01*
X40349809Y-32212150D02*
X40464095Y-32174055D01*
X40464095Y-32174055D02*
X40540286Y-32174055D01*
X40540286Y-32174055D02*
X40654571Y-32212150D01*
X40654571Y-32212150D02*
X40692667Y-32250245D01*
X40959333Y-32174055D02*
X41454571Y-32174055D01*
X41454571Y-32174055D02*
X41187905Y-32478817D01*
X41187905Y-32478817D02*
X41302190Y-32478817D01*
X41302190Y-32478817D02*
X41378381Y-32516912D01*
X41378381Y-32516912D02*
X41416476Y-32555007D01*
X41416476Y-32555007D02*
X41454571Y-32631198D01*
X41454571Y-32631198D02*
X41454571Y-32821674D01*
X41454571Y-32821674D02*
X41416476Y-32897864D01*
X41416476Y-32897864D02*
X41378381Y-32935960D01*
X41378381Y-32935960D02*
X41302190Y-32974055D01*
X41302190Y-32974055D02*
X41073619Y-32974055D01*
X41073619Y-32974055D02*
X40997428Y-32935960D01*
X40997428Y-32935960D02*
X40959333Y-32897864D01*
X29128467Y-18665864D02*
X29090371Y-18703960D01*
X29090371Y-18703960D02*
X28976086Y-18742055D01*
X28976086Y-18742055D02*
X28899895Y-18742055D01*
X28899895Y-18742055D02*
X28785609Y-18703960D01*
X28785609Y-18703960D02*
X28709419Y-18627769D01*
X28709419Y-18627769D02*
X28671324Y-18551579D01*
X28671324Y-18551579D02*
X28633228Y-18399198D01*
X28633228Y-18399198D02*
X28633228Y-18284912D01*
X28633228Y-18284912D02*
X28671324Y-18132531D01*
X28671324Y-18132531D02*
X28709419Y-18056340D01*
X28709419Y-18056340D02*
X28785609Y-17980150D01*
X28785609Y-17980150D02*
X28899895Y-17942055D01*
X28899895Y-17942055D02*
X28976086Y-17942055D01*
X28976086Y-17942055D02*
X29090371Y-17980150D01*
X29090371Y-17980150D02*
X29128467Y-18018245D01*
X29814181Y-18208721D02*
X29814181Y-18742055D01*
X29623705Y-17903960D02*
X29433228Y-18475388D01*
X29433228Y-18475388D02*
X29928467Y-18475388D01*
X34532067Y-13761155D02*
X34265400Y-13380202D01*
X34074924Y-13761155D02*
X34074924Y-12961155D01*
X34074924Y-12961155D02*
X34379686Y-12961155D01*
X34379686Y-12961155D02*
X34455876Y-12999250D01*
X34455876Y-12999250D02*
X34493971Y-13037345D01*
X34493971Y-13037345D02*
X34532067Y-13113536D01*
X34532067Y-13113536D02*
X34532067Y-13227821D01*
X34532067Y-13227821D02*
X34493971Y-13304012D01*
X34493971Y-13304012D02*
X34455876Y-13342107D01*
X34455876Y-13342107D02*
X34379686Y-13380202D01*
X34379686Y-13380202D02*
X34074924Y-13380202D01*
X35293971Y-13761155D02*
X34836828Y-13761155D01*
X35065400Y-13761155D02*
X35065400Y-12961155D01*
X35065400Y-12961155D02*
X34989209Y-13075440D01*
X34989209Y-13075440D02*
X34913019Y-13151631D01*
X34913019Y-13151631D02*
X34836828Y-13189726D01*
X21653967Y-16142755D02*
X21387300Y-15761802D01*
X21196824Y-16142755D02*
X21196824Y-15342755D01*
X21196824Y-15342755D02*
X21501586Y-15342755D01*
X21501586Y-15342755D02*
X21577776Y-15380850D01*
X21577776Y-15380850D02*
X21615871Y-15418945D01*
X21615871Y-15418945D02*
X21653967Y-15495136D01*
X21653967Y-15495136D02*
X21653967Y-15609421D01*
X21653967Y-15609421D02*
X21615871Y-15685612D01*
X21615871Y-15685612D02*
X21577776Y-15723707D01*
X21577776Y-15723707D02*
X21501586Y-15761802D01*
X21501586Y-15761802D02*
X21196824Y-15761802D01*
X21958728Y-15418945D02*
X21996824Y-15380850D01*
X21996824Y-15380850D02*
X22073014Y-15342755D01*
X22073014Y-15342755D02*
X22263490Y-15342755D01*
X22263490Y-15342755D02*
X22339681Y-15380850D01*
X22339681Y-15380850D02*
X22377776Y-15418945D01*
X22377776Y-15418945D02*
X22415871Y-15495136D01*
X22415871Y-15495136D02*
X22415871Y-15571326D01*
X22415871Y-15571326D02*
X22377776Y-15685612D01*
X22377776Y-15685612D02*
X21920633Y-16142755D01*
X21920633Y-16142755D02*
X22415871Y-16142755D01*
X35658667Y-37188655D02*
X35392000Y-36807702D01*
X35201524Y-37188655D02*
X35201524Y-36388655D01*
X35201524Y-36388655D02*
X35506286Y-36388655D01*
X35506286Y-36388655D02*
X35582476Y-36426750D01*
X35582476Y-36426750D02*
X35620571Y-36464845D01*
X35620571Y-36464845D02*
X35658667Y-36541036D01*
X35658667Y-36541036D02*
X35658667Y-36655321D01*
X35658667Y-36655321D02*
X35620571Y-36731512D01*
X35620571Y-36731512D02*
X35582476Y-36769607D01*
X35582476Y-36769607D02*
X35506286Y-36807702D01*
X35506286Y-36807702D02*
X35201524Y-36807702D01*
X35925333Y-36388655D02*
X36420571Y-36388655D01*
X36420571Y-36388655D02*
X36153905Y-36693417D01*
X36153905Y-36693417D02*
X36268190Y-36693417D01*
X36268190Y-36693417D02*
X36344381Y-36731512D01*
X36344381Y-36731512D02*
X36382476Y-36769607D01*
X36382476Y-36769607D02*
X36420571Y-36845798D01*
X36420571Y-36845798D02*
X36420571Y-37036274D01*
X36420571Y-37036274D02*
X36382476Y-37112464D01*
X36382476Y-37112464D02*
X36344381Y-37150560D01*
X36344381Y-37150560D02*
X36268190Y-37188655D01*
X36268190Y-37188655D02*
X36039619Y-37188655D01*
X36039619Y-37188655D02*
X35963428Y-37150560D01*
X35963428Y-37150560D02*
X35925333Y-37112464D01*
X20242233Y-27290055D02*
X20242233Y-27861483D01*
X20242233Y-27861483D02*
X20204138Y-27975769D01*
X20204138Y-27975769D02*
X20127947Y-28051960D01*
X20127947Y-28051960D02*
X20013662Y-28090055D01*
X20013662Y-28090055D02*
X19937471Y-28090055D01*
X21042233Y-28090055D02*
X20585090Y-28090055D01*
X20813662Y-28090055D02*
X20813662Y-27290055D01*
X20813662Y-27290055D02*
X20737471Y-27404340D01*
X20737471Y-27404340D02*
X20661281Y-27480531D01*
X20661281Y-27480531D02*
X20585090Y-27518626D01*
X28242833Y-13007155D02*
X28242833Y-13578583D01*
X28242833Y-13578583D02*
X28204738Y-13692869D01*
X28204738Y-13692869D02*
X28128547Y-13769060D01*
X28128547Y-13769060D02*
X28014262Y-13807155D01*
X28014262Y-13807155D02*
X27938071Y-13807155D01*
X28547595Y-13007155D02*
X29042833Y-13007155D01*
X29042833Y-13007155D02*
X28776167Y-13311917D01*
X28776167Y-13311917D02*
X28890452Y-13311917D01*
X28890452Y-13311917D02*
X28966643Y-13350012D01*
X28966643Y-13350012D02*
X29004738Y-13388107D01*
X29004738Y-13388107D02*
X29042833Y-13464298D01*
X29042833Y-13464298D02*
X29042833Y-13654774D01*
X29042833Y-13654774D02*
X29004738Y-13730964D01*
X29004738Y-13730964D02*
X28966643Y-13769060D01*
X28966643Y-13769060D02*
X28890452Y-13807155D01*
X28890452Y-13807155D02*
X28661881Y-13807155D01*
X28661881Y-13807155D02*
X28585690Y-13769060D01*
X28585690Y-13769060D02*
X28547595Y-13730964D01*
X32980952Y-5563855D02*
X32980952Y-6135283D01*
X32980952Y-6135283D02*
X32942857Y-6249569D01*
X32942857Y-6249569D02*
X32866666Y-6325760D01*
X32866666Y-6325760D02*
X32752381Y-6363855D01*
X32752381Y-6363855D02*
X32676190Y-6363855D01*
X33171429Y-6440045D02*
X33780952Y-6440045D01*
X33933333Y-6325760D02*
X34047619Y-6363855D01*
X34047619Y-6363855D02*
X34238095Y-6363855D01*
X34238095Y-6363855D02*
X34314286Y-6325760D01*
X34314286Y-6325760D02*
X34352381Y-6287664D01*
X34352381Y-6287664D02*
X34390476Y-6211474D01*
X34390476Y-6211474D02*
X34390476Y-6135283D01*
X34390476Y-6135283D02*
X34352381Y-6059093D01*
X34352381Y-6059093D02*
X34314286Y-6020998D01*
X34314286Y-6020998D02*
X34238095Y-5982902D01*
X34238095Y-5982902D02*
X34085714Y-5944807D01*
X34085714Y-5944807D02*
X34009524Y-5906712D01*
X34009524Y-5906712D02*
X33971429Y-5868617D01*
X33971429Y-5868617D02*
X33933333Y-5792426D01*
X33933333Y-5792426D02*
X33933333Y-5716236D01*
X33933333Y-5716236D02*
X33971429Y-5640045D01*
X33971429Y-5640045D02*
X34009524Y-5601950D01*
X34009524Y-5601950D02*
X34085714Y-5563855D01*
X34085714Y-5563855D02*
X34276191Y-5563855D01*
X34276191Y-5563855D02*
X34390476Y-5601950D01*
X34619048Y-5563855D02*
X35076191Y-5563855D01*
X34847619Y-6363855D02*
X34847619Y-5563855D01*
X35304762Y-6135283D02*
X35685715Y-6135283D01*
X35228572Y-6363855D02*
X35495239Y-5563855D01*
X35495239Y-5563855D02*
X35761905Y-6363855D01*
X36485715Y-6287664D02*
X36447619Y-6325760D01*
X36447619Y-6325760D02*
X36333334Y-6363855D01*
X36333334Y-6363855D02*
X36257143Y-6363855D01*
X36257143Y-6363855D02*
X36142857Y-6325760D01*
X36142857Y-6325760D02*
X36066667Y-6249569D01*
X36066667Y-6249569D02*
X36028572Y-6173379D01*
X36028572Y-6173379D02*
X35990476Y-6020998D01*
X35990476Y-6020998D02*
X35990476Y-5906712D01*
X35990476Y-5906712D02*
X36028572Y-5754331D01*
X36028572Y-5754331D02*
X36066667Y-5678140D01*
X36066667Y-5678140D02*
X36142857Y-5601950D01*
X36142857Y-5601950D02*
X36257143Y-5563855D01*
X36257143Y-5563855D02*
X36333334Y-5563855D01*
X36333334Y-5563855D02*
X36447619Y-5601950D01*
X36447619Y-5601950D02*
X36485715Y-5640045D01*
X36828572Y-6363855D02*
X36828572Y-5563855D01*
X37285715Y-6363855D02*
X36942857Y-5906712D01*
X37285715Y-5563855D02*
X36828572Y-6020998D01*
D11*
X4182857Y-2994819D02*
X4182857Y-1994819D01*
X4182857Y-1994819D02*
X4516190Y-2709104D01*
X4516190Y-2709104D02*
X4849523Y-1994819D01*
X4849523Y-1994819D02*
X4849523Y-2994819D01*
X5325714Y-2994819D02*
X5325714Y-1994819D01*
X5325714Y-2471009D02*
X5897142Y-2471009D01*
X5897142Y-2994819D02*
X5897142Y-1994819D01*
X64102857Y-2994819D02*
X64102857Y-1994819D01*
X64102857Y-1994819D02*
X64436190Y-2709104D01*
X64436190Y-2709104D02*
X64769523Y-1994819D01*
X64769523Y-1994819D02*
X64769523Y-2994819D01*
X65245714Y-2994819D02*
X65245714Y-1994819D01*
X65245714Y-2471009D02*
X65817142Y-2471009D01*
X65817142Y-2994819D02*
X65817142Y-1994819D01*
X4182857Y-48914819D02*
X4182857Y-47914819D01*
X4182857Y-47914819D02*
X4516190Y-48629104D01*
X4516190Y-48629104D02*
X4849523Y-47914819D01*
X4849523Y-47914819D02*
X4849523Y-48914819D01*
X5325714Y-48914819D02*
X5325714Y-47914819D01*
X5325714Y-48391009D02*
X5897142Y-48391009D01*
X5897142Y-48914819D02*
X5897142Y-47914819D01*
X64102857Y-48914819D02*
X64102857Y-47914819D01*
X64102857Y-47914819D02*
X64436190Y-48629104D01*
X64436190Y-48629104D02*
X64769523Y-47914819D01*
X64769523Y-47914819D02*
X64769523Y-48914819D01*
X65245714Y-48914819D02*
X65245714Y-47914819D01*
X65245714Y-48391009D02*
X65817142Y-48391009D01*
X65817142Y-48914819D02*
X65817142Y-47914819D01*
X7444762Y-6471009D02*
X7111429Y-6471009D01*
X7111429Y-6994819D02*
X7111429Y-5994819D01*
X7111429Y-5994819D02*
X7587619Y-5994819D01*
X7968572Y-6994819D02*
X7968572Y-5994819D01*
X8444762Y-6994819D02*
X8444762Y-5994819D01*
X8444762Y-5994819D02*
X8682857Y-5994819D01*
X8682857Y-5994819D02*
X8825714Y-6042438D01*
X8825714Y-6042438D02*
X8920952Y-6137676D01*
X8920952Y-6137676D02*
X8968571Y-6232914D01*
X8968571Y-6232914D02*
X9016190Y-6423390D01*
X9016190Y-6423390D02*
X9016190Y-6566247D01*
X9016190Y-6566247D02*
X8968571Y-6756723D01*
X8968571Y-6756723D02*
X8920952Y-6851961D01*
X8920952Y-6851961D02*
X8825714Y-6947200D01*
X8825714Y-6947200D02*
X8682857Y-6994819D01*
X8682857Y-6994819D02*
X8444762Y-6994819D01*
X61364762Y-6471009D02*
X61031429Y-6471009D01*
X61031429Y-6994819D02*
X61031429Y-5994819D01*
X61031429Y-5994819D02*
X61507619Y-5994819D01*
X61888572Y-6994819D02*
X61888572Y-5994819D01*
X62364762Y-6994819D02*
X62364762Y-5994819D01*
X62364762Y-5994819D02*
X62602857Y-5994819D01*
X62602857Y-5994819D02*
X62745714Y-6042438D01*
X62745714Y-6042438D02*
X62840952Y-6137676D01*
X62840952Y-6137676D02*
X62888571Y-6232914D01*
X62888571Y-6232914D02*
X62936190Y-6423390D01*
X62936190Y-6423390D02*
X62936190Y-6566247D01*
X62936190Y-6566247D02*
X62888571Y-6756723D01*
X62888571Y-6756723D02*
X62840952Y-6851961D01*
X62840952Y-6851961D02*
X62745714Y-6947200D01*
X62745714Y-6947200D02*
X62602857Y-6994819D01*
X62602857Y-6994819D02*
X62364762Y-6994819D01*
X7444762Y-46391009D02*
X7111429Y-46391009D01*
X7111429Y-46914819D02*
X7111429Y-45914819D01*
X7111429Y-45914819D02*
X7587619Y-45914819D01*
X7968572Y-46914819D02*
X7968572Y-45914819D01*
X8444762Y-46914819D02*
X8444762Y-45914819D01*
X8444762Y-45914819D02*
X8682857Y-45914819D01*
X8682857Y-45914819D02*
X8825714Y-45962438D01*
X8825714Y-45962438D02*
X8920952Y-46057676D01*
X8920952Y-46057676D02*
X8968571Y-46152914D01*
X8968571Y-46152914D02*
X9016190Y-46343390D01*
X9016190Y-46343390D02*
X9016190Y-46486247D01*
X9016190Y-46486247D02*
X8968571Y-46676723D01*
X8968571Y-46676723D02*
X8920952Y-46771961D01*
X8920952Y-46771961D02*
X8825714Y-46867200D01*
X8825714Y-46867200D02*
X8682857Y-46914819D01*
X8682857Y-46914819D02*
X8444762Y-46914819D01*
M02*
