M48
; DRILL file KiCad 10.0.3 date 2026-06-21T15:43:01
; FORMAT={-:-/ absolute / metric / decimal}
; #@! TF.CreationDate,2026-06-21T15:43:01-04:00
; #@! TF.GenerationSoftware,Kicad,Pcbnew,10.0.3
; #@! TF.FileFunction,MixedPlating,1,4
FMAT,2
METRIC
; #@! TA.AperFunction,Plated,PTH,ViaDrill
T1C0.200
; #@! TA.AperFunction,Plated,PTH,ComponentDrill
T2C0.500
; #@! TA.AperFunction,NonPlated,NPTH,ComponentDrill
T3C3.200
%
G90
G05
T1
X17.0Y-30.5
X18.0Y-23.0
X22.0Y-17.5
X23.0Y-15.0
X23.0Y-16.5
X25.5Y-4.5
X26.5Y-16.0
X27.0Y-12.5
X28.5Y-4.5
X29.0Y-24.5
X29.5Y-20.5
X30.0Y-16.5
X30.5Y-12.5
X30.5Y-24.5
X31.0Y-4.5
X32.0Y-14.5
X32.0Y-22.5
X33.5Y-4.5
X33.5Y-14.0
X34.0Y-16.5
X34.0Y-21.5
X34.0Y-23.5
X34.0Y-28.5
X35.0Y-33.5
X36.5Y-4.5
X36.5Y-16.5
X36.5Y-36.0
X39.0Y-4.5
X39.0Y-16.5
X40.5Y-33.5
X41.0Y-16.5
X42.5Y-31.5
X43.0Y-4.5
X43.5Y-16.5
X43.5Y-32.5
X44.0Y-4.5
X46.0Y-15.0
X46.0Y-16.5
X46.5Y-4.5
X48.5Y-16.5
X48.5Y-17.5
X49.0Y-18.0
X49.0Y-20.5
X49.0Y-23.0
X49.0Y-28.0
X49.0Y-30.5
X51.0Y-25.5
T2
X21.03Y-5.73
X21.03Y-8.27
X23.57Y-5.73
X23.57Y-8.27
X26.11Y-5.73
X26.11Y-8.27
X28.65Y-5.73
X28.65Y-8.27
X31.19Y-5.73
X31.19Y-8.27
X33.73Y-5.73
X33.73Y-8.27
X36.27Y-5.73
X36.27Y-8.27
X38.81Y-5.73
X38.81Y-8.27
X41.35Y-5.73
X41.35Y-8.27
X43.89Y-5.73
X43.89Y-8.27
X46.43Y-5.73
X46.43Y-8.27
X48.97Y-5.73
X48.97Y-8.27
T3
X5.04Y-5.04
X5.04Y-50.96
X64.96Y-5.04
X64.96Y-50.96
M30
