%TF.GenerationSoftware,KiCad,Pcbnew,10.0.3*%
%TF.CreationDate,2026-06-21T11:02:35-04:00*%
%TF.ProjectId,fpga_tile,66706761-5f74-4696-9c65-2e6b69636164,rev?*%
%TF.SameCoordinates,Original*%
%TF.FileFunction,Copper,L2,Inr*%
%TF.FilePolarity,Positive*%
%FSLAX46Y46*%
G04 Gerber Fmt 4.6, Leading zero omitted, Abs format (unit mm)*
G04 Created by KiCad (PCBNEW 10.0.3) date 2026-06-21 11:02:35*
%MOMM*%
%LPD*%
G01*
G04 APERTURE LIST*
%TA.AperFunction,ViaPad*%
%ADD10C,0.460000*%
%TD*%
%TA.AperFunction,Conductor*%
%ADD11C,0.250000*%
%TD*%
%TA.AperFunction,Conductor*%
%ADD12C,0.150000*%
%TD*%
G04 APERTURE END LIST*
D10*
%TO.N,VCCAUX*%
X28000000Y-50000000D03*
X28500000Y-61000000D03*
%TO.N,VCCO_3V3*%
X18500000Y-18000000D03*
X16500000Y-29000000D03*
X31000000Y-47000000D03*
X25000000Y-49000000D03*
X20500000Y-52500000D03*
X20000000Y-54500000D03*
%TO.N,CLK*%
X17000000Y-43500000D03*
X24000000Y-47000000D03*
%TO.N,CCLK*%
X22500000Y-47000000D03*
X18000000Y-51500000D03*
%TO.N,DIN*%
X20500000Y-47000000D03*
X18000000Y-49500000D03*
%TO.N,DOUT*%
X20500000Y-45000000D03*
X19500000Y-49000000D03*
%TO.N,CFG_CS*%
X20500000Y-43000000D03*
X21000000Y-49000000D03*
%TO.N,TCK*%
X22500000Y-18500000D03*
X20500000Y-36000000D03*
%TO.N,TMS*%
X22500000Y-22500000D03*
X22000000Y-32500000D03*
X20500000Y-34500000D03*
%TO.N,TDI*%
X20500000Y-24000000D03*
X20500000Y-32000000D03*
X20500000Y-32500000D03*
%TO.N,TDO*%
X18500000Y-22000000D03*
X21500000Y-31500000D03*
%TO.N,TRIGOUT_0*%
X19500000Y-25500000D03*
X23000000Y-31500000D03*
%TO.N,TRIGOUT_1*%
X23000000Y-25500000D03*
X25000000Y-31500000D03*
%TO.N,TRIGOUT_2*%
X26000000Y-25500000D03*
X26500000Y-31500000D03*
%TO.N,TRIGOUT_3*%
X29500000Y-25500000D03*
X28500000Y-31500000D03*
%TO.N,TRIGOUT_4*%
X32500000Y-25500000D03*
X30500000Y-31500000D03*
%TO.N,TRIGOUT_5*%
X36000000Y-25500000D03*
X32000000Y-31500000D03*
%TO.N,TRIGOUT_6*%
X39000000Y-25500000D03*
X34000000Y-31500000D03*
%TO.N,TRIGOUT_7*%
X41000000Y-26500000D03*
X35500000Y-31500000D03*
%TO.N,TRIGOUT_8*%
X41000000Y-30000000D03*
X35500000Y-33500000D03*
%TO.N,TRIGOUT_10*%
X35000000Y-30000000D03*
X35500000Y-37000000D03*
%TO.N,TRIGOUT_11*%
X31500000Y-30000000D03*
X35500000Y-38500000D03*
%TO.N,TRIGOUT_12*%
X28500000Y-30000000D03*
X35500000Y-40500000D03*
%TO.N,TRIGOUT_13*%
X25000000Y-30000000D03*
X35500000Y-42500000D03*
%TO.N,TRIGOUT_14*%
X22000000Y-30000000D03*
X35500000Y-44000000D03*
%TO.N,TRIGOUT_15*%
X18500000Y-30000000D03*
X35500000Y-46000000D03*
%TD*%
%TO.N,VCCAUX*%
D11*
X28000000Y-51000000D02*
X28500000Y-51000000D01*
X28000000Y-50000000D02*
X28000000Y-51000000D01*
X28500000Y-51000000D02*
X28500000Y-61000000D01*
%TO.N,VCCO_3V3*%
X18000000Y-18000000D02*
X18500000Y-18000000D01*
X17500000Y-18500000D02*
X18000000Y-18500000D01*
X16500000Y-20500000D02*
X17500000Y-20500000D01*
X25500000Y-47500000D02*
X31000000Y-47500000D01*
X25000000Y-48500000D02*
X25500000Y-48500000D01*
X20000000Y-54500000D02*
X20500000Y-54500000D01*
X16500000Y-20500000D02*
X16500000Y-29000000D01*
X17500000Y-18500000D02*
X17500000Y-20500000D01*
X18000000Y-18000000D02*
X18000000Y-18500000D01*
X20500000Y-52500000D02*
X20500000Y-54500000D01*
X25000000Y-48500000D02*
X25000000Y-49000000D01*
X25500000Y-47500000D02*
X25500000Y-48500000D01*
X31000000Y-47000000D02*
X31000000Y-47500000D01*
%TO.N,CLK*%
D12*
X19500000Y-42500000D02*
X21500000Y-42500000D01*
X17000000Y-43500000D02*
X17500000Y-43500000D01*
X21500000Y-43500000D02*
X22000000Y-43500000D01*
X17500000Y-44000000D02*
X19500000Y-44000000D01*
X22000000Y-44000000D02*
X24000000Y-44000000D01*
X17500000Y-43500000D02*
X17500000Y-44000000D01*
X19500000Y-42500000D02*
X19500000Y-44000000D01*
X21500000Y-42500000D02*
X21500000Y-43500000D01*
X22000000Y-43500000D02*
X22000000Y-44000000D01*
X24000000Y-44000000D02*
X24000000Y-47000000D01*
%TO.N,CCLK*%
X22500000Y-49000000D02*
X23000000Y-49000000D01*
X18500000Y-51000000D02*
X23000000Y-51000000D01*
X18000000Y-51500000D02*
X18500000Y-51500000D01*
X18500000Y-51000000D02*
X18500000Y-51500000D01*
X22500000Y-47000000D02*
X22500000Y-49000000D01*
X23000000Y-49000000D02*
X23000000Y-51000000D01*
%TO.N,DIN*%
X20000000Y-48500000D02*
X20500000Y-48500000D01*
X18000000Y-50000000D02*
X20000000Y-50000000D01*
X18000000Y-49500000D02*
X18000000Y-50000000D01*
X20000000Y-48500000D02*
X20000000Y-50000000D01*
X20500000Y-47000000D02*
X20500000Y-48500000D01*
%TO.N,DOUT*%
X20000000Y-45000000D02*
X20500000Y-45000000D01*
X19500000Y-45500000D02*
X20000000Y-45500000D01*
X19500000Y-45500000D02*
X19500000Y-49000000D01*
X20000000Y-45000000D02*
X20000000Y-45500000D01*
%TO.N,CFG_CS*%
X20500000Y-44000000D02*
X21500000Y-44000000D01*
X21000000Y-49000000D02*
X21500000Y-49000000D01*
X20500000Y-43000000D02*
X20500000Y-44000000D01*
X21500000Y-44000000D02*
X21500000Y-49000000D01*
%TO.N,TCK*%
X22000000Y-19000000D02*
X22500000Y-19000000D01*
X21500000Y-19500000D02*
X22000000Y-19500000D01*
X21000000Y-20000000D02*
X21500000Y-20000000D01*
X20500000Y-20500000D02*
X21000000Y-20500000D01*
X17000000Y-21000000D02*
X20500000Y-21000000D01*
X17000000Y-28500000D02*
X17500000Y-28500000D01*
X17500000Y-29000000D02*
X18000000Y-29000000D01*
X18000000Y-31000000D02*
X18500000Y-31000000D01*
X18500000Y-32000000D02*
X19000000Y-32000000D01*
X19000000Y-36000000D02*
X20500000Y-36000000D01*
X17000000Y-21000000D02*
X17000000Y-28500000D01*
X17500000Y-28500000D02*
X17500000Y-29000000D01*
X18000000Y-29000000D02*
X18000000Y-31000000D01*
X18500000Y-31000000D02*
X18500000Y-32000000D01*
X19000000Y-32000000D02*
X19000000Y-36000000D01*
X20500000Y-20500000D02*
X20500000Y-21000000D01*
X21000000Y-20000000D02*
X21000000Y-20500000D01*
X21500000Y-19500000D02*
X21500000Y-20000000D01*
X22000000Y-19000000D02*
X22000000Y-19500000D01*
X22500000Y-18500000D02*
X22500000Y-19000000D01*
%TO.N,TMS*%
X21500000Y-32500000D02*
X22000000Y-32500000D01*
X21000000Y-33500000D02*
X21500000Y-33500000D01*
X20500000Y-34000000D02*
X21000000Y-34000000D01*
X20500000Y-34000000D02*
X20500000Y-34500000D01*
X21000000Y-33500000D02*
X21000000Y-34000000D01*
X21500000Y-32500000D02*
X21500000Y-33500000D01*
%TO.N,TDI*%
X20500000Y-32000000D02*
X20500000Y-32500000D01*
%TO.N,TDO*%
X18500000Y-23000000D02*
X19000000Y-23000000D01*
X19000000Y-28500000D02*
X19500000Y-28500000D01*
X19500000Y-30500000D02*
X20000000Y-30500000D01*
X20000000Y-31000000D02*
X21000000Y-31000000D01*
X21000000Y-31500000D02*
X21500000Y-31500000D01*
X18500000Y-22000000D02*
X18500000Y-23000000D01*
X19000000Y-23000000D02*
X19000000Y-28500000D01*
X19500000Y-28500000D02*
X19500000Y-30500000D01*
X20000000Y-30500000D02*
X20000000Y-31000000D01*
X21000000Y-31000000D02*
X21000000Y-31500000D01*
%TO.N,TRIGOUT_0*%
X19500000Y-25500000D02*
X20000000Y-25500000D01*
X20000000Y-27500000D02*
X22000000Y-27500000D01*
X22000000Y-28000000D02*
X23000000Y-28000000D01*
X20000000Y-25500000D02*
X20000000Y-27500000D01*
X22000000Y-27500000D02*
X22000000Y-28000000D01*
X23000000Y-28000000D02*
X23000000Y-31500000D01*
%TO.N,TRIGOUT_1*%
X23000000Y-26500000D02*
X23500000Y-26500000D01*
X23500000Y-28500000D02*
X24500000Y-28500000D01*
X24500000Y-30500000D02*
X25000000Y-30500000D01*
X23000000Y-25500000D02*
X23000000Y-26500000D01*
X23500000Y-26500000D02*
X23500000Y-28500000D01*
X24500000Y-28500000D02*
X24500000Y-30500000D01*
X25000000Y-30500000D02*
X25000000Y-31500000D01*
%TO.N,TRIGOUT_2*%
X26000000Y-26500000D02*
X26500000Y-26500000D01*
X26000000Y-25500000D02*
X26000000Y-26500000D01*
X26500000Y-26500000D02*
X26500000Y-31500000D01*
%TO.N,TRIGOUT_3*%
X28500000Y-26500000D02*
X29500000Y-26500000D01*
X28000000Y-28000000D02*
X28500000Y-28000000D01*
X27500000Y-29000000D02*
X28000000Y-29000000D01*
X27500000Y-31000000D02*
X28500000Y-31000000D01*
X27500000Y-29000000D02*
X27500000Y-31000000D01*
X28000000Y-28000000D02*
X28000000Y-29000000D01*
X28500000Y-26500000D02*
X28500000Y-28000000D01*
X28500000Y-31000000D02*
X28500000Y-31500000D01*
X29500000Y-25500000D02*
X29500000Y-26500000D01*
%TO.N,TRIGOUT_4*%
X32000000Y-25500000D02*
X32500000Y-25500000D01*
X31500000Y-26500000D02*
X32000000Y-26500000D01*
X31000000Y-29000000D02*
X31500000Y-29000000D01*
X30500000Y-30500000D02*
X31000000Y-30500000D01*
X30500000Y-30500000D02*
X30500000Y-31500000D01*
X31000000Y-29000000D02*
X31000000Y-30500000D01*
X31500000Y-26500000D02*
X31500000Y-29000000D01*
X32000000Y-25500000D02*
X32000000Y-26500000D01*
%TO.N,TRIGOUT_5*%
X35500000Y-26000000D02*
X36000000Y-26000000D01*
X34000000Y-27000000D02*
X35500000Y-27000000D01*
X33500000Y-28500000D02*
X34000000Y-28500000D01*
X32500000Y-29000000D02*
X33500000Y-29000000D01*
X32000000Y-31000000D02*
X32500000Y-31000000D01*
X32000000Y-31000000D02*
X32000000Y-31500000D01*
X32500000Y-29000000D02*
X32500000Y-31000000D01*
X33500000Y-28500000D02*
X33500000Y-29000000D01*
X34000000Y-27000000D02*
X34000000Y-28500000D01*
X35500000Y-26000000D02*
X35500000Y-27000000D01*
X36000000Y-25500000D02*
X36000000Y-26000000D01*
%TO.N,TRIGOUT_6*%
X38000000Y-25500000D02*
X39000000Y-25500000D01*
X37500000Y-26000000D02*
X38000000Y-26000000D01*
X37000000Y-26500000D02*
X37500000Y-26500000D01*
X36500000Y-27500000D02*
X37000000Y-27500000D01*
X34000000Y-29000000D02*
X36500000Y-29000000D01*
X34000000Y-29000000D02*
X34000000Y-31500000D01*
X36500000Y-27500000D02*
X36500000Y-29000000D01*
X37000000Y-26500000D02*
X37000000Y-27500000D01*
X37500000Y-26000000D02*
X37500000Y-26500000D01*
X38000000Y-25500000D02*
X38000000Y-26000000D01*
%TO.N,TRIGOUT_7*%
X40500000Y-27000000D02*
X41000000Y-27000000D01*
X39500000Y-28000000D02*
X40500000Y-28000000D01*
X37000000Y-29000000D02*
X39500000Y-29000000D01*
X36500000Y-30500000D02*
X37000000Y-30500000D01*
X35500000Y-31000000D02*
X36500000Y-31000000D01*
X35500000Y-31000000D02*
X35500000Y-31500000D01*
X36500000Y-30500000D02*
X36500000Y-31000000D01*
X37000000Y-29000000D02*
X37000000Y-30500000D01*
X39500000Y-28000000D02*
X39500000Y-29000000D01*
X40500000Y-27000000D02*
X40500000Y-28000000D01*
X41000000Y-26500000D02*
X41000000Y-27000000D01*
%TO.N,TRIGOUT_8*%
X37500000Y-31000000D02*
X41000000Y-31000000D01*
X36500000Y-31500000D02*
X37500000Y-31500000D01*
X35500000Y-32500000D02*
X36500000Y-32500000D01*
X35500000Y-32500000D02*
X35500000Y-33500000D01*
X36500000Y-31500000D02*
X36500000Y-32500000D01*
X37500000Y-31000000D02*
X37500000Y-31500000D01*
X41000000Y-30000000D02*
X41000000Y-31000000D01*
%TO.N,TRIGOUT_10*%
X35000000Y-36500000D02*
X35500000Y-36500000D01*
X35000000Y-30000000D02*
X35000000Y-36500000D01*
X35500000Y-36500000D02*
X35500000Y-37000000D01*
%TO.N,TRIGOUT_11*%
X31500000Y-34000000D02*
X32000000Y-34000000D01*
X32000000Y-35000000D02*
X32500000Y-35000000D01*
X32500000Y-36000000D02*
X34000000Y-36000000D01*
X34000000Y-36500000D02*
X34500000Y-36500000D01*
X34500000Y-37500000D02*
X35000000Y-37500000D01*
X35000000Y-38000000D02*
X35500000Y-38000000D01*
X31500000Y-30000000D02*
X31500000Y-34000000D01*
X32000000Y-34000000D02*
X32000000Y-35000000D01*
X32500000Y-35000000D02*
X32500000Y-36000000D01*
X34000000Y-36000000D02*
X34000000Y-36500000D01*
X34500000Y-36500000D02*
X34500000Y-37500000D01*
X35000000Y-37500000D02*
X35000000Y-38000000D01*
X35500000Y-38000000D02*
X35500000Y-38500000D01*
%TO.N,TRIGOUT_12*%
X28500000Y-30500000D02*
X29000000Y-30500000D01*
X29000000Y-31000000D02*
X29500000Y-31000000D01*
X29500000Y-32500000D02*
X30000000Y-32500000D01*
X30000000Y-33000000D02*
X31000000Y-33000000D01*
X31000000Y-36000000D02*
X32000000Y-36000000D01*
X32000000Y-37000000D02*
X32500000Y-37000000D01*
X32500000Y-38000000D02*
X33500000Y-38000000D01*
X33500000Y-38500000D02*
X34500000Y-38500000D01*
X34500000Y-39000000D02*
X35000000Y-39000000D01*
X35000000Y-40000000D02*
X35500000Y-40000000D01*
X28500000Y-30000000D02*
X28500000Y-30500000D01*
X29000000Y-30500000D02*
X29000000Y-31000000D01*
X29500000Y-31000000D02*
X29500000Y-32500000D01*
X30000000Y-32500000D02*
X30000000Y-33000000D01*
X31000000Y-33000000D02*
X31000000Y-36000000D01*
X32000000Y-36000000D02*
X32000000Y-37000000D01*
X32500000Y-37000000D02*
X32500000Y-38000000D01*
X33500000Y-38000000D02*
X33500000Y-38500000D01*
X34500000Y-38500000D02*
X34500000Y-39000000D01*
X35000000Y-39000000D02*
X35000000Y-40000000D01*
X35500000Y-40000000D02*
X35500000Y-40500000D01*
%TO.N,TRIGOUT_13*%
X25000000Y-30000000D02*
X26000000Y-30000000D01*
X26000000Y-32500000D02*
X26500000Y-32500000D01*
X26500000Y-33000000D02*
X27000000Y-33000000D01*
X27000000Y-33500000D02*
X27500000Y-33500000D01*
X27500000Y-34000000D02*
X28000000Y-34000000D01*
X28000000Y-34500000D02*
X28500000Y-34500000D01*
X28500000Y-35500000D02*
X29000000Y-35500000D01*
X29000000Y-37000000D02*
X29500000Y-37000000D01*
X29500000Y-38000000D02*
X30000000Y-38000000D01*
X30000000Y-38500000D02*
X31000000Y-38500000D01*
X31000000Y-39500000D02*
X32000000Y-39500000D01*
X32000000Y-40000000D02*
X32500000Y-40000000D01*
X32500000Y-40500000D02*
X33500000Y-40500000D01*
X33500000Y-41500000D02*
X34500000Y-41500000D01*
X34500000Y-42500000D02*
X35500000Y-42500000D01*
X26000000Y-30000000D02*
X26000000Y-32500000D01*
X26500000Y-32500000D02*
X26500000Y-33000000D01*
X27000000Y-33000000D02*
X27000000Y-33500000D01*
X27500000Y-33500000D02*
X27500000Y-34000000D01*
X28000000Y-34000000D02*
X28000000Y-34500000D01*
X28500000Y-34500000D02*
X28500000Y-35500000D01*
X29000000Y-35500000D02*
X29000000Y-37000000D01*
X29500000Y-37000000D02*
X29500000Y-38000000D01*
X30000000Y-38000000D02*
X30000000Y-38500000D01*
X31000000Y-38500000D02*
X31000000Y-39500000D01*
X32000000Y-39500000D02*
X32000000Y-40000000D01*
X32500000Y-40000000D02*
X32500000Y-40500000D01*
X33500000Y-40500000D02*
X33500000Y-41500000D01*
X34500000Y-41500000D02*
X34500000Y-42500000D01*
%TO.N,TRIGOUT_14*%
X22000000Y-32000000D02*
X22500000Y-32000000D01*
X22500000Y-33000000D02*
X23000000Y-33000000D01*
X23000000Y-34000000D02*
X24000000Y-34000000D01*
X24000000Y-36000000D02*
X24500000Y-36000000D01*
X24500000Y-36500000D02*
X25000000Y-36500000D01*
X25000000Y-37000000D02*
X26000000Y-37000000D01*
X26000000Y-37500000D02*
X26500000Y-37500000D01*
X26500000Y-38000000D02*
X27000000Y-38000000D01*
X27000000Y-38500000D02*
X28000000Y-38500000D01*
X28000000Y-39000000D02*
X28500000Y-39000000D01*
X28500000Y-39500000D02*
X29000000Y-39500000D01*
X29000000Y-40500000D02*
X29500000Y-40500000D01*
X29500000Y-41000000D02*
X30000000Y-41000000D01*
X30000000Y-41500000D02*
X30500000Y-41500000D01*
X30500000Y-42000000D02*
X31000000Y-42000000D01*
X31000000Y-42500000D02*
X32000000Y-42500000D01*
X32000000Y-44000000D02*
X35500000Y-44000000D01*
X22000000Y-30000000D02*
X22000000Y-32000000D01*
X22500000Y-32000000D02*
X22500000Y-33000000D01*
X23000000Y-33000000D02*
X23000000Y-34000000D01*
X24000000Y-34000000D02*
X24000000Y-36000000D01*
X24500000Y-36000000D02*
X24500000Y-36500000D01*
X25000000Y-36500000D02*
X25000000Y-37000000D01*
X26000000Y-37000000D02*
X26000000Y-37500000D01*
X26500000Y-37500000D02*
X26500000Y-38000000D01*
X27000000Y-38000000D02*
X27000000Y-38500000D01*
X28000000Y-38500000D02*
X28000000Y-39000000D01*
X28500000Y-39000000D02*
X28500000Y-39500000D01*
X29000000Y-39500000D02*
X29000000Y-40500000D01*
X29500000Y-40500000D02*
X29500000Y-41000000D01*
X30000000Y-41000000D02*
X30000000Y-41500000D01*
X30500000Y-41500000D02*
X30500000Y-42000000D01*
X31000000Y-42000000D02*
X31000000Y-42500000D01*
X32000000Y-42500000D02*
X32000000Y-44000000D01*
%TO.N,TRIGOUT_15*%
X18500000Y-30000000D02*
X19000000Y-30000000D01*
X19000000Y-31000000D02*
X19500000Y-31000000D01*
X19500000Y-35000000D02*
X21500000Y-35000000D01*
X21500000Y-35500000D02*
X22000000Y-35500000D01*
X22000000Y-36000000D02*
X23000000Y-36000000D01*
X23000000Y-36500000D02*
X23500000Y-36500000D01*
X23500000Y-37000000D02*
X24000000Y-37000000D01*
X24000000Y-38500000D02*
X24500000Y-38500000D01*
X24500000Y-40000000D02*
X25000000Y-40000000D01*
X25000000Y-40500000D02*
X25500000Y-40500000D01*
X25500000Y-41000000D02*
X26500000Y-41000000D01*
X26500000Y-41500000D02*
X27000000Y-41500000D01*
X27000000Y-42000000D02*
X27500000Y-42000000D01*
X27500000Y-42500000D02*
X28000000Y-42500000D01*
X28000000Y-43000000D02*
X28500000Y-43000000D01*
X28500000Y-43500000D02*
X29000000Y-43500000D01*
X29000000Y-45000000D02*
X29500000Y-45000000D01*
X29500000Y-46000000D02*
X35500000Y-46000000D01*
X19000000Y-30000000D02*
X19000000Y-31000000D01*
X19500000Y-31000000D02*
X19500000Y-35000000D01*
X21500000Y-35000000D02*
X21500000Y-35500000D01*
X22000000Y-35500000D02*
X22000000Y-36000000D01*
X23000000Y-36000000D02*
X23000000Y-36500000D01*
X23500000Y-36500000D02*
X23500000Y-37000000D01*
X24000000Y-37000000D02*
X24000000Y-38500000D01*
X24500000Y-38500000D02*
X24500000Y-40000000D01*
X25000000Y-40000000D02*
X25000000Y-40500000D01*
X25500000Y-40500000D02*
X25500000Y-41000000D01*
X26500000Y-41000000D02*
X26500000Y-41500000D01*
X27000000Y-41500000D02*
X27000000Y-42000000D01*
X27500000Y-42000000D02*
X27500000Y-42500000D01*
X28000000Y-42500000D02*
X28000000Y-43000000D01*
X28500000Y-43000000D02*
X28500000Y-43500000D01*
X29000000Y-43500000D02*
X29000000Y-45000000D01*
X29500000Y-45000000D02*
X29500000Y-46000000D01*
%TD*%
M02*
