%TF.GenerationSoftware,KiCad,Pcbnew,10.0.3*%
%TF.CreationDate,2026-06-21T11:02:35-04:00*%
%TF.ProjectId,fpga_tile,66706761-5f74-4696-9c65-2e6b69636164,rev?*%
%TF.SameCoordinates,Original*%
%TF.FileFunction,AssemblyDrawing,Top*%
%FSLAX46Y46*%
G04 Gerber Fmt 4.6, Leading zero omitted, Abs format (unit mm)*
G04 Created by KiCad (PCBNEW 10.0.3) date 2026-06-21 11:02:35*
%MOMM*%
%LPD*%
G01*
G04 APERTURE LIST*
%ADD10C,0.150000*%
%ADD11C,0.100000*%
G04 APERTURE END LIST*
D10*
X24258576Y-39635519D02*
X24925242Y-40635519D01*
X24925242Y-39635519D02*
X24258576Y-40635519D01*
X25877623Y-40540280D02*
X25830004Y-40587900D01*
X25830004Y-40587900D02*
X25687147Y-40635519D01*
X25687147Y-40635519D02*
X25591909Y-40635519D01*
X25591909Y-40635519D02*
X25449052Y-40587900D01*
X25449052Y-40587900D02*
X25353814Y-40492661D01*
X25353814Y-40492661D02*
X25306195Y-40397423D01*
X25306195Y-40397423D02*
X25258576Y-40206947D01*
X25258576Y-40206947D02*
X25258576Y-40064090D01*
X25258576Y-40064090D02*
X25306195Y-39873614D01*
X25306195Y-39873614D02*
X25353814Y-39778376D01*
X25353814Y-39778376D02*
X25449052Y-39683138D01*
X25449052Y-39683138D02*
X25591909Y-39635519D01*
X25591909Y-39635519D02*
X25687147Y-39635519D01*
X25687147Y-39635519D02*
X25830004Y-39683138D01*
X25830004Y-39683138D02*
X25877623Y-39730757D01*
X26210957Y-39635519D02*
X26877623Y-39635519D01*
X26877623Y-39635519D02*
X26449052Y-40635519D01*
X27210957Y-40349804D02*
X27687147Y-40349804D01*
X27115719Y-40635519D02*
X27449052Y-39635519D01*
X27449052Y-39635519D02*
X27782385Y-40635519D01*
X28115719Y-40254566D02*
X28877624Y-40254566D01*
X30020480Y-40730757D02*
X29925242Y-40683138D01*
X29925242Y-40683138D02*
X29830004Y-40587900D01*
X29830004Y-40587900D02*
X29687147Y-40445042D01*
X29687147Y-40445042D02*
X29591909Y-40397423D01*
X29591909Y-40397423D02*
X29496671Y-40397423D01*
X29544290Y-40635519D02*
X29449052Y-40587900D01*
X29449052Y-40587900D02*
X29353814Y-40492661D01*
X29353814Y-40492661D02*
X29306195Y-40302185D01*
X29306195Y-40302185D02*
X29306195Y-39968852D01*
X29306195Y-39968852D02*
X29353814Y-39778376D01*
X29353814Y-39778376D02*
X29449052Y-39683138D01*
X29449052Y-39683138D02*
X29544290Y-39635519D01*
X29544290Y-39635519D02*
X29734766Y-39635519D01*
X29734766Y-39635519D02*
X29830004Y-39683138D01*
X29830004Y-39683138D02*
X29925242Y-39778376D01*
X29925242Y-39778376D02*
X29972861Y-39968852D01*
X29972861Y-39968852D02*
X29972861Y-40302185D01*
X29972861Y-40302185D02*
X29925242Y-40492661D01*
X29925242Y-40492661D02*
X29830004Y-40587900D01*
X29830004Y-40587900D02*
X29734766Y-40635519D01*
X29734766Y-40635519D02*
X29544290Y-40635519D01*
X30734766Y-40111709D02*
X30401433Y-40111709D01*
X30401433Y-40635519D02*
X30401433Y-39635519D01*
X30401433Y-39635519D02*
X30877623Y-39635519D01*
X31258576Y-40635519D02*
X31258576Y-39635519D01*
X31258576Y-39635519D02*
X31639528Y-39635519D01*
X31639528Y-39635519D02*
X31734766Y-39683138D01*
X31734766Y-39683138D02*
X31782385Y-39730757D01*
X31782385Y-39730757D02*
X31830004Y-39825995D01*
X31830004Y-39825995D02*
X31830004Y-39968852D01*
X31830004Y-39968852D02*
X31782385Y-40064090D01*
X31782385Y-40064090D02*
X31734766Y-40111709D01*
X31734766Y-40111709D02*
X31639528Y-40159328D01*
X31639528Y-40159328D02*
X31258576Y-40159328D01*
X16691367Y-51119319D02*
X16929462Y-52119319D01*
X16929462Y-52119319D02*
X17119938Y-51405033D01*
X17119938Y-51405033D02*
X17310414Y-52119319D01*
X17310414Y-52119319D02*
X17548510Y-51119319D01*
X17881843Y-51214557D02*
X17929462Y-51166938D01*
X17929462Y-51166938D02*
X18024700Y-51119319D01*
X18024700Y-51119319D02*
X18262795Y-51119319D01*
X18262795Y-51119319D02*
X18358033Y-51166938D01*
X18358033Y-51166938D02*
X18405652Y-51214557D01*
X18405652Y-51214557D02*
X18453271Y-51309795D01*
X18453271Y-51309795D02*
X18453271Y-51405033D01*
X18453271Y-51405033D02*
X18405652Y-51547890D01*
X18405652Y-51547890D02*
X17834224Y-52119319D01*
X17834224Y-52119319D02*
X18453271Y-52119319D01*
X19358033Y-51119319D02*
X18881843Y-51119319D01*
X18881843Y-51119319D02*
X18834224Y-51595509D01*
X18834224Y-51595509D02*
X18881843Y-51547890D01*
X18881843Y-51547890D02*
X18977081Y-51500271D01*
X18977081Y-51500271D02*
X19215176Y-51500271D01*
X19215176Y-51500271D02*
X19310414Y-51547890D01*
X19310414Y-51547890D02*
X19358033Y-51595509D01*
X19358033Y-51595509D02*
X19405652Y-51690747D01*
X19405652Y-51690747D02*
X19405652Y-51928842D01*
X19405652Y-51928842D02*
X19358033Y-52024080D01*
X19358033Y-52024080D02*
X19310414Y-52071700D01*
X19310414Y-52071700D02*
X19215176Y-52119319D01*
X19215176Y-52119319D02*
X18977081Y-52119319D01*
X18977081Y-52119319D02*
X18881843Y-52071700D01*
X18881843Y-52071700D02*
X18834224Y-52024080D01*
X20500890Y-52214557D02*
X20405652Y-52166938D01*
X20405652Y-52166938D02*
X20310414Y-52071700D01*
X20310414Y-52071700D02*
X20167557Y-51928842D01*
X20167557Y-51928842D02*
X20072319Y-51881223D01*
X20072319Y-51881223D02*
X19977081Y-51881223D01*
X20024700Y-52119319D02*
X19929462Y-52071700D01*
X19929462Y-52071700D02*
X19834224Y-51976461D01*
X19834224Y-51976461D02*
X19786605Y-51785985D01*
X19786605Y-51785985D02*
X19786605Y-51452652D01*
X19786605Y-51452652D02*
X19834224Y-51262176D01*
X19834224Y-51262176D02*
X19929462Y-51166938D01*
X19929462Y-51166938D02*
X20024700Y-51119319D01*
X20024700Y-51119319D02*
X20215176Y-51119319D01*
X20215176Y-51119319D02*
X20310414Y-51166938D01*
X20310414Y-51166938D02*
X20405652Y-51262176D01*
X20405652Y-51262176D02*
X20453271Y-51452652D01*
X20453271Y-51452652D02*
X20453271Y-51785985D01*
X20453271Y-51785985D02*
X20405652Y-51976461D01*
X20405652Y-51976461D02*
X20310414Y-52071700D01*
X20310414Y-52071700D02*
X20215176Y-52119319D01*
X20215176Y-52119319D02*
X20024700Y-52119319D01*
X21405652Y-52119319D02*
X20834224Y-52119319D01*
X21119938Y-52119319D02*
X21119938Y-51119319D01*
X21119938Y-51119319D02*
X21024700Y-51262176D01*
X21024700Y-51262176D02*
X20929462Y-51357414D01*
X20929462Y-51357414D02*
X20834224Y-51405033D01*
X21786605Y-51214557D02*
X21834224Y-51166938D01*
X21834224Y-51166938D02*
X21929462Y-51119319D01*
X21929462Y-51119319D02*
X22167557Y-51119319D01*
X22167557Y-51119319D02*
X22262795Y-51166938D01*
X22262795Y-51166938D02*
X22310414Y-51214557D01*
X22310414Y-51214557D02*
X22358033Y-51309795D01*
X22358033Y-51309795D02*
X22358033Y-51405033D01*
X22358033Y-51405033D02*
X22310414Y-51547890D01*
X22310414Y-51547890D02*
X21738986Y-52119319D01*
X21738986Y-52119319D02*
X22358033Y-52119319D01*
X22929462Y-51547890D02*
X22834224Y-51500271D01*
X22834224Y-51500271D02*
X22786605Y-51452652D01*
X22786605Y-51452652D02*
X22738986Y-51357414D01*
X22738986Y-51357414D02*
X22738986Y-51309795D01*
X22738986Y-51309795D02*
X22786605Y-51214557D01*
X22786605Y-51214557D02*
X22834224Y-51166938D01*
X22834224Y-51166938D02*
X22929462Y-51119319D01*
X22929462Y-51119319D02*
X23119938Y-51119319D01*
X23119938Y-51119319D02*
X23215176Y-51166938D01*
X23215176Y-51166938D02*
X23262795Y-51214557D01*
X23262795Y-51214557D02*
X23310414Y-51309795D01*
X23310414Y-51309795D02*
X23310414Y-51357414D01*
X23310414Y-51357414D02*
X23262795Y-51452652D01*
X23262795Y-51452652D02*
X23215176Y-51500271D01*
X23215176Y-51500271D02*
X23119938Y-51547890D01*
X23119938Y-51547890D02*
X22929462Y-51547890D01*
X22929462Y-51547890D02*
X22834224Y-51595509D01*
X22834224Y-51595509D02*
X22786605Y-51643128D01*
X22786605Y-51643128D02*
X22738986Y-51738366D01*
X22738986Y-51738366D02*
X22738986Y-51928842D01*
X22738986Y-51928842D02*
X22786605Y-52024080D01*
X22786605Y-52024080D02*
X22834224Y-52071700D01*
X22834224Y-52071700D02*
X22929462Y-52119319D01*
X22929462Y-52119319D02*
X23119938Y-52119319D01*
X23119938Y-52119319D02*
X23215176Y-52071700D01*
X23215176Y-52071700D02*
X23262795Y-52024080D01*
X23262795Y-52024080D02*
X23310414Y-51928842D01*
X23310414Y-51928842D02*
X23310414Y-51738366D01*
X23310414Y-51738366D02*
X23262795Y-51643128D01*
X23262795Y-51643128D02*
X23215176Y-51595509D01*
X23215176Y-51595509D02*
X23119938Y-51547890D01*
X13957457Y-43985319D02*
X14147933Y-43985319D01*
X14147933Y-43985319D02*
X14243171Y-44032938D01*
X14243171Y-44032938D02*
X14338409Y-44128176D01*
X14338409Y-44128176D02*
X14386028Y-44318652D01*
X14386028Y-44318652D02*
X14386028Y-44651985D01*
X14386028Y-44651985D02*
X14338409Y-44842461D01*
X14338409Y-44842461D02*
X14243171Y-44937700D01*
X14243171Y-44937700D02*
X14147933Y-44985319D01*
X14147933Y-44985319D02*
X13957457Y-44985319D01*
X13957457Y-44985319D02*
X13862219Y-44937700D01*
X13862219Y-44937700D02*
X13766981Y-44842461D01*
X13766981Y-44842461D02*
X13719362Y-44651985D01*
X13719362Y-44651985D02*
X13719362Y-44318652D01*
X13719362Y-44318652D02*
X13766981Y-44128176D01*
X13766981Y-44128176D02*
X13862219Y-44032938D01*
X13862219Y-44032938D02*
X13957457Y-43985319D01*
X14766981Y-44937700D02*
X14909838Y-44985319D01*
X14909838Y-44985319D02*
X15147933Y-44985319D01*
X15147933Y-44985319D02*
X15243171Y-44937700D01*
X15243171Y-44937700D02*
X15290790Y-44890080D01*
X15290790Y-44890080D02*
X15338409Y-44794842D01*
X15338409Y-44794842D02*
X15338409Y-44699604D01*
X15338409Y-44699604D02*
X15290790Y-44604366D01*
X15290790Y-44604366D02*
X15243171Y-44556747D01*
X15243171Y-44556747D02*
X15147933Y-44509128D01*
X15147933Y-44509128D02*
X14957457Y-44461509D01*
X14957457Y-44461509D02*
X14862219Y-44413890D01*
X14862219Y-44413890D02*
X14814600Y-44366271D01*
X14814600Y-44366271D02*
X14766981Y-44271033D01*
X14766981Y-44271033D02*
X14766981Y-44175795D01*
X14766981Y-44175795D02*
X14814600Y-44080557D01*
X14814600Y-44080557D02*
X14862219Y-44032938D01*
X14862219Y-44032938D02*
X14957457Y-43985319D01*
X14957457Y-43985319D02*
X15195552Y-43985319D01*
X15195552Y-43985319D02*
X15338409Y-44032938D01*
X16338409Y-44890080D02*
X16290790Y-44937700D01*
X16290790Y-44937700D02*
X16147933Y-44985319D01*
X16147933Y-44985319D02*
X16052695Y-44985319D01*
X16052695Y-44985319D02*
X15909838Y-44937700D01*
X15909838Y-44937700D02*
X15814600Y-44842461D01*
X15814600Y-44842461D02*
X15766981Y-44747223D01*
X15766981Y-44747223D02*
X15719362Y-44556747D01*
X15719362Y-44556747D02*
X15719362Y-44413890D01*
X15719362Y-44413890D02*
X15766981Y-44223414D01*
X15766981Y-44223414D02*
X15814600Y-44128176D01*
X15814600Y-44128176D02*
X15909838Y-44032938D01*
X15909838Y-44032938D02*
X16052695Y-43985319D01*
X16052695Y-43985319D02*
X16147933Y-43985319D01*
X16147933Y-43985319D02*
X16290790Y-44032938D01*
X16290790Y-44032938D02*
X16338409Y-44080557D01*
X16528886Y-45080557D02*
X17290790Y-45080557D01*
X17481267Y-44699604D02*
X17957457Y-44699604D01*
X17386029Y-44985319D02*
X17719362Y-43985319D01*
X17719362Y-43985319D02*
X18052695Y-44985319D01*
X18338410Y-44937700D02*
X18481267Y-44985319D01*
X18481267Y-44985319D02*
X18719362Y-44985319D01*
X18719362Y-44985319D02*
X18814600Y-44937700D01*
X18814600Y-44937700D02*
X18862219Y-44890080D01*
X18862219Y-44890080D02*
X18909838Y-44794842D01*
X18909838Y-44794842D02*
X18909838Y-44699604D01*
X18909838Y-44699604D02*
X18862219Y-44604366D01*
X18862219Y-44604366D02*
X18814600Y-44556747D01*
X18814600Y-44556747D02*
X18719362Y-44509128D01*
X18719362Y-44509128D02*
X18528886Y-44461509D01*
X18528886Y-44461509D02*
X18433648Y-44413890D01*
X18433648Y-44413890D02*
X18386029Y-44366271D01*
X18386029Y-44366271D02*
X18338410Y-44271033D01*
X18338410Y-44271033D02*
X18338410Y-44175795D01*
X18338410Y-44175795D02*
X18386029Y-44080557D01*
X18386029Y-44080557D02*
X18433648Y-44032938D01*
X18433648Y-44032938D02*
X18528886Y-43985319D01*
X18528886Y-43985319D02*
X18766981Y-43985319D01*
X18766981Y-43985319D02*
X18909838Y-44032938D01*
X19338410Y-44461509D02*
X19671743Y-44461509D01*
X19814600Y-44985319D02*
X19338410Y-44985319D01*
X19338410Y-44985319D02*
X19338410Y-43985319D01*
X19338410Y-43985319D02*
X19814600Y-43985319D01*
X20243172Y-44985319D02*
X20243172Y-43985319D01*
X20243172Y-43985319D02*
X20576505Y-44699604D01*
X20576505Y-44699604D02*
X20909838Y-43985319D01*
X20909838Y-43985319D02*
X20909838Y-44985319D01*
X21909838Y-44985319D02*
X21338410Y-44985319D01*
X21624124Y-44985319D02*
X21624124Y-43985319D01*
X21624124Y-43985319D02*
X21528886Y-44128176D01*
X21528886Y-44128176D02*
X21433648Y-44223414D01*
X21433648Y-44223414D02*
X21338410Y-44271033D01*
X29598761Y-50147180D02*
X29551142Y-50194800D01*
X29551142Y-50194800D02*
X29408285Y-50242419D01*
X29408285Y-50242419D02*
X29313047Y-50242419D01*
X29313047Y-50242419D02*
X29170190Y-50194800D01*
X29170190Y-50194800D02*
X29074952Y-50099561D01*
X29074952Y-50099561D02*
X29027333Y-50004323D01*
X29027333Y-50004323D02*
X28979714Y-49813847D01*
X28979714Y-49813847D02*
X28979714Y-49670990D01*
X28979714Y-49670990D02*
X29027333Y-49480514D01*
X29027333Y-49480514D02*
X29074952Y-49385276D01*
X29074952Y-49385276D02*
X29170190Y-49290038D01*
X29170190Y-49290038D02*
X29313047Y-49242419D01*
X29313047Y-49242419D02*
X29408285Y-49242419D01*
X29408285Y-49242419D02*
X29551142Y-49290038D01*
X29551142Y-49290038D02*
X29598761Y-49337657D01*
X30217809Y-49242419D02*
X30313047Y-49242419D01*
X30313047Y-49242419D02*
X30408285Y-49290038D01*
X30408285Y-49290038D02*
X30455904Y-49337657D01*
X30455904Y-49337657D02*
X30503523Y-49432895D01*
X30503523Y-49432895D02*
X30551142Y-49623371D01*
X30551142Y-49623371D02*
X30551142Y-49861466D01*
X30551142Y-49861466D02*
X30503523Y-50051942D01*
X30503523Y-50051942D02*
X30455904Y-50147180D01*
X30455904Y-50147180D02*
X30408285Y-50194800D01*
X30408285Y-50194800D02*
X30313047Y-50242419D01*
X30313047Y-50242419D02*
X30217809Y-50242419D01*
X30217809Y-50242419D02*
X30122571Y-50194800D01*
X30122571Y-50194800D02*
X30074952Y-50147180D01*
X30074952Y-50147180D02*
X30027333Y-50051942D01*
X30027333Y-50051942D02*
X29979714Y-49861466D01*
X29979714Y-49861466D02*
X29979714Y-49623371D01*
X29979714Y-49623371D02*
X30027333Y-49432895D01*
X30027333Y-49432895D02*
X30074952Y-49337657D01*
X30074952Y-49337657D02*
X30122571Y-49290038D01*
X30122571Y-49290038D02*
X30217809Y-49242419D01*
X31408285Y-49575752D02*
X31408285Y-50242419D01*
X31170190Y-49194800D02*
X30932095Y-49909085D01*
X30932095Y-49909085D02*
X31551142Y-49909085D01*
X32122571Y-49242419D02*
X32217809Y-49242419D01*
X32217809Y-49242419D02*
X32313047Y-49290038D01*
X32313047Y-49290038D02*
X32360666Y-49337657D01*
X32360666Y-49337657D02*
X32408285Y-49432895D01*
X32408285Y-49432895D02*
X32455904Y-49623371D01*
X32455904Y-49623371D02*
X32455904Y-49861466D01*
X32455904Y-49861466D02*
X32408285Y-50051942D01*
X32408285Y-50051942D02*
X32360666Y-50147180D01*
X32360666Y-50147180D02*
X32313047Y-50194800D01*
X32313047Y-50194800D02*
X32217809Y-50242419D01*
X32217809Y-50242419D02*
X32122571Y-50242419D01*
X32122571Y-50242419D02*
X32027333Y-50194800D01*
X32027333Y-50194800D02*
X31979714Y-50147180D01*
X31979714Y-50147180D02*
X31932095Y-50051942D01*
X31932095Y-50051942D02*
X31884476Y-49861466D01*
X31884476Y-49861466D02*
X31884476Y-49623371D01*
X31884476Y-49623371D02*
X31932095Y-49432895D01*
X31932095Y-49432895D02*
X31979714Y-49337657D01*
X31979714Y-49337657D02*
X32027333Y-49290038D01*
X32027333Y-49290038D02*
X32122571Y-49242419D01*
X32836857Y-49337657D02*
X32884476Y-49290038D01*
X32884476Y-49290038D02*
X32979714Y-49242419D01*
X32979714Y-49242419D02*
X33217809Y-49242419D01*
X33217809Y-49242419D02*
X33313047Y-49290038D01*
X33313047Y-49290038D02*
X33360666Y-49337657D01*
X33360666Y-49337657D02*
X33408285Y-49432895D01*
X33408285Y-49432895D02*
X33408285Y-49528133D01*
X33408285Y-49528133D02*
X33360666Y-49670990D01*
X33360666Y-49670990D02*
X32789238Y-50242419D01*
X32789238Y-50242419D02*
X33408285Y-50242419D01*
X26629561Y-50646880D02*
X26581942Y-50694500D01*
X26581942Y-50694500D02*
X26439085Y-50742119D01*
X26439085Y-50742119D02*
X26343847Y-50742119D01*
X26343847Y-50742119D02*
X26200990Y-50694500D01*
X26200990Y-50694500D02*
X26105752Y-50599261D01*
X26105752Y-50599261D02*
X26058133Y-50504023D01*
X26058133Y-50504023D02*
X26010514Y-50313547D01*
X26010514Y-50313547D02*
X26010514Y-50170690D01*
X26010514Y-50170690D02*
X26058133Y-49980214D01*
X26058133Y-49980214D02*
X26105752Y-49884976D01*
X26105752Y-49884976D02*
X26200990Y-49789738D01*
X26200990Y-49789738D02*
X26343847Y-49742119D01*
X26343847Y-49742119D02*
X26439085Y-49742119D01*
X26439085Y-49742119D02*
X26581942Y-49789738D01*
X26581942Y-49789738D02*
X26629561Y-49837357D01*
X27248609Y-49742119D02*
X27343847Y-49742119D01*
X27343847Y-49742119D02*
X27439085Y-49789738D01*
X27439085Y-49789738D02*
X27486704Y-49837357D01*
X27486704Y-49837357D02*
X27534323Y-49932595D01*
X27534323Y-49932595D02*
X27581942Y-50123071D01*
X27581942Y-50123071D02*
X27581942Y-50361166D01*
X27581942Y-50361166D02*
X27534323Y-50551642D01*
X27534323Y-50551642D02*
X27486704Y-50646880D01*
X27486704Y-50646880D02*
X27439085Y-50694500D01*
X27439085Y-50694500D02*
X27343847Y-50742119D01*
X27343847Y-50742119D02*
X27248609Y-50742119D01*
X27248609Y-50742119D02*
X27153371Y-50694500D01*
X27153371Y-50694500D02*
X27105752Y-50646880D01*
X27105752Y-50646880D02*
X27058133Y-50551642D01*
X27058133Y-50551642D02*
X27010514Y-50361166D01*
X27010514Y-50361166D02*
X27010514Y-50123071D01*
X27010514Y-50123071D02*
X27058133Y-49932595D01*
X27058133Y-49932595D02*
X27105752Y-49837357D01*
X27105752Y-49837357D02*
X27153371Y-49789738D01*
X27153371Y-49789738D02*
X27248609Y-49742119D01*
X28439085Y-50075452D02*
X28439085Y-50742119D01*
X28200990Y-49694500D02*
X27962895Y-50408785D01*
X27962895Y-50408785D02*
X28581942Y-50408785D01*
X29153371Y-49742119D02*
X29248609Y-49742119D01*
X29248609Y-49742119D02*
X29343847Y-49789738D01*
X29343847Y-49789738D02*
X29391466Y-49837357D01*
X29391466Y-49837357D02*
X29439085Y-49932595D01*
X29439085Y-49932595D02*
X29486704Y-50123071D01*
X29486704Y-50123071D02*
X29486704Y-50361166D01*
X29486704Y-50361166D02*
X29439085Y-50551642D01*
X29439085Y-50551642D02*
X29391466Y-50646880D01*
X29391466Y-50646880D02*
X29343847Y-50694500D01*
X29343847Y-50694500D02*
X29248609Y-50742119D01*
X29248609Y-50742119D02*
X29153371Y-50742119D01*
X29153371Y-50742119D02*
X29058133Y-50694500D01*
X29058133Y-50694500D02*
X29010514Y-50646880D01*
X29010514Y-50646880D02*
X28962895Y-50551642D01*
X28962895Y-50551642D02*
X28915276Y-50361166D01*
X28915276Y-50361166D02*
X28915276Y-50123071D01*
X28915276Y-50123071D02*
X28962895Y-49932595D01*
X28962895Y-49932595D02*
X29010514Y-49837357D01*
X29010514Y-49837357D02*
X29058133Y-49789738D01*
X29058133Y-49789738D02*
X29153371Y-49742119D01*
X29867657Y-49837357D02*
X29915276Y-49789738D01*
X29915276Y-49789738D02*
X30010514Y-49742119D01*
X30010514Y-49742119D02*
X30248609Y-49742119D01*
X30248609Y-49742119D02*
X30343847Y-49789738D01*
X30343847Y-49789738D02*
X30391466Y-49837357D01*
X30391466Y-49837357D02*
X30439085Y-49932595D01*
X30439085Y-49932595D02*
X30439085Y-50027833D01*
X30439085Y-50027833D02*
X30391466Y-50170690D01*
X30391466Y-50170690D02*
X29820038Y-50742119D01*
X29820038Y-50742119D02*
X30439085Y-50742119D01*
X23903661Y-50146780D02*
X23856042Y-50194400D01*
X23856042Y-50194400D02*
X23713185Y-50242019D01*
X23713185Y-50242019D02*
X23617947Y-50242019D01*
X23617947Y-50242019D02*
X23475090Y-50194400D01*
X23475090Y-50194400D02*
X23379852Y-50099161D01*
X23379852Y-50099161D02*
X23332233Y-50003923D01*
X23332233Y-50003923D02*
X23284614Y-49813447D01*
X23284614Y-49813447D02*
X23284614Y-49670590D01*
X23284614Y-49670590D02*
X23332233Y-49480114D01*
X23332233Y-49480114D02*
X23379852Y-49384876D01*
X23379852Y-49384876D02*
X23475090Y-49289638D01*
X23475090Y-49289638D02*
X23617947Y-49242019D01*
X23617947Y-49242019D02*
X23713185Y-49242019D01*
X23713185Y-49242019D02*
X23856042Y-49289638D01*
X23856042Y-49289638D02*
X23903661Y-49337257D01*
X24522709Y-49242019D02*
X24617947Y-49242019D01*
X24617947Y-49242019D02*
X24713185Y-49289638D01*
X24713185Y-49289638D02*
X24760804Y-49337257D01*
X24760804Y-49337257D02*
X24808423Y-49432495D01*
X24808423Y-49432495D02*
X24856042Y-49622971D01*
X24856042Y-49622971D02*
X24856042Y-49861066D01*
X24856042Y-49861066D02*
X24808423Y-50051542D01*
X24808423Y-50051542D02*
X24760804Y-50146780D01*
X24760804Y-50146780D02*
X24713185Y-50194400D01*
X24713185Y-50194400D02*
X24617947Y-50242019D01*
X24617947Y-50242019D02*
X24522709Y-50242019D01*
X24522709Y-50242019D02*
X24427471Y-50194400D01*
X24427471Y-50194400D02*
X24379852Y-50146780D01*
X24379852Y-50146780D02*
X24332233Y-50051542D01*
X24332233Y-50051542D02*
X24284614Y-49861066D01*
X24284614Y-49861066D02*
X24284614Y-49622971D01*
X24284614Y-49622971D02*
X24332233Y-49432495D01*
X24332233Y-49432495D02*
X24379852Y-49337257D01*
X24379852Y-49337257D02*
X24427471Y-49289638D01*
X24427471Y-49289638D02*
X24522709Y-49242019D01*
X25713185Y-49575352D02*
X25713185Y-50242019D01*
X25475090Y-49194400D02*
X25236995Y-49908685D01*
X25236995Y-49908685D02*
X25856042Y-49908685D01*
X26427471Y-49242019D02*
X26522709Y-49242019D01*
X26522709Y-49242019D02*
X26617947Y-49289638D01*
X26617947Y-49289638D02*
X26665566Y-49337257D01*
X26665566Y-49337257D02*
X26713185Y-49432495D01*
X26713185Y-49432495D02*
X26760804Y-49622971D01*
X26760804Y-49622971D02*
X26760804Y-49861066D01*
X26760804Y-49861066D02*
X26713185Y-50051542D01*
X26713185Y-50051542D02*
X26665566Y-50146780D01*
X26665566Y-50146780D02*
X26617947Y-50194400D01*
X26617947Y-50194400D02*
X26522709Y-50242019D01*
X26522709Y-50242019D02*
X26427471Y-50242019D01*
X26427471Y-50242019D02*
X26332233Y-50194400D01*
X26332233Y-50194400D02*
X26284614Y-50146780D01*
X26284614Y-50146780D02*
X26236995Y-50051542D01*
X26236995Y-50051542D02*
X26189376Y-49861066D01*
X26189376Y-49861066D02*
X26189376Y-49622971D01*
X26189376Y-49622971D02*
X26236995Y-49432495D01*
X26236995Y-49432495D02*
X26284614Y-49337257D01*
X26284614Y-49337257D02*
X26332233Y-49289638D01*
X26332233Y-49289638D02*
X26427471Y-49242019D01*
X27141757Y-49337257D02*
X27189376Y-49289638D01*
X27189376Y-49289638D02*
X27284614Y-49242019D01*
X27284614Y-49242019D02*
X27522709Y-49242019D01*
X27522709Y-49242019D02*
X27617947Y-49289638D01*
X27617947Y-49289638D02*
X27665566Y-49337257D01*
X27665566Y-49337257D02*
X27713185Y-49432495D01*
X27713185Y-49432495D02*
X27713185Y-49527733D01*
X27713185Y-49527733D02*
X27665566Y-49670590D01*
X27665566Y-49670590D02*
X27094138Y-50242019D01*
X27094138Y-50242019D02*
X27713185Y-50242019D01*
X19087861Y-55623680D02*
X19040242Y-55671300D01*
X19040242Y-55671300D02*
X18897385Y-55718919D01*
X18897385Y-55718919D02*
X18802147Y-55718919D01*
X18802147Y-55718919D02*
X18659290Y-55671300D01*
X18659290Y-55671300D02*
X18564052Y-55576061D01*
X18564052Y-55576061D02*
X18516433Y-55480823D01*
X18516433Y-55480823D02*
X18468814Y-55290347D01*
X18468814Y-55290347D02*
X18468814Y-55147490D01*
X18468814Y-55147490D02*
X18516433Y-54957014D01*
X18516433Y-54957014D02*
X18564052Y-54861776D01*
X18564052Y-54861776D02*
X18659290Y-54766538D01*
X18659290Y-54766538D02*
X18802147Y-54718919D01*
X18802147Y-54718919D02*
X18897385Y-54718919D01*
X18897385Y-54718919D02*
X19040242Y-54766538D01*
X19040242Y-54766538D02*
X19087861Y-54814157D01*
X19706909Y-54718919D02*
X19802147Y-54718919D01*
X19802147Y-54718919D02*
X19897385Y-54766538D01*
X19897385Y-54766538D02*
X19945004Y-54814157D01*
X19945004Y-54814157D02*
X19992623Y-54909395D01*
X19992623Y-54909395D02*
X20040242Y-55099871D01*
X20040242Y-55099871D02*
X20040242Y-55337966D01*
X20040242Y-55337966D02*
X19992623Y-55528442D01*
X19992623Y-55528442D02*
X19945004Y-55623680D01*
X19945004Y-55623680D02*
X19897385Y-55671300D01*
X19897385Y-55671300D02*
X19802147Y-55718919D01*
X19802147Y-55718919D02*
X19706909Y-55718919D01*
X19706909Y-55718919D02*
X19611671Y-55671300D01*
X19611671Y-55671300D02*
X19564052Y-55623680D01*
X19564052Y-55623680D02*
X19516433Y-55528442D01*
X19516433Y-55528442D02*
X19468814Y-55337966D01*
X19468814Y-55337966D02*
X19468814Y-55099871D01*
X19468814Y-55099871D02*
X19516433Y-54909395D01*
X19516433Y-54909395D02*
X19564052Y-54814157D01*
X19564052Y-54814157D02*
X19611671Y-54766538D01*
X19611671Y-54766538D02*
X19706909Y-54718919D01*
X20897385Y-55052252D02*
X20897385Y-55718919D01*
X20659290Y-54671300D02*
X20421195Y-55385585D01*
X20421195Y-55385585D02*
X21040242Y-55385585D01*
X21611671Y-54718919D02*
X21706909Y-54718919D01*
X21706909Y-54718919D02*
X21802147Y-54766538D01*
X21802147Y-54766538D02*
X21849766Y-54814157D01*
X21849766Y-54814157D02*
X21897385Y-54909395D01*
X21897385Y-54909395D02*
X21945004Y-55099871D01*
X21945004Y-55099871D02*
X21945004Y-55337966D01*
X21945004Y-55337966D02*
X21897385Y-55528442D01*
X21897385Y-55528442D02*
X21849766Y-55623680D01*
X21849766Y-55623680D02*
X21802147Y-55671300D01*
X21802147Y-55671300D02*
X21706909Y-55718919D01*
X21706909Y-55718919D02*
X21611671Y-55718919D01*
X21611671Y-55718919D02*
X21516433Y-55671300D01*
X21516433Y-55671300D02*
X21468814Y-55623680D01*
X21468814Y-55623680D02*
X21421195Y-55528442D01*
X21421195Y-55528442D02*
X21373576Y-55337966D01*
X21373576Y-55337966D02*
X21373576Y-55099871D01*
X21373576Y-55099871D02*
X21421195Y-54909395D01*
X21421195Y-54909395D02*
X21468814Y-54814157D01*
X21468814Y-54814157D02*
X21516433Y-54766538D01*
X21516433Y-54766538D02*
X21611671Y-54718919D01*
X22325957Y-54814157D02*
X22373576Y-54766538D01*
X22373576Y-54766538D02*
X22468814Y-54718919D01*
X22468814Y-54718919D02*
X22706909Y-54718919D01*
X22706909Y-54718919D02*
X22802147Y-54766538D01*
X22802147Y-54766538D02*
X22849766Y-54814157D01*
X22849766Y-54814157D02*
X22897385Y-54909395D01*
X22897385Y-54909395D02*
X22897385Y-55004633D01*
X22897385Y-55004633D02*
X22849766Y-55147490D01*
X22849766Y-55147490D02*
X22278338Y-55718919D01*
X22278338Y-55718919D02*
X22897385Y-55718919D01*
X26406876Y-56842319D02*
X26406876Y-57556604D01*
X26406876Y-57556604D02*
X26359257Y-57699461D01*
X26359257Y-57699461D02*
X26264019Y-57794700D01*
X26264019Y-57794700D02*
X26121162Y-57842319D01*
X26121162Y-57842319D02*
X26025924Y-57842319D01*
X26644972Y-57937557D02*
X27406876Y-57937557D01*
X27644972Y-57842319D02*
X27644972Y-56842319D01*
X27644972Y-56842319D02*
X28025924Y-56842319D01*
X28025924Y-56842319D02*
X28121162Y-56889938D01*
X28121162Y-56889938D02*
X28168781Y-56937557D01*
X28168781Y-56937557D02*
X28216400Y-57032795D01*
X28216400Y-57032795D02*
X28216400Y-57175652D01*
X28216400Y-57175652D02*
X28168781Y-57270890D01*
X28168781Y-57270890D02*
X28121162Y-57318509D01*
X28121162Y-57318509D02*
X28025924Y-57366128D01*
X28025924Y-57366128D02*
X27644972Y-57366128D01*
X28549734Y-56842319D02*
X28787829Y-57842319D01*
X28787829Y-57842319D02*
X28978305Y-57128033D01*
X28978305Y-57128033D02*
X29168781Y-57842319D01*
X29168781Y-57842319D02*
X29406877Y-56842319D01*
X30359257Y-57842319D02*
X30025924Y-57366128D01*
X29787829Y-57842319D02*
X29787829Y-56842319D01*
X29787829Y-56842319D02*
X30168781Y-56842319D01*
X30168781Y-56842319D02*
X30264019Y-56889938D01*
X30264019Y-56889938D02*
X30311638Y-56937557D01*
X30311638Y-56937557D02*
X30359257Y-57032795D01*
X30359257Y-57032795D02*
X30359257Y-57175652D01*
X30359257Y-57175652D02*
X30311638Y-57270890D01*
X30311638Y-57270890D02*
X30264019Y-57318509D01*
X30264019Y-57318509D02*
X30168781Y-57366128D01*
X30168781Y-57366128D02*
X29787829Y-57366128D01*
X27602790Y-28130719D02*
X27602790Y-28845004D01*
X27602790Y-28845004D02*
X27555171Y-28987861D01*
X27555171Y-28987861D02*
X27459933Y-29083100D01*
X27459933Y-29083100D02*
X27317076Y-29130719D01*
X27317076Y-29130719D02*
X27221838Y-29130719D01*
X27840886Y-29225957D02*
X28602790Y-29225957D01*
X29412314Y-29035480D02*
X29364695Y-29083100D01*
X29364695Y-29083100D02*
X29221838Y-29130719D01*
X29221838Y-29130719D02*
X29126600Y-29130719D01*
X29126600Y-29130719D02*
X28983743Y-29083100D01*
X28983743Y-29083100D02*
X28888505Y-28987861D01*
X28888505Y-28987861D02*
X28840886Y-28892623D01*
X28840886Y-28892623D02*
X28793267Y-28702147D01*
X28793267Y-28702147D02*
X28793267Y-28559290D01*
X28793267Y-28559290D02*
X28840886Y-28368814D01*
X28840886Y-28368814D02*
X28888505Y-28273576D01*
X28888505Y-28273576D02*
X28983743Y-28178338D01*
X28983743Y-28178338D02*
X29126600Y-28130719D01*
X29126600Y-28130719D02*
X29221838Y-28130719D01*
X29221838Y-28130719D02*
X29364695Y-28178338D01*
X29364695Y-28178338D02*
X29412314Y-28225957D01*
X29698029Y-28130719D02*
X30269457Y-28130719D01*
X29983743Y-29130719D02*
X29983743Y-28130719D01*
X31174219Y-29130719D02*
X30840886Y-28654528D01*
X30602791Y-29130719D02*
X30602791Y-28130719D01*
X30602791Y-28130719D02*
X30983743Y-28130719D01*
X30983743Y-28130719D02*
X31078981Y-28178338D01*
X31078981Y-28178338D02*
X31126600Y-28225957D01*
X31126600Y-28225957D02*
X31174219Y-28321195D01*
X31174219Y-28321195D02*
X31174219Y-28464052D01*
X31174219Y-28464052D02*
X31126600Y-28559290D01*
X31126600Y-28559290D02*
X31078981Y-28606909D01*
X31078981Y-28606909D02*
X30983743Y-28654528D01*
X30983743Y-28654528D02*
X30602791Y-28654528D01*
X32078981Y-29130719D02*
X31602791Y-29130719D01*
X31602791Y-29130719D02*
X31602791Y-28130719D01*
X18698728Y-20618119D02*
X18698728Y-21332404D01*
X18698728Y-21332404D02*
X18651109Y-21475261D01*
X18651109Y-21475261D02*
X18555871Y-21570500D01*
X18555871Y-21570500D02*
X18413014Y-21618119D01*
X18413014Y-21618119D02*
X18317776Y-21618119D01*
X18936824Y-21713357D02*
X19698728Y-21713357D01*
X20222538Y-20618119D02*
X20222538Y-21332404D01*
X20222538Y-21332404D02*
X20174919Y-21475261D01*
X20174919Y-21475261D02*
X20079681Y-21570500D01*
X20079681Y-21570500D02*
X19936824Y-21618119D01*
X19936824Y-21618119D02*
X19841586Y-21618119D01*
X20555872Y-20618119D02*
X21127300Y-20618119D01*
X20841586Y-21618119D02*
X20841586Y-20618119D01*
X21413015Y-21332404D02*
X21889205Y-21332404D01*
X21317777Y-21618119D02*
X21651110Y-20618119D01*
X21651110Y-20618119D02*
X21984443Y-21618119D01*
X22841586Y-20665738D02*
X22746348Y-20618119D01*
X22746348Y-20618119D02*
X22603491Y-20618119D01*
X22603491Y-20618119D02*
X22460634Y-20665738D01*
X22460634Y-20665738D02*
X22365396Y-20760976D01*
X22365396Y-20760976D02*
X22317777Y-20856214D01*
X22317777Y-20856214D02*
X22270158Y-21046690D01*
X22270158Y-21046690D02*
X22270158Y-21189547D01*
X22270158Y-21189547D02*
X22317777Y-21380023D01*
X22317777Y-21380023D02*
X22365396Y-21475261D01*
X22365396Y-21475261D02*
X22460634Y-21570500D01*
X22460634Y-21570500D02*
X22603491Y-21618119D01*
X22603491Y-21618119D02*
X22698729Y-21618119D01*
X22698729Y-21618119D02*
X22841586Y-21570500D01*
X22841586Y-21570500D02*
X22889205Y-21522880D01*
X22889205Y-21522880D02*
X22889205Y-21189547D01*
X22889205Y-21189547D02*
X22698729Y-21189547D01*
%TO.C,U1*%
D11*
X20068100Y-31180700D02*
X36068100Y-31180700D01*
X36068100Y-47180700D01*
X20068100Y-47180700D01*
X20068100Y-31180700D01*
%TO.C,U2*%
X18024700Y-48164500D02*
X22024700Y-48164500D01*
X22024700Y-53164500D01*
X18024700Y-53164500D01*
X18024700Y-48164500D01*
%TO.C,Y1*%
X16214600Y-42280500D02*
X19414600Y-42280500D01*
X19414600Y-44780500D01*
X16214600Y-44780500D01*
X16214600Y-42280500D01*
%TO.C,C1*%
X30094000Y-48187600D02*
X32294000Y-48187600D01*
X32294000Y-49387600D01*
X30094000Y-49387600D01*
X30094000Y-48187600D01*
%TO.C,C2*%
X27124800Y-48687300D02*
X29324800Y-48687300D01*
X29324800Y-49887300D01*
X27124800Y-49887300D01*
X27124800Y-48687300D01*
%TO.C,C3*%
X24398900Y-48187200D02*
X26598900Y-48187200D01*
X26598900Y-49387200D01*
X24398900Y-49387200D01*
X24398900Y-48187200D01*
%TO.C,C4*%
X19583100Y-53664100D02*
X21783100Y-53664100D01*
X21783100Y-54864100D01*
X19583100Y-54864100D01*
X19583100Y-53664100D01*
%TO.C,J1*%
X23216400Y-52387500D02*
X33216400Y-52387500D01*
X33216400Y-60387500D01*
X23216400Y-60387500D01*
X23216400Y-52387500D01*
%TO.C,J2*%
X17626600Y-25175900D02*
X41626600Y-25175900D01*
X41626600Y-30175900D01*
X17626600Y-30175900D01*
X17626600Y-25175900D01*
%TO.C,J3*%
X16627300Y-17663300D02*
X24627300Y-17663300D01*
X24627300Y-22663300D01*
X16627300Y-22663300D01*
X16627300Y-17663300D01*
%TD*%
M02*
